<svg xmlns="http://www.w3.org/2000/svg" xmlns:xlink="http://www.w3.org/1999/xlink" width="439.659" height="338.963" viewBox="0 0 439.659 338.963">
  <defs>
    <linearGradient id="linear-gradient" x1="0.5" x2="0.5" y2="1" gradientUnits="objectBoundingBox">
      <stop offset="0" stop-color="#282962"/>
      <stop offset="1" stop-color="#31326f"/>
    </linearGradient>
  </defs>
  <g id="Grupo_54792" data-name="Grupo 54792" transform="translate(-914.181 -144.403)">
    <g id="Grupo_53401" data-name="Grupo 53401" transform="translate(914.181 168.494)">
      <path id="Trazado_99268" data-name="Trazado 99268" d="M387.849,122.3H369.832a16.32,16.32,0,0,1-16.32-16.32h0a16.321,16.321,0,0,1,16.32-16.321h11.342a7.044,7.044,0,0,0,7.047-5.88,6.909,6.909,0,0,0-6.831-7.93H354.323a.816.816,0,0,1-.81-.829,16.582,16.582,0,0,0-16.582-16.562h-97.7a4.454,4.454,0,0,1-4.421-3.449,4.352,4.352,0,0,1,4.257-5.247H307.17a8.785,8.785,0,0,0,8.762-7.216A8.637,8.637,0,0,0,307.413,32.5H111.622a8.785,8.785,0,0,0-8.762,7.215,8.638,8.638,0,0,0,8.519,10.048h33.443a9.617,9.617,0,0,1,9.592,7.9,9.455,9.455,0,0,1-9.326,11H45.674A36.874,36.874,0,0,0,8.8,105.539h0a36.876,36.876,0,0,0,30.016,36.227,5.438,5.438,0,0,1,4.384,5.367v3.009a5.48,5.48,0,0,1-5.48,5.48h0A27.129,27.129,0,0,0,10.59,182.751h0A27.129,27.129,0,0,0,37.72,209.879h.1a8.154,8.154,0,0,1,8.153,8.153v.02a8.469,8.469,0,0,1-7.707,8.4,8.863,8.863,0,0,0-2,.373,21.008,21.008,0,0,0,6.989,40.844H355.275c11.047,0,20.559-8.329,21.441-19.341.007-.1.015-.2.021-.292a10.116,10.116,0,0,1,10.056-9.522h3.866a17.455,17.455,0,0,0,17.455-17.455h0c0-7.269-5.86-13.282-12.875-15.8a10.7,10.7,0,0,1-7.227-10.019v-.5a11.608,11.608,0,0,1,8.5-11.116,31.278,31.278,0,0,0,22.6-30.049h0A31.264,31.264,0,0,0,387.849,122.3Z" transform="translate(20.546 -0.066)" fill="url(#linear-gradient)"/>
      <g id="Grupo_53388" data-name="Grupo 53388" transform="translate(275.859 15.829)">
        <g id="Grupo_53383" data-name="Grupo 53383">
          <path id="Trazado_99274" data-name="Trazado 99274" d="M255.058,27.117a.946.946,0,0,1-.669-1.615l3.766-3.767-4.121-4.121a.946.946,0,1,1,1.338-1.337l4.789,4.79a.944.944,0,0,1,0,1.337l-4.435,4.435A.94.94,0,0,1,255.058,27.117Z" transform="translate(-253.757 -16)" fill="#dbf6e9"/>
        </g>
        <g id="Grupo_53384" data-name="Grupo 53384" transform="translate(6.682)">
          <path id="Trazado_99275" data-name="Trazado 99275" d="M261.7,27.117a.946.946,0,0,1-.669-1.615l3.766-3.767-4.121-4.121a.946.946,0,1,1,1.338-1.337l4.79,4.79a.946.946,0,0,1,0,1.337l-4.436,4.435A.94.94,0,0,1,261.7,27.117Z" transform="translate(-260.397 -16)" fill="#dbf6e9"/>
        </g>
        <g id="Grupo_53385" data-name="Grupo 53385" transform="translate(13.364)">
          <path id="Trazado_99276" data-name="Trazado 99276" d="M268.338,27.117a.946.946,0,0,1-.669-1.615l3.766-3.767-4.121-4.121a.946.946,0,1,1,1.338-1.337l4.79,4.79a.946.946,0,0,1,0,1.337l-4.435,4.435A.944.944,0,0,1,268.338,27.117Z" transform="translate(-267.037 -16)" fill="#dbf6e9"/>
        </g>
        <g id="Grupo_53386" data-name="Grupo 53386" transform="translate(20.047)">
          <path id="Trazado_99277" data-name="Trazado 99277" d="M274.978,27.117a.946.946,0,0,1-.669-1.615l3.767-3.767-4.121-4.121a.946.946,0,0,1,1.337-1.337l4.79,4.79a.946.946,0,0,1,0,1.337l-4.435,4.435A.945.945,0,0,1,274.978,27.117Z" transform="translate(-273.677 -16)" fill="#dbf6e9"/>
        </g>
        <g id="Grupo_53387" data-name="Grupo 53387" transform="translate(26.729)">
          <path id="Trazado_99278" data-name="Trazado 99278" d="M281.618,27.117a.946.946,0,0,1-.669-1.615l3.767-3.767-4.121-4.121a.946.946,0,1,1,1.337-1.337l4.79,4.79a.946.946,0,0,1,0,1.337l-4.435,4.435A.943.943,0,0,1,281.618,27.117Z" transform="translate(-280.317 -16)" fill="#dbf6e9"/>
        </g>
      </g>
      <g id="Grupo_53394" data-name="Grupo 53394" transform="translate(0 141.971)">
        <g id="Grupo_53389" data-name="Grupo 53389">
          <path id="Trazado_99279" data-name="Trazado 99279" d="M-19.06,152.463a.943.943,0,0,1-.669-.277.947.947,0,0,1,0-1.338l3.767-3.766-4.121-4.121a.944.944,0,0,1,0-1.337.944.944,0,0,1,1.337,0l4.79,4.789a.947.947,0,0,1,0,1.338l-4.435,4.435A.942.942,0,0,1-19.06,152.463Z" transform="translate(20.361 -141.346)" fill="#dbf6e9"/>
        </g>
        <g id="Grupo_53390" data-name="Grupo 53390" transform="translate(6.683)">
          <path id="Trazado_99280" data-name="Trazado 99280" d="M-12.42,152.463a.943.943,0,0,1-.669-.277.947.947,0,0,1,0-1.338l3.767-3.766-4.121-4.121a.946.946,0,0,1,0-1.337.944.944,0,0,1,1.337,0l4.79,4.789a.947.947,0,0,1,0,1.338l-4.435,4.435A.942.942,0,0,1-12.42,152.463Z" transform="translate(13.72 -141.346)" fill="#dbf6e9"/>
        </g>
        <g id="Grupo_53391" data-name="Grupo 53391" transform="translate(13.365)">
          <path id="Trazado_99281" data-name="Trazado 99281" d="M-5.78,152.463a.939.939,0,0,1-.668-.277.945.945,0,0,1,0-1.338l3.766-3.766L-6.8,142.961a.946.946,0,0,1,0-1.337.945.945,0,0,1,1.338,0l4.789,4.789a.945.945,0,0,1,0,1.338l-4.435,4.435A.941.941,0,0,1-5.78,152.463Z" transform="translate(7.08 -141.346)" fill="#dbf6e9"/>
        </g>
        <g id="Grupo_53392" data-name="Grupo 53392" transform="translate(20.047)">
          <path id="Trazado_99282" data-name="Trazado 99282" d="M.86,152.463a.946.946,0,0,1-.668-1.615l3.766-3.766-4.121-4.121a.946.946,0,0,1,1.338-1.337l4.789,4.789a.945.945,0,0,1,0,1.338l-4.435,4.435A.94.94,0,0,1,.86,152.463Z" transform="translate(0.44 -141.346)" fill="#dbf6e9"/>
        </g>
        <g id="Grupo_53393" data-name="Grupo 53393" transform="translate(26.73)">
          <path id="Trazado_99283" data-name="Trazado 99283" d="M7.5,152.463a.946.946,0,0,1-.669-1.615l3.766-3.766-4.121-4.121a.946.946,0,0,1,1.338-1.337l4.79,4.789a.947.947,0,0,1,0,1.338l-4.436,4.435A.939.939,0,0,1,7.5,152.463Z" transform="translate(-6.2 -141.346)" fill="#dbf6e9"/>
        </g>
      </g>
      <g id="Grupo_53400" data-name="Grupo 53400" transform="translate(321.831 76.487)">
        <g id="Grupo_53395" data-name="Grupo 53395">
          <path id="Trazado_99284" data-name="Trazado 99284" d="M368.979,109.624a1,1,0,0,1-.706-1.707l3.98-3.98L367.9,99.583a1,1,0,1,1,1.414-1.414l5.062,5.062a1,1,0,0,1,0,1.414l-4.687,4.687A1,1,0,0,1,368.979,109.624Z" transform="translate(-367.604 -97.876)" fill="#cc3d60"/>
        </g>
        <g id="Grupo_53396" data-name="Grupo 53396" transform="translate(7.062)">
          <path id="Trazado_99285" data-name="Trazado 99285" d="M376,109.624a1,1,0,0,1-.706-1.707l3.98-3.98-4.356-4.354a1,1,0,1,1,1.414-1.414l5.062,5.062a1,1,0,0,1,0,1.414l-4.687,4.687A1,1,0,0,1,376,109.624Z" transform="translate(-374.621 -97.876)" fill="#cc3d60"/>
        </g>
        <g id="Grupo_53397" data-name="Grupo 53397" transform="translate(14.123)">
          <path id="Trazado_99286" data-name="Trazado 99286" d="M383.013,109.624a1,1,0,0,1-.706-1.707l3.98-3.98-4.356-4.354a1,1,0,1,1,1.414-1.414l5.062,5.062a1,1,0,0,1,0,1.414l-4.687,4.687A1,1,0,0,1,383.013,109.624Z" transform="translate(-381.638 -97.876)" fill="#cc3d60"/>
        </g>
        <g id="Grupo_53398" data-name="Grupo 53398" transform="translate(21.185)">
          <path id="Trazado_99287" data-name="Trazado 99287" d="M390.03,109.624a1,1,0,0,1-.706-1.707l3.98-3.98-4.355-4.354a1,1,0,1,1,1.414-1.414l5.062,5.062a1,1,0,0,1,0,1.414l-4.687,4.687A1,1,0,0,1,390.03,109.624Z" transform="translate(-388.655 -97.876)" fill="#cc3d60"/>
        </g>
        <g id="Grupo_53399" data-name="Grupo 53399" transform="translate(28.246)">
          <path id="Trazado_99288" data-name="Trazado 99288" d="M397.047,109.624a1,1,0,0,1-.706-1.707l3.98-3.98-4.355-4.354a1,1,0,1,1,1.414-1.414l5.062,5.062a1,1,0,0,1,0,1.414l-4.687,4.687A1,1,0,0,1,397.047,109.624Z" transform="translate(-395.672 -97.876)" fill="#cc3d60"/>
        </g>
      </g>
      <circle id="Elipse_2" data-name="Elipse 2" cx="9.015" cy="9.015" r="9.015" transform="translate(93.362 47.569) rotate(-76.769)" fill="#cc3d60"/>
      <path id="Trazado_99289" data-name="Trazado 99289" d="M242.173,21.537a2.206,2.206,0,1,1-2.206-2.206A2.205,2.205,0,0,1,242.173,21.537Z" transform="translate(22.001 -0.15)" fill="#9ddfd3"/>
      <path id="Trazado_99290" data-name="Trazado 99290" d="M208.439,2.765A2.493,2.493,0,1,1,205.947.271,2.494,2.494,0,0,1,208.439,2.765Z" transform="translate(21.783 -0.271)" fill="#9ddfd3"/>
      <path id="Trazado_99291" data-name="Trazado 99291" d="M1.78,119.689a2.206,2.206,0,0,1-2.206,2.206,2.205,2.205,0,0,1-2.206-2.206,2.205,2.205,0,0,1,2.206-2.206A2.206,2.206,0,0,1,1.78,119.689Z" transform="translate(20.474 0.474)" fill="#9ddfd3"/>
      <path id="Trazado_99292" data-name="Trazado 99292" d="M-6.043,188.133a2.493,2.493,0,0,1-2.494,2.494,2.493,2.493,0,0,1-2.493-2.494,2.493,2.493,0,0,1,2.493-2.493A2.493,2.493,0,0,1-6.043,188.133Z" transform="translate(20.42 0.907)" fill="#9ddfd3"/>
      <path id="Trazado_99293" data-name="Trazado 99293" d="M13.874,253.606a2.494,2.494,0,1,1-2.494-2.494A2.494,2.494,0,0,1,13.874,253.606Z" transform="translate(20.547 1.323)" fill="#9ddfd3"/>
      <path id="Trazado_99294" data-name="Trazado 99294" d="M401.69,189.986a2.494,2.494,0,1,1-2.494-2.493A2.494,2.494,0,0,1,401.69,189.986Z" transform="translate(23.011 0.919)" fill="#9ddfd3"/>
      <circle id="Elipse_4" data-name="Elipse 4" cx="7.864" cy="7.864" r="7.864" transform="translate(419.352 72.506)" fill="#9ddfd3"/>
      <circle id="Elipse_5" data-name="Elipse 5" cx="7.864" cy="7.864" r="7.864" transform="translate(421.614 254.902) rotate(-80.783)" fill="#ffc93c"/>
    </g>
    <g id="Grupo_53375" data-name="Grupo 53375" transform="translate(1266.08 144.403)">
      <path id="Trazado_99231" data-name="Trazado 99231" d="M378.6,171.282a5.379,5.379,0,1,1-10.757,0,5.379,5.379,0,0,1,10.757,0Z" transform="translate(-336.381 -98.942)" fill="#45b0e6"/>
      <path id="Trazado_99232" data-name="Trazado 99232" d="M378.6,173.567a5.4,5.4,0,0,1-.249,1.62,16.738,16.738,0,0,1-4.8.51,20.471,20.471,0,0,1-5.461-.51,5.4,5.4,0,0,1-.249-1.62,5.325,5.325,0,0,1,1.143-3.306,17.94,17.94,0,0,0,8.476,0A5.347,5.347,0,0,1,378.6,173.567Z" transform="translate(-336.381 -101.228)" opacity="0.5" style="mix-blend-mode: soft-light;isolation: isolate"/>
      <path id="Trazado_99233" data-name="Trazado 99233" d="M376.109,82.054a.04.04,0,0,0-.006.018A17.54,17.54,0,0,1,374.93,84.7c-2.073,3.753-5.369,6.66-7.926,10.1-2.405,3.242-4.163,7.424-3.142,11.254a24.64,24.64,0,0,1-6.07,1.256,14.155,14.155,0,0,1-6.8-1.129c1.1-3.866-.677-8.106-3.1-11.382-2.554-3.439-5.853-6.346-7.922-10.1-.125-.226-.244-.454-.353-.686a18.874,18.874,0,0,1,1.324-18.7c5.824-8.439,18.147-10.147,26.844-5.446a17.463,17.463,0,0,1,6.177,5.446A18.953,18.953,0,0,1,376.109,82.054Z" transform="translate(-320.601 -42.011)" fill="#ffc93c"/>
      <path id="Trazado_99234" data-name="Trazado 99234" d="M378.165,109.367A17.54,17.54,0,0,1,376.992,112c-2.073,3.753-5.369,6.66-7.926,10.1-2.405,3.242-4.163,7.424-3.142,11.254a24.639,24.639,0,0,1-6.07,1.256,14.155,14.155,0,0,1-6.8-1.129c1.1-3.866-.677-8.106-3.1-11.382-2.553-3.439-5.853-6.346-7.922-10.1-.125-.226-.244-.454-.353-.686,1.823,1.636,3.483,3.462,5.41,4.977.262.208.532.407.8.6a21.289,21.289,0,0,0,16.6,3.661c5.841-1.309,11.192-5.262,13.508-10.779C378.052,109.64,378.105,109.5,378.165,109.367Z" transform="translate(-322.663 -69.306)" opacity="0.5" style="mix-blend-mode: soft-light;isolation: isolate"/>
      <path id="Trazado_99235" data-name="Trazado 99235" d="M376.885,171.694a14.26,14.26,0,0,1-6.279,1.061,17.664,17.664,0,0,1-6.275-.78c-.225-.085-.448-.178-.667-.282-2.458-1.154-1.59-5.538,1.128-4.717.145.04.283.087.428.127a18.064,18.064,0,0,0,10.11,0c.145-.04.283-.087.428-.127C378.475,166.156,379.343,170.54,376.885,171.694Z" transform="translate(-333.43 -99.453)" fill="#fff"/>
      <path id="Trazado_99236" data-name="Trazado 99236" d="M376.885,163.372a14.26,14.26,0,0,1-6.279,1.061,17.663,17.663,0,0,1-6.275-.78c-.225-.085-.448-.178-.667-.282-2.458-1.154-1.59-5.538,1.128-4.717.145.04.283.087.428.127a18.06,18.06,0,0,0,10.11,0c.145-.04.283-.087.428-.127C378.475,157.835,379.343,162.218,376.885,163.372Z" transform="translate(-333.43 -95.09)" fill="#fff"/>
      <path id="Trazado_99237" data-name="Trazado 99237" d="M376.885,155.051a14.267,14.267,0,0,1-6.279,1.061,17.664,17.664,0,0,1-6.275-.78q-.338-.128-.667-.281c-2.458-1.155-1.59-5.538,1.128-4.717.145.04.283.087.428.127a18.059,18.059,0,0,0,10.11,0c.145-.04.283-.087.428-.127C378.475,149.513,379.343,153.9,376.885,155.051Z" transform="translate(-333.43 -90.728)" fill="#fff"/>
      <path id="Trazado_99238" data-name="Trazado 99238" d="M378.381,110.207c-.082-.288-.567-.206-.609.113-.229,1.739-.473,2.947-2.331,3.461a4.036,4.036,0,0,1-2.333-.224,3.678,3.678,0,0,0,1.343-1.2,2.092,2.092,0,0,0-.073-2.576,2.129,2.129,0,0,0-2.871.089c-1.184,1.127-.885,2.324.029,3.467a4.324,4.324,0,0,1-2.583-.2c.755-.7,1.514-1.478,1.29-2.618a1.826,1.826,0,0,0-2.166-1.394,1.972,1.972,0,0,0-1.661,2.315,3.063,3.063,0,0,0,1,1.64,5.075,5.075,0,0,1-2.653.03,2.052,2.052,0,0,0,.473-2.555,1.9,1.9,0,0,0-2.659-.7,1.816,1.816,0,0,0-.068,2.837,4.514,4.514,0,0,0,.852.655,4.651,4.651,0,0,1-.935.486,2.977,2.977,0,0,1-1.026.238c-1.636-.093-2.076-1.544-2.559-2.916-.1-.271-.577-.243-.62.022a3.052,3.052,0,0,0,2.26,3.541,3.569,3.569,0,0,0,1.6-.032.6.6,0,0,0,.162-.045,8.245,8.245,0,0,0,1.858-.983,5.632,5.632,0,0,0,4.051-.035c.1.05.18.111.281.152a5.84,5.84,0,0,0,3.8.153,3.838,3.838,0,0,0,1.57.627C376.578,114.657,379.286,113.375,378.381,110.207Zm-14.435,2.582c-.087.082-.644-.45-.7-.524a1.731,1.731,0,0,1-.529-1.2.845.845,0,0,1,1.138-.716,1.077,1.077,0,0,1,.721,1.285A1.964,1.964,0,0,1,363.946,112.789Zm4.244-.093c-.037-.041-.09-.052-.127-.093-.364-.415-.741-.686-.756-1.329-.022-.913.8-1.709,1.719-1.066.529.372.3,1.241-.034,1.717A3.479,3.479,0,0,1,368.19,112.7Zm4.1.371a1.962,1.962,0,0,1-.66-1.576,1.473,1.473,0,0,1,.7-1.149.992.992,0,0,1,1.557.836,2.373,2.373,0,0,1-1.306,1.735C372.483,112.98,372.389,113.01,372.289,113.067Z" transform="translate(-331.311 -69.161)" style="mix-blend-mode: soft-light;isolation: isolate"/>
      <path id="Trazado_99239" data-name="Trazado 99239" d="M378.747,160.381a32.418,32.418,0,0,1-6.1.778c-1.93-.027-3.8-.582-5.7-.64a.083.083,0,0,0-.042.155c1.6,1.067,4.115,1.283,5.983,1.26a13.442,13.442,0,0,0,5.985-1.246C379.053,160.6,378.925,160.35,378.747,160.381Z" transform="translate(-335.869 -96.047)" fill="#263780"/>
      <path id="Trazado_99240" data-name="Trazado 99240" d="M367.22,168.616a32.215,32.215,0,0,0,6.073.755c1.917-.034,3.764-.6,5.65-.662a.084.084,0,0,1,.045.155c-1.572,1.073-4.064,1.3-5.92,1.283a13.4,13.4,0,0,1-5.971-1.223C366.92,168.834,367.042,168.586,367.22,168.616Z" transform="translate(-335.944 -100.364)" fill="#263780"/>
      <path id="Trazado_99241" data-name="Trazado 99241" d="M361.174,63.378a9.649,9.649,0,0,0-6.284.052,14.654,14.654,0,0,0-9.4,8.1,8.59,8.59,0,0,0-.109,6.889c1.678,3.472,6.575,3.8,9.906,3.016a14.305,14.305,0,0,0,9.226-7.491c1.643-3.386.784-8.613-2.918-10.38Q361.387,63.461,361.174,63.378Z" transform="translate(-324.252 -44.933)" fill="#fff" style="mix-blend-mode: soft-light;isolation: isolate"/>
      <g id="Grupo_53374" data-name="Grupo 53374" transform="translate(0 0)">
        <path id="Trazado_99242" data-name="Trazado 99242" d="M427.564,48.019c-1.872.6-3.4,2.294-4.887,3.546a50.416,50.416,0,0,0-4.767,4.345c-.621.672.067,2.037,1.015,1.62a48.232,48.232,0,0,0,5.363-2.88c1.714-1.028,4-1.939,5.2-3.553C430.544,49.69,429.5,47.4,427.564,48.019Z" transform="translate(-362.502 -37.092)" fill="#fff"/>
        <path id="Trazado_99243" data-name="Trazado 99243" d="M428.116,67.294a28.582,28.582,0,0,0-2.928,1.051,7.178,7.178,0,0,0-2.394,1.256.894.894,0,0,0,.441,1.473,7.212,7.212,0,0,0,2.731-.231,28.538,28.538,0,0,0,3.045-.673A1.507,1.507,0,0,0,428.116,67.294Z" transform="translate(-365.058 -47.221)" fill="#fff"/>
        <path id="Trazado_99244" data-name="Trazado 99244" d="M415.921,49a1.571,1.571,0,0,0-2.09.621c-.312.5-.667,1-.935,1.525s-.463,1.11-.687,1.66a1.126,1.126,0,0,0,1.8,1.3,17.338,17.338,0,0,0,1.33-1.341c.43-.531.8-1.119,1.2-1.674A1.551,1.551,0,0,0,415.921,49Z" transform="translate(-359.586 -37.566)" fill="#fff"/>
        <path id="Trazado_99245" data-name="Trazado 99245" d="M329.909,38.453c.7,1.836,2.48,3.264,3.812,4.682a50.622,50.622,0,0,0,4.6,4.518c.706.582,2.031-.181,1.561-1.1a48.111,48.111,0,0,0-3.174-5.2c-1.122-1.654-2.158-3.882-3.837-5C331.412,35.384,329.183,36.552,329.909,38.453Z" transform="translate(-316.42 -30.849)" fill="#fff"/>
        <path id="Trazado_99246" data-name="Trazado 99246" d="M349.438,43.162a28.368,28.368,0,0,0,1.212,2.865,7.165,7.165,0,0,0,1.387,2.321.894.894,0,0,0,1.446-.522,7.206,7.206,0,0,0-.383-2.713,28.358,28.358,0,0,0-.841-3A1.507,1.507,0,0,0,349.438,43.162Z" transform="translate(-326.689 -33.55)" fill="#fff"/>
        <path id="Trazado_99247" data-name="Trazado 99247" d="M331.995,58.4a1.57,1.57,0,0,0,.737,2.053c.519.284,1.033.611,1.574.849s1.133.4,1.695.594a1.126,1.126,0,0,0,1.2-1.872,17.263,17.263,0,0,0-1.413-1.253c-.554-.4-1.162-.74-1.738-1.107A1.551,1.551,0,0,0,331.995,58.4Z" transform="translate(-317.511 -42.114)" fill="#fff"/>
        <path id="Trazado_99248" data-name="Trazado 99248" d="M383.68,25.412a1.473,1.473,0,0,0-1.371-.134,1.845,1.845,0,0,0-1.245,1.75,62.1,62.1,0,0,0,.214,8.942.955.955,0,0,0,1.874.192,64.681,64.681,0,0,0,1.454-9.249A1.73,1.73,0,0,0,383.68,25.412Z" transform="translate(-343.27 -25.166)" fill="#fff"/>
        <path id="Trazado_99249" data-name="Trazado 99249" d="M426.494,121.5c-1.373-.546-2.964-1.471-4.477-1.218-.374.062-.8.413-.608.854.643,1.5,2.241,2.333,3.524,3.245a1.639,1.639,0,0,0,1.561-2.882Z" transform="translate(-364.436 -75.006)" fill="#fff"/>
        <path id="Trazado_99250" data-name="Trazado 99250" d="M339.023,139.214a.649.649,0,0,0-.646-.605c-1.409-.116-2.632,1.453-3.6,2.309-1.324,1.178-2.583,2.4-3.832,3.655-1.463,1.472.917,3.708,2.352,2.2,1.221-1.28,2.407-2.569,3.546-3.922C337.677,141.871,339.182,140.618,339.023,139.214Z" transform="translate(-316.799 -84.632)" fill="#fff"/>
        <path id="Trazado_99251" data-name="Trazado 99251" d="M337.95,132.839c-.6-.493-1.389-.039-1.979.251a13.69,13.69,0,0,0-2.749,1.662,1.059,1.059,0,0,0,1.127,1.791C334.926,136.246,339.047,133.744,337.95,132.839Z" transform="translate(-317.995 -81.496)" fill="#fff"/>
        <path id="Trazado_99252" data-name="Trazado 99252" d="M436.257,113.255c-1.141-1.151-3.054-1.111-4.6-1.267-1.8-.181-3.707-.5-5.447.132-.293.108-.476.556-.178.777a11.8,11.8,0,0,0,5,1.7c1.64.325,3.564.933,5.089.107A.932.932,0,0,0,436.257,113.255Z" transform="translate(-366.803 -70.552)" fill="#fff"/>
        <path id="Trazado_99253" data-name="Trazado 99253" d="M314.407,98.266c-1.411-1.06-3.843-.931-5.572-.967-2.063-.043-4.936-.446-6.7.757a.933.933,0,0,0,.052,1.592c1.866,1.073,4.665.447,6.732.244,1.708-.167,4.177-.23,5.5-1.393A.165.165,0,0,0,314.407,98.266Z" transform="translate(-301.713 -62.928)" fill="#fff"/>
        <path id="Trazado_99254" data-name="Trazado 99254" d="M415.59,144.085a34.606,34.606,0,0,0-3.125-2.537,15.206,15.206,0,0,0-3.1-2.08c-.484-.215-1.1.3-.752.8a15.919,15.919,0,0,0,2.743,2.81,34.767,34.767,0,0,0,3.091,2.594C415.387,146.337,416.364,144.843,415.59,144.085Z" transform="translate(-357.697 -85.059)" fill="#fff"/>
        <path id="Trazado_99255" data-name="Trazado 99255" d="M434.306,90.3a.978.978,0,0,0-.939-.668,30.7,30.7,0,0,0-3.838.566c-.554.116-.54,1.08.037,1.143a30.9,30.9,0,0,0,3.862.191.972.972,0,0,0,.893-.727A.726.726,0,0,0,434.306,90.3Z" transform="translate(-368.504 -58.96)" fill="#fff"/>
        <path id="Trazado_99256" data-name="Trazado 99256" d="M330.814,126.227c-1.543-.538-3.453.607-4.867,1.182-1.266.516-3.342.8-3.7,2.3a.643.643,0,0,0,.288.707c1.35.793,2.961-.494,4.233-1.063,1.39-.622,3.542-1.213,4.223-2.695A.3.3,0,0,0,330.814,126.227Z" transform="translate(-312.468 -78.07)" fill="#fff"/>
      </g>
    </g>
    <g id="Grupo_53371" data-name="Grupo 53371" transform="translate(977.577 246.884)">
      <path id="Trazado_99202" data-name="Trazado 99202" d="M505.756,158c-8.019-1.348-11.677-18.013-8.327-37.939S509.684,85.581,517.7,86.93s11.677,18.012,8.327,37.939S513.775,159.348,505.756,158Zm11.693-69.557c-6.932-1.165-15.407,13.431-18.507,31.873s.137,35.006,7.069,36.172,15.406-13.431,18.507-31.873S524.38,89.607,517.449,88.442Z" transform="translate(-475.494 -86.36)" fill="#fff"/>
      <path id="Trazado_99203" data-name="Trazado 99203" d="M466.305,154.233c-2.6-.437-4.523-1.385-5.575-2.876a5.471,5.471,0,0,1-.675-4.676c1.711-6.793,13.116-16.476,28.381-24.1,19.791-9.878,38.661-12.845,42.956-6.756a5.472,5.472,0,0,1,.675,4.677c-1.71,6.793-13.116,16.476-28.381,24.094C488.74,152.061,474.32,155.58,466.305,154.233Zm59.308-39.8c-7.513-1.263-22.09,2.339-36.492,9.527-14.656,7.315-26,16.813-27.579,23.1a4.013,4.013,0,0,0,.441,3.418c3.741,5.3,22.525,1.986,41.017-7.244h0c14.655-7.315,26-16.813,27.579-23.1a4.014,4.014,0,0,0-.441-3.418C529.311,115.541,527.747,114.789,525.613,114.431Z" transform="translate(-459.825 -97.489)" fill="#fff"/>
      <path id="Trazado_99204" data-name="Trazado 99204" d="M521.985,155.872c-8.168-1.373-20.57-8.2-32.654-18.516h0c-13.255-11.32-22.191-23.635-22.236-30.644a5.325,5.325,0,0,1,1.7-4.25c5.531-4.848,23.214,2.757,40.258,17.313,13.255,11.32,22.191,23.636,22.236,30.645a5.323,5.323,0,0,1-1.7,4.25C527.98,156.081,525.338,156.436,521.985,155.872ZM490.328,136.19c17.577,15.011,33.97,21.078,38.251,17.326a3.865,3.865,0,0,0,1.179-3.086c-.042-6.486-8.964-18.613-21.7-29.487-17.578-15.012-33.969-21.079-38.251-17.326a3.867,3.867,0,0,0-1.179,3.086C468.671,113.188,477.594,125.314,490.328,136.19Z" transform="translate(-462.958 -92.461)" fill="#fff"/>
      <g id="Grupo_53367" data-name="Grupo 53367" transform="translate(60.47 55.928)">
        <path id="Trazado_99205" data-name="Trazado 99205" d="M572.245,194.938a5.464,5.464,0,0,1-5.713-3.212,5.152,5.152,0,0,1-.347-3.165,5.406,5.406,0,0,1,7.873-3.62c.1.056.195.114.29.173a5.125,5.125,0,0,1,1.322,1.23A5.415,5.415,0,0,1,572.245,194.938Z" transform="translate(-566.077 -184.265)" fill="#9ddfd3"/>
        <path id="Trazado_99206" data-name="Trazado 99206" d="M572.589,196.511a5.464,5.464,0,0,1-5.714-3.212,11.3,11.3,0,0,0,2.422.718,5.529,5.529,0,0,0,6.719-6.05c0-.015,0-.035,0-.051A5.415,5.415,0,0,1,572.589,196.511Z" transform="translate(-566.421 -185.838)" opacity="0.5" style="mix-blend-mode: soft-light;isolation: isolate"/>
        <path id="Trazado_99207" data-name="Trazado 99207" d="M574.575,186.616a1.536,1.536,0,0,0-.765-.812,3.725,3.725,0,0,0-5.067,2.071,1.313,1.313,0,0,0,.544,1.453,2.643,2.643,0,0,0,2.033.123,6.941,6.941,0,0,0,2.507-1.342C574.259,187.758,574.759,187.21,574.575,186.616Z" transform="translate(-567.206 -184.771)" fill="#fff" style="mix-blend-mode: soft-light;isolation: isolate"/>
      </g>
      <g id="Grupo_53368" data-name="Grupo 53368" transform="translate(1.664 35.581)">
        <path id="Trazado_99208" data-name="Trazado 99208" d="M468.918,159.186a5.465,5.465,0,0,1-5.713-3.212,5.156,5.156,0,0,1-.347-3.166,5.406,5.406,0,0,1,7.873-3.62c.1.056.195.114.29.174a5.117,5.117,0,0,1,1.322,1.229A5.416,5.416,0,0,1,468.918,159.186Z" transform="translate(-462.75 -148.513)" fill="#9ddfd3"/>
        <path id="Trazado_99209" data-name="Trazado 99209" d="M469.263,160.76a5.465,5.465,0,0,1-5.713-3.212,11.294,11.294,0,0,0,2.423.718,5.528,5.528,0,0,0,6.718-6.05c0-.016,0-.035,0-.051A5.416,5.416,0,0,1,469.263,160.76Z" transform="translate(-463.094 -150.086)" opacity="0.5" style="mix-blend-mode: soft-light;isolation: isolate"/>
        <path id="Trazado_99210" data-name="Trazado 99210" d="M471.249,150.864a1.535,1.535,0,0,0-.765-.812,3.726,3.726,0,0,0-5.067,2.071,1.312,1.312,0,0,0,.545,1.452,2.641,2.641,0,0,0,2.032.123,6.95,6.95,0,0,0,2.507-1.343C470.932,152.007,471.432,151.458,471.249,150.864Z" transform="translate(-463.879 -149.019)" fill="#fff" style="mix-blend-mode: soft-light;isolation: isolate"/>
      </g>
      <g id="Grupo_53369" data-name="Grupo 53369" transform="translate(29.185 0)">
        <path id="Trazado_99211" data-name="Trazado 99211" d="M517.273,96.667a5.465,5.465,0,0,1-5.713-3.212,5.156,5.156,0,0,1-.347-3.166,5.405,5.405,0,0,1,7.873-3.619c.1.055.195.114.29.173a5.123,5.123,0,0,1,1.322,1.229A5.416,5.416,0,0,1,517.273,96.667Z" transform="translate(-511.105 -85.994)" fill="#9ddfd3"/>
        <path id="Trazado_99212" data-name="Trazado 99212" d="M517.618,98.241a5.466,5.466,0,0,1-5.714-3.212,11.307,11.307,0,0,0,2.423.718,5.528,5.528,0,0,0,6.719-6.05c0-.016,0-.035,0-.051A5.415,5.415,0,0,1,517.618,98.241Z" transform="translate(-511.449 -87.568)" opacity="0.5" style="mix-blend-mode: soft-light;isolation: isolate"/>
        <path id="Trazado_99213" data-name="Trazado 99213" d="M519.6,88.345a1.537,1.537,0,0,0-.765-.812,3.725,3.725,0,0,0-5.067,2.071,1.312,1.312,0,0,0,.544,1.452,2.642,2.642,0,0,0,2.033.123,6.951,6.951,0,0,0,2.506-1.343C519.288,89.488,519.787,88.939,519.6,88.345Z" transform="translate(-512.235 -86.5)" fill="#fff" style="mix-blend-mode: soft-light;isolation: isolate"/>
      </g>
      <g id="Grupo_53370" data-name="Grupo 53370" transform="translate(27.427 27.269)">
        <path id="Trazado_99214" data-name="Trazado 99214" d="M518.2,151.536a9.025,9.025,0,0,1-9.436-5.3A8.514,8.514,0,0,1,508.2,141a8.928,8.928,0,0,1,13-5.978c.165.092.322.189.479.286a8.458,8.458,0,0,1,2.183,2.031C527.667,142.316,525.136,150.536,518.2,151.536Z" transform="translate(-508.017 -133.908)" fill="#cc3d60"/>
        <path id="Trazado_99215" data-name="Trazado 99215" d="M518.773,154.135a9.025,9.025,0,0,1-9.436-5.3,18.689,18.689,0,0,0,4,1.186,10.1,10.1,0,0,0,6.4-.883c3.159-1.711,4.794-5.514,4.7-9.108,0-.026,0-.058-.005-.084C528.236,144.915,525.7,153.135,518.773,154.135Z" transform="translate(-508.586 -136.507)" opacity="0.5" style="mix-blend-mode: soft-light;isolation: isolate"/>
        <path id="Trazado_99216" data-name="Trazado 99216" d="M522.053,137.791a2.536,2.536,0,0,0-1.264-1.341c-2.989-1.629-7.562.243-8.368,3.42a2.167,2.167,0,0,0,.9,2.4,4.365,4.365,0,0,0,3.357.2,11.466,11.466,0,0,0,4.14-2.217C521.531,139.679,522.357,138.772,522.053,137.791Z" transform="translate(-509.883 -134.745)" fill="#fff" style="mix-blend-mode: soft-light;isolation: isolate"/>
      </g>
    </g>
    <g id="Grupo_53373" data-name="Grupo 53373" transform="translate(1240.5 307.891)">
      <path id="Trazado_99217" data-name="Trazado 99217" d="M419.346,369.66c-.608-.765-1.175-1.468-1.66-2.049a1.385,1.385,0,0,0-1.849-.233,40.453,40.453,0,0,0-6.782,6.087c-.239.259-.485.524-.736.8a22.538,22.538,0,0,0-5.578-3.583c.152-.464.3-.922.442-1.374a44.517,44.517,0,0,0,2.053-8.66,1.387,1.387,0,0,0-1.095-1.521c-3.018-.589-8.233-1.294-11.188-1.553a1.385,1.385,0,0,0-1.475,1.141,40.4,40.4,0,0,0-.489,9.1c.019.51.039,1.048.069,1.589a22.658,22.658,0,0,0-6.244,1.284c-.06.021-.12.047-.179.068-.3-.593-.6-1.182-.9-1.757a44.567,44.567,0,0,0-4.67-7.573,1.384,1.384,0,0,0-1.851-.3c-2.548,1.717-6.733,4.9-9.005,6.81a1.388,1.388,0,0,0-.236,1.851,40.426,40.426,0,0,0,6.087,6.782c.308.283.624.577.949.875-.012.014-.027.025-.039.04a22.866,22.866,0,0,0-3.424,5.609c-.595-.2-1.188-.389-1.772-.573a44.486,44.486,0,0,0-8.66-2.054,1.383,1.383,0,0,0-1.519,1.1c-.591,3.014-1.3,8.229-1.556,11.184a1.386,1.386,0,0,0,1.145,1.473,40.583,40.583,0,0,0,9.1.495l1.364-.058a23.3,23.3,0,0,0,1.449,6.472c-.554.272-1.1.555-1.638.832a44.616,44.616,0,0,0-7.57,4.674,1.379,1.379,0,0,0-.3,1.848c.32.479.693,1.016,1.1,1.581,1.222,1.713,2.747,3.73,4.087,5.424.593.753,1.15,1.441,1.624,2.007a1.384,1.384,0,0,0,1.848.233,40.124,40.124,0,0,0,6.782-6.087c.313-.336.635-.684.959-1.045a24.215,24.215,0,0,0,5.768,3.479c-.216.635-.417,1.266-.614,1.887a44.747,44.747,0,0,0-2.053,8.654,1.377,1.377,0,0,0,1.095,1.521c3.021.593,8.232,1.294,11.191,1.557a1.38,1.38,0,0,0,1.469-1.142,40.216,40.216,0,0,0,.492-9.1c-.017-.494-.039-1.009-.067-1.54a23.009,23.009,0,0,0,6.373-1.554q.454.917.918,1.8a44.562,44.562,0,0,0,4.67,7.573,1.384,1.384,0,0,0,1.851.3c2.551-1.713,6.733-4.9,9.005-6.81a1.377,1.377,0,0,0,.236-1.845,40.162,40.162,0,0,0-6.084-6.785c-.348-.322-.71-.655-1.086-.992a23.706,23.706,0,0,0,3.623-5.578c.554.19,1.109.366,1.655.539a44.529,44.529,0,0,0,8.658,2.05,1.378,1.378,0,0,0,1.521-1.095c.592-3.015,1.3-8.229,1.556-11.184a1.386,1.386,0,0,0-1.145-1.472,40.141,40.141,0,0,0-9.1-.495l-1.21.049a24.48,24.48,0,0,0-1.6-6.5c.515-.255,1.021-.514,1.513-.769a44.983,44.983,0,0,0,7.573-4.67,1.387,1.387,0,0,0,.3-1.854c-.46-.679-1.022-1.477-1.639-2.326C421.756,372.779,420.482,371.105,419.346,369.66Zm-17.5,18.216a9.464,9.464,0,0,1,.981,2.68,9.832,9.832,0,0,1-15.384,10.071,10.082,10.082,0,0,1-2.874-3.209l-.005-.008a10.475,10.475,0,0,1-1.367-5.222c.013-4.711,3.861-8.563,8.37-9.383a9.625,9.625,0,0,1,7.693,2,10.141,10.141,0,0,1,1.2,1.122A9.663,9.663,0,0,1,401.841,387.876Z" transform="translate(-358.039 -357.565)" fill="#24b3b3"/>
      <g id="Grupo_53372" data-name="Grupo 53372" transform="translate(6.889 7.139)">
        <path id="Trazado_99218" data-name="Trazado 99218" d="M422.636,370.506c.2-1.315-1.038-1.515-1.236-.2a74.652,74.652,0,0,0-1.309,11.244c0,.406.368.478.493.078A74.671,74.671,0,0,0,422.636,370.506Z" transform="translate(-389.597 -369.415)" fill="#263780"/>
        <path id="Trazado_99219" data-name="Trazado 99219" d="M454.04,421.306c1.316.2,1.515-1.038.2-1.236a74.58,74.58,0,0,0-11.244-1.309c-.405,0-.478.367-.078.493A74.677,74.677,0,0,0,454.04,421.306Z" transform="translate(-398.564 -389.032)" fill="#263780"/>
        <path id="Trazado_99220" data-name="Trazado 99220" d="M408.869,451.346c-.2,1.316,1.038,1.515,1.236.2a74.6,74.6,0,0,0,1.309-11.244c0-.406-.368-.478-.493-.078A74.669,74.669,0,0,0,408.869,451.346Z" transform="translate(-385.127 -397.458)" fill="#263780"/>
        <path id="Trazado_99221" data-name="Trazado 99221" d="M370.566,407.124c-1.316-.2-1.515,1.038-.2,1.236a74.57,74.57,0,0,0,11.244,1.309c.405,0,.478-.368.078-.493A74.606,74.606,0,0,0,370.566,407.124Z" transform="translate(-369.475 -384.398)" fill="#263780"/>
        <path id="Trazado_99222" data-name="Trazado 99222" d="M446.831,388.536c1.07-.79.337-1.8-.736-1.012a74.589,74.589,0,0,0-8.876,7.025c-.285.289-.078.6.293.4A74.672,74.672,0,0,0,446.831,388.536Z" transform="translate(-396.353 -376.5)" fill="#263780"/>
        <path id="Trazado_99223" data-name="Trazado 99223" d="M439.151,446.892c.79,1.07,1.8.337,1.012-.736a74.523,74.523,0,0,0-7.025-8.876c-.289-.285-.6-.078-.4.293A74.561,74.561,0,0,0,439.151,446.892Z" transform="translate(-394.599 -396.342)" fill="#263780"/>
        <path id="Trazado_99224" data-name="Trazado 99224" d="M379.689,436.428c-1.07.791-.337,1.8.736,1.012a74.512,74.512,0,0,0,8.876-7.025c.286-.289.078-.6-.293-.4A74.681,74.681,0,0,0,379.689,436.428Z" transform="translate(-373.327 -393.481)" fill="#263780"/>
        <path id="Trazado_99225" data-name="Trazado 99225" d="M390.135,378.2c-.79-1.069-1.8-.337-1.012.736a74.529,74.529,0,0,0,7.025,8.876c.289.285.6.078.4-.294A74.657,74.657,0,0,0,390.135,378.2Z" transform="translate(-377.171 -372.701)" fill="#263780"/>
      </g>
      <path id="Trazado_99226" data-name="Trazado 99226" d="M428.623,385.335c.617.849,1.18,1.647,1.639,2.326a1.387,1.387,0,0,1-.3,1.854,44.976,44.976,0,0,1-7.573,4.67c-.492.255-1,.514-1.513.769a24.481,24.481,0,0,1,1.6,6.5l1.21-.049a40.143,40.143,0,0,1,9.1.495,1.386,1.386,0,0,1,1.145,1.472c-.259,2.955-.965,8.17-1.556,11.185a1.378,1.378,0,0,1-1.521,1.095,44.532,44.532,0,0,1-8.658-2.05c-.546-.172-1.1-.349-1.655-.539a23.7,23.7,0,0,1-3.623,5.578c.375.336.737.67,1.086.992a40.168,40.168,0,0,1,6.084,6.785,1.377,1.377,0,0,1-.236,1.845c-2.272,1.908-6.454,5.1-9.005,6.81a1.384,1.384,0,0,1-1.851-.3,44.567,44.567,0,0,1-4.67-7.573q-.464-.885-.918-1.8a23.009,23.009,0,0,1-6.373,1.554c.028.531.049,1.046.067,1.54a40.214,40.214,0,0,1-.492,9.1,1.38,1.38,0,0,1-1.469,1.142c-2.958-.263-8.17-.965-11.191-1.557a1.377,1.377,0,0,1-1.095-1.521A44.747,44.747,0,0,1,388.908,427c.2-.622.4-1.252.614-1.887a24.214,24.214,0,0,1-5.768-3.479c-.324.361-.646.709-.959,1.045a40.119,40.119,0,0,1-6.782,6.087,1.384,1.384,0,0,1-1.848-.233c-.474-.566-1.031-1.254-1.624-2.007.815-.883,1.723-1.686,2.574-2.464q1.207-1.1,2.452-2.147c1.325-1.128,2.669-2.231,4.006-3.345a2.073,2.073,0,0,1,.99-.555,1.968,1.968,0,0,1,1.566.831c1.071,1.145,2.824,1.794,4.211,2.527a20.363,20.363,0,0,0,29.854-19.254,17.722,17.722,0,0,0-1.048-5.8,5.069,5.069,0,0,1-.548-1.833,2.854,2.854,0,0,1,.92-1.984,18.592,18.592,0,0,1,2.683-1.82,30,30,0,0,1,3.039-1.709,30.788,30.788,0,0,0,5.108-3.418C428.394,385.513,428.492,385.436,428.623,385.335Z" transform="translate(-363.804 -368.605)" opacity="0.5" style="mix-blend-mode: soft-light;isolation: isolate"/>
      <path id="Trazado_99227" data-name="Trazado 99227" d="M416.571,401.815a10.141,10.141,0,0,0-1.2-1.122,9.625,9.625,0,0,0-7.693-2c-4.509.82-8.358,4.671-8.37,9.383a10.474,10.474,0,0,0,1.367,5.222,8.534,8.534,0,0,1-2.1-5.895,9.807,9.807,0,0,1,5.153-8.375c3.027-1.724,7.046-2.147,9.966-.268A8.779,8.779,0,0,1,416.571,401.815Z" transform="translate(-374.152 -373.453)" opacity="0.5" style="mix-blend-mode: soft-light;isolation: isolate"/>
      <path id="Trazado_99228" data-name="Trazado 99228" d="M419.346,369.66a14.07,14.07,0,0,1-2.527,2.333q-1.207,1.1-2.452,2.147c-1.325,1.129-2.669,2.232-4.006,3.345a2.068,2.068,0,0,1-.991.555,1.969,1.969,0,0,1-1.566-.831c-1.072-1.145-2.824-1.794-4.212-2.527a20.362,20.362,0,0,0-29.853,19.254,17.7,17.7,0,0,0,1.048,5.8,5.1,5.1,0,0,1,.548,1.833,2.854,2.854,0,0,1-.92,1.984,18.59,18.59,0,0,1-2.683,1.821,30.339,30.339,0,0,1-3.039,1.709c-1.967,1.06-3.623,2.281-5.6,2.868-.131.039-.265.074-.4.108-.4-.565-.778-1.1-1.1-1.581a1.379,1.379,0,0,1,.3-1.848,44.616,44.616,0,0,1,7.57-4.674c.539-.277,1.084-.56,1.638-.832a23.3,23.3,0,0,1-1.449-6.472l-1.364.058a40.583,40.583,0,0,1-9.1-.495,1.386,1.386,0,0,1-1.145-1.473c.259-2.955.964-8.17,1.556-11.184a1.383,1.383,0,0,1,1.519-1.1,44.486,44.486,0,0,1,8.66,2.054c.584.184,1.177.374,1.772.573a22.866,22.866,0,0,1,3.424-5.609c.012-.014.027-.025.039-.04-.325-.3-.641-.592-.949-.875a40.426,40.426,0,0,1-6.087-6.782,1.388,1.388,0,0,1,.236-1.851c2.272-1.908,6.457-5.093,9.005-6.81a1.384,1.384,0,0,1,1.851.3,44.567,44.567,0,0,1,4.67,7.573c.3.575.6,1.163.9,1.757.059-.021.119-.047.179-.068a22.658,22.658,0,0,1,6.244-1.284c-.03-.542-.05-1.079-.069-1.589a40.4,40.4,0,0,1,.489-9.1,1.385,1.385,0,0,1,1.475-1.141c2.955.259,8.17.965,11.188,1.553a1.387,1.387,0,0,1,1.095,1.521,44.517,44.517,0,0,1-2.053,8.66c-.144.452-.289.91-.442,1.374a22.538,22.538,0,0,1,5.578,3.583c.251-.273.5-.537.736-.8a40.453,40.453,0,0,1,6.782-6.087,1.385,1.385,0,0,1,1.849.233C418.17,368.192,418.738,368.895,419.346,369.66Z" transform="translate(-358.039 -357.565)" fill="#fff" style="mix-blend-mode: soft-light;isolation: isolate"/>
      <path id="Trazado_99229" data-name="Trazado 99229" d="M421.24,407.877a9.438,9.438,0,0,1,1.9,5.93,10.315,10.315,0,0,1-3.586,7.3,9.551,9.551,0,0,1-12.721-.484,9.832,9.832,0,0,0,15.384-10.071A9.467,9.467,0,0,0,421.24,407.877Z" transform="translate(-377.439 -377.567)" fill="#fff" style="mix-blend-mode: soft-light;isolation: isolate"/>
    </g>
    <g id="matematicas" transform="translate(983.85 386.327)">
      <path id="Trazado_99316" data-name="Trazado 99316" d="M298.633,197.471l-6.393-6.393,6.393-6.393a1.931,1.931,0,0,0,0-2.73l-3.412-3.412a1.931,1.931,0,0,0-2.73,0l-6.393,6.393-6.393-6.393a1.931,1.931,0,0,0-2.73,0l-3.412,3.412a1.931,1.931,0,0,0,0,2.73l6.393,6.393-6.393,6.393a1.931,1.931,0,0,0,0,2.73l3.412,3.412a1.931,1.931,0,0,0,2.73,0l6.393-6.393,6.393,6.393a1.931,1.931,0,0,0,2.73,0l3.412-3.412A1.931,1.931,0,0,0,298.633,197.471Z" transform="translate(-241.043 -168.266)" fill="#9ddfd3"/>
      <g id="Grupo_53408" data-name="Grupo 53408" transform="translate(0 0)">
        <path id="Trazado_99317" data-name="Trazado 99317" d="M280.492,192.587a3.678,3.678,0,0,1-2.618-1.084l-5.141-5.14-5.141,5.14a3.7,3.7,0,0,1-5.236,0l-3.412-3.412a3.7,3.7,0,0,1,0-5.236l5.14-5.141-5.141-5.14a3.7,3.7,0,0,1,0-5.236l3.412-3.412a3.7,3.7,0,0,1,5.235,0l5.141,5.14,5.14-5.14a3.7,3.7,0,0,1,5.236,0l3.412,3.412a3.7,3.7,0,0,1,0,5.235l-5.141,5.141,5.141,5.14a3.7,3.7,0,0,1,0,5.235L283.11,191.5A3.678,3.678,0,0,1,280.492,192.587Zm-7.758-11.236L280.38,189a.16.16,0,0,0,.225,0l3.412-3.413a.159.159,0,0,0,0-.224l-7.646-7.646,7.646-7.646a.159.159,0,0,0,0-.225l-3.412-3.412a.159.159,0,0,0-.225,0l-7.646,7.646-7.646-7.646a.159.159,0,0,0-.224,0l-3.413,3.413a.159.159,0,0,0,0,.225l7.646,7.646-7.646,7.646a.159.159,0,0,0,0,.225L264.863,189a.159.159,0,0,0,.225,0Z" transform="translate(-227.68 -154.902)" fill="#21214b"/>
        <path id="Trazado_99318" data-name="Trazado 99318" d="M17.27,132.7A3.688,3.688,0,0,1,13.8,130.33L9.836,120.324a1.629,1.629,0,0,0-1.523-1.035H0v-3.543H8.313a5.153,5.153,0,0,1,4.817,3.274l3.963,10.006a.208.208,0,0,0,.4-.026l7.49-30.055a5.173,5.173,0,0,1,5.027-3.928H58.941v3.543H30.006A1.635,1.635,0,0,0,28.417,99.8l-7.49,30.054a3.694,3.694,0,0,1-3.391,2.836Q17.4,132.7,17.27,132.7Z" transform="translate(0 -95.016)" fill="#9ddfd3"/>
      </g>
    </g>
    <path id="Trazado_99319" data-name="Trazado 99319" d="M450.325,128.134a1.048,1.048,0,1,1-.383,1.431,1.048,1.048,0,0,1,.383-1.431Zm5.4-3.116a1.048,1.048,0,1,1-.383,1.431,1.047,1.047,0,0,1,.383-1.431Zm5.4-3.117a1.048,1.048,0,1,1-.383,1.431,1.048,1.048,0,0,1,.383-1.431Zm5.4-3.117a1.048,1.048,0,1,1-.383,1.431,1.048,1.048,0,0,1,.383-1.431Zm5.4-3.116a1.048,1.048,0,1,1-.383,1.431,1.048,1.048,0,0,1,.383-1.431Zm5.4-3.117a1.048,1.048,0,1,1-.383,1.431,1.049,1.049,0,0,1,.383-1.431Zm5.4-3.116a1.048,1.048,0,1,1-.383,1.431,1.047,1.047,0,0,1,.383-1.431Zm-29.272,24.1a1.048,1.048,0,1,1-.383,1.431,1.048,1.048,0,0,1,.383-1.431Zm5.4-3.117a1.048,1.048,0,1,1-.383,1.431,1.048,1.048,0,0,1,.383-1.431Zm5.4-3.116a1.048,1.048,0,1,1-.383,1.431,1.047,1.047,0,0,1,.383-1.431Zm5.4-3.117a1.048,1.048,0,1,1-.383,1.431,1.048,1.048,0,0,1,.383-1.431Zm5.4-3.116a1.048,1.048,0,1,1-.383,1.431,1.047,1.047,0,0,1,.383-1.431Zm5.4-3.117a1.048,1.048,0,1,1-.383,1.431,1.047,1.047,0,0,1,.383-1.431Zm5.4-3.117a1.048,1.048,0,1,1-.383,1.431,1.048,1.048,0,0,1,.383-1.431Zm-29.272,24.1a1.048,1.048,0,1,1-.383,1.431,1.047,1.047,0,0,1,.383-1.431Zm5.4-3.117a1.048,1.048,0,1,1-.383,1.431,1.048,1.048,0,0,1,.383-1.431Zm5.4-3.116a1.048,1.048,0,1,1-.383,1.43,1.047,1.047,0,0,1,.383-1.43Zm5.4-3.117a1.048,1.048,0,1,1-.383,1.431,1.048,1.048,0,0,1,.383-1.431Zm5.4-3.117a1.048,1.048,0,1,1-.383,1.431,1.048,1.048,0,0,1,.383-1.431Zm5.4-3.116a1.048,1.048,0,1,1-.383,1.431,1.047,1.047,0,0,1,.383-1.431Zm5.4-3.117a1.048,1.048,0,1,1-.383,1.431,1.048,1.048,0,0,1,.383-1.431Zm-23.874,20.981a1.047,1.047,0,1,1-.383,1.431,1.047,1.047,0,0,1,.383-1.431Zm5.4-3.117a1.048,1.048,0,1,1-.383,1.431,1.047,1.047,0,0,1,.383-1.431Zm5.4-3.117a1.048,1.048,0,1,1-.383,1.431,1.048,1.048,0,0,1,.383-1.431Zm5.4-3.116a1.047,1.047,0,1,1-.383,1.431,1.047,1.047,0,0,1,.383-1.431Zm5.4-3.117a1.048,1.048,0,1,1-.383,1.431,1.048,1.048,0,0,1,.383-1.431Zm5.4-3.116a1.048,1.048,0,1,1-.383,1.431,1.047,1.047,0,0,1,.383-1.431ZM468.189,146.61a1.048,1.048,0,0,1,1.4,1.486q-.964-.339-1.911-.721a1.047,1.047,0,0,1,.514-.765Zm5.4-3.116a1.048,1.048,0,1,1-.383,1.431,1.047,1.047,0,0,1,.383-1.431Zm5.4-3.117a1.048,1.048,0,1,1-.383,1.431,1.048,1.048,0,0,1,.383-1.431Zm5.4-3.116a1.048,1.048,0,1,1-.383,1.431,1.047,1.047,0,0,1,.383-1.431Zm5.4-3.117a1.048,1.048,0,1,1-.383,1.431,1.047,1.047,0,0,1,.383-1.431Zm5.4-3.117a1.048,1.048,0,1,1-.384,1.431,1.047,1.047,0,0,1,.384-1.431ZM476.7,148.891a1.048,1.048,0,0,1,1.493,1.3q-1.012-.142-2.015-.332a1.047,1.047,0,0,1,.522-.971Zm5.4-3.116a1.048,1.048,0,1,1-.383,1.431,1.047,1.047,0,0,1,.383-1.431Zm5.4-3.117a1.048,1.048,0,1,1-.383,1.431,1.048,1.048,0,0,1,.383-1.431Zm5.4-3.116a1.048,1.048,0,1,1-.384,1.431,1.047,1.047,0,0,1,.384-1.431Zm5.4-3.117a1.048,1.048,0,1,1-.383,1.431,1.048,1.048,0,0,1,.383-1.431Zm-7.68,11.631a1.048,1.048,0,1,1-.383,1.431,1.048,1.048,0,0,1,.383-1.431Zm5.4-3.117a1.048,1.048,0,1,1-.383,1.431,1.048,1.048,0,0,1,.383-1.431Zm5.4-3.116a1.048,1.048,0,1,1-.383,1.431,1.047,1.047,0,0,1,.383-1.431ZM450.1,77.88a1.048,1.048,0,1,1-.383,1.431,1.048,1.048,0,0,1,.383-1.431Zm5.4-3.117a1.048,1.048,0,1,1-.383,1.431,1.048,1.048,0,0,1,.383-1.431Zm5.4-3.117a1.048,1.048,0,1,1-.383,1.431,1.048,1.048,0,0,1,.383-1.431Zm-17.81,17.734a1.048,1.048,0,1,1-.721,1.912q.338-.964.721-1.912Zm4.732-2.986a1.048,1.048,0,1,1-.383,1.431,1.048,1.048,0,0,1,.383-1.431Zm5.4-3.117a1.048,1.048,0,1,1-.383,1.431,1.048,1.048,0,0,1,.383-1.431Zm5.4-3.116a1.048,1.048,0,1,1-.383,1.431,1.047,1.047,0,0,1,.383-1.431Zm5.4-3.117a1.048,1.048,0,1,1-.383,1.431,1.048,1.048,0,0,1,.383-1.431ZM440.6,97.888a1.048,1.048,0,1,1-.332,2.016q.142-1.012.332-2.016Zm4.939-2.978a1.047,1.047,0,1,1-.384,1.431,1.048,1.048,0,0,1,.384-1.431Zm5.4-3.116a1.048,1.048,0,1,1-.383,1.431,1.047,1.047,0,0,1,.383-1.431Zm5.4-3.117a1.048,1.048,0,1,1-.383,1.431,1.047,1.047,0,0,1,.383-1.431Zm5.4-3.117a1.047,1.047,0,1,1-.384,1.431,1.048,1.048,0,0,1,.384-1.431Zm5.4-3.116a1.048,1.048,0,1,1-.383,1.431,1.047,1.047,0,0,1,.383-1.431Zm-23.874,20.981a1.048,1.048,0,1,1-.383,1.431,1.048,1.048,0,0,1,.383-1.431Zm5.4-3.116a1.048,1.048,0,1,1-.383,1.431,1.047,1.047,0,0,1,.383-1.431Zm5.4-3.117a1.048,1.048,0,1,1-.384,1.431,1.047,1.047,0,0,1,.384-1.431Zm5.4-3.116a1.048,1.048,0,1,1-.383,1.431,1.048,1.048,0,0,1,.383-1.431Zm5.4-3.117a1.048,1.048,0,1,1-.383,1.431,1.047,1.047,0,0,1,.383-1.431Zm5.4-3.117a1.048,1.048,0,1,1-.384,1.431,1.048,1.048,0,0,1,.384-1.431Zm-29.272,24.1a1.048,1.048,0,1,1-.383,1.431,1.048,1.048,0,0,1,.383-1.431Zm5.4-3.117a1.048,1.048,0,1,1-.383,1.431,1.048,1.048,0,0,1,.383-1.431Zm5.4-3.117a1.047,1.047,0,1,1-.383,1.431,1.048,1.048,0,0,1,.383-1.431Zm5.4-3.116a1.048,1.048,0,1,1-.383,1.431,1.047,1.047,0,0,1,.383-1.431Zm5.4-3.117a1.048,1.048,0,1,1-.383,1.431,1.048,1.048,0,0,1,.383-1.431Zm5.4-3.116a1.047,1.047,0,1,1-.383,1.431,1.047,1.047,0,0,1,.383-1.431Zm5.4-3.117a1.048,1.048,0,1,1-.383,1.431,1.048,1.048,0,0,1,.383-1.431Zm-29.272,24.1a1.048,1.048,0,1,1-.383,1.431,1.048,1.048,0,0,1,.383-1.431Zm5.4-3.116a1.048,1.048,0,1,1-.383,1.431,1.048,1.048,0,0,1,.383-1.431Zm5.4-3.117a1.048,1.048,0,1,1-.383,1.431,1.048,1.048,0,0,1,.383-1.431Zm5.4-3.116a1.048,1.048,0,1,1-.383,1.431,1.047,1.047,0,0,1,.383-1.431Zm5.4-3.117a1.048,1.048,0,1,1-.383,1.431,1.047,1.047,0,0,1,.383-1.431Zm5.4-3.117a1.048,1.048,0,1,1-.383,1.431,1.048,1.048,0,0,1,.383-1.431Zm5.4-3.116a1.048,1.048,0,1,1-.383,1.431,1.047,1.047,0,0,1,.383-1.431Zm-29.272,24.1a1.047,1.047,0,1,1-.384,1.431,1.047,1.047,0,0,1,.384-1.431Zm5.4-3.116a1.048,1.048,0,1,1-.383,1.43,1.047,1.047,0,0,1,.383-1.43ZM458,116.5a1.048,1.048,0,1,1-.383,1.431A1.047,1.047,0,0,1,458,116.5Zm5.4-3.117a1.047,1.047,0,1,1-.384,1.431,1.048,1.048,0,0,1,.384-1.431Zm5.4-3.116a1.048,1.048,0,1,1-.383,1.43,1.047,1.047,0,0,1,.383-1.43Zm5.4-3.117a1.048,1.048,0,1,1-.383,1.431,1.047,1.047,0,0,1,.383-1.431Zm5.4-3.117a1.047,1.047,0,1,1-.384,1.431,1.047,1.047,0,0,1,.384-1.431Zm8.515,2.282a1.048,1.048,0,1,1-.383,1.431,1.047,1.047,0,0,1,.383-1.431Zm5.4-3.117a1.048,1.048,0,1,1-.383,1.431,1.048,1.048,0,0,1,.383-1.431Zm5.4-3.116a1.048,1.048,0,1,1-.383,1.431,1.047,1.047,0,0,1,.383-1.431Zm5.4-3.117a1.048,1.048,0,1,1-.383,1.431,1.048,1.048,0,0,1,.383-1.431Zm5.4-3.116a1.048,1.048,0,1,1-.384,1.431,1.047,1.047,0,0,1,.384-1.431Zm5.4-3.117a1.048,1.048,0,1,1-.383,1.431,1.048,1.048,0,0,1,.383-1.431Zm5.4-3.117a1.048,1.048,0,1,1-.383,1.431,1.048,1.048,0,0,1,.383-1.431Zm-29.272,24.1a1.048,1.048,0,1,1-.383,1.431,1.047,1.047,0,0,1,.383-1.431Zm5.4-3.117a1.047,1.047,0,1,1-.383,1.431,1.048,1.048,0,0,1,.383-1.431Zm5.4-3.117a1.048,1.048,0,1,1-.383,1.431,1.048,1.048,0,0,1,.383-1.431Zm5.4-3.116a1.048,1.048,0,1,1-.383,1.431,1.048,1.048,0,0,1,.383-1.431Zm5.4-3.117a1.048,1.048,0,1,1-.383,1.431,1.048,1.048,0,0,1,.383-1.431Zm5.4-3.117a1.048,1.048,0,1,1-.383,1.431,1.048,1.048,0,0,1,.383-1.431Zm5.4-3.116a1.047,1.047,0,1,1-.383,1.431,1.048,1.048,0,0,1,.383-1.431Zm-29.272,24.1a1.048,1.048,0,1,1-.383,1.43,1.047,1.047,0,0,1,.383-1.43Zm5.4-3.117a1.048,1.048,0,1,1-.384,1.431,1.047,1.047,0,0,1,.384-1.431Zm5.4-3.117a1.048,1.048,0,1,1-.383,1.431,1.049,1.049,0,0,1,.383-1.431Zm5.4-3.116a1.048,1.048,0,1,1-.383,1.43,1.047,1.047,0,0,1,.383-1.43Zm5.4-3.117a1.048,1.048,0,1,1-.383,1.431,1.047,1.047,0,0,1,.383-1.431Zm5.4-3.117a1.048,1.048,0,1,1-.383,1.431,1.048,1.048,0,0,1,.383-1.431Zm5.4-3.116a1.048,1.048,0,1,1-.383,1.431,1.047,1.047,0,0,1,.383-1.431Zm-29.272,24.1a1.047,1.047,0,1,1-.383,1.431,1.047,1.047,0,0,1,.383-1.431Zm5.4-3.117a1.048,1.048,0,1,1-.383,1.431,1.048,1.048,0,0,1,.383-1.431Zm5.4-3.116a1.048,1.048,0,1,1-.383,1.431,1.047,1.047,0,0,1,.383-1.431Zm5.4-3.117a1.048,1.048,0,1,1-.383,1.431,1.047,1.047,0,0,1,.383-1.431Zm5.4-3.117a1.048,1.048,0,1,1-.384,1.431,1.047,1.047,0,0,1,.384-1.431Zm5.4-3.116a1.048,1.048,0,1,1-.383,1.431,1.047,1.047,0,0,1,.383-1.431ZM500.578,127.91a1.048,1.048,0,1,1-.383,1.431,1.047,1.047,0,0,1,.383-1.431Zm5.4-3.117a1.048,1.048,0,1,1-.383,1.431,1.048,1.048,0,0,1,.383-1.431Zm5.4-3.117a1.048,1.048,0,1,1-.384,1.431,1.048,1.048,0,0,1,.384-1.431Zm5.4-3.116a1.047,1.047,0,1,1-.383,1.431,1.048,1.048,0,0,1,.383-1.431Zm5.4-3.117a1.048,1.048,0,1,1-.383,1.431,1.048,1.048,0,0,1,.383-1.431Zm5.4-3.117a1.046,1.046,0,0,1,.92-.062q-.142,1.012-.332,2.015a1.047,1.047,0,0,1-.588-1.953Zm-23.874,20.981a1.048,1.048,0,1,1-.383,1.431,1.048,1.048,0,0,1,.383-1.431Zm5.4-3.117a1.048,1.048,0,1,1-.384,1.431,1.048,1.048,0,0,1,.384-1.431Zm5.4-3.116a1.047,1.047,0,1,1-.383,1.431,1.047,1.047,0,0,1,.383-1.431Zm5.4-3.117a1.048,1.048,0,1,1-.383,1.431,1.048,1.048,0,0,1,.383-1.431Zm5.4-3.116a1.047,1.047,0,0,1,1.1.034q-.339.964-.721,1.911a1.047,1.047,0,0,1-.381-1.945Zm-18.476,17.864a1.048,1.048,0,1,1-.383,1.431,1.048,1.048,0,0,1,.383-1.431Zm5.4-3.117a1.048,1.048,0,1,1-.383,1.431,1.048,1.048,0,0,1,.383-1.431Zm5.4-3.116a1.048,1.048,0,1,1-.383,1.431,1.047,1.047,0,0,1,.383-1.431ZM466.3,68.531a1.048,1.048,0,1,1-.383,1.431,1.048,1.048,0,0,1,.383-1.431Zm5.4-3.117a1.048,1.048,0,1,1-.383,1.431,1.048,1.048,0,0,1,.383-1.431Zm5.4-3.117a1.048,1.048,0,1,1-.383,1.431,1.048,1.048,0,0,1,.383-1.431Zm-7.68,11.632a1.048,1.048,0,1,1-.383,1.43,1.047,1.047,0,0,1,.383-1.43Zm5.4-3.117a1.048,1.048,0,1,1-.383,1.431,1.047,1.047,0,0,1,.383-1.431Zm5.4-3.117a1.048,1.048,0,1,1-.384,1.431,1.048,1.048,0,0,1,.384-1.431Zm5.4-3.117a1.048,1.048,0,1,1-.383,1.431,1.048,1.048,0,0,1,.383-1.431Zm6.968-2.273a1.048,1.048,0,1,1-2.016-.332q1.012.142,2.016.332ZM472.529,79.327a1.048,1.048,0,1,1-.383,1.431,1.048,1.048,0,0,1,.383-1.431Zm5.4-3.116a1.047,1.047,0,1,1-.384,1.431,1.047,1.047,0,0,1,.384-1.431Zm5.4-3.117a1.048,1.048,0,1,1-.383,1.431,1.047,1.047,0,0,1,.383-1.431Zm5.4-3.117a1.048,1.048,0,1,1-.383,1.431,1.048,1.048,0,0,1,.383-1.431Zm5.4-3.116a1.047,1.047,0,1,1-.384,1.431,1.047,1.047,0,0,1,.384-1.431Zm6.959-2.067a1.047,1.047,0,1,1-1.911-.721q.964.338,1.911.721ZM475.645,84.725a1.048,1.048,0,1,1-.383,1.431,1.047,1.047,0,0,1,.383-1.431Zm5.4-3.117a1.048,1.048,0,1,1-.383,1.431,1.047,1.047,0,0,1,.383-1.431Zm5.4-3.116a1.048,1.048,0,1,1-.383,1.431,1.047,1.047,0,0,1,.383-1.431Zm5.4-3.117a1.048,1.048,0,1,1-.383,1.431,1.047,1.047,0,0,1,.383-1.431Zm5.4-3.117a1.048,1.048,0,1,1-.383,1.431,1.048,1.048,0,0,1,.383-1.431Zm5.4-3.116a1.048,1.048,0,1,1-.383,1.431,1.047,1.047,0,0,1,.383-1.431ZM478.762,90.123a1.048,1.048,0,1,1-.383,1.431,1.048,1.048,0,0,1,.383-1.431Zm5.4-3.116a1.048,1.048,0,1,1-.383,1.431,1.047,1.047,0,0,1,.383-1.431Zm5.4-3.117a1.048,1.048,0,1,1-.383,1.431,1.048,1.048,0,0,1,.383-1.431Zm5.4-3.116a1.048,1.048,0,1,1-.383,1.431,1.047,1.047,0,0,1,.383-1.431Zm5.4-3.117a1.048,1.048,0,1,1-.383,1.431,1.048,1.048,0,0,1,.383-1.431Zm5.4-3.117a1.048,1.048,0,1,1-.383,1.431,1.048,1.048,0,0,1,.383-1.431Zm5.4-3.116a1.048,1.048,0,1,1-.383,1.431,1.047,1.047,0,0,1,.383-1.431Zm-29.272,24.1a1.048,1.048,0,1,1-.384,1.431,1.048,1.048,0,0,1,.384-1.431Zm5.4-3.117a1.048,1.048,0,1,1-.383,1.431,1.048,1.048,0,0,1,.383-1.431Zm5.4-3.116a1.048,1.048,0,1,1-.383,1.431,1.047,1.047,0,0,1,.383-1.431Zm5.4-3.117a1.048,1.048,0,1,1-.384,1.431,1.048,1.048,0,0,1,.384-1.431Zm5.4-3.117a1.048,1.048,0,1,1-.383,1.431,1.048,1.048,0,0,1,.383-1.431Zm5.4-3.116a1.048,1.048,0,1,1-.383,1.431,1.047,1.047,0,0,1,.383-1.431Zm5.4-3.117a1.048,1.048,0,1,1-.383,1.431,1.049,1.049,0,0,1,.383-1.431ZM485,100.919a1.048,1.048,0,1,1-.383,1.431,1.047,1.047,0,0,1,.383-1.431Zm5.4-3.117a1.048,1.048,0,1,1-.383,1.431,1.048,1.048,0,0,1,.383-1.431Zm5.4-3.116a1.047,1.047,0,1,1-.384,1.43,1.048,1.048,0,0,1,.384-1.43Zm5.4-3.117A1.048,1.048,0,1,1,500.806,93a1.047,1.047,0,0,1,.383-1.431Zm5.4-3.117a1.048,1.048,0,1,1-.383,1.431,1.048,1.048,0,0,1,.383-1.431Zm5.4-3.116a1.047,1.047,0,1,1-.384,1.431,1.047,1.047,0,0,1,.384-1.431Zm5.4-3.117A1.048,1.048,0,1,1,517,83.65,1.047,1.047,0,0,1,517.384,82.22Z" transform="translate(699.562 179.881)" fill="#9ddfd3" fill-rule="evenodd"/>
    <g id="chico" transform="translate(1054.119 256.148)">
      <g id="Grupo_53406" data-name="Grupo 53406" transform="translate(3.329 3.328)">
        <path id="Trazado_99303" data-name="Trazado 99303" d="M241.756,436.269H129.31A65.365,65.365,0,0,1,171.8,405.624V381.832h27.457v23.792A65.365,65.365,0,0,1,241.756,436.269Z" transform="translate(-106.93 -215.708)" fill="#ffc93c"/>
        <path id="Trazado_99304" data-name="Trazado 99304" d="M179.391,381.828v23.794c-8.089,3.865-14.932,15.216-19.019,30.645H129.31A65.361,65.361,0,0,1,171.8,405.622V381.828Z" transform="translate(-106.93 -215.705)" fill="#ffdc81"/>
        <path id="Trazado_99305" data-name="Trazado 99305" d="M244.664,396.619h-28.71a5.681,5.681,0,0,1-5.68-5.68v-3.426a5.681,5.681,0,0,1,5.68-5.68h28.71a5.681,5.681,0,0,1,5.68,5.68v3.426A5.681,5.681,0,0,1,244.664,396.619Z" transform="translate(-151.963 -215.708)" fill="#b3e59f"/>
        <path id="Trazado_99306" data-name="Trazado 99306" d="M232.777,396.618H215.954a5.68,5.68,0,0,1-5.68-5.68v-3.426a5.683,5.683,0,0,1,5.68-5.684h16.823a5.684,5.684,0,0,0-5.68,5.684v3.426A5.679,5.679,0,0,0,232.777,396.618Z" transform="translate(-151.964 -215.705)" fill="#95d6a4"/>
        <path id="Trazado_99307" data-name="Trazado 99307" d="M240.962,122.263v-81.4a21.377,21.377,0,0,0-39.837-10.78,48.879,48.879,0,0,0-90.085,26.294v65.5" transform="translate(-96.769 -7.499)" fill="#9ddfd3"/>
        <path id="Trazado_99308" data-name="Trazado 99308" d="M111.04,121.878v-65.5a48.893,48.893,0,0,1,69.77-44.2,48.907,48.907,0,0,0-27.987,44.2v65.5Z" transform="translate(-96.768 -7.498)" fill="#dbf6e9"/>
        <g id="Grupo_53405" data-name="Grupo 53405" transform="translate(0 99.983)">
          <circle id="Elipse_6" data-name="Elipse 6" cx="17.578" cy="17.578" r="17.578" fill="#f5fffa"/>
          <circle id="Elipse_7" data-name="Elipse 7" cx="17.578" cy="17.578" r="17.578" transform="translate(122.051)" fill="#f5fffa"/>
        </g>
        <path id="Trazado_99309" data-name="Trazado 99309" d="M242.769,149.878V185.2a48.12,48.12,0,0,1-48.12,48.12h-8.2a48.124,48.124,0,0,1-48.125-48.12V149.878c0-.142,0-.288,0-.43.129-16.388,17.865-26.452,32.2-18.5a41.382,41.382,0,0,0,57.084-17.852A52.04,52.04,0,0,1,242.769,149.878Z" transform="translate(-111.944 -66.23)" fill="#f5fffa"/>
        <path id="Trazado_99310" data-name="Trazado 99310" d="M206.194,250.821a48.018,48.018,0,0,1-11.542,1.4h-8.2a48.124,48.124,0,0,1-48.125-48.12V168.777c0-.142,0-.288,0-.43.129-16.388,17.865-26.452,32.2-18.5a40.743,40.743,0,0,0,6.164,2.778,21.037,21.037,0,0,0-7.082,15.726c0,.142,0,.288,0,.43V204.1A48.135,48.135,0,0,0,206.194,250.821Z" transform="translate(-111.946 -85.13)" fill="#e0ffef"/>
      </g>
      <g id="Grupo_53407" data-name="Grupo 53407" transform="translate(0)">
        <path id="Trazado_99311" data-name="Trazado 99311" d="M222.232,101.533V36.7A24.7,24.7,0,0,0,179.12,20.222a52.209,52.209,0,0,0-93.47,31.99v48.854a20.906,20.906,0,1,0,15.229,38.885,51.718,51.718,0,0,0,30.154,30.476,8.949,8.949,0,0,0-1.342,4.708v3.426a9.018,9.018,0,0,0,6.565,8.663v3.387a67.312,67.312,0,0,0-7.017,2.206,3.329,3.329,0,1,0,2.345,6.23,61.214,61.214,0,0,1,8.7-2.546,3.328,3.328,0,0,0,2.631-3.254v-5.677h20.8v5.677a3.328,3.328,0,0,0,2.633,3.255,62.074,62.074,0,0,1,37.013,24.06H103.263a62.468,62.468,0,0,1,17.124-15.967,3.328,3.328,0,1,0-3.541-5.637,69.132,69.132,0,0,0-22.627,23.238,3.329,3.329,0,0,0,2.865,5.023H209.531a3.328,3.328,0,0,0,2.865-5.023,68.828,68.828,0,0,0-42.029-31.585v-3.549a9.017,9.017,0,0,0,6.053-8.5v-3.426a8.948,8.948,0,0,0-1.246-4.55,51.715,51.715,0,0,0,30.567-30.636,20.906,20.906,0,1,0,16.491-38.416ZM105.652,20a45.548,45.548,0,0,1,70.608,7.711,3.328,3.328,0,0,0,5.677-.113,18.05,18.05,0,0,1,33.638,9.1v63.322c-.41-.024-.823-.04-1.239-.04a20.946,20.946,0,0,0-5.475.731V86.977a55.551,55.551,0,0,0-2.729-17.248,3.329,3.329,0,0,0-6.329,2.064,48.888,48.888,0,0,1,2.4,15.184v7.629l-4,2.168a12.837,12.837,0,0,0-11.787-7.785H169.2a12.836,12.836,0,0,0-12.681,10.956,10.962,10.962,0,0,0-6.406,0,12.837,12.837,0,0,0-12.681-10.956H120.2a12.836,12.836,0,0,0-11.787,7.785l-4-2.171V86.977c0-.109,0-.221,0-.329,0-.025,0-.05,0-.075a17.888,17.888,0,0,1,8.956-15.434,18.353,18.353,0,0,1,18.308-.186,44.739,44.739,0,0,0,21.627,5.574,44.383,44.383,0,0,0,37.705-20.685,49.113,49.113,0,0,1,3.435,4.7,3.328,3.328,0,1,0,5.6-3.6,55.751,55.751,0,0,0-7.307-9.1,3.328,3.328,0,0,0-5.345.869A38.053,38.053,0,0,1,134.91,65.131a24.953,24.953,0,0,0-24.891.26,24.488,24.488,0,0,0-12.256,21.1c0,.163,0,.329,0,.492v13.733a20.977,20.977,0,0,0-5.452-.729V52.212A45.261,45.261,0,0,1,105.652,20Zm86.928,81.809v16.62a6.169,6.169,0,0,1-6.162,6.162H169.2a6.169,6.169,0,0,1-6.162-6.162v-16.62a6.169,6.169,0,0,1,6.162-6.162h17.223a6.168,6.168,0,0,1,6.162,6.162Zm-48.991,0v16.62a6.169,6.169,0,0,1-6.162,6.162H120.2a6.169,6.169,0,0,1-6.162-6.162v-16.62a6.169,6.169,0,0,1,6.162-6.162h17.223a6.169,6.169,0,0,1,6.162,6.162Zm-51.3,33.331a14.25,14.25,0,1,1,5.473-27.41v7.44a15.82,15.82,0,0,0-4.4-1.063,20.2,20.2,0,0,0-6.314.372,3.329,3.329,0,1,0,1.587,6.465,14.008,14.008,0,0,1,4.061-.214,6.718,6.718,0,0,1,5.079,2.548,51.337,51.337,0,0,0,1.212,10.189,14.114,14.114,0,0,1-6.7,1.673Zm75.126,37.641a2.357,2.357,0,0,1,2.352,2.356v3.426a2.354,2.354,0,0,1-2.352,2.352H138.7a2.354,2.354,0,0,1-2.352-2.352v-3.426a2.357,2.357,0,0,1,2.352-2.356h.57a51.5,51.5,0,0,0,9.94.967h8.2a51.524,51.524,0,0,0,9.939-.967Zm-10-5.69h-8.2a44.844,44.844,0,0,1-44.8-44.791V102.176l2.971,1.612v14.639a12.833,12.833,0,0,0,12.818,12.818h17.223a12.833,12.833,0,0,0,12.818-12.818v-11.02a4.3,4.3,0,0,1,6.132,0v11.02A12.833,12.833,0,0,0,169.2,131.244H186.42a12.833,12.833,0,0,0,12.818-12.818V103.787l2.966-1.609V122.3a44.843,44.843,0,0,1-44.792,44.791Zm56.924-31.951a14.133,14.133,0,0,1-6.7-1.675,51.343,51.343,0,0,0,1.211-10.179,6.647,6.647,0,0,1,4.926-2.538,13.92,13.92,0,0,1,4.233.2,3.328,3.328,0,0,0,1.574-6.468,20.183,20.183,0,0,0-6.314-.372,15.827,15.827,0,0,0-4.407,1.066v-7.44a14.25,14.25,0,1,1,5.475,27.407Z" transform="translate(-71.379 0)" fill="#21214b"/>
        <ellipse id="Elipse_8" data-name="Elipse 8" cx="5.823" cy="7.978" rx="5.823" ry="7.978" transform="translate(53.525 101.024)" fill="#21214b"/>
        <path id="Trazado_99312" data-name="Trazado 99312" d="M299.595,227.64c-3.211,0-5.823,3.579-5.823,7.978s2.612,7.978,5.823,7.978,5.823-3.579,5.823-7.978S302.806,227.64,299.595,227.64Z" transform="translate(-195.077 -126.616)" fill="#21214b"/>
        <path id="Trazado_99313" data-name="Trazado 99313" d="M178.268,179.845a3.328,3.328,0,1,0,4.706,4.707,6.78,6.78,0,0,1,9.578,0,3.328,3.328,0,1,0,4.707-4.707A13.444,13.444,0,0,0,178.268,179.845Z" transform="translate(-130.289 -97.848)" fill="#21214b"/>
        <path id="Trazado_99314" data-name="Trazado 99314" d="M289.63,179.845a3.328,3.328,0,1,0,4.706,4.707,6.78,6.78,0,0,1,9.578,0,3.328,3.328,0,1,0,4.707-4.707A13.444,13.444,0,0,0,289.63,179.845Z" transform="translate(-192.231 -97.848)" fill="#21214b"/>
        <path id="Trazado_99315" data-name="Trazado 99315" d="M251.635,303.224a3.328,3.328,0,0,0-4.654.7,7.34,7.34,0,0,1-11.808,0,3.328,3.328,0,1,0-5.356,3.953,14,14,0,0,0,22.519,0A3.328,3.328,0,0,0,251.635,303.224Z" transform="translate(-159.142 -168.296)" fill="#21214b"/>
      </g>
    </g>
  </g>
</svg>
