<svg xmlns="http://www.w3.org/2000/svg" width="255" height="255" viewBox="0 0 255 255">
  <g id="Grupo_55152" data-name="Grupo 55152" transform="translate(10757 9126)">
    <rect id="Rectángulo_5122" data-name="Rectángulo 5122" width="255" height="255" rx="21" transform="translate(-10757 -9126)" fill="#efefef"/>
    <g id="molino" transform="translate(-10746.59 -9080)">
      <g id="Grupo_55123" data-name="Grupo 55123" transform="translate(49.589 0)">
        <g id="filled_outline_35_" transform="translate(0 0)">
          <rect id="Rectángulo_5110" data-name="Rectángulo 5110" width="48.754" height="18.96" transform="translate(43.338 140.856)" fill="#f5ae45"/>
          <rect id="Rectángulo_5111" data-name="Rectángulo 5111" width="59.589" height="5.417" transform="translate(37.921 157.107)" fill="#f5ae45"/>
          <path id="Trazado_100506" data-name="Trazado 100506" d="M248.027,342.732H188.438l16.251-65.005h27.086Z" transform="translate(-150.517 -201.877)" fill="#a67855"/>
          <path id="Trazado_100507" data-name="Trazado 100507" d="M244.809,277.727H217.723l-11.354,45.42,40.816-35.918Z" transform="translate(-163.551 -201.877)" fill="#996e51"/>
          <path id="Trazado_100508" data-name="Trazado 100508" d="M270.529,220.056h-32.5l2.348-8.223a19.338,19.338,0,0,1,13.9-13.445h0a19.338,19.338,0,0,1,13.9,13.445Z" transform="translate(-186.562 -144.206)" fill="#996e51"/>
          <rect id="Rectángulo_5112" data-name="Rectángulo 5112" width="10.834" height="13.543" transform="translate(62.298 148.982)" fill="#855739"/>
          <rect id="Rectángulo_5113" data-name="Rectángulo 5113" width="5.417" height="8.126" transform="translate(65.007 121.896)" fill="#855739"/>
          <rect id="Rectángulo_5114" data-name="Rectángulo 5114" width="5.417" height="8.126" transform="translate(65.007 105.644)" fill="#855739"/>
          <path id="Trazado_100509" data-name="Trazado 100509" d="M399.237,45.917,391.358,38.2,348.021,80.635l7.879,7.717Z" transform="translate(-266.516 -27.767)" fill="#ad7f5c"/>
          <path id="Trazado_100510" data-name="Trazado 100510" d="M362.508,9.955,319.171,52.39,327.05,60.1l43.337-42.435Z" transform="translate(-245.545 -7.236)" fill="#ad7f5c"/>
          <path id="Trazado_100511" data-name="Trazado 100511" d="M110.058,257.138,66.721,299.573l7.879,7.714,43.337-42.432Z" transform="translate(-62.042 -186.911)" fill="#ad7f5c"/>
          <path id="Trazado_100512" data-name="Trazado 100512" d="M95.571,327.825l7.879,7.717,43.337-42.435-7.879-7.714Z" transform="translate(-83.013 -207.449)" fill="#ad7f5c"/>
          <path id="Trazado_100513" data-name="Trazado 100513" d="M59.511,45.917l43.337,42.435,7.879-7.717L67.39,38.2Z" transform="translate(-56.801 -27.767)" fill="#ad7f5c"/>
          <path id="Trazado_100514" data-name="Trazado 100514" d="M96.24,9.955l-7.879,7.714L131.7,60.1l7.879-7.714Z" transform="translate(-77.772 -7.236)" fill="#ad7f5c"/>
          <path id="Trazado_100515" data-name="Trazado 100515" d="M399.158,306.634,355.821,264.2l-7.879,7.717,43.337,42.433-43.337-42.433-.03.027,43.245,42.525Z" transform="translate(-266.437 -192.043)" fill="#ad7f5c"/>
          <path id="Trazado_100516" data-name="Trazado 100516" d="M327.02,292.553l-7.849,7.687,43.337,42.435,7.757-7.6Z" transform="translate(-245.545 -212.654)" fill="#ad7f5c"/>
          <rect id="Rectángulo_5115" data-name="Rectángulo 5115" width="79.95" height="5.42" transform="translate(65.812 64.427) rotate(-44.388)" fill="#855739"/>
          <rect id="Rectángulo_5116" data-name="Rectángulo 5116" width="5.42" height="79.95" transform="translate(8.693 12.37) rotate(-45.604)" fill="#855739"/>
          <rect id="Rectángulo_5117" data-name="Rectángulo 5117" width="5.42" height="79.95" transform="translate(65.814 68.308) rotate(-45.604)" fill="#855739"/>
          <rect id="Rectángulo_5118" data-name="Rectángulo 5118" width="79.95" height="5.42" transform="translate(10.657 118.431) rotate(-44.388)" fill="#855739"/>
          <rect id="Rectángulo_5119" data-name="Rectángulo 5119" width="48.754" height="5.417" transform="translate(43.338 140.856)" fill="#f09e26"/>
          <rect id="Rectángulo_5120" data-name="Rectángulo 5120" width="5.417" height="8.126" transform="translate(65.007 121.896)"/>
          <rect id="Rectángulo_5121" data-name="Rectángulo 5121" width="5.417" height="8.126" transform="translate(65.007 105.644)"/>
          <path id="Trazado_100517" data-name="Trazado 100517" d="M113.291,47.09a2.708,2.708,0,0,0,.043-3.83l-.043-.043L69.954.782a2.709,2.709,0,0,0-3.792,0L50.4,16.213a2.708,2.708,0,0,0-.041,3.83l.043.043L93.743,62.518a2.709,2.709,0,0,0,3.792,0l5.983-5.859,1.9,1.845a21.938,21.938,0,0,0-4.6,8.38l-.6,2.091-.7-.685a2.709,2.709,0,0,0-3.792,0L52.383,110.725a2.708,2.708,0,0,0-.043,3.83l.043.043,15.753,15.423a2.709,2.709,0,0,0,3.792,0l20.526-20.1L84.886,140.2a2.705,2.705,0,0,0,1.972,3.283,2.67,2.67,0,0,0,.655.081h2.708v13.543H84.8v5.417h65.006v-5.417h-5.417V143.564H147.1a2.71,2.71,0,0,0,2.708-2.708,2.673,2.673,0,0,0-.081-.655l-7.565-30.271,22.495,22.029a2.709,2.709,0,0,0,3.792,0l15.761-15.439a2.708,2.708,0,0,0,.043-3.83l-.043-.043L140.875,70.213a2.709,2.709,0,0,0-3.792,0l-1.807,1.769-1.46-5.106a21.962,21.962,0,0,0-4.591-8.361l1.9-1.845,5.959,5.848a2.709,2.709,0,0,0,3.792,0l43.337-42.432a2.708,2.708,0,0,0,.043-3.83l-.043-.043L168.448.774a2.709,2.709,0,0,0-3.792,0L121.319,43.209a2.708,2.708,0,0,0-.043,3.83l.043.043,5.9,5.777-2.048,2.007a21.9,21.9,0,0,0-7.21-3.321,2.64,2.64,0,0,0-1.316,0,21.892,21.892,0,0,0-7.194,3.329L107.4,52.868Zm25.683,9.7-4.009-3.925,39.466-38.643,4.009,3.933ZM127.086,45.146,166.552,6.51l4.006,3.925L131.094,49.078ZM106.007,68.363a16.51,16.51,0,0,1,3.261-6.056l4.163,4.063-6.915,6.772h-1.872Zm11.3,1.8,3.042,2.979h-6.084Zm-19.7,3.854,2.045,2h0l1.793,1.758h0l.157.154L62.148,116.587l-4.006-3.925ZM70.027,124.3l-4.006-3.925,39.464-38.643,4.009,3.922L95.506,99.353h0Zm68.947,32.8H122.722v-8.126H111.888v8.126H95.636V143.564h43.337Zm4.656-18.96H90.98l8.862-35.455,15.417-15.1a2.708,2.708,0,0,0,.043-3.83l-.043-.043-5.268-5.163h15.891l1.354,1.314-5.9,5.777a2.708,2.708,0,0,0-.043,3.83l.043.043,13.448,13.169Zm22.922-11.918L139.111,99.36h0L127.093,87.594l4.009-3.922,39.464,38.643ZM138.974,75.947l39.467,38.635-4.009,3.925L134.965,79.872ZM128.6,68.363l1.354,4.77h-1.872l-6.907-6.763,4.163-4.063a16.527,16.527,0,0,1,3.261,6.064v-.008ZM117.3,56.987a16.716,16.716,0,0,1,3.927,1.744L117.378,62.5h0l-.073.073-3.927-3.846A16.723,16.723,0,0,1,117.3,56.987ZM68.058,6.51l39.467,38.643-4.009,3.925L64.052,10.433ZM95.636,56.792,56.17,18.157l4.009-3.925L99.645,52.868Z" transform="translate(-49.589 0)"/>
        </g>
      </g>
    </g>
  </g>
</svg>
