<svg xmlns="http://www.w3.org/2000/svg" width="154" height="154" viewBox="0 0 154 154">
  <g id="Trazado_100930" data-name="Trazado 100930" fill="#9ddfd3">
    <path d="M 77 152.5 C 66.80690002441406 152.5 56.91949844360352 150.5039978027344 47.61246109008789 146.5674591064453 C 43.13909912109375 144.6753845214844 38.82442092895508 142.3334350585938 34.78828048706055 139.6066741943359 C 30.79010009765625 136.9055633544922 27.03034019470215 133.803466796875 23.61343955993652 130.3865661621094 C 20.19654083251953 126.9696578979492 17.09444046020508 123.2098999023438 14.39332008361816 119.2117233276367 C 11.66656017303467 115.1755828857422 9.324620246887207 110.8609008789063 7.432539939880371 106.3875427246094 C 3.496000051498413 97.08049774169922 1.5 87.19309997558594 1.5 77 C 1.5 66.80690002441406 3.496000051498413 56.91949844360352 7.432539939880371 47.61246109008789 C 9.324620246887207 43.13909912109375 11.66656017303467 38.82442092895508 14.39332008361816 34.78828048706055 C 17.09444046020508 30.79010009765625 20.19654083251953 27.03034019470215 23.61343955993652 23.61343955993652 C 27.03034019470215 20.19654083251953 30.79010009765625 17.09444046020508 34.78828048706055 14.39332008361816 C 38.82442092895508 11.66656017303467 43.13909912109375 9.324620246887207 47.61246109008789 7.432539939880371 C 56.91949844360352 3.496000051498413 66.80690002441406 1.5 77 1.5 C 87.19309997558594 1.5 97.08049774169922 3.496000051498413 106.3875427246094 7.432539939880371 C 110.8609008789063 9.324620246887207 115.1755828857422 11.66656017303467 119.2117233276367 14.39332008361816 C 123.2098999023438 17.09444046020508 126.9696578979492 20.19654083251953 130.3865661621094 23.61343955993652 C 133.803466796875 27.03034019470215 136.9055633544922 30.79010009765625 139.6066741943359 34.78828048706055 C 142.3334350585938 38.82442092895508 144.6753845214844 43.13909912109375 146.5674591064453 47.61246109008789 C 150.5039978027344 56.91949844360352 152.5 66.80690002441406 152.5 77 C 152.5 85.79461669921875 151.0019226074219 94.40721893310547 148.04736328125 102.5985412597656 C 145.1902008056641 110.5198211669922 141.0404357910156 117.8699417114258 135.7133331298828 124.4447021484375 C 130.4294738769531 130.9661254882813 124.1443634033203 136.5331573486328 117.0325775146484 140.9912261962891 C 109.7865982055664 145.5333862304688 101.8847427368164 148.7936859130859 93.54647827148438 150.6815643310547 C 88.21864318847656 151.8881988525391 82.65161895751953 152.5 77 152.5 Z" stroke="none"/>
    <path d="M 77 3 C 67.00873565673828 3 57.31793212890625 4.956130981445313 48.19678497314453 8.814041137695313 C 43.81260681152344 10.66839599609375 39.58386993408203 12.96371459960938 35.62797546386719 15.63626098632813 C 31.70891571044922 18.283935546875 28.02349853515625 21.32469177246094 24.67408752441406 24.67408752441406 C 21.32469177246094 28.02349853515625 18.283935546875 31.70891571044922 15.63626098632813 35.62797546386719 C 12.96371459960938 39.58386993408203 10.66839599609375 43.81260681152344 8.814041137695313 48.19678497314453 C 4.956130981445313 57.31793212890625 3 67.00873565673828 3 77 C 3 86.99126434326172 4.956130981445313 96.68206787109375 8.814041137695313 105.80322265625 C 10.66839599609375 110.187370300293 12.96371459960938 114.416130065918 15.63626098632813 118.3720016479492 C 18.283935546875 122.2910842895508 21.32469177246094 125.9765014648438 24.67408752441406 129.3258972167969 C 28.02349853515625 132.6753082275391 31.70891571044922 135.716064453125 35.62797546386719 138.3637390136719 C 39.58386993408203 141.0362854003906 43.81260681152344 143.3316040039063 48.19678497314453 145.1859283447266 C 57.31793212890625 149.0438690185547 67.00873565673828 151 77 151 C 82.54032897949219 151 87.995849609375 150.4006805419922 93.21524047851563 149.2186126708984 C 101.3882446289063 147.3681335449219 109.1334991455078 144.1724395751953 116.2358703613281 139.7202758789063 C 123.2072830200195 135.3502197265625 129.3683319091797 129.89306640625 134.5478668212891 123.5004119873047 C 139.7691040039063 117.0563049316406 143.8362426757813 109.8526763916016 146.6363220214844 102.0895843505859 C 149.5318450927734 94.06195831298828 151 85.62060546875 151 77 C 151 67.00873565673828 149.0438690185547 57.31793212890625 145.1859283447266 48.19678497314453 C 143.3316040039063 43.81260681152344 141.0362854003906 39.58386993408203 138.3637390136719 35.62797546386719 C 135.716064453125 31.70891571044922 132.6753082275391 28.02349853515625 129.3258972167969 24.67408752441406 C 125.9765014648438 21.32469177246094 122.2910842895508 18.283935546875 118.3720016479492 15.63626098632813 C 114.416130065918 12.96371459960938 110.187370300293 10.66839599609375 105.80322265625 8.814041137695313 C 96.68206787109375 4.956130981445313 86.99126434326172 3 77 3 M 77 0 C 119.5259094238281 0 154 34.47406768798828 154 77 C 154 113.6573486328125 128.3842468261719 144.3318023681641 93.87771606445313 152.1445465087891 C 88.58382415771484 153.3434753417969 82.86856842041016 154 77 154 C 34.47406768798828 154 0 119.5259094238281 0 77 C 0 34.47406768798828 34.47406768798828 0 77 0 Z" stroke="none" fill="#9ddfd3"/>
  </g>
</svg>
