<svg xmlns="http://www.w3.org/2000/svg" width="255" height="255" viewBox="0 0 255 255">
  <g id="Grupo_55153" data-name="Grupo 55153" transform="translate(10417 9676)">
    <rect id="Rectángulo_5123" data-name="Rectángulo 5123" width="255" height="255" rx="21" transform="translate(-10417 -9676)" fill="#efefef"/>
    <g id="choza" transform="translate(-10376.087 -9632)">
      <path id="Trazado_100518" data-name="Trazado 100518" d="M128.224,75.822h-7.132L60.851,162.057H188.842Z" transform="translate(-37.559 -51.069)" fill="#b89968"/>
      <rect id="Rectángulo_5124" data-name="Rectángulo 5124" width="99.841" height="53.487" transform="translate(37.179 110.988)" fill="#a36d41"/>
      <path id="Trazado_100519" data-name="Trazado 100519" d="M191.084,12.3l17.725,20.737h7.132l18.1-20.737Z" transform="translate(-125.276 -8.285)" fill="#b89968"/>
      <g id="Grupo_55124" data-name="Grupo 55124" transform="translate(37.179 110.988)">
        <rect id="Rectángulo_5125" data-name="Rectángulo 5125" width="99.841" height="10.697" fill="#7c4d2a"/>
        <rect id="Rectángulo_5126" data-name="Rectángulo 5126" width="99.841" height="10.697" transform="translate(0 42.789)" fill="#7c4d2a"/>
      </g>
      <path id="Trazado_100520" data-name="Trazado 100520" d="M128.224,257a60.446,60.446,0,0,1-44.108-19.041l-23.265,33.3H188.842l-20.621-29.335A60.385,60.385,0,0,1,128.224,257Z" transform="translate(-37.559 -160.274)" fill="#876c3f"/>
      <path id="Trazado_100521" data-name="Trazado 100521" d="M58.52,112.52l50.392-72.137L92.621,92.818,97.728,94.4,117.461,30.9V93.611h5.348V30.141l23.338,64.381,5.028-1.823L133.054,42.71l49.076,69.816,4.376-3.076L127.095,24.931,143.817,5.774l-4.03-3.517L127.936,15.834,130.485.9,125.212,0l-3.768,22.079h-2.618L115.058,0l-5.273.9L112.3,15.644,100.877,2.278,96.811,5.753l16.381,19.165L54.135,109.457Z" transform="translate(-33.036)"/>
      <rect id="Rectángulo_5127" data-name="Rectángulo 5127" width="15.314" height="5.348" transform="matrix(0.542, -0.841, 0.841, 0.542, 34.932, 109.539)"/>
      <rect id="Rectángulo_5128" data-name="Rectángulo 5128" width="5.349" height="15.315" transform="translate(56.369 96.667) rotate(32.799)"/>
      <rect id="Rectángulo_5129" data-name="Rectángulo 5129" width="15.314" height="5.348" transform="matrix(0.542, -0.841, 0.841, 0.542, 61.198, 109.543)"/>
      <rect id="Rectángulo_5130" data-name="Rectángulo 5130" width="5.349" height="15.315" transform="translate(82.634 96.668) rotate(32.799)"/>
      <rect id="Rectángulo_5131" data-name="Rectángulo 5131" width="5.349" height="15.315" transform="translate(126.475 99.57) rotate(-32.799)"/>
      <rect id="Rectángulo_5132" data-name="Rectángulo 5132" width="15.314" height="5.348" transform="matrix(0.542, 0.841, -0.841, 0.542, 117.841, 96.665)"/>
      <rect id="Rectángulo_5133" data-name="Rectángulo 5133" width="15.314" height="5.348" transform="matrix(-0.542, -0.841, 0.841, -0.542, 108.502, 112.439)"/>
      <rect id="Rectángulo_5134" data-name="Rectángulo 5134" width="15.314" height="5.348" transform="matrix(0.542, 0.841, -0.841, 0.542, 92.918, 96.668)"/>
      <path id="Trazado_100522" data-name="Trazado 100522" d="M163.225,350.895h-5.349v47.246H146.585V350.895h-5.348v47.246H129.945V350.895H124.6v47.246H113.3V350.895h-5.348v47.246H96.664V350.895H91.315v47.246H80.024V350.895H74.676v47.246H63.384V350.895H58.035v47.246H40.023v5.349H181.039v-5.349H163.225Z" transform="translate(-23.531 -236.34)"/>
      <rect id="Rectángulo_5135" data-name="Rectángulo 5135" width="6.221" height="5.349" transform="translate(162.694 161.8)"/>
      <rect id="Rectángulo_5136" data-name="Rectángulo 5136" width="6.221" height="5.349" transform="translate(5.087 161.8)"/>
    </g>
  </g>
</svg>
