<svg xmlns="http://www.w3.org/2000/svg" width="255" height="255" viewBox="0 0 255 255">
  <g id="Grupo_55154" data-name="Grupo 55154" transform="translate(10417 9399)">
    <rect id="Rectángulo_5137" data-name="Rectángulo 5137" width="255" height="255" rx="21" transform="translate(-10417 -9399)" fill="#efefef"/>
    <g id="gestion-de-datos" transform="translate(-10377 -9374.501)">
      <path id="Trazado_100523" data-name="Trazado 100523" d="M168.106,448.049H16.366A8.866,8.866,0,0,1,7.5,439.184v-6.82A1.364,1.364,0,0,1,8.864,431H175.608a1.364,1.364,0,0,1,1.364,1.364v6.82A8.866,8.866,0,0,1,168.106,448.049Z" transform="translate(-4.943 -268.546)" fill="#dbf6e9"/>
      <path id="Trazado_100524" data-name="Trazado 100524" d="M466.232,431H456a1.364,1.364,0,0,1,1.364,1.364v6.82a8.866,8.866,0,0,1-8.866,8.866h10.23a8.866,8.866,0,0,0,8.866-8.866v-6.82A1.364,1.364,0,0,0,466.232,431Z" transform="translate(-295.566 -268.546)" fill="#88c3e0"/>
      <path id="Trazado_100525" data-name="Trazado 100525" d="M180.806,233.293l-132.984,0A6.82,6.82,0,0,1,41,226.478l0-88.654A6.82,6.82,0,0,1,47.819,131L180.8,131a6.82,6.82,0,0,1,6.82,6.819l0,88.654A6.819,6.819,0,0,1,180.806,233.293Z" transform="translate(-27.019 -70.843)" fill="#9ddfd3"/>
      <path id="Trazado_100526" data-name="Trazado 100526" d="M438.049,226.474a6.82,6.82,0,0,1-6.82,6.82H421a6.82,6.82,0,0,0,6.82-6.82l0-88.654a6.819,6.819,0,0,0-6.8-6.82h10.213a6.818,6.818,0,0,1,6.82,6.82Z" transform="translate(-277.443 -70.843)" fill="#9ddfd3"/>
      <path id="Trazado_100527" data-name="Trazado 100527" d="M197.166,242.834h-10.23L71,242.838,71,161l115.933,0h10.23Z" transform="translate(-46.79 -90.613)" fill="#f3f3f3"/>
      <path id="Trazado_100528" data-name="Trazado 100528" d="M410.995,161h10.23v81.834h-10.23Z" transform="translate(-270.85 -90.613)" fill="#e4e4e4"/>
      <path id="Trazado_100529" data-name="Trazado 100529" d="M237.279,439.184H214.092A4.092,4.092,0,0,1,210,435.092V431h31.371v4.092A4.092,4.092,0,0,1,237.279,439.184Z" transform="translate(-138.392 -268.546)" fill="#88c3e0"/>
      <path id="Trazado_100530" data-name="Trazado 100530" d="M298.435,81.26c-.19,1.346-.643,3.275-1.049,4.841a3.314,3.314,0,0,1-3.207,2.487H289.55a3.313,3.313,0,0,1-3.207-2.487c-.405-1.567-.859-3.5-1.049-4.841a3.291,3.291,0,0,0-1.622-2.387L279.4,76.41a3.3,3.3,0,0,0-2.876-.209c-1.266.511-3.175,1.085-4.741,1.519a3.312,3.312,0,0,1-3.754-1.53L265.712,72.2a3.3,3.3,0,0,1,.551-4.018c1.159-1.134,2.608-2.493,3.683-3.33a3.286,3.286,0,0,0,1.259-2.595v-4.92a3.286,3.286,0,0,0-1.259-2.595c-1.075-.837-2.524-2.2-3.683-3.33a3.3,3.3,0,0,1-.551-4.018l2.312-3.994a3.312,3.312,0,0,1,3.754-1.53c1.566.434,3.475,1.009,4.741,1.519a3.3,3.3,0,0,0,2.876-.209l4.277-2.463a3.29,3.29,0,0,0,1.622-2.387c.19-1.346.643-3.275,1.049-4.841A3.314,3.314,0,0,1,289.55,31h4.629a3.313,3.313,0,0,1,3.207,2.487c.405,1.567.859,3.5,1.049,4.841a3.291,3.291,0,0,0,1.622,2.387l4.277,2.463a3.3,3.3,0,0,0,2.876.209c1.266-.511,3.175-1.085,4.741-1.519a3.312,3.312,0,0,1,3.754,1.53l2.312,3.994a3.3,3.3,0,0,1-.551,4.018c-1.159,1.134-2.608,2.493-3.683,3.33a3.285,3.285,0,0,0-1.259,2.595v4.92a3.286,3.286,0,0,0,1.259,2.595c1.075.837,2.524,2.2,3.683,3.33a3.3,3.3,0,0,1,.551,4.018l-2.312,3.994a3.312,3.312,0,0,1-3.754,1.53c-1.566-.434-3.475-1.009-4.741-1.519a3.3,3.3,0,0,0-2.876.209l-4.277,2.463A3.291,3.291,0,0,0,298.435,81.26Zm4.827-21.466a11.4,11.4,0,1,0-11.4,11.369A11.383,11.383,0,0,0,303.262,59.794Z" transform="translate(-174.814 -4.941)" fill="#f78e36"/>
      <path id="Trazado_100531" data-name="Trazado 100531" d="M180.823,211.26c-.19,1.346-.643,3.275-1.049,4.841a3.314,3.314,0,0,1-3.207,2.487h-4.629a3.313,3.313,0,0,1-3.207-2.487c-.405-1.567-.859-3.5-1.049-4.841a3.291,3.291,0,0,0-1.622-2.387l-4.277-2.463a3.3,3.3,0,0,0-2.876-.209c-1.266.511-3.175,1.085-4.741,1.519a3.312,3.312,0,0,1-3.754-1.53L148.1,202.2a3.3,3.3,0,0,1,.551-4.018c1.159-1.134,2.608-2.493,3.683-3.33a3.286,3.286,0,0,0,1.259-2.595v-4.92a3.286,3.286,0,0,0-1.259-2.595c-1.075-.837-2.524-2.2-3.683-3.33a3.3,3.3,0,0,1-.551-4.018l2.312-3.994a3.313,3.313,0,0,1,3.754-1.53c1.567.434,3.475,1.009,4.741,1.519a3.3,3.3,0,0,0,2.876-.209l4.277-2.463a3.29,3.29,0,0,0,1.622-2.387c.19-1.346.643-3.275,1.049-4.841A3.314,3.314,0,0,1,171.938,161h4.629a3.313,3.313,0,0,1,3.207,2.487c.405,1.567.859,3.5,1.049,4.841a3.291,3.291,0,0,0,1.622,2.387l4.277,2.463a3.3,3.3,0,0,0,2.876.209c1.266-.511,3.175-1.085,4.741-1.519a3.312,3.312,0,0,1,3.754,1.53l2.312,3.994a3.3,3.3,0,0,1-.551,4.018c-1.159,1.134-2.608,2.493-3.683,3.33a3.286,3.286,0,0,0-1.259,2.595v4.92a3.287,3.287,0,0,0,1.259,2.595c1.075.837,2.524,2.2,3.683,3.33a3.3,3.3,0,0,1,.551,4.018l-2.312,3.994a3.312,3.312,0,0,1-3.754,1.53c-1.566-.434-3.475-1.009-4.741-1.519a3.3,3.3,0,0,0-2.876.209l-4.277,2.463A3.291,3.291,0,0,0,180.823,211.26Zm4.827-21.466a11.4,11.4,0,1,0-11.4,11.369A11.383,11.383,0,0,0,185.65,189.794Z" transform="translate(-97.307 -90.613)" fill="#ffc328"/>
      <g id="Grupo_55125" data-name="Grupo 55125" transform="translate(0 23.501)">
        <path id="Trazado_100532" data-name="Trazado 100532" d="M170.666,159.9h-8.533a9.314,9.314,0,0,0,1.031-4.266l0-69.39a2.557,2.557,0,1,0-5.115,0l0,69.39a4.267,4.267,0,0,1-4.262,4.262L20.8,159.9a4.267,4.267,0,0,1-4.262-4.262l0-88.654A4.267,4.267,0,0,1,20.8,62.718l67.86,0a5.854,5.854,0,0,0-.32,5.115H74.611l-50.4,0a2.557,2.557,0,0,0-2.557,2.557l0,54.01a2.557,2.557,0,1,0,5.115,0l0-51.453,42,0c-.349,1.394-.739,3.1-.924,4.413a.737.737,0,0,1-.366.528L63.2,80.35a.741.741,0,0,1-.644.053c-1.452-.585-3.528-1.2-5.015-1.612A5.872,5.872,0,0,0,50.89,81.5L48.579,85.5a5.86,5.86,0,0,0,.976,7.126c1.1,1.075,2.666,2.558,3.9,3.52a.731.731,0,0,1,.273.577v4.92a.733.733,0,0,1-.273.577,52.4,52.4,0,0,0-3.9,3.52,5.86,5.86,0,0,0-.976,7.126l2.311,3.994a5.87,5.87,0,0,0,6.652,2.714c1.486-.412,3.562-1.026,5.015-1.612a.743.743,0,0,1,.643.053l4.277,2.463a.738.738,0,0,1,.366.528,52.28,52.28,0,0,0,1.1,5.124,5.872,5.872,0,0,0,5.684,4.4H79.26a5.871,5.871,0,0,0,5.683-4.4A52.23,52.23,0,0,0,86.049,121a.74.74,0,0,1,.366-.528l4.277-2.463a.741.741,0,0,1,.643-.053c1.452.585,3.528,1.2,5.015,1.612A5.874,5.874,0,0,0,103,116.859l2.311-3.994a5.86,5.86,0,0,0-.976-7.126,52.389,52.389,0,0,0-3.9-3.519.734.734,0,0,1-.273-.578v-4.92a.732.732,0,0,1,.273-.577,52.4,52.4,0,0,0,3.9-3.52,5.86,5.86,0,0,0,.976-7.126L103,81.5a5.87,5.87,0,0,0-6.652-2.714c-1.486.412-3.562,1.026-5.015,1.612a.746.746,0,0,1-.643-.053l-4.277-2.464a.736.736,0,0,1-.366-.528c-.186-1.315-.576-3.02-.924-4.414h6.134a5.871,5.871,0,0,0,6.388,2.3c1.486-.412,3.563-1.027,5.015-1.612a.744.744,0,0,1,.643.053l4.277,2.463a.738.738,0,0,1,.366.528,52.381,52.381,0,0,0,1.1,5.124,5.872,5.872,0,0,0,5.684,4.4h4.629a5.871,5.871,0,0,0,5.683-4.4,52.134,52.134,0,0,0,1.105-5.125.74.74,0,0,1,.366-.528l4.277-2.463a.742.742,0,0,1,.644-.053c1.452.585,3.528,1.2,5.015,1.612a5.874,5.874,0,0,0,6.387-2.3h4.974l0,76.719-121.047,0V135.438a2.557,2.557,0,0,0-5.115,0v16.786a2.557,2.557,0,0,0,2.557,2.557l126.163,0a2.557,2.557,0,0,0,2.557-2.557l0-81.834a2.557,2.557,0,0,0-2.557-2.557H145.76a5.854,5.854,0,0,0-.32-5.115h8.343a4.267,4.267,0,0,1,4.262,4.262v8.416a2.557,2.557,0,1,0,5.115,0V66.977a9.388,9.388,0,0,0-9.377-9.377H140.327a.754.754,0,0,1-.06-.287v-4.92a.731.731,0,0,1,.274-.577c1.234-.962,2.8-2.445,3.9-3.52a5.86,5.86,0,0,0,.976-7.126l-2.311-3.994a5.87,5.87,0,0,0-6.652-2.714c-1.487.413-3.565,1.027-5.015,1.612a.746.746,0,0,1-.643-.053l-4.277-2.464a.736.736,0,0,1-.366-.528,52.348,52.348,0,0,0-1.1-5.124,5.872,5.872,0,0,0-5.684-4.4h-4.629a5.871,5.871,0,0,0-5.683,4.4,52.218,52.218,0,0,0-1.105,5.124.737.737,0,0,1-.366.528l-4.277,2.463a.742.742,0,0,1-.643.053c-1.449-.584-3.527-1.2-5.016-1.613A5.873,5.873,0,0,0,91,37.176l-2.311,3.994A5.86,5.86,0,0,0,89.66,48.3c1.1,1.074,2.664,2.557,3.9,3.52a.731.731,0,0,1,.273.577v4.92a.755.755,0,0,1-.06.287L20.8,57.6a9.388,9.388,0,0,0-9.377,9.377l0,88.654a9.317,9.317,0,0,0,1.029,4.262H3.921A3.926,3.926,0,0,0,0,163.818v6.82a11.436,11.436,0,0,0,11.423,11.423H130.894a2.557,2.557,0,1,0,0-5.115H11.423a6.315,6.315,0,0,1-6.308-6.308v-5.626H69.051v1.534A6.657,6.657,0,0,0,75.7,173.2H98.887a6.657,6.657,0,0,0,6.649-6.649v-1.534h63.936v5.626a6.315,6.315,0,0,1-6.308,6.308H141.932a2.557,2.557,0,0,0,0,5.115h21.231a11.436,11.436,0,0,0,11.423-11.423v-6.82a3.926,3.926,0,0,0-3.921-3.921ZM79.992,73.514a46.256,46.256,0,0,1,.992,4.558,5.81,5.81,0,0,0,2.878,4.246l4.277,2.464a5.818,5.818,0,0,0,5.108.364,46.806,46.806,0,0,1,4.468-1.427.756.756,0,0,1,.858.347l2.311,3.994a.748.748,0,0,1-.127.909,46.35,46.35,0,0,1-3.465,3.14,5.8,5.8,0,0,0-2.244,4.612v4.92a5.8,5.8,0,0,0,2.244,4.612,46.373,46.373,0,0,1,3.465,3.14.748.748,0,0,1,.127.909L98.574,114.3a.759.759,0,0,1-.858.347,46.741,46.741,0,0,1-4.468-1.427,5.816,5.816,0,0,0-5.109.364l-4.277,2.463a5.812,5.812,0,0,0-2.878,4.246h0a46.215,46.215,0,0,1-.992,4.558.757.757,0,0,1-.731.57H74.631a.758.758,0,0,1-.732-.57,46.258,46.258,0,0,1-.992-4.558,5.812,5.812,0,0,0-2.878-4.246l-4.277-2.463a5.814,5.814,0,0,0-5.109-.364,46.8,46.8,0,0,1-4.468,1.427.755.755,0,0,1-.858-.347L53.006,110.3a.748.748,0,0,1,.127-.909,46.462,46.462,0,0,1,3.466-3.141,5.8,5.8,0,0,0,2.244-4.612v-4.92A5.8,5.8,0,0,0,56.6,92.11a46.376,46.376,0,0,1-3.465-3.14.748.748,0,0,1-.127-.909l2.311-3.994a.759.759,0,0,1,.858-.347,46.745,46.745,0,0,1,4.468,1.427,5.818,5.818,0,0,0,5.109-.364l4.277-2.463a5.81,5.81,0,0,0,2.878-4.246,46.217,46.217,0,0,1,.992-4.558.756.756,0,0,1,.721-.569h4.648a.757.757,0,0,1,.724.569ZM93.238,44.641a.748.748,0,0,1-.127-.909l2.311-3.994a.758.758,0,0,1,.858-.347,46.588,46.588,0,0,1,4.468,1.427,5.817,5.817,0,0,0,5.109-.364l4.277-2.463a5.81,5.81,0,0,0,2.878-4.246A46.136,46.136,0,0,1,114,29.185a.757.757,0,0,1,.731-.57h4.629a.758.758,0,0,1,.732.57,46.172,46.172,0,0,1,.992,4.558,5.81,5.81,0,0,0,2.878,4.246l4.278,2.464a5.814,5.814,0,0,0,5.108.364,46.748,46.748,0,0,1,4.468-1.427.756.756,0,0,1,.858.347l2.311,3.994a.748.748,0,0,1-.127.909A46.43,46.43,0,0,1,137.4,47.78a5.8,5.8,0,0,0-2.245,4.612v4.92a5.8,5.8,0,0,0,2.244,4.612,46.322,46.322,0,0,1,3.465,3.14.748.748,0,0,1,.127.909l-2.311,3.994a.758.758,0,0,1-.858.347,46.744,46.744,0,0,1-4.468-1.427,5.817,5.817,0,0,0-5.109.364l-4.277,2.463a5.812,5.812,0,0,0-2.878,4.246h0a46.22,46.22,0,0,1-.992,4.558.757.757,0,0,1-.731.57h-4.629a.758.758,0,0,1-.732-.57,46.249,46.249,0,0,1-.992-4.558,5.812,5.812,0,0,0-2.878-4.246l-4.277-2.463a5.814,5.814,0,0,0-5.109-.364,46.741,46.741,0,0,1-4.468,1.427.756.756,0,0,1-.858-.347l-.453-.783c-.014-.027-.03-.053-.045-.078l-1.813-3.133a.748.748,0,0,1,.127-.909A46.519,46.519,0,0,1,96.7,61.924a5.8,5.8,0,0,0,2.244-4.612v-4.92A5.8,5.8,0,0,0,96.7,47.781,46.35,46.35,0,0,1,93.238,44.641Zm7.184,121.905a1.536,1.536,0,0,1-1.534,1.534H75.7a1.536,1.536,0,0,1-1.534-1.534v-1.534h26.256Z" transform="translate(0 -23.501)"/>
        <path id="Trazado_100533" data-name="Trazado 100533" d="M316.3,102.456a13.927,13.927,0,1,0-13.955-13.927A13.956,13.956,0,0,0,316.3,102.456Zm-3.985-6.065h7.97a8.834,8.834,0,0,1-7.97,0ZM316.3,79.718a8.836,8.836,0,0,1,8.84,8.812,8.741,8.741,0,0,1-.442,2.747H307.9a8.8,8.8,0,0,1,8.4-11.559Z" transform="translate(-199.247 -57.178)"/>
        <path id="Trazado_100534" data-name="Trazado 100534" d="M184.73,218.529A13.955,13.955,0,1,0,198.685,204.6a13.956,13.956,0,0,0-13.955,13.926Zm22.794,0a8.84,8.84,0,1,1-8.84-8.812,8.836,8.836,0,0,1,8.84,8.812Z" transform="translate(-121.739 -142.849)"/>
      </g>
    </g>
  </g>
</svg>
