<svg xmlns="http://www.w3.org/2000/svg" width="255" height="255" viewBox="0 0 255 255">
  <g id="Grupo_55155" data-name="Grupo 55155" transform="translate(10417 9127)">
    <rect id="Rectángulo_5138" data-name="Rectángulo 5138" width="255" height="255" rx="21" transform="translate(-10417 -9127)" fill="#efefef"/>
    <g id="phone" transform="translate(-10423.181 -9080)">
      <g id="Grupo_55130" data-name="Grupo 55130" transform="translate(80.323 3.142)">
        <g id="Grupo_55129" data-name="Grupo 55129" transform="translate(0)">
          <g id="Grupo_55127" data-name="Grupo 55127" transform="translate(0 20.923)">
            <g id="Grupo_55126" data-name="Grupo 55126">
              <path id="Trazado_100535" data-name="Trazado 100535" d="M87.181,76.6v108.02h92.344V76.6" transform="translate(-87.181 -76.596)" fill="#faf7f5"/>
            </g>
          </g>
          <path id="Trazado_100536" data-name="Trazado 100536" d="M87.18,420.4h92.344v9.96a15.676,15.676,0,0,1-15.676,15.676H102.856A15.676,15.676,0,0,1,87.18,430.364V420.4Z" transform="translate(-87.18 -291.461)" fill="#dbf6e9"/>
          <g id="Grupo_55128" data-name="Grupo 55128" transform="translate(0)">
            <path id="Trazado_100537" data-name="Trazado 100537" d="M149.3,30.923H87.181V25.676A15.676,15.676,0,0,1,102.857,10h60.992a15.676,15.676,0,0,1,15.676,15.676v5.248" transform="translate(-87.181 -10)" fill="#9ddfd3"/>
          </g>
        </g>
        <path id="Trazado_100538" data-name="Trazado 100538" d="M254.647,144.489h-59.8a7.387,7.387,0,0,0-7.387,7.387v38.651a7.387,7.387,0,0,0,7.387,7.387h9.94v13.731l19.767-13.731h30.095a7.387,7.387,0,0,0,7.387-7.387V151.876a7.387,7.387,0,0,0-7.387-7.387Z" transform="translate(-155.952 -102.234)" fill="#ffc93c"/>
      </g>
      <g id="Grupo_55136" data-name="Grupo 55136" transform="translate(77.181 0)">
        <path id="Trazado_100539" data-name="Trazado 100539" d="M221.445,457.486h-9.867a3.142,3.142,0,0,1,0-6.284h9.867a3.142,3.142,0,0,1,0,6.284Z" transform="translate(-167.198 -309.441)"/>
        <path id="Trazado_100540" data-name="Trazado 100540" d="M179.017,42.254h-3.209V18.818A18.839,18.839,0,0,0,156.991,0H96A18.839,18.839,0,0,0,77.181,18.818V142.045A18.839,18.839,0,0,0,96,160.863h60.992a18.839,18.839,0,0,0,18.818-18.818V101.963h3.209a10.541,10.541,0,0,0,10.529-10.529V52.783a10.541,10.541,0,0,0-10.529-10.529Zm-9.492,99.791a12.548,12.548,0,0,1-12.534,12.534H96a12.548,12.548,0,0,1-12.534-12.534v-6.818h86.06Zm0-13.1H83.465V27.207h58.973a3.142,3.142,0,1,0,0-6.284H83.465V18.818A12.548,12.548,0,0,1,96,6.284h60.992a12.548,12.548,0,0,1,12.534,12.534V42.255h-50.31a10.541,10.541,0,0,0-10.529,10.529V91.435a10.541,10.541,0,0,0,10.529,10.529h6.8v7.447H106.962a3.142,3.142,0,0,0,0,6.284h42.676a3.142,3.142,0,0,0,0-6.284H139.186l10.721-7.447h19.618v26.979Zm13.737-37.508a4.25,4.25,0,0,1-4.245,4.245H148.922a3.143,3.143,0,0,0-1.792.561l-14.833,10.3V98.821a3.142,3.142,0,0,0-3.142-3.142h-9.94a4.25,4.25,0,0,1-4.245-4.245V52.783a4.25,4.25,0,0,1,4.245-4.245h59.8a4.25,4.25,0,0,1,4.245,4.245Z" transform="translate(-77.181 0)"/>
        <g id="Grupo_55134" data-name="Grupo 55134" transform="translate(47.976 56.905)">
          <g id="Grupo_55131" data-name="Grupo 55131" transform="translate(0)">
            <path id="Trazado_100541" data-name="Trazado 100541" d="M274.658,187.4H233.025a3.142,3.142,0,0,1,0-6.284h41.633a3.142,3.142,0,0,1,0,6.284Z" transform="translate(-229.883 -181.119)"/>
          </g>
          <g id="Grupo_55132" data-name="Grupo 55132" transform="translate(0 12.153)">
            <path id="Trazado_100542" data-name="Trazado 100542" d="M274.658,226.083H233.025a3.142,3.142,0,0,1,0-6.284h41.633a3.142,3.142,0,0,1,0,6.284Z" transform="translate(-229.883 -219.799)"/>
          </g>
          <g id="Grupo_55133" data-name="Grupo 55133" transform="translate(0 24.306)">
            <path id="Trazado_100543" data-name="Trazado 100543" d="M256.608,264.764H233.024a3.142,3.142,0,0,1,0-6.284h23.584a3.142,3.142,0,1,1,0,6.284Z" transform="translate(-229.882 -258.48)"/>
          </g>
        </g>
        <g id="Grupo_55135" data-name="Grupo 55135" transform="translate(76.382 20.931)">
          <path id="Trazado_100544" data-name="Trazado 100544" d="M323.427,72.9a3.142,3.142,0,1,1,3.082-2.529A3.17,3.17,0,0,1,323.427,72.9Z" transform="translate(-320.292 -66.62)"/>
        </g>
      </g>
    </g>
  </g>
</svg>
