<svg xmlns="http://www.w3.org/2000/svg" width="644" height="242.178" viewBox="0 0 644 242.178">
  <g id="Grupo_55348" data-name="Grupo 55348" transform="translate(-492 -3069.982)">
    <path id="Trazado_100940" data-name="Trazado 100940" d="M77,0A77,77,0,1,1,0,77,77,77,0,0,1,77,0Z" transform="translate(492 3112)" fill="#ffc93c"/>
    <g id="Trazado_100942" data-name="Trazado 100942" transform="translate(729 3118)" fill="none">
      <path d="M71,0A71,71,0,1,1,0,71,71,71,0,0,1,71,0Z" stroke="none"/>
      <path d="M 71 3 C 61.81874084472656 3 52.9136962890625 4.797500610351563 44.53225708007813 8.342544555664063 C 40.50361633300781 10.04652404785156 36.61775970458984 12.15571594238281 32.98264312744141 14.61155700683594 C 29.38127899169922 17.04457855224609 25.99462127685547 19.83885955810547 22.91674041748047 22.91674041748047 C 19.83885955810547 25.99462127685547 17.04457855224609 29.38127899169922 14.61155700683594 32.98264312744141 C 12.15571594238281 36.61775970458984 10.04652404785156 40.50361633300781 8.342544555664063 44.53225708007813 C 4.797500610351563 52.9136962890625 3 61.81874084472656 3 71 C 3 80.18125915527344 4.797500610351563 89.0863037109375 8.342544555664063 97.46774291992188 C 10.04652404785156 101.4963836669922 12.15571594238281 105.3822402954102 14.61155700683594 109.0173645019531 C 17.04457855224609 112.6187210083008 19.83885955810547 116.0053787231445 22.91674041748047 119.0832595825195 C 25.99462127685547 122.1611404418945 29.38127899169922 124.9554214477539 32.98264312744141 127.3884429931641 C 36.61775970458984 129.8442840576172 40.50361633300781 131.9534759521484 44.53225708007813 133.6574554443359 C 52.9136962890625 137.2024993896484 61.81874084472656 139 71 139 C 80.18125915527344 139 89.0863037109375 137.2024993896484 97.46774291992188 133.6574554443359 C 101.4963836669922 131.9534759521484 105.3822402954102 129.8442840576172 109.0173645019531 127.3884429931641 C 112.6187210083008 124.9554214477539 116.0053787231445 122.1611404418945 119.0832595825195 119.0832595825195 C 122.1611404418945 116.0053787231445 124.9554214477539 112.6187210083008 127.3884429931641 109.0173645019531 C 129.8442840576172 105.3822402954102 131.9534759521484 101.4963836669922 133.6574554443359 97.46774291992188 C 137.2024993896484 89.0863037109375 139 80.18125915527344 139 71 C 139 61.81874084472656 137.2024993896484 52.9136962890625 133.6574554443359 44.53225708007813 C 131.9534759521484 40.50361633300781 129.8442840576172 36.61775970458984 127.3884429931641 32.98264312744141 C 124.9554214477539 29.38127899169922 122.1611404418945 25.99462127685547 119.0832595825195 22.91674041748047 C 116.0053787231445 19.83885955810547 112.6187210083008 17.04457855224609 109.0173645019531 14.61155700683594 C 105.3822402954102 12.15571594238281 101.4963836669922 10.04652404785156 97.46774291992188 8.342544555664063 C 89.0863037109375 4.797500610351563 80.18125915527344 3 71 3 M 71 0 C 110.2122192382813 0 142 31.78778076171875 142 71 C 142 110.2122192382813 110.2122192382813 142 71 142 C 31.78778076171875 142 0 110.2122192382813 0 71 C 0 31.78778076171875 31.78778076171875 0 71 0 Z" stroke="none" fill="#9ddfd3"/>
    </g>
    <g id="Trazado_100943" data-name="Trazado 100943" transform="translate(723 3112)" fill="none">
      <path d="M77,0A77,77,0,1,1,0,77,77,77,0,0,1,77,0Z" stroke="none"/>
      <path d="M 77 3 C 67.00873565673828 3 57.31793212890625 4.956130981445313 48.19678497314453 8.814041137695313 C 43.81260681152344 10.66839599609375 39.58386993408203 12.96371459960938 35.62797546386719 15.63626098632813 C 31.70891571044922 18.283935546875 28.02349853515625 21.32469177246094 24.67408752441406 24.67408752441406 C 21.32469177246094 28.02349853515625 18.283935546875 31.70891571044922 15.63626098632813 35.62797546386719 C 12.96371459960938 39.58386993408203 10.66839599609375 43.81260681152344 8.814041137695313 48.19678497314453 C 4.956130981445313 57.31793212890625 3 67.00873565673828 3 77 C 3 86.99126434326172 4.956130981445313 96.68206787109375 8.814041137695313 105.80322265625 C 10.66839599609375 110.187370300293 12.96371459960938 114.416130065918 15.63626098632813 118.3720016479492 C 18.283935546875 122.2910842895508 21.32469177246094 125.9765014648438 24.67408752441406 129.3258972167969 C 28.02349853515625 132.6753082275391 31.70891571044922 135.716064453125 35.62797546386719 138.3637390136719 C 39.58386993408203 141.0362854003906 43.81260681152344 143.3316040039063 48.19678497314453 145.1859283447266 C 57.31793212890625 149.0438690185547 67.00873565673828 151 77 151 C 86.99126434326172 151 96.68206787109375 149.0438690185547 105.80322265625 145.1859283447266 C 110.187370300293 143.3316040039063 114.416130065918 141.0362854003906 118.3720016479492 138.3637390136719 C 122.2910842895508 135.716064453125 125.9765014648438 132.6753082275391 129.3258972167969 129.3258972167969 C 132.6753082275391 125.9765014648438 135.716064453125 122.2910842895508 138.3637390136719 118.3720016479492 C 141.0362854003906 114.416130065918 143.3316040039063 110.187370300293 145.1859283447266 105.80322265625 C 149.0438690185547 96.68206787109375 151 86.99126434326172 151 77 C 151 67.00873565673828 149.0438690185547 57.31793212890625 145.1859283447266 48.19678497314453 C 143.3316040039063 43.81260681152344 141.0362854003906 39.58386993408203 138.3637390136719 35.62797546386719 C 135.716064453125 31.70891571044922 132.6753082275391 28.02349853515625 129.3258972167969 24.67408752441406 C 125.9765014648438 21.32469177246094 122.2910842895508 18.283935546875 118.3720016479492 15.63626098632813 C 114.416130065918 12.96371459960938 110.187370300293 10.66839599609375 105.80322265625 8.814041137695313 C 96.68206787109375 4.956130981445313 86.99126434326172 3 77 3 M 77 0 C 119.5259094238281 0 154 34.47406768798828 154 77 C 154 119.5259094238281 119.5259094238281 154 77 154 C 34.47406768798828 154 0 119.5259094238281 0 77 C 0 34.47406768798828 34.47406768798828 0 77 0 Z" stroke="none" fill="#cc3d60"/>
    </g>
    <path id="Trazado_100945" data-name="Trazado 100945" d="M77,0A77,77,0,1,1,0,77,77,77,0,0,1,77,0Z" transform="translate(982 3112)" fill="#81c140"/>
    <path id="Trazado_100941" data-name="Trazado 100941" d="M11.1-4.578a2.146,2.146,0,0,0-.824-1.807A9.914,9.914,0,0,0,7.3-7.666a14.353,14.353,0,0,1-3.418-1.44,4.561,4.561,0,0,1-2.429-3.979A4.331,4.331,0,0,1,3.2-16.626a7.09,7.09,0,0,1,4.547-1.392,7.681,7.681,0,0,1,3.308.684,5.43,5.43,0,0,1,2.283,1.947,4.994,4.994,0,0,1,.83,2.8H11.1a2.785,2.785,0,0,0-.873-2.179,3.6,3.6,0,0,0-2.5-.787,3.762,3.762,0,0,0-2.35.647A2.154,2.154,0,0,0,4.541-13.1a1.949,1.949,0,0,0,.9,1.63A10.407,10.407,0,0,0,8.423-10.2a13.7,13.7,0,0,1,3.333,1.4A5.3,5.3,0,0,1,13.6-6.989,4.705,4.705,0,0,1,14.185-4.6a4.23,4.23,0,0,1-1.7,3.534A7.386,7.386,0,0,1,7.861.244,8.682,8.682,0,0,1,4.315-.47,5.957,5.957,0,0,1,1.8-2.441a4.913,4.913,0,0,1-.9-2.93H3.992a2.875,2.875,0,0,0,1,2.344,4.383,4.383,0,0,0,2.869.83,3.809,3.809,0,0,0,2.423-.653A2.107,2.107,0,0,0,11.1-4.578Z" transform="translate(562 3088)" fill="#12263f"/>
    <path id="Trazado_100944" data-name="Trazado 100944" d="M14.648-15.283H9.106V0H6.042V-15.283H.549v-2.49h14.1Zm4.48,8.923H12.72V-8.752h6.409ZM32.251-7.935h-7.3v5.469h8.533V0H21.863V-17.773H33.4v2.49H24.951v4.907h7.3Z" transform="translate(785 3088)" fill="#12263f"/>
    <path id="Trazado_100946" data-name="Trazado 100946" d="M5.811-17.773,10.938-4.15l5.115-13.623h3.992V0H16.968V-5.859l.305-7.837L12.024,0H9.814L4.578-13.684l.305,7.825V0H1.807V-17.773Z" transform="translate(1048 3088)" fill="#12263f"/>
    <path id="Trazado_100947" data-name="Trazado 100947" d="M12.295-4.629a5.134,5.134,0,0,1-1.68,3.55A5.726,5.726,0,0,1,6.719.2,5.545,5.545,0,0,1,3.726-.61a5.288,5.288,0,0,1-2-2.29A8.264,8.264,0,0,1,1-6.348V-7.676a8.324,8.324,0,0,1,.713-3.545,5.373,5.373,0,0,1,2.046-2.363,5.707,5.707,0,0,1,3.081-.83,5.483,5.483,0,0,1,3.789,1.279,5.344,5.344,0,0,1,1.67,3.613H9.834a3.512,3.512,0,0,0-.894-2.212,2.953,2.953,0,0,0-2.1-.679A2.886,2.886,0,0,0,4.36-11.235a5.877,5.877,0,0,0-.884,3.452v1.26A6.235,6.235,0,0,0,4.3-3.008,2.739,2.739,0,0,0,6.719-1.8a3.194,3.194,0,0,0,2.188-.654,3.412,3.412,0,0,0,.928-2.178ZM16.8,0H14.424V-10.566H16.8Zm-2.52-13.311a1.259,1.259,0,0,1,.347-.908,1.309,1.309,0,0,1,.991-.361,1.326,1.326,0,0,1,1,.361,1.25,1.25,0,0,1,.352.908,1.221,1.221,0,0,1-.352.894,1.336,1.336,0,0,1-1,.356,1.32,1.32,0,0,1-.991-.356A1.23,1.23,0,0,1,14.277-13.311ZM24.033.2a4.91,4.91,0,0,1-3.657-1.421,5.154,5.154,0,0,1-1.4-3.784V-5.3a6.34,6.34,0,0,1,.61-2.827A4.645,4.645,0,0,1,21.3-10.068a4.531,4.531,0,0,1,2.461-.693,4.147,4.147,0,0,1,3.335,1.377,5.823,5.823,0,0,1,1.177,3.9v.957h-6.9a3.173,3.173,0,0,0,.874,2.07A2.624,2.624,0,0,0,24.17-1.7a3.213,3.213,0,0,0,2.656-1.318L28.105-1.8a4.272,4.272,0,0,1-1.694,1.47A5.3,5.3,0,0,1,24.033.2ZM23.75-8.857a2,2,0,0,0-1.577.684,3.543,3.543,0,0,0-.767,1.9h4.521v-.176a2.884,2.884,0,0,0-.635-1.8A1.983,1.983,0,0,0,23.75-8.857Zm8.564-1.709.068,1.221a3.8,3.8,0,0,1,3.076-1.416q3.3,0,3.359,3.779V0H36.445V-6.846a2.176,2.176,0,0,0-.435-1.489,1.828,1.828,0,0,0-1.421-.483,2.287,2.287,0,0,0-2.139,1.3V0H30.078V-10.566ZM45.576-1.7a2.146,2.146,0,0,0,1.475-.518A1.768,1.768,0,0,0,47.676-3.5h2.236A3.486,3.486,0,0,1,49.3-1.655,4.035,4.035,0,0,1,47.734-.3a4.656,4.656,0,0,1-2.129.5A4.505,4.505,0,0,1,42.09-1.24a5.694,5.694,0,0,1-1.3-3.965v-.244A5.6,5.6,0,0,1,42.08-9.312a4.464,4.464,0,0,1,3.516-1.45,4.341,4.341,0,0,1,3.071,1.1,3.935,3.935,0,0,1,1.245,2.886H47.676a2.173,2.173,0,0,0-.62-1.494,2,2,0,0,0-1.479-.586,2.088,2.088,0,0,0-1.777.835,4.261,4.261,0,0,0-.635,2.534v.381a4.331,4.331,0,0,0,.62,2.563A2.086,2.086,0,0,0,45.576-1.7ZM54.229,0H51.855V-10.566h2.373Zm-2.52-13.311a1.259,1.259,0,0,1,.347-.908,1.309,1.309,0,0,1,.991-.361,1.326,1.326,0,0,1,1,.361,1.25,1.25,0,0,1,.352.908,1.221,1.221,0,0,1-.352.894,1.336,1.336,0,0,1-1,.356,1.32,1.32,0,0,1-.991-.356A1.23,1.23,0,0,1,51.709-13.311ZM63.125,0a3.662,3.662,0,0,1-.273-.986A3.694,3.694,0,0,1,60.078.2a3.728,3.728,0,0,1-2.6-.908,2.906,2.906,0,0,1-1.006-2.246,3,3,0,0,1,1.255-2.593,6.081,6.081,0,0,1,3.589-.9h1.455v-.693a1.851,1.851,0,0,0-.459-1.313,1.819,1.819,0,0,0-1.4-.493,2.09,2.09,0,0,0-1.328.405,1.254,1.254,0,0,0-.518,1.03H56.7a2.634,2.634,0,0,1,.576-1.626,3.838,3.838,0,0,1,1.567-1.187,5.506,5.506,0,0,1,2.212-.43,4.434,4.434,0,0,1,2.959.933,3.326,3.326,0,0,1,1.133,2.622v4.766a5.4,5.4,0,0,0,.4,2.275V0ZM60.518-1.709a2.7,2.7,0,0,0,1.323-.342,2.284,2.284,0,0,0,.933-.918V-4.961H61.494a3.5,3.5,0,0,0-1.982.459,1.487,1.487,0,0,0-.664,1.3A1.387,1.387,0,0,0,59.3-2.114,1.758,1.758,0,0,0,60.518-1.709ZM73.555-2.871a1.076,1.076,0,0,0-.522-.967A5.557,5.557,0,0,0,71.3-4.424a8.911,8.911,0,0,1-2.021-.645A2.7,2.7,0,0,1,67.5-7.559a2.813,2.813,0,0,1,1.152-2.285,4.556,4.556,0,0,1,2.93-.918,4.74,4.74,0,0,1,3.062.938,2.975,2.975,0,0,1,1.167,2.432H73.438A1.462,1.462,0,0,0,72.93-8.53a1.946,1.946,0,0,0-1.348-.454,2.1,2.1,0,0,0-1.274.361,1.139,1.139,0,0,0-.493.967.962.962,0,0,0,.459.85,6.312,6.312,0,0,0,1.855.61,8.783,8.783,0,0,1,2.192.732A3.1,3.1,0,0,1,75.5-4.443,2.6,2.6,0,0,1,75.889-3a2.753,2.753,0,0,1-1.182,2.31,5.039,5.039,0,0,1-3.1.884A5.464,5.464,0,0,1,69.3-.273a3.809,3.809,0,0,1-1.582-1.289,3.051,3.051,0,0,1-.566-1.768h2.3a1.672,1.672,0,0,0,.635,1.294,2.467,2.467,0,0,0,1.553.454,2.4,2.4,0,0,0,1.426-.356A1.1,1.1,0,0,0,73.555-2.871Z" transform="translate(531 3308)" fill="#12263f"/>
    <path id="Trazado_100948" data-name="Trazado 100948" d="M11.719-12.227H7.285V0H4.834V-12.227H.439v-1.992H11.719ZM17.139.2a4.91,4.91,0,0,1-3.657-1.421,5.154,5.154,0,0,1-1.4-3.784V-5.3a6.34,6.34,0,0,1,.61-2.827A4.645,4.645,0,0,1,14.4-10.068a4.531,4.531,0,0,1,2.461-.693A4.147,4.147,0,0,1,20.2-9.385a5.823,5.823,0,0,1,1.177,3.9v.957h-6.9a3.173,3.173,0,0,0,.874,2.07,2.624,2.624,0,0,0,1.929.762,3.213,3.213,0,0,0,2.656-1.318L21.211-1.8a4.272,4.272,0,0,1-1.694,1.47A5.3,5.3,0,0,1,17.139.2Zm-.283-9.053a2,2,0,0,0-1.577.684,3.543,3.543,0,0,0-.767,1.9h4.521v-.176a2.884,2.884,0,0,0-.635-1.8A1.983,1.983,0,0,0,16.855-8.857ZM27.559-1.7a2.146,2.146,0,0,0,1.475-.518A1.768,1.768,0,0,0,29.658-3.5h2.236a3.486,3.486,0,0,1-.615,1.841A4.035,4.035,0,0,1,29.717-.3a4.656,4.656,0,0,1-2.129.5A4.505,4.505,0,0,1,24.072-1.24a5.694,5.694,0,0,1-1.3-3.965v-.244a5.6,5.6,0,0,1,1.289-3.862,4.464,4.464,0,0,1,3.516-1.45,4.341,4.341,0,0,1,3.071,1.1,3.935,3.935,0,0,1,1.245,2.886H29.658a2.173,2.173,0,0,0-.62-1.494,2,2,0,0,0-1.479-.586,2.088,2.088,0,0,0-1.777.835,4.261,4.261,0,0,0-.635,2.534v.381a4.331,4.331,0,0,0,.62,2.563A2.086,2.086,0,0,0,27.559-1.7Zm8.33-8.867.068,1.221a3.8,3.8,0,0,1,3.076-1.416q3.3,0,3.359,3.779V0H40.02V-6.846a2.176,2.176,0,0,0-.435-1.489,1.828,1.828,0,0,0-1.421-.483,2.287,2.287,0,0,0-2.139,1.3V0H33.652V-10.566Zm8.477,5.186a6.231,6.231,0,0,1,.615-2.8,4.493,4.493,0,0,1,1.729-1.914,4.87,4.87,0,0,1,2.559-.669,4.615,4.615,0,0,1,3.472,1.377,5.416,5.416,0,0,1,1.44,3.652l.01.557a6.286,6.286,0,0,1-.6,2.793,4.439,4.439,0,0,1-1.719,1.9A4.906,4.906,0,0,1,49.287.2a4.584,4.584,0,0,1-3.579-1.489,5.7,5.7,0,0,1-1.343-3.97Zm2.373.205a4.258,4.258,0,0,0,.674,2.554,2.191,2.191,0,0,0,1.875.923,2.167,2.167,0,0,0,1.87-.937,4.7,4.7,0,0,0,.669-2.744,4.2,4.2,0,0,0-.688-2.539,2.2,2.2,0,0,0-1.87-.937,2.178,2.178,0,0,0-1.846.923A4.614,4.614,0,0,0,46.738-5.176ZM58.721,0H56.348V-15h2.373Zm2.139-5.381a6.231,6.231,0,0,1,.615-2.8A4.493,4.493,0,0,1,63.2-10.093a4.87,4.87,0,0,1,2.559-.669,4.615,4.615,0,0,1,3.472,1.377,5.416,5.416,0,0,1,1.44,3.652l.01.557a6.286,6.286,0,0,1-.6,2.793,4.439,4.439,0,0,1-1.719,1.9A4.906,4.906,0,0,1,65.781.2,4.584,4.584,0,0,1,62.2-1.294a5.7,5.7,0,0,1-1.343-3.97Zm2.373.205a4.258,4.258,0,0,0,.674,2.554,2.191,2.191,0,0,0,1.875.923,2.167,2.167,0,0,0,1.87-.937,4.7,4.7,0,0,0,.669-2.744,4.2,4.2,0,0,0-.688-2.539,2.2,2.2,0,0,0-1.87-.937,2.178,2.178,0,0,0-1.846.923A4.614,4.614,0,0,0,63.232-5.176Zm9.043-.186a6.18,6.18,0,0,1,1.157-3.931,3.714,3.714,0,0,1,3.071-1.47A3.48,3.48,0,0,1,79.346-9.5l.107-1.064h2.139V-.322A4.258,4.258,0,0,1,80.3,2.959a4.928,4.928,0,0,1-3.491,1.2,5.627,5.627,0,0,1-2.271-.483,4.034,4.034,0,0,1-1.685-1.265L73.975.986a3.392,3.392,0,0,0,2.7,1.3,2.621,2.621,0,0,0,1.865-.64,2.451,2.451,0,0,0,.684-1.88V-.947A3.494,3.494,0,0,1,76.484.2a3.705,3.705,0,0,1-3.032-1.475A6.38,6.38,0,0,1,72.275-5.361Zm2.363.205a4.254,4.254,0,0,0,.649,2.5,2.088,2.088,0,0,0,1.8.913,2.284,2.284,0,0,0,2.129-1.23V-7.617a2.251,2.251,0,0,0-2.109-1.2,2.1,2.1,0,0,0-1.821.928A4.763,4.763,0,0,0,74.639-5.156ZM86.582,0H84.209V-10.566h2.373Zm-.449-14.932h2.705l-2.705,2.959h-1.9ZM95.6,0a3.662,3.662,0,0,1-.273-.986A3.694,3.694,0,0,1,92.549.2a3.728,3.728,0,0,1-2.6-.908,2.906,2.906,0,0,1-1.006-2.246A3,3,0,0,1,90.2-5.552a6.081,6.081,0,0,1,3.589-.9h1.455v-.693a1.851,1.851,0,0,0-.459-1.313,1.819,1.819,0,0,0-1.4-.493,2.09,2.09,0,0,0-1.328.405,1.254,1.254,0,0,0-.518,1.03H89.17a2.634,2.634,0,0,1,.576-1.626,3.839,3.839,0,0,1,1.567-1.187,5.506,5.506,0,0,1,2.212-.43,4.434,4.434,0,0,1,2.959.933,3.326,3.326,0,0,1,1.133,2.622v4.766a5.4,5.4,0,0,0,.4,2.275V0ZM92.988-1.709a2.7,2.7,0,0,0,1.323-.342,2.284,2.284,0,0,0,.933-.918V-4.961H93.965a3.5,3.5,0,0,0-1.982.459,1.487,1.487,0,0,0-.664,1.3,1.387,1.387,0,0,0,.454,1.089A1.758,1.758,0,0,0,92.988-1.709Zm16.7-3.379h-5.127V-7h5.127ZM119.463,0H117V-14.219h2.461Zm5.01-10.566.068,1.221a3.8,3.8,0,0,1,3.076-1.416q3.3,0,3.359,3.779V0H128.6V-6.846a2.176,2.176,0,0,0-.435-1.489,1.828,1.828,0,0,0-1.421-.483,2.287,2.287,0,0,0-2.139,1.3V0h-2.373V-10.566Zm8.506,5.205a6.18,6.18,0,0,1,1.157-3.931,3.714,3.714,0,0,1,3.071-1.47,3.48,3.48,0,0,1,2.842,1.26l.107-1.064h2.139V-.322A4.258,4.258,0,0,1,141,2.959a4.928,4.928,0,0,1-3.491,1.2,5.627,5.627,0,0,1-2.271-.483,4.034,4.034,0,0,1-1.685-1.265L134.678.986a3.392,3.392,0,0,0,2.7,1.3,2.621,2.621,0,0,0,1.865-.64,2.451,2.451,0,0,0,.684-1.88V-.947A3.494,3.494,0,0,1,137.188.2a3.705,3.705,0,0,1-3.032-1.475A6.38,6.38,0,0,1,132.979-5.361Zm2.363.205a4.254,4.254,0,0,0,.649,2.5,2.088,2.088,0,0,0,1.8.913,2.284,2.284,0,0,0,2.129-1.23V-7.617a2.251,2.251,0,0,0-2.109-1.2,2.1,2.1,0,0,0-1.821.928A4.763,4.763,0,0,0,135.342-5.156ZM149.385.2a4.91,4.91,0,0,1-3.657-1.421,5.154,5.154,0,0,1-1.4-3.784V-5.3a6.34,6.34,0,0,1,.61-2.827,4.646,4.646,0,0,1,1.714-1.938,4.531,4.531,0,0,1,2.461-.693,4.147,4.147,0,0,1,3.335,1.377,5.823,5.823,0,0,1,1.177,3.9v.957h-6.9a3.173,3.173,0,0,0,.874,2.07,2.624,2.624,0,0,0,1.929.762,3.213,3.213,0,0,0,2.656-1.318L153.457-1.8a4.272,4.272,0,0,1-1.694,1.47A5.3,5.3,0,0,1,149.385.2ZM149.1-8.857a2,2,0,0,0-1.577.684,3.543,3.543,0,0,0-.767,1.9h4.521v-.176a2.884,2.884,0,0,0-.635-1.8A1.983,1.983,0,0,0,149.1-8.857Zm8.564-1.709.068,1.221a3.8,3.8,0,0,1,3.076-1.416q3.3,0,3.359,3.779V0H161.8V-6.846a2.176,2.176,0,0,0-.435-1.489,1.828,1.828,0,0,0-1.421-.483,2.287,2.287,0,0,0-2.139,1.3V0H155.43V-10.566ZM169.111,0h-2.373V-10.566h2.373Zm-2.52-13.311a1.259,1.259,0,0,1,.347-.908,1.309,1.309,0,0,1,.991-.361,1.326,1.326,0,0,1,1,.361,1.25,1.25,0,0,1,.352.908,1.221,1.221,0,0,1-.352.894,1.336,1.336,0,0,1-1,.356,1.32,1.32,0,0,1-.991-.356A1.23,1.23,0,0,1,166.592-13.311ZM176.348.2a4.91,4.91,0,0,1-3.657-1.421,5.154,5.154,0,0,1-1.4-3.784V-5.3a6.34,6.34,0,0,1,.61-2.827,4.646,4.646,0,0,1,1.714-1.938,4.531,4.531,0,0,1,2.461-.693,4.147,4.147,0,0,1,3.335,1.377,5.823,5.823,0,0,1,1.177,3.9v.957h-6.9a3.173,3.173,0,0,0,.874,2.07,2.624,2.624,0,0,0,1.929.762,3.213,3.213,0,0,0,2.656-1.318L180.42-1.8a4.272,4.272,0,0,1-1.694,1.47A5.3,5.3,0,0,1,176.348.2Zm-.283-9.053a2,2,0,0,0-1.577.684,3.543,3.543,0,0,0-.767,1.9h4.521v-.176a2.884,2.884,0,0,0-.635-1.8A1.983,1.983,0,0,0,176.064-8.857Zm11.895.459a5.872,5.872,0,0,0-.967-.078,2.177,2.177,0,0,0-2.2,1.25V0h-2.373V-10.566h2.266l.059,1.182a2.674,2.674,0,0,1,2.383-1.377,2.222,2.222,0,0,1,.84.137ZM192.012,0h-2.373V-10.566h2.373Zm-.449-14.932h2.705l-2.705,2.959h-1.9ZM201.025,0a3.662,3.662,0,0,1-.273-.986A3.694,3.694,0,0,1,197.979.2a3.728,3.728,0,0,1-2.6-.908,2.906,2.906,0,0,1-1.006-2.246,3,3,0,0,1,1.255-2.593,6.081,6.081,0,0,1,3.589-.9h1.455v-.693a1.851,1.851,0,0,0-.459-1.313,1.819,1.819,0,0,0-1.4-.493,2.09,2.09,0,0,0-1.328.405,1.254,1.254,0,0,0-.518,1.03H194.6a2.634,2.634,0,0,1,.576-1.626,3.838,3.838,0,0,1,1.567-1.187,5.506,5.506,0,0,1,2.212-.43,4.434,4.434,0,0,1,2.959.933,3.326,3.326,0,0,1,1.133,2.622v4.766a5.4,5.4,0,0,0,.4,2.275V0Zm-2.607-1.709a2.7,2.7,0,0,0,1.323-.342,2.284,2.284,0,0,0,.933-.918V-4.961h-1.279a3.5,3.5,0,0,0-1.982.459,1.487,1.487,0,0,0-.664,1.3,1.387,1.387,0,0,0,.454,1.089A1.758,1.758,0,0,0,198.418-1.709Z" transform="translate(700 3308)" fill="#12263f"/>
    <path id="Trazado_100949" data-name="Trazado 100949" d="M4.648-14.219l4.1,10.9,4.092-10.9h3.193V0H13.574V-4.687l.244-6.27L9.619,0H7.852L3.662-10.947l.244,6.26V0H1.445V-14.219ZM25.039,0a3.662,3.662,0,0,1-.273-.986A3.694,3.694,0,0,1,21.992.2a3.728,3.728,0,0,1-2.6-.908,2.906,2.906,0,0,1-1.006-2.246,3,3,0,0,1,1.255-2.593,6.081,6.081,0,0,1,3.589-.9h1.455v-.693a1.851,1.851,0,0,0-.459-1.313,1.819,1.819,0,0,0-1.4-.493A2.09,2.09,0,0,0,21.5-8.55a1.254,1.254,0,0,0-.518,1.03H18.613a2.634,2.634,0,0,1,.576-1.626,3.839,3.839,0,0,1,1.567-1.187,5.506,5.506,0,0,1,2.212-.43,4.434,4.434,0,0,1,2.959.933,3.326,3.326,0,0,1,1.133,2.622v4.766a5.4,5.4,0,0,0,.4,2.275V0ZM22.432-1.709a2.7,2.7,0,0,0,1.323-.342,2.284,2.284,0,0,0,.933-.918V-4.961H23.408a3.5,3.5,0,0,0-1.982.459,1.487,1.487,0,0,0-.664,1.3,1.387,1.387,0,0,0,.454,1.089A1.758,1.758,0,0,0,22.432-1.709ZM32.52-13.135v2.568h1.865v1.758H32.52v5.9a1.3,1.3,0,0,0,.239.874,1.109,1.109,0,0,0,.854.269,3.656,3.656,0,0,0,.83-.1V-.029A5.845,5.845,0,0,1,32.881.2q-2.734,0-2.734-3.018V-8.809H28.408v-1.758h1.738v-2.568ZM40.85.2a4.91,4.91,0,0,1-3.657-1.421,5.154,5.154,0,0,1-1.4-3.784V-5.3A6.34,6.34,0,0,1,36.4-8.13a4.646,4.646,0,0,1,1.714-1.938,4.531,4.531,0,0,1,2.461-.693,4.147,4.147,0,0,1,3.335,1.377,5.823,5.823,0,0,1,1.177,3.9v.957h-6.9a3.173,3.173,0,0,0,.874,2.07,2.624,2.624,0,0,0,1.929.762,3.213,3.213,0,0,0,2.656-1.318L44.922-1.8a4.272,4.272,0,0,1-1.694,1.47A5.3,5.3,0,0,1,40.85.2Zm-.283-9.053a2,2,0,0,0-1.577.684,3.543,3.543,0,0,0-.767,1.9h4.521v-.176a2.884,2.884,0,0,0-.635-1.8A1.983,1.983,0,0,0,40.566-8.857Zm8.594-1.709.068,1.1a3.8,3.8,0,0,1,3.047-1.3,2.921,2.921,0,0,1,2.9,1.621,3.748,3.748,0,0,1,3.242-1.621,3.294,3.294,0,0,1,2.6.967,4.257,4.257,0,0,1,.874,2.852V0H59.521V-6.875a2.1,2.1,0,0,0-.439-1.475,1.924,1.924,0,0,0-1.455-.469,1.976,1.976,0,0,0-1.323.435,2.292,2.292,0,0,0-.718,1.138L55.6,0H53.223V-6.953a1.693,1.693,0,0,0-1.9-1.865A2.089,2.089,0,0,0,49.3-7.656V0H46.924V-10.566ZM70.645,0a3.662,3.662,0,0,1-.273-.986A3.694,3.694,0,0,1,67.6.2,3.728,3.728,0,0,1,65-.713a2.906,2.906,0,0,1-1.006-2.246,3,3,0,0,1,1.255-2.593,6.081,6.081,0,0,1,3.589-.9h1.455v-.693a1.851,1.851,0,0,0-.459-1.313,1.819,1.819,0,0,0-1.4-.493,2.09,2.09,0,0,0-1.328.405,1.254,1.254,0,0,0-.518,1.03H64.219a2.634,2.634,0,0,1,.576-1.626,3.839,3.839,0,0,1,1.567-1.187,5.506,5.506,0,0,1,2.212-.43,4.434,4.434,0,0,1,2.959.933,3.326,3.326,0,0,1,1.133,2.622v4.766a5.4,5.4,0,0,0,.4,2.275V0ZM68.037-1.709a2.7,2.7,0,0,0,1.323-.342,2.284,2.284,0,0,0,.933-.918V-4.961H69.014a3.5,3.5,0,0,0-1.982.459,1.487,1.487,0,0,0-.664,1.3,1.387,1.387,0,0,0,.454,1.089A1.758,1.758,0,0,0,68.037-1.709ZM69.355-15h2.705l-2.705,2.959h-1.9Zm8.77,1.865v2.568H79.99v1.758H78.125v5.9a1.3,1.3,0,0,0,.239.874,1.109,1.109,0,0,0,.854.269,3.656,3.656,0,0,0,.83-.1V-.029A5.845,5.845,0,0,1,78.486.2q-2.734,0-2.734-3.018V-8.809H74.014v-1.758h1.738v-2.568ZM84.326,0H81.953V-10.566h2.373Zm-2.52-13.311a1.259,1.259,0,0,1,.347-.908,1.309,1.309,0,0,1,.991-.361,1.326,1.326,0,0,1,1,.361,1.25,1.25,0,0,1,.352.908,1.221,1.221,0,0,1-.352.894,1.336,1.336,0,0,1-1,.356,1.32,1.32,0,0,1-.991-.356A1.23,1.23,0,0,1,81.807-13.311ZM91.25-1.7a2.146,2.146,0,0,0,1.475-.518A1.768,1.768,0,0,0,93.35-3.5h2.236a3.486,3.486,0,0,1-.615,1.841A4.035,4.035,0,0,1,93.408-.3a4.656,4.656,0,0,1-2.129.5A4.505,4.505,0,0,1,87.764-1.24a5.694,5.694,0,0,1-1.3-3.965v-.244a5.6,5.6,0,0,1,1.289-3.862,4.464,4.464,0,0,1,3.516-1.45,4.341,4.341,0,0,1,3.071,1.1,3.935,3.935,0,0,1,1.245,2.886H93.35a2.173,2.173,0,0,0-.62-1.494,2,2,0,0,0-1.479-.586,2.088,2.088,0,0,0-1.777.835,4.261,4.261,0,0,0-.635,2.534v.381a4.331,4.331,0,0,0,.62,2.563A2.086,2.086,0,0,0,91.25-1.7ZM103.691,0a3.662,3.662,0,0,1-.273-.986A3.694,3.694,0,0,1,100.645.2a3.728,3.728,0,0,1-2.6-.908,2.906,2.906,0,0,1-1.006-2.246A3,3,0,0,1,98.3-5.552a6.081,6.081,0,0,1,3.589-.9h1.455v-.693a1.851,1.851,0,0,0-.459-1.313,1.819,1.819,0,0,0-1.4-.493,2.09,2.09,0,0,0-1.328.405,1.254,1.254,0,0,0-.518,1.03H97.266a2.634,2.634,0,0,1,.576-1.626,3.839,3.839,0,0,1,1.567-1.187,5.506,5.506,0,0,1,2.212-.43,4.434,4.434,0,0,1,2.959.933,3.326,3.326,0,0,1,1.133,2.622v4.766a5.4,5.4,0,0,0,.4,2.275V0Zm-2.607-1.709a2.7,2.7,0,0,0,1.323-.342,2.284,2.284,0,0,0,.933-.918V-4.961h-1.279a3.5,3.5,0,0,0-1.982.459,1.487,1.487,0,0,0-.664,1.3,1.387,1.387,0,0,0,.454,1.089A1.758,1.758,0,0,0,101.084-1.709Zm13.037-1.162a1.076,1.076,0,0,0-.522-.967,5.557,5.557,0,0,0-1.733-.586,8.911,8.911,0,0,1-2.021-.645,2.7,2.7,0,0,1-1.777-2.49,2.813,2.813,0,0,1,1.152-2.285,4.556,4.556,0,0,1,2.93-.918,4.74,4.74,0,0,1,3.062.938,2.975,2.975,0,0,1,1.167,2.432H114A1.462,1.462,0,0,0,113.5-8.53a1.946,1.946,0,0,0-1.348-.454,2.1,2.1,0,0,0-1.274.361,1.139,1.139,0,0,0-.493.967.962.962,0,0,0,.459.85,6.312,6.312,0,0,0,1.855.61,8.783,8.783,0,0,1,2.192.732,3.1,3.1,0,0,1,1.182,1.021A2.6,2.6,0,0,1,116.455-3a2.753,2.753,0,0,1-1.182,2.31,5.039,5.039,0,0,1-3.1.884,5.464,5.464,0,0,1-2.314-.469,3.809,3.809,0,0,1-1.582-1.289,3.051,3.051,0,0,1-.566-1.768h2.3a1.672,1.672,0,0,0,.635,1.294,2.467,2.467,0,0,0,1.553.454,2.4,2.4,0,0,0,1.426-.356A1.1,1.1,0,0,0,114.121-2.871Z" transform="translate(1001 3308)" fill="#12263f"/>
  </g>
</svg>
