<svg xmlns="http://www.w3.org/2000/svg" width="255" height="255" viewBox="0 0 255 255">
  <g id="Grupo_55156" data-name="Grupo 55156" transform="translate(10057 9676)">
    <rect id="Rectángulo_5139" data-name="Rectángulo 5139" width="255" height="255" rx="21" transform="translate(-10057 -9676)" fill="#efefef"/>
    <g id="energia-eolica" transform="translate(-10018.359 -9638.001)">
      <path id="Trazado_100545" data-name="Trazado 100545" d="M220.438,216.013l5.28,8.163-8.1-.975a69.247,69.247,0,0,1-33.194-13.3l-11.692-8.657-1.707-1.266A15.028,15.028,0,0,0,181.4,185.684a15.376,15.376,0,0,0-.082-1.587L197.7,194.1A69.25,69.25,0,0,1,220.438,216.013Zm0,0" transform="translate(-104.321 -112.532)" fill="#9ddfd3"/>
      <path id="Trazado_100546" data-name="Trazado 100546" d="M142.227,226.208,152.7,312.99H121.121l8.5-86.249,0-.008,2.2-1.617a15.147,15.147,0,0,0,8.709-.175Zm0,0" transform="translate(-73.818 -137.499)" fill="#ffc93c"/>
      <path id="Trazado_100547" data-name="Trazado 100547" d="M144.849,152.83a15.013,15.013,0,0,1,5.547,10.137,15.384,15.384,0,0,1,.082,1.587,15.022,15.022,0,0,1-30.045,0c0-.276.008-.553.023-.828a15.022,15.022,0,0,1,24.393-10.9Zm-4.094,11.724a5.3,5.3,0,1,0-5.3,5.3A5.3,5.3,0,0,0,140.756,164.554Zm0,0" transform="translate(-73.397 -91.402)" fill="#00acea"/>
      <path id="Trazado_100548" data-name="Trazado 100548" d="M145.847,15.363a69.226,69.226,0,0,1,7.305,34.915l-.872,16.04a15.02,15.02,0,0,0-18.539-.194l-.053-.07-1-17.909a69.3,69.3,0,0,1,5.6-31.273L142.134,8Zm0,0" transform="translate(-80.829 -4.89)" fill="#9ddfd3"/>
      <path id="Trazado_100549" data-name="Trazado 100549" d="M150.744,174.539a5.3,5.3,0,1,1-5.3,5.3A5.3,5.3,0,0,1,150.744,174.539Zm0,0" transform="translate(-88.684 -106.689)" fill="#00efd1"/>
      <path id="Trazado_100550" data-name="Trazado 100550" d="M62.886,201.344l-2.2,1.617-11.032,8.132a69.247,69.247,0,0,1-33.194,13.3l-8.1.975,5.278-8.163A69.235,69.235,0,0,1,36.387,195.3l15.542-9.248h.023c-.015.275-.023.551-.023.828A15.029,15.029,0,0,0,62.886,201.344Zm0,0" transform="translate(-4.893 -113.726)" fill="#9ddfd3"/>
      <g id="Grupo_55137" data-name="Grupo 55137" transform="translate(0.359 0.001)">
        <path id="Trazado_100551" data-name="Trazado 100551" d="M118.729,101.793A72.709,72.709,0,0,0,95,78.918L79.852,69.666a17.944,17.944,0,0,0-5.213-9.57l.788-14.538A72.45,72.45,0,0,0,67.8,9.073L64.081,1.71a3.11,3.11,0,0,0-5.631.164l-3.84,8.871a72.773,72.773,0,0,0-5.852,32.683l.916,16.485a18.1,18.1,0,0,0-5.541,10.519L29.9,78.9A72.722,72.722,0,0,0,6.137,101.793l-5.28,8.163a3.11,3.11,0,0,0,2.984,4.776l8.1-.975A72.431,72.431,0,0,0,46.61,99.87l5.412-3.989-7.813,79.3a3.231,3.231,0,0,0,.79,2.449,3.169,3.169,0,0,0,2.305,1.074H78.878a3.2,3.2,0,0,0,3.087-3.564l-9.6-79.628,5.878,4.346a72.444,72.444,0,0,0,34.685,13.9l8.1.975a3.111,3.111,0,0,0,2.984-4.779ZM65.743,84.483a11.913,11.913,0,0,1-15.6-11.331c0-.217.006-.436.018-.661a11.913,11.913,0,0,1,23.74-.6,12.117,12.117,0,0,1,.065,1.263A11.879,11.879,0,0,1,65.743,84.483ZM60.319,13.217l1.2-2.774.72,1.429A66.221,66.221,0,0,1,69.218,45.22l-.6,11.032A18.143,18.143,0,0,0,55.7,56.163l-.727-13.077A66.562,66.562,0,0,1,60.319,13.217ZM42.9,94.876a66.209,66.209,0,0,1-31.7,12.705l-1.517.184,1.678-2.6A66.481,66.481,0,0,1,33.084,84.246l11.37-6.763a18.266,18.266,0,0,0,7.5,10.724Zm7.831,77.613,8.021-81.463a20.024,20.024,0,0,0,6.789-.012l9.825,81.475Zm62.933-64.908A66.216,66.216,0,0,1,81.953,94.867L72.58,87.929A18.061,18.061,0,0,0,79.8,76.92l11.989,7.327a66.5,66.5,0,0,1,21.721,20.925l1.678,2.6Zm0,0" transform="translate(-0.359 -0.001)" fill="#21214b"/>
        <path id="Trazado_100552" data-name="Trazado 100552" d="M145.854,166.539a8.41,8.41,0,1,0,8.408,8.412A8.411,8.411,0,0,0,145.854,166.539Zm0,10.6a2.19,2.19,0,1,1,2.188-2.188A2.191,2.191,0,0,1,145.854,177.14Zm0,0" transform="translate(-84.153 -101.8)" fill="#21214b"/>
        <path id="Trazado_100553" data-name="Trazado 100553" d="M329.6,58.191a11.3,11.3,0,0,0-11.3,11.292,3.11,3.11,0,1,0,6.22,0,5.079,5.079,0,0,1,5.076-5.072,5.157,5.157,0,0,1,0,10.312H269.532a3.11,3.11,0,0,0,0,6.22h60.709a3.2,3.2,0,0,0,.7-.164A11.336,11.336,0,0,0,329.6,58.191Zm0,0" transform="translate(-162.994 -35.571)" fill="#21214b"/>
        <path id="Trazado_100554" data-name="Trazado 100554" d="M269.532,136.939h67.151a3.11,3.11,0,0,0,0-6.22H269.532a3.11,3.11,0,0,0,0,6.22Zm0,0" transform="translate(-162.994 -79.904)" fill="#21214b"/>
        <path id="Trazado_100555" data-name="Trazado 100555" d="M330.944,159.845a3.164,3.164,0,0,0-.7-.126H269.532a3.11,3.11,0,0,0,0,6.22H329.6a5.108,5.108,0,1,1-5.076,5.148,3.11,3.11,0,1,0-6.22.009,11.3,11.3,0,1,0,12.641-11.251Zm0,0" transform="translate(-162.994 -97.631)" fill="#21214b"/>
      </g>
    </g>
  </g>
</svg>
