<svg xmlns="http://www.w3.org/2000/svg" width="255" height="255" viewBox="0 0 255 255">
  <g id="Grupo_55157" data-name="Grupo 55157" transform="translate(10057 9399)">
    <rect id="Rectángulo_5140" data-name="Rectángulo 5140" width="255" height="255" rx="21" transform="translate(-10057 -9399)" fill="#efefef"/>
    <g id="cohete" transform="translate(-10069 -9360)">
      <rect id="Rectángulo_5141" data-name="Rectángulo 5141" width="23.277" height="19.696" transform="translate(128.345 157.166)" fill="#afb8c9"/>
      <path id="Trazado_100556" data-name="Trazado 100556" d="M200,408l5.705,11.41h22.821L234.231,408Z" transform="translate(-77.211 -262.517)" fill="#ececec"/>
      <path id="Trazado_100557" data-name="Trazado 100557" d="M99.41,361.673H88V344.558L99.41,336h91.283l11.41,8.558v17.116H99.41Z" transform="translate(-5.147 -216.19)" fill="#8c95a4"/>
      <path id="Trazado_100558" data-name="Trazado 100558" d="M120,296v39.936h91.283V296Z" transform="translate(-25.737 -190.453)" fill="#ececec"/>
      <g id="Grupo_55138" data-name="Grupo 55138" transform="translate(111.335 108.82)">
        <rect id="Rectángulo_5142" data-name="Rectángulo 5142" width="11.639" height="36.707" transform="translate(62.67 0)" fill="#b6c1ce"/>
        <rect id="Rectángulo_5143" data-name="Rectángulo 5143" width="11.639" height="36.707" transform="translate(0 0)" fill="#b6c1ce"/>
      </g>
      <path id="Trazado_100559" data-name="Trazado 100559" d="M222.821,8H211.41L200,33.673V150.63h34.231V33.673Z" transform="translate(-77.211 -5.147)" fill="#ececec"/>
      <rect id="Rectángulo_5144" data-name="Rectángulo 5144" width="8.953" height="117.282" transform="translate(148.041 28.245)" fill="#b6c1ce"/>
      <rect id="Rectángulo_5145" data-name="Rectángulo 5145" width="34.021" height="22.382" transform="translate(122.974 80.171)" fill="#afb8c9"/>
      <rect id="Rectángulo_5146" data-name="Rectángulo 5146" width="8.953" height="22.382" transform="translate(148.041 80.171)" fill="#8c95a4"/>
      <rect id="Rectángulo_5147" data-name="Rectángulo 5147" width="45.659" height="11.639" transform="translate(116.707 56.894)" fill="#fb5968"/>
      <ellipse id="Elipse_1269" data-name="Elipse 1269" cx="5.372" cy="5.819" rx="5.372" ry="5.819" transform="translate(134.612 116.878)" fill="#fcd770"/>
      <g id="Grupo_55139" data-name="Grupo 55139" transform="translate(97.011 145.527)">
        <rect id="Rectángulo_5148" data-name="Rectángulo 5148" width="17.01" height="11.639" transform="translate(68.937 0)" fill="#afb8c9"/>
        <rect id="Rectángulo_5149" data-name="Rectángulo 5149" width="17.01" height="11.639" transform="translate(0 0)" fill="#afb8c9"/>
      </g>
      <g id="Grupo_55140" data-name="Grupo 55140" transform="translate(91.41 79.873)">
        <path id="Trazado_100560" data-name="Trazado 100560" d="M313.116,224H307.41L296,246.821v5.705h31.379Z" transform="translate(-230.39 -224)" fill="#fcd770"/>
        <path id="Trazado_100561" data-name="Trazado 100561" d="M126.263,224,112,252.526h31.379v-5.705L131.968,224Z" transform="translate(-112 -224)" fill="#fcd770"/>
      </g>
      <rect id="Rectángulo_5150" data-name="Rectángulo 5150" width="17.01" height="5.372" transform="translate(131.031 39.884)"/>
      <path id="Trazado_100562" data-name="Trazado 100562" d="M188.4,118.383v-7.132h4.616L175.9,77.02h-9.231l-6.795,13.59v-19.3h5.705V54.2h-5.705V27.921L147.461,0H132.345L119.937,27.921V54.2h-5.705V71.315h5.705v19.3l-6.795-13.59h-9.231L86.795,111.252H91.41v7.132L80,126.941v21.395H94.263v5.705H91.41v5.705h28.526v-5.705h-2.853v-5.705h3.942l4.616,9.231v13.59h-5.705v5.705h17.116v-5.705h-5.705v-11.41h17.116v11.41h-5.705v5.705h17.116v-5.705h-5.705v-13.59l4.616-9.231h3.942v5.705h-2.853v5.705H188.4v-5.705h-2.853v-5.705H199.81V126.941Zm-5.705,24.247H159.873V111.252h22.821Zm-57.052-54.2V82.726h28.526v5.705h-5.705v5.705h5.705v5.705H125.642V94.136h17.116V88.431ZM139.9,125.515a2.853,2.853,0,1,1,2.853-2.853A2.854,2.854,0,0,1,139.9,125.515Zm-2.853-10.886a8.508,8.508,0,0,0,0,16.066V142.63h-11.41V105.547h11.41ZM152.4,148.336l-2.853,5.705h-19.3l-2.853-5.705Zm-9.648-5.705V130.7a8.508,8.508,0,0,0,0-16.066v-9.083h11.41V142.63Zm27.436-59.9h2.179l11.41,22.821H159.873v-2.179ZM137.052,59.9V65.61h-5.705V59.9Zm5.705,0h5.705V65.61h-5.705Zm17.116,5.705h-5.705V59.9h5.705ZM125.642,31.379h5.705V25.673h-4.168l8.874-19.968h7.7l8.874,19.968H137.052v5.705h17.116V54.2H125.642ZM119.937,59.9h5.705V65.61h-5.705Zm34.231,11.41V77.02H125.642V71.315Zm-46.731,11.41h2.179l10.321,20.641v2.179H96.026Zm12.5,28.526V142.63H97.116V111.252ZM85.705,142.63V129.794l5.705-4.279V142.63Zm25.673,11.41H99.968v-5.705h11.41Zm68.463,0h-11.41v-5.705h11.41ZM194.1,142.63H188.4V125.515l5.705,4.279Z" transform="translate(0)"/>
      <rect id="Rectángulo_5151" data-name="Rectángulo 5151" width="5.372" height="6.267" transform="translate(105.963 119.564)"/>
      <rect id="Rectángulo_5152" data-name="Rectángulo 5152" width="5.372" height="6.267" transform="translate(168.633 119.564)"/>
    </g>
  </g>
</svg>
