<svg xmlns="http://www.w3.org/2000/svg" width="626" height="680.213" viewBox="0 0 626 680.213">
  <g id="Grupo_55350" data-name="Grupo 55350" transform="translate(-454 -4396.982)">
    <path id="Trazado_100967" data-name="Trazado 100967" d="M77,0A77,77,0,1,1,0,77,77,77,0,0,1,77,0Z" transform="translate(454 4423)" fill="#ffc93c"/>
    <path id="Trazado_100971" data-name="Trazado 100971" d="M77,0A77,77,0,1,1,0,77,77,77,0,0,1,77,0Z" transform="translate(454 4658)" fill="#9ddfd3"/>
    <path id="Trazado_100975" data-name="Trazado 100975" d="M77,0A77,77,0,1,1,0,77,77,77,0,0,1,77,0Z" transform="translate(454 4895)" fill="#81c140"/>
    <path id="Trazado_100968" data-name="Trazado 100968" d="M12.295-4.629a5.134,5.134,0,0,1-1.68,3.55A5.726,5.726,0,0,1,6.719.2,5.545,5.545,0,0,1,3.726-.61a5.288,5.288,0,0,1-2-2.29A8.264,8.264,0,0,1,1-6.348V-7.676a8.324,8.324,0,0,1,.713-3.545,5.373,5.373,0,0,1,2.046-2.363,5.707,5.707,0,0,1,3.081-.83,5.483,5.483,0,0,1,3.789,1.279,5.344,5.344,0,0,1,1.67,3.613H9.834a3.512,3.512,0,0,0-.894-2.212,2.953,2.953,0,0,0-2.1-.679A2.886,2.886,0,0,0,4.36-11.235a5.877,5.877,0,0,0-.884,3.452v1.26A6.235,6.235,0,0,0,4.3-3.008,2.739,2.739,0,0,0,6.719-1.8a3.194,3.194,0,0,0,2.188-.654,3.412,3.412,0,0,0,.928-2.178ZM16.8,0H14.424V-10.566H16.8Zm-2.52-13.311a1.259,1.259,0,0,1,.347-.908,1.309,1.309,0,0,1,.991-.361,1.326,1.326,0,0,1,1,.361,1.25,1.25,0,0,1,.352.908,1.221,1.221,0,0,1-.352.894,1.336,1.336,0,0,1-1,.356,1.32,1.32,0,0,1-.991-.356A1.23,1.23,0,0,1,14.277-13.311ZM24.033.2a4.91,4.91,0,0,1-3.657-1.421,5.154,5.154,0,0,1-1.4-3.784V-5.3a6.34,6.34,0,0,1,.61-2.827A4.645,4.645,0,0,1,21.3-10.068a4.531,4.531,0,0,1,2.461-.693,4.147,4.147,0,0,1,3.335,1.377,5.823,5.823,0,0,1,1.177,3.9v.957h-6.9a3.173,3.173,0,0,0,.874,2.07A2.624,2.624,0,0,0,24.17-1.7a3.213,3.213,0,0,0,2.656-1.318L28.105-1.8a4.272,4.272,0,0,1-1.694,1.47A5.3,5.3,0,0,1,24.033.2ZM23.75-8.857a2,2,0,0,0-1.577.684,3.543,3.543,0,0,0-.767,1.9h4.521v-.176a2.884,2.884,0,0,0-.635-1.8A1.983,1.983,0,0,0,23.75-8.857Zm8.564-1.709.068,1.221a3.8,3.8,0,0,1,3.076-1.416q3.3,0,3.359,3.779V0H36.445V-6.846a2.176,2.176,0,0,0-.435-1.489,1.828,1.828,0,0,0-1.421-.483,2.287,2.287,0,0,0-2.139,1.3V0H30.078V-10.566ZM45.576-1.7a2.146,2.146,0,0,0,1.475-.518A1.768,1.768,0,0,0,47.676-3.5h2.236A3.486,3.486,0,0,1,49.3-1.655,4.035,4.035,0,0,1,47.734-.3a4.656,4.656,0,0,1-2.129.5A4.505,4.505,0,0,1,42.09-1.24a5.694,5.694,0,0,1-1.3-3.965v-.244A5.6,5.6,0,0,1,42.08-9.312a4.464,4.464,0,0,1,3.516-1.45,4.341,4.341,0,0,1,3.071,1.1,3.935,3.935,0,0,1,1.245,2.886H47.676a2.173,2.173,0,0,0-.62-1.494,2,2,0,0,0-1.479-.586,2.088,2.088,0,0,0-1.777.835,4.261,4.261,0,0,0-.635,2.534v.381a4.331,4.331,0,0,0,.62,2.563A2.086,2.086,0,0,0,45.576-1.7ZM54.229,0H51.855V-10.566h2.373Zm-2.52-13.311a1.259,1.259,0,0,1,.347-.908,1.309,1.309,0,0,1,.991-.361,1.326,1.326,0,0,1,1,.361,1.25,1.25,0,0,1,.352.908,1.221,1.221,0,0,1-.352.894,1.336,1.336,0,0,1-1,.356,1.32,1.32,0,0,1-.991-.356A1.23,1.23,0,0,1,51.709-13.311ZM63.125,0a3.662,3.662,0,0,1-.273-.986A3.694,3.694,0,0,1,60.078.2a3.728,3.728,0,0,1-2.6-.908,2.906,2.906,0,0,1-1.006-2.246,3,3,0,0,1,1.255-2.593,6.081,6.081,0,0,1,3.589-.9h1.455v-.693a1.851,1.851,0,0,0-.459-1.313,1.819,1.819,0,0,0-1.4-.493,2.09,2.09,0,0,0-1.328.405,1.254,1.254,0,0,0-.518,1.03H56.7a2.634,2.634,0,0,1,.576-1.626,3.838,3.838,0,0,1,1.567-1.187,5.506,5.506,0,0,1,2.212-.43,4.434,4.434,0,0,1,2.959.933,3.326,3.326,0,0,1,1.133,2.622v4.766a5.4,5.4,0,0,0,.4,2.275V0ZM60.518-1.709a2.7,2.7,0,0,0,1.323-.342,2.284,2.284,0,0,0,.933-.918V-4.961H61.494a3.5,3.5,0,0,0-1.982.459,1.487,1.487,0,0,0-.664,1.3A1.387,1.387,0,0,0,59.3-2.114,1.758,1.758,0,0,0,60.518-1.709ZM73.555-2.871a1.076,1.076,0,0,0-.522-.967A5.557,5.557,0,0,0,71.3-4.424a8.911,8.911,0,0,1-2.021-.645A2.7,2.7,0,0,1,67.5-7.559a2.813,2.813,0,0,1,1.152-2.285,4.556,4.556,0,0,1,2.93-.918,4.74,4.74,0,0,1,3.062.938,2.975,2.975,0,0,1,1.167,2.432H73.438A1.462,1.462,0,0,0,72.93-8.53a1.946,1.946,0,0,0-1.348-.454,2.1,2.1,0,0,0-1.274.361,1.139,1.139,0,0,0-.493.967.962.962,0,0,0,.459.85,6.312,6.312,0,0,0,1.855.61,8.783,8.783,0,0,1,2.192.732A3.1,3.1,0,0,1,75.5-4.443,2.6,2.6,0,0,1,75.889-3a2.753,2.753,0,0,1-1.182,2.31,5.039,5.039,0,0,1-3.1.884A5.464,5.464,0,0,1,69.3-.273a3.809,3.809,0,0,1-1.582-1.289,3.051,3.051,0,0,1-.566-1.768h2.3a1.672,1.672,0,0,0,.635,1.294,2.467,2.467,0,0,0,1.553.454,2.4,2.4,0,0,0,1.426-.356A1.1,1.1,0,0,0,73.555-2.871Z" transform="translate(493 4604)" fill="#12263f"/>
    <path id="Trazado_100972" data-name="Trazado 100972" d="M11.719-12.227H7.285V0H4.834V-12.227H.439v-1.992H11.719ZM17.139.2a4.91,4.91,0,0,1-3.657-1.421,5.154,5.154,0,0,1-1.4-3.784V-5.3a6.34,6.34,0,0,1,.61-2.827A4.645,4.645,0,0,1,14.4-10.068a4.531,4.531,0,0,1,2.461-.693A4.147,4.147,0,0,1,20.2-9.385a5.823,5.823,0,0,1,1.177,3.9v.957h-6.9a3.173,3.173,0,0,0,.874,2.07,2.624,2.624,0,0,0,1.929.762,3.213,3.213,0,0,0,2.656-1.318L21.211-1.8a4.272,4.272,0,0,1-1.694,1.47A5.3,5.3,0,0,1,17.139.2Zm-.283-9.053a2,2,0,0,0-1.577.684,3.543,3.543,0,0,0-.767,1.9h4.521v-.176a2.884,2.884,0,0,0-.635-1.8A1.983,1.983,0,0,0,16.855-8.857ZM27.559-1.7a2.146,2.146,0,0,0,1.475-.518A1.768,1.768,0,0,0,29.658-3.5h2.236a3.486,3.486,0,0,1-.615,1.841A4.035,4.035,0,0,1,29.717-.3a4.656,4.656,0,0,1-2.129.5A4.505,4.505,0,0,1,24.072-1.24a5.694,5.694,0,0,1-1.3-3.965v-.244a5.6,5.6,0,0,1,1.289-3.862,4.464,4.464,0,0,1,3.516-1.45,4.341,4.341,0,0,1,3.071,1.1,3.935,3.935,0,0,1,1.245,2.886H29.658a2.173,2.173,0,0,0-.62-1.494,2,2,0,0,0-1.479-.586,2.088,2.088,0,0,0-1.777.835,4.261,4.261,0,0,0-.635,2.534v.381a4.331,4.331,0,0,0,.62,2.563A2.086,2.086,0,0,0,27.559-1.7Zm8.33-8.867.068,1.221a3.8,3.8,0,0,1,3.076-1.416q3.3,0,3.359,3.779V0H40.02V-6.846a2.176,2.176,0,0,0-.435-1.489,1.828,1.828,0,0,0-1.421-.483,2.287,2.287,0,0,0-2.139,1.3V0H33.652V-10.566Zm8.477,5.186a6.231,6.231,0,0,1,.615-2.8,4.493,4.493,0,0,1,1.729-1.914,4.87,4.87,0,0,1,2.559-.669,4.615,4.615,0,0,1,3.472,1.377,5.416,5.416,0,0,1,1.44,3.652l.01.557a6.286,6.286,0,0,1-.6,2.793,4.439,4.439,0,0,1-1.719,1.9A4.906,4.906,0,0,1,49.287.2a4.584,4.584,0,0,1-3.579-1.489,5.7,5.7,0,0,1-1.343-3.97Zm2.373.205a4.258,4.258,0,0,0,.674,2.554,2.191,2.191,0,0,0,1.875.923,2.167,2.167,0,0,0,1.87-.937,4.7,4.7,0,0,0,.669-2.744,4.2,4.2,0,0,0-.688-2.539,2.2,2.2,0,0,0-1.87-.937,2.178,2.178,0,0,0-1.846.923A4.614,4.614,0,0,0,46.738-5.176ZM58.721,0H56.348V-15h2.373Zm2.139-5.381a6.231,6.231,0,0,1,.615-2.8A4.493,4.493,0,0,1,63.2-10.093a4.87,4.87,0,0,1,2.559-.669,4.615,4.615,0,0,1,3.472,1.377,5.416,5.416,0,0,1,1.44,3.652l.01.557a6.286,6.286,0,0,1-.6,2.793,4.439,4.439,0,0,1-1.719,1.9A4.906,4.906,0,0,1,65.781.2,4.584,4.584,0,0,1,62.2-1.294a5.7,5.7,0,0,1-1.343-3.97Zm2.373.205a4.258,4.258,0,0,0,.674,2.554,2.191,2.191,0,0,0,1.875.923,2.167,2.167,0,0,0,1.87-.937,4.7,4.7,0,0,0,.669-2.744,4.2,4.2,0,0,0-.688-2.539,2.2,2.2,0,0,0-1.87-.937,2.178,2.178,0,0,0-1.846.923A4.614,4.614,0,0,0,63.232-5.176Zm9.043-.186a6.18,6.18,0,0,1,1.157-3.931,3.714,3.714,0,0,1,3.071-1.47A3.48,3.48,0,0,1,79.346-9.5l.107-1.064h2.139V-.322A4.258,4.258,0,0,1,80.3,2.959a4.928,4.928,0,0,1-3.491,1.2,5.627,5.627,0,0,1-2.271-.483,4.034,4.034,0,0,1-1.685-1.265L73.975.986a3.392,3.392,0,0,0,2.7,1.3,2.621,2.621,0,0,0,1.865-.64,2.451,2.451,0,0,0,.684-1.88V-.947A3.494,3.494,0,0,1,76.484.2a3.705,3.705,0,0,1-3.032-1.475A6.38,6.38,0,0,1,72.275-5.361Zm2.363.205a4.254,4.254,0,0,0,.649,2.5,2.088,2.088,0,0,0,1.8.913,2.284,2.284,0,0,0,2.129-1.23V-7.617a2.251,2.251,0,0,0-2.109-1.2,2.1,2.1,0,0,0-1.821.928A4.763,4.763,0,0,0,74.639-5.156ZM86.582,0H84.209V-10.566h2.373Zm-.449-14.932h2.705l-2.705,2.959h-1.9ZM95.6,0a3.662,3.662,0,0,1-.273-.986A3.694,3.694,0,0,1,92.549.2a3.728,3.728,0,0,1-2.6-.908,2.906,2.906,0,0,1-1.006-2.246A3,3,0,0,1,90.2-5.552a6.081,6.081,0,0,1,3.589-.9h1.455v-.693a1.851,1.851,0,0,0-.459-1.313,1.819,1.819,0,0,0-1.4-.493,2.09,2.09,0,0,0-1.328.405,1.254,1.254,0,0,0-.518,1.03H89.17a2.634,2.634,0,0,1,.576-1.626,3.839,3.839,0,0,1,1.567-1.187,5.506,5.506,0,0,1,2.212-.43,4.434,4.434,0,0,1,2.959.933,3.326,3.326,0,0,1,1.133,2.622v4.766a5.4,5.4,0,0,0,.4,2.275V0ZM92.988-1.709a2.7,2.7,0,0,0,1.323-.342,2.284,2.284,0,0,0,.933-.918V-4.961H93.965a3.5,3.5,0,0,0-1.982.459,1.487,1.487,0,0,0-.664,1.3,1.387,1.387,0,0,0,.454,1.089A1.758,1.758,0,0,0,92.988-1.709Z" transform="translate(482 4837)" fill="#12263f"/>
    <path id="Trazado_100979" data-name="Trazado 100979" d="M4.648-14.219l4.1,10.9,4.092-10.9h3.193V0H13.574V-4.687l.244-6.27L9.619,0H7.852L3.662-10.947l.244,6.26V0H1.445V-14.219ZM25.039,0a3.662,3.662,0,0,1-.273-.986A3.694,3.694,0,0,1,21.992.2a3.728,3.728,0,0,1-2.6-.908,2.906,2.906,0,0,1-1.006-2.246,3,3,0,0,1,1.255-2.593,6.081,6.081,0,0,1,3.589-.9h1.455v-.693a1.851,1.851,0,0,0-.459-1.313,1.819,1.819,0,0,0-1.4-.493A2.09,2.09,0,0,0,21.5-8.55a1.254,1.254,0,0,0-.518,1.03H18.613a2.634,2.634,0,0,1,.576-1.626,3.839,3.839,0,0,1,1.567-1.187,5.506,5.506,0,0,1,2.212-.43,4.434,4.434,0,0,1,2.959.933,3.326,3.326,0,0,1,1.133,2.622v4.766a5.4,5.4,0,0,0,.4,2.275V0ZM22.432-1.709a2.7,2.7,0,0,0,1.323-.342,2.284,2.284,0,0,0,.933-.918V-4.961H23.408a3.5,3.5,0,0,0-1.982.459,1.487,1.487,0,0,0-.664,1.3,1.387,1.387,0,0,0,.454,1.089A1.758,1.758,0,0,0,22.432-1.709ZM32.52-13.135v2.568h1.865v1.758H32.52v5.9a1.3,1.3,0,0,0,.239.874,1.109,1.109,0,0,0,.854.269,3.656,3.656,0,0,0,.83-.1V-.029A5.845,5.845,0,0,1,32.881.2q-2.734,0-2.734-3.018V-8.809H28.408v-1.758h1.738v-2.568ZM40.85.2a4.91,4.91,0,0,1-3.657-1.421,5.154,5.154,0,0,1-1.4-3.784V-5.3A6.34,6.34,0,0,1,36.4-8.13a4.646,4.646,0,0,1,1.714-1.938,4.531,4.531,0,0,1,2.461-.693,4.147,4.147,0,0,1,3.335,1.377,5.823,5.823,0,0,1,1.177,3.9v.957h-6.9a3.173,3.173,0,0,0,.874,2.07,2.624,2.624,0,0,0,1.929.762,3.213,3.213,0,0,0,2.656-1.318L44.922-1.8a4.272,4.272,0,0,1-1.694,1.47A5.3,5.3,0,0,1,40.85.2Zm-.283-9.053a2,2,0,0,0-1.577.684,3.543,3.543,0,0,0-.767,1.9h4.521v-.176a2.884,2.884,0,0,0-.635-1.8A1.983,1.983,0,0,0,40.566-8.857Zm8.594-1.709.068,1.1a3.8,3.8,0,0,1,3.047-1.3,2.921,2.921,0,0,1,2.9,1.621,3.748,3.748,0,0,1,3.242-1.621,3.294,3.294,0,0,1,2.6.967,4.257,4.257,0,0,1,.874,2.852V0H59.521V-6.875a2.1,2.1,0,0,0-.439-1.475,1.924,1.924,0,0,0-1.455-.469,1.976,1.976,0,0,0-1.323.435,2.292,2.292,0,0,0-.718,1.138L55.6,0H53.223V-6.953a1.693,1.693,0,0,0-1.9-1.865A2.089,2.089,0,0,0,49.3-7.656V0H46.924V-10.566ZM70.645,0a3.662,3.662,0,0,1-.273-.986A3.694,3.694,0,0,1,67.6.2,3.728,3.728,0,0,1,65-.713a2.906,2.906,0,0,1-1.006-2.246,3,3,0,0,1,1.255-2.593,6.081,6.081,0,0,1,3.589-.9h1.455v-.693a1.851,1.851,0,0,0-.459-1.313,1.819,1.819,0,0,0-1.4-.493,2.09,2.09,0,0,0-1.328.405,1.254,1.254,0,0,0-.518,1.03H64.219a2.634,2.634,0,0,1,.576-1.626,3.839,3.839,0,0,1,1.567-1.187,5.506,5.506,0,0,1,2.212-.43,4.434,4.434,0,0,1,2.959.933,3.326,3.326,0,0,1,1.133,2.622v4.766a5.4,5.4,0,0,0,.4,2.275V0ZM68.037-1.709a2.7,2.7,0,0,0,1.323-.342,2.284,2.284,0,0,0,.933-.918V-4.961H69.014a3.5,3.5,0,0,0-1.982.459,1.487,1.487,0,0,0-.664,1.3,1.387,1.387,0,0,0,.454,1.089A1.758,1.758,0,0,0,68.037-1.709ZM69.355-15h2.705l-2.705,2.959h-1.9Zm8.77,1.865v2.568H79.99v1.758H78.125v5.9a1.3,1.3,0,0,0,.239.874,1.109,1.109,0,0,0,.854.269,3.656,3.656,0,0,0,.83-.1V-.029A5.845,5.845,0,0,1,78.486.2q-2.734,0-2.734-3.018V-8.809H74.014v-1.758h1.738v-2.568ZM84.326,0H81.953V-10.566h2.373Zm-2.52-13.311a1.259,1.259,0,0,1,.347-.908,1.309,1.309,0,0,1,.991-.361,1.326,1.326,0,0,1,1,.361,1.25,1.25,0,0,1,.352.908,1.221,1.221,0,0,1-.352.894,1.336,1.336,0,0,1-1,.356,1.32,1.32,0,0,1-.991-.356A1.23,1.23,0,0,1,81.807-13.311ZM91.25-1.7a2.146,2.146,0,0,0,1.475-.518A1.768,1.768,0,0,0,93.35-3.5h2.236a3.486,3.486,0,0,1-.615,1.841A4.035,4.035,0,0,1,93.408-.3a4.656,4.656,0,0,1-2.129.5A4.505,4.505,0,0,1,87.764-1.24a5.694,5.694,0,0,1-1.3-3.965v-.244a5.6,5.6,0,0,1,1.289-3.862,4.464,4.464,0,0,1,3.516-1.45,4.341,4.341,0,0,1,3.071,1.1,3.935,3.935,0,0,1,1.245,2.886H93.35a2.173,2.173,0,0,0-.62-1.494,2,2,0,0,0-1.479-.586,2.088,2.088,0,0,0-1.777.835,4.261,4.261,0,0,0-.635,2.534v.381a4.331,4.331,0,0,0,.62,2.563A2.086,2.086,0,0,0,91.25-1.7ZM103.691,0a3.662,3.662,0,0,1-.273-.986A3.694,3.694,0,0,1,100.645.2a3.728,3.728,0,0,1-2.6-.908,2.906,2.906,0,0,1-1.006-2.246A3,3,0,0,1,98.3-5.552a6.081,6.081,0,0,1,3.589-.9h1.455v-.693a1.851,1.851,0,0,0-.459-1.313,1.819,1.819,0,0,0-1.4-.493,2.09,2.09,0,0,0-1.328.405,1.254,1.254,0,0,0-.518,1.03H97.266a2.634,2.634,0,0,1,.576-1.626,3.839,3.839,0,0,1,1.567-1.187,5.506,5.506,0,0,1,2.212-.43,4.434,4.434,0,0,1,2.959.933,3.326,3.326,0,0,1,1.133,2.622v4.766a5.4,5.4,0,0,0,.4,2.275V0Zm-2.607-1.709a2.7,2.7,0,0,0,1.323-.342,2.284,2.284,0,0,0,.933-.918V-4.961h-1.279a3.5,3.5,0,0,0-1.982.459,1.487,1.487,0,0,0-.664,1.3,1.387,1.387,0,0,0,.454,1.089A1.758,1.758,0,0,0,101.084-1.709Zm13.037-1.162a1.076,1.076,0,0,0-.522-.967,5.557,5.557,0,0,0-1.733-.586,8.911,8.911,0,0,1-2.021-.645,2.7,2.7,0,0,1-1.777-2.49,2.813,2.813,0,0,1,1.152-2.285,4.556,4.556,0,0,1,2.93-.918,4.74,4.74,0,0,1,3.062.938,2.975,2.975,0,0,1,1.167,2.432H114A1.462,1.462,0,0,0,113.5-8.53a1.946,1.946,0,0,0-1.348-.454,2.1,2.1,0,0,0-1.274.361,1.139,1.139,0,0,0-.493.967.962.962,0,0,0,.459.85,6.312,6.312,0,0,0,1.855.61,8.783,8.783,0,0,1,2.192.732,3.1,3.1,0,0,1,1.182,1.021A2.6,2.6,0,0,1,116.455-3a2.753,2.753,0,0,1-1.182,2.31,5.039,5.039,0,0,1-3.1.884,5.464,5.464,0,0,1-2.314-.469,3.809,3.809,0,0,1-1.582-1.289,3.051,3.051,0,0,1-.566-1.768h2.3a1.672,1.672,0,0,0,.635,1.294,2.467,2.467,0,0,0,1.553.454,2.4,2.4,0,0,0,1.426-.356A1.1,1.1,0,0,0,114.121-2.871Z" transform="translate(473 5077)" fill="#12263f"/>
    <g id="Trazado_100974" data-name="Trazado 100974" transform="translate(846 4612)" fill="none">
      <path d="M117,0A117,117,0,1,1,0,117,117,117,0,0,1,117,0Z" stroke="none"/>
      <path d="M 117 3 C 109.2632827758789 3 101.5323181152344 3.779251098632813 94.0218505859375 5.316131591796875 C 86.70378112792969 6.813629150390625 79.5054931640625 9.048095703125 72.62696838378906 11.95747375488281 C 65.87265014648438 14.81428527832031 59.35787963867188 18.35043334960938 53.26359558105469 22.46762084960938 C 47.22647094726563 26.54624938964844 41.54931640625 31.2303466796875 36.38984680175781 36.38984680175781 C 31.2303466796875 41.54931640625 26.54624938964844 47.22647094726563 22.46762084960938 53.26359558105469 C 18.35043334960938 59.35787963867188 14.81428527832031 65.87265014648438 11.95747375488281 72.62696838378906 C 9.048095703125 79.5054931640625 6.813629150390625 86.70378112792969 5.316131591796875 94.0218505859375 C 3.779251098632813 101.5323181152344 3 109.2632827758789 3 117 C 3 124.7367172241211 3.779251098632813 132.4676818847656 5.316131591796875 139.9781494140625 C 6.813629150390625 147.2962188720703 9.048095703125 154.4945068359375 11.95747375488281 161.3730316162109 C 14.81428527832031 168.1273498535156 18.35043334960938 174.6421203613281 22.46762084960938 180.7364044189453 C 26.54624938964844 186.7735290527344 31.2303466796875 192.45068359375 36.38984680175781 197.6101531982422 C 41.54931640625 202.7696533203125 47.22647094726563 207.4537506103516 53.26359558105469 211.5323791503906 C 59.35787963867188 215.6495666503906 65.87265014648438 219.1857147216797 72.62696838378906 222.0425262451172 C 79.5054931640625 224.951904296875 86.70378112792969 227.1863708496094 94.0218505859375 228.6838684082031 C 101.5323181152344 230.2207489013672 109.2632827758789 231 117 231 C 124.7367172241211 231 132.4676818847656 230.2207489013672 139.9781494140625 228.6838684082031 C 147.2962188720703 227.1863708496094 154.4945068359375 224.951904296875 161.3730316162109 222.0425262451172 C 168.1273498535156 219.1857147216797 174.6421203613281 215.6495666503906 180.7364044189453 211.5323791503906 C 186.7735290527344 207.4537506103516 192.45068359375 202.7696533203125 197.6101531982422 197.6101531982422 C 202.7696533203125 192.45068359375 207.4537506103516 186.7735290527344 211.5323791503906 180.7364044189453 C 215.6495666503906 174.6421203613281 219.1857147216797 168.1273498535156 222.0425262451172 161.3730316162109 C 224.951904296875 154.4945068359375 227.1863708496094 147.2962188720703 228.6838684082031 139.9781494140625 C 230.2207489013672 132.4676818847656 231 124.7367172241211 231 117 C 231 109.2632827758789 230.2207489013672 101.5323181152344 228.6838684082031 94.0218505859375 C 227.1863708496094 86.70378112792969 224.951904296875 79.5054931640625 222.0425262451172 72.62696838378906 C 219.1857147216797 65.87265014648438 215.6495666503906 59.35787963867188 211.5323791503906 53.26359558105469 C 207.4537506103516 47.22647094726563 202.7696533203125 41.54931640625 197.6101531982422 36.38984680175781 C 192.45068359375 31.2303466796875 186.7735290527344 26.54624938964844 180.7364044189453 22.46762084960938 C 174.6421203613281 18.35043334960938 168.1273498535156 14.81428527832031 161.3730316162109 11.95747375488281 C 154.4945068359375 9.048095703125 147.2962188720703 6.813629150390625 139.9781494140625 5.316131591796875 C 132.4676818847656 3.779251098632813 124.7367172241211 3 117 3 M 117 0 C 181.6173095703125 0 234 52.3826904296875 234 117 C 234 181.6173095703125 181.6173095703125 234 117 234 C 52.3826904296875 234 0 181.6173095703125 0 117 C 0 52.3826904296875 52.3826904296875 0 117 0 Z" stroke="none" fill="#cc3d60"/>
    </g>
    <g id="Trazado_100977" data-name="Trazado 100977" transform="translate(907 4673)" fill="none">
      <path d="M56,0A56,56,0,1,1,0,56,56,56,0,0,1,56,0Z" stroke="none"/>
      <path d="M 56 3 C 48.84373474121094 3 41.90309906005859 4.400901794433594 35.37093353271484 7.163764953613281 C 29.06008148193359 9.833030700683594 23.39174652099609 13.65495300292969 18.52335357666016 18.52335357666016 C 13.65495300292969 23.39174652099609 9.833030700683594 29.06008148193359 7.163764953613281 35.37093353271484 C 4.400901794433594 41.90309906005859 3 48.84373474121094 3 56 C 3 63.15626525878906 4.400901794433594 70.09690093994141 7.163764953613281 76.62906646728516 C 9.833030700683594 82.93991851806641 13.65495300292969 88.60824584960938 18.52335357666016 93.47665405273438 C 23.39174652099609 98.34504699707031 29.06008148193359 102.1669692993164 35.37093353271484 104.8362350463867 C 41.90309906005859 107.5990982055664 48.84373474121094 109 56 109 C 63.15626525878906 109 70.09690093994141 107.5990982055664 76.62906646728516 104.8362350463867 C 82.93991851806641 102.1669692993164 88.60824584960938 98.34504699707031 93.47665405273438 93.47665405273438 C 98.34504699707031 88.60824584960938 102.1669692993164 82.93991851806641 104.8362350463867 76.62906646728516 C 107.5990982055664 70.09690093994141 109 63.15626525878906 109 56 C 109 48.84373474121094 107.5990982055664 41.90309906005859 104.8362350463867 35.37093353271484 C 102.1669692993164 29.06008148193359 98.34504699707031 23.39174652099609 93.47665405273438 18.52335357666016 C 88.60824584960938 13.65495300292969 82.93991851806641 9.833030700683594 76.62906646728516 7.163764953613281 C 70.09690093994141 4.400901794433594 63.15626525878906 3 56 3 M 56 0 C 86.92793273925781 0 112 25.07206726074219 112 56 C 112 86.92793273925781 86.92793273925781 112 56 112 C 25.07206726074219 112 0 86.92793273925781 0 56 C 0 25.07206726074219 25.07206726074219 0 56 0 Z" stroke="none" fill="#cc3d60"/>
    </g>
    <path id="Trazado_100978" data-name="Trazado 100978" d="M12.195-7.935H4.9v5.469h8.533V0H1.807V-17.773H13.342v2.49H4.9v4.907h7.3Z" transform="translate(956 4654)" fill="#12263f"/>
    <path id="Trazado_100969" data-name="Trazado 100969" d="M11.1-4.578a2.146,2.146,0,0,0-.824-1.807A9.914,9.914,0,0,0,7.3-7.666a14.353,14.353,0,0,1-3.418-1.44,4.561,4.561,0,0,1-2.429-3.979A4.331,4.331,0,0,1,3.2-16.626a7.09,7.09,0,0,1,4.547-1.392,7.681,7.681,0,0,1,3.308.684,5.43,5.43,0,0,1,2.283,1.947,4.994,4.994,0,0,1,.83,2.8H11.1a2.785,2.785,0,0,0-.873-2.179,3.6,3.6,0,0,0-2.5-.787,3.762,3.762,0,0,0-2.35.647A2.154,2.154,0,0,0,4.541-13.1a1.949,1.949,0,0,0,.9,1.63A10.407,10.407,0,0,0,8.423-10.2a13.7,13.7,0,0,1,3.333,1.4A5.3,5.3,0,0,1,13.6-6.989,4.705,4.705,0,0,1,14.185-4.6a4.23,4.23,0,0,1-1.7,3.534A7.386,7.386,0,0,1,7.861.244,8.682,8.682,0,0,1,4.315-.47,5.957,5.957,0,0,1,1.8-2.441a4.913,4.913,0,0,1-.9-2.93H3.992a2.875,2.875,0,0,0,1,2.344,4.383,4.383,0,0,0,2.869.83,3.809,3.809,0,0,0,2.423-.653A2.107,2.107,0,0,0,11.1-4.578Z" transform="translate(524 4415)" fill="#12263f"/>
    <path id="Trazado_100970" data-name="Trazado 100970" d="M14.648-15.283H9.106V0H6.042V-15.283H.549v-2.49h14.1Z" transform="translate(524 4648)" fill="#12263f"/>
    <path id="Trazado_100973" data-name="Trazado 100973" d="M5.811-17.773,10.938-4.15l5.115-13.623h3.992V0H16.968V-5.859l.305-7.837L12.024,0H9.814L4.578-13.684l.305,7.825V0H1.807V-17.773Z" transform="translate(520 4882)" fill="#12263f"/>
    <path id="Trazado_100976" data-name="Trazado 100976" d="M-81.426-5.283V0H-83.9V-14.219h5.439a5.5,5.5,0,0,1,3.784,1.24,4.168,4.168,0,0,1,1.4,3.281,4.03,4.03,0,0,1-1.372,3.252,5.771,5.771,0,0,1-3.843,1.162Zm0-1.982h2.969a2.924,2.924,0,0,0,2.012-.62,2.279,2.279,0,0,0,.693-1.792,2.459,2.459,0,0,0-.7-1.841,2.71,2.71,0,0,0-1.934-.708h-3.037ZM-65.811-8.4a5.872,5.872,0,0,0-.967-.078,2.177,2.177,0,0,0-2.2,1.25V0h-2.373V-10.566h2.266l.059,1.182a2.674,2.674,0,0,1,2.383-1.377,2.222,2.222,0,0,1,.84.137Zm.7,3.018a6.231,6.231,0,0,1,.615-2.8,4.493,4.493,0,0,1,1.729-1.914,4.87,4.87,0,0,1,2.559-.669,4.615,4.615,0,0,1,3.472,1.377,5.416,5.416,0,0,1,1.44,3.652l.01.557a6.286,6.286,0,0,1-.6,2.793A4.439,4.439,0,0,1-57.6-.479,4.906,4.906,0,0,1-60.186.2a4.584,4.584,0,0,1-3.579-1.489,5.7,5.7,0,0,1-1.343-3.97Zm2.373.205a4.258,4.258,0,0,0,.674,2.554,2.191,2.191,0,0,0,1.875.923,2.167,2.167,0,0,0,1.87-.937,4.7,4.7,0,0,0,.669-2.744,4.2,4.2,0,0,0-.688-2.539,2.2,2.2,0,0,0-1.87-.937,2.178,2.178,0,0,0-1.846.923A4.614,4.614,0,0,0-62.734-5.176Zm13.8,3.477a2.146,2.146,0,0,0,1.475-.518A1.768,1.768,0,0,0-46.836-3.5H-44.6a3.486,3.486,0,0,1-.615,1.841A4.035,4.035,0,0,1-46.777-.3a4.656,4.656,0,0,1-2.129.5A4.505,4.505,0,0,1-52.422-1.24a5.694,5.694,0,0,1-1.3-3.965v-.244a5.6,5.6,0,0,1,1.289-3.862,4.464,4.464,0,0,1,3.516-1.45,4.341,4.341,0,0,1,3.071,1.1A3.935,3.935,0,0,1-44.6-6.777h-2.236a2.173,2.173,0,0,0-.62-1.494,2,2,0,0,0-1.479-.586,2.088,2.088,0,0,0-1.777.835,4.261,4.261,0,0,0-.635,2.534v.381a4.331,4.331,0,0,0,.62,2.563A2.086,2.086,0,0,0-48.936-1.7ZM-38.154.2a4.91,4.91,0,0,1-3.657-1.421,5.154,5.154,0,0,1-1.4-3.784V-5.3A6.34,6.34,0,0,1-42.6-8.13a4.646,4.646,0,0,1,1.714-1.938,4.531,4.531,0,0,1,2.461-.693,4.147,4.147,0,0,1,3.335,1.377,5.823,5.823,0,0,1,1.177,3.9v.957h-6.9a3.173,3.173,0,0,0,.874,2.07,2.624,2.624,0,0,0,1.929.762,3.213,3.213,0,0,0,2.656-1.318L-34.082-1.8a4.272,4.272,0,0,1-1.694,1.47A5.3,5.3,0,0,1-38.154.2Zm-.283-9.053a2,2,0,0,0-1.577.684,3.543,3.543,0,0,0-.767,1.9h4.521v-.176a2.884,2.884,0,0,0-.635-1.8A1.983,1.983,0,0,0-38.437-8.857Zm12.285,5.986a1.076,1.076,0,0,0-.522-.967,5.557,5.557,0,0,0-1.733-.586,8.911,8.911,0,0,1-2.021-.645,2.7,2.7,0,0,1-1.777-2.49,2.813,2.813,0,0,1,1.152-2.285,4.556,4.556,0,0,1,2.93-.918,4.74,4.74,0,0,1,3.062.938A2.975,2.975,0,0,1-23.9-7.393H-26.27a1.462,1.462,0,0,0-.508-1.138,1.946,1.946,0,0,0-1.348-.454,2.1,2.1,0,0,0-1.274.361,1.139,1.139,0,0,0-.493.967.962.962,0,0,0,.459.85,6.312,6.312,0,0,0,1.855.61,8.783,8.783,0,0,1,2.192.732A3.1,3.1,0,0,1-24.2-4.443,2.6,2.6,0,0,1-23.818-3,2.753,2.753,0,0,1-25-.688,5.039,5.039,0,0,1-28.1.2,5.464,5.464,0,0,1-30.41-.273a3.809,3.809,0,0,1-1.582-1.289,3.051,3.051,0,0,1-.566-1.768h2.3a1.672,1.672,0,0,0,.635,1.294,2.467,2.467,0,0,0,1.553.454,2.4,2.4,0,0,0,1.426-.356A1.1,1.1,0,0,0-26.152-2.871Zm3.955-2.51a6.231,6.231,0,0,1,.615-2.8,4.493,4.493,0,0,1,1.729-1.914,4.87,4.87,0,0,1,2.559-.669,4.615,4.615,0,0,1,3.472,1.377,5.416,5.416,0,0,1,1.44,3.652l.01.557a6.286,6.286,0,0,1-.6,2.793,4.439,4.439,0,0,1-1.719,1.9A4.906,4.906,0,0,1-17.275.2a4.584,4.584,0,0,1-3.579-1.489A5.7,5.7,0,0,1-22.2-5.264Zm2.373.205a4.258,4.258,0,0,0,.674,2.554,2.191,2.191,0,0,0,1.875.923,2.167,2.167,0,0,0,1.87-.937,4.7,4.7,0,0,0,.669-2.744,4.2,4.2,0,0,0-.688-2.539,2.2,2.2,0,0,0-1.87-.937,2.178,2.178,0,0,0-1.846.923A4.614,4.614,0,0,0-19.824-5.176ZM-5.83-5.361A6.282,6.282,0,0,1-4.7-9.282,3.63,3.63,0,0,1-1.66-10.762,3.449,3.449,0,0,1,1.055-9.59V-15H3.428V0H1.279L1.162-1.094A3.5,3.5,0,0,1-1.68.2a3.609,3.609,0,0,1-3-1.494A6.512,6.512,0,0,1-5.83-5.361Zm2.373.205a4.4,4.4,0,0,0,.62,2.515,2.012,2.012,0,0,0,1.763.9,2.241,2.241,0,0,0,2.129-1.3V-7.549a2.207,2.207,0,0,0-2.109-1.27,2.027,2.027,0,0,0-1.777.913A4.9,4.9,0,0,0-3.457-5.156ZM10.557.2A4.91,4.91,0,0,1,6.9-1.226,5.154,5.154,0,0,1,5.5-5.01V-5.3a6.34,6.34,0,0,1,.61-2.827,4.645,4.645,0,0,1,1.714-1.938,4.531,4.531,0,0,1,2.461-.693,4.147,4.147,0,0,1,3.335,1.377,5.823,5.823,0,0,1,1.177,3.9v.957h-6.9a3.173,3.173,0,0,0,.874,2.07,2.624,2.624,0,0,0,1.929.762A3.213,3.213,0,0,0,13.35-3.018L14.629-1.8a4.272,4.272,0,0,1-1.694,1.47A5.3,5.3,0,0,1,10.557.2Zm-.283-9.053A2,2,0,0,0,8.7-8.174a3.543,3.543,0,0,0-.767,1.9h4.521v-.176a2.884,2.884,0,0,0-.635-1.8A1.983,1.983,0,0,0,10.273-8.857Zm10.9,3.5A6.282,6.282,0,0,1,22.3-9.282a3.63,3.63,0,0,1,3.037-1.479A3.449,3.449,0,0,1,28.057-9.59V-15H30.43V0H28.281l-.117-1.094A3.5,3.5,0,0,1,25.322.2a3.609,3.609,0,0,1-3-1.494A6.512,6.512,0,0,1,21.172-5.361Zm2.373.205a4.4,4.4,0,0,0,.62,2.515,2.012,2.012,0,0,0,1.763.9,2.241,2.241,0,0,0,2.129-1.3V-7.549a2.207,2.207,0,0,0-2.109-1.27,2.027,2.027,0,0,0-1.777.913A4.9,4.9,0,0,0,23.545-5.156ZM35.43,0H33.057V-10.566H35.43ZM32.91-13.311a1.259,1.259,0,0,1,.347-.908,1.309,1.309,0,0,1,.991-.361,1.326,1.326,0,0,1,1,.361,1.25,1.25,0,0,1,.352.908,1.221,1.221,0,0,1-.352.894,1.336,1.336,0,0,1-1,.356,1.32,1.32,0,0,1-.991-.356A1.23,1.23,0,0,1,32.91-13.311ZM43.936-2.871a1.076,1.076,0,0,0-.522-.967,5.557,5.557,0,0,0-1.733-.586,8.911,8.911,0,0,1-2.021-.645,2.7,2.7,0,0,1-1.777-2.49,2.813,2.813,0,0,1,1.152-2.285,4.556,4.556,0,0,1,2.93-.918,4.74,4.74,0,0,1,3.062.938,2.975,2.975,0,0,1,1.167,2.432H43.818a1.462,1.462,0,0,0-.508-1.138,1.946,1.946,0,0,0-1.348-.454,2.1,2.1,0,0,0-1.274.361,1.139,1.139,0,0,0-.493.967.962.962,0,0,0,.459.85,6.312,6.312,0,0,0,1.855.61,8.783,8.783,0,0,1,2.192.732,3.1,3.1,0,0,1,1.182,1.021A2.6,2.6,0,0,1,46.27-3a2.753,2.753,0,0,1-1.182,2.31,5.039,5.039,0,0,1-3.1.884,5.464,5.464,0,0,1-2.314-.469A3.809,3.809,0,0,1,38.1-1.562a3.051,3.051,0,0,1-.566-1.768h2.3a1.672,1.672,0,0,0,.635,1.294,2.467,2.467,0,0,0,1.553.454,2.4,2.4,0,0,0,1.426-.356A1.1,1.1,0,0,0,43.936-2.871ZM52.988.2a4.91,4.91,0,0,1-3.657-1.421,5.154,5.154,0,0,1-1.4-3.784V-5.3a6.34,6.34,0,0,1,.61-2.827,4.646,4.646,0,0,1,1.714-1.938,4.531,4.531,0,0,1,2.461-.693A4.147,4.147,0,0,1,56.05-9.385a5.823,5.823,0,0,1,1.177,3.9v.957h-6.9a3.173,3.173,0,0,0,.874,2.07,2.624,2.624,0,0,0,1.929.762,3.213,3.213,0,0,0,2.656-1.318L57.061-1.8a4.272,4.272,0,0,1-1.694,1.47A5.3,5.3,0,0,1,52.988.2Zm-.283-9.053a2,2,0,0,0-1.577.684,3.543,3.543,0,0,0-.767,1.9h4.521v-.176a2.884,2.884,0,0,0-.635-1.8A1.983,1.983,0,0,0,52.705-8.857Zm8.564-1.709.068,1.221a3.8,3.8,0,0,1,3.076-1.416q3.3,0,3.359,3.779V0H65.4V-6.846a2.176,2.176,0,0,0-.435-1.489,1.828,1.828,0,0,0-1.421-.483,2.287,2.287,0,0,0-2.139,1.3V0H59.033V-10.566Zm5.762-4.219A2.625,2.625,0,0,1,66.411-13a1.978,1.978,0,0,1-1.558.713,2.32,2.32,0,0,1-.659-.083,4.192,4.192,0,0,1-.791-.376,3.91,3.91,0,0,0-.723-.352,1.723,1.723,0,0,0-.464-.059.828.828,0,0,0-.63.278,1.026,1.026,0,0,0-.259.728l-1.455-.078a2.7,2.7,0,0,1,.62-1.807,1.946,1.946,0,0,1,1.548-.732,2.882,2.882,0,0,1,1.343.439,2.839,2.839,0,0,0,1.294.439.843.843,0,0,0,.635-.278,1.028,1.028,0,0,0,.264-.737Zm2.715,9.4a6.231,6.231,0,0,1,.615-2.8,4.493,4.493,0,0,1,1.729-1.914,4.87,4.87,0,0,1,2.559-.669A4.615,4.615,0,0,1,78.12-9.385a5.416,5.416,0,0,1,1.44,3.652l.01.557a6.286,6.286,0,0,1-.6,2.793,4.439,4.439,0,0,1-1.719,1.9A4.906,4.906,0,0,1,74.668.2a4.584,4.584,0,0,1-3.579-1.489,5.7,5.7,0,0,1-1.343-3.97Zm2.373.205a4.258,4.258,0,0,0,.674,2.554,2.191,2.191,0,0,0,1.875.923,2.167,2.167,0,0,0,1.87-.937,4.7,4.7,0,0,0,.669-2.744,4.2,4.2,0,0,0-.688-2.539,2.2,2.2,0,0,0-1.87-.937,2.178,2.178,0,0,0-1.846.923A4.614,4.614,0,0,0,72.119-5.176ZM-51.733,24.2a4.91,4.91,0,0,1-3.657-1.421,5.154,5.154,0,0,1-1.4-3.784V18.7a6.34,6.34,0,0,1,.61-2.827,4.646,4.646,0,0,1,1.714-1.938,4.531,4.531,0,0,1,2.461-.693,4.147,4.147,0,0,1,3.335,1.377,5.823,5.823,0,0,1,1.177,3.9v.957h-6.9a3.173,3.173,0,0,0,.874,2.07A2.624,2.624,0,0,0-51.6,22.3a3.213,3.213,0,0,0,2.656-1.318l1.279,1.221a4.272,4.272,0,0,1-1.694,1.47A5.3,5.3,0,0,1-51.733,24.2Zm-.283-9.053a2,2,0,0,0-1.577.684,3.543,3.543,0,0,0-.767,1.9h4.521v-.176a2.884,2.884,0,0,0-.635-1.8A1.983,1.983,0,0,0-52.017,15.143Zm8.564-1.709.068,1.221a3.8,3.8,0,0,1,3.076-1.416q3.3,0,3.359,3.779V24h-2.373V17.154a2.176,2.176,0,0,0-.435-1.489,1.828,1.828,0,0,0-1.421-.483,2.287,2.287,0,0,0-2.139,1.3V24h-2.373V13.434ZM-27.026,24H-29.4V13.434h2.373Zm-2.52-13.311a1.259,1.259,0,0,1,.347-.908,1.309,1.309,0,0,1,.991-.361,1.326,1.326,0,0,1,1,.361,1.25,1.25,0,0,1,.352.908,1.221,1.221,0,0,1-.352.894,1.336,1.336,0,0,1-1,.356,1.32,1.32,0,0,1-.991-.356A1.23,1.23,0,0,1-29.546,10.689Zm7.3,2.744.068,1.221A3.8,3.8,0,0,1-19.1,13.238q3.3,0,3.359,3.779V24H-18.11V17.154a2.176,2.176,0,0,0-.435-1.489,1.828,1.828,0,0,0-1.421-.483,2.287,2.287,0,0,0-2.139,1.3V24h-2.373V13.434Zm8.506,5.205a6.18,6.18,0,0,1,1.157-3.931,3.714,3.714,0,0,1,3.071-1.47A3.48,3.48,0,0,1-6.665,14.5l.107-1.064h2.139V23.678a4.258,4.258,0,0,1-1.294,3.281A4.928,4.928,0,0,1-9.2,28.16a5.627,5.627,0,0,1-2.271-.483,4.034,4.034,0,0,1-1.685-1.265l1.123-1.426a3.392,3.392,0,0,0,2.7,1.3,2.621,2.621,0,0,0,1.865-.64,2.451,2.451,0,0,0,.684-1.88v-.713A3.494,3.494,0,0,1-9.526,24.2a3.705,3.705,0,0,1-3.032-1.475A6.38,6.38,0,0,1-13.735,18.639Zm2.363.205a4.254,4.254,0,0,0,.649,2.5,2.088,2.088,0,0,0,1.8.913,2.284,2.284,0,0,0,2.129-1.23V16.383a2.251,2.251,0,0,0-2.109-1.2,2.1,2.1,0,0,0-1.821.928A4.763,4.763,0,0,0-11.372,18.844ZM2.671,24.2A4.91,4.91,0,0,1-.986,22.774a5.154,5.154,0,0,1-1.4-3.784V18.7a6.34,6.34,0,0,1,.61-2.827A4.645,4.645,0,0,1-.063,13.932,4.531,4.531,0,0,1,2.4,13.238a4.147,4.147,0,0,1,3.335,1.377,5.823,5.823,0,0,1,1.177,3.9v.957H0a3.173,3.173,0,0,0,.874,2.07,2.624,2.624,0,0,0,1.929.762,3.213,3.213,0,0,0,2.656-1.318L6.743,22.2a4.272,4.272,0,0,1-1.694,1.47A5.3,5.3,0,0,1,2.671,24.2Zm-.283-9.053a2,2,0,0,0-1.577.684,3.543,3.543,0,0,0-.767,1.9H4.565v-.176a2.884,2.884,0,0,0-.635-1.8A1.983,1.983,0,0,0,2.388,15.143Zm8.564-1.709.068,1.221A3.8,3.8,0,0,1,14.1,13.238q3.3,0,3.359,3.779V24H15.083V17.154a2.176,2.176,0,0,0-.435-1.489,1.828,1.828,0,0,0-1.421-.483,2.287,2.287,0,0,0-2.139,1.3V24H8.716V13.434ZM22.4,24H20.024V13.434H22.4Zm-2.52-13.311a1.259,1.259,0,0,1,.347-.908,1.309,1.309,0,0,1,.991-.361,1.326,1.326,0,0,1,1,.361,1.25,1.25,0,0,1,.352.908,1.221,1.221,0,0,1-.352.894,1.336,1.336,0,0,1-1,.356,1.32,1.32,0,0,1-.991-.356A1.23,1.23,0,0,1,19.878,10.689ZM29.634,24.2a4.91,4.91,0,0,1-3.657-1.421,5.154,5.154,0,0,1-1.4-3.784V18.7a6.34,6.34,0,0,1,.61-2.827A4.645,4.645,0,0,1,26.9,13.932a4.531,4.531,0,0,1,2.461-.693A4.147,4.147,0,0,1,32.7,14.615a5.823,5.823,0,0,1,1.177,3.9v.957h-6.9a3.173,3.173,0,0,0,.874,2.07,2.624,2.624,0,0,0,1.929.762,3.213,3.213,0,0,0,2.656-1.318L33.706,22.2a4.272,4.272,0,0,1-1.694,1.47A5.3,5.3,0,0,1,29.634,24.2Zm-.283-9.053a2,2,0,0,0-1.577.684,3.543,3.543,0,0,0-.767,1.9h4.521v-.176a2.884,2.884,0,0,0-.635-1.8A1.983,1.983,0,0,0,29.351,15.143Zm11.895.459a5.872,5.872,0,0,0-.967-.078,2.177,2.177,0,0,0-2.2,1.25V24H35.708V13.434h2.266l.059,1.182a2.674,2.674,0,0,1,2.383-1.377,2.222,2.222,0,0,1,.84.137ZM45.3,24H42.925V13.434H45.3ZM44.849,9.068h2.705l-2.705,2.959h-1.9ZM54.312,24a3.662,3.662,0,0,1-.273-.986,3.992,3.992,0,0,1-5.371.273,2.906,2.906,0,0,1-1.006-2.246,3,3,0,0,1,1.255-2.593,6.081,6.081,0,0,1,3.589-.9H53.96v-.693a1.851,1.851,0,0,0-.459-1.313,1.819,1.819,0,0,0-1.4-.493,2.09,2.09,0,0,0-1.328.405,1.254,1.254,0,0,0-.518,1.03H47.886a2.634,2.634,0,0,1,.576-1.626,3.838,3.838,0,0,1,1.567-1.187,5.506,5.506,0,0,1,2.212-.43,4.434,4.434,0,0,1,2.959.933,3.326,3.326,0,0,1,1.133,2.622v4.766a5.4,5.4,0,0,0,.4,2.275V24ZM51.7,22.291a2.7,2.7,0,0,0,1.323-.342,2.284,2.284,0,0,0,.933-.918V19.039H52.681A3.5,3.5,0,0,0,50.7,19.5a1.487,1.487,0,0,0-.664,1.3,1.387,1.387,0,0,0,.454,1.089A1.758,1.758,0,0,0,51.7,22.291Z" transform="translate(963 4883)" fill="#12263f"/>
    <path id="Trazado_100588" data-name="Trazado 100588" d="M-5037-7168.328l256.318,136.323" transform="translate(5645 11682)" fill="none" stroke="#31326f" stroke-width="1"/>
    <path id="Trazado_100589" data-name="Trazado 100589" d="M-5037-7032.006l256.318-136.323" transform="translate(5645 11980.328)" fill="none" stroke="#31326f" stroke-width="1"/>
    <path id="Trazado_100590" data-name="Trazado 100590" d="M-5037-6947h225.495" transform="translate(5645 11682)" fill="none" stroke="#31326f" stroke-width="1"/>
  </g>
</svg>
