<svg xmlns="http://www.w3.org/2000/svg" width="512" height="242.178" viewBox="0 0 512 242.178">
  <g id="Grupo_55351" data-name="Grupo 55351" transform="translate(-544 -5415.982)">
    <g id="Grupo_55162" data-name="Grupo 55162" transform="translate(-14 -35)">
      <g id="Elipse_1303" data-name="Elipse 1303" transform="translate(558 5493)" fill="none" stroke="#ffc93c" stroke-width="3">
        <circle cx="77" cy="77" r="77" stroke="none"/>
        <circle cx="77" cy="77" r="75.5" fill="none"/>
      </g>
      <g id="Elipse_1304" data-name="Elipse 1304" transform="translate(671 5493)" fill="none" stroke="#9ddfd3" stroke-width="3">
        <circle cx="77" cy="77" r="77" stroke="none"/>
        <circle cx="77" cy="77" r="75.5" fill="none"/>
      </g>
      <g id="Elipse_1305" data-name="Elipse 1305" transform="translate(791 5493)" fill="none" stroke="#cc3d60" stroke-width="3">
        <circle cx="77" cy="77" r="77" stroke="none"/>
        <circle cx="77" cy="77" r="75.5" fill="none"/>
      </g>
      <g id="Elipse_1306" data-name="Elipse 1306" transform="translate(916 5493)" fill="none" stroke="#81c140" stroke-width="3">
        <circle cx="77" cy="77" r="77" stroke="none"/>
        <circle cx="77" cy="77" r="75.5" fill="none"/>
      </g>
    </g>
    <path id="Trazado_100980" data-name="Trazado 100980" d="M11.1-4.578a2.146,2.146,0,0,0-.824-1.807A9.914,9.914,0,0,0,7.3-7.666a14.353,14.353,0,0,1-3.418-1.44,4.561,4.561,0,0,1-2.429-3.979A4.331,4.331,0,0,1,3.2-16.626a7.09,7.09,0,0,1,4.547-1.392,7.681,7.681,0,0,1,3.308.684,5.43,5.43,0,0,1,2.283,1.947,4.994,4.994,0,0,1,.83,2.8H11.1a2.785,2.785,0,0,0-.873-2.179,3.6,3.6,0,0,0-2.5-.787,3.762,3.762,0,0,0-2.35.647A2.154,2.154,0,0,0,4.541-13.1a1.949,1.949,0,0,0,.9,1.63A10.407,10.407,0,0,0,8.423-10.2a13.7,13.7,0,0,1,3.333,1.4A5.3,5.3,0,0,1,13.6-6.989,4.705,4.705,0,0,1,14.185-4.6a4.23,4.23,0,0,1-1.7,3.534A7.386,7.386,0,0,1,7.861.244,8.682,8.682,0,0,1,4.315-.47,5.957,5.957,0,0,1,1.8-2.441a4.913,4.913,0,0,1-.9-2.93H3.992a2.875,2.875,0,0,0,1,2.344,4.383,4.383,0,0,0,2.869.83,3.809,3.809,0,0,0,2.423-.653A2.107,2.107,0,0,0,11.1-4.578Z" transform="translate(614 5434)" fill="#12263f"/>
    <path id="Trazado_100981" data-name="Trazado 100981" d="M14.648-15.283H9.106V0H6.042V-15.283H.549v-2.49h14.1Z" transform="translate(721 5434)" fill="#12263f"/>
    <path id="Trazado_100982" data-name="Trazado 100982" d="M12.195-7.935H4.9v5.469h8.533V0H1.807V-17.773H13.342v2.49H4.9v4.907h7.3Z" transform="translate(843 5434)" fill="#12263f"/>
    <path id="Trazado_100983" data-name="Trazado 100983" d="M5.811-17.773,10.938-4.15l5.115-13.623h3.992V0H16.968V-5.859l.305-7.837L12.024,0H9.814L4.578-13.684l.305,7.825V0H1.807V-17.773Z" transform="translate(972 5434)" fill="#12263f"/>
    <path id="Trazado_100984" data-name="Trazado 100984" d="M12.295-4.629a5.134,5.134,0,0,1-1.68,3.55A5.726,5.726,0,0,1,6.719.2,5.545,5.545,0,0,1,3.726-.61a5.288,5.288,0,0,1-2-2.29A8.264,8.264,0,0,1,1-6.348V-7.676a8.324,8.324,0,0,1,.713-3.545,5.373,5.373,0,0,1,2.046-2.363,5.707,5.707,0,0,1,3.081-.83,5.483,5.483,0,0,1,3.789,1.279,5.344,5.344,0,0,1,1.67,3.613H9.834a3.512,3.512,0,0,0-.894-2.212,2.953,2.953,0,0,0-2.1-.679A2.886,2.886,0,0,0,4.36-11.235a5.877,5.877,0,0,0-.884,3.452v1.26A6.235,6.235,0,0,0,4.3-3.008,2.739,2.739,0,0,0,6.719-1.8a3.194,3.194,0,0,0,2.188-.654,3.412,3.412,0,0,0,.928-2.178ZM16.8,0H14.424V-10.566H16.8Zm-2.52-13.311a1.259,1.259,0,0,1,.347-.908,1.309,1.309,0,0,1,.991-.361,1.326,1.326,0,0,1,1,.361,1.25,1.25,0,0,1,.352.908,1.221,1.221,0,0,1-.352.894,1.336,1.336,0,0,1-1,.356,1.32,1.32,0,0,1-.991-.356A1.23,1.23,0,0,1,14.277-13.311ZM24.033.2a4.91,4.91,0,0,1-3.657-1.421,5.154,5.154,0,0,1-1.4-3.784V-5.3a6.34,6.34,0,0,1,.61-2.827A4.645,4.645,0,0,1,21.3-10.068a4.531,4.531,0,0,1,2.461-.693,4.147,4.147,0,0,1,3.335,1.377,5.823,5.823,0,0,1,1.177,3.9v.957h-6.9a3.173,3.173,0,0,0,.874,2.07A2.624,2.624,0,0,0,24.17-1.7a3.213,3.213,0,0,0,2.656-1.318L28.105-1.8a4.272,4.272,0,0,1-1.694,1.47A5.3,5.3,0,0,1,24.033.2ZM23.75-8.857a2,2,0,0,0-1.577.684,3.543,3.543,0,0,0-.767,1.9h4.521v-.176a2.884,2.884,0,0,0-.635-1.8A1.983,1.983,0,0,0,23.75-8.857Zm8.564-1.709.068,1.221a3.8,3.8,0,0,1,3.076-1.416q3.3,0,3.359,3.779V0H36.445V-6.846a2.176,2.176,0,0,0-.435-1.489,1.828,1.828,0,0,0-1.421-.483,2.287,2.287,0,0,0-2.139,1.3V0H30.078V-10.566ZM45.576-1.7a2.146,2.146,0,0,0,1.475-.518A1.768,1.768,0,0,0,47.676-3.5h2.236A3.486,3.486,0,0,1,49.3-1.655,4.035,4.035,0,0,1,47.734-.3a4.656,4.656,0,0,1-2.129.5A4.505,4.505,0,0,1,42.09-1.24a5.694,5.694,0,0,1-1.3-3.965v-.244A5.6,5.6,0,0,1,42.08-9.312a4.464,4.464,0,0,1,3.516-1.45,4.341,4.341,0,0,1,3.071,1.1,3.935,3.935,0,0,1,1.245,2.886H47.676a2.173,2.173,0,0,0-.62-1.494,2,2,0,0,0-1.479-.586,2.088,2.088,0,0,0-1.777.835,4.261,4.261,0,0,0-.635,2.534v.381a4.331,4.331,0,0,0,.62,2.563A2.086,2.086,0,0,0,45.576-1.7ZM54.229,0H51.855V-10.566h2.373Zm-2.52-13.311a1.259,1.259,0,0,1,.347-.908,1.309,1.309,0,0,1,.991-.361,1.326,1.326,0,0,1,1,.361,1.25,1.25,0,0,1,.352.908,1.221,1.221,0,0,1-.352.894,1.336,1.336,0,0,1-1,.356,1.32,1.32,0,0,1-.991-.356A1.23,1.23,0,0,1,51.709-13.311ZM63.125,0a3.662,3.662,0,0,1-.273-.986A3.694,3.694,0,0,1,60.078.2a3.728,3.728,0,0,1-2.6-.908,2.906,2.906,0,0,1-1.006-2.246,3,3,0,0,1,1.255-2.593,6.081,6.081,0,0,1,3.589-.9h1.455v-.693a1.851,1.851,0,0,0-.459-1.313,1.819,1.819,0,0,0-1.4-.493,2.09,2.09,0,0,0-1.328.405,1.254,1.254,0,0,0-.518,1.03H56.7a2.634,2.634,0,0,1,.576-1.626,3.838,3.838,0,0,1,1.567-1.187,5.506,5.506,0,0,1,2.212-.43,4.434,4.434,0,0,1,2.959.933,3.326,3.326,0,0,1,1.133,2.622v4.766a5.4,5.4,0,0,0,.4,2.275V0ZM60.518-1.709a2.7,2.7,0,0,0,1.323-.342,2.284,2.284,0,0,0,.933-.918V-4.961H61.494a3.5,3.5,0,0,0-1.982.459,1.487,1.487,0,0,0-.664,1.3A1.387,1.387,0,0,0,59.3-2.114,1.758,1.758,0,0,0,60.518-1.709ZM73.555-2.871a1.076,1.076,0,0,0-.522-.967A5.557,5.557,0,0,0,71.3-4.424a8.911,8.911,0,0,1-2.021-.645A2.7,2.7,0,0,1,67.5-7.559a2.813,2.813,0,0,1,1.152-2.285,4.556,4.556,0,0,1,2.93-.918,4.74,4.74,0,0,1,3.062.938,2.975,2.975,0,0,1,1.167,2.432H73.438A1.462,1.462,0,0,0,72.93-8.53a1.946,1.946,0,0,0-1.348-.454,2.1,2.1,0,0,0-1.274.361,1.139,1.139,0,0,0-.493.967.962.962,0,0,0,.459.85,6.312,6.312,0,0,0,1.855.61,8.783,8.783,0,0,1,2.192.732A3.1,3.1,0,0,1,75.5-4.443,2.6,2.6,0,0,1,75.889-3a2.753,2.753,0,0,1-1.182,2.31,5.039,5.039,0,0,1-3.1.884A5.464,5.464,0,0,1,69.3-.273a3.809,3.809,0,0,1-1.582-1.289,3.051,3.051,0,0,1-.566-1.768h2.3a1.672,1.672,0,0,0,.635,1.294,2.467,2.467,0,0,0,1.553.454,2.4,2.4,0,0,0,1.426-.356A1.1,1.1,0,0,0,73.555-2.871Z" transform="translate(581 5654)" fill="#12263f"/>
    <path id="Trazado_100985" data-name="Trazado 100985" d="M11.719-12.227H7.285V0H4.834V-12.227H.439v-1.992H11.719ZM17.139.2a4.91,4.91,0,0,1-3.657-1.421,5.154,5.154,0,0,1-1.4-3.784V-5.3a6.34,6.34,0,0,1,.61-2.827A4.645,4.645,0,0,1,14.4-10.068a4.531,4.531,0,0,1,2.461-.693A4.147,4.147,0,0,1,20.2-9.385a5.823,5.823,0,0,1,1.177,3.9v.957h-6.9a3.173,3.173,0,0,0,.874,2.07,2.624,2.624,0,0,0,1.929.762,3.213,3.213,0,0,0,2.656-1.318L21.211-1.8a4.272,4.272,0,0,1-1.694,1.47A5.3,5.3,0,0,1,17.139.2Zm-.283-9.053a2,2,0,0,0-1.577.684,3.543,3.543,0,0,0-.767,1.9h4.521v-.176a2.884,2.884,0,0,0-.635-1.8A1.983,1.983,0,0,0,16.855-8.857ZM27.559-1.7a2.146,2.146,0,0,0,1.475-.518A1.768,1.768,0,0,0,29.658-3.5h2.236a3.486,3.486,0,0,1-.615,1.841A4.035,4.035,0,0,1,29.717-.3a4.656,4.656,0,0,1-2.129.5A4.505,4.505,0,0,1,24.072-1.24a5.694,5.694,0,0,1-1.3-3.965v-.244a5.6,5.6,0,0,1,1.289-3.862,4.464,4.464,0,0,1,3.516-1.45,4.341,4.341,0,0,1,3.071,1.1,3.935,3.935,0,0,1,1.245,2.886H29.658a2.173,2.173,0,0,0-.62-1.494,2,2,0,0,0-1.479-.586,2.088,2.088,0,0,0-1.777.835,4.261,4.261,0,0,0-.635,2.534v.381a4.331,4.331,0,0,0,.62,2.563A2.086,2.086,0,0,0,27.559-1.7Zm8.33-8.867.068,1.221a3.8,3.8,0,0,1,3.076-1.416q3.3,0,3.359,3.779V0H40.02V-6.846a2.176,2.176,0,0,0-.435-1.489,1.828,1.828,0,0,0-1.421-.483,2.287,2.287,0,0,0-2.139,1.3V0H33.652V-10.566Zm8.477,5.186a6.231,6.231,0,0,1,.615-2.8,4.493,4.493,0,0,1,1.729-1.914,4.87,4.87,0,0,1,2.559-.669,4.615,4.615,0,0,1,3.472,1.377,5.416,5.416,0,0,1,1.44,3.652l.01.557a6.286,6.286,0,0,1-.6,2.793,4.439,4.439,0,0,1-1.719,1.9A4.906,4.906,0,0,1,49.287.2a4.584,4.584,0,0,1-3.579-1.489,5.7,5.7,0,0,1-1.343-3.97Zm2.373.205a4.258,4.258,0,0,0,.674,2.554,2.191,2.191,0,0,0,1.875.923,2.167,2.167,0,0,0,1.87-.937,4.7,4.7,0,0,0,.669-2.744,4.2,4.2,0,0,0-.688-2.539,2.2,2.2,0,0,0-1.87-.937,2.178,2.178,0,0,0-1.846.923A4.614,4.614,0,0,0,46.738-5.176ZM58.721,0H56.348V-15h2.373Zm2.139-5.381a6.231,6.231,0,0,1,.615-2.8A4.493,4.493,0,0,1,63.2-10.093a4.87,4.87,0,0,1,2.559-.669,4.615,4.615,0,0,1,3.472,1.377,5.416,5.416,0,0,1,1.44,3.652l.01.557a6.286,6.286,0,0,1-.6,2.793,4.439,4.439,0,0,1-1.719,1.9A4.906,4.906,0,0,1,65.781.2,4.584,4.584,0,0,1,62.2-1.294a5.7,5.7,0,0,1-1.343-3.97Zm2.373.205a4.258,4.258,0,0,0,.674,2.554,2.191,2.191,0,0,0,1.875.923,2.167,2.167,0,0,0,1.87-.937,4.7,4.7,0,0,0,.669-2.744,4.2,4.2,0,0,0-.688-2.539,2.2,2.2,0,0,0-1.87-.937,2.178,2.178,0,0,0-1.846.923A4.614,4.614,0,0,0,63.232-5.176Zm9.043-.186a6.18,6.18,0,0,1,1.157-3.931,3.714,3.714,0,0,1,3.071-1.47A3.48,3.48,0,0,1,79.346-9.5l.107-1.064h2.139V-.322A4.258,4.258,0,0,1,80.3,2.959a4.928,4.928,0,0,1-3.491,1.2,5.627,5.627,0,0,1-2.271-.483,4.034,4.034,0,0,1-1.685-1.265L73.975.986a3.392,3.392,0,0,0,2.7,1.3,2.621,2.621,0,0,0,1.865-.64,2.451,2.451,0,0,0,.684-1.88V-.947A3.494,3.494,0,0,1,76.484.2a3.705,3.705,0,0,1-3.032-1.475A6.38,6.38,0,0,1,72.275-5.361Zm2.363.205a4.254,4.254,0,0,0,.649,2.5,2.088,2.088,0,0,0,1.8.913,2.284,2.284,0,0,0,2.129-1.23V-7.617a2.251,2.251,0,0,0-2.109-1.2,2.1,2.1,0,0,0-1.821.928A4.763,4.763,0,0,0,74.639-5.156ZM86.582,0H84.209V-10.566h2.373Zm-.449-14.932h2.705l-2.705,2.959h-1.9ZM95.6,0a3.662,3.662,0,0,1-.273-.986A3.694,3.694,0,0,1,92.549.2a3.728,3.728,0,0,1-2.6-.908,2.906,2.906,0,0,1-1.006-2.246A3,3,0,0,1,90.2-5.552a6.081,6.081,0,0,1,3.589-.9h1.455v-.693a1.851,1.851,0,0,0-.459-1.313,1.819,1.819,0,0,0-1.4-.493,2.09,2.09,0,0,0-1.328.405,1.254,1.254,0,0,0-.518,1.03H89.17a2.634,2.634,0,0,1,.576-1.626,3.839,3.839,0,0,1,1.567-1.187,5.506,5.506,0,0,1,2.212-.43,4.434,4.434,0,0,1,2.959.933,3.326,3.326,0,0,1,1.133,2.622v4.766a5.4,5.4,0,0,0,.4,2.275V0ZM92.988-1.709a2.7,2.7,0,0,0,1.323-.342,2.284,2.284,0,0,0,.933-.918V-4.961H93.965a3.5,3.5,0,0,0-1.982.459,1.487,1.487,0,0,0-.664,1.3,1.387,1.387,0,0,0,.454,1.089A1.758,1.758,0,0,0,92.988-1.709Z" transform="translate(685 5654)" fill="#12263f"/>
    <path id="Trazado_100986" data-name="Trazado 100986" d="M4.053,0H1.592V-14.219H4.053Zm5.01-10.566.068,1.221a3.8,3.8,0,0,1,3.076-1.416q3.3,0,3.359,3.779V0H13.193V-6.846a2.176,2.176,0,0,0-.435-1.489,1.828,1.828,0,0,0-1.421-.483A2.287,2.287,0,0,0,9.2-7.52V0H6.826V-10.566Zm8.506,5.205a6.18,6.18,0,0,1,1.157-3.931,3.714,3.714,0,0,1,3.071-1.47A3.48,3.48,0,0,1,24.639-9.5l.107-1.064h2.139V-.322a4.258,4.258,0,0,1-1.294,3.281A4.928,4.928,0,0,1,22.1,4.16a5.627,5.627,0,0,1-2.271-.483,4.034,4.034,0,0,1-1.685-1.265L19.268.986a3.392,3.392,0,0,0,2.7,1.3,2.621,2.621,0,0,0,1.865-.64,2.451,2.451,0,0,0,.684-1.88V-.947A3.494,3.494,0,0,1,21.777.2a3.705,3.705,0,0,1-3.032-1.475A6.38,6.38,0,0,1,17.568-5.361Zm2.363.205a4.254,4.254,0,0,0,.649,2.5,2.088,2.088,0,0,0,1.8.913,2.284,2.284,0,0,0,2.129-1.23V-7.617a2.251,2.251,0,0,0-2.109-1.2,2.1,2.1,0,0,0-1.821.928A4.763,4.763,0,0,0,19.932-5.156ZM33.975.2a4.91,4.91,0,0,1-3.657-1.421,5.154,5.154,0,0,1-1.4-3.784V-5.3a6.34,6.34,0,0,1,.61-2.827,4.645,4.645,0,0,1,1.714-1.938,4.531,4.531,0,0,1,2.461-.693,4.147,4.147,0,0,1,3.335,1.377,5.823,5.823,0,0,1,1.177,3.9v.957h-6.9a3.173,3.173,0,0,0,.874,2.07,2.624,2.624,0,0,0,1.929.762,3.213,3.213,0,0,0,2.656-1.318L38.047-1.8a4.272,4.272,0,0,1-1.694,1.47A5.3,5.3,0,0,1,33.975.2Zm-.283-9.053a2,2,0,0,0-1.577.684,3.543,3.543,0,0,0-.767,1.9h4.521v-.176a2.884,2.884,0,0,0-.635-1.8A1.983,1.983,0,0,0,33.691-8.857Zm8.564-1.709.068,1.221A3.8,3.8,0,0,1,45.4-10.762q3.3,0,3.359,3.779V0H46.387V-6.846a2.176,2.176,0,0,0-.435-1.489,1.828,1.828,0,0,0-1.421-.483,2.287,2.287,0,0,0-2.139,1.3V0H40.02V-10.566ZM53.7,0H51.328V-10.566H53.7Zm-2.52-13.311a1.259,1.259,0,0,1,.347-.908,1.309,1.309,0,0,1,.991-.361,1.326,1.326,0,0,1,1,.361,1.25,1.25,0,0,1,.352.908,1.221,1.221,0,0,1-.352.894,1.336,1.336,0,0,1-1,.356,1.32,1.32,0,0,1-.991-.356A1.23,1.23,0,0,1,51.182-13.311ZM60.938.2A4.91,4.91,0,0,1,57.28-1.226a5.154,5.154,0,0,1-1.4-3.784V-5.3a6.34,6.34,0,0,1,.61-2.827A4.646,4.646,0,0,1,58.2-10.068a4.531,4.531,0,0,1,2.461-.693A4.147,4.147,0,0,1,64-9.385a5.822,5.822,0,0,1,1.177,3.9v.957h-6.9a3.173,3.173,0,0,0,.874,2.07,2.624,2.624,0,0,0,1.929.762A3.213,3.213,0,0,0,63.73-3.018L65.01-1.8a4.272,4.272,0,0,1-1.694,1.47A5.3,5.3,0,0,1,60.938.2Zm-.283-9.053a2,2,0,0,0-1.577.684,3.543,3.543,0,0,0-.767,1.9h4.521v-.176a2.884,2.884,0,0,0-.635-1.8A1.983,1.983,0,0,0,60.654-8.857ZM72.549-8.4a5.872,5.872,0,0,0-.967-.078,2.177,2.177,0,0,0-2.2,1.25V0H67.012V-10.566h2.266l.059,1.182a2.674,2.674,0,0,1,2.383-1.377,2.222,2.222,0,0,1,.84.137ZM76.6,0H74.229V-10.566H76.6Zm-.449-14.932h2.705l-2.705,2.959h-1.9ZM85.615,0a3.662,3.662,0,0,1-.273-.986A3.694,3.694,0,0,1,82.568.2a3.728,3.728,0,0,1-2.6-.908,2.906,2.906,0,0,1-1.006-2.246A3,3,0,0,1,80.22-5.552a6.081,6.081,0,0,1,3.589-.9h1.455v-.693A1.851,1.851,0,0,0,84.8-8.462a1.819,1.819,0,0,0-1.4-.493,2.09,2.09,0,0,0-1.328.405,1.254,1.254,0,0,0-.518,1.03H79.189a2.634,2.634,0,0,1,.576-1.626,3.839,3.839,0,0,1,1.567-1.187,5.506,5.506,0,0,1,2.212-.43,4.434,4.434,0,0,1,2.959.933,3.326,3.326,0,0,1,1.133,2.622v4.766a5.4,5.4,0,0,0,.4,2.275V0ZM83.008-1.709a2.7,2.7,0,0,0,1.323-.342,2.284,2.284,0,0,0,.933-.918V-4.961H83.984A3.5,3.5,0,0,0,82-4.5a1.487,1.487,0,0,0-.664,1.3,1.387,1.387,0,0,0,.454,1.089A1.758,1.758,0,0,0,83.008-1.709Z" transform="translate(815 5654)" fill="#12263f"/>
    <path id="Trazado_100987" data-name="Trazado 100987" d="M4.648-14.219l4.1,10.9,4.092-10.9h3.193V0H13.574V-4.687l.244-6.27L9.619,0H7.852L3.662-10.947l.244,6.26V0H1.445V-14.219ZM25.039,0a3.662,3.662,0,0,1-.273-.986A3.694,3.694,0,0,1,21.992.2a3.728,3.728,0,0,1-2.6-.908,2.906,2.906,0,0,1-1.006-2.246,3,3,0,0,1,1.255-2.593,6.081,6.081,0,0,1,3.589-.9h1.455v-.693a1.851,1.851,0,0,0-.459-1.313,1.819,1.819,0,0,0-1.4-.493A2.09,2.09,0,0,0,21.5-8.55a1.254,1.254,0,0,0-.518,1.03H18.613a2.634,2.634,0,0,1,.576-1.626,3.839,3.839,0,0,1,1.567-1.187,5.506,5.506,0,0,1,2.212-.43,4.434,4.434,0,0,1,2.959.933,3.326,3.326,0,0,1,1.133,2.622v4.766a5.4,5.4,0,0,0,.4,2.275V0ZM22.432-1.709a2.7,2.7,0,0,0,1.323-.342,2.284,2.284,0,0,0,.933-.918V-4.961H23.408a3.5,3.5,0,0,0-1.982.459,1.487,1.487,0,0,0-.664,1.3,1.387,1.387,0,0,0,.454,1.089A1.758,1.758,0,0,0,22.432-1.709ZM32.52-13.135v2.568h1.865v1.758H32.52v5.9a1.3,1.3,0,0,0,.239.874,1.109,1.109,0,0,0,.854.269,3.656,3.656,0,0,0,.83-.1V-.029A5.845,5.845,0,0,1,32.881.2q-2.734,0-2.734-3.018V-8.809H28.408v-1.758h1.738v-2.568ZM40.85.2a4.91,4.91,0,0,1-3.657-1.421,5.154,5.154,0,0,1-1.4-3.784V-5.3A6.34,6.34,0,0,1,36.4-8.13a4.646,4.646,0,0,1,1.714-1.938,4.531,4.531,0,0,1,2.461-.693,4.147,4.147,0,0,1,3.335,1.377,5.823,5.823,0,0,1,1.177,3.9v.957h-6.9a3.173,3.173,0,0,0,.874,2.07,2.624,2.624,0,0,0,1.929.762,3.213,3.213,0,0,0,2.656-1.318L44.922-1.8a4.272,4.272,0,0,1-1.694,1.47A5.3,5.3,0,0,1,40.85.2Zm-.283-9.053a2,2,0,0,0-1.577.684,3.543,3.543,0,0,0-.767,1.9h4.521v-.176a2.884,2.884,0,0,0-.635-1.8A1.983,1.983,0,0,0,40.566-8.857Zm8.594-1.709.068,1.1a3.8,3.8,0,0,1,3.047-1.3,2.921,2.921,0,0,1,2.9,1.621,3.748,3.748,0,0,1,3.242-1.621,3.294,3.294,0,0,1,2.6.967,4.257,4.257,0,0,1,.874,2.852V0H59.521V-6.875a2.1,2.1,0,0,0-.439-1.475,1.924,1.924,0,0,0-1.455-.469,1.976,1.976,0,0,0-1.323.435,2.292,2.292,0,0,0-.718,1.138L55.6,0H53.223V-6.953a1.693,1.693,0,0,0-1.9-1.865A2.089,2.089,0,0,0,49.3-7.656V0H46.924V-10.566ZM70.645,0a3.662,3.662,0,0,1-.273-.986A3.694,3.694,0,0,1,67.6.2,3.728,3.728,0,0,1,65-.713a2.906,2.906,0,0,1-1.006-2.246,3,3,0,0,1,1.255-2.593,6.081,6.081,0,0,1,3.589-.9h1.455v-.693a1.851,1.851,0,0,0-.459-1.313,1.819,1.819,0,0,0-1.4-.493,2.09,2.09,0,0,0-1.328.405,1.254,1.254,0,0,0-.518,1.03H64.219a2.634,2.634,0,0,1,.576-1.626,3.839,3.839,0,0,1,1.567-1.187,5.506,5.506,0,0,1,2.212-.43,4.434,4.434,0,0,1,2.959.933,3.326,3.326,0,0,1,1.133,2.622v4.766a5.4,5.4,0,0,0,.4,2.275V0ZM68.037-1.709a2.7,2.7,0,0,0,1.323-.342,2.284,2.284,0,0,0,.933-.918V-4.961H69.014a3.5,3.5,0,0,0-1.982.459,1.487,1.487,0,0,0-.664,1.3,1.387,1.387,0,0,0,.454,1.089A1.758,1.758,0,0,0,68.037-1.709ZM69.355-15h2.705l-2.705,2.959h-1.9Zm8.77,1.865v2.568H79.99v1.758H78.125v5.9a1.3,1.3,0,0,0,.239.874,1.109,1.109,0,0,0,.854.269,3.656,3.656,0,0,0,.83-.1V-.029A5.845,5.845,0,0,1,78.486.2q-2.734,0-2.734-3.018V-8.809H74.014v-1.758h1.738v-2.568ZM84.326,0H81.953V-10.566h2.373Zm-2.52-13.311a1.259,1.259,0,0,1,.347-.908,1.309,1.309,0,0,1,.991-.361,1.326,1.326,0,0,1,1,.361,1.25,1.25,0,0,1,.352.908,1.221,1.221,0,0,1-.352.894,1.336,1.336,0,0,1-1,.356,1.32,1.32,0,0,1-.991-.356A1.23,1.23,0,0,1,81.807-13.311ZM91.25-1.7a2.146,2.146,0,0,0,1.475-.518A1.768,1.768,0,0,0,93.35-3.5h2.236a3.486,3.486,0,0,1-.615,1.841A4.035,4.035,0,0,1,93.408-.3a4.656,4.656,0,0,1-2.129.5A4.505,4.505,0,0,1,87.764-1.24a5.694,5.694,0,0,1-1.3-3.965v-.244a5.6,5.6,0,0,1,1.289-3.862,4.464,4.464,0,0,1,3.516-1.45,4.341,4.341,0,0,1,3.071,1.1,3.935,3.935,0,0,1,1.245,2.886H93.35a2.173,2.173,0,0,0-.62-1.494,2,2,0,0,0-1.479-.586,2.088,2.088,0,0,0-1.777.835,4.261,4.261,0,0,0-.635,2.534v.381a4.331,4.331,0,0,0,.62,2.563A2.086,2.086,0,0,0,91.25-1.7ZM103.691,0a3.662,3.662,0,0,1-.273-.986A3.694,3.694,0,0,1,100.645.2a3.728,3.728,0,0,1-2.6-.908,2.906,2.906,0,0,1-1.006-2.246A3,3,0,0,1,98.3-5.552a6.081,6.081,0,0,1,3.589-.9h1.455v-.693a1.851,1.851,0,0,0-.459-1.313,1.819,1.819,0,0,0-1.4-.493,2.09,2.09,0,0,0-1.328.405,1.254,1.254,0,0,0-.518,1.03H97.266a2.634,2.634,0,0,1,.576-1.626,3.839,3.839,0,0,1,1.567-1.187,5.506,5.506,0,0,1,2.212-.43,4.434,4.434,0,0,1,2.959.933,3.326,3.326,0,0,1,1.133,2.622v4.766a5.4,5.4,0,0,0,.4,2.275V0Zm-2.607-1.709a2.7,2.7,0,0,0,1.323-.342,2.284,2.284,0,0,0,.933-.918V-4.961h-1.279a3.5,3.5,0,0,0-1.982.459,1.487,1.487,0,0,0-.664,1.3,1.387,1.387,0,0,0,.454,1.089A1.758,1.758,0,0,0,101.084-1.709Zm13.037-1.162a1.076,1.076,0,0,0-.522-.967,5.557,5.557,0,0,0-1.733-.586,8.911,8.911,0,0,1-2.021-.645,2.7,2.7,0,0,1-1.777-2.49,2.813,2.813,0,0,1,1.152-2.285,4.556,4.556,0,0,1,2.93-.918,4.74,4.74,0,0,1,3.062.938,2.975,2.975,0,0,1,1.167,2.432H114A1.462,1.462,0,0,0,113.5-8.53a1.946,1.946,0,0,0-1.348-.454,2.1,2.1,0,0,0-1.274.361,1.139,1.139,0,0,0-.493.967.962.962,0,0,0,.459.85,6.312,6.312,0,0,0,1.855.61,8.783,8.783,0,0,1,2.192.732,3.1,3.1,0,0,1,1.182,1.021A2.6,2.6,0,0,1,116.455-3a2.753,2.753,0,0,1-1.182,2.31,5.039,5.039,0,0,1-3.1.884,5.464,5.464,0,0,1-2.314-.469,3.809,3.809,0,0,1-1.582-1.289,3.051,3.051,0,0,1-.566-1.768h2.3a1.672,1.672,0,0,0,.635,1.294,2.467,2.467,0,0,0,1.553.454,2.4,2.4,0,0,0,1.426-.356A1.1,1.1,0,0,0,114.121-2.871Z" transform="translate(931 5654)" fill="#12263f"/>
  </g>
</svg>
