<svg xmlns="http://www.w3.org/2000/svg" width="255" height="255" viewBox="0 0 255 255">
  <g id="Grupo_55158" data-name="Grupo 55158" transform="translate(10057 9127)">
    <rect id="Rectángulo_5153" data-name="Rectángulo 5153" width="255" height="255" rx="21" transform="translate(-10057 -9127)" fill="#efefef"/>
    <g id="Grupo_55141" data-name="Grupo 55141" transform="translate(-10038.718 -9105.518)">
      <path id="Trazado_99202" data-name="Trazado 99202" d="M505.756,158c-8.019-1.348-11.677-18.013-8.327-37.939S509.684,85.581,517.7,86.93s11.677,18.012,8.327,37.939S513.775,159.348,505.756,158Zm11.693-69.557c-6.932-1.165-15.407,13.431-18.507,31.873s.137,35.006,7.069,36.172,15.406-13.431,18.507-31.873S524.38,89.607,517.449,88.442Z" transform="translate(-475.494 -86.36)" fill="#31326f"/>
      <path id="Trazado_99203" data-name="Trazado 99203" d="M466.305,154.233c-2.6-.437-4.523-1.385-5.575-2.876a5.471,5.471,0,0,1-.675-4.676c1.711-6.793,13.116-16.476,28.381-24.1,19.791-9.878,38.661-12.845,42.956-6.756a5.472,5.472,0,0,1,.675,4.677c-1.71,6.793-13.116,16.476-28.381,24.094C488.74,152.061,474.32,155.58,466.305,154.233Zm59.308-39.8c-7.513-1.263-22.09,2.339-36.492,9.527-14.656,7.315-26,16.813-27.579,23.1a4.013,4.013,0,0,0,.441,3.418c3.741,5.3,22.525,1.986,41.017-7.244h0c14.655-7.315,26-16.813,27.579-23.1a4.014,4.014,0,0,0-.441-3.418C529.311,115.541,527.747,114.789,525.613,114.431Z" transform="translate(-459.825 -97.489)" fill="#31326f"/>
      <path id="Trazado_99204" data-name="Trazado 99204" d="M521.985,155.872c-8.168-1.373-20.57-8.2-32.654-18.516h0c-13.255-11.32-22.191-23.635-22.236-30.644a5.325,5.325,0,0,1,1.7-4.25c5.531-4.848,23.214,2.757,40.258,17.313,13.255,11.32,22.191,23.636,22.236,30.645a5.323,5.323,0,0,1-1.7,4.25C527.98,156.081,525.338,156.436,521.985,155.872ZM490.328,136.19c17.577,15.011,33.97,21.078,38.251,17.326a3.865,3.865,0,0,0,1.179-3.086c-.042-6.486-8.964-18.613-21.7-29.487-17.578-15.012-33.969-21.079-38.251-17.326a3.867,3.867,0,0,0-1.179,3.086C468.671,113.188,477.594,125.314,490.328,136.19Z" transform="translate(-462.958 -92.461)" fill="#31326f"/>
      <g id="Grupo_53367" data-name="Grupo 53367" transform="translate(60.47 55.928)">
        <path id="Trazado_99205" data-name="Trazado 99205" d="M572.245,194.938a5.464,5.464,0,0,1-5.713-3.212,5.152,5.152,0,0,1-.347-3.165,5.406,5.406,0,0,1,7.873-3.62c.1.056.195.114.29.173a5.125,5.125,0,0,1,1.322,1.23A5.415,5.415,0,0,1,572.245,194.938Z" transform="translate(-566.077 -184.265)" fill="#9ddfd3"/>
        <path id="Trazado_99206" data-name="Trazado 99206" d="M572.589,196.511a5.464,5.464,0,0,1-5.714-3.212,11.3,11.3,0,0,0,2.422.718,5.529,5.529,0,0,0,6.719-6.05c0-.015,0-.035,0-.051A5.415,5.415,0,0,1,572.589,196.511Z" transform="translate(-566.421 -185.838)" opacity="0.5" style="mix-blend-mode: soft-light;isolation: isolate"/>
        <path id="Trazado_99207" data-name="Trazado 99207" d="M574.575,186.616a1.536,1.536,0,0,0-.765-.812,3.725,3.725,0,0,0-5.067,2.071,1.313,1.313,0,0,0,.544,1.453,2.643,2.643,0,0,0,2.033.123,6.941,6.941,0,0,0,2.507-1.342C574.259,187.758,574.759,187.21,574.575,186.616Z" transform="translate(-567.206 -184.771)" fill="#fff" style="mix-blend-mode: soft-light;isolation: isolate"/>
      </g>
      <g id="Grupo_53368" data-name="Grupo 53368" transform="translate(1.664 35.581)">
        <path id="Trazado_99208" data-name="Trazado 99208" d="M468.918,159.186a5.465,5.465,0,0,1-5.713-3.212,5.156,5.156,0,0,1-.347-3.166,5.406,5.406,0,0,1,7.873-3.62c.1.056.195.114.29.174a5.117,5.117,0,0,1,1.322,1.229A5.416,5.416,0,0,1,468.918,159.186Z" transform="translate(-462.75 -148.513)" fill="#9ddfd3"/>
        <path id="Trazado_99209" data-name="Trazado 99209" d="M469.263,160.76a5.465,5.465,0,0,1-5.713-3.212,11.294,11.294,0,0,0,2.423.718,5.528,5.528,0,0,0,6.718-6.05c0-.016,0-.035,0-.051A5.416,5.416,0,0,1,469.263,160.76Z" transform="translate(-463.094 -150.086)" opacity="0.5" style="mix-blend-mode: soft-light;isolation: isolate"/>
        <path id="Trazado_99210" data-name="Trazado 99210" d="M471.249,150.864a1.535,1.535,0,0,0-.765-.812,3.726,3.726,0,0,0-5.067,2.071,1.312,1.312,0,0,0,.545,1.452,2.641,2.641,0,0,0,2.032.123,6.95,6.95,0,0,0,2.507-1.343C470.932,152.007,471.432,151.458,471.249,150.864Z" transform="translate(-463.879 -149.019)" fill="#fff" style="mix-blend-mode: soft-light;isolation: isolate"/>
      </g>
      <g id="Grupo_53369" data-name="Grupo 53369" transform="translate(29.185 0)">
        <path id="Trazado_99211" data-name="Trazado 99211" d="M517.273,96.667a5.465,5.465,0,0,1-5.713-3.212,5.156,5.156,0,0,1-.347-3.166,5.405,5.405,0,0,1,7.873-3.619c.1.055.195.114.29.173a5.123,5.123,0,0,1,1.322,1.229A5.416,5.416,0,0,1,517.273,96.667Z" transform="translate(-511.105 -85.994)" fill="#9ddfd3"/>
        <path id="Trazado_99212" data-name="Trazado 99212" d="M517.618,98.241a5.466,5.466,0,0,1-5.714-3.212,11.307,11.307,0,0,0,2.423.718,5.528,5.528,0,0,0,6.719-6.05c0-.016,0-.035,0-.051A5.415,5.415,0,0,1,517.618,98.241Z" transform="translate(-511.449 -87.568)" opacity="0.5" style="mix-blend-mode: soft-light;isolation: isolate"/>
        <path id="Trazado_99213" data-name="Trazado 99213" d="M519.6,88.345a1.537,1.537,0,0,0-.765-.812,3.725,3.725,0,0,0-5.067,2.071,1.312,1.312,0,0,0,.544,1.452,2.642,2.642,0,0,0,2.033.123,6.951,6.951,0,0,0,2.506-1.343C519.288,89.488,519.787,88.939,519.6,88.345Z" transform="translate(-512.235 -86.5)" fill="#fff" style="mix-blend-mode: soft-light;isolation: isolate"/>
      </g>
      <g id="Grupo_53370" data-name="Grupo 53370" transform="translate(27.427 27.269)">
        <path id="Trazado_99214" data-name="Trazado 99214" d="M518.2,151.536a9.025,9.025,0,0,1-9.436-5.3A8.514,8.514,0,0,1,508.2,141a8.928,8.928,0,0,1,13-5.978c.165.092.322.189.479.286a8.458,8.458,0,0,1,2.183,2.031C527.667,142.316,525.136,150.536,518.2,151.536Z" transform="translate(-508.017 -133.908)" fill="#cc3d60"/>
        <path id="Trazado_99215" data-name="Trazado 99215" d="M518.773,154.135a9.025,9.025,0,0,1-9.436-5.3,18.689,18.689,0,0,0,4,1.186,10.1,10.1,0,0,0,6.4-.883c3.159-1.711,4.794-5.514,4.7-9.108,0-.026,0-.058-.005-.084C528.236,144.915,525.7,153.135,518.773,154.135Z" transform="translate(-508.586 -136.507)" opacity="0.5" style="mix-blend-mode: soft-light;isolation: isolate"/>
        <path id="Trazado_99216" data-name="Trazado 99216" d="M522.053,137.791a2.536,2.536,0,0,0-1.264-1.341c-2.989-1.629-7.562.243-8.368,3.42a2.167,2.167,0,0,0,.9,2.4,4.365,4.365,0,0,0,3.357.2,11.466,11.466,0,0,0,4.14-2.217C521.531,139.679,522.357,138.772,522.053,137.791Z" transform="translate(-509.883 -134.745)" fill="#fff" style="mix-blend-mode: soft-light;isolation: isolate"/>
      </g>
    </g>
    <g id="Grupo_55142" data-name="Grupo 55142" transform="translate(-9877.404 -8963.264)">
      <path id="Trazado_99217" data-name="Trazado 99217" d="M403.83,366.6c-.454-.572-.878-1.1-1.24-1.53a1.035,1.035,0,0,0-1.381-.174,30.214,30.214,0,0,0-5.065,4.547c-.178.193-.362.391-.549.595a16.833,16.833,0,0,0-4.166-2.676c.114-.346.222-.689.33-1.026a33.248,33.248,0,0,0,1.534-6.468,1.036,1.036,0,0,0-.818-1.136c-2.254-.44-6.149-.967-8.356-1.16a1.035,1.035,0,0,0-1.1.852,30.178,30.178,0,0,0-.365,6.8c.014.381.029.783.051,1.187a16.924,16.924,0,0,0-4.664.959c-.045.015-.09.035-.134.05-.22-.443-.446-.883-.669-1.312a33.289,33.289,0,0,0-3.488-5.656,1.033,1.033,0,0,0-1.383-.224c-1.9,1.282-5.029,3.661-6.726,5.086a1.037,1.037,0,0,0-.176,1.383,30.193,30.193,0,0,0,4.546,5.066c.23.211.466.431.709.653-.009.011-.02.019-.029.03a17.08,17.08,0,0,0-2.557,4.19c-.444-.149-.887-.29-1.323-.428a33.222,33.222,0,0,0-6.468-1.534,1.033,1.033,0,0,0-1.134.82c-.441,2.251-.968,6.146-1.162,8.353a1.035,1.035,0,0,0,.855,1.1,30.316,30.316,0,0,0,6.8.369l1.019-.044a17.4,17.4,0,0,0,1.083,4.834c-.414.2-.821.414-1.223.621a33.329,33.329,0,0,0-5.654,3.491,1.03,1.03,0,0,0-.225,1.38c.239.358.518.759.82,1.181.913,1.279,2.051,2.786,3.053,4.052.443.563.859,1.076,1.213,1.5a1.034,1.034,0,0,0,1.38.174,29.968,29.968,0,0,0,5.066-4.547c.234-.251.474-.511.716-.78a18.087,18.087,0,0,0,4.309,2.6c-.161.474-.312.945-.459,1.41a33.421,33.421,0,0,0-1.533,6.464,1.029,1.029,0,0,0,.818,1.136c2.256.443,6.149.967,8.358,1.163a1.031,1.031,0,0,0,1.1-.853,30.038,30.038,0,0,0,.368-6.8c-.013-.369-.029-.753-.05-1.15a17.188,17.188,0,0,0,4.76-1.161q.339.685.686,1.347a33.284,33.284,0,0,0,3.488,5.656,1.033,1.033,0,0,0,1.383.224c1.906-1.279,5.029-3.661,6.726-5.087a1.028,1.028,0,0,0,.176-1.378,30,30,0,0,0-4.544-5.068c-.26-.24-.531-.49-.811-.741a17.7,17.7,0,0,0,2.706-4.166c.414.142.828.274,1.236.4a33.262,33.262,0,0,0,6.467,1.531,1.029,1.029,0,0,0,1.136-.818c.442-2.252.969-6.147,1.162-8.354a1.035,1.035,0,0,0-.855-1.1,29.981,29.981,0,0,0-6.8-.37l-.9.037a18.285,18.285,0,0,0-1.2-4.852c.385-.19.763-.384,1.13-.575a33.6,33.6,0,0,0,5.657-3.488,1.036,1.036,0,0,0,.226-1.385c-.343-.507-.764-1.1-1.224-1.737C405.63,368.929,404.678,367.678,403.83,366.6ZM390.755,380.2a7.068,7.068,0,0,1,.733,2A7.343,7.343,0,0,1,380,389.728a7.531,7.531,0,0,1-2.147-2.4l0-.006a7.824,7.824,0,0,1-1.021-3.9,7.453,7.453,0,0,1,6.252-7.008,7.189,7.189,0,0,1,5.746,1.494,7.582,7.582,0,0,1,.9.838A7.218,7.218,0,0,1,390.755,380.2Z" transform="translate(-358.039 -357.565)" fill="#24b3b3"/>
      <g id="Grupo_53372" data-name="Grupo 53372" transform="translate(5.146 5.332)">
        <path id="Trazado_99218" data-name="Trazado 99218" d="M421.992,370.23c.148-.982-.775-1.131-.923-.146a55.759,55.759,0,0,0-.978,8.4c0,.3.275.357.368.058A55.773,55.773,0,0,0,421.992,370.23Z" transform="translate(-397.314 -369.415)" fill="#263780"/>
        <path id="Trazado_99219" data-name="Trazado 99219" d="M451.157,420.662c.983.148,1.131-.775.146-.923a55.7,55.7,0,0,0-8.4-.977c-.3,0-.357.275-.058.368A55.776,55.776,0,0,0,451.157,420.662Z" transform="translate(-409.721 -396.556)" fill="#263780"/>
        <path id="Trazado_99220" data-name="Trazado 99220" d="M408.864,448.463c-.147.983.775,1.131.923.146a55.713,55.713,0,0,0,.978-8.4c0-.3-.275-.357-.369-.059A55.773,55.773,0,0,0,408.864,448.463Z" transform="translate(-391.131 -408.213)" fill="#263780"/>
        <path id="Trazado_99221" data-name="Trazado 99221" d="M370.29,407.118c-.983-.148-1.131.775-.146.923a55.7,55.7,0,0,0,8.4.978c.3,0,.357-.275.058-.369A55.725,55.725,0,0,0,370.29,407.118Z" transform="translate(-369.475 -390.144)" fill="#263780"/>
        <path id="Trazado_99222" data-name="Trazado 99222" d="M444.365,388.208c.8-.59.252-1.348-.549-.756a55.713,55.713,0,0,0-6.63,5.247c-.213.216-.059.447.219.3A55.772,55.772,0,0,0,444.365,388.208Z" transform="translate(-406.662 -379.217)" fill="#263780"/>
        <path id="Trazado_99223" data-name="Trazado 99223" d="M437.512,444.426c.59.8,1.348.252.755-.549a55.656,55.656,0,0,0-5.247-6.63c-.216-.213-.446-.059-.3.219A55.7,55.7,0,0,0,437.512,444.426Z" transform="translate(-404.235 -406.669)" fill="#263780"/>
        <path id="Trazado_99224" data-name="Trazado 99224" d="M379.557,434.788c-.8.591-.252,1.348.55.756a55.658,55.658,0,0,0,6.63-5.247c.213-.216.058-.446-.219-.3A55.781,55.781,0,0,0,379.557,434.788Z" transform="translate(-374.805 -402.711)" fill="#263780"/>
        <path id="Trazado_99225" data-name="Trazado 99225" d="M389.806,378.071c-.59-.8-1.348-.252-.756.55a55.666,55.666,0,0,0,5.247,6.63c.216.213.446.058.3-.22A55.771,55.771,0,0,0,389.806,378.071Z" transform="translate(-380.123 -373.961)" fill="#263780"/>
      </g>
      <path id="Trazado_99226" data-name="Trazado 99226" d="M414.429,385.335c.461.634.881,1.23,1.224,1.737a1.036,1.036,0,0,1-.226,1.385,33.6,33.6,0,0,1-5.657,3.488c-.367.191-.745.384-1.13.575a18.285,18.285,0,0,1,1.2,4.852l.9-.037a29.983,29.983,0,0,1,6.8.369,1.035,1.035,0,0,1,.855,1.1c-.194,2.207-.72,6.1-1.162,8.354a1.029,1.029,0,0,1-1.136.818,33.261,33.261,0,0,1-6.467-1.531c-.408-.129-.823-.261-1.236-.4a17.7,17.7,0,0,1-2.706,4.166c.28.251.551.5.811.741a30,30,0,0,1,4.544,5.068,1.028,1.028,0,0,1-.176,1.378c-1.7,1.425-4.821,3.807-6.726,5.087a1.033,1.033,0,0,1-1.383-.224,33.286,33.286,0,0,1-3.488-5.656q-.346-.661-.686-1.347a17.185,17.185,0,0,1-4.76,1.161c.021.4.037.781.05,1.15a30.034,30.034,0,0,1-.368,6.8,1.031,1.031,0,0,1-1.1.853c-2.209-.2-6.1-.72-8.358-1.163a1.029,1.029,0,0,1-.818-1.136,33.421,33.421,0,0,1,1.533-6.463c.147-.464.3-.935.459-1.41a18.085,18.085,0,0,1-4.309-2.6c-.242.27-.482.53-.716.78a29.965,29.965,0,0,1-5.066,4.547,1.034,1.034,0,0,1-1.381-.174c-.354-.423-.77-.936-1.213-1.5.609-.66,1.287-1.259,1.923-1.84q.9-.821,1.831-1.6c.99-.843,1.994-1.667,2.992-2.5a1.548,1.548,0,0,1,.74-.414,1.47,1.47,0,0,1,1.17.621,11.728,11.728,0,0,0,3.145,1.888,15.209,15.209,0,0,0,22.3-14.381,13.236,13.236,0,0,0-.783-4.333,3.787,3.787,0,0,1-.409-1.369,2.132,2.132,0,0,1,.687-1.482,13.888,13.888,0,0,1,2-1.359,22.413,22.413,0,0,1,2.27-1.276,22.994,22.994,0,0,0,3.815-2.553C414.258,385.468,414.331,385.411,414.429,385.335Z" transform="translate(-366.015 -372.839)" opacity="0.5" style="mix-blend-mode: soft-light;isolation: isolate"/>
      <path id="Trazado_99227" data-name="Trazado 99227" d="M412.015,400.73a7.578,7.578,0,0,0-.9-.838,7.189,7.189,0,0,0-5.746-1.494,7.452,7.452,0,0,0-6.252,7.008,7.823,7.823,0,0,0,1.021,3.9,6.374,6.374,0,0,1-1.569-4.4,7.325,7.325,0,0,1,3.849-6.255c2.261-1.287,5.263-1.6,7.444-.2A6.557,6.557,0,0,1,412.015,400.73Z" transform="translate(-380.331 -379.547)" opacity="0.5" style="mix-blend-mode: soft-light;isolation: isolate"/>
      <path id="Trazado_99228" data-name="Trazado 99228" d="M403.83,366.6a10.508,10.508,0,0,1-1.888,1.742q-.9.822-1.831,1.6c-.99.843-1.994,1.667-2.992,2.5a1.544,1.544,0,0,1-.74.415,1.471,1.471,0,0,1-1.169-.621,11.729,11.729,0,0,0-3.146-1.888,15.209,15.209,0,0,0-22.3,14.381,13.222,13.222,0,0,0,.783,4.333,3.806,3.806,0,0,1,.409,1.369,2.132,2.132,0,0,1-.687,1.482,13.879,13.879,0,0,1-2,1.36,22.66,22.66,0,0,1-2.27,1.276,23.1,23.1,0,0,1-4.186,2.142c-.1.029-.2.055-.3.081-.3-.422-.581-.823-.82-1.181a1.03,1.03,0,0,1,.225-1.38,33.329,33.329,0,0,1,5.654-3.491c.4-.207.81-.419,1.223-.621a17.4,17.4,0,0,1-1.083-4.834l-1.019.044a30.316,30.316,0,0,1-6.8-.369,1.035,1.035,0,0,1-.855-1.1c.194-2.207.72-6.1,1.162-8.353a1.033,1.033,0,0,1,1.134-.82,33.222,33.222,0,0,1,6.468,1.534c.436.138.879.279,1.323.428a17.08,17.08,0,0,1,2.557-4.19c.009-.011.02-.019.029-.03-.243-.223-.479-.442-.709-.653a30.193,30.193,0,0,1-4.546-5.066,1.037,1.037,0,0,1,.176-1.383c1.7-1.425,4.823-3.8,6.726-5.086a1.033,1.033,0,0,1,1.383.224,33.289,33.289,0,0,1,3.488,5.656c.223.429.449.869.669,1.312.044-.015.089-.035.134-.05a16.924,16.924,0,0,1,4.664-.959c-.022-.4-.037-.806-.051-1.187a30.178,30.178,0,0,1,.365-6.8,1.035,1.035,0,0,1,1.1-.852c2.207.194,6.1.72,8.356,1.16a1.036,1.036,0,0,1,.818,1.136,33.248,33.248,0,0,1-1.534,6.468c-.107.338-.216.68-.33,1.026a16.833,16.833,0,0,1,4.166,2.676c.187-.2.371-.4.549-.595a30.214,30.214,0,0,1,5.065-4.547,1.035,1.035,0,0,1,1.381.174C402.952,365.5,403.376,366.027,403.83,366.6Z" transform="translate(-358.039 -357.565)" fill="#fff" style="mix-blend-mode: soft-light;isolation: isolate"/>
      <path id="Trazado_99229" data-name="Trazado 99229" d="M417.595,407.877a7.05,7.05,0,0,1,1.422,4.429,7.7,7.7,0,0,1-2.679,5.456,7.134,7.134,0,0,1-9.5-.361,7.343,7.343,0,0,0,11.491-7.522A7.071,7.071,0,0,0,417.595,407.877Z" transform="translate(-384.879 -385.238)" fill="#fff" style="mix-blend-mode: soft-light;isolation: isolate"/>
    </g>
    <g id="chico" transform="translate(-9989 -9076)">
      <g id="Grupo_53406" data-name="Grupo 53406" transform="translate(2.419 2.418)">
        <path id="Trazado_99303" data-name="Trazado 99303" d="M211.023,421.391H129.31a47.5,47.5,0,0,1,30.881-22.27V381.832h19.953v17.289A47.5,47.5,0,0,1,211.023,421.391Z" transform="translate(-113.047 -261.111)" fill="#ffc93c"/>
        <path id="Trazado_99304" data-name="Trazado 99304" d="M165.7,381.828v17.291c-5.878,2.809-10.851,11.057-13.821,22.27H129.31a47.5,47.5,0,0,1,30.88-22.27V381.828Z" transform="translate(-113.047 -261.108)" fill="#ffdc81"/>
        <path id="Trazado_99305" data-name="Trazado 99305" d="M235.264,392.578H214.4a4.128,4.128,0,0,1-4.128-4.128v-2.49a4.128,4.128,0,0,1,4.128-4.128h20.864a4.128,4.128,0,0,1,4.128,4.128v2.49A4.128,4.128,0,0,1,235.264,392.578Z" transform="translate(-167.9 -261.111)" fill="#b3e59f"/>
        <path id="Trazado_99306" data-name="Trazado 99306" d="M226.626,392.576H214.4a4.127,4.127,0,0,1-4.128-4.128v-2.489a4.13,4.13,0,0,1,4.128-4.131h12.225a4.13,4.13,0,0,0-4.128,4.131v2.489A4.127,4.127,0,0,0,226.626,392.576Z" transform="translate(-167.9 -261.108)" fill="#95d6a4"/>
        <path id="Trazado_99307" data-name="Trazado 99307" d="M205.454,90.9V31.747A15.535,15.535,0,0,0,176.5,23.914a35.52,35.52,0,0,0-65.464,19.108v47.6" transform="translate(-100.669 -7.499)" fill="#9ddfd3"/>
        <path id="Trazado_99308" data-name="Trazado 99308" d="M111.04,90.617v-47.6a35.53,35.53,0,0,1,50.7-32.121A35.54,35.54,0,0,0,141.4,43.021v47.6Z" transform="translate(-100.669 -7.498)" fill="#dbf6e9"/>
        <g id="Grupo_53405" data-name="Grupo 53405" transform="translate(0 72.657)">
          <circle id="Elipse_6" data-name="Elipse 6" cx="12.774" cy="12.774" r="12.774" fill="#f5fffa"/>
          <circle id="Elipse_7" data-name="Elipse 7" cx="12.774" cy="12.774" r="12.774" transform="translate(88.693)" fill="#f5fffa"/>
        </g>
        <path id="Trazado_99309" data-name="Trazado 99309" d="M214.223,139.824v25.668a34.968,34.968,0,0,1-34.969,34.969H173.3a34.971,34.971,0,0,1-34.972-34.969V139.824c0-.1,0-.21,0-.313.094-11.909,12.982-19.222,23.4-13.447a30.072,30.072,0,0,0,41.482-12.973A37.817,37.817,0,0,1,214.223,139.824Z" transform="translate(-119.154 -79.038)" fill="#f5fffa"/>
        <path id="Trazado_99310" data-name="Trazado 99310" d="M187.646,222.466a34.894,34.894,0,0,1-8.387,1.016H173.3a34.971,34.971,0,0,1-34.972-34.969V162.844c0-.1,0-.21,0-.313.094-11.909,12.983-19.222,23.4-13.447a29.605,29.605,0,0,0,4.479,2.019,15.287,15.287,0,0,0-5.147,11.428c0,.1,0,.21,0,.313v25.668A34.98,34.98,0,0,0,187.646,222.466Z" transform="translate(-119.156 -102.059)" fill="#e0ffef"/>
      </g>
      <g id="Grupo_53407" data-name="Grupo 53407" transform="translate(0)">
        <path id="Trazado_99311" data-name="Trazado 99311" d="M181,73.784V26.668A17.951,17.951,0,0,0,149.674,14.7,37.94,37.94,0,0,0,81.75,37.942v35.5A15.192,15.192,0,1,0,92.817,101.7a37.583,37.583,0,0,0,21.913,22.146,6.5,6.5,0,0,0-.975,3.421v2.489a6.554,6.554,0,0,0,4.771,6.3v2.461a48.916,48.916,0,0,0-5.1,1.6,2.419,2.419,0,1,0,1.7,4.528,44.483,44.483,0,0,1,6.321-1.85,2.419,2.419,0,0,0,1.912-2.365V136.3h15.112v4.125a2.419,2.419,0,0,0,1.913,2.365,45.108,45.108,0,0,1,26.9,17.484H94.549a45.4,45.4,0,0,1,12.444-11.6,2.419,2.419,0,1,0-2.573-4.1,50.238,50.238,0,0,0-16.443,16.887,2.419,2.419,0,0,0,2.082,3.65h81.714a2.419,2.419,0,0,0,2.082-3.65,50.017,50.017,0,0,0-30.542-22.953v-2.579a6.552,6.552,0,0,0,4.4-6.177V127.27a6.5,6.5,0,0,0-.905-3.307A37.581,37.581,0,0,0,169.019,101.7,15.193,15.193,0,1,0,181,73.784ZM96.285,14.532a33.1,33.1,0,0,1,51.31,5.6,2.419,2.419,0,0,0,4.126-.082,13.117,13.117,0,0,1,24.444,6.615V72.684c-.3-.017-.6-.029-.9-.029a15.222,15.222,0,0,0-3.979.531V63.205A40.368,40.368,0,0,0,169.3,50.672a2.419,2.419,0,0,0-4.6,1.5,35.526,35.526,0,0,1,1.745,11.034V68.75l-2.9,1.575a9.328,9.328,0,0,0-8.566-5.658H142.462a9.328,9.328,0,0,0-9.215,7.961,7.966,7.966,0,0,0-4.655,0,9.328,9.328,0,0,0-9.215-7.961H106.86a9.328,9.328,0,0,0-8.566,5.658l-2.908-1.578V63.206c0-.079,0-.16,0-.239,0-.018,0-.036,0-.055A13,13,0,0,1,101.9,51.7a13.337,13.337,0,0,1,13.3-.135,32.511,32.511,0,0,0,15.716,4.05,32.253,32.253,0,0,0,27.4-15.032,35.689,35.689,0,0,1,2.5,3.415,2.419,2.419,0,1,0,4.068-2.618,40.513,40.513,0,0,0-5.31-6.61,2.419,2.419,0,0,0-3.884.631A27.653,27.653,0,0,1,117.547,47.33a18.133,18.133,0,0,0-18.088.189,17.8,17.8,0,0,0-8.907,15.33c0,.118,0,.239,0,.357v9.98a15.244,15.244,0,0,0-3.962-.53V37.942a32.891,32.891,0,0,1,9.7-23.41Zm63.17,59.45V86.06a4.483,4.483,0,0,1-4.478,4.478H142.462a4.483,4.483,0,0,1-4.478-4.478V73.982a4.483,4.483,0,0,1,4.478-4.478h12.516a4.482,4.482,0,0,1,4.478,4.478Zm-35.6,0V86.06a4.483,4.483,0,0,1-4.478,4.478H106.86a4.483,4.483,0,0,1-4.478-4.478V73.982A4.483,4.483,0,0,1,106.86,69.5h12.516a4.483,4.483,0,0,1,4.478,4.478ZM86.571,98.2a10.355,10.355,0,1,1,3.977-19.919v5.407a11.5,11.5,0,0,0-3.2-.773,14.675,14.675,0,0,0-4.588.271,2.419,2.419,0,1,0,1.153,4.7,10.18,10.18,0,0,1,2.951-.155,4.882,4.882,0,0,1,3.691,1.852,37.307,37.307,0,0,0,.881,7.4A10.256,10.256,0,0,1,86.571,98.2Zm54.593,27.353a1.713,1.713,0,0,1,1.709,1.712v2.489a1.711,1.711,0,0,1-1.709,1.709H120.3a1.711,1.711,0,0,1-1.709-1.709v-2.489a1.713,1.713,0,0,1,1.709-1.712h.414a37.424,37.424,0,0,0,7.224.7h5.96a37.441,37.441,0,0,0,7.223-.7Zm-7.266-4.135h-5.96a32.588,32.588,0,0,1-32.552-32.55V74.25l2.159,1.171V86.059a9.325,9.325,0,0,0,9.315,9.315h12.516a9.325,9.325,0,0,0,9.315-9.315V78.051a3.125,3.125,0,0,1,4.456,0v8.008a9.325,9.325,0,0,0,9.315,9.315h12.516a9.325,9.325,0,0,0,9.315-9.315V75.421l2.156-1.169v14.62a32.587,32.587,0,0,1-32.55,32.55ZM175.265,98.2a10.27,10.27,0,0,1-4.868-1.217,37.311,37.311,0,0,0,.88-7.4,4.83,4.83,0,0,1,3.58-1.845,10.115,10.115,0,0,1,3.076.145,2.419,2.419,0,0,0,1.144-4.7,14.667,14.667,0,0,0-4.588-.271,11.5,11.5,0,0,0-3.2.774V78.287A10.356,10.356,0,1,1,175.265,98.2Z" transform="translate(-71.379 0)" fill="#21214b"/>
        <ellipse id="Elipse_8" data-name="Elipse 8" cx="4.232" cy="5.798" rx="4.232" ry="5.798" transform="translate(38.896 73.413)" fill="#21214b"/>
        <path id="Trazado_99312" data-name="Trazado 99312" d="M298,227.64c-2.333,0-4.231,2.6-4.231,5.8s1.9,5.8,4.231,5.8,4.232-2.6,4.232-5.8S300.337,227.64,298,227.64Z" transform="translate(-222.051 -154.227)" fill="#21214b"/>
        <path id="Trazado_99313" data-name="Trazado 99313" d="M178,178.772a2.419,2.419,0,1,0,3.42,3.421,4.927,4.927,0,0,1,6.96,0,2.419,2.419,0,1,0,3.42-3.421A9.77,9.77,0,0,0,178,178.772Z" transform="translate(-143.136 -119.185)" fill="#21214b"/>
        <path id="Trazado_99314" data-name="Trazado 99314" d="M289.363,178.772a2.419,2.419,0,1,0,3.42,3.421,4.927,4.927,0,0,1,6.96,0,2.419,2.419,0,1,0,3.42-3.421A9.77,9.77,0,0,0,289.363,178.772Z" transform="translate(-218.584 -119.185)" fill="#21214b"/>
        <path id="Trazado_99315" data-name="Trazado 99315" d="M245.494,303.047a2.418,2.418,0,0,0-3.382.51,5.334,5.334,0,0,1-8.581,0,2.419,2.419,0,1,0-3.892,2.872,10.171,10.171,0,0,0,16.365,0A2.419,2.419,0,0,0,245.494,303.047Z" transform="translate(-178.28 -204.995)" fill="#21214b"/>
      </g>
    </g>
  </g>
</svg>
