<svg xmlns="http://www.w3.org/2000/svg" width="514" height="439.246" viewBox="0 0 514 439.246">
  <g id="Grupo_55367" data-name="Grupo 55367" transform="translate(-560 -6304)">
    <path id="Trazado_101070" data-name="Trazado 101070" d="M-5312.18-10526.2l307.765,307.766" transform="translate(5975.696 16895.936)" fill="none" stroke="#919191" stroke-width="4"/>
    <path id="Trazado_101071" data-name="Trazado 101071" d="M0,0,307.766,307.766" transform="translate(971.282 6369.74) rotate(90)" fill="none" stroke="#919191" stroke-width="4"/>
    <path id="Trazado_101072" data-name="Trazado 101072" d="M0,0,307.765,307.766" transform="translate(1035.022 6523.623) rotate(135)" fill="none" stroke="#919191" stroke-width="4"/>
    <path id="Trazado_101073" data-name="Trazado 101073" d="M60,0A60,60,0,1,1,0,60,60,60,0,0,1,60,0Z" transform="translate(758 6463.545)" fill="#f8de9a"/>
    <path id="Trazado_101074" data-name="Trazado 101074" d="M60,0A60,60,0,1,1,0,60,60,60,0,0,1,60,0Z" transform="translate(593 6317.545)" fill="#9ddfd3"/>
    <path id="Trazado_101075" data-name="Trazado 101075" d="M60,0A60,60,0,1,1,0,60,60,60,0,0,1,60,0Z" transform="translate(909 6317.545)" fill="#ffc93c"/>
    <path id="Trazado_101076" data-name="Trazado 101076" d="M60,0A60,60,0,1,1,0,60,60,60,0,0,1,60,0Z" transform="translate(954 6463.545)" fill="#81c140"/>
    <path id="Trazado_101077" data-name="Trazado 101077" d="M60,0A60,60,0,1,1,0,60,60,60,0,0,1,60,0Z" transform="translate(909 6617.545)" fill="#b66abc"/>
    <path id="Trazado_101078" data-name="Trazado 101078" d="M60,0A60,60,0,1,1,0,60,60,60,0,0,1,60,0Z" transform="translate(593 6617.545)" fill="#959595"/>
    <path id="Trazado_101079" data-name="Trazado 101079" d="M60,0A60,60,0,1,1,0,60,60,60,0,0,1,60,0Z" transform="translate(560 6463.545)" fill="#ffa81c"/>
    <path id="Trazado_101080" data-name="Trazado 101080" d="M-19.6-3.552a3.774,3.774,0,0,1-1.271,2.71A4.463,4.463,0,0,1-23.9.146a4.013,4.013,0,0,1-3.226-1.381A5.661,5.661,0,0,1-28.3-5.024v-.652a6.393,6.393,0,0,1,.542-2.71,4.062,4.062,0,0,1,1.549-1.8,4.339,4.339,0,0,1,2.34-.626,4.348,4.348,0,0,1,2.974.989,4.055,4.055,0,0,1,1.3,2.776h-2.2a2.227,2.227,0,0,0-.575-1.5,2.129,2.129,0,0,0-1.505-.465,1.867,1.867,0,0,0-1.644.787,4.413,4.413,0,0,0-.56,2.443v.806a4.723,4.723,0,0,0,.524,2.527,1.832,1.832,0,0,0,1.652.8,2.169,2.169,0,0,0,1.52-.465A2.1,2.1,0,0,0-21.8-3.552ZM-16.066,0H-18.19V-7.925h2.124Zm-2.249-9.976A1.042,1.042,0,0,1-18-10.759a1.2,1.2,0,0,1,.868-.308,1.2,1.2,0,0,1,.864.308,1.036,1.036,0,0,1,.322.784,1.039,1.039,0,0,1-.326.791,1.2,1.2,0,0,1-.861.308,1.2,1.2,0,0,1-.861-.308A1.039,1.039,0,0,1-18.314-9.976ZM-10.675.146A3.89,3.89,0,0,1-13.513-.923a3.8,3.8,0,0,1-1.095-2.849v-.205a4.787,4.787,0,0,1,.461-2.135,3.386,3.386,0,0,1,1.307-1.45,3.669,3.669,0,0,1,1.93-.509A3.289,3.289,0,0,1-8.35-7.046a4.167,4.167,0,0,1,.934,2.908v.864h-5.046a1.966,1.966,0,0,0,.619,1.245,1.871,1.871,0,0,0,1.307.469,2.285,2.285,0,0,0,1.912-.886l1.04,1.165A3.178,3.178,0,0,1-8.873-.231,4.229,4.229,0,0,1-10.675.146Zm-.242-6.5a1.326,1.326,0,0,0-1.022.425,2.195,2.195,0,0,0-.5,1.216H-9.5v-.168a1.565,1.565,0,0,0-.381-1.088A1.368,1.368,0,0,0-10.917-6.357Zm6.65-1.567.066.916A2.767,2.767,0,0,1-1.923-8.071a2.3,2.3,0,0,1,1.875.74A3.451,3.451,0,0,1,.582-5.12V0H-1.534V-5.068a1.373,1.373,0,0,0-.293-.978,1.312,1.312,0,0,0-.974-.3,1.456,1.456,0,0,0-1.34.762V0H-6.259V-7.925ZM5.482-1.56a1.388,1.388,0,0,0,.952-.322,1.129,1.129,0,0,0,.381-.857H8.8a2.715,2.715,0,0,1-.439,1.476A2.9,2.9,0,0,1,7.178-.223a3.7,3.7,0,0,1-1.659.37A3.44,3.44,0,0,1,2.838-.934a4.275,4.275,0,0,1-.981-2.985v-.139A4.226,4.226,0,0,1,2.831-6.98,3.4,3.4,0,0,1,5.5-8.071a3.333,3.333,0,0,1,2.384.846A3,3,0,0,1,8.8-4.973H6.815a1.443,1.443,0,0,0-.381-1,1.273,1.273,0,0,0-.967-.385,1.275,1.275,0,0,0-1.117.538,3.116,3.116,0,0,0-.377,1.747v.22a3.155,3.155,0,0,0,.374,1.758A1.292,1.292,0,0,0,5.482-1.56ZM12.242,0H10.118V-7.925h2.124ZM9.994-9.976a1.042,1.042,0,0,1,.319-.784,1.2,1.2,0,0,1,.868-.308,1.2,1.2,0,0,1,.864.308,1.036,1.036,0,0,1,.322.784,1.039,1.039,0,0,1-.326.791,1.2,1.2,0,0,1-.861.308,1.2,1.2,0,0,1-.861-.308A1.039,1.039,0,0,1,9.994-9.976ZM18.578,0a2.351,2.351,0,0,1-.212-.71,2.561,2.561,0,0,1-2,.857,2.814,2.814,0,0,1-1.93-.674,2.167,2.167,0,0,1-.765-1.7A2.24,2.24,0,0,1,14.6-4.16a4.608,4.608,0,0,1,2.7-.681h.974V-5.3A1.306,1.306,0,0,0,18-6.174a1.109,1.109,0,0,0-.89-.33,1.261,1.261,0,0,0-.839.256.871.871,0,0,0-.3.7H13.846a2.126,2.126,0,0,1,.425-1.274,2.808,2.808,0,0,1,1.2-.919,4.378,4.378,0,0,1,1.743-.333,3.459,3.459,0,0,1,2.325.736A2.575,2.575,0,0,1,20.4-5.266v3.435a3.789,3.789,0,0,0,.315,1.707V0Zm-1.75-1.472a1.823,1.823,0,0,0,.864-.209,1.371,1.371,0,0,0,.586-.56V-3.6h-.791q-1.589,0-1.692,1.1l-.007.125a.847.847,0,0,0,.278.652A1.081,1.081,0,0,0,16.827-1.472ZM26.32-2.19a.682.682,0,0,0-.385-.612A4.368,4.368,0,0,0,24.7-3.2q-2.827-.593-2.827-2.4a2.178,2.178,0,0,1,.875-1.761,3.531,3.531,0,0,1,2.289-.707,3.8,3.8,0,0,1,2.413.71,2.239,2.239,0,0,1,.9,1.846H26.239a1.024,1.024,0,0,0-.293-.751,1.24,1.24,0,0,0-.916-.3,1.267,1.267,0,0,0-.828.242.763.763,0,0,0-.293.615.652.652,0,0,0,.333.568,3.428,3.428,0,0,0,1.124.374,9.183,9.183,0,0,1,1.333.355,2.19,2.19,0,0,1,1.677,2.131,2.067,2.067,0,0,1-.93,1.754,4.013,4.013,0,0,1-2.4.67,4.191,4.191,0,0,1-1.769-.355,2.968,2.968,0,0,1-1.212-.974,2.263,2.263,0,0,1-.439-1.337h2.007a1.105,1.105,0,0,0,.417.864,1.656,1.656,0,0,0,1.04.3,1.533,1.533,0,0,0,.919-.231A.718.718,0,0,0,26.32-2.19Z" transform="translate(971 6382.545)" fill="#12263f"/>
    <path id="Trazado_101081" data-name="Trazado 101081" d="M-28.326-8.884h-3.267V0h-2.2V-8.884h-3.223v-1.78h8.687ZM-24.218.146A3.89,3.89,0,0,1-27.056-.923a3.8,3.8,0,0,1-1.095-2.849v-.205a4.787,4.787,0,0,1,.461-2.135,3.386,3.386,0,0,1,1.307-1.45,3.669,3.669,0,0,1,1.93-.509,3.289,3.289,0,0,1,2.56,1.025,4.167,4.167,0,0,1,.934,2.908v.864H-26a1.966,1.966,0,0,0,.619,1.245,1.871,1.871,0,0,0,1.307.469,2.285,2.285,0,0,0,1.912-.886l1.04,1.165A3.178,3.178,0,0,1-22.416-.231,4.229,4.229,0,0,1-24.218.146Zm-.242-6.5a1.326,1.326,0,0,0-1.022.425,2.195,2.195,0,0,0-.5,1.216h2.944v-.168a1.565,1.565,0,0,0-.381-1.088A1.368,1.368,0,0,0-24.459-6.357Zm8,4.8a1.388,1.388,0,0,0,.952-.322,1.129,1.129,0,0,0,.381-.857h1.985a2.715,2.715,0,0,1-.439,1.476,2.9,2.9,0,0,1-1.183,1.04,3.7,3.7,0,0,1-1.659.37,3.44,3.44,0,0,1-2.681-1.08,4.275,4.275,0,0,1-.981-2.985v-.139a4.226,4.226,0,0,1,.974-2.922,3.4,3.4,0,0,1,2.673-1.091,3.333,3.333,0,0,1,2.384.846,3,3,0,0,1,.912,2.252h-1.985a1.443,1.443,0,0,0-.381-1,1.273,1.273,0,0,0-.967-.385,1.275,1.275,0,0,0-1.117.538,3.116,3.116,0,0,0-.377,1.747v.22A3.155,3.155,0,0,0-17.6-2.095,1.292,1.292,0,0,0-16.461-1.56Zm6.475-6.365.066.916A2.767,2.767,0,0,1-7.643-8.071a2.3,2.3,0,0,1,1.875.74,3.451,3.451,0,0,1,.63,2.212V0H-7.255V-5.068a1.373,1.373,0,0,0-.293-.978,1.312,1.312,0,0,0-.974-.3,1.456,1.456,0,0,0-1.34.762V0h-2.117V-7.925Zm6.123,3.889a4.7,4.7,0,0,1,.454-2.1A3.324,3.324,0,0,1-2.1-7.566,3.814,3.814,0,0,1-.121-8.071,3.609,3.609,0,0,1,2.5-7.09,3.939,3.939,0,0,1,3.629-4.424l.015.542A4.142,4.142,0,0,1,2.626-.956,3.539,3.539,0,0,1-.106.146a3.556,3.556,0,0,1-2.736-1.1A4.215,4.215,0,0,1-3.864-3.94Zm2.117.154a2.954,2.954,0,0,0,.425,1.725,1.4,1.4,0,0,0,1.216.6,1.405,1.405,0,0,0,1.2-.59,3.233,3.233,0,0,0,.432-1.886A2.925,2.925,0,0,0,1.095-5.75,1.405,1.405,0,0,0-.121-6.357a1.382,1.382,0,0,0-1.2.6A3.287,3.287,0,0,0-1.747-3.882ZM7.181,0H5.057V-11.25H7.181ZM8.595-4.036a4.7,4.7,0,0,1,.454-2.1,3.324,3.324,0,0,1,1.307-1.428,3.814,3.814,0,0,1,1.981-.505,3.609,3.609,0,0,1,2.618.981,3.939,3.939,0,0,1,1.132,2.666l.015.542A4.142,4.142,0,0,1,15.084-.956a3.539,3.539,0,0,1-2.732,1.1,3.556,3.556,0,0,1-2.736-1.1A4.215,4.215,0,0,1,8.595-3.94Zm2.117.154a2.954,2.954,0,0,0,.425,1.725,1.4,1.4,0,0,0,1.216.6,1.405,1.405,0,0,0,1.2-.59,3.233,3.233,0,0,0,.432-1.886,2.925,2.925,0,0,0-.432-1.714,1.405,1.405,0,0,0-1.216-.608,1.382,1.382,0,0,0-1.2.6A3.287,3.287,0,0,0,10.712-3.882ZM17.1-4.021a4.644,4.644,0,0,1,.868-2.937,2.812,2.812,0,0,1,2.34-1.113,2.466,2.466,0,0,1,2.029.894l.088-.747h1.919V-.264a3.387,3.387,0,0,1-.472,1.809A3.034,3.034,0,0,1,22.54,2.717a4.673,4.673,0,0,1-2.007.4,4.346,4.346,0,0,1-1.7-.348,3.016,3.016,0,0,1-1.252-.9L18.519.586a2.48,2.48,0,0,0,1.919.886,1.815,1.815,0,0,0,1.311-.45,1.69,1.69,0,0,0,.469-1.278V-.681a2.448,2.448,0,0,1-1.926.828A2.8,2.8,0,0,1,17.981-.97,4.643,4.643,0,0,1,17.1-3.933Zm2.117.154a2.884,2.884,0,0,0,.432,1.688,1.375,1.375,0,0,0,1.187.612,1.47,1.47,0,0,0,1.384-.725V-5.625a1.467,1.467,0,0,0-1.37-.725,1.384,1.384,0,0,0-1.2.623A3.251,3.251,0,0,0,19.215-3.867ZM28.253,0H26.136V-7.925h2.117Zm-.623-11.14h2.307L27.909-8.87H26.188ZM34.669,0a2.351,2.351,0,0,1-.212-.71,2.561,2.561,0,0,1-2,.857,2.814,2.814,0,0,1-1.93-.674,2.167,2.167,0,0,1-.765-1.7A2.24,2.24,0,0,1,30.7-4.16a4.608,4.608,0,0,1,2.7-.681h.974V-5.3a1.306,1.306,0,0,0-.282-.879,1.109,1.109,0,0,0-.89-.33,1.261,1.261,0,0,0-.839.256.871.871,0,0,0-.3.7H29.938a2.126,2.126,0,0,1,.425-1.274,2.808,2.808,0,0,1,1.2-.919,4.378,4.378,0,0,1,1.743-.333,3.459,3.459,0,0,1,2.325.736,2.575,2.575,0,0,1,.861,2.069v3.435a3.789,3.789,0,0,0,.315,1.707V0Zm-1.75-1.472a1.823,1.823,0,0,0,.864-.209,1.371,1.371,0,0,0,.586-.56V-3.6h-.791q-1.589,0-1.692,1.1l-.007.125a.847.847,0,0,0,.278.652A1.081,1.081,0,0,0,32.919-1.472Z" transform="translate(653 6382.545)" fill="#31326f"/>
    <path id="Trazado_101082" data-name="Trazado 101082" d="M-27.667-1.765H-23V0h-6.863V-10.664h2.2ZM-18.234.146A3.89,3.89,0,0,1-21.072-.923a3.8,3.8,0,0,1-1.095-2.849v-.205a4.787,4.787,0,0,1,.461-2.135A3.386,3.386,0,0,1-20.4-7.562a3.669,3.669,0,0,1,1.93-.509,3.289,3.289,0,0,1,2.56,1.025,4.167,4.167,0,0,1,.934,2.908v.864h-5.046A1.966,1.966,0,0,0-19.4-2.029a1.871,1.871,0,0,0,1.307.469,2.285,2.285,0,0,0,1.912-.886l1.04,1.165A3.178,3.178,0,0,1-16.432-.231,4.229,4.229,0,0,1-18.234.146Zm-.242-6.5a1.326,1.326,0,0,0-1.022.425A2.195,2.195,0,0,0-20-4.717h2.944v-.168a1.565,1.565,0,0,0-.381-1.088A1.368,1.368,0,0,0-18.475-6.357Zm6.65-1.567.066.916A2.767,2.767,0,0,1-9.481-8.071a2.3,2.3,0,0,1,1.875.74,3.451,3.451,0,0,1,.63,2.212V0H-9.093V-5.068a1.373,1.373,0,0,0-.293-.978,1.312,1.312,0,0,0-.974-.3,1.456,1.456,0,0,0-1.34.762V0h-2.117V-7.925Zm6.145,3.9a4.644,4.644,0,0,1,.868-2.937,2.812,2.812,0,0,1,2.34-1.113,2.466,2.466,0,0,1,2.029.894l.088-.747H1.564V-.264a3.387,3.387,0,0,1-.472,1.809A3.034,3.034,0,0,1-.238,2.717a4.673,4.673,0,0,1-2.007.4,4.346,4.346,0,0,1-1.7-.348,3.016,3.016,0,0,1-1.252-.9L-4.259.586a2.48,2.48,0,0,0,1.919.886,1.815,1.815,0,0,0,1.311-.45A1.69,1.69,0,0,0-.56-.256V-.681A2.448,2.448,0,0,1-2.487.146,2.8,2.8,0,0,1-4.8-.97,4.643,4.643,0,0,1-5.68-3.933Zm2.117.154a2.884,2.884,0,0,0,.432,1.688,1.375,1.375,0,0,0,1.187.612A1.47,1.47,0,0,0-.56-2.292V-5.625A1.467,1.467,0,0,0-1.93-6.35a1.384,1.384,0,0,0-1.2.623A3.251,3.251,0,0,0-3.563-3.867ZM7.936-.806A2.654,2.654,0,0,1,5.768.146,2.5,2.5,0,0,1,3.823-.586a3.127,3.127,0,0,1-.685-2.146V-7.925H5.255v5.12q0,1.238,1.128,1.238a1.529,1.529,0,0,0,1.479-.747v-5.61H9.987V0H7.994ZM16.176,0a2.351,2.351,0,0,1-.212-.71,2.561,2.561,0,0,1-2,.857,2.814,2.814,0,0,1-1.93-.674,2.167,2.167,0,0,1-.765-1.7A2.24,2.24,0,0,1,12.2-4.16a4.608,4.608,0,0,1,2.7-.681h.974V-5.3a1.306,1.306,0,0,0-.282-.879,1.109,1.109,0,0,0-.89-.33,1.261,1.261,0,0,0-.839.256.871.871,0,0,0-.3.7H11.444a2.126,2.126,0,0,1,.425-1.274,2.808,2.808,0,0,1,1.2-.919,4.378,4.378,0,0,1,1.743-.333,3.459,3.459,0,0,1,2.325.736A2.575,2.575,0,0,1,18-5.266v3.435a3.789,3.789,0,0,0,.315,1.707V0Zm-1.75-1.472a1.823,1.823,0,0,0,.864-.209,1.371,1.371,0,0,0,.586-.56V-3.6h-.791q-1.589,0-1.692,1.1l-.007.125a.847.847,0,0,0,.278.652A1.081,1.081,0,0,0,14.425-1.472Zm7.441-6.453V.432a2.835,2.835,0,0,1-.7,2.04,2.645,2.645,0,0,1-2.007.729,4.3,4.3,0,0,1-1.047-.125V1.4a3.973,3.973,0,0,0,.667.066q.959,0,.959-1.018V-7.925ZM19.574-9.976a1.042,1.042,0,0,1,.319-.784,1.2,1.2,0,0,1,.868-.308,1.2,1.2,0,0,1,.868.308,1.042,1.042,0,0,1,.319.784,1.039,1.039,0,0,1-.326.791,1.2,1.2,0,0,1-.861.308,1.2,1.2,0,0,1-.861-.308A1.039,1.039,0,0,1,19.574-9.976ZM27.169.146A3.89,3.89,0,0,1,24.331-.923a3.8,3.8,0,0,1-1.095-2.849v-.205A4.787,4.787,0,0,1,23.7-6.112,3.386,3.386,0,0,1,25-7.562a3.669,3.669,0,0,1,1.93-.509,3.289,3.289,0,0,1,2.56,1.025,4.167,4.167,0,0,1,.934,2.908v.864H25.382A1.966,1.966,0,0,0,26-2.029a1.871,1.871,0,0,0,1.307.469,2.285,2.285,0,0,0,1.912-.886l1.04,1.165A3.178,3.178,0,0,1,28.971-.231,4.229,4.229,0,0,1,27.169.146Zm-.242-6.5a1.326,1.326,0,0,0-1.022.425,2.195,2.195,0,0,0-.5,1.216h2.944v-.168a1.565,1.565,0,0,0-.381-1.088A1.368,1.368,0,0,0,26.927-6.357Z" transform="translate(620 6528.545)" fill="#fff"/>
    <path id="Trazado_101083" data-name="Trazado 101083" d="M-40.181-10.664l2.739,7.734,2.725-7.734h2.886V0h-2.2V-2.915l.22-5.032L-36.694,0H-38.2l-2.871-7.939.22,5.024V0h-2.2V-10.664ZM-25.459,0a2.351,2.351,0,0,1-.212-.71,2.561,2.561,0,0,1-2,.857A2.814,2.814,0,0,1-29.6-.527a2.167,2.167,0,0,1-.765-1.7,2.24,2.24,0,0,1,.934-1.934,4.608,4.608,0,0,1,2.7-.681h.974V-5.3a1.306,1.306,0,0,0-.282-.879,1.109,1.109,0,0,0-.89-.33,1.261,1.261,0,0,0-.839.256.871.871,0,0,0-.3.7H-30.19a2.126,2.126,0,0,1,.425-1.274,2.808,2.808,0,0,1,1.2-.919,4.378,4.378,0,0,1,1.743-.333,3.459,3.459,0,0,1,2.325.736,2.575,2.575,0,0,1,.861,2.069v3.435A3.789,3.789,0,0,0-23.32-.125V0Zm-1.75-1.472a1.823,1.823,0,0,0,.864-.209,1.371,1.371,0,0,0,.586-.56V-3.6h-.791q-1.589,0-1.692,1.1l-.007.125a.847.847,0,0,0,.278.652A1.081,1.081,0,0,0-27.209-1.472Zm7.734-8.4v1.948h1.355v1.553h-1.355v3.955a.944.944,0,0,0,.168.63.846.846,0,0,0,.645.19,3.376,3.376,0,0,0,.623-.051v1.6a4.358,4.358,0,0,1-1.282.19A2.021,2.021,0,0,1-21.592-2.1v-4.27h-1.157V-7.925h1.157V-9.873ZM-13.293.146A3.89,3.89,0,0,1-16.132-.923a3.8,3.8,0,0,1-1.095-2.849v-.205a4.787,4.787,0,0,1,.461-2.135,3.386,3.386,0,0,1,1.307-1.45,3.669,3.669,0,0,1,1.93-.509,3.289,3.289,0,0,1,2.56,1.025,4.167,4.167,0,0,1,.934,2.908v.864h-5.046a1.966,1.966,0,0,0,.619,1.245,1.871,1.871,0,0,0,1.307.469,2.285,2.285,0,0,0,1.912-.886l1.04,1.165A3.178,3.178,0,0,1-11.492-.231,4.229,4.229,0,0,1-13.293.146Zm-.242-6.5a1.326,1.326,0,0,0-1.022.425,2.195,2.195,0,0,0-.5,1.216h2.944v-.168A1.565,1.565,0,0,0-12.5-5.973,1.368,1.368,0,0,0-13.535-6.357Zm6.687-1.567.066.886A2.785,2.785,0,0,1-4.5-8.071,2.114,2.114,0,0,1-2.4-6.863,2.721,2.721,0,0,1-.022-8.071,2.364,2.364,0,0,1,1.9-7.321a3.451,3.451,0,0,1,.63,2.26V0H.4V-5.054a1.509,1.509,0,0,0-.264-.985,1.169,1.169,0,0,0-.93-.311,1.321,1.321,0,0,0-1.318.908L-2.1,0H-4.219V-5.046a1.491,1.491,0,0,0-.271-1,1.18,1.18,0,0,0-.923-.308,1.372,1.372,0,0,0-1.3.747V0H-8.833V-7.925ZM8.745,0a2.351,2.351,0,0,1-.212-.71,2.561,2.561,0,0,1-2,.857A2.814,2.814,0,0,1,4.6-.527a2.167,2.167,0,0,1-.765-1.7A2.24,2.24,0,0,1,4.772-4.16a4.608,4.608,0,0,1,2.7-.681h.974V-5.3a1.306,1.306,0,0,0-.282-.879,1.109,1.109,0,0,0-.89-.33,1.261,1.261,0,0,0-.839.256.871.871,0,0,0-.3.7H4.014a2.126,2.126,0,0,1,.425-1.274,2.808,2.808,0,0,1,1.2-.919,4.378,4.378,0,0,1,1.743-.333,3.459,3.459,0,0,1,2.325.736,2.575,2.575,0,0,1,.861,2.069v3.435a3.789,3.789,0,0,0,.315,1.707V0ZM6.995-1.472a1.823,1.823,0,0,0,.864-.209,1.371,1.371,0,0,0,.586-.56V-3.6H7.654q-1.589,0-1.692,1.1l-.007.125a.847.847,0,0,0,.278.652A1.081,1.081,0,0,0,6.995-1.472ZM7.8-11.25h2.307L8.079-8.979H6.357Zm6.929,1.377v1.948h1.355v1.553H14.729v3.955a.944.944,0,0,0,.168.63.846.846,0,0,0,.645.19,3.376,3.376,0,0,0,.623-.051v1.6a4.358,4.358,0,0,1-1.282.19A2.021,2.021,0,0,1,12.612-2.1v-4.27H11.455V-7.925h1.157V-9.873ZM19.5,0H17.373V-7.925H19.5ZM17.249-9.976a1.042,1.042,0,0,1,.319-.784,1.2,1.2,0,0,1,.868-.308,1.2,1.2,0,0,1,.864.308,1.036,1.036,0,0,1,.322.784,1.039,1.039,0,0,1-.326.791,1.2,1.2,0,0,1-.861.308,1.2,1.2,0,0,1-.861-.308A1.039,1.039,0,0,1,17.249-9.976ZM24.536-1.56a1.388,1.388,0,0,0,.952-.322,1.129,1.129,0,0,0,.381-.857h1.985a2.715,2.715,0,0,1-.439,1.476,2.9,2.9,0,0,1-1.183,1.04,3.7,3.7,0,0,1-1.659.37,3.44,3.44,0,0,1-2.681-1.08,4.275,4.275,0,0,1-.981-2.985v-.139a4.226,4.226,0,0,1,.974-2.922,3.4,3.4,0,0,1,2.673-1.091,3.333,3.333,0,0,1,2.384.846,3,3,0,0,1,.912,2.252H25.869a1.443,1.443,0,0,0-.381-1,1.273,1.273,0,0,0-.967-.385,1.275,1.275,0,0,0-1.117.538,3.116,3.116,0,0,0-.377,1.747v.22A3.155,3.155,0,0,0,23.4-2.095,1.292,1.292,0,0,0,24.536-1.56ZM33.655,0a2.351,2.351,0,0,1-.212-.71,2.561,2.561,0,0,1-2,.857,2.814,2.814,0,0,1-1.93-.674,2.167,2.167,0,0,1-.765-1.7,2.24,2.24,0,0,1,.934-1.934,4.608,4.608,0,0,1,2.7-.681h.974V-5.3a1.306,1.306,0,0,0-.282-.879,1.109,1.109,0,0,0-.89-.33,1.261,1.261,0,0,0-.839.256.871.871,0,0,0-.3.7H28.923a2.126,2.126,0,0,1,.425-1.274,2.808,2.808,0,0,1,1.2-.919,4.378,4.378,0,0,1,1.743-.333,3.459,3.459,0,0,1,2.325.736,2.575,2.575,0,0,1,.861,2.069v3.435a3.789,3.789,0,0,0,.315,1.707V0ZM31.9-1.472a1.823,1.823,0,0,0,.864-.209,1.371,1.371,0,0,0,.586-.56V-3.6h-.791q-1.589,0-1.692,1.1l-.007.125a.847.847,0,0,0,.278.652A1.081,1.081,0,0,0,31.9-1.472ZM41.4-2.19a.682.682,0,0,0-.385-.612,4.368,4.368,0,0,0-1.234-.4q-2.827-.593-2.827-2.4a2.178,2.178,0,0,1,.875-1.761,3.531,3.531,0,0,1,2.289-.707,3.8,3.8,0,0,1,2.413.71,2.239,2.239,0,0,1,.9,1.846H41.316a1.024,1.024,0,0,0-.293-.751,1.24,1.24,0,0,0-.916-.3,1.267,1.267,0,0,0-.828.242.763.763,0,0,0-.293.615.652.652,0,0,0,.333.568,3.428,3.428,0,0,0,1.124.374,9.183,9.183,0,0,1,1.333.355,2.19,2.19,0,0,1,1.677,2.131,2.067,2.067,0,0,1-.93,1.754,4.013,4.013,0,0,1-2.4.67,4.191,4.191,0,0,1-1.769-.355,2.968,2.968,0,0,1-1.212-.974A2.263,2.263,0,0,1,36.7-2.52h2.007a1.105,1.105,0,0,0,.417.864,1.656,1.656,0,0,0,1.04.3,1.533,1.533,0,0,0,.919-.231A.718.718,0,0,0,41.4-2.19Z" transform="translate(1021 6528.545)" fill="#fff"/>
    <path id="Trazado_101084" data-name="Trazado 101084" d="M-21.471-3.552a3.774,3.774,0,0,1-1.271,2.71,4.463,4.463,0,0,1-3.021.989,4.013,4.013,0,0,1-3.226-1.381,5.661,5.661,0,0,1-1.176-3.79v-.652a6.393,6.393,0,0,1,.542-2.71,4.062,4.062,0,0,1,1.549-1.8,4.339,4.339,0,0,1,2.34-.626,4.348,4.348,0,0,1,2.974.989,4.055,4.055,0,0,1,1.3,2.776h-2.2a2.227,2.227,0,0,0-.575-1.5,2.129,2.129,0,0,0-1.505-.465,1.867,1.867,0,0,0-1.644.787,4.413,4.413,0,0,0-.56,2.443v.806a4.723,4.723,0,0,0,.524,2.527,1.832,1.832,0,0,0,1.652.8,2.169,2.169,0,0,0,1.52-.465,2.1,2.1,0,0,0,.575-1.439ZM-17.933,0h-2.124V-7.925h2.124Zm-2.249-9.976a1.042,1.042,0,0,1,.319-.784A1.2,1.2,0,0,1-19-11.067a1.2,1.2,0,0,1,.864.308,1.036,1.036,0,0,1,.322.784,1.039,1.039,0,0,1-.326.791A1.2,1.2,0,0,1-19-8.877a1.2,1.2,0,0,1-.861-.308A1.039,1.039,0,0,1-20.182-9.976ZM-12.543.146A3.89,3.89,0,0,1-15.381-.923a3.8,3.8,0,0,1-1.095-2.849v-.205a4.787,4.787,0,0,1,.461-2.135,3.386,3.386,0,0,1,1.307-1.45,3.669,3.669,0,0,1,1.93-.509,3.289,3.289,0,0,1,2.56,1.025,4.167,4.167,0,0,1,.934,2.908v.864H-14.33a1.966,1.966,0,0,0,.619,1.245A1.871,1.871,0,0,0-12.4-1.56a2.285,2.285,0,0,0,1.912-.886l1.04,1.165A3.178,3.178,0,0,1-10.741-.231,4.229,4.229,0,0,1-12.543.146Zm-.242-6.5a1.326,1.326,0,0,0-1.022.425,2.195,2.195,0,0,0-.5,1.216h2.944v-.168a1.565,1.565,0,0,0-.381-1.088A1.368,1.368,0,0,0-12.784-6.357Zm6.65-1.567.066.916A2.767,2.767,0,0,1-3.79-8.071a2.3,2.3,0,0,1,1.875.74,3.451,3.451,0,0,1,.63,2.212V0H-3.4V-5.068A1.373,1.373,0,0,0-3.7-6.046a1.312,1.312,0,0,0-.974-.3,1.456,1.456,0,0,0-1.34.762V0H-8.126V-7.925ZM3.615-1.56a1.388,1.388,0,0,0,.952-.322,1.129,1.129,0,0,0,.381-.857H6.932a2.715,2.715,0,0,1-.439,1.476A2.9,2.9,0,0,1,5.31-.223a3.7,3.7,0,0,1-1.659.37A3.44,3.44,0,0,1,.97-.934,4.275,4.275,0,0,1-.011-3.918v-.139A4.226,4.226,0,0,1,.963-6.98,3.4,3.4,0,0,1,3.636-8.071a3.333,3.333,0,0,1,2.384.846,3,3,0,0,1,.912,2.252H4.948a1.443,1.443,0,0,0-.381-1A1.273,1.273,0,0,0,3.6-6.357a1.275,1.275,0,0,0-1.117.538,3.116,3.116,0,0,0-.377,1.747v.22a3.155,3.155,0,0,0,.374,1.758A1.292,1.292,0,0,0,3.615-1.56ZM10.375,0H8.251V-7.925h2.124ZM8.126-9.976a1.042,1.042,0,0,1,.319-.784,1.2,1.2,0,0,1,.868-.308,1.2,1.2,0,0,1,.864.308,1.036,1.036,0,0,1,.322.784,1.039,1.039,0,0,1-.326.791,1.2,1.2,0,0,1-.861.308,1.2,1.2,0,0,1-.861-.308A1.039,1.039,0,0,1,8.126-9.976ZM16.71,0A2.351,2.351,0,0,1,16.5-.71a2.561,2.561,0,0,1-2,.857,2.814,2.814,0,0,1-1.93-.674,2.167,2.167,0,0,1-.765-1.7,2.24,2.24,0,0,1,.934-1.934,4.608,4.608,0,0,1,2.7-.681h.974V-5.3a1.306,1.306,0,0,0-.282-.879,1.109,1.109,0,0,0-.89-.33,1.261,1.261,0,0,0-.839.256.871.871,0,0,0-.3.7H11.979A2.126,2.126,0,0,1,12.4-6.819a2.808,2.808,0,0,1,1.2-.919,4.378,4.378,0,0,1,1.743-.333,3.459,3.459,0,0,1,2.325.736,2.575,2.575,0,0,1,.861,2.069v3.435a3.789,3.789,0,0,0,.315,1.707V0ZM14.96-1.472a1.823,1.823,0,0,0,.864-.209,1.371,1.371,0,0,0,.586-.56V-3.6h-.791q-1.589,0-1.692,1.1l-.007.125a.847.847,0,0,0,.278.652A1.081,1.081,0,0,0,14.96-1.472Zm9.492-.718a.682.682,0,0,0-.385-.612,4.368,4.368,0,0,0-1.234-.4q-2.827-.593-2.827-2.4a2.178,2.178,0,0,1,.875-1.761,3.531,3.531,0,0,1,2.289-.707,3.8,3.8,0,0,1,2.413.71,2.239,2.239,0,0,1,.9,1.846H24.371a1.024,1.024,0,0,0-.293-.751,1.24,1.24,0,0,0-.916-.3,1.267,1.267,0,0,0-.828.242.763.763,0,0,0-.293.615.652.652,0,0,0,.333.568,3.428,3.428,0,0,0,1.124.374,9.183,9.183,0,0,1,1.333.355A2.19,2.19,0,0,1,26.51-2.278a2.067,2.067,0,0,1-.93,1.754,4.013,4.013,0,0,1-2.4.67,4.191,4.191,0,0,1-1.769-.355A2.968,2.968,0,0,1,20.2-1.183a2.263,2.263,0,0,1-.439-1.337h2.007a1.105,1.105,0,0,0,.417.864,1.656,1.656,0,0,0,1.04.3,1.533,1.533,0,0,0,.919-.231A.718.718,0,0,0,24.452-2.19ZM-22.189,17.2a1.128,1.128,0,0,0-.439-.956,5.764,5.764,0,0,0-1.582-.7,11.215,11.215,0,0,1-1.809-.729,2.956,2.956,0,0,1-1.816-2.644,2.575,2.575,0,0,1,.487-1.542,3.177,3.177,0,0,1,1.4-1.058A5.265,5.265,0,0,1-23.9,9.189a4.793,4.793,0,0,1,2.036.414,3.242,3.242,0,0,1,1.388,1.168,3.057,3.057,0,0,1,.494,1.714h-2.2a1.438,1.438,0,0,0-.461-1.139,1.9,1.9,0,0,0-1.3-.406,2.026,2.026,0,0,0-1.252.341,1.074,1.074,0,0,0-.447.9,1.029,1.029,0,0,0,.524.872,5.916,5.916,0,0,0,1.542.659,6.661,6.661,0,0,1,2.732,1.4,2.786,2.786,0,0,1,.857,2.08,2.566,2.566,0,0,1-1.047,2.172,4.585,4.585,0,0,1-2.82.787,5.445,5.445,0,0,1-2.241-.45,3.546,3.546,0,0,1-1.542-1.234,3.161,3.161,0,0,1-.531-1.816h2.2q0,1.765,2.109,1.765a2.052,2.052,0,0,0,1.223-.319A1.037,1.037,0,0,0-22.189,17.2Zm3.223-1.238a4.7,4.7,0,0,1,.454-2.1A3.324,3.324,0,0,1-17.2,12.434a3.814,3.814,0,0,1,1.981-.505,3.609,3.609,0,0,1,2.618.981,3.939,3.939,0,0,1,1.132,2.666l.015.542a4.142,4.142,0,0,1-1.018,2.926,3.539,3.539,0,0,1-2.732,1.1,3.556,3.556,0,0,1-2.736-1.1,4.215,4.215,0,0,1-1.022-2.988Zm2.117.154a2.954,2.954,0,0,0,.425,1.725,1.4,1.4,0,0,0,1.216.6,1.405,1.405,0,0,0,1.2-.59,3.233,3.233,0,0,0,.432-1.886,2.925,2.925,0,0,0-.432-1.714,1.405,1.405,0,0,0-1.216-.608,1.382,1.382,0,0,0-1.2.6A3.287,3.287,0,0,0-16.849,16.118Zm9.99,2.322a1.388,1.388,0,0,0,.952-.322,1.129,1.129,0,0,0,.381-.857h1.985a2.715,2.715,0,0,1-.439,1.476,2.9,2.9,0,0,1-1.183,1.04,3.7,3.7,0,0,1-1.659.37A3.44,3.44,0,0,1-9.5,19.066a4.275,4.275,0,0,1-.981-2.985v-.139A4.226,4.226,0,0,1-9.51,13.02a3.4,3.4,0,0,1,2.673-1.091,3.333,3.333,0,0,1,2.384.846,3,3,0,0,1,.912,2.252H-5.526a1.443,1.443,0,0,0-.381-1,1.273,1.273,0,0,0-.967-.385,1.275,1.275,0,0,0-1.117.538,3.116,3.116,0,0,0-.377,1.747v.22a3.155,3.155,0,0,0,.374,1.758A1.292,1.292,0,0,0-6.859,18.44ZM-.1,20H-2.223V12.075H-.1Zm-2.249-9.976a1.042,1.042,0,0,1,.319-.784,1.2,1.2,0,0,1,.868-.308A1.2,1.2,0,0,1-.3,9.241a1.036,1.036,0,0,1,.322.784,1.039,1.039,0,0,1-.326.791,1.2,1.2,0,0,1-.861.308,1.2,1.2,0,0,1-.861-.308A1.039,1.039,0,0,1-2.347,10.024ZM6.237,20a2.351,2.351,0,0,1-.212-.71,2.561,2.561,0,0,1-2,.857,2.814,2.814,0,0,1-1.93-.674,2.167,2.167,0,0,1-.765-1.7,2.24,2.24,0,0,1,.934-1.934,4.608,4.608,0,0,1,2.7-.681h.974V14.7a1.306,1.306,0,0,0-.282-.879,1.109,1.109,0,0,0-.89-.33,1.261,1.261,0,0,0-.839.256.871.871,0,0,0-.3.7H1.505a2.126,2.126,0,0,1,.425-1.274,2.808,2.808,0,0,1,1.2-.919,4.378,4.378,0,0,1,1.743-.333,3.459,3.459,0,0,1,2.325.736,2.575,2.575,0,0,1,.861,2.069v3.435a3.789,3.789,0,0,0,.315,1.707V20Zm-1.75-1.472a1.823,1.823,0,0,0,.864-.209,1.371,1.371,0,0,0,.586-.56V16.4H5.145q-1.589,0-1.692,1.1l-.007.125a.847.847,0,0,0,.278.652A1.081,1.081,0,0,0,4.486,18.528ZM11.92,20H9.8V8.75H11.92Zm5.391.146a3.89,3.89,0,0,1-2.838-1.069,3.8,3.8,0,0,1-1.095-2.849v-.205a4.787,4.787,0,0,1,.461-2.135,3.386,3.386,0,0,1,1.307-1.45,3.669,3.669,0,0,1,1.93-.509,3.289,3.289,0,0,1,2.56,1.025,4.167,4.167,0,0,1,.934,2.908v.864H15.524a1.966,1.966,0,0,0,.619,1.245,1.871,1.871,0,0,0,1.307.469,2.285,2.285,0,0,0,1.912-.886l1.04,1.165a3.178,3.178,0,0,1-1.289,1.051A4.229,4.229,0,0,1,17.311,20.146Zm-.242-6.5a1.326,1.326,0,0,0-1.022.425,2.195,2.195,0,0,0-.5,1.216H18.49v-.168a1.565,1.565,0,0,0-.381-1.088A1.368,1.368,0,0,0,17.069,13.643Zm8.994,4.167a.682.682,0,0,0-.385-.612,4.368,4.368,0,0,0-1.234-.4q-2.827-.593-2.827-2.4a2.178,2.178,0,0,1,.875-1.761,3.531,3.531,0,0,1,2.289-.707,3.8,3.8,0,0,1,2.413.71,2.239,2.239,0,0,1,.9,1.846H25.983a1.024,1.024,0,0,0-.293-.751,1.24,1.24,0,0,0-.916-.3,1.267,1.267,0,0,0-.828.242.763.763,0,0,0-.293.615.652.652,0,0,0,.333.568,3.428,3.428,0,0,0,1.124.374,9.183,9.183,0,0,1,1.333.355,2.19,2.19,0,0,1,1.677,2.131,2.067,2.067,0,0,1-.93,1.754,4.013,4.013,0,0,1-2.4.67,4.191,4.191,0,0,1-1.769-.355,2.968,2.968,0,0,1-1.212-.974,2.263,2.263,0,0,1-.439-1.337h2.007a1.105,1.105,0,0,0,.417.864,1.656,1.656,0,0,0,1.04.3,1.533,1.533,0,0,0,.919-.231A.718.718,0,0,0,26.063,17.81Z" transform="translate(653 6672.545)" fill="#fff"/>
    <path id="Trazado_101085" data-name="Trazado 101085" d="M-11.437-2.2h-3.853L-16.022,0h-2.336l3.97-10.664h2.036L-8.361,0H-10.7ZM-14.7-3.977h2.666l-1.34-3.992ZM-3.051-5.94A5.75,5.75,0,0,0-3.812-6a1.55,1.55,0,0,0-1.575.813V0H-7.5V-7.925h2l.059.945A1.961,1.961,0,0,1-3.68-8.071a2.218,2.218,0,0,1,.659.1ZM.868-9.873v1.948H2.223v1.553H.868v3.955a.944.944,0,0,0,.168.63.846.846,0,0,0,.645.19A3.376,3.376,0,0,0,2.3-1.648v1.6a4.358,4.358,0,0,1-1.282.19A2.021,2.021,0,0,1-1.249-2.1v-4.27H-2.406V-7.925h1.157V-9.873ZM7.05.146A3.89,3.89,0,0,1,4.211-.923,3.8,3.8,0,0,1,3.116-3.772v-.205a4.787,4.787,0,0,1,.461-2.135,3.386,3.386,0,0,1,1.307-1.45,3.669,3.669,0,0,1,1.93-.509,3.289,3.289,0,0,1,2.56,1.025,4.167,4.167,0,0,1,.934,2.908v.864H5.262a1.966,1.966,0,0,0,.619,1.245,1.871,1.871,0,0,0,1.307.469A2.285,2.285,0,0,0,9.1-2.446l1.04,1.165A3.178,3.178,0,0,1,8.851-.231,4.229,4.229,0,0,1,7.05.146Zm-.242-6.5a1.326,1.326,0,0,0-1.022.425,2.195,2.195,0,0,0-.5,1.216H8.229v-.168a1.565,1.565,0,0,0-.381-1.088A1.368,1.368,0,0,0,6.808-6.357ZM15.8-2.19a.682.682,0,0,0-.385-.612,4.368,4.368,0,0,0-1.234-.4q-2.827-.593-2.827-2.4a2.178,2.178,0,0,1,.875-1.761,3.531,3.531,0,0,1,2.289-.707,3.8,3.8,0,0,1,2.413.71,2.239,2.239,0,0,1,.9,1.846H15.721a1.024,1.024,0,0,0-.293-.751,1.24,1.24,0,0,0-.916-.3,1.267,1.267,0,0,0-.828.242.763.763,0,0,0-.293.615.652.652,0,0,0,.333.568,3.428,3.428,0,0,0,1.124.374,9.183,9.183,0,0,1,1.333.355A2.19,2.19,0,0,1,17.86-2.278a2.067,2.067,0,0,1-.93,1.754,4.013,4.013,0,0,1-2.4.67,4.191,4.191,0,0,1-1.769-.355,2.968,2.968,0,0,1-1.212-.974,2.263,2.263,0,0,1-.439-1.337h2.007a1.105,1.105,0,0,0,.417.864,1.656,1.656,0,0,0,1.04.3,1.533,1.533,0,0,0,.919-.231A.718.718,0,0,0,15.8-2.19Z" transform="translate(971 6682.545)" fill="#fff"/>
    <path id="Trazado_101086" data-name="Trazado 101086" d="M-32.141-4.93h-4.5v3.047h5.281V0h-7.625V-11.375h7.609v1.9h-5.266v2.711h4.5ZM-27.75,0h-2.266V-12h2.266Zm11.891-2.984A1.2,1.2,0,0,0-16.328-4a6.148,6.148,0,0,0-1.687-.75,11.963,11.963,0,0,1-1.93-.777,3.153,3.153,0,0,1-1.937-2.82A2.747,2.747,0,0,1-21.363-10a3.389,3.389,0,0,1,1.492-1.129,5.616,5.616,0,0,1,2.184-.406,5.112,5.112,0,0,1,2.172.441,3.458,3.458,0,0,1,1.48,1.246,3.261,3.261,0,0,1,.527,1.828h-2.344a1.534,1.534,0,0,0-.492-1.215,2.023,2.023,0,0,0-1.383-.434,2.162,2.162,0,0,0-1.336.363,1.146,1.146,0,0,0-.477.957,1.1,1.1,0,0,0,.559.93,6.311,6.311,0,0,0,1.645.7,7.106,7.106,0,0,1,2.914,1.492A2.972,2.972,0,0,1-13.508-3,2.737,2.737,0,0,1-14.625-.684a4.891,4.891,0,0,1-3.008.84,5.808,5.808,0,0,1-2.391-.48,3.783,3.783,0,0,1-1.645-1.316,3.371,3.371,0,0,1-.566-1.937h2.352q0,1.883,2.25,1.883a2.189,2.189,0,0,0,1.3-.34A1.106,1.106,0,0,0-15.859-2.984ZM-9.687,0h-2.266V-8.453h2.266Zm-2.4-10.641a1.112,1.112,0,0,1,.34-.836,1.277,1.277,0,0,1,.926-.328,1.28,1.28,0,0,1,.922.328,1.105,1.105,0,0,1,.344.836A1.108,1.108,0,0,1-9.9-9.8a1.283,1.283,0,0,1-.918.328,1.283,1.283,0,0,1-.918-.328A1.108,1.108,0,0,1-12.086-10.641Zm8.836,8.3a.727.727,0,0,0-.41-.652,4.659,4.659,0,0,0-1.316-.426q-3.016-.633-3.016-2.562a2.323,2.323,0,0,1,.934-1.879,3.766,3.766,0,0,1,2.441-.754,4.053,4.053,0,0,1,2.574.758,2.388,2.388,0,0,1,.965,1.969H-3.336a1.092,1.092,0,0,0-.312-.8A1.322,1.322,0,0,0-4.625-7a1.351,1.351,0,0,0-.883.258.814.814,0,0,0-.312.656.7.7,0,0,0,.355.605,3.657,3.657,0,0,0,1.2.4A9.8,9.8,0,0,1-2.844-4.7,2.336,2.336,0,0,1-1.055-2.43,2.2,2.2,0,0,1-2.047-.559,4.28,4.28,0,0,1-4.609.156,4.47,4.47,0,0,1-6.5-.223,3.166,3.166,0,0,1-7.789-1.262a2.414,2.414,0,0,1-.469-1.426h2.141a1.179,1.179,0,0,0,.445.922,1.766,1.766,0,0,0,1.109.32,1.635,1.635,0,0,0,.98-.246A.766.766,0,0,0-3.25-2.336Zm6.352-8.2v2.078H4.547V-6.8H3.1v4.219a1.007,1.007,0,0,0,.18.672.9.9,0,0,0,.688.2,3.6,3.6,0,0,0,.664-.055V-.047a4.648,4.648,0,0,1-1.367.2,2.156,2.156,0,0,1-2.422-2.4V-6.8H-.391V-8.453H.844v-2.078ZM9.7.156A4.15,4.15,0,0,1,6.668-.984,4.054,4.054,0,0,1,5.5-4.023v-.219A5.106,5.106,0,0,1,5.992-6.52,3.612,3.612,0,0,1,7.387-8.066a3.914,3.914,0,0,1,2.059-.543,3.508,3.508,0,0,1,2.73,1.094,4.444,4.444,0,0,1,1,3.1v.922H7.789a2.1,2.1,0,0,0,.66,1.328,2,2,0,0,0,1.395.5,2.437,2.437,0,0,0,2.039-.945l1.109,1.242A3.389,3.389,0,0,1,11.617-.246,4.511,4.511,0,0,1,9.7.156ZM9.438-6.781a1.414,1.414,0,0,0-1.09.453,2.341,2.341,0,0,0-.535,1.3h3.141v-.18a1.669,1.669,0,0,0-.406-1.16A1.459,1.459,0,0,0,9.438-6.781ZM16.57-8.453l.07.945a2.971,2.971,0,0,1,2.43-1.1A2.255,2.255,0,0,1,21.313-7.32a2.9,2.9,0,0,1,2.539-1.289,2.521,2.521,0,0,1,2.047.8A3.681,3.681,0,0,1,26.57-5.4V0H24.3V-5.391a1.61,1.61,0,0,0-.281-1.051,1.246,1.246,0,0,0-.992-.332,1.409,1.409,0,0,0-1.406.969L21.633,0H19.375V-5.383a1.59,1.59,0,0,0-.289-1.062,1.259,1.259,0,0,0-.984-.328,1.463,1.463,0,0,0-1.391.8V0H14.453V-8.453ZM33.2,0a2.507,2.507,0,0,1-.227-.758,2.732,2.732,0,0,1-2.133.914,3,3,0,0,1-2.059-.719,2.312,2.312,0,0,1-.816-1.812,2.389,2.389,0,0,1,1-2.062,4.915,4.915,0,0,1,2.879-.727h1.039v-.484a1.393,1.393,0,0,0-.3-.937,1.183,1.183,0,0,0-.949-.352,1.345,1.345,0,0,0-.895.273.929.929,0,0,0-.324.75H28.156a2.268,2.268,0,0,1,.453-1.359,3,3,0,0,1,1.281-.98,4.669,4.669,0,0,1,1.859-.355,3.689,3.689,0,0,1,2.48.785,2.747,2.747,0,0,1,.918,2.207v3.664a4.041,4.041,0,0,0,.336,1.82V0ZM31.336-1.57a1.945,1.945,0,0,0,.922-.223,1.462,1.462,0,0,0,.625-.6V-3.844h-.844q-1.7,0-1.8,1.172l-.008.133a.9.9,0,0,0,.3.7A1.153,1.153,0,0,0,31.336-1.57ZM-11.855,13.016A1.2,1.2,0,0,0-12.324,12a6.148,6.148,0,0,0-1.687-.75,11.963,11.963,0,0,1-1.93-.777,3.153,3.153,0,0,1-1.937-2.82A2.747,2.747,0,0,1-17.359,6a3.389,3.389,0,0,1,1.492-1.129,5.616,5.616,0,0,1,2.184-.406,5.112,5.112,0,0,1,2.172.441,3.458,3.458,0,0,1,1.48,1.246A3.261,3.261,0,0,1-9.5,7.984h-2.344A1.534,1.534,0,0,0-12.34,6.77a2.023,2.023,0,0,0-1.383-.434,2.162,2.162,0,0,0-1.336.363,1.146,1.146,0,0,0-.477.957,1.1,1.1,0,0,0,.559.93,6.311,6.311,0,0,0,1.645.7,7.106,7.106,0,0,1,2.914,1.492A2.972,2.972,0,0,1-9.5,13a2.737,2.737,0,0,1-1.117,2.316,4.891,4.891,0,0,1-3.008.84,5.808,5.808,0,0,1-2.391-.48,3.783,3.783,0,0,1-1.645-1.316,3.371,3.371,0,0,1-.566-1.937h2.352q0,1.883,2.25,1.883a2.189,2.189,0,0,0,1.3-.34A1.106,1.106,0,0,0-11.855,13.016Zm3.438-1.32a5.013,5.013,0,0,1,.484-2.242A3.546,3.546,0,0,1-6.539,7.93a4.069,4.069,0,0,1,2.113-.539A3.849,3.849,0,0,1-1.633,8.438,4.2,4.2,0,0,1-.426,11.281l.016.578A4.418,4.418,0,0,1-1.5,14.98,3.775,3.775,0,0,1-4.41,16.156a3.793,3.793,0,0,1-2.918-1.172A4.5,4.5,0,0,1-8.418,11.8Zm2.258.164a3.151,3.151,0,0,0,.453,1.84,1.5,1.5,0,0,0,1.3.637,1.5,1.5,0,0,0,1.281-.629A3.448,3.448,0,0,0-2.668,11.7a3.12,3.12,0,0,0-.461-1.828,1.5,1.5,0,0,0-1.3-.648,1.475,1.475,0,0,0-1.281.645A3.506,3.506,0,0,0-6.16,11.859ZM3.363,16H1.1V4H3.363Zm6.758,0a2.507,2.507,0,0,1-.227-.758,2.732,2.732,0,0,1-2.133.914A3,3,0,0,1,5.7,15.438a2.312,2.312,0,0,1-.816-1.812,2.389,2.389,0,0,1,1-2.062,4.915,4.915,0,0,1,2.879-.727H9.8v-.484a1.393,1.393,0,0,0-.3-.937,1.183,1.183,0,0,0-.949-.352,1.345,1.345,0,0,0-.895.273.929.929,0,0,0-.324.75H5.074a2.268,2.268,0,0,1,.453-1.359,3,3,0,0,1,1.281-.98,4.669,4.669,0,0,1,1.859-.355,3.689,3.689,0,0,1,2.48.785,2.747,2.747,0,0,1,.918,2.207v3.664a4.041,4.041,0,0,0,.336,1.82V16ZM8.254,14.43a1.945,1.945,0,0,0,.922-.223,1.462,1.462,0,0,0,.625-.6V12.156H8.957q-1.7,0-1.8,1.172l-.008.133a.9.9,0,0,0,.3.7A1.153,1.153,0,0,0,8.254,14.43Zm10.3-4.766a6.134,6.134,0,0,0-.812-.062,1.654,1.654,0,0,0-1.68.867V16H13.8V7.547h2.133L16,8.555a2.092,2.092,0,0,1,1.883-1.164,2.366,2.366,0,0,1,.7.1Z" transform="translate(818 6522)" fill="#12263f"/>
  </g>
</svg>
