<svg xmlns="http://www.w3.org/2000/svg" width="255" height="255" viewBox="0 0 255 255">
  <g id="Grupo_55159" data-name="Grupo 55159" transform="translate(9690 9676)">
    <rect id="Rectángulo_5154" data-name="Rectángulo 5154" width="255" height="255" rx="21" transform="translate(-9690 -9676)" fill="#efefef"/>
    <g id="salon-de-clases" transform="translate(-9640 -9626)">
      <g id="Grupo_55145" data-name="Grupo 55145" transform="translate(3.041 3.041)">
        <path id="Trazado_100563" data-name="Trazado 100563" d="M80.919,130.415a12.168,12.168,0,0,0,12.165-12.164v-6.082a12.165,12.165,0,1,0-24.329,0v6.082a12.167,12.167,0,0,0,12.165,12.164Z" transform="translate(-50.886 -72.632)" fill="#ffdcd5" fill-rule="evenodd"/>
        <path id="Trazado_100564" data-name="Trazado 100564" d="M57.981,168.943a12.164,12.164,0,0,1-23.712,0A27.456,27.456,0,0,0,18.754,193.6H30.919v21.289H61.33V193.594H73.495a27.456,27.456,0,0,0-15.514-24.652Z" transform="translate(-16.092 -120.606)" fill="#fff" fill-rule="evenodd"/>
        <path id="Trazado_100565" data-name="Trazado 100565" d="M30.919,271.292V250H18.754v21.288a6.1,6.1,0,0,0,6.082,6.082h6.082Z" transform="translate(-16.092 -177.014)" fill="#ffdcd5" fill-rule="evenodd"/>
        <path id="Trazado_100566" data-name="Trazado 100566" d="M158.754,250v27.371h6.082a6.1,6.1,0,0,0,6.082-6.082V250Z" transform="translate(-113.516 -177.014)" fill="#ffdcd5" fill-rule="evenodd"/>
        <path id="Trazado_100567" data-name="Trazado 100567" d="M89.166,320.005H58.754v48.659H89.166V320.005Z" transform="translate(-43.927 -225.728)" fill="#6d91ac" fill-rule="evenodd"/>
        <path id="Trazado_100568" data-name="Trazado 100568" d="M136.124,82.989v8.526h92.222V13.041A3.05,3.05,0,0,0,225.306,10H111.8a3.05,3.05,0,0,0-3.041,3.041v24.33a12.2,12.2,0,0,1,12.165,12.165v6.082a12.092,12.092,0,0,1-.308,2.719,27.663,27.663,0,0,1,9.957,8.168,27.2,27.2,0,0,1,5.557,16.484Z" transform="translate(-78.721 -10)" fill="#6d91ac" fill-rule="evenodd"/>
        <path id="Trazado_100569" data-name="Trazado 100569" d="M290.977,278.039H198.754V290.2h89.181a3.05,3.05,0,0,0,3.041-3.041v-9.124Z" transform="translate(-141.351 -196.524)" fill="#c68a65" fill-rule="evenodd"/>
        <path id="Trazado_100570" data-name="Trazado 100570" d="M48.186,387.439a8.55,8.55,0,1,0-17.1,0v4.275a8.55,8.55,0,0,0,17.1,0Z" transform="translate(-24.673 -266.704)" fill="#ffdcd5" fill-rule="evenodd"/>
        <path id="Trazado_100571" data-name="Trazado 100571" d="M31.319,439.81a8.518,8.518,0,0,1-12.714,0A15.01,15.01,0,0,0,10,453.345v5.378H39.925v-5.378A15.009,15.009,0,0,0,31.319,439.81Z" transform="translate(-10 -309.098)" fill="#ffc144" fill-rule="evenodd"/>
        <path id="Trazado_100572" data-name="Trazado 100572" d="M146.587,387.439a8.55,8.55,0,1,0-17.1,0v4.275a8.55,8.55,0,0,0,17.1,0Z" transform="translate(-93.149 -266.704)" fill="#ffdcd5" fill-rule="evenodd"/>
        <path id="Trazado_100573" data-name="Trazado 100573" d="M129.72,439.81a8.518,8.518,0,0,1-12.714,0,15.01,15.01,0,0,0-8.606,13.535v5.378h29.925v-5.378A15.009,15.009,0,0,0,129.72,439.81Z" transform="translate(-78.476 -309.098)" fill="#ffc144" fill-rule="evenodd"/>
        <path id="Trazado_100574" data-name="Trazado 100574" d="M244.987,387.439a8.55,8.55,0,1,0-17.1,0v4.275a8.55,8.55,0,0,0,17.1,0Z" transform="translate(-161.624 -266.704)" fill="#ffdcd5" fill-rule="evenodd"/>
        <path id="Trazado_100575" data-name="Trazado 100575" d="M228.12,439.81a8.518,8.518,0,0,1-12.714,0,15.01,15.01,0,0,0-8.606,13.535v5.378h29.925v-5.378A15.009,15.009,0,0,0,228.12,439.81Z" transform="translate(-146.951 -309.098)" fill="#ffc144" fill-rule="evenodd"/>
        <path id="Trazado_100576" data-name="Trazado 100576" d="M343.387,387.439a8.55,8.55,0,1,0-17.1,0v4.275a8.55,8.55,0,0,0,17.1,0Z" transform="translate(-230.099 -266.704)" fill="#ffdcd5" fill-rule="evenodd"/>
        <path id="Trazado_100577" data-name="Trazado 100577" d="M326.52,439.81a8.518,8.518,0,0,1-12.714,0,15.01,15.01,0,0,0-8.606,13.535v5.378h29.925v-5.378A15.01,15.01,0,0,0,326.52,439.81Z" transform="translate(-215.426 -309.098)" fill="#ffc144" fill-rule="evenodd"/>
        <path id="Trazado_100578" data-name="Trazado 100578" d="M441.787,387.439a8.55,8.55,0,1,0-17.1,0v4.275a8.55,8.55,0,0,0,17.1,0Z" transform="translate(-298.574 -266.704)" fill="#ffdcd5" fill-rule="evenodd"/>
        <path id="Trazado_100579" data-name="Trazado 100579" d="M424.92,439.81a8.518,8.518,0,0,1-12.714,0,15.01,15.01,0,0,0-8.606,13.535v5.378h29.925v-5.378A15.009,15.009,0,0,0,424.92,439.81Z" transform="translate(-283.901 -309.098)" fill="#ffc144" fill-rule="evenodd"/>
      </g>
      <g id="Grupo_55146" data-name="Grupo 55146" transform="translate(0)">
        <path id="Trazado_100580" data-name="Trazado 100580" d="M54.172,105.79a9.083,9.083,0,0,0,8.543-6.028h86.911a6.089,6.089,0,0,0,6.082-6.082V6.082A6.089,6.089,0,0,0,149.625,0H36.115a6.089,6.089,0,0,0-6.082,6.082v21.6A15.123,15.123,0,0,0,17.976,42.469V48.5c0,.341.016.679.038,1.014A30.434,30.434,0,0,0,7.569,59.557,29.988,29.988,0,0,0,2.906,75.623v21.1a9.08,9.08,0,0,0,9.069,9.069h2.987v6.8a11.61,11.61,0,0,0-8.55,11.184v4.275a11.523,11.523,0,0,0,1,4.7A17.892,17.892,0,0,0,0,147.289v5.378a3.041,3.041,0,0,0,3.041,3.041H152.667a3.041,3.041,0,0,0,3.041-3.041v-5.378a17.9,17.9,0,0,0-7.41-14.542,11.519,11.519,0,0,0,1-4.7v-4.275a11.591,11.591,0,1,0-23.182,0v4.275a11.524,11.524,0,0,0,1,4.7,17.981,17.981,0,0,0-4.372,4.514,18,18,0,0,0-4.372-4.514,11.519,11.519,0,0,0,1-4.7v-4.275a11.591,11.591,0,1,0-23.182,0v4.275a11.519,11.519,0,0,0,1,4.7,17.981,17.981,0,0,0-4.372,4.514,17.99,17.99,0,0,0-4.372-4.514,11.519,11.519,0,0,0,1-4.7v-4.275a11.591,11.591,0,1,0-23.182,0v4.275a11.519,11.519,0,0,0,1,4.7,17.981,17.981,0,0,0-4.372,4.514,17.991,17.991,0,0,0-4.372-4.514,11.519,11.519,0,0,0,1-4.7v-4.275a11.61,11.61,0,0,0-8.335-11.122V105.79h2.986ZM48.144,72.581h0A3.041,3.041,0,0,0,45.1,75.622V93.68H36.115V63.286a15.147,15.147,0,0,0,10.283-7.7,23.97,23.97,0,0,1,10.57,17Zm6.028,27.127H51.185V78.664h5.974V96.721A2.991,2.991,0,0,1,54.172,99.708ZM149.625,6.082V81.515H120.117a3.041,3.041,0,1,0,0,6.082h29.508V93.68H63.241V87.6H92.747a3.041,3.041,0,1,0,0-6.082H63.241V75.623A30.041,30.041,0,0,0,48.133,49.511c.023-.336.038-.673.038-1.014V42.468A15.123,15.123,0,0,0,36.115,27.679V6.082ZM24.059,42.469a9.025,9.025,0,0,1,9.015-9.015h0a9.025,9.025,0,0,1,9.015,9.015V48.5a9.015,9.015,0,0,1-18.03,0Zm-4.31,13.116a15.148,15.148,0,0,0,10.284,7.7V93.68H21.045V75.622A3.041,3.041,0,0,0,18,72.581H9.179a23.954,23.954,0,0,1,10.57-17ZM11.976,99.708a2.99,2.99,0,0,1-2.987-2.987V78.664h5.974V99.708Zm.519,24.068a5.509,5.509,0,0,1,11.018,0v4.275a5.509,5.509,0,1,1-11.018,0Zm17.43,25.85H6.082v-2.337a12.038,12.038,0,0,1,5.184-9.814,11.553,11.553,0,0,0,13.478,0,11.859,11.859,0,0,1,5.18,9.817Zm3.041-12.359a18,18,0,0,0-4.372-4.514,11.519,11.519,0,0,0,1-4.7v-4.275a11.61,11.61,0,0,0-8.55-11.184V99.762H45.1v12.773a11.611,11.611,0,0,0-8.765,11.241v4.275a11.519,11.519,0,0,0,1,4.7,17.994,17.994,0,0,0-4.372,4.514ZM132.2,123.776a5.509,5.509,0,0,1,11.018,0v4.275a5.509,5.509,0,0,1-11.018,0Zm-6.412,23.512a12.036,12.036,0,0,1,5.184-9.814,11.553,11.553,0,0,0,13.478,0,11.858,11.858,0,0,1,5.18,9.817v2.337H125.783ZM102.27,123.776a5.509,5.509,0,0,1,11.018,0v4.275a5.509,5.509,0,0,1-11.018,0Zm-1.228,13.7a11.553,11.553,0,0,0,13.478,0,11.858,11.858,0,0,1,5.18,9.817v2.337H95.858v-2.337A12.036,12.036,0,0,1,101.042,137.475Zm-28.7-13.7a5.509,5.509,0,0,1,11.018,0v4.275a5.509,5.509,0,1,1-11.018,0Zm-1.228,13.7a11.553,11.553,0,0,0,13.478,0,11.858,11.858,0,0,1,5.18,9.817v2.337H65.933v-2.337a12.035,12.035,0,0,1,5.184-9.814ZM59.85,149.626H36.007v-2.337a12.037,12.037,0,0,1,5.184-9.814,11.553,11.553,0,0,0,13.478,0,11.858,11.858,0,0,1,5.18,9.817Zm-6.413-25.85v4.275a5.509,5.509,0,1,1-11.018,0v-4.275a5.509,5.509,0,1,1,11.018,0Z" transform="translate(0)"/>
        <path id="Trazado_100581" data-name="Trazado 100581" d="M222.885,99.153a3.041,3.041,0,0,0,3.041-3.041V90.029h6.082v6.083a3.041,3.041,0,1,0,6.082,0V77.864a9.123,9.123,0,1,0-18.247,0V96.111A3.041,3.041,0,0,0,222.885,99.153Zm3.041-21.288a3.041,3.041,0,1,1,6.082,0v6.082h-6.082Z" transform="translate(-152.986 -47.836)"/>
        <path id="Trazado_100582" data-name="Trazado 100582" d="M388.97,99.154a9.134,9.134,0,0,0,9.123-9.123,3.041,3.041,0,1,0-6.082,0,3.041,3.041,0,1,1-6.082,0V77.865a3.041,3.041,0,1,1,6.082,0,3.041,3.041,0,1,0,6.082,0,9.123,9.123,0,1,0-18.247,0V90.03A9.134,9.134,0,0,0,388.97,99.154Z" transform="translate(-264.329 -47.836)"/>
        <path id="Trazado_100583" data-name="Trazado 100583" d="M302.887,99.153h6.082a9.119,9.119,0,0,0,6.795-15.206,9.119,9.119,0,0,0-6.795-15.206h-6.082a3.041,3.041,0,0,0-3.041,3.041V96.111A3.041,3.041,0,0,0,302.887,99.153Zm6.082-6.082h-3.041V86.988h3.041a3.041,3.041,0,0,1,0,6.082Zm0-18.247a3.041,3.041,0,0,1,0,6.082h-3.041V74.823Z" transform="translate(-208.658 -47.836)"/>
        <path id="Trazado_100584" data-name="Trazado 100584" d="M343.014,268.039h0a3.041,3.041,0,1,0,3.044,3.041A3.04,3.04,0,0,0,343.012,268.039Z" transform="translate(-236.581 -186.524)"/>
      </g>
    </g>
  </g>
</svg>
