<svg xmlns="http://www.w3.org/2000/svg" width="255" height="255" viewBox="0 0 255 255">
  <g id="Grupo_55160" data-name="Grupo 55160" transform="translate(9690 9399)">
    <rect id="Rectángulo_5155" data-name="Rectángulo 5155" width="255" height="255" rx="21" transform="translate(-9690 -9399)" fill="#31326f"/>
    <path id="Trazado_100161" data-name="Trazado 100161" d="M150.27-117.634a4.682,4.682,0,0,1-1.27-2.809q0-1.246,2.1-3.3a3.708,3.708,0,0,1,2.589-1.173q1.368,0,3.811,2.443a7.437,7.437,0,0,0,1.954,1.588,4.647,4.647,0,0,0,2.345.757q4.544,0,4.544-3.713a2.193,2.193,0,0,0-1.246-1.881,9.132,9.132,0,0,0-3.1-1.1,26.7,26.7,0,0,1-4.006-1.1,26.4,26.4,0,0,1-4.006-1.783,8.1,8.1,0,0,1-3.1-3.249,10.783,10.783,0,0,1-1.246-5.35,10.27,10.27,0,0,1,3.2-7.5q3.2-3.2,8.721-3.2a17.843,17.843,0,0,1,5.35.757,10.258,10.258,0,0,1,3.347,1.539l1.221.928a3.815,3.815,0,0,1,1.515,2.394,5.4,5.4,0,0,1-1.173,2.687q-1.661,2.443-3.42,2.443a5.015,5.015,0,0,1-2.541-.977,5.748,5.748,0,0,1-.562-.489,7.457,7.457,0,0,0-.757-.635,4.893,4.893,0,0,0-2.614-.635,4.4,4.4,0,0,0-2.638.757,2.445,2.445,0,0,0-1.05,2.1,2.514,2.514,0,0,0,1.246,2.174,7.7,7.7,0,0,0,3.1,1.124,36.577,36.577,0,0,1,4.055.9,25.239,25.239,0,0,1,4.055,1.49,7.162,7.162,0,0,1,3.1,3.054,10.612,10.612,0,0,1,1.246,5.35,11.857,11.857,0,0,1-1.27,5.594,9.667,9.667,0,0,1-3.322,3.738A15.164,15.164,0,0,1,162-112.113a16.4,16.4,0,0,1-4.348-.562,11.78,11.78,0,0,1-3.322-1.392,11.878,11.878,0,0,1-3.615-3.029Zm29.7-30.828h27.164a5.4,5.4,0,0,1,2.3.366,1.853,1.853,0,0,1,.977,1.148,7.061,7.061,0,0,1,.244,2.052,6.806,6.806,0,0,1-.244,2.028,1.677,1.677,0,0,1-.831,1.05,5.691,5.691,0,0,1-2.492.44h-9.332V-116.8a13.54,13.54,0,0,1-.073,1.661,3.966,3.966,0,0,1-.44,1.246,2.071,2.071,0,0,1-1.295,1,8.329,8.329,0,0,1-2.443.293,8.076,8.076,0,0,1-2.418-.293,2.063,2.063,0,0,1-1.27-1,3.943,3.943,0,0,1-.44-1.27,14.193,14.193,0,0,1-.073-1.686v-24.526h-9.38a5.4,5.4,0,0,1-2.3-.366,1.852,1.852,0,0,1-.977-1.148,7.061,7.061,0,0,1-.244-2.052,6.806,6.806,0,0,1,.244-2.028,1.677,1.677,0,0,1,.831-1.05A5.691,5.691,0,0,1,179.975-148.463Zm43.385,27.213h15.048a14.2,14.2,0,0,1,1.686.073,3.914,3.914,0,0,1,1.295.464q1.319.684,1.319,3.811,0,3.42-1.808,4.006a8.169,8.169,0,0,1-2.541.293H219.011q-3.42,0-4.006-1.857a7.682,7.682,0,0,1-.293-2.492v-27.164q0-2.492.928-3.4t3.518-.9h19.249a14.2,14.2,0,0,1,1.686.073,3.914,3.914,0,0,1,1.295.464q1.319.684,1.319,3.811,0,3.42-1.808,4.006a8.169,8.169,0,0,1-2.541.293h-15v4.935h9.674a14.193,14.193,0,0,1,1.686.073,3.914,3.914,0,0,1,1.295.464q1.319.684,1.319,3.811,0,3.42-1.857,4.006a8.169,8.169,0,0,1-2.541.293H223.36Zm61.706-25.8a3.9,3.9,0,0,1,.464,1.319,14.864,14.864,0,0,1,.073,1.71V-116.9q0,3.371-1.857,3.957a7.919,7.919,0,0,1-2.345.293,8.258,8.258,0,0,1-2.247-.244,3.86,3.86,0,0,1-1.27-.586,2.2,2.2,0,0,1-.684-.977,9.715,9.715,0,0,1-.244-2.541v-16.367q-1.221,1.515-3.567,4.812t-2.98,4.128l-.879,1.148a4.7,4.7,0,0,1-1.2.879,3.97,3.97,0,0,1-2.052.562,3.987,3.987,0,0,1-2-.513,4.511,4.511,0,0,1-1.295-1l-.391-.537q-.977-1.221-3.86-5.2t-3.127-4.275V-116.9a14.192,14.192,0,0,1-.073,1.686,3.474,3.474,0,0,1-.464,1.246q-.733,1.319-3.811,1.319-2.98,0-3.713-1.319a3.468,3.468,0,0,1-.464-1.27,15.448,15.448,0,0,1-.073-1.759v-27.115a14.192,14.192,0,0,1,.073-1.686,3.914,3.914,0,0,1,.464-1.295q.733-1.27,3.811-1.27a7.215,7.215,0,0,1,2.272.318,2.93,2.93,0,0,1,1.246.66l.293.293,11.09,14.559q8.306-10.993,11.09-14.51.831-1.319,3.933-1.319T285.066-147.046Z" transform="translate(-9779.801 -9211)" fill="#cc3d60"/>
    <g id="Grupo_55147" data-name="Grupo 55147" transform="translate(-9675 -9290.667)">
      <path id="Trazado_99202" data-name="Trazado 99202" d="M503.978,144.771c-6.528-1.1-9.506-14.664-6.779-30.886s9.977-28.07,16.5-26.972,9.506,14.664,6.779,30.886S510.506,145.869,503.978,144.771ZM513.5,88.145c-5.643-.948-12.543,10.934-15.066,25.948s.111,28.5,5.754,29.447,12.542-10.934,15.066-25.948S519.14,89.093,513.5,88.145Z" transform="translate(-479.342 -86.45)" fill="#fff"/>
      <path id="Trazado_99203" data-name="Trazado 99203" d="M465.1,146.507a6.672,6.672,0,0,1-4.539-2.341,4.454,4.454,0,0,1-.55-3.807c1.393-5.53,10.678-13.413,23.105-19.616,16.112-8.042,31.474-10.457,34.97-5.5a4.455,4.455,0,0,1,.549,3.808c-1.392,5.53-10.678,13.413-23.1,19.615C483.365,144.739,471.625,147.6,465.1,146.507Zm48.283-32.4c-6.116-1.028-17.983,1.9-29.708,7.756-11.931,5.955-21.163,13.688-22.452,18.8a3.267,3.267,0,0,0,.359,2.782c3.046,4.318,18.337,1.617,33.392-5.9h0c11.931-5.955,21.163-13.687,22.452-18.8a3.268,3.268,0,0,0-.359-2.783A5.434,5.434,0,0,0,513.383,114.1Z" transform="translate(-459.826 -100.311)" fill="#fff"/>
      <path id="Trazado_99204" data-name="Trazado 99204" d="M511.781,145.672c-6.65-1.118-16.746-6.673-26.583-15.074h0c-10.791-9.216-18.065-19.241-18.1-24.947a4.335,4.335,0,0,1,1.385-3.46c4.5-3.947,18.9,2.245,32.774,14.095,10.791,9.216,18.066,19.242,18.1,24.948a4.334,4.334,0,0,1-1.386,3.46C516.662,145.842,514.511,146.131,511.781,145.672Zm-25.772-16.024c14.31,12.221,27.655,17.16,31.14,14.1a3.147,3.147,0,0,0,.96-2.513c-.034-5.281-7.3-15.153-17.664-24.006-14.31-12.221-27.654-17.16-31.14-14.105a3.148,3.148,0,0,0-.96,2.513C468.378,110.923,475.642,120.795,486.009,129.648Z" transform="translate(-463.728 -94.049)" fill="#fff"/>
      <g id="Grupo_53367" data-name="Grupo 53367" transform="translate(49.228 45.531)">
        <path id="Trazado_99205" data-name="Trazado 99205" d="M571.1,192.953a4.449,4.449,0,0,1-4.651-2.615,4.2,4.2,0,0,1-.283-2.577,4.4,4.4,0,0,1,6.41-2.947c.081.045.158.093.236.141a4.172,4.172,0,0,1,1.076,1A4.409,4.409,0,0,1,571.1,192.953Z" transform="translate(-566.077 -184.265)" fill="#9ddfd3"/>
        <path id="Trazado_99206" data-name="Trazado 99206" d="M571.527,194.914a4.449,4.449,0,0,1-4.651-2.615,9.2,9.2,0,0,0,1.972.585,4.5,4.5,0,0,0,5.47-4.925c0-.012,0-.029,0-.041A4.409,4.409,0,0,1,571.527,194.914Z" transform="translate(-566.506 -186.225)" opacity="0.5" style="mix-blend-mode: soft-light;isolation: isolate"/>
        <path id="Trazado_99207" data-name="Trazado 99207" d="M573.483,186.4a1.251,1.251,0,0,0-.623-.661,3.033,3.033,0,0,0-4.125,1.686,1.069,1.069,0,0,0,.443,1.183,2.151,2.151,0,0,0,1.655.1,5.65,5.65,0,0,0,2.041-1.093C573.225,187.327,573.632,186.881,573.483,186.4Z" transform="translate(-567.484 -184.896)" fill="#fff" style="mix-blend-mode: soft-light;isolation: isolate"/>
      </g>
      <g id="Grupo_53368" data-name="Grupo 53368" transform="translate(1.355 28.966)">
        <path id="Trazado_99208" data-name="Trazado 99208" d="M467.771,157.2a4.449,4.449,0,0,1-4.651-2.615,4.2,4.2,0,0,1-.283-2.577,4.4,4.4,0,0,1,6.41-2.947c.081.045.158.093.236.141a4.165,4.165,0,0,1,1.076,1A4.409,4.409,0,0,1,467.771,157.2Z" transform="translate(-462.75 -148.512)" fill="#9ddfd3"/>
        <path id="Trazado_99209" data-name="Trazado 99209" d="M468.2,159.162a4.449,4.449,0,0,1-4.651-2.615,9.2,9.2,0,0,0,1.972.585,4.5,4.5,0,0,0,5.469-4.925c0-.013,0-.029,0-.042A4.409,4.409,0,0,1,468.2,159.162Z" transform="translate(-463.179 -150.473)" opacity="0.5" style="mix-blend-mode: soft-light;isolation: isolate"/>
        <path id="Trazado_99210" data-name="Trazado 99210" d="M470.156,150.646a1.25,1.25,0,0,0-.623-.661,3.033,3.033,0,0,0-4.125,1.686,1.068,1.068,0,0,0,.443,1.182,2.15,2.15,0,0,0,1.655.1,5.657,5.657,0,0,0,2.041-1.093C469.9,151.576,470.305,151.129,470.156,150.646Z" transform="translate(-464.157 -149.144)" fill="#fff" style="mix-blend-mode: soft-light;isolation: isolate"/>
      </g>
      <g id="Grupo_53369" data-name="Grupo 53369" transform="translate(23.759 0)">
        <path id="Trazado_99211" data-name="Trazado 99211" d="M516.127,94.683a4.449,4.449,0,0,1-4.651-2.615,4.2,4.2,0,0,1-.282-2.577,4.4,4.4,0,0,1,6.41-2.946c.081.045.158.093.236.141a4.169,4.169,0,0,1,1.076,1A4.409,4.409,0,0,1,516.127,94.683Z" transform="translate(-511.105 -85.994)" fill="#9ddfd3"/>
        <path id="Trazado_99212" data-name="Trazado 99212" d="M516.556,96.643a4.45,4.45,0,0,1-4.651-2.615,9.205,9.205,0,0,0,1.973.585,4.5,4.5,0,0,0,5.47-4.925c0-.013,0-.029,0-.042A4.409,4.409,0,0,1,516.556,96.643Z" transform="translate(-511.534 -87.954)" opacity="0.5" style="mix-blend-mode: soft-light;isolation: isolate"/>
        <path id="Trazado_99213" data-name="Trazado 99213" d="M518.512,88.127a1.251,1.251,0,0,0-.623-.661,3.032,3.032,0,0,0-4.125,1.686,1.068,1.068,0,0,0,.443,1.182,2.151,2.151,0,0,0,1.655.1,5.659,5.659,0,0,0,2.04-1.093C518.254,89.057,518.661,88.61,518.512,88.127Z" transform="translate(-512.513 -86.625)" fill="#fff" style="mix-blend-mode: soft-light;isolation: isolate"/>
      </g>
      <g id="Grupo_53370" data-name="Grupo 53370" transform="translate(22.328 22.2)">
        <path id="Trazado_99214" data-name="Trazado 99214" d="M516.311,148.259a7.347,7.347,0,0,1-7.682-4.319,6.932,6.932,0,0,1-.467-4.257,7.268,7.268,0,0,1,10.586-4.866c.134.075.262.154.39.233a6.886,6.886,0,0,1,1.777,1.653C524.014,140.753,521.954,147.445,516.311,148.259Z" transform="translate(-508.017 -133.908)" fill="#cc3d60"/>
        <path id="Trazado_99215" data-name="Trazado 99215" d="M517.019,151.5a7.347,7.347,0,0,1-7.682-4.319,15.215,15.215,0,0,0,3.257.966,8.222,8.222,0,0,0,5.209-.719c2.571-1.393,3.9-4.489,3.824-7.415,0-.021,0-.047,0-.069C524.723,143.99,522.662,150.682,517.019,151.5Z" transform="translate(-508.726 -137.145)" opacity="0.5" style="mix-blend-mode: soft-light;isolation: isolate"/>
        <path id="Trazado_99216" data-name="Trazado 99216" d="M520.249,137.43a2.064,2.064,0,0,0-1.029-1.092c-2.433-1.326-6.156.2-6.813,2.785a1.765,1.765,0,0,0,.732,1.953,3.554,3.554,0,0,0,2.733.165,9.335,9.335,0,0,0,3.37-1.8C519.824,138.967,520.5,138.229,520.249,137.43Z" transform="translate(-510.341 -134.95)" fill="#fff" style="mix-blend-mode: soft-light;isolation: isolate"/>
      </g>
    </g>
    <g id="Grupo_55148" data-name="Grupo 55148" transform="translate(-9604 -9245.421)">
      <path id="Trazado_99231" data-name="Trazado 99231" d="M376.558,170.258a4.356,4.356,0,1,1-8.712,0,4.356,4.356,0,0,1,8.712,0Z" transform="translate(-342.364 -111.674)" fill="#cc3d60"/>
      <path id="Trazado_99232" data-name="Trazado 99232" d="M376.558,172.939a4.371,4.371,0,0,1-.2,1.312,13.555,13.555,0,0,1-3.886.413,16.578,16.578,0,0,1-4.423-.413,4.369,4.369,0,0,1-.2-1.312,4.312,4.312,0,0,1,.926-2.678,14.529,14.529,0,0,0,6.864,0A4.33,4.33,0,0,1,376.558,172.939Z" transform="translate(-342.364 -114.354)" opacity="0.5" style="mix-blend-mode: soft-light;isolation: isolate"/>
      <path id="Trazado_99233" data-name="Trazado 99233" d="M368.814,77.347a.032.032,0,0,0-.005.015,14.2,14.2,0,0,1-.95,2.13c-1.679,3.04-4.348,5.394-6.419,8.179-1.948,2.626-3.371,6.012-2.544,9.114a19.956,19.956,0,0,1-4.915,1.017,11.464,11.464,0,0,1-5.51-.914c.89-3.131-.548-6.565-2.511-9.217-2.068-2.785-4.74-5.139-6.416-8.179-.1-.183-.2-.368-.286-.555A15.285,15.285,0,0,1,340.33,63.79c4.716-6.834,14.7-8.217,21.74-4.41a14.143,14.143,0,0,1,5,4.41A15.35,15.35,0,0,1,368.814,77.347Z" transform="translate(-323.86 -44.918)" fill="#ffc93c"/>
      <path id="Trazado_99234" data-name="Trazado 99234" d="M371.226,109.367a14.2,14.2,0,0,1-.95,2.13c-1.679,3.04-4.348,5.394-6.419,8.179-1.948,2.626-3.372,6.012-2.544,9.114a19.954,19.954,0,0,1-4.915,1.017,11.464,11.464,0,0,1-5.51-.914c.89-3.131-.548-6.565-2.511-9.217-2.068-2.785-4.74-5.139-6.416-8.179-.1-.183-.2-.368-.286-.555,1.476,1.325,2.821,2.8,4.381,4.03.212.168.431.329.652.488a17.241,17.241,0,0,0,13.44,2.965,15.524,15.524,0,0,0,10.939-8.729C371.135,109.588,371.178,109.478,371.226,109.367Z" transform="translate(-326.278 -76.923)" opacity="0.5" style="mix-blend-mode: soft-light;isolation: isolate"/>
      <path id="Trazado_99235" data-name="Trazado 99235" d="M374.1,170.778a11.549,11.549,0,0,1-5.085.86,14.305,14.305,0,0,1-5.082-.632c-.182-.069-.363-.145-.541-.228-1.991-.935-1.288-4.485.914-3.82.117.032.229.071.346.1a14.629,14.629,0,0,0,8.188,0c.117-.032.229-.071.346-.1C375.384,166.293,376.086,169.843,374.1,170.778Z" transform="translate(-338.904 -112.273)" fill="#31326f"/>
      <path id="Trazado_99236" data-name="Trazado 99236" d="M374.1,162.456a11.548,11.548,0,0,1-5.085.86,14.305,14.305,0,0,1-5.082-.632c-.182-.069-.363-.144-.541-.228-1.991-.935-1.288-4.485.914-3.82.117.033.229.071.346.1a14.626,14.626,0,0,0,8.188,0c.117-.032.229-.07.346-.1C375.384,157.972,376.086,161.521,374.1,162.456Z" transform="translate(-338.904 -107.158)" fill="#31326f"/>
      <path id="Trazado_99237" data-name="Trazado 99237" d="M374.1,154.135a11.554,11.554,0,0,1-5.085.86,14.305,14.305,0,0,1-5.082-.632q-.273-.1-.541-.228c-1.991-.935-1.288-4.485.914-3.82.117.032.229.07.346.1a14.625,14.625,0,0,0,8.188,0c.117-.032.229-.07.346-.1C375.384,149.65,376.086,153.2,374.1,154.135Z" transform="translate(-338.904 -102.043)" fill="#31326f"/>
      <path id="Trazado_99238" data-name="Trazado 99238" d="M374.538,109.995c-.067-.233-.459-.167-.493.091-.186,1.408-.383,2.386-1.888,2.8a3.269,3.269,0,0,1-1.89-.181,2.978,2.978,0,0,0,1.088-.974,1.694,1.694,0,0,0-.059-2.086,1.724,1.724,0,0,0-2.325.072c-.959.913-.717,1.882.024,2.808a3.5,3.5,0,0,1-2.092-.16c.612-.568,1.226-1.2,1.045-2.12a1.479,1.479,0,0,0-1.754-1.129,1.6,1.6,0,0,0-1.346,1.875,2.48,2.48,0,0,0,.813,1.328,4.11,4.11,0,0,1-2.149.025,1.662,1.662,0,0,0,.383-2.069,1.535,1.535,0,0,0-2.154-.57,1.471,1.471,0,0,0-.055,2.3,3.656,3.656,0,0,0,.69.531,3.768,3.768,0,0,1-.757.394,2.412,2.412,0,0,1-.831.193c-1.325-.075-1.681-1.251-2.072-2.361-.077-.219-.467-.2-.5.018a2.471,2.471,0,0,0,1.831,2.868,2.891,2.891,0,0,0,1.293-.026.489.489,0,0,0,.131-.036,6.678,6.678,0,0,0,1.5-.8,4.562,4.562,0,0,0,3.281-.029c.078.04.146.09.228.123a4.729,4.729,0,0,0,3.075.124,3.108,3.108,0,0,0,1.271.507C373.078,113.6,375.272,112.56,374.538,109.995Zm-11.69,2.091c-.07.067-.522-.365-.568-.425a1.4,1.4,0,0,1-.429-.971.685.685,0,0,1,.922-.58.872.872,0,0,1,.584,1.04A1.591,1.591,0,0,1,362.848,112.086Zm3.437-.075c-.03-.033-.073-.042-.1-.076-.3-.336-.6-.556-.613-1.077-.018-.739.651-1.384,1.392-.863.428.3.241,1-.028,1.391A2.817,2.817,0,0,1,366.285,112.01Zm3.32.3a1.589,1.589,0,0,1-.534-1.277,1.193,1.193,0,0,1,.566-.931.8.8,0,0,1,1.261.677,1.921,1.921,0,0,1-1.058,1.405C369.762,112.24,369.686,112.264,369.605,112.311Z" transform="translate(-336.419 -76.754)" style="mix-blend-mode: soft-light;isolation: isolate"/>
      <path id="Trazado_99239" data-name="Trazado 99239" d="M376.488,160.38a26.253,26.253,0,0,1-4.938.63c-1.563-.022-3.077-.472-4.616-.518a.067.067,0,0,0-.034.125,9.178,9.178,0,0,0,4.845,1.021,10.886,10.886,0,0,0,4.847-1.009C376.736,160.556,376.632,160.355,376.488,160.38Z" transform="translate(-341.763 -108.279)" fill="#9ddfd3"/>
      <path id="Trazado_99240" data-name="Trazado 99240" d="M367.18,168.616a26.09,26.09,0,0,0,4.918.611c1.553-.028,3.048-.483,4.576-.536a.068.068,0,0,1,.037.125,8.986,8.986,0,0,1-4.794,1.039,10.853,10.853,0,0,1-4.836-.99C366.937,168.792,367.036,168.591,367.18,168.616Z" transform="translate(-341.851 -113.341)" fill="#9ddfd3"/>
      <path id="Trazado_99241" data-name="Trazado 99241" d="M358.043,63.282a7.814,7.814,0,0,0-5.089.042,11.868,11.868,0,0,0-7.613,6.558,6.956,6.956,0,0,0-.088,5.579c1.359,2.812,5.325,3.081,8.022,2.442a11.585,11.585,0,0,0,7.472-6.066c1.33-2.742.635-6.975-2.363-8.406Q358.215,63.35,358.043,63.282Z" transform="translate(-328.141 -48.345)" fill="#fff" style="mix-blend-mode: soft-light;isolation: isolate"/>
      <g id="Grupo_53374" data-name="Grupo 53374" transform="translate(0 0)">
        <path id="Trazado_99242" data-name="Trazado 99242" d="M425.683,48c-1.516.484-2.751,1.858-3.958,2.872a40.822,40.822,0,0,0-3.86,3.519c-.5.544.055,1.65.822,1.312a39.065,39.065,0,0,0,4.344-2.333c1.388-.833,3.237-1.571,4.214-2.878A1.534,1.534,0,0,0,425.683,48Z" transform="translate(-372.992 -39.15)" fill="#ffc93c"/>
        <path id="Trazado_99243" data-name="Trazado 99243" d="M427.058,67.284a23.146,23.146,0,0,0-2.371.851,5.812,5.812,0,0,0-1.939,1.017.724.724,0,0,0,.357,1.193,5.841,5.841,0,0,0,2.211-.187,23.114,23.114,0,0,0,2.466-.545A1.22,1.22,0,0,0,427.058,67.284Z" transform="translate(-375.99 -51.028)" fill="#ffc93c"/>
        <path id="Trazado_99244" data-name="Trazado 99244" d="M415.2,48.969a1.272,1.272,0,0,0-1.693.5c-.253.407-.54.808-.757,1.235s-.375.9-.557,1.344a.912.912,0,0,0,1.46,1.052,14.035,14.035,0,0,0,1.077-1.086c.348-.43.651-.906.973-1.356A1.256,1.256,0,0,0,415.2,48.969Z" transform="translate(-369.574 -39.706)" fill="#ffc93c"/>
        <path id="Trazado_99245" data-name="Trazado 99245" d="M329.882,37.988c.568,1.487,2.008,2.643,3.088,3.792a40.993,40.993,0,0,0,3.728,3.659c.571.472,1.645-.147,1.264-.894a38.955,38.955,0,0,0-2.57-4.208c-.909-1.339-1.748-3.144-3.107-4.047C331.1,35.5,329.295,36.448,329.882,37.988Z" transform="translate(-318.958 -31.83)" fill="#ffc93c"/>
        <path id="Trazado_99246" data-name="Trazado 99246" d="M349.422,42.781a22.969,22.969,0,0,0,.981,2.32,5.8,5.8,0,0,0,1.123,1.88.724.724,0,0,0,1.171-.423,5.835,5.835,0,0,0-.31-2.2,22.967,22.967,0,0,0-.681-2.432A1.22,1.22,0,0,0,349.422,42.781Z" transform="translate(-330.999 -34.996)" fill="#ffc93c"/>
        <path id="Trazado_99247" data-name="Trazado 99247" d="M331.967,58.231a1.272,1.272,0,0,0,.6,1.662c.42.23.837.495,1.275.688s.918.324,1.372.481a.912.912,0,0,0,.97-1.516,13.977,13.977,0,0,0-1.144-1.015c-.448-.324-.941-.6-1.408-.9A1.256,1.256,0,0,0,331.967,58.231Z" transform="translate(-320.237 -45.039)" fill="#ffc93c"/>
        <path id="Trazado_99248" data-name="Trazado 99248" d="M383.168,25.365a1.193,1.193,0,0,0-1.11-.108,1.5,1.5,0,0,0-1.008,1.417,50.3,50.3,0,0,0,.173,7.242.773.773,0,0,0,1.518.155,52.378,52.378,0,0,0,1.178-7.49A1.4,1.4,0,0,0,383.168,25.365Z" transform="translate(-350.442 -25.166)" fill="#ffc93c"/>
        <path id="Trazado_99249" data-name="Trazado 99249" d="M425.518,121.261c-1.112-.442-2.4-1.191-3.626-.986-.3.05-.645.335-.492.692.521,1.213,1.815,1.889,2.854,2.628a1.327,1.327,0,0,0,1.264-2.334Z" transform="translate(-375.26 -83.607)" fill="#ffc93c"/>
        <path id="Trazado_99250" data-name="Trazado 99250" d="M337.4,139.1a.526.526,0,0,0-.523-.49c-1.141-.094-2.131,1.176-2.912,1.87-1.072.954-2.092,1.942-3.1,2.96-1.185,1.192.742,3,1.9,1.785.989-1.036,1.949-2.081,2.872-3.177C336.311,141.249,337.529,140.235,337.4,139.1Z" transform="translate(-319.403 -94.894)" fill="#ffc93c"/>
        <path id="Trazado_99251" data-name="Trazado 99251" d="M336.965,132.8c-.484-.4-1.125-.032-1.6.2a11.086,11.086,0,0,0-2.226,1.346.857.857,0,0,0,.912,1.45C334.517,135.557,337.853,133.53,336.965,132.8Z" transform="translate(-320.805 -91.217)" fill="#ffc93c"/>
        <path id="Trazado_99252" data-name="Trazado 99252" d="M434.284,112.967c-.924-.932-2.473-.9-3.726-1.026a9.9,9.9,0,0,0-4.411.107c-.237.087-.385.45-.145.63a9.557,9.557,0,0,0,4.048,1.38c1.328.263,2.886.756,4.121.087A.755.755,0,0,0,434.284,112.967Z" transform="translate(-378.036 -78.384)" fill="#ffc93c"/>
        <path id="Trazado_99253" data-name="Trazado 99253" d="M311.993,98.063c-1.143-.858-3.112-.754-4.513-.783-1.671-.035-4-.361-5.426.613a.756.756,0,0,0,.042,1.289c1.511.869,3.778.362,5.452.2,1.383-.136,3.383-.186,4.45-1.128A.134.134,0,0,0,311.993,98.063Z" transform="translate(-301.713 -69.444)" fill="#ffc93c"/>
        <path id="Trazado_99254" data-name="Trazado 99254" d="M414.244,143.2a28.041,28.041,0,0,0-2.531-2.055,12.316,12.316,0,0,0-2.514-1.684c-.392-.174-.889.242-.609.65a12.894,12.894,0,0,0,2.221,2.276,28.147,28.147,0,0,0,2.5,2.1C414.079,145.022,414.87,143.811,414.244,143.2Z" transform="translate(-367.359 -95.395)" fill="#ffc93c"/>
        <path id="Trazado_99255" data-name="Trazado 99255" d="M433.321,90.175a.792.792,0,0,0-.76-.541,24.86,24.86,0,0,0-3.108.458c-.449.094-.438.875.03.926a25.02,25.02,0,0,0,3.128.155.787.787,0,0,0,.723-.589A.588.588,0,0,0,433.321,90.175Z" transform="translate(-380.031 -64.793)" fill="#ffc93c"/>
        <path id="Trazado_99256" data-name="Trazado 99256" d="M329.182,126.2c-1.25-.436-2.8.491-3.942.958-1.026.418-2.706.65-3,1.866a.521.521,0,0,0,.233.573c1.093.642,2.4-.4,3.428-.861,1.126-.5,2.869-.983,3.42-2.182A.245.245,0,0,0,329.182,126.2Z" transform="translate(-314.325 -87.201)" fill="#ffc93c"/>
      </g>
    </g>
    <g id="Grupo_55149" data-name="Grupo 55149" transform="translate(-9541 -9300.393)">
      <path id="Trazado_99217" data-name="Trazado 99217" d="M409.084,367.635c-.506-.637-.979-1.222-1.382-1.706a1.154,1.154,0,0,0-1.539-.194,33.68,33.68,0,0,0-5.647,5.068c-.2.216-.4.436-.612.663a18.768,18.768,0,0,0-4.644-2.984c.127-.386.248-.768.368-1.144a37.067,37.067,0,0,0,1.71-7.21,1.155,1.155,0,0,0-.911-1.267c-2.513-.49-6.855-1.077-9.315-1.293a1.154,1.154,0,0,0-1.228.95,33.634,33.634,0,0,0-.407,7.576c.016.425.033.872.057,1.323a18.864,18.864,0,0,0-5.2,1.069c-.05.017-.1.039-.149.056-.246-.494-.5-.984-.746-1.463a37.11,37.11,0,0,0-3.889-6.305,1.152,1.152,0,0,0-1.542-.249c-2.122,1.43-5.606,4.082-7.5,5.67a1.156,1.156,0,0,0-.2,1.542,33.664,33.664,0,0,0,5.068,5.647c.257.235.52.48.791.728-.01.012-.023.021-.033.033a19.039,19.039,0,0,0-2.851,4.671c-.5-.166-.989-.324-1.475-.477a37.04,37.04,0,0,0-7.21-1.71,1.151,1.151,0,0,0-1.265.914c-.492,2.51-1.079,6.852-1.3,9.312a1.154,1.154,0,0,0,.953,1.226,33.791,33.791,0,0,0,7.575.412l1.136-.049a19.4,19.4,0,0,0,1.207,5.388c-.461.226-.915.462-1.364.693a37.149,37.149,0,0,0-6.3,3.892,1.149,1.149,0,0,0-.251,1.538c.266.4.577.846.915,1.316,1.018,1.426,2.287,3.106,3.4,4.517.494.627.958,1.2,1.352,1.671a1.152,1.152,0,0,0,1.539.194,33.408,33.408,0,0,0,5.647-5.068c.261-.279.529-.569.8-.87a20.164,20.164,0,0,0,4.8,2.9c-.18.529-.348,1.054-.512,1.571a37.257,37.257,0,0,0-1.709,7.205,1.146,1.146,0,0,0,.911,1.266c2.515.494,6.855,1.077,9.318,1.3a1.149,1.149,0,0,0,1.223-.951,33.484,33.484,0,0,0,.41-7.578c-.015-.411-.032-.84-.056-1.282a19.158,19.158,0,0,0,5.306-1.294q.378.764.764,1.5A37.1,37.1,0,0,0,399,412.654a1.152,1.152,0,0,0,1.541.249c2.124-1.426,5.606-4.082,7.5-5.67a1.146,1.146,0,0,0,.2-1.536,33.441,33.441,0,0,0-5.065-5.65c-.29-.268-.591-.546-.9-.826a19.737,19.737,0,0,0,3.017-4.644c.461.158.923.3,1.378.448a37.075,37.075,0,0,0,7.209,1.707,1.147,1.147,0,0,0,1.266-.911c.493-2.51,1.08-6.852,1.3-9.312a1.154,1.154,0,0,0-.954-1.226,33.419,33.419,0,0,0-7.575-.412l-1.008.041a20.384,20.384,0,0,0-1.336-5.409c.429-.212.85-.428,1.26-.641a37.456,37.456,0,0,0,6.306-3.888,1.155,1.155,0,0,0,.252-1.544c-.383-.565-.851-1.229-1.365-1.936C411.091,370.233,410.03,368.839,409.084,367.635ZM394.509,382.8a7.877,7.877,0,0,1,.817,2.231,8.3,8.3,0,0,1-8.344,9.944,8.212,8.212,0,0,1-4.465-1.559,8.394,8.394,0,0,1-2.393-2.672l0-.007a8.721,8.721,0,0,1-1.138-4.348c.01-3.923,3.215-7.129,6.969-7.812a8.014,8.014,0,0,1,6.406,1.665,8.443,8.443,0,0,1,1,.935A8.042,8.042,0,0,1,394.509,382.8Z" transform="translate(-358.039 -357.565)" fill="#24b3b3"/>
      <g id="Grupo_53372" data-name="Grupo 53372" transform="translate(5.736 5.944)">
        <path id="Trazado_99218" data-name="Trazado 99218" d="M422.21,370.323c.165-1.1-.864-1.261-1.029-.162a62.156,62.156,0,0,0-1.09,9.362c0,.338.306.4.411.065A62.17,62.17,0,0,0,422.21,370.323Z" transform="translate(-394.701 -369.415)" fill="#263780"/>
        <path id="Trazado_99219" data-name="Trazado 99219" d="M452.133,420.88c1.1.165,1.261-.864.163-1.029a62.092,62.092,0,0,0-9.362-1.089c-.338,0-.4.306-.065.41A62.178,62.178,0,0,0,452.133,420.88Z" transform="translate(-405.943 -394.008)" fill="#263780"/>
        <path id="Trazado_99220" data-name="Trazado 99220" d="M408.865,449.439c-.164,1.1.864,1.261,1.029.163a62.119,62.119,0,0,0,1.09-9.362c0-.338-.306-.4-.411-.065A62.173,62.173,0,0,0,408.865,449.439Z" transform="translate(-389.098 -404.57)" fill="#263780"/>
        <path id="Trazado_99221" data-name="Trazado 99221" d="M370.383,407.12c-1.1-.164-1.261.864-.162,1.029a62.084,62.084,0,0,0,9.362,1.09c.338,0,.4-.306.065-.411A62.127,62.127,0,0,0,370.383,407.12Z" transform="translate(-369.475 -388.198)" fill="#263780"/>
        <path id="Trazado_99222" data-name="Trazado 99222" d="M445.2,388.319c.891-.658.28-1.5-.613-.843a62.111,62.111,0,0,0-7.391,5.849c-.237.241-.065.5.244.337A62.178,62.178,0,0,0,445.2,388.319Z" transform="translate(-403.171 -378.297)" fill="#263780"/>
        <path id="Trazado_99223" data-name="Trazado 99223" d="M438.067,445.261c.658.891,1.5.28.842-.612a62.045,62.045,0,0,0-5.849-7.391c-.24-.237-.5-.065-.336.244A62.079,62.079,0,0,0,438.067,445.261Z" transform="translate(-400.972 -403.171)" fill="#263780"/>
        <path id="Trazado_99224" data-name="Trazado 99224" d="M379.6,435.343c-.891.659-.28,1.5.613.843a62.04,62.04,0,0,0,7.39-5.849c.238-.24.065-.5-.244-.336A62.177,62.177,0,0,0,379.6,435.343Z" transform="translate(-374.305 -399.585)" fill="#263780"/>
        <path id="Trazado_99225" data-name="Trazado 99225" d="M389.917,378.116c-.658-.89-1.5-.28-.842.613a62.056,62.056,0,0,0,5.849,7.391c.24.237.5.065.336-.245A62.159,62.159,0,0,0,389.917,378.116Z" transform="translate(-379.124 -373.534)" fill="#263780"/>
      </g>
      <path id="Trazado_99226" data-name="Trazado 99226" d="M419.236,385.335c.514.707.982,1.371,1.365,1.936a1.155,1.155,0,0,1-.252,1.543,37.447,37.447,0,0,1-6.306,3.889c-.409.213-.831.428-1.26.641a20.384,20.384,0,0,1,1.336,5.409l1.008-.041a33.421,33.421,0,0,1,7.575.412,1.154,1.154,0,0,1,.954,1.226c-.216,2.46-.8,6.8-1.3,9.312a1.147,1.147,0,0,1-1.266.911,37.076,37.076,0,0,1-7.209-1.707c-.454-.143-.917-.29-1.378-.448a19.737,19.737,0,0,1-3.017,4.645c.313.28.614.558.9.826a33.446,33.446,0,0,1,5.065,5.65,1.147,1.147,0,0,1-.2,1.536c-1.892,1.589-5.374,4.244-7.5,5.67a1.152,1.152,0,0,1-1.542-.249,37.107,37.107,0,0,1-3.888-6.305q-.386-.737-.764-1.5a19.158,19.158,0,0,1-5.306,1.294c.024.442.041.871.056,1.282a33.485,33.485,0,0,1-.41,7.578,1.149,1.149,0,0,1-1.223.951c-2.463-.219-6.8-.8-9.318-1.3a1.147,1.147,0,0,1-.911-1.266,37.262,37.262,0,0,1,1.709-7.205c.164-.518.332-1.043.512-1.572a20.159,20.159,0,0,1-4.8-2.9c-.27.3-.538.59-.8.87a33.405,33.405,0,0,1-5.647,5.068,1.152,1.152,0,0,1-1.539-.194c-.395-.471-.859-1.044-1.352-1.671.679-.735,1.435-1.4,2.143-2.052q1.005-.916,2.042-1.788c1.1-.94,2.223-1.858,3.335-2.785a1.725,1.725,0,0,1,.825-.462,1.639,1.639,0,0,1,1.3.692,13.073,13.073,0,0,0,3.506,2.1,16.954,16.954,0,0,0,24.857-16.032,14.755,14.755,0,0,0-.872-4.831,4.22,4.22,0,0,1-.456-1.526,2.376,2.376,0,0,1,.766-1.652,15.48,15.48,0,0,1,2.234-1.515,24.988,24.988,0,0,1,2.53-1.423,25.638,25.638,0,0,0,4.253-2.846C419.045,385.483,419.127,385.419,419.236,385.335Z" transform="translate(-365.266 -371.405)" opacity="0.5" style="mix-blend-mode: soft-light;isolation: isolate"/>
      <path id="Trazado_99227" data-name="Trazado 99227" d="M413.558,401.1a8.44,8.44,0,0,0-1-.934,8.014,8.014,0,0,0-6.406-1.665c-3.755.683-6.959,3.889-6.969,7.812a8.721,8.721,0,0,0,1.138,4.348,7.106,7.106,0,0,1-1.749-4.908,8.166,8.166,0,0,1,4.29-6.973c2.521-1.435,5.866-1.787,8.3-.223A7.31,7.31,0,0,1,413.558,401.1Z" transform="translate(-378.239 -377.483)" opacity="0.5" style="mix-blend-mode: soft-light;isolation: isolate"/>
      <path id="Trazado_99228" data-name="Trazado 99228" d="M409.084,367.635a11.715,11.715,0,0,1-2.1,1.942q-1.005.916-2.042,1.788c-1.1.94-2.223,1.858-3.335,2.785a1.721,1.721,0,0,1-.825.462,1.639,1.639,0,0,1-1.3-.692,13.076,13.076,0,0,0-3.507-2.1,16.954,16.954,0,0,0-24.857,16.032,14.739,14.739,0,0,0,.872,4.83,4.244,4.244,0,0,1,.456,1.526,2.376,2.376,0,0,1-.766,1.652,15.479,15.479,0,0,1-2.234,1.516,25.257,25.257,0,0,1-2.53,1.423,25.748,25.748,0,0,1-4.667,2.388c-.109.032-.221.061-.333.09-.337-.47-.648-.917-.915-1.316a1.149,1.149,0,0,1,.251-1.538,37.149,37.149,0,0,1,6.3-3.892c.448-.231.9-.467,1.364-.693a19.4,19.4,0,0,1-1.207-5.388l-1.136.049a33.791,33.791,0,0,1-7.575-.412,1.154,1.154,0,0,1-.953-1.226c.216-2.46.8-6.8,1.3-9.312a1.151,1.151,0,0,1,1.265-.914,37.04,37.04,0,0,1,7.21,1.71c.486.154.98.311,1.475.477a19.039,19.039,0,0,1,2.851-4.671c.01-.012.023-.021.033-.033-.271-.248-.534-.493-.791-.728a33.664,33.664,0,0,1-5.068-5.647,1.156,1.156,0,0,1,.2-1.542c1.892-1.589,5.376-4.241,7.5-5.67a1.152,1.152,0,0,1,1.542.249,37.11,37.11,0,0,1,3.889,6.305c.248.479.5.969.746,1.463.049-.017.1-.039.149-.056a18.864,18.864,0,0,1,5.2-1.069c-.025-.451-.042-.9-.057-1.323a33.634,33.634,0,0,1,.407-7.576,1.154,1.154,0,0,1,1.228-.95c2.46.216,6.8.8,9.315,1.293a1.155,1.155,0,0,1,.911,1.267,37.067,37.067,0,0,1-1.71,7.21c-.12.376-.241.758-.368,1.144a18.768,18.768,0,0,1,4.644,2.984c.209-.227.414-.447.612-.663a33.68,33.68,0,0,1,5.647-5.068,1.154,1.154,0,0,1,1.539.194C408.106,366.413,408.578,367,409.084,367.635Z" transform="translate(-358.039 -357.565)" fill="#fff" style="mix-blend-mode: soft-light;isolation: isolate"/>
      <path id="Trazado_99229" data-name="Trazado 99229" d="M418.829,407.877a7.859,7.859,0,0,1,1.586,4.937,8.588,8.588,0,0,1-2.986,6.082,7.953,7.953,0,0,1-10.592-.4,8.186,8.186,0,0,0,12.809-8.385A7.88,7.88,0,0,0,418.829,407.877Z" transform="translate(-382.359 -382.64)" fill="#fff" style="mix-blend-mode: soft-light;isolation: isolate"/>
    </g>
    <g id="matematicas" transform="translate(-9537 -9214)">
      <path id="Trazado_99316" data-name="Trazado 99316" d="M303.572,201.226l-7.625-7.625,7.625-7.625a2.3,2.3,0,0,0,0-3.256l-4.07-4.07a2.3,2.3,0,0,0-3.256,0l-7.625,7.625L281,178.651a2.3,2.3,0,0,0-3.256,0l-4.07,4.07a2.3,2.3,0,0,0,0,3.256L281.3,193.6l-7.625,7.625a2.3,2.3,0,0,0,0,3.256l4.07,4.07a2.3,2.3,0,0,0,3.256,0l7.625-7.625,7.625,7.625a2.3,2.3,0,0,0,3.256,0l4.07-4.07A2.3,2.3,0,0,0,303.572,201.226Z" transform="translate(-234.889 -166.396)" fill="#ffc93c"/>
      <g id="Grupo_53408" data-name="Grupo 53408" transform="translate(0 0)">
        <path id="Trazado_99317" data-name="Trazado 99317" d="M284.852,198.316a4.387,4.387,0,0,1-3.122-1.293l-6.131-6.131-6.131,6.131a4.415,4.415,0,0,1-6.244,0l-4.07-4.07a4.415,4.415,0,0,1,0-6.244l6.131-6.131-6.131-6.131a4.415,4.415,0,0,1,0-6.244l4.07-4.07a4.415,4.415,0,0,1,6.244,0l6.131,6.131,6.131-6.131a4.415,4.415,0,0,1,6.244,0l4.069,4.069a4.415,4.415,0,0,1,0,6.244l-6.131,6.131,6.131,6.131a4.415,4.415,0,0,1,0,6.244l-4.069,4.07A4.386,4.386,0,0,1,284.852,198.316Zm-9.253-13.4,9.119,9.119a.19.19,0,0,0,.268,0l4.069-4.07a.189.189,0,0,0,0-.268l-9.119-9.119,9.119-9.119a.189.189,0,0,0,0-.268l-4.07-4.07a.19.19,0,0,0-.268,0l-9.119,9.119-9.119-9.119a.19.19,0,0,0-.268,0l-4.07,4.07a.19.19,0,0,0,0,.268l9.119,9.119-9.119,9.119a.189.189,0,0,0,0,.268l4.069,4.069a.19.19,0,0,0,.268,0Z" transform="translate(-221.866 -153.373)" fill="#21214b"/>
        <path id="Trazado_99318" data-name="Trazado 99318" d="M20.6,139.96a4.4,4.4,0,0,1-4.14-2.828L11.731,125.2a1.942,1.942,0,0,0-1.816-1.234H0v-4.226H9.915a6.146,6.146,0,0,1,5.745,3.9l4.726,11.933a.248.248,0,0,0,.472-.031L29.79,99.7a6.169,6.169,0,0,1,6-4.685H70.295v4.226H35.786a1.95,1.95,0,0,0-1.9,1.481l-8.932,35.844a4.405,4.405,0,0,1-4.045,3.383Q20.754,139.96,20.6,139.96Z" transform="translate(0 -95.016)" fill="#fff"/>
      </g>
    </g>
  </g>
</svg>
