<svg xmlns="http://www.w3.org/2000/svg" width="923" height="916.158" viewBox="0 0 923 916.158">
  <g id="Grupo_55355" data-name="Grupo 55355" transform="translate(6688 2973)">
    <path id="Trazado_101008" data-name="Trazado 101008" d="M416.374,99.24V400.589H120.27C120.591,236.038,252.522,102.372,416.374,99.24Z" transform="translate(-6647.27 -2856.24)" fill="#81c140"/>
    <path id="Trazado_101009" data-name="Trazado 101009" d="M579.574,400.589H283.47V99.24C447.341,102.391,579.254,236.038,579.574,400.589Z" transform="translate(-6502.574 -2856.24)" fill="#9ddfd3"/>
    <path id="Trazado_101010" data-name="Trazado 101010" d="M579.367,265.23c-5.811,159.626-135.553,287.652-295.9,290.727V265.23Z" transform="translate(-6502.574 -2709.071)" fill="#ffc93c"/>
    <path id="Trazado_101011" data-name="Trazado 101011" d="M416.277,265.23V555.957c-160.325-3.075-290.086-131.1-295.9-290.727Z" transform="translate(-6647.172 -2709.071)" fill="#cc3d60"/>
    <text id="M" transform="translate(-6353 -2610)" fill="#fff" font-size="20" font-family="Roboto-Bold, Roboto" font-weight="700"><tspan x="0" y="0">M</tspan></text>
    <text id="Matemáticas" transform="translate(-6403 -2577)" fill="#fff" font-size="20" font-family="Roboto-Bold, Roboto" font-weight="700"><tspan x="0" y="0">Matemáticas</tspan></text>
    <text id="T" transform="translate(-6112 -2610)" fill="#21214b" font-size="20" font-family="Roboto-Bold, Roboto" font-weight="700"><tspan x="0" y="0">T</tspan></text>
    <text id="Tecnología" transform="translate(-6156 -2577)" fill="#21214b" font-size="20" font-family="Roboto-Bold, Roboto" font-weight="700"><tspan x="0" y="0">Tecnología</tspan></text>
    <text id="Ciencias" transform="translate(-6145 -2307)" fill="#21214b" font-size="20" font-family="Roboto-Bold, Roboto" font-weight="700"><tspan x="0" y="0">Ciencias</tspan></text>
    <text id="S" transform="translate(-6113 -2340)" fill="#21214b" font-size="20" font-family="Roboto-Bold, Roboto" font-weight="700"><tspan x="0" y="0">S</tspan></text>
    <text id="Ingeniería" transform="translate(-6389 -2307)" fill="#fff" font-size="20" font-family="Roboto-Bold, Roboto" font-weight="700"><tspan x="0" y="0">Ingeniería</tspan></text>
    <text id="E" transform="translate(-6350 -2340)" fill="#fff" font-size="20" font-family="Roboto-Bold, Roboto" font-weight="700"><tspan x="0" y="0">E</tspan></text>
    <circle id="Elipse_1372" data-name="Elipse 1372" cx="94" cy="94" r="94" transform="translate(-6688 -2805)" fill="#a2f5cd"/>
    <circle id="Elipse_1373" data-name="Elipse 1373" cx="94" cy="94" r="94" transform="translate(-5953 -2805)" fill="#a2f5cd"/>
    <circle id="Elipse_1374" data-name="Elipse 1374" cx="94" cy="94" r="94" transform="translate(-6313 -2973)" fill="#a2f5cd"/>
    <circle id="Elipse_1375" data-name="Elipse 1375" cx="94" cy="94" r="94" transform="translate(-6631 -2253)" fill="#a2f5cd"/>
    <circle id="Elipse_1376" data-name="Elipse 1376" cx="94" cy="94" r="94" transform="translate(-6007 -2253)" fill="#a2f5cd"/>
    <rect id="Rectángulo_5235" data-name="Rectángulo 5235" width="188" height="108" rx="9" transform="translate(-6313 -2500)" fill="#fff"/>
    <text id="Educación_STEM" data-name="Educación 
STEM" transform="translate(-6224 -2451)" fill="#12263f" font-size="20" font-family="Roboto-Bold, Roboto" font-weight="700"><tspan x="-48.95" y="0">Educación </tspan><tspan x="-26.719" y="24">STEM</tspan></text>
    <text id="Otras_Asignaturas" data-name="Otras 
Asignaturas" transform="translate(-5913 -2164)" fill="#12263f" font-size="20" font-family="Roboto-Bold, Roboto" font-weight="700"><tspan x="-26.777" y="0">Otras </tspan><tspan x="-54.17" y="24">Asignaturas</tspan></text>
    <text id="Educación_Física" data-name="Educación
Física" transform="translate(-6537 -2164)" fill="#12263f" font-size="20" font-family="Roboto-Bold, Roboto" font-weight="700"><tspan x="-46.46" y="0">Educación</tspan><tspan x="-26.587" y="24">Física</tspan></text>
    <text id="Artes" transform="translate(-6594 -2715)" fill="#12263f" font-size="20" font-family="Roboto-Bold, Roboto" font-weight="700"><tspan x="-24.546" y="0">Artes</tspan></text>
    <text id="Lenguaje" transform="translate(-6219 -2884)" fill="#12263f" font-size="20" font-family="Roboto-Bold, Roboto" font-weight="700"><tspan x="-41.089" y="0">Lenguaje</tspan></text>
    <text id="Ciencias_Sociales" data-name="Ciencias
Sociales" transform="translate(-5859 -2716)" fill="#12263f" font-size="20" font-family="Roboto-Bold, Roboto" font-weight="700"><tspan x="-38.569" y="0">Ciencias</tspan><tspan x="-38.228" y="24">Sociales</tspan></text>
    <path id="Unión_10" data-name="Unión 10" d="M5664,11780v-35h-19l35-45,35,45h-19v35Z" transform="translate(-12276.001 -14183.842)" fill="#31326f"/>
    <path id="Unión_11" data-name="Unión 11" d="M19,0V35H0L35,80,70,35H51V0Z" transform="translate(-5889.206 -2483.842)" fill="#31326f"/>
    <path id="Unión_12" data-name="Unión 12" d="M5664,11780v-35h-19l35-45,35,45h-19v35Z" transform="translate(725.727 -13733.1) rotate(59)" fill="#31326f"/>
    <path id="Unión_13" data-name="Unión 13" d="M5664,11780v-35h-19l35-45,35,45h-19v35Z" transform="translate(6987.998 -1866.867) rotate(120)" fill="#31326f"/>
    <path id="Unión_14" data-name="Unión 14" d="M19,0V35H0L35,80,70,35H51V0Z" transform="translate(-6184 -2126.841) rotate(90)" fill="#31326f"/>
  </g>
</svg>
