<svg xmlns="http://www.w3.org/2000/svg" width="713.801" height="199.297" viewBox="0 0 713.801 199.297">
  <g id="Grupo_55366" data-name="Grupo 55366" transform="translate(-423.699 -1066.863)">
    <path id="Trazado_100162" data-name="Trazado 100162" d="M10.2-20.6Q5-27,5-32.1t8.6-13.5q5-4.8,10.6-4.8t15.6,10a30.443,30.443,0,0,0,8,6.5,19.024,19.024,0,0,0,9.6,3.1Q76-30.8,76-46q0-4.6-5.1-7.7a37.384,37.384,0,0,0-12.7-4.5,109.316,109.316,0,0,1-16.4-4.5A108.078,108.078,0,0,1,25.4-70q-7.6-4.2-12.7-13.3T7.6-105.2q0-17.6,13.1-30.7T56.4-149a73.041,73.041,0,0,1,21.9,3.1q9.9,3.1,13.7,6.3l5,3.8q6.2,5.8,6.2,9.8t-4.8,11q-6.8,10-14,10-4.2,0-10.4-4a23.529,23.529,0,0,1-2.3-2,30.518,30.518,0,0,0-3.1-2.6,20.031,20.031,0,0,0-10.7-2.6,18,18,0,0,0-10.8,3.1,10.01,10.01,0,0,0-4.3,8.6q0,5.5,5.1,8.9A31.5,31.5,0,0,0,60.6-91a149.75,149.75,0,0,1,16.6,3.7,103.317,103.317,0,0,1,16.6,6.1q7.6,3.6,12.7,12.5t5.1,21.9a48.537,48.537,0,0,1-5.2,22.9A39.574,39.574,0,0,1,92.8-8.6,62.078,62.078,0,0,1,58.2,2,67.131,67.131,0,0,1,40.4-.3,48.223,48.223,0,0,1,26.8-6Q16.2-12.4,12-18.4ZM184.8-146.8H296q6.4,0,9.4,1.5a7.584,7.584,0,0,1,4,4.7,28.907,28.907,0,0,1,1,8.4,27.863,27.863,0,0,1-1,8.3,6.865,6.865,0,0,1-3.4,4.3q-3.6,1.8-10.2,1.8H257.6V-17.2a55.427,55.427,0,0,1-.3,6.8,16.233,16.233,0,0,1-1.8,5.1,8.477,8.477,0,0,1-5.3,4.1,34.1,34.1,0,0,1-10,1.2,33.059,33.059,0,0,1-9.9-1.2,8.447,8.447,0,0,1-5.2-4.1,16.142,16.142,0,0,1-1.8-5.2,58.1,58.1,0,0,1-.3-6.9V-117.8H184.6q-6.4,0-9.4-1.5a7.584,7.584,0,0,1-4-4.7,28.906,28.906,0,0,1-1-8.4,27.862,27.862,0,0,1,1-8.3,6.865,6.865,0,0,1,3.4-4.3Q178.2-146.8,184.8-146.8ZM407.4-35.4H469a58.1,58.1,0,0,1,6.9.3,16.024,16.024,0,0,1,5.3,1.9q5.4,2.8,5.4,15.6,0,14-7.4,16.4Q475.8,0,468.8,0H389.6q-14,0-16.4-7.6Q372-10.8,372-17.8V-129q0-10.2,3.8-13.9t14.4-3.7H469a58.1,58.1,0,0,1,6.9.3,16.024,16.024,0,0,1,5.3,1.9q5.4,2.8,5.4,15.6,0,14-7.4,16.4-3.4,1.2-10.4,1.2H407.4V-91H447a58.1,58.1,0,0,1,6.9.3,16.023,16.023,0,0,1,5.3,1.9q5.4,2.8,5.4,15.6,0,14-7.6,16.4-3.4,1.2-10.4,1.2H407.4ZM706-141a15.96,15.96,0,0,1,1.9,5.4,60.843,60.843,0,0,1,.3,7v111q0,13.8-7.6,16.2A32.417,32.417,0,0,1,691-.2a33.8,33.8,0,0,1-9.2-1,15.8,15.8,0,0,1-5.2-2.4,9.015,9.015,0,0,1-2.8-4,39.774,39.774,0,0,1-1-10.4V-85q-5,6.2-14.6,19.7T646-48.4q-2.6,3.4-3.6,4.7a19.238,19.238,0,0,1-4.9,3.6,16.254,16.254,0,0,1-8.4,2.3,16.32,16.32,0,0,1-8.2-2.1,18.466,18.466,0,0,1-5.3-4.1L614-46.2q-4-5-15.8-21.3T585.4-85v67.4a58.1,58.1,0,0,1-.3,6.9,14.222,14.222,0,0,1-1.9,5.1q-3,5.4-15.6,5.4-12.2,0-15.2-5.4a14.2,14.2,0,0,1-1.9-5.2,63.24,63.24,0,0,1-.3-7.2V-129a58.1,58.1,0,0,1,.3-6.9,16.023,16.023,0,0,1,1.9-5.3q3-5.2,15.6-5.2a29.535,29.535,0,0,1,9.3,1.3q3.9,1.3,5.1,2.7l1.2,1.2L629-81.6q34-45,45.4-59.4,3.4-5.4,16.1-5.4T706-141Z" transform="translate(418.699 1215.863)" fill="#ffc93c"/>
    <path id="Trazado_100161" data-name="Trazado 100161" d="M10.2-20.6Q5-27,5-32.1t8.6-13.5q5-4.8,10.6-4.8t15.6,10a30.443,30.443,0,0,0,8,6.5,19.024,19.024,0,0,0,9.6,3.1Q76-30.8,76-46q0-4.6-5.1-7.7a37.384,37.384,0,0,0-12.7-4.5,109.316,109.316,0,0,1-16.4-4.5A108.078,108.078,0,0,1,25.4-70q-7.6-4.2-12.7-13.3T7.6-105.2q0-17.6,13.1-30.7T56.4-149a73.041,73.041,0,0,1,21.9,3.1q9.9,3.1,13.7,6.3l5,3.8q6.2,5.8,6.2,9.8t-4.8,11q-6.8,10-14,10-4.2,0-10.4-4a23.529,23.529,0,0,1-2.3-2,30.518,30.518,0,0,0-3.1-2.6,20.031,20.031,0,0,0-10.7-2.6,18,18,0,0,0-10.8,3.1,10.01,10.01,0,0,0-4.3,8.6q0,5.5,5.1,8.9A31.5,31.5,0,0,0,60.6-91a149.75,149.75,0,0,1,16.6,3.7,103.317,103.317,0,0,1,16.6,6.1q7.6,3.6,12.7,12.5t5.1,21.9a48.537,48.537,0,0,1-5.2,22.9A39.574,39.574,0,0,1,92.8-8.6,62.078,62.078,0,0,1,58.2,2,67.131,67.131,0,0,1,40.4-.3,48.223,48.223,0,0,1,26.8-6Q16.2-12.4,12-18.4ZM184.8-146.8H296q6.4,0,9.4,1.5a7.584,7.584,0,0,1,4,4.7,28.907,28.907,0,0,1,1,8.4,27.863,27.863,0,0,1-1,8.3,6.865,6.865,0,0,1-3.4,4.3q-3.6,1.8-10.2,1.8H257.6V-17.2a55.427,55.427,0,0,1-.3,6.8,16.233,16.233,0,0,1-1.8,5.1,8.477,8.477,0,0,1-5.3,4.1,34.1,34.1,0,0,1-10,1.2,33.059,33.059,0,0,1-9.9-1.2,8.447,8.447,0,0,1-5.2-4.1,16.142,16.142,0,0,1-1.8-5.2,58.1,58.1,0,0,1-.3-6.9V-117.8H184.6q-6.4,0-9.4-1.5a7.584,7.584,0,0,1-4-4.7,28.906,28.906,0,0,1-1-8.4,27.862,27.862,0,0,1,1-8.3,6.865,6.865,0,0,1,3.4-4.3Q178.2-146.8,184.8-146.8ZM407.4-35.4H469a58.1,58.1,0,0,1,6.9.3,16.024,16.024,0,0,1,5.3,1.9q5.4,2.8,5.4,15.6,0,14-7.4,16.4Q475.8,0,468.8,0H389.6q-14,0-16.4-7.6Q372-10.8,372-17.8V-129q0-10.2,3.8-13.9t14.4-3.7H469a58.1,58.1,0,0,1,6.9.3,16.024,16.024,0,0,1,5.3,1.9q5.4,2.8,5.4,15.6,0,14-7.4,16.4-3.4,1.2-10.4,1.2H407.4V-91H447a58.1,58.1,0,0,1,6.9.3,16.023,16.023,0,0,1,5.3,1.9q5.4,2.8,5.4,15.6,0,14-7.6,16.4-3.4,1.2-10.4,1.2H407.4ZM706-141a15.96,15.96,0,0,1,1.9,5.4,60.843,60.843,0,0,1,.3,7v111q0,13.8-7.6,16.2A32.417,32.417,0,0,1,691-.2a33.8,33.8,0,0,1-9.2-1,15.8,15.8,0,0,1-5.2-2.4,9.015,9.015,0,0,1-2.8-4,39.774,39.774,0,0,1-1-10.4V-85q-5,6.2-14.6,19.7T646-48.4q-2.6,3.4-3.6,4.7a19.238,19.238,0,0,1-4.9,3.6,16.254,16.254,0,0,1-8.4,2.3,16.32,16.32,0,0,1-8.2-2.1,18.466,18.466,0,0,1-5.3-4.1L614-46.2q-4-5-15.8-21.3T585.4-85v67.4a58.1,58.1,0,0,1-.3,6.9,14.222,14.222,0,0,1-1.9,5.1q-3,5.4-15.6,5.4-12.2,0-15.2-5.4a14.2,14.2,0,0,1-1.9-5.2,63.24,63.24,0,0,1-.3-7.2V-129a58.1,58.1,0,0,1,.3-6.9,16.023,16.023,0,0,1,1.9-5.3q3-5.2,15.6-5.2a29.535,29.535,0,0,1,9.3,1.3q3.9,1.3,5.1,2.7l1.2,1.2L629-81.6q34-45,45.4-59.4,3.4-5.4,16.1-5.4T706-141Z" transform="translate(429.3 1215.863)" fill="#21214b"/>
    <path id="Trazado_100885" data-name="Trazado 100885" d="M12.578-4.814a5.193,5.193,0,0,1-.8,2.622A4.833,4.833,0,0,1,9.722-.43,7,7,0,0,1,6.7.2,5.584,5.584,0,0,1,2.285-1.631,7.54,7.54,0,0,1,.674-6.787v-.7A8.607,8.607,0,0,1,1.4-11.147,5.513,5.513,0,0,1,3.5-13.569a5.844,5.844,0,0,1,3.164-.854,6.129,6.129,0,0,1,4.16,1.362,5.383,5.383,0,0,1,1.787,3.755H9.189a2.547,2.547,0,0,0-.654-1.865,2.691,2.691,0,0,0-1.875-.566,2.048,2.048,0,0,0-1.875.957A6.151,6.151,0,0,0,4.16-7.725v1.006a6.806,6.806,0,0,0,.571,3.252A2.091,2.091,0,0,0,6.7-2.49a2.632,2.632,0,0,0,1.807-.557A2.363,2.363,0,0,0,9.17-4.814ZM17.52,0h-3.3V-10.566h3.3Zm-3.5-13.291a1.469,1.469,0,0,1,.508-1.152,1.916,1.916,0,0,1,1.318-.449,1.916,1.916,0,0,1,1.318.449,1.469,1.469,0,0,1,.508,1.152,1.469,1.469,0,0,1-.508,1.152,1.916,1.916,0,0,1-1.318.449,1.916,1.916,0,0,1-1.318-.449A1.469,1.469,0,0,1,14.023-13.291ZM24.658.2a5.432,5.432,0,0,1-3.936-1.45,5.008,5.008,0,0,1-1.5-3.774V-5.3a6.489,6.489,0,0,1,.6-2.861,4.395,4.395,0,0,1,1.753-1.919,5.292,5.292,0,0,1,2.734-.679A4.574,4.574,0,0,1,27.822-9.38a5.43,5.43,0,0,1,1.289,3.853v1.279H22.568a2.372,2.372,0,0,0,.771,1.4,2.3,2.3,0,0,0,1.543.508,2.958,2.958,0,0,0,2.441-1.094l1.5,1.777A4.2,4.2,0,0,1,27.085-.308,5.891,5.891,0,0,1,24.658.2Zm-.371-8.418q-1.445,0-1.719,1.914h3.32v-.254a1.63,1.63,0,0,0-.4-1.226A1.593,1.593,0,0,0,24.287-8.223Zm9.17-2.344.107,1.24a3.583,3.583,0,0,1,3.018-1.436,3.015,3.015,0,0,1,2.466.986,4.7,4.7,0,0,1,.845,2.969V0h-3.3V-6.67a1.783,1.783,0,0,0-.322-1.177A1.491,1.491,0,0,0,35.1-8.223a1.569,1.569,0,0,0-1.436.762V0H30.371V-10.566ZM46.182-2.344a1.464,1.464,0,0,0,1.074-.376,1.379,1.379,0,0,0,.371-1.05h3.086A3.653,3.653,0,0,1,49.468-.918,4.631,4.631,0,0,1,46.26.2,4.689,4.689,0,0,1,42.627-1.25a5.7,5.7,0,0,1-1.328-4v-.137a6.436,6.436,0,0,1,.591-2.827,4.3,4.3,0,0,1,1.7-1.885,5.081,5.081,0,0,1,2.637-.659A4.573,4.573,0,0,1,49.5-9.619a4.053,4.053,0,0,1,1.211,3.1H47.627a1.807,1.807,0,0,0-.4-1.26,1.382,1.382,0,0,0-1.074-.439q-1.279,0-1.494,1.631a11.507,11.507,0,0,0-.068,1.426,4.52,4.52,0,0,0,.381,2.207A1.319,1.319,0,0,0,46.182-2.344ZM55.576,0h-3.3V-10.566h3.3Zm-3.5-13.291a1.469,1.469,0,0,1,.508-1.152,1.916,1.916,0,0,1,1.318-.449,1.916,1.916,0,0,1,1.318.449,1.469,1.469,0,0,1,.508,1.152,1.469,1.469,0,0,1-.508,1.152,1.916,1.916,0,0,1-1.318.449,1.916,1.916,0,0,1-1.318-.449A1.469,1.469,0,0,1,52.08-13.291ZM63.555,0a3.716,3.716,0,0,1-.312-.947A3.06,3.06,0,0,1,60.7.2a3.749,3.749,0,0,1-2.539-.9,2.875,2.875,0,0,1-1.045-2.271,2.955,2.955,0,0,1,1.27-2.6,6.468,6.468,0,0,1,3.691-.879H63.1v-.557q0-1.455-1.26-1.455a1.027,1.027,0,0,0-1.172,1.152H57.373a2.955,2.955,0,0,1,1.3-2.49A5.474,5.474,0,0,1,62-10.762a4.8,4.8,0,0,1,3.193.986A3.429,3.429,0,0,1,66.4-7.07v4.678a4.79,4.79,0,0,0,.449,2.227V0ZM61.494-2.148a1.836,1.836,0,0,0,1.021-.264,1.653,1.653,0,0,0,.581-.6V-4.7h-.957q-1.719,0-1.719,1.543a.942.942,0,0,0,.3.728A1.1,1.1,0,0,0,61.494-2.148Z" transform="translate(448 1262)" fill="#12263f"/>
    <path id="Trazado_100886" data-name="Trazado 100886" d="M12.236-11.572H7.969V0H4.541V-11.572H.352v-2.646H12.236ZM17.773.2a5.432,5.432,0,0,1-3.936-1.45,5.008,5.008,0,0,1-1.5-3.774V-5.3a6.489,6.489,0,0,1,.6-2.861,4.395,4.395,0,0,1,1.753-1.919,5.292,5.292,0,0,1,2.734-.679A4.574,4.574,0,0,1,20.938-9.38a5.43,5.43,0,0,1,1.289,3.853v1.279H15.684a2.372,2.372,0,0,0,.771,1.4A2.3,2.3,0,0,0,18-2.344a2.958,2.958,0,0,0,2.441-1.094l1.5,1.777A4.2,4.2,0,0,1,20.2-.308,5.891,5.891,0,0,1,17.773.2ZM17.4-8.223q-1.445,0-1.719,1.914H19v-.254a1.63,1.63,0,0,0-.4-1.226A1.593,1.593,0,0,0,17.4-8.223ZM28.018-2.344a1.464,1.464,0,0,0,1.074-.376,1.379,1.379,0,0,0,.371-1.05h3.086A3.653,3.653,0,0,1,31.3-.918,4.631,4.631,0,0,1,28.1.2,4.689,4.689,0,0,1,24.463-1.25a5.7,5.7,0,0,1-1.328-4v-.137a6.436,6.436,0,0,1,.591-2.827,4.3,4.3,0,0,1,1.7-1.885,5.081,5.081,0,0,1,2.637-.659,4.573,4.573,0,0,1,3.271,1.143,4.053,4.053,0,0,1,1.211,3.1H29.463a1.807,1.807,0,0,0-.4-1.26,1.382,1.382,0,0,0-1.074-.439q-1.279,0-1.494,1.631a11.508,11.508,0,0,0-.068,1.426,4.52,4.52,0,0,0,.381,2.207A1.319,1.319,0,0,0,28.018-2.344Zm8.945-8.223.107,1.24a3.583,3.583,0,0,1,3.018-1.436,3.015,3.015,0,0,1,2.466.986A4.7,4.7,0,0,1,43.4-6.807V0H40.1V-6.67a1.783,1.783,0,0,0-.322-1.177A1.491,1.491,0,0,0,38.6-8.223a1.569,1.569,0,0,0-1.436.762V0H33.877V-10.566ZM44.8-5.381A6.236,6.236,0,0,1,45.42-8.2a4.4,4.4,0,0,1,1.768-1.9,5.323,5.323,0,0,1,2.705-.664,4.858,4.858,0,0,1,3.74,1.47,5.64,5.64,0,0,1,1.367,4v.117a5.472,5.472,0,0,1-1.372,3.921A4.871,4.871,0,0,1,49.912.2a4.927,4.927,0,0,1-3.623-1.353,5.29,5.29,0,0,1-1.475-3.667Zm3.291.205a3.932,3.932,0,0,0,.459,2.148,1.529,1.529,0,0,0,1.357.684q1.758,0,1.8-2.705v-.332q0-2.842-1.816-2.842-1.65,0-1.787,2.451ZM59.922,0h-3.3V-15h3.3Zm1.611-5.381A6.236,6.236,0,0,1,62.148-8.2a4.4,4.4,0,0,1,1.768-1.9,5.323,5.323,0,0,1,2.705-.664,4.858,4.858,0,0,1,3.74,1.47,5.64,5.64,0,0,1,1.367,4v.117a5.472,5.472,0,0,1-1.372,3.921A4.871,4.871,0,0,1,66.641.2a4.927,4.927,0,0,1-3.623-1.353,5.29,5.29,0,0,1-1.475-3.667Zm3.291.205a3.932,3.932,0,0,0,.459,2.148,1.529,1.529,0,0,0,1.357.684q1.758,0,1.8-2.705v-.332q0-2.842-1.816-2.842-1.65,0-1.787,2.451Zm7.969-.186a7.134,7.134,0,0,1,.527-2.832,4.245,4.245,0,0,1,1.514-1.9,3.99,3.99,0,0,1,2.295-.669,3.173,3.173,0,0,1,2.578,1.113l.117-.918h2.988V-.4a4.455,4.455,0,0,1-.649,2.427,4.167,4.167,0,0,1-1.88,1.582,6.91,6.91,0,0,1-2.852.552,5.961,5.961,0,0,1-2.251-.439,4.063,4.063,0,0,1-1.665-1.143L74.893.645a3.018,3.018,0,0,0,2.422,1.084A1.96,1.96,0,0,0,79.5-.518V-.85A3.09,3.09,0,0,1,77.109.2a3.819,3.819,0,0,1-3.125-1.479,6.13,6.13,0,0,1-1.191-3.96Zm3.3.205A3.759,3.759,0,0,0,76.582-3.1a1.541,1.541,0,0,0,1.367.757A1.748,1.748,0,0,0,79.5-3.057V-7.5a1.7,1.7,0,0,0-1.533-.723,1.551,1.551,0,0,0-1.377.786A4.287,4.287,0,0,0,76.094-5.156ZM88.271,0H84.961V-10.566h3.311Zm-1.23-14.8h3.477L87.8-11.738H85.117ZM96.338,0a3.716,3.716,0,0,1-.312-.947A3.06,3.06,0,0,1,93.486.2a3.749,3.749,0,0,1-2.539-.9A2.875,2.875,0,0,1,89.9-2.979a2.955,2.955,0,0,1,1.27-2.6,6.468,6.468,0,0,1,3.691-.879h1.016v-.557q0-1.455-1.26-1.455a1.027,1.027,0,0,0-1.172,1.152H90.156a2.955,2.955,0,0,1,1.3-2.49,5.474,5.474,0,0,1,3.325-.957,4.8,4.8,0,0,1,3.193.986,3.429,3.429,0,0,1,1.2,2.705v4.678a4.79,4.79,0,0,0,.449,2.227V0ZM94.277-2.148A1.836,1.836,0,0,0,95.3-2.412a1.653,1.653,0,0,0,.581-.6V-4.7h-.957Q93.2-4.7,93.2-3.154a.942.942,0,0,0,.3.728A1.1,1.1,0,0,0,94.277-2.148Z" transform="translate(613 1262)" fill="#12263f"/>
    <path id="Trazado_100887" data-name="Trazado 100887" d="M4.727,0H1.309V-14.219H4.727ZM9.98-10.566l.107,1.24a3.583,3.583,0,0,1,3.018-1.436,3.015,3.015,0,0,1,2.466.986,4.7,4.7,0,0,1,.845,2.969V0h-3.3V-6.67a1.783,1.783,0,0,0-.322-1.177,1.491,1.491,0,0,0-1.172-.376,1.569,1.569,0,0,0-1.436.762V0H6.895V-10.566Zm7.871,5.205a7.134,7.134,0,0,1,.527-2.832,4.245,4.245,0,0,1,1.514-1.9,3.99,3.99,0,0,1,2.295-.669,3.173,3.173,0,0,1,2.578,1.113l.117-.918h2.988V-.4a4.455,4.455,0,0,1-.649,2.427,4.167,4.167,0,0,1-1.88,1.582,6.91,6.91,0,0,1-2.852.552,5.961,5.961,0,0,1-2.251-.439,4.063,4.063,0,0,1-1.665-1.143L19.951.645a3.018,3.018,0,0,0,2.422,1.084A1.96,1.96,0,0,0,24.561-.518V-.85A3.09,3.09,0,0,1,22.168.2a3.819,3.819,0,0,1-3.125-1.479,6.13,6.13,0,0,1-1.191-3.96Zm3.3.205A3.759,3.759,0,0,0,21.641-3.1a1.541,1.541,0,0,0,1.367.757,1.748,1.748,0,0,0,1.553-.713V-7.5a1.7,1.7,0,0,0-1.533-.723,1.551,1.551,0,0,0-1.377.786A4.287,4.287,0,0,0,21.152-5.156ZM34.854.2a5.432,5.432,0,0,1-3.936-1.45,5.008,5.008,0,0,1-1.5-3.774V-5.3a6.489,6.489,0,0,1,.6-2.861,4.395,4.395,0,0,1,1.753-1.919,5.292,5.292,0,0,1,2.734-.679A4.574,4.574,0,0,1,38.018-9.38a5.43,5.43,0,0,1,1.289,3.853v1.279H32.764a2.372,2.372,0,0,0,.771,1.4,2.3,2.3,0,0,0,1.543.508A2.958,2.958,0,0,0,37.52-3.437l1.5,1.777A4.2,4.2,0,0,1,37.28-.308,5.891,5.891,0,0,1,34.854.2Zm-.371-8.418q-1.445,0-1.719,1.914h3.32v-.254a1.63,1.63,0,0,0-.4-1.226A1.593,1.593,0,0,0,34.482-8.223Zm9.17-2.344.107,1.24a3.583,3.583,0,0,1,3.018-1.436,3.015,3.015,0,0,1,2.466.986,4.7,4.7,0,0,1,.845,2.969V0h-3.3V-6.67a1.783,1.783,0,0,0-.322-1.177,1.491,1.491,0,0,0-1.172-.376,1.569,1.569,0,0,0-1.436.762V0H40.566V-10.566ZM55.381,0h-3.3V-10.566h3.3Zm-3.5-13.291a1.469,1.469,0,0,1,.508-1.152,1.916,1.916,0,0,1,1.318-.449,1.916,1.916,0,0,1,1.318.449,1.469,1.469,0,0,1,.508,1.152,1.469,1.469,0,0,1-.508,1.152,1.916,1.916,0,0,1-1.318.449,1.916,1.916,0,0,1-1.318-.449A1.469,1.469,0,0,1,51.885-13.291ZM62.52.2a5.432,5.432,0,0,1-3.936-1.45,5.008,5.008,0,0,1-1.5-3.774V-5.3a6.489,6.489,0,0,1,.6-2.861,4.395,4.395,0,0,1,1.753-1.919,5.292,5.292,0,0,1,2.734-.679A4.574,4.574,0,0,1,65.684-9.38a5.43,5.43,0,0,1,1.289,3.853v1.279H60.43a2.372,2.372,0,0,0,.771,1.4,2.3,2.3,0,0,0,1.543.508,2.958,2.958,0,0,0,2.441-1.094l1.5,1.777A4.2,4.2,0,0,1,64.946-.308,5.891,5.891,0,0,1,62.52.2Zm-.371-8.418q-1.445,0-1.719,1.914h3.32v-.254a1.63,1.63,0,0,0-.4-1.226A1.593,1.593,0,0,0,62.148-8.223Zm12.539.635L73.6-7.666a1.947,1.947,0,0,0-1.992.977V0H68.32V-10.566h3.086l.107,1.357a2.548,2.548,0,0,1,2.314-1.553,3.209,3.209,0,0,1,.918.117ZM79.463,0H76.152V-10.566h3.311Zm-1.23-14.8h3.477l-2.715,3.066H76.309ZM87.529,0a3.716,3.716,0,0,1-.312-.947A3.06,3.06,0,0,1,84.678.2a3.749,3.749,0,0,1-2.539-.9,2.875,2.875,0,0,1-1.045-2.271,2.955,2.955,0,0,1,1.27-2.6,6.468,6.468,0,0,1,3.691-.879H87.07v-.557q0-1.455-1.26-1.455a1.027,1.027,0,0,0-1.172,1.152H81.348a2.955,2.955,0,0,1,1.3-2.49,5.474,5.474,0,0,1,3.325-.957,4.8,4.8,0,0,1,3.193.986,3.429,3.429,0,0,1,1.2,2.705v4.678A4.79,4.79,0,0,0,90.82-.166V0ZM85.469-2.148a1.836,1.836,0,0,0,1.021-.264,1.653,1.653,0,0,0,.581-.6V-4.7h-.957q-1.719,0-1.719,1.543a.942.942,0,0,0,.3.728A1.1,1.1,0,0,0,85.469-2.148Z" transform="translate(816 1262)" fill="#12263f"/>
    <path id="Trazado_100888" data-name="Trazado 100888" d="M5.576-14.219,8.75-4.326l3.164-9.893h4.512V0H12.988V-3.32l.332-6.8L9.883,0H7.617L4.17-10.127,4.5-3.32V0H1.074V-14.219ZM24.4,0a3.716,3.716,0,0,1-.312-.947A3.06,3.06,0,0,1,21.553.2a3.749,3.749,0,0,1-2.539-.9,2.875,2.875,0,0,1-1.045-2.271,2.955,2.955,0,0,1,1.27-2.6,6.468,6.468,0,0,1,3.691-.879h1.016v-.557q0-1.455-1.26-1.455a1.027,1.027,0,0,0-1.172,1.152H18.223a2.955,2.955,0,0,1,1.3-2.49,5.474,5.474,0,0,1,3.325-.957,4.8,4.8,0,0,1,3.193.986,3.429,3.429,0,0,1,1.2,2.705v4.678A4.79,4.79,0,0,0,27.7-.166V0ZM22.344-2.148a1.836,1.836,0,0,0,1.021-.264,1.653,1.653,0,0,0,.581-.6V-4.7h-.957q-1.719,0-1.719,1.543a.942.942,0,0,0,.3.728A1.1,1.1,0,0,0,22.344-2.148ZM32.9-13.193v2.627h1.738v2.285H32.9v4.834a1.234,1.234,0,0,0,.215.83,1.152,1.152,0,0,0,.85.234,4.828,4.828,0,0,0,.82-.059V-.088A6.074,6.074,0,0,1,32.93.2a3.448,3.448,0,0,1-2.51-.8,3.282,3.282,0,0,1-.811-2.432V-8.281H28.262v-2.285h1.348v-2.627ZM41.045.2a5.432,5.432,0,0,1-3.936-1.45,5.008,5.008,0,0,1-1.5-3.774V-5.3a6.489,6.489,0,0,1,.6-2.861,4.395,4.395,0,0,1,1.753-1.919,5.292,5.292,0,0,1,2.734-.679A4.574,4.574,0,0,1,44.209-9.38,5.43,5.43,0,0,1,45.5-5.527v1.279H38.955a2.372,2.372,0,0,0,.771,1.4,2.3,2.3,0,0,0,1.543.508,2.958,2.958,0,0,0,2.441-1.094l1.5,1.777A4.2,4.2,0,0,1,43.472-.308,5.891,5.891,0,0,1,41.045.2Zm-.371-8.418q-1.445,0-1.719,1.914h3.32v-.254a1.63,1.63,0,0,0-.4-1.226A1.593,1.593,0,0,0,40.674-8.223Zm9.258-2.344.107,1.24a3.633,3.633,0,0,1,3.018-1.436A2.675,2.675,0,0,1,55.762-9.17a3.516,3.516,0,0,1,3.105-1.592q3.213,0,3.3,3.887V0h-3.3V-6.67a2.014,2.014,0,0,0-.273-1.182,1.164,1.164,0,0,0-1-.371,1.559,1.559,0,0,0-1.455.869l.01.137V0h-3.3V-6.65a2.117,2.117,0,0,0-.264-1.2,1.161,1.161,0,0,0-1.006-.371,1.578,1.578,0,0,0-1.445.869V0H46.846V-10.566ZM70,0a3.716,3.716,0,0,1-.312-.947A3.06,3.06,0,0,1,67.148.2a3.749,3.749,0,0,1-2.539-.9,2.875,2.875,0,0,1-1.045-2.271,2.955,2.955,0,0,1,1.27-2.6,6.468,6.468,0,0,1,3.691-.879h1.016v-.557q0-1.455-1.26-1.455a1.027,1.027,0,0,0-1.172,1.152H63.818a2.955,2.955,0,0,1,1.3-2.49,5.474,5.474,0,0,1,3.325-.957,4.8,4.8,0,0,1,3.193.986,3.429,3.429,0,0,1,1.2,2.705v4.678a4.79,4.79,0,0,0,.449,2.227V0ZM67.939-2.148a1.836,1.836,0,0,0,1.021-.264,1.653,1.653,0,0,0,.581-.6V-4.7h-.957q-1.719,0-1.719,1.543a.942.942,0,0,0,.3.728A1.1,1.1,0,0,0,67.939-2.148ZM68.76-15h3.477l-2.715,3.066H66.836ZM78.5-13.193v2.627h1.738v2.285H78.5v4.834a1.234,1.234,0,0,0,.215.83,1.152,1.152,0,0,0,.85.234,4.828,4.828,0,0,0,.82-.059V-.088A6.074,6.074,0,0,1,78.525.2a3.448,3.448,0,0,1-2.51-.8,3.282,3.282,0,0,1-.811-2.432V-8.281H73.857v-2.285h1.348v-2.627ZM85,0H81.7V-10.566H85ZM81.5-13.291a1.469,1.469,0,0,1,.508-1.152,1.916,1.916,0,0,1,1.318-.449,1.916,1.916,0,0,1,1.318.449,1.469,1.469,0,0,1,.508,1.152,1.469,1.469,0,0,1-.508,1.152,1.916,1.916,0,0,1-1.318.449,1.916,1.916,0,0,1-1.318-.449A1.469,1.469,0,0,1,81.5-13.291Zm9.99,10.947a1.464,1.464,0,0,0,1.074-.376,1.379,1.379,0,0,0,.371-1.05h3.086A3.653,3.653,0,0,1,94.78-.918,4.631,4.631,0,0,1,91.572.2,4.689,4.689,0,0,1,87.939-1.25a5.7,5.7,0,0,1-1.328-4v-.137A6.436,6.436,0,0,1,87.2-8.218a4.3,4.3,0,0,1,1.7-1.885,5.081,5.081,0,0,1,2.637-.659,4.573,4.573,0,0,1,3.271,1.143,4.053,4.053,0,0,1,1.211,3.1H92.939a1.806,1.806,0,0,0-.4-1.26,1.382,1.382,0,0,0-1.074-.439q-1.279,0-1.494,1.631A11.508,11.508,0,0,0,89.9-5.166a4.52,4.52,0,0,0,.381,2.207A1.319,1.319,0,0,0,91.494-2.344ZM103.369,0a3.716,3.716,0,0,1-.312-.947A3.06,3.06,0,0,1,100.518.2a3.749,3.749,0,0,1-2.539-.9,2.875,2.875,0,0,1-1.045-2.271,2.955,2.955,0,0,1,1.27-2.6,6.468,6.468,0,0,1,3.691-.879h1.016v-.557q0-1.455-1.26-1.455a1.027,1.027,0,0,0-1.172,1.152H97.188a2.955,2.955,0,0,1,1.3-2.49,5.474,5.474,0,0,1,3.325-.957,4.8,4.8,0,0,1,3.193.986,3.429,3.429,0,0,1,1.2,2.705v4.678a4.79,4.79,0,0,0,.449,2.227V0Zm-2.061-2.148a1.836,1.836,0,0,0,1.021-.264,1.653,1.653,0,0,0,.581-.6V-4.7h-.957q-1.719,0-1.719,1.543a.942.942,0,0,0,.3.728A1.1,1.1,0,0,0,101.309-2.148Zm12.256-.82a.76.76,0,0,0-.439-.674,6.685,6.685,0,0,0-1.67-.527,7.615,7.615,0,0,1-2.031-.718A3.4,3.4,0,0,1,108.2-5.967a2.577,2.577,0,0,1-.42-1.455,2.92,2.92,0,0,1,1.2-2.4,4.948,4.948,0,0,1,3.145-.942,5.482,5.482,0,0,1,3.359.947,2.962,2.962,0,0,1,1.27,2.49h-3.3q0-1.27-1.338-1.27a1.326,1.326,0,0,0-.869.288.892.892,0,0,0-.352.718.819.819,0,0,0,.43.713,4.06,4.06,0,0,0,1.372.449,11.857,11.857,0,0,1,1.655.42,3.007,3.007,0,0,1,2.383,2.939,2.767,2.767,0,0,1-1.284,2.354A5.631,5.631,0,0,1,112.129.2a5.747,5.747,0,0,1-2.422-.488,4.05,4.05,0,0,1-1.66-1.328,3.007,3.007,0,0,1-.6-1.768h3.076a1.272,1.272,0,0,0,.488,1.069,2.009,2.009,0,0,0,1.2.337,1.58,1.58,0,0,0,1.011-.273A.875.875,0,0,0,113.564-2.969Z" transform="translate(997 1262)" fill="#12263f"/>
  </g>
</svg>
