<svg xmlns="http://www.w3.org/2000/svg" width="812" height="583" viewBox="0 0 812 583">
  <g id="Grupo_55041" data-name="Grupo 55041" transform="translate(-596 -5154)">
    <rect id="Rectángulo_5074" data-name="Rectángulo 5074" width="812" height="583" rx="11" transform="translate(596 5154)" fill="#9ddfd3"/>
    <g id="Grupo_55040" data-name="Grupo 55040" transform="translate(716.4 5160.456)">
      <g id="Grupo_54913" data-name="Grupo 54913" transform="translate(51.1 40.291)">
        <g id="Grupo_54811" data-name="Grupo 54811" transform="translate(226.686 343.883)">
          <path id="Trazado_100191" data-name="Trazado 100191" d="M243.349,390.916c-1.944,5.581-2.561,11.789-.694,17.4s6.494,10.463,12.284,11.642,12.436-1.988,14.356-7.577c-.2,3.3,2.637,5.278,5.92,5.678a6.815,6.815,0,0,0,7.261-5.33c2.425,10.586,12.71,18,23.075,21.246a31.9,31.9,0,0,0,30.4-6.71c9.067-8.25,12.467-20.906,14.91-32.918a12.7,12.7,0,0,0,14.989,3.393,13.1,13.1,0,0,0,6.852-14.052c5.446-3.194,8.6-11.783,7.658-18.028s-4.7-11.752-9.211-16.173c-13.26-13-33.022-17.779-51.521-16.139s-36.006,9.02-52.5,17.563" transform="translate(-241.532 -333.034)" fill="#fff"/>
        </g>
        <g id="Grupo_54812" data-name="Grupo 54812" transform="translate(0 297.757)">
          <path id="Trazado_100192" data-name="Trazado 100192" d="M178.98,299.248c-8.674-4.277-18.55-6.427-28.127-5.084s-18.781,6.382-24.266,14.348-6.829,18.876-2.561,27.555c-3.62-1.5-8.122.551-11.243,2.92a11.517,11.517,0,0,0-4.385,10.337c-1.024-9.27-12.285-18.368-21.417-20.263s-18.921,1.569-25.711,7.964-10.751,15.41-12.156,24.63c-1.517,9.953-.051,20.671,5.745,28.9s16.375,13.387,26.2,11.17c-4.118,6.336-7.139,15.895-3.4,22.463a20.723,20.723,0,0,0,36.793-1.5c4.353,8.021,12.5,12.642,21.495,14.193a30.8,30.8,0,0,0,25.424-7.328c9.285,22.11,36.037,34.716,59.36,29.141s40.805-29.443,39.086-53.361" transform="translate(-48.557 -293.767)" fill="#fff"/>
        </g>
        <g id="Grupo_54822" data-name="Grupo 54822" transform="translate(107.235 313.389)">
          <g id="Grupo_54813" data-name="Grupo 54813" transform="translate(3.51 15.527)">
            <path id="Trazado_100193" data-name="Trazado 100193" d="M150.305,355.96c-8.127-10.529-8.68-20.027-6.106-25.7q11.36-25.056,161.67,12.89c23.7,6.453,47.467,9.23,71.164,15.682L224.62,416.516Z" transform="translate(-142.833 -320.292)" fill="#3689bb"/>
          </g>
          <g id="Grupo_54814" data-name="Grupo 54814" transform="translate(15.292 19.633)">
            <path id="Trazado_100194" data-name="Trazado 100194" d="M156.171,323.788s-10.414,16.466,5.705,29.958,60.054,48.127,60.054,48.127l136.988-48.508s-5.775-9.332-.317-16.9Z" transform="translate(-152.862 -323.788)" fill="#fff"/>
          </g>
          <g id="Grupo_54815" data-name="Grupo 54815" transform="translate(15.34 19.633)">
            <path id="Trazado_100195" data-name="Trazado 100195" d="M358.594,336.465l-202.43-12.677a25.128,25.128,0,0,0-3.261,10.821l67.487,57.444,135.876-48.76A12.383,12.383,0,0,1,358.594,336.465Z" transform="translate(-152.903 -323.788)" fill="#e4ebed"/>
          </g>
          <g id="Grupo_54816" data-name="Grupo 54816" transform="translate(84.522 54.063)">
            <path id="Trazado_100196" data-name="Trazado 100196" d="M364.986,353.1l.059,3.129L211.8,415.337l.1-4.54Z" transform="translate(-211.796 -353.098)" fill="#26769e"/>
          </g>
          <g id="Grupo_54817" data-name="Grupo 54817" transform="translate(13.207 49.8)">
            <path id="Trazado_100197" data-name="Trazado 100197" d="M222.4,415.971l.776-4.553-72.091-61.95.111,5.886Z" transform="translate(-151.087 -349.469)" fill="#54aad6"/>
          </g>
          <g id="Grupo_54818" data-name="Grupo 54818" transform="translate(12.484)">
            <path id="Trazado_100198" data-name="Trazado 100198" d="M150.472,318.493l153.34-11.419,71.367,26.456L222.563,380.443Z" transform="translate(-150.472 -307.074)" fill="#3689bb"/>
          </g>
          <g id="Grupo_54819" data-name="Grupo 54819" transform="translate(83.902 26.456)">
            <path id="Trazado_100199" data-name="Trazado 100199" d="M364.558,329.6l.059,3.13L211.426,384.855l-.157-8.334Z" transform="translate(-211.269 -329.596)" fill="#26769e"/>
          </g>
          <g id="Grupo_54820" data-name="Grupo 54820" transform="translate(12.484 11.419)">
            <path id="Trazado_100200" data-name="Trazado 100200" d="M222.047,387.091l.516-8.346L150.472,316.8l.111,5.886Z" transform="translate(-150.472 -316.795)" fill="#54aad6"/>
          </g>
          <g id="Grupo_54821" data-name="Grupo 54821" transform="translate(0 11.419)">
            <path id="Trazado_100201" data-name="Trazado 100201" d="M153.051,355.177c-7-6.744-7.7-15.446-7.349-21.8s7.115-10.361,13.622-4.5l1.5-4.789-8.5-7.3s-9.5.032-12.031,14.544,6.034,23.567,12.864,29.723S153.051,355.177,153.051,355.177Z" transform="translate(-139.844 -316.795)" fill="#54aad6"/>
          </g>
        </g>
        <g id="Grupo_54832" data-name="Grupo 54832" transform="translate(114.967 264.243)">
          <g id="Grupo_54823" data-name="Grupo 54823" transform="translate(3.486 13.055)">
            <path id="Trazado_100202" data-name="Trazado 100202" d="M156.515,311.568c-7.928-10.68-8.3-20.187-5.621-25.815q11.829-24.836,161.4,15.931c23.571,6.9,47.144,17.584,70.715,24.482L229.676,373.51Z" transform="translate(-149.395 -276.351)" fill="#3689bb"/>
          </g>
          <g id="Grupo_54824" data-name="Grupo 54824" transform="translate(15.275 16.859)">
            <path id="Trazado_100203" data-name="Trazado 100203" d="M162.973,279.589s-10.723,16.267,5.139,30.06S227.25,358.9,227.25,358.9L364.987,320.44s-5.6-9.437,0-16.9Z" transform="translate(-159.43 -279.589)" fill="#fff"/>
          </g>
          <g id="Grupo_54825" data-name="Grupo 54825" transform="translate(15.352 16.859)">
            <path id="Trazado_100204" data-name="Trazado 100204" d="M364.976,303.538,162.961,279.589a25.134,25.134,0,0,0-3.465,10.758l66.395,58.7L362.52,310.319A12.387,12.387,0,0,1,364.976,303.538Z" transform="translate(-159.496 -279.589)" fill="#e4ebed"/>
          </g>
          <g id="Grupo_54826" data-name="Grupo 54826" transform="translate(82.907 62.87)">
            <path id="Trazado_100205" data-name="Trazado 100205" d="M371.2,318.758v3.13L217,370.64l.189-4.538Z" transform="translate(-217.004 -318.758)" fill="#26769e"/>
          </g>
          <g id="Grupo_54827" data-name="Grupo 54827" transform="translate(12.856 46.919)">
            <path id="Trazado_100206" data-name="Trazado 100206" d="M227.421,373.012l.862-4.537-70.912-63.3v5.887Z" transform="translate(-157.371 -305.179)" fill="#54aad6"/>
          </g>
          <g id="Grupo_54828" data-name="Grupo 54828" transform="translate(12.856)">
            <path id="Trazado_100207" data-name="Trazado 100207" d="M157.371,273.769,310.9,265.237,381.615,300.5,228.283,337.064Z" transform="translate(-157.371 -265.237)" fill="#3689bb"/>
          </g>
          <g id="Grupo_54829" data-name="Grupo 54829" transform="translate(83.095 35.258)">
            <path id="Trazado_100208" data-name="Trazado 100208" d="M371.169,295.252v3.13l-154,41.774v-8.335Z" transform="translate(-217.164 -295.252)" fill="#26769e"/>
          </g>
          <g id="Grupo_54830" data-name="Grupo 54830" transform="translate(12.856 8.531)">
            <path id="Trazado_100209" data-name="Trazado 100209" d="M227.61,344.13l.673-8.335-70.912-63.3v5.887Z" transform="translate(-157.371 -272.5)" fill="#54aad6"/>
          </g>
          <g id="Grupo_54831" data-name="Grupo 54831" transform="translate(0 8.531)">
            <path id="Trazado_100210" data-name="Trazado 100210" d="M159.283,310.888c-6.874-6.874-7.4-15.587-6.938-21.929s7.309-10.225,13.7-4.238l1.591-4.761-8.357-7.459s-9.5-.147-12.3,14.315,5.589,23.676,12.3,29.959S159.283,310.888,159.283,310.888Z" transform="translate(-146.427 -272.5)" fill="#54aad6"/>
          </g>
        </g>
        <g id="Grupo_54854" data-name="Grupo 54854" transform="translate(37.246 79.692)">
          <g id="Grupo_54838" data-name="Grupo 54838" transform="translate(357.072 77.659)">
            <g id="Grupo_54837" data-name="Grupo 54837">
              <g id="Grupo_54833" data-name="Grupo 54833" transform="translate(16.956 3.266)">
                <path id="Trazado_100211" data-name="Trazado 100211" d="M407.893,177.021l-3.464,7.233-5.761-5.579,12.052,51,2.942,6.085,1.02-7.588Z" transform="translate(-398.668 -177.021)" fill="#e4ebed"/>
              </g>
              <g id="Grupo_54834" data-name="Grupo 54834" transform="translate(16.956 4.919)">
                <path id="Trazado_100212" data-name="Trazado 100212" d="M410.72,229.429l2.942,6.085-9.233-51.505-5.761-5.579Z" transform="translate(-398.668 -178.429)" fill="#d1dde0"/>
              </g>
              <g id="Grupo_54835" data-name="Grupo 54835" transform="translate(26.181)">
                <path id="Trazado_100213" data-name="Trazado 100213" d="M412.29,236.245l-5.769-58.738,18.217-3.266Z" transform="translate(-406.521 -174.241)" fill="#fff"/>
              </g>
              <g id="Grupo_54836" data-name="Grupo 54836" transform="translate(0 4.919)">
                <path id="Trazado_100214" data-name="Trazado 100214" d="M416.184,235.514,401.19,178.429l-16.957,3.329Z" transform="translate(-384.234 -178.429)" fill="#fff"/>
              </g>
            </g>
          </g>
          <g id="Grupo_54844" data-name="Grupo 54844" transform="translate(17.915 11.444)">
            <g id="Grupo_54843" data-name="Grupo 54843">
              <g id="Grupo_54839" data-name="Grupo 54839" transform="translate(8.329)">
                <path id="Trazado_100215" data-name="Trazado 100215" d="M102.6,142.366l4.866-.944-.648,4.914L127.7,121.575l1.937-3.7-4.142,2.288Z" transform="translate(-102.605 -117.874)" fill="#e4ebed"/>
              </g>
              <g id="Grupo_54840" data-name="Grupo 54840" transform="translate(12.546)">
                <path id="Trazado_100216" data-name="Trazado 100216" d="M127.073,121.575l1.937-3.7-22.167,23.548-.648,4.914Z" transform="translate(-106.195 -117.874)" fill="#d1dde0"/>
              </g>
              <g id="Grupo_54841" data-name="Grupo 54841">
                <path id="Trazado_100217" data-name="Trazado 100217" d="M130.876,117.874l-27.033,24.492-8.329-7.84Z" transform="translate(-95.515 -117.874)" fill="#fff"/>
              </g>
              <g id="Grupo_54842" data-name="Grupo 54842" transform="translate(12.546)">
                <path id="Trazado_100218" data-name="Trazado 100218" d="M129.01,117.874,106.2,146.336l7.9,7.191Z" transform="translate(-106.195 -117.874)" fill="#fff"/>
              </g>
            </g>
          </g>
          <g id="Grupo_54851" data-name="Grupo 54851" transform="translate(0 46.491)">
            <g id="Grupo_54846" data-name="Grupo 54846" transform="translate(2.652 71.323)">
              <g id="Grupo_54845" data-name="Grupo 54845">
                <path id="Trazado_100219" data-name="Trazado 100219" d="M84.072,212.235a1.106,1.106,0,0,1-1.061-.8c-.156-.54-.307-1.08-.452-1.622a1.106,1.106,0,1,1,2.137-.57q.21.791.438,1.575a1.105,1.105,0,0,1-.753,1.37A1.129,1.129,0,0,1,84.072,212.235Z" transform="translate(-82.521 -208.425)" fill="#fff"/>
              </g>
            </g>
            <g id="Grupo_54848" data-name="Grupo 54848" transform="translate(0 3.927)">
              <g id="Grupo_54847" data-name="Grupo 54847">
                <path id="Trazado_100220" data-name="Trazado 100220" d="M83.258,217.543a1.105,1.105,0,0,1-1.078-.865q-.354-1.586-.641-3.186a1.105,1.105,0,0,1,2.176-.392q.28,1.556.624,3.1a1.106,1.106,0,0,1-.839,1.319A1.128,1.128,0,0,1,83.258,217.543Zm-1.138-6.306a1.107,1.107,0,0,1-1.094-.954q-.222-1.609-.382-3.226a1.1,1.1,0,1,1,2.2-.217q.155,1.573.372,3.14a1.106,1.106,0,0,1-1.1,1.257Zm-.627-6.379a1.105,1.105,0,0,1-1.1-1.041q-.1-1.621-.127-3.246a1.107,1.107,0,0,1,1.084-1.127,1.132,1.132,0,0,1,1.127,1.084q.03,1.581.122,3.159a1.1,1.1,0,0,1-1.038,1.168Zm-.123-6.407h-.021a1.106,1.106,0,0,1-1.084-1.127q.032-1.623.126-3.246a1.105,1.105,0,0,1,2.207.128q-.092,1.579-.122,3.16A1.105,1.105,0,0,1,81.369,198.452Zm.371-6.4c-.034,0-.07,0-.107,0a1.107,1.107,0,0,1-.994-1.208q.155-1.614.374-3.225a1.105,1.105,0,1,1,2.191.295q-.213,1.568-.364,3.142A1.105,1.105,0,0,1,81.741,192.054ZM82.6,185.7a1.061,1.061,0,0,1-.19-.016,1.106,1.106,0,0,1-.9-1.278q.278-1.6.618-3.188a1.105,1.105,0,0,1,2.161.462q-.331,1.547-.6,3.106A1.1,1.1,0,0,1,82.6,185.7Zm1.337-6.267a1.138,1.138,0,0,1-.271-.034,1.1,1.1,0,0,1-.8-1.343q.4-1.574.856-3.132a1.105,1.105,0,1,1,2.12.624q-.446,1.517-.835,3.051A1.1,1.1,0,0,1,83.935,179.435Zm1.81-6.147a1.082,1.082,0,0,1-.352-.059,1.1,1.1,0,0,1-.7-1.4q.518-1.54,1.095-3.059a1.1,1.1,0,0,1,2.065.786q-.56,1.478-1.065,2.978A1.1,1.1,0,0,1,85.745,173.288Zm2.275-5.991A1.108,1.108,0,0,1,87,165.759q.634-1.5,1.329-2.965a1.1,1.1,0,1,1,2,.943q-.673,1.431-1.292,2.885A1.106,1.106,0,0,1,88.021,167.3Zm2.735-5.8a1.09,1.09,0,0,1-.51-.126,1.106,1.106,0,0,1-.469-1.491q.751-1.441,1.559-2.851a1.105,1.105,0,0,1,1.917,1.1q-.786,1.371-1.517,2.772A1.107,1.107,0,0,1,90.755,161.5Zm3.187-5.561a1.1,1.1,0,0,1-.935-1.693q.865-1.376,1.786-2.717a1.1,1.1,0,1,1,1.821,1.252q-.9,1.3-1.735,2.641A1.1,1.1,0,0,1,93.942,155.94Z" transform="translate(-80.264 -151.051)" fill="#fff"/>
              </g>
            </g>
            <g id="Grupo_54850" data-name="Grupo 54850" transform="translate(16.207)">
              <g id="Grupo_54849" data-name="Grupo 54849">
                <path id="Trazado_100221" data-name="Trazado 100221" d="M95.164,151.237a1.106,1.106,0,0,1-.883-1.769c.337-.448.679-.894,1.026-1.334a1.1,1.1,0,1,1,1.739,1.364q-.506.643-1,1.3A1.1,1.1,0,0,1,95.164,151.237Z" transform="translate(-94.06 -147.709)" fill="#fff"/>
              </g>
            </g>
          </g>
          <g id="Grupo_54853" data-name="Grupo 54853" transform="translate(262.581)">
            <g id="Grupo_54852" data-name="Grupo 54852">
              <path id="Trazado_100222" data-name="Trazado 100222" d="M417.591,176.208a1.106,1.106,0,0,1-1.085-.9l-.065-.347a1.105,1.105,0,0,1,2.173-.405l.065.348a1.106,1.106,0,0,1-.885,1.289A1.09,1.09,0,0,1,417.591,176.208Zm-.755-3.589a1.106,1.106,0,0,1-1.075-.853q-.373-1.591-.815-3.163a1.1,1.1,0,1,1,2.127-.6q.455,1.619.84,3.256a1.106,1.106,0,0,1-1.077,1.358Zm-1.79-6.381a1.107,1.107,0,0,1-1.051-.764q-.5-1.552-1.078-3.082a1.105,1.105,0,0,1,2.07-.775q.588,1.575,1.111,3.174a1.1,1.1,0,0,1-.71,1.392A1.078,1.078,0,0,1,415.046,166.238Zm-2.321-6.209a1.105,1.105,0,0,1-1.018-.677q-.633-1.507-1.331-2.985a1.106,1.106,0,0,1,2-.942q.715,1.522,1.367,3.071a1.1,1.1,0,0,1-1.018,1.533Zm-2.822-6a1.107,1.107,0,0,1-.982-.6q-.752-1.452-1.567-2.87a1.105,1.105,0,1,1,1.918-1.1q.835,1.457,1.611,2.948a1.106,1.106,0,0,1-.472,1.491A1.094,1.094,0,0,1,409.9,154.032Zm-3.294-5.752a1.1,1.1,0,0,1-.936-.517q-.872-1.387-1.794-2.737a1.1,1.1,0,0,1,1.823-1.248q.95,1.385,1.842,2.809a1.1,1.1,0,0,1-.935,1.693Zm-3.743-5.472a1.1,1.1,0,0,1-.888-.445q-.976-1.311-2-2.584a1.105,1.105,0,0,1,1.72-1.389q1.054,1.306,2.058,2.655a1.1,1.1,0,0,1-.886,1.763Zm-4.167-5.156a1.1,1.1,0,0,1-.832-.377q-1.077-1.23-2.2-2.416a1.106,1.106,0,0,1,1.6-1.522q1.156,1.219,2.262,2.483a1.105,1.105,0,0,1-.832,1.833Zm-4.562-4.808a1.107,1.107,0,0,1-.771-.312q-1.172-1.14-2.391-2.232a1.106,1.106,0,0,1,1.477-1.646q1.249,1.122,2.455,2.293a1.105,1.105,0,0,1-.771,1.9ZM389.2,128.42a1.105,1.105,0,0,1-.7-.253q-1.262-1.043-2.564-2.029a1.106,1.106,0,0,1,1.337-1.762q1.337,1.015,2.635,2.086a1.1,1.1,0,0,1-.7,1.957Zm-5.283-4a1.1,1.1,0,0,1-.628-.2q-1.343-.934-2.723-1.808a1.1,1.1,0,0,1,1.183-1.867q1.418.9,2.8,1.86a1.1,1.1,0,0,1-.632,2.012Zm-5.6-3.548a1.1,1.1,0,0,1-.549-.147q-1.343-.77-2.715-1.488l-.155-.081a1.1,1.1,0,1,1,1.021-1.959l.156.081q1.413.738,2.793,1.531a1.105,1.105,0,0,1-.552,2.064Zm-5.884-3.053a1.109,1.109,0,0,1-.465-.1q-1.482-.691-2.992-1.314a1.105,1.105,0,1,1,.847-2.042q1.552.641,3.078,1.352a1.1,1.1,0,0,1-.468,2.106Zm-67.534-.409a1.105,1.105,0,0,1-.457-2.112q1.533-.694,3.092-1.322a1.105,1.105,0,0,1,.823,2.051q-1.514.608-3,1.283A1.087,1.087,0,0,1,304.9,117.406Zm61.412-2.127a1.122,1.122,0,0,1-.378-.067q-1.537-.56-3.094-1.058a1.1,1.1,0,1,1,.671-2.105q1.6.509,3.181,1.087a1.106,1.106,0,0,1-.379,2.144Zm-55.263-.347a1.105,1.105,0,0,1-.369-2.147q1.588-.56,3.193-1.053a1.105,1.105,0,0,1,.647,2.113q-1.561.479-3.1,1.023A1.1,1.1,0,0,1,311.05,114.932ZM360,113.266a1.09,1.09,0,0,1-.292-.04q-1.579-.432-3.172-.8a1.105,1.105,0,0,1,.5-2.154q1.637.377,3.257.822a1.1,1.1,0,0,1-.29,2.171Zm-42.614-.275a1.105,1.105,0,0,1-.278-2.174q1.626-.426,3.268-.782a1.1,1.1,0,1,1,.47,2.159q-1.6.347-3.179.761A1.1,1.1,0,0,1,317.386,112.991Zm36.155-1.215a1.026,1.026,0,0,1-.206-.02q-1.609-.3-3.226-.54a1.106,1.106,0,0,1-.933-1.255,1.093,1.093,0,0,1,1.253-.932q1.663.243,3.314.554a1.106,1.106,0,0,1-.2,2.192Zm-29.677-.2a1.1,1.1,0,0,1-.19-2.193q1.655-.291,3.32-.513a1.105,1.105,0,1,1,.292,2.191q-1.621.215-3.23.5A1.181,1.181,0,0,1,323.863,111.58Zm23.118-.769c-.039,0-.079,0-.119-.006q-1.625-.173-3.257-.282a1.1,1.1,0,1,1,.147-2.2q1.676.111,3.347.289a1.105,1.105,0,0,1-.117,2.2Zm-16.548-.11a1.1,1.1,0,0,1-.1-2.2q1.67-.157,3.35-.246a1.105,1.105,0,1,1,.116,2.207q-1.633.088-3.261.238A1.03,1.03,0,0,1,330.434,110.7Zm9.936-.329h-.032q-1.632-.042-3.269-.022h-.014a1.1,1.1,0,0,1-.015-2.21c1.122-.015,2.239-.008,3.36.023a1.1,1.1,0,0,1-.029,2.208Z" transform="translate(-303.795 -108.131)" fill="#fff"/>
            </g>
          </g>
        </g>
        <g id="Grupo_54891" data-name="Grupo 54891" transform="translate(10.163 126.817)">
          <g id="Grupo_54863" data-name="Grupo 54863" transform="translate(330.187 117.108)">
            <g id="Grupo_54856" data-name="Grupo 54856" transform="translate(8.469)">
              <g id="Grupo_54855" data-name="Grupo 54855">
                <path id="Trazado_100223" data-name="Trazado 100223" d="M351.555,282.533c-3.395,0-6.054-7.6-6.054-17.3s2.659-17.3,6.054-17.3,6.054,7.6,6.054,17.3S354.95,282.533,351.555,282.533Zm0-33.765c-2.524,0-5.227,6.618-5.227,16.469s2.7,16.469,5.227,16.469,5.227-6.618,5.227-16.469S354.08,248.768,351.555,248.768Z" transform="translate(-345.501 -247.941)" fill="#fff"/>
              </g>
            </g>
            <g id="Grupo_54858" data-name="Grupo 54858" transform="translate(0.001 6.059)">
              <g id="Grupo_54857" data-name="Grupo 54857">
                <path id="Trazado_100224" data-name="Trazado 100224" d="M341.76,275.573a3.5,3.5,0,0,1-3.013-1.176c-1.975-2.762,2.658-9.344,10.546-14.986s15.616-7.9,17.59-5.137-2.658,9.345-10.546,14.986C350.726,273.273,345.2,275.573,341.76,275.573Zm22.108-21.663c-3.007,0-8.27,2.01-14.093,6.174-8.014,5.73-11.824,11.777-10.356,13.832s8.423.4,16.438-5.328h0c8.013-5.731,11.823-11.779,10.355-13.832A2.761,2.761,0,0,0,363.867,253.911Z" transform="translate(-338.292 -253.099)" fill="#fff"/>
              </g>
            </g>
            <g id="Grupo_54860" data-name="Grupo 54860" transform="translate(0 6.059)">
              <g id="Grupo_54859" data-name="Grupo 54859">
                <path id="Trazado_100225" data-name="Trazado 100225" d="M363.87,275.573c-3.436,0-8.965-2.3-14.577-6.313h0c-7.888-5.641-12.521-12.224-10.548-14.986s9.7-.5,17.591,5.137,12.521,12.224,10.548,14.986A3.51,3.51,0,0,1,363.87,275.573Zm-22.108-21.663a2.761,2.761,0,0,0-2.344.846c-1.468,2.053,2.342,8.1,10.356,13.832h0c8.011,5.73,14.966,7.381,16.436,5.328s-2.342-8.1-10.355-13.832C350.033,255.921,344.769,253.911,341.762,253.911Z" transform="translate(-338.292 -253.099)" fill="#fff"/>
              </g>
            </g>
            <g id="Grupo_54862" data-name="Grupo 54862" transform="translate(11.934 14.707)">
              <g id="Grupo_54861" data-name="Grupo 54861">
                <circle id="Elipse_1224" data-name="Elipse 1224" cx="2.589" cy="2.589" r="2.589" fill="#641f22"/>
              </g>
            </g>
          </g>
          <g id="Grupo_54872" data-name="Grupo 54872" transform="translate(94.573)">
            <g id="Grupo_54865" data-name="Grupo 54865" transform="translate(0 7.614)">
              <g id="Grupo_54864" data-name="Grupo 54864">
                <path id="Trazado_100226" data-name="Trazado 100226" d="M137.967,156.469c1.524-3.034,9.507-2,18.173,2.352s14.262,10.14,12.738,13.174-9.507,2-18.173-2.353S136.444,159.5,137.967,156.469Zm30.172,15.155c1.134-2.255-3.566-7.643-12.371-12.064s-15.93-4.976-17.062-2.719,3.566,7.641,12.37,12.063S167.007,173.88,168.139,171.623Z" transform="translate(-137.717 -154.73)" fill="#fff"/>
              </g>
            </g>
            <g id="Grupo_54867" data-name="Grupo 54867" transform="translate(9.134)">
              <g id="Grupo_54866" data-name="Grupo 54866">
                <path id="Trazado_100227" data-name="Trazado 100227" d="M146.984,150.441a3.5,3.5,0,0,1,2.4-2.165c3.354-.525,7.156,6.569,8.657,16.151s.048,17.5-3.306,18.023-7.156-6.569-8.656-16.15C145.016,159.485,145.441,153.51,146.984,150.441Zm9.436,29.478c1.35-2.687,1.916-8.292.808-15.364-1.524-9.734-5.218-15.853-7.712-15.463s-4.14,7.347-2.616,17.08h0c1.524,9.732,5.218,15.852,7.712,15.461C155.295,181.527,155.913,180.93,156.42,179.919Z" transform="translate(-145.493 -148.249)" fill="#fff"/>
              </g>
            </g>
            <g id="Grupo_54869" data-name="Grupo 54869" transform="translate(0.128 7.401)">
              <g id="Grupo_54868" data-name="Grupo 54868">
                <path id="Trazado_100228" data-name="Trazado 100228" d="M138.4,169.1c1.542-3.071,6.08-6.979,12.185-10.192h0c8.581-4.518,16.543-5.7,18.126-2.7s-3.9,8.9-12.487,13.414-16.543,5.7-18.126,2.7A3.511,3.511,0,0,1,138.4,169.1Zm29.282-10.032a2.764,2.764,0,0,0,.3-2.474c-1.177-2.234-8.292-1.544-17.01,3.045h0c-8.716,4.588-13.313,10.061-12.139,12.3s8.292,1.542,17.01-3.046C162.173,165.555,166.331,161.752,167.681,159.066Z" transform="translate(-137.827 -154.549)" fill="#fff"/>
              </g>
            </g>
            <g id="Grupo_54871" data-name="Grupo 54871" transform="translate(13.115 14.525)">
              <g id="Grupo_54870" data-name="Grupo 54870">
                <path id="Trazado_100229" data-name="Trazado 100229" d="M152.634,160.889a2.589,2.589,0,1,1-3.476,1.152A2.59,2.59,0,0,1,152.634,160.889Z" transform="translate(-148.882 -160.613)" fill="#641f22"/>
              </g>
            </g>
          </g>
          <g id="Grupo_54881" data-name="Grupo 54881" transform="translate(307.203 108.541)">
            <g id="Grupo_54874" data-name="Grupo 54874" transform="translate(4.459 0.286)">
              <g id="Grupo_54873" data-name="Grupo 54873">
                <path id="Trazado_100230" data-name="Trazado 100230" d="M323.485,259.746c-1.833-1.023-.98-5.924,1.942-11.157s6.645-8.534,8.478-7.511.979,5.924-1.943,11.157S325.317,260.768,323.485,259.746Zm10.171-18.222c-1.363-.761-4.815,2-7.782,7.312s-3.5,9.7-2.139,10.463,4.814-2,7.781-7.314S335.017,242.284,333.656,241.524Z" transform="translate(-322.521 -240.892)" fill="#fff"/>
              </g>
            </g>
            <g id="Grupo_54876" data-name="Grupo 54876" transform="translate(0 5.893)">
              <g id="Grupo_54875" data-name="Grupo 54875">
                <path id="Trazado_100231" data-name="Trazado 100231" d="M320.007,252.313a2.164,2.164,0,0,1-1.272-1.542c-.234-2.085,4.249-4.242,10.206-4.911s10.807.442,11.041,2.527-4.25,4.242-10.206,4.91C325.538,253.772,321.861,253.348,320.007,252.313Zm18.456-5.032c-1.622-.906-5.068-1.406-9.465-.913-6.051.679-9.93,2.795-9.756,4.345s4.425,2.755,10.476,2.076h0c6.051-.679,9.929-2.8,9.755-4.346C339.425,248.019,339.073,247.621,338.462,247.28Z" transform="translate(-318.726 -245.665)" fill="#fff"/>
              </g>
            </g>
            <g id="Grupo_54878" data-name="Grupo 54878" transform="translate(4.928)">
              <g id="Grupo_54877" data-name="Grupo 54877">
                <path id="Trazado_100232" data-name="Trazado 100232" d="M331.206,259.848c-1.855-1.035-4.145-3.941-5.965-7.8h0c-2.559-5.42-3.075-10.368-1.178-11.264s5.387,2.65,7.946,8.071,3.075,10.368,1.178,11.264A2.165,2.165,0,0,1,331.206,259.848ZM325.8,241.5a1.711,1.711,0,0,0-1.52-.25c-1.411.666-1.176,5.078,1.423,10.585h0c2.6,5.506,5.855,8.491,7.267,7.826s1.176-5.077-1.423-10.584C329.658,245.074,327.422,242.4,325.8,241.5Z" transform="translate(-322.921 -240.648)" fill="#fff"/>
              </g>
            </g>
            <g id="Grupo_54880" data-name="Grupo 54880" transform="translate(9.031 8.205)">
              <g id="Grupo_54879" data-name="Grupo 54879">
                <path id="Trazado_100233" data-name="Trazado 100233" d="M326.617,248.454a1.6,1.6,0,1,1,.617,2.177A1.6,1.6,0,0,1,326.617,248.454Z" transform="translate(-326.414 -247.633)" fill="#641f22"/>
              </g>
            </g>
          </g>
          <g id="Grupo_54890" data-name="Grupo 54890" transform="translate(0 75.817)">
            <g id="Grupo_54883" data-name="Grupo 54883" transform="translate(4.459 0.286)">
              <g id="Grupo_54882" data-name="Grupo 54882">
                <path id="Trazado_100234" data-name="Trazado 100234" d="M61.968,231.888c-1.833-1.023-.98-5.924,1.942-11.157s6.645-8.534,8.478-7.511.979,5.924-1.943,11.157S63.8,232.91,61.968,231.888Zm10.171-18.222c-1.363-.761-4.815,2-7.782,7.312s-3.5,9.7-2.139,10.463,4.814-2,7.781-7.314S73.5,214.426,72.139,213.666Z" transform="translate(-61.004 -213.034)" fill="#fff"/>
              </g>
            </g>
            <g id="Grupo_54885" data-name="Grupo 54885" transform="translate(0 5.893)">
              <g id="Grupo_54884" data-name="Grupo 54884">
                <path id="Trazado_100235" data-name="Trazado 100235" d="M58.489,224.455a2.167,2.167,0,0,1-1.272-1.542c-.234-2.085,4.249-4.242,10.206-4.911s10.807.442,11.041,2.527-4.25,4.242-10.206,4.91C64.021,225.914,60.344,225.49,58.489,224.455Zm18.456-5.032c-1.622-.906-5.068-1.406-9.465-.913-6.051.679-9.929,2.795-9.755,4.345s4.424,2.755,10.475,2.076h0c6.051-.679,9.929-2.8,9.755-4.345C77.908,220.161,77.556,219.763,76.945,219.422Z" transform="translate(-57.209 -217.807)" fill="#fff"/>
              </g>
            </g>
            <g id="Grupo_54887" data-name="Grupo 54887" transform="translate(4.928)">
              <g id="Grupo_54886" data-name="Grupo 54886">
                <path id="Trazado_100236" data-name="Trazado 100236" d="M69.689,231.99c-1.855-1.035-4.145-3.941-5.965-7.8h0c-2.558-5.42-3.075-10.368-1.178-11.264s5.387,2.65,7.946,8.071,3.075,10.368,1.178,11.264A2.166,2.166,0,0,1,69.689,231.99Zm-5.406-18.35a1.711,1.711,0,0,0-1.52-.25c-1.411.666-1.176,5.078,1.423,10.585h0c2.6,5.506,5.855,8.491,7.267,7.826s1.176-5.077-1.423-10.584C68.141,217.216,65.905,214.546,64.283,213.64Z" transform="translate(-61.404 -212.79)" fill="#fff"/>
              </g>
            </g>
            <g id="Grupo_54889" data-name="Grupo 54889" transform="translate(9.032 8.205)">
              <g id="Grupo_54888" data-name="Grupo 54888">
                <path id="Trazado_100237" data-name="Trazado 100237" d="M65.1,220.6a1.6,1.6,0,1,1,.618,2.178A1.6,1.6,0,0,1,65.1,220.6Z" transform="translate(-64.897 -219.775)" fill="#641f22"/>
              </g>
            </g>
          </g>
        </g>
        <g id="Grupo_54892" data-name="Grupo 54892" transform="translate(381.057 217.747)">
          <path id="Trazado_100238" data-name="Trazado 100238" d="M377.409,266.272a8.979,8.979,0,1,1,9.786-15.009c.4-8.963,4.9-18.318,13.413-21.143s19.323,2.313,21.024,11.122c.3-2.347,3.253-6.529,5.61-6.7a5.337,5.337,0,0,1,5.359,3.768c1.795-6.914,10.575-12.485,17.717-12.647s13.992,3.75,18.472,9.313,6.8,12.607,7.808,19.68c.924,6.517.126,14.418-5.572,17.716a14.209,14.209,0,0,1,6.927,11.4c.394,4.777-2.541,9.859-7.146,11.19s-10.206-2.025-10.544-6.806c.491,3.775-4.289,7.271-8.071,6.839s-6.8-3.609-8.166-7.16-1.411-7.456-1.433-11.263c-4.069,5.583-12.442,8.011-19.036,5.95a17.118,17.118,0,0,1-11.683-15.506c-1.8,7.049-10.5,12.344-17.772,12.38S379.275,273.3,377.409,266.272Z" transform="translate(-372.945 -225.656)" fill="#fff"/>
        </g>
        <g id="Grupo_54893" data-name="Grupo 54893" transform="translate(73.738)">
          <path id="Trazado_100239" data-name="Trazado 100239" d="M165.863,111.03A26.98,26.98,0,0,0,194.5,122.042c10.565-2.776,19.409-12.754,20.13-23.652a9.8,9.8,0,0,0,10.551,6.568c4.461-.714,7.981-5.729,7.9-10.246a14.439,14.439,0,0,0,13.065,5.636c4.935-.593,10.505-2.4,11.94-7.156a19.114,19.114,0,0,0-8.706-21.525c-7.3-4.08-17.649-3.176-23.2,3.077a5.918,5.918,0,0,0-3.333-6.248c-2.326-1.03-5.593-.919-7.15,1.092a11.27,11.27,0,0,0-8.334-8.533c-4.1-.937-9.427.038-11.972,3.381-.532-10.077-8.116-19.092-17.627-22.46S157.309,40.5,148.75,45.841c-4.861,3.035-9.144,7.265-11.317,12.568S134.2,71.3,137.521,75.97a6.879,6.879,0,0,0-7.983.759c-2.12,1.928-2.252,6.389-1,8.966a13.594,13.594,0,1,0,.48,26.015c1.217,8.258,9.144,15.057,17.491,15.026S164.711,119.3,165.863,111.03Z" transform="translate(-111.33 -40.291)" fill="#fff"/>
        </g>
        <g id="Grupo_54894" data-name="Grupo 54894" transform="translate(59.213 153.959)">
          <path id="Trazado_100240" data-name="Trazado 100240" d="M115.194,179.469a8.115,8.115,0,1,1-8.115-8.115A8.114,8.114,0,0,1,115.194,179.469Z" transform="translate(-98.964 -171.354)" fill="#fff"/>
        </g>
        <g id="Grupo_54895" data-name="Grupo 54895" transform="translate(303.22 103.84)">
          <circle id="Elipse_1225" data-name="Elipse 1225" cx="8.115" cy="8.115" r="8.115" fill="#fff"/>
        </g>
        <g id="Grupo_54896" data-name="Grupo 54896" transform="translate(6.065 299.234)">
          <circle id="Elipse_1226" data-name="Elipse 1226" cx="8.115" cy="8.115" r="8.115" fill="#fff"/>
        </g>
        <g id="Grupo_54897" data-name="Grupo 54897" transform="translate(430.601 117.477)">
          <circle id="Elipse_1227" data-name="Elipse 1227" cx="8.115" cy="8.115" r="8.115" fill="#fff"/>
        </g>
        <g id="Grupo_54898" data-name="Grupo 54898" transform="translate(374.126 362.809)">
          <circle id="Elipse_1228" data-name="Elipse 1228" cx="8.115" cy="8.115" r="8.115" fill="#fff"/>
        </g>
        <g id="Grupo_54899" data-name="Grupo 54899" transform="translate(128.066 100.848)">
          <circle id="Elipse_1229" data-name="Elipse 1229" cx="8.115" cy="8.115" r="8.115" fill="#fff"/>
        </g>
        <g id="Grupo_54900" data-name="Grupo 54900" transform="translate(13.074 154.1)">
          <path id="Trazado_100241" data-name="Trazado 100241" d="M65.807,183.714a6.12,6.12,0,1,1,6.12-6.12A6.127,6.127,0,0,1,65.807,183.714Zm0-10.031a3.911,3.911,0,1,0,3.911,3.911A3.915,3.915,0,0,0,65.807,173.684Z" transform="translate(-59.687 -171.474)" fill="#fff"/>
        </g>
        <g id="Grupo_54901" data-name="Grupo 54901" transform="translate(400.918 370.908)">
          <path id="Trazado_100242" data-name="Trazado 100242" d="M395.973,368.279a6.12,6.12,0,1,1,6.12-6.121A6.127,6.127,0,0,1,395.973,368.279Zm0-10.031a3.911,3.911,0,1,0,3.911,3.909A3.914,3.914,0,0,0,395.973,358.249Z" transform="translate(-389.853 -356.039)" fill="#fff"/>
        </g>
        <g id="Grupo_54902" data-name="Grupo 54902" transform="translate(328.622 93.812)">
          <path id="Trazado_100243" data-name="Trazado 100243" d="M334.429,132.392a6.12,6.12,0,1,1,6.119-6.12A6.127,6.127,0,0,1,334.429,132.392Zm0-10.03a3.91,3.91,0,1,0,3.909,3.909A3.915,3.915,0,0,0,334.429,122.363Z" transform="translate(-328.308 -120.152)" fill="#fff"/>
        </g>
        <g id="Grupo_54903" data-name="Grupo 54903" transform="translate(127.165 170.461)">
          <path id="Trazado_100244" data-name="Trazado 100244" d="M162.931,197.642a6.12,6.12,0,1,1,6.12-6.121A6.128,6.128,0,0,1,162.931,197.642Zm0-10.031a3.91,3.91,0,1,0,3.911,3.909A3.914,3.914,0,0,0,162.931,187.612Z" transform="translate(-156.811 -185.402)" fill="#fff"/>
        </g>
        <g id="Grupo_54904" data-name="Grupo 54904" transform="translate(130.06 248.057)">
          <path id="Trazado_100245" data-name="Trazado 100245" d="M165.4,263.7a6.12,6.12,0,1,1,6.12-6.12A6.127,6.127,0,0,1,165.4,263.7Zm0-10.031a3.911,3.911,0,1,0,3.911,3.911A3.916,3.916,0,0,0,165.4,253.668Z" transform="translate(-159.275 -251.458)" fill="#fff"/>
        </g>
        <g id="Grupo_54905" data-name="Grupo 54905" transform="translate(371.106 210.47)">
          <path id="Trazado_100246" data-name="Trazado 100246" d="M370.594,231.7a6.12,6.12,0,1,1,6.119-6.12A6.127,6.127,0,0,1,370.594,231.7Zm0-10.031a3.91,3.91,0,1,0,3.909,3.911A3.914,3.914,0,0,0,370.594,221.671Z" transform="translate(-364.474 -219.461)" fill="#fff"/>
        </g>
        <g id="Grupo_54906" data-name="Grupo 54906" transform="translate(58.358 137.793)">
          <path id="Trazado_100247" data-name="Trazado 100247" d="M102.44,166a4.2,4.2,0,1,1,4.205-4.2A4.209,4.209,0,0,1,102.44,166Zm0-6.2a1.995,1.995,0,1,0,2,1.995A2,2,0,0,0,102.44,159.8Z" transform="translate(-98.236 -157.592)" fill="#fff"/>
        </g>
        <g id="Grupo_54907" data-name="Grupo 54907" transform="translate(379.729 127.308)">
          <path id="Trazado_100248" data-name="Trazado 100248" d="M376.02,157.076a4.2,4.2,0,1,1,4.2-4.2A4.209,4.209,0,0,1,376.02,157.076Zm0-6.2a1.995,1.995,0,1,0,1.995,1.995A2,2,0,0,0,376.02,150.877Z" transform="translate(-371.815 -148.666)" fill="#fff"/>
        </g>
        <g id="Grupo_54908" data-name="Grupo 54908" transform="translate(280.168 60.356)">
          <path id="Trazado_100249" data-name="Trazado 100249" d="M291.264,100.079a4.2,4.2,0,1,1,4.2-4.2A4.209,4.209,0,0,1,291.264,100.079Zm0-6.2a1.995,1.995,0,1,0,1.995,1.995A2,2,0,0,0,291.264,93.881Z" transform="translate(-287.06 -91.671)" fill="#fff"/>
        </g>
        <g id="Grupo_54909" data-name="Grupo 54909" transform="translate(106.54 267.442)">
          <path id="Trazado_100250" data-name="Trazado 100250" d="M143.457,276.371a4.205,4.205,0,1,1,4.205-4.205A4.21,4.21,0,0,1,143.457,276.371Zm0-6.2a1.995,1.995,0,1,0,1.995,1.995A2,2,0,0,0,143.457,270.171Z" transform="translate(-139.253 -267.96)" fill="#fff"/>
        </g>
        <g id="Grupo_54910" data-name="Grupo 54910" transform="translate(11.158 244.83)">
          <path id="Trazado_100251" data-name="Trazado 100251" d="M61.076,254.752a3.021,3.021,0,1,1,3.021-3.021A3.023,3.023,0,0,1,61.076,254.752Zm0-3.831a.811.811,0,1,0,.812.809A.811.811,0,0,0,61.076,250.922Z" transform="translate(-58.056 -248.711)" fill="#fff"/>
        </g>
        <g id="Grupo_54911" data-name="Grupo 54911" transform="translate(360.43 297.136)">
          <path id="Trazado_100252" data-name="Trazado 100252" d="M358.406,299.281a3.021,3.021,0,1,1,3.021-3.022A3.024,3.024,0,0,1,358.406,299.281Zm0-3.832a.811.811,0,1,0,.812.809A.811.811,0,0,0,358.406,295.449Z" transform="translate(-355.386 -293.238)" fill="#fff"/>
        </g>
        <g id="Grupo_54912" data-name="Grupo 54912" transform="translate(391.319 378.422)">
          <path id="Trazado_100253" data-name="Trazado 100253" d="M466.153,393.376c-.1-3.9-.448-8.359-4-10.569-3.429-2.133-8.115-.944-10.862,2.013A23.633,23.633,0,0,0,413.72,366.93c-6.843,5.014-11.36,16.192-10.19,24.593a5.362,5.362,0,1,0-9.435,5c-2.763-2.432-7.432-1.612-9.886,1.131s-2.96,6.809-2.2,10.411c1.514,7.187,5.039,15.6,14.2,13.449,5.776-1.357,9.931-6.461,12.55-11.783.1,9.171,7.936,18.264,17.106,18.074s17.321-8.767,17.041-17.934c.237,2.353,2.516,3.671,4.872,3.869a6.546,6.546,0,0,0,5.933-3.189,8.647,8.647,0,0,0,.741-6.851c1.159.887,2.077,2.134,3.449,2.631a5.228,5.228,0,0,0,4.249-.136c3.851-2.116,4.127-7.425,4.037-11.291C466.176,394.41,466.166,393.9,466.153,393.376Z" transform="translate(-381.681 -362.436)" fill="#fff"/>
        </g>
      </g>
      <g id="Grupo_54956" data-name="Grupo 54956" transform="translate(196.18 113.845)">
        <path id="Trazado_100254" data-name="Trazado 100254" d="M312.632,299.317c8.06-53.312-25.62-65.981-19.274-99.02,2.388-12.436,8.361-24.064,9.824-36.642,2.543-21.868-10.445-44.658-30.557-53.617-19.664-8.759-44.469-10.2-63.94-.1-18.816,9.752-27.021,30.345-25.836,50.759,1.493,25.74,16.974,47.7,25.918,71.168,8.843,23.2,8.882,50.613-3.115,72.355" transform="translate(-170.196 -102.906)" fill="#31326f"/>
        <g id="Grupo_54922" data-name="Grupo 54922" transform="translate(75.52 181.844)">
          <g id="Grupo_54914" data-name="Grupo 54914">
            <path id="Trazado_100255" data-name="Trazado 100255" d="M262.769,305.622c2.957-1.189,13.407-5.486,23.691-10.869,16.079-8.42,23.648-15.027,25.3-22.091a11.891,11.891,0,0,0-2.8-10.893c-5.153-5.77-13.179-3.962-17.034-3.093l-.506.114a95.386,95.386,0,0,0-16.127,5.534c-2.6,1.076-5.059,2.091-7.544,2.97-9.172,3.239-20.081,6.6-31.4,6.913l.449,16c13.551-.383,25.945-4.167,36.287-7.821,2.879-1.017,5.647-2.161,8.324-3.268l1.365-.564A230.236,230.236,0,0,1,256.8,290.771Z" transform="translate(-236.35 -257.707)" fill="#485685"/>
          </g>
          <g id="Grupo_54918" data-name="Grupo 54918" transform="translate(0.515 26.807)">
            <g id="Grupo_54915" data-name="Grupo 54915" transform="translate(0 0.171)">
              <path id="Trazado_100256" data-name="Trazado 100256" d="M239.282,317.079c-9.3-4.164,10.142-36.929,13.925-36.4s15.092-.157,14.161,1.693c-1.343,2.664-4.493,11.75,1.915,16.422.263.19.457.825-1.054,1.135a28.076,28.076,0,0,0-16.1,10.061C248.623,314.363,243.615,319.02,239.282,317.079Z" transform="translate(-236.789 -280.674)" fill="#fddc57"/>
            </g>
            <g id="Grupo_54917" data-name="Grupo 54917">
              <g id="Grupo_54916" data-name="Grupo 54916">
                <path id="Trazado_100257" data-name="Trazado 100257" d="M255.849,283.48a11.766,11.766,0,0,0-2.383,2.88c-5.622,8.494-7.516,10.077-10.467,19.825a12.952,12.952,0,0,0-.735,4.721,5.235,5.235,0,0,0,2.213,4.07,3.478,3.478,0,0,0,1.169.45c-2.284,1.7-4.5,2.512-6.363,1.677-9.3-4.164,10.142-36.929,13.925-36.4.889.125,3.783-.665,5.924.342C258.362,281.158,256.464,283,255.849,283.48Z" transform="translate(-236.789 -280.528)" fill="#453248"/>
              </g>
            </g>
          </g>
          <g id="Grupo_54919" data-name="Grupo 54919" transform="translate(15.614 47.571)">
            <path id="Trazado_100258" data-name="Trazado 100258" d="M250.482,300.989c-.421-.556-.969-1.165-.813-1.844a1.265,1.265,0,0,1,.928-.882,2.356,2.356,0,0,1,1.325.09,4.842,4.842,0,0,1,2.973,3c.415,1.168.518,6.441-1.756,5.5C251.449,306.157,251.51,302.35,250.482,300.989Z" transform="translate(-249.642 -298.204)" fill="#453248"/>
          </g>
          <g id="Grupo_54920" data-name="Grupo 54920" transform="translate(19.441 45.423)">
            <path id="Trazado_100259" data-name="Trazado 100259" d="M253.74,299.161c-.421-.556-.969-1.167-.813-1.845a1.269,1.269,0,0,1,.928-.882,2.377,2.377,0,0,1,1.325.09,4.847,4.847,0,0,1,2.973,3c.415,1.168.518,6.441-1.756,5.5C254.707,304.329,254.768,300.52,253.74,299.161Z" transform="translate(-252.9 -296.375)" fill="#453248"/>
          </g>
          <g id="Grupo_54921" data-name="Grupo 54921" transform="translate(21.782 42.046)">
            <path id="Trazado_100260" data-name="Trazado 100260" d="M256.254,296.459c-.574-.394-1.287-.8-1.357-1.491a1.27,1.27,0,0,1,.6-1.131,2.363,2.363,0,0,1,1.285-.336,4.846,4.846,0,0,1,3.771,1.9c.765.975,2.539,5.943.085,5.777C258.814,301.051,257.662,297.421,256.254,296.459Z" transform="translate(-254.893 -293.501)" fill="#453248"/>
          </g>
        </g>
        <g id="Grupo_54931" data-name="Grupo 54931" transform="translate(7.626 194.063)">
          <g id="Grupo_54923" data-name="Grupo 54923">
            <path id="Trazado_100261" data-name="Trazado 100261" d="M234.586,307.876,237.3,292.1a230.15,230.15,0,0,1-27.971-6.48c.485.086.97.175,1.458.263,2.851.519,5.8,1.055,8.825,1.444,10.881,1.4,23.8,2.493,37.123.012L253.8,271.606c-11.147,2.073-22.51,1.088-32.156-.152-2.615-.336-5.23-.812-8-1.317a95.512,95.512,0,0,0-16.934-2.017l-.515,0c-3.952-.039-12.18-.119-16,6.605a11.891,11.891,0,0,0-.445,11.239c3.1,6.56,11.891,11.426,29.384,16.274C220.327,305.335,231.445,307.337,234.586,307.876Z" transform="translate(-178.553 -268.109)" fill="#485685"/>
          </g>
          <g id="Grupo_54927" data-name="Grupo 54927" transform="translate(47.309 17.266)">
            <g id="Grupo_54924" data-name="Grupo 54924">
              <path id="Trazado_100262" data-name="Trazado 100262" d="M253.69,315.507c8.217-6.027-17.684-33.967-21.271-32.654s-14.787,3.02-13.487,4.633c1.872,2.324,6.864,10.543,1.582,16.459-.216.242-.273.9,1.269.888a28.073,28.073,0,0,1,17.852,6.449C243.987,314.817,249.861,318.316,253.69,315.507Z" transform="translate(-218.827 -282.808)" fill="#fddc57"/>
            </g>
            <g id="Grupo_54926" data-name="Grupo 54926" transform="translate(7.873)">
              <g id="Grupo_54925" data-name="Grupo 54925">
                <path id="Trazado_100263" data-name="Trazado 100263" d="M229.249,286.121a11.78,11.78,0,0,1,2.937,2.314c7.282,7.121,9.467,8.27,14.4,17.18a12.936,12.936,0,0,1,1.713,4.46,5.233,5.233,0,0,1-1.307,4.445,3.437,3.437,0,0,1-1.048.686c2.589,1.178,4.928,1.508,6.574.3,8.217-6.027-17.684-33.967-21.271-32.654-.842.309-3.838.144-5.718,1.58C226.3,284.38,228.546,285.778,229.249,286.121Z" transform="translate(-225.529 -282.808)" fill="#453248"/>
              </g>
            </g>
          </g>
          <g id="Grupo_54928" data-name="Grupo 54928" transform="translate(62.032 37.415)">
            <path id="Trazado_100264" data-name="Trazado 100264" d="M235.616,302.6c.294-.631.7-1.343.406-1.973a1.271,1.271,0,0,0-1.094-.667,2.377,2.377,0,0,0-1.277.366,4.848,4.848,0,0,0-2.275,3.555c-.16,1.229.848,6.407,2.874,5.012C235.757,307.859,234.9,304.149,235.616,302.6Z" transform="translate(-231.36 -299.96)" fill="#453248"/>
          </g>
          <g id="Grupo_54929" data-name="Grupo 54929" transform="translate(57.838 36.121)">
            <path id="Trazado_100265" data-name="Trazado 100265" d="M232.046,301.5c.294-.632.7-1.344.406-1.975a1.269,1.269,0,0,0-1.094-.667,2.357,2.357,0,0,0-1.276.368,4.842,4.842,0,0,0-2.277,3.553c-.16,1.229.848,6.407,2.874,5.012C232.187,306.757,231.327,303.047,232.046,301.5Z" transform="translate(-227.79 -298.858)" fill="#453248"/>
          </g>
          <g id="Grupo_54930" data-name="Grupo 54930" transform="translate(53.664 33.387)">
            <path id="Trazado_100266" data-name="Trazado 100266" d="M229.193,299.378c.479-.506,1.091-1.051,1.013-1.743a1.268,1.268,0,0,0-.825-.98,2.37,2.37,0,0,0-1.327-.058,4.846,4.846,0,0,0-3.287,2.647c-.543,1.115-1.231,6.343,1.132,5.666C227.658,304.406,228.02,300.615,229.193,299.378Z" transform="translate(-224.237 -296.531)" fill="#453248"/>
          </g>
        </g>
        <g id="Grupo_54932" data-name="Grupo 54932" transform="translate(49.802 107.716)">
          <path id="Trazado_100267" data-name="Trazado 100267" d="M215.07,284.158c1.857-16.82-1.945-61.969-.087-78.789,7.377-7.081,18.516-11.1,28.735-10.744a38.857,38.857,0,0,1,27.1,12.563c-.543,18.666-2.9,62.611-3.447,81.277C262.825,295.729,215.464,289.409,215.07,284.158Z" transform="translate(-214.457 -194.604)" fill="#fffffd"/>
        </g>
        <g id="Grupo_54945" data-name="Grupo 54945" transform="translate(31.877 12.89)">
          <g id="Grupo_54933" data-name="Grupo 54933" transform="translate(33.478 97.175)">
            <path id="Trazado_100268" data-name="Trazado 100268" d="M248.218,200.861c-.117-2.609-10.474-4.258-10.474-4.258s-10.163,2.578-10.046,5.186,4.807,4.514,10.474,4.258S248.336,203.469,248.218,200.861Z" transform="translate(-227.697 -196.603)" fill="#fabb8f"/>
          </g>
          <g id="Grupo_54934" data-name="Grupo 54934" transform="translate(36.587 77.838)">
            <path id="Trazado_100269" data-name="Trazado 100269" d="M237.259,206.855l-.1,0A5.237,5.237,0,0,1,231.725,202l-1.381-21.771,8.051-.088c4.565-.051,3.108,7.652,3.275,10.889L242.2,201.4A5.147,5.147,0,0,1,237.259,206.855Z" transform="translate(-230.344 -180.142)" fill="#fabb8f"/>
          </g>
          <g id="Grupo_54935" data-name="Grupo 54935" transform="translate(0 41.065)">
            <path id="Trazado_100270" data-name="Trazado 100270" d="M210.446,152.314a5.777,5.777,0,0,0-6.7-3.3,6.433,6.433,0,0,0-4.552,6.093,7.269,7.269,0,0,0,4.295,6.43,8.369,8.369,0,0,0,7.812-.718" transform="translate(-199.198 -148.838)" fill="#fabb8f"/>
          </g>
          <g id="Grupo_54936" data-name="Grupo 54936" transform="translate(6.581)">
            <path id="Trazado_100271" data-name="Trazado 100271" d="M287.709,166.383c-.914,10.608-4.869,21.364-12.891,28.365-8.573,7.482-20.639,9.736-32.006,9.19-9.568-.459-19.55-2.973-26.351-9.718-10.783-10.694-10.3-27.965-9.067-43.1.688-8.49-2.11-17.761,6.645-24.307,7.139-5.338,14.347-10.569,23.139-12.034,8.726-1.453,17.865-1.3,26.2,1.66C285.121,124.164,289.5,145.654,287.709,166.383Z" transform="translate(-204.456 -113.88)" fill="#fba278"/>
            <path id="Trazado_100272" data-name="Trazado 100272" d="M213.085,141.139a62.062,62.062,0,0,0-4.3,28.72,63.7,63.7,0,0,1-3.75-27.6" transform="translate(-204.8 -109.118)" fill="#641f22"/>
          </g>
          <g id="Grupo_54937" data-name="Grupo 54937" transform="translate(17.818 22.518)">
            <path id="Trazado_100273" data-name="Trazado 100273" d="M274.994,179.315a47.322,47.322,0,0,0,5.966-15.383,51.753,51.753,0,0,0,.727-16.419c-.145-1.226-3.329-15.038-4-14.446-14.923,13.127-27.737,10.808-42.236,14.09-6.778,1.533-14.344,3.208-18.227,8.971-7.675,11.391,1.428,28.68,11.815,34.907a34.062,34.062,0,0,0,34.29-.018A35.067,35.067,0,0,0,274.994,179.315Z" transform="translate(-214.366 -133.049)" fill="#fabb8f"/>
          </g>
          <g id="Grupo_54939" data-name="Grupo 54939" transform="translate(76.406 51.242)">
            <g id="Grupo_54938" data-name="Grupo 54938">
              <path id="Trazado_100274" data-name="Trazado 100274" d="M268.462,157.5a3.7,3.7,0,0,0-2.039.641,4.32,4.32,0,0,0-.692,6.986,3,3,0,0,0,.967.566C272.446,167.742,273.6,157.6,268.462,157.5Z" transform="translate(-264.242 -157.502)" fill="#453248"/>
            </g>
          </g>
          <g id="Grupo_54941" data-name="Grupo 54941" transform="translate(32.413 49.611)">
            <g id="Grupo_54940" data-name="Grupo 54940">
              <path id="Trazado_100275" data-name="Trazado 100275" d="M231.012,156.113a3.69,3.69,0,0,0-2.04.641,4.32,4.32,0,0,0-.69,6.987,3.022,3.022,0,0,0,.964.565C235,166.352,236.153,156.209,231.012,156.113Z" transform="translate(-226.791 -156.113)" fill="#453248"/>
            </g>
          </g>
          <g id="Grupo_54942" data-name="Grupo 54942" transform="translate(41.098 65.142)">
            <path id="Trazado_100276" data-name="Trazado 100276" d="M237.428,172.95c2.374-1.7,5.334-2.325,8.2-2.905,4.326-.875,9.493-1.509,12.54,1.683,2.918,3.057,2.107,8.4-.812,11.451s-7.3,4.236-11.506,4.634a13.625,13.625,0,0,1-7.305-.872C233.181,184.31,232.716,176.334,237.428,172.95Z" transform="translate(-234.184 -169.334)" fill="#fabb8f"/>
          </g>
          <g id="Grupo_54943" data-name="Grupo 54943" transform="translate(53.649 49.974)">
            <path id="Trazado_100277" data-name="Trazado 100277" d="M247.7,171.43a3.313,3.313,0,1,0-1.5-6.388l-.194-8.064a.568.568,0,0,0-.581-.556.582.582,0,0,0-.556.583l.216,9a.569.569,0,0,0,.927.429,2.186,2.186,0,0,1,3.222,2.867,2.3,2.3,0,0,1-2.7.849.569.569,0,0,0-.44,1.049A3.252,3.252,0,0,0,247.7,171.43Z" transform="translate(-244.869 -156.422)" fill="#453248"/>
          </g>
          <g id="Grupo_54944" data-name="Grupo 54944" transform="translate(47.642 71.296)">
            <path id="Trazado_100278" data-name="Trazado 100278" d="M245.249,183.793a4.017,4.017,0,0,0,3.592-3.973.57.57,0,0,0-.6-.539.558.558,0,0,0-.539.6,2.872,2.872,0,0,1-2.655,2.789,3.923,3.923,0,0,1-3.609-2.2,5.765,5.765,0,0,1-.359-3.974c4.947,1.956,8.911,1.654,12.106-.913a.569.569,0,1,0-.713-.888c-3,2.416-6.672,2.578-11.543.51a.569.569,0,0,0-.762.343,7.1,7.1,0,0,0,.258,5.442,5.087,5.087,0,0,0,4.708,2.811C245.174,183.8,245.212,183.8,245.249,183.793Z" transform="translate(-239.755 -174.573)" fill="#453248"/>
          </g>
        </g>
        <g id="Grupo_54946" data-name="Grupo 54946" transform="translate(112.41 45.145)">
          <path id="Trazado_100279" data-name="Trazado 100279" d="M275.236,141.533a10.08,10.08,0,0,1,5.949,3.927,3.741,3.741,0,0,1,.814,1.864,1.663,1.663,0,0,1-.927,1.686c-.814.314-1.669-.257-2.413-.714a10.9,10.9,0,0,0-5.876-1.6c-1.955.036-6.119.288-4.761-2.854C269.108,141.327,273,141.054,275.236,141.533Z" transform="translate(-267.755 -141.338)" fill="#641f22"/>
        </g>
        <g id="Grupo_54947" data-name="Grupo 54947" transform="translate(61.36 43.346)">
          <path id="Trazado_100280" data-name="Trazado 100280" d="M232.721,139.871a10.074,10.074,0,0,0-6.9,1.791,3.729,3.729,0,0,0-1.373,1.5,1.661,1.661,0,0,0,.331,1.895c.668.56,1.662.3,2.514.106a10.892,10.892,0,0,1,6.078.388c1.837.667,5.7,2.252,5.428-1.161C238.585,141.659,234.993,140.141,232.721,139.871Z" transform="translate(-224.296 -139.806)" fill="#641f22"/>
        </g>
        <g id="Grupo_54948" data-name="Grupo 54948" transform="translate(29.424 50.674)">
          <path id="Trazado_100281" data-name="Trazado 100281" d="M303.961,154.693a1.369,1.369,0,0,0-1.918-.273l-.168.127a24.889,24.889,0,0,0-5.179,4.688c-.006-.032-.009-.066-.016-.1-1.184-5.861-5.355-9.946-11.445-11.209a17.765,17.765,0,0,0-16.476,5.361,16.9,16.9,0,0,0-3.543,6.2,14.781,14.781,0,0,0-16.1-.561c-.052-.444-.12-.886-.209-1.325-1.184-5.861-5.355-9.946-11.445-11.209a17.753,17.753,0,0,0-16.475,5.36,16.989,16.989,0,0,0-3.786,7l-9.361-4.5a19.581,19.581,0,0,0-4.631-1.75,7.468,7.468,0,0,0-5.461.816,1.37,1.37,0,1,0,1.461,2.318,4.91,4.91,0,0,1,3.467-.448,17.275,17.275,0,0,1,3.975,1.532L216.7,161.55a15.95,15.95,0,0,0,.9,7.229,14.717,14.717,0,0,0,9.546,9.015,15.861,15.861,0,0,0,3.586.678,16.866,16.866,0,0,0,10.733-2.934,18.057,18.057,0,0,0,7.706-13.347,12.127,12.127,0,0,1,15.374.223,16.071,16.071,0,0,0,.826,7.9,14.721,14.721,0,0,0,9.546,9.016,15.935,15.935,0,0,0,3.586.677,16.864,16.864,0,0,0,10.733-2.934,18.056,18.056,0,0,0,7.7-13.2,1.35,1.35,0,0,0,.383-.451c1.593-3.209,3.233-4.442,6.208-6.679l.168-.126A1.369,1.369,0,0,0,303.961,154.693ZM239.909,173.28a13.927,13.927,0,0,1-11.948,1.9,12.035,12.035,0,0,1-7.8-7.372,14.18,14.18,0,0,1,2.856-14.211,15.022,15.022,0,0,1,12.055-4.774,14.039,14.039,0,0,1,1.835.255,11.36,11.36,0,0,1,9.316,9.069A15.064,15.064,0,0,1,239.909,173.28Zm47.771,1.535a13.935,13.935,0,0,1-11.948,1.9,12.033,12.033,0,0,1-7.8-7.371,14.182,14.182,0,0,1,2.856-14.213,15.023,15.023,0,0,1,12.056-4.774,14.093,14.093,0,0,1,1.835.255,11.36,11.36,0,0,1,9.315,9.07A15.063,15.063,0,0,1,287.68,174.816Z" transform="translate(-197.109 -146.044)" fill="#c4462f"/>
        </g>
        <g id="Grupo_54950" data-name="Grupo 54950" transform="translate(71.535 115.851)">
          <path id="Trazado_100282" data-name="Trazado 100282" d="M281.169,300.535l19.379-84.678-67.59-3.9,1.275,83.538Z" transform="translate(-232.958 -199.707)" fill="#6f6389"/>
          <path id="Trazado_100283" data-name="Trazado 100283" d="M300.548,215.963l-4.533-1.483-59.848-3.13-3.209.712Z" transform="translate(-232.958 -199.813)" fill="#504768"/>
          <g id="Grupo_54949" data-name="Grupo 54949" transform="translate(13.478)">
            <path id="Trazado_100284" data-name="Trazado 100284" d="M245.742,212.34s7.061-1.544,9.309-2.916l.634-.592c.1-.237-.009-.46-.431-.659-2.979-1.394-4.481-7.083,8.354-6.617,13.608-.224,11.894,5.59,8.814,6.9s9.361,4.5,9.361,4.5l.537,8.2L244.677,219.1Z" transform="translate(-244.388 -201.529)" fill="#d2cfe2"/>
            <path id="Trazado_100285" data-name="Trazado 100285" d="M245.5,213.535s7.062-1.542,9.309-2.914l.635-.592c.1-.238-.009-.462-.432-.659-2.978-1.394-4.48-7.083,8.354-6.618,13.609-.224,11.894,5.592,8.815,6.9s9.36,4.5,9.36,4.5l.827,6.8-37.933-.65Z" transform="translate(-244.431 -201.32)" fill="#a69fbf"/>
          </g>
        </g>
        <path id="Trazado_100286" data-name="Trazado 100286" d="M291.472,252.942a9.891,9.891,0,0,0,1.965-14.721,2.172,2.172,0,0,0-.363-.661,14.055,14.055,0,0,0-8.09-5.288,6.171,6.171,0,0,0-2.582-.136,2.951,2.951,0,0,0-2.069,1.437,2.819,2.819,0,0,0-.039,2.943,9.935,9.935,0,0,0,11.177,16.428Z" transform="translate(-153.908 -80.346)" fill="#fba278"/>
        <g id="Grupo_54955" data-name="Grupo 54955" transform="translate(0 117.201)">
          <g id="Grupo_54953" data-name="Grupo 54953" transform="translate(0 1.418)">
            <g id="Grupo_54952" data-name="Grupo 54952">
              <g id="Grupo_54951" data-name="Grupo 54951">
                <path id="Trazado_100287" data-name="Trazado 100287" d="M208.672,237.891c-2.523,7-15.452,21.422-20.413,21.913-7.973.787-7.445-25.371-8.529-33.962" transform="translate(-170.722 -200.049)" fill="none" stroke="#fba278" stroke-miterlimit="10" stroke-width="10"/>
                <path id="Trazado_100288" data-name="Trazado 100288" d="M218.062,203.885l10.509,18.876c-4.532,6.8-18.782,25.622-19.128,26.815,0,0-8.363-3.47-12.939-7.17Z" transform="translate(-167.791 -203.885)" fill="#fffffd"/>
                <path id="Trazado_100289" data-name="Trazado 100289" d="M175.57,223.013a9.007,9.007,0,1,0,12.633,1.633A9.006,9.006,0,0,0,175.57,223.013Z" transform="translate(-172.061 -200.871)" fill="#fba278"/>
                <path id="Trazado_100290" data-name="Trazado 100290" d="M188.765,224.009a2.68,2.68,0,0,1,1.419,1.789,5.612,5.612,0,0,1,.025,2.345,12.742,12.742,0,0,1-4.321,7.621,1.421,1.421,0,0,1-.866.424C183.159,236.191,182.835,221.415,188.765,224.009Z" transform="translate(-170.006 -200.423)" fill="#fba278"/>
              </g>
            </g>
          </g>
          <g id="Grupo_54954" data-name="Grupo 54954" transform="translate(0.806)">
            <path id="Trazado_100291" data-name="Trazado 100291" d="M172.747,205.322A7.629,7.629,0,0,1,175.8,203.1a6.339,6.339,0,0,1,3.981-.18l15.11,39.948-1.4,11.619-8.222-8.327Z" transform="translate(-172.747 -202.678)" fill="#453248"/>
            <path id="Trazado_100292" data-name="Trazado 100292" d="M193.027,236.889l-1.059,8.786-1.453-.417-.893,1.22-6.218-6.3,4.414.213,2.156-2.46,2.064.293Z" transform="translate(-170.885 -196.702)" fill="#fabb8f"/>
            <path id="Trazado_100293" data-name="Trazado 100293" d="M175.422,202.976" transform="translate(-172.28 -202.626)" fill="#fabb8f"/>
          </g>
          <path id="Trazado_100294" data-name="Trazado 100294" d="M183.046,226.191a6.191,6.191,0,0,1,2.56,3.546,3.388,3.388,0,0,1-1.688,3.773,4.853,4.853,0,0,1-3.9-.484c-1.867-.868-7.052-3.145-5.693-5.915C176,223.695,180.509,224.329,183.046,226.191Z" transform="translate(-171.705 -198.836)" fill="#fba278"/>
        </g>
        <path id="Trazado_100295" data-name="Trazado 100295" d="M213.072,120.074c27.833-21.627,68.958-14.224,89.471,13.737,3.894,5.307,6.51,11.729,6.422,18.311-7.724-8.855-20.583-9.595-31.505-9.716a391.5,391.5,0,0,0-41.124,1.246c-9.362.887-17.383,4.267-26.138,7.408-1.69.607-3.584,1.144-5.24.45-2.728-1.145-1.346-4.691-1.41-6.838C203.261,134.973,205.056,126.3,213.072,120.074Z" transform="translate(-166.612 -102.102)" fill="#31326f"/>
      </g>
      <g id="Grupo_54963" data-name="Grupo 54963" transform="translate(34 61.47)">
        <g id="Grupo_54958" data-name="Grupo 54958" transform="translate(0 9.265)">
          <path id="Trazado_100296" data-name="Trazado 100296" d="M37.627,103.03l5.44-6.676L69.1,97.7l5.4-24.655,10.19-3.055L81.27,105.678l-15.1,10.711Z" transform="translate(-33.366 -65.546)" fill="#fff"/>
          <g id="Grupo_54957" data-name="Grupo 54957">
            <path id="Trazado_100297" data-name="Trazado 100297" d="M109.144,97.245l-11.808,29.13s2.8.822,2.973,1.946.849,2.516-4.546,6.345-6.485,2.731-7.49,2.2-.855-3.449-.855-3.449l-31.4,1.524,2.282-1.62,30.473-1.571s-.665,4.45,1.282,4a18.909,18.909,0,0,0,4.785-2.381s4.491-3.343,3.584-4.181a10.734,10.734,0,0,0-3.255-1.512l11.485-28.4Z" transform="translate(-30.153 -60.785)" fill="#26769e"/>
            <path id="Trazado_100298" data-name="Trazado 100298" d="M65.4,97l25.869,36.46-31.4,1.524L34,98.52Z" transform="translate(-34 -60.828)" fill="#3689bb"/>
            <path id="Trazado_100299" data-name="Trazado 100299" d="M80.978,66.207l25.869,36.46L95.039,131.8,69.17,95.338Z" transform="translate(-27.856 -66.207)" fill="#3689bb"/>
            <path id="Trazado_100300" data-name="Trazado 100300" d="M61.455,101.2l25.869,36.46s8.089.408,12.036-8.54L73.49,92.662S71.131,99.64,61.455,101.2Z" transform="translate(-29.204 -61.585)" fill="#26769e"/>
            <path id="Trazado_100301" data-name="Trazado 100301" d="M87.122,66.207,75.314,95.338s2.8.821,2.972,1.945.85,2.517-4.545,6.346-6.485,2.73-7.49,2.194-.855-3.449-.855-3.449L34,103.9l2.282-1.62,30.473-1.571s-.665,4.45,1.282,4a18.879,18.879,0,0,0,4.785-2.38s4.491-3.343,3.584-4.182a10.723,10.723,0,0,0-3.256-1.511l11.485-28.4Z" transform="translate(-34 -66.207)" fill="#54aad6"/>
          </g>
        </g>
        <g id="Grupo_54960" data-name="Grupo 54960" transform="translate(323.695 390.296)">
          <path id="Trazado_100302" data-name="Trazado 100302" d="M377.629,446.41l-1.5-8.481L352.747,426.42l7.3-24.16-7.409-7.634L338.23,427.452l7.962,16.71Z" transform="translate(-304.548 -389.866)" fill="#fff"/>
          <g id="Grupo_54959" data-name="Grupo 54959">
            <path id="Trazado_100303" data-name="Trazado 100303" d="M317.883,406.943,314,438.135s-2.845-.646-3.545.25-1.969,1.784.878,7.757,4.332,5.545,5.471,5.566,2.427-2.594,2.427-2.594L345.9,465.745l-1.2-2.527L318.852,447s-1.587,4.209-3.071,2.872a18.892,18.892,0,0,1-3.017-4.411s-2.293-5.108-1.092-5.4a10.739,10.739,0,0,1,3.579.267l3.812-30.394Z" transform="translate(-309.557 -387.714)" fill="#26769e"/>
            <path id="Trazado_100304" data-name="Trazado 100304" d="M358.148,426.472,317.789,445.7l26.672,16.632L384.82,443.1Z" transform="translate(-308.119 -384.302)" fill="#3689bb"/>
            <path id="Trazado_100305" data-name="Trazado 100305" d="M357.581,390.574,317.223,409.8l-3.886,31.192,40.358-19.229Z" transform="translate(-308.897 -390.574)" fill="#3689bb"/>
            <path id="Trazado_100306" data-name="Trazado 100306" d="M357.037,430.662l-40.358,19.229s-7.262-3.585-6.348-13.322L350.69,417.34S349.348,424.582,357.037,430.662Z" transform="translate(-309.436 -385.898)" fill="#26769e"/>
            <path id="Trazado_100307" data-name="Trazado 100307" d="M352.239,390.574l-3.886,31.192s-2.845-.647-3.544.25-1.969,1.783.876,7.755,4.333,5.546,5.471,5.567,2.428-2.595,2.428-2.595l26.671,16.633-1.2-2.527-25.843-16.223s-1.588,4.209-3.071,2.871a18.91,18.91,0,0,1-3.018-4.41s-2.293-5.108-1.092-5.4a10.748,10.748,0,0,1,3.58.267l3.811-30.394Z" transform="translate(-303.555 -390.574)" fill="#54aad6"/>
          </g>
        </g>
        <g id="Grupo_54962" data-name="Grupo 54962" transform="translate(331.7)">
          <path id="Trazado_100308" data-name="Trazado 100308" d="M356.874,70l-4.262-2.732L338.32,72.8l-7.535-12.782-6.252.161,8.449,19.306,10.4,3.216Z" transform="translate(-314.945 -58.024)" fill="#fff"/>
          <g id="Grupo_54961" data-name="Grupo 54961">
            <path id="Trazado_100309" data-name="Trazado 100309" d="M316.371,79.693,328.306,93.8s-1.412.971-1.3,1.632-.013,1.561,3.7,2.71,4.123.337,4.586-.147-.155-2.083-.155-2.083l17.815-4.9-1.572-.486-17.308,4.708s1.186,2.362.018,2.472a11.106,11.106,0,0,1-3.108-.453s-3.121-1.044-2.769-1.679a6.3,6.3,0,0,1,1.541-1.44l-11.62-13.757Z" transform="translate(-316.371 -54.586)" fill="#26769e"/>
            <path id="Trazado_100310" data-name="Trazado 100310" d="M340.112,72.857l-7.767,25.106,17.816-4.9,7.766-25.106Z" transform="translate(-313.58 -56.637)" fill="#3689bb"/>
            <path id="Trazado_100311" data-name="Trazado 100311" d="M324.138,58.32l-7.767,25.106,11.935,14.107,7.766-25.106Z" transform="translate(-316.371 -58.32)" fill="#3689bb"/>
            <path id="Trazado_100312" data-name="Trazado 100312" d="M341.476,74.282,333.71,99.388a7.741,7.741,0,0,1-8.289-2.563l7.767-25.107S335.784,75.183,341.476,74.282Z" transform="translate(-314.79 -55.979)" fill="#26769e"/>
            <path id="Trazado_100313" data-name="Trazado 100313" d="M322.983,58.32l11.935,14.107s-1.413.971-1.3,1.632-.013,1.561,3.7,2.711,4.123.336,4.586-.147-.154-2.084-.154-2.084l17.815-4.9-1.572-.486-17.309,4.708s1.186,2.363.019,2.472a11.132,11.132,0,0,1-3.109-.452s-3.121-1.044-2.769-1.679a6.333,6.333,0,0,1,1.542-1.441L324.745,59Z" transform="translate(-315.216 -58.32)" fill="#54aad6"/>
          </g>
        </g>
      </g>
      <g id="Grupo_55039" data-name="Grupo 55039" transform="translate(77.008 78.983)">
        <g id="Grupo_54978" data-name="Grupo 54978" transform="translate(36.654 138.509)">
          <g id="Grupo_54965" data-name="Grupo 54965">
            <g id="Grupo_54964" data-name="Grupo 54964">
              <path id="Trazado_100314" data-name="Trazado 100314" d="M137.177,277.352a35.365,35.365,0,0,1-8.1-69.787V191.14H145.28v16.425a35.364,35.364,0,0,1-8.1,69.787Zm-5.893-84v16l-.881.183a33.151,33.151,0,1,0,13.549,0l-.881-.183v-16Z" transform="translate(-101.815 -191.14)" fill="#fff"/>
            </g>
          </g>
          <g id="Grupo_54967" data-name="Grupo 54967" transform="translate(6.631 49.262)">
            <g id="Grupo_54966" data-name="Grupo 54966">
              <path id="Trazado_100315" data-name="Trazado 100315" d="M107.529,233.076c-.029.529-.069,1.055-.069,1.589a28.731,28.731,0,0,0,57.463,0c0-.534-.041-1.061-.07-1.589Z" transform="translate(-107.46 -233.076)" fill="#ff950b"/>
            </g>
          </g>
          <g id="Grupo_54969" data-name="Grupo 54969" transform="translate(6.7 41.076)">
            <g id="Grupo_54968" data-name="Grupo 54968">
              <path id="Trazado_100316" data-name="Trazado 100316" d="M107.519,234.293s27.785,20.628,57.323,0C164.842,234.293,136.321,215.875,107.519,234.293Z" transform="translate(-107.519 -226.108)" fill="#ffaf50"/>
            </g>
          </g>
          <g id="Grupo_54971" data-name="Grupo 54971" transform="translate(20.443 63.258)">
            <g id="Grupo_54970" data-name="Grupo 54970">
              <path id="Trazado_100317" data-name="Trazado 100317" d="M122.165,246.465a1.474,1.474,0,1,1-1.473-1.474A1.474,1.474,0,0,1,122.165,246.465Z" transform="translate(-119.218 -244.991)" fill="#ffaf50"/>
            </g>
          </g>
          <g id="Grupo_54973" data-name="Grupo 54973" transform="translate(27.442 69.521)">
            <g id="Grupo_54972" data-name="Grupo 54972">
              <path id="Trazado_100318" data-name="Trazado 100318" d="M129.132,252.3a1.978,1.978,0,1,1-1.978-1.978A1.978,1.978,0,0,1,129.132,252.3Z" transform="translate(-125.176 -250.322)" fill="#ffaf50"/>
            </g>
          </g>
          <g id="Grupo_54975" data-name="Grupo 54975" transform="translate(31.398 63.259)">
            <g id="Grupo_54974" data-name="Grupo 54974">
              <circle id="Elipse_1230" data-name="Elipse 1230" cx="1.473" cy="1.473" r="1.473" fill="#ffaf50"/>
            </g>
          </g>
          <g id="Grupo_54977" data-name="Grupo 54977" transform="translate(55.253 56.813)">
            <g id="Grupo_54976" data-name="Grupo 54976">
              <circle id="Elipse_1231" data-name="Elipse 1231" cx="2.394" cy="2.394" r="2.394" fill="#ffaf50"/>
            </g>
          </g>
        </g>
        <g id="Grupo_54993" data-name="Grupo 54993" transform="translate(0 187.373)">
          <g id="Grupo_54980" data-name="Grupo 54980">
            <g id="Grupo_54979" data-name="Grupo 54979">
              <path id="Trazado_100319" data-name="Trazado 100319" d="M111.548,310.534q-.456,0-.914-.012A35.134,35.134,0,0,1,85.9,299.538a35.492,35.492,0,0,1-3.968-43.732L70.612,243.9l11.746-11.168,11.317,11.9A35.491,35.491,0,0,1,137.15,250.8a35.362,35.362,0,0,1-25.6,59.729Zm-37.811-66.55,11.026,11.6-.512.739a33.152,33.152,0,1,0,9.818-9.335l-.764.475-11.026-11.6Z" transform="translate(-70.612 -232.737)" fill="#fff"/>
            </g>
          </g>
          <g id="Grupo_54982" data-name="Grupo 54982" transform="translate(12.494 39.156)">
            <g id="Grupo_54981" data-name="Grupo 54981">
              <path id="Trazado_100320" data-name="Trazado 100320" d="M81.317,266.07c-.029.53-.069,1.056-.069,1.591a28.731,28.731,0,0,0,57.461,0c0-.535-.04-1.061-.069-1.591Z" transform="translate(-81.248 -266.07)" fill="#e84564"/>
            </g>
          </g>
          <g id="Grupo_54984" data-name="Grupo 54984" transform="translate(12.563 30.971)">
            <g id="Grupo_54983" data-name="Grupo 54983">
              <path id="Trazado_100321" data-name="Trazado 100321" d="M81.307,267.287s27.785,20.628,57.323,0C138.63,267.287,110.109,248.87,81.307,267.287Z" transform="translate(-81.307 -259.102)" fill="#ff7697"/>
            </g>
          </g>
          <g id="Grupo_54986" data-name="Grupo 54986" transform="translate(26.306 53.154)">
            <g id="Grupo_54985" data-name="Grupo 54985">
              <path id="Trazado_100322" data-name="Trazado 100322" d="M95.953,279.459a1.474,1.474,0,1,1-1.473-1.473A1.474,1.474,0,0,1,95.953,279.459Z" transform="translate(-93.006 -277.986)" fill="#ff7697"/>
            </g>
          </g>
          <g id="Grupo_54988" data-name="Grupo 54988" transform="translate(33.305 59.416)">
            <g id="Grupo_54987" data-name="Grupo 54987">
              <path id="Trazado_100323" data-name="Trazado 100323" d="M102.919,285.3a1.978,1.978,0,1,1-1.977-1.978A1.977,1.977,0,0,1,102.919,285.3Z" transform="translate(-98.964 -283.317)" fill="#ff7697"/>
            </g>
          </g>
          <g id="Grupo_54990" data-name="Grupo 54990" transform="translate(37.261 53.154)">
            <g id="Grupo_54989" data-name="Grupo 54989">
              <circle id="Elipse_1232" data-name="Elipse 1232" cx="1.473" cy="1.473" r="1.473" fill="#ff7697"/>
            </g>
          </g>
          <g id="Grupo_54992" data-name="Grupo 54992" transform="translate(61.115 46.708)">
            <g id="Grupo_54991" data-name="Grupo 54991">
              <circle id="Elipse_1233" data-name="Elipse 1233" cx="2.394" cy="2.394" r="2.394" fill="#ff7697"/>
            </g>
          </g>
        </g>
        <g id="Grupo_55008" data-name="Grupo 55008" transform="translate(264.238 95.842)">
          <g id="Grupo_54995" data-name="Grupo 54995">
            <g id="Grupo_54994" data-name="Grupo 54994">
              <path id="Trazado_100324" data-name="Trazado 100324" d="M330.916,241.03a35.365,35.365,0,0,1-8.1-69.787V154.818h16.207v16.425a35.365,35.365,0,0,1-8.1,69.787Zm-5.895-84v16l-.881.183a33.152,33.152,0,1,0,13.549,0l-.88-.183v-16Z" transform="translate(-295.554 -154.818)" fill="#fff"/>
            </g>
          </g>
          <g id="Grupo_54997" data-name="Grupo 54997" transform="translate(6.63 49.262)">
            <g id="Grupo_54996" data-name="Grupo 54996">
              <path id="Trazado_100325" data-name="Trazado 100325" d="M358.59,196.754c.029.529.07,1.055.07,1.589a28.731,28.731,0,0,1-57.463,0c0-.535.04-1.061.069-1.589Z" transform="translate(-301.198 -196.754)" fill="#ff950b"/>
            </g>
          </g>
          <g id="Grupo_54999" data-name="Grupo 54999" transform="translate(6.699 41.076)">
            <g id="Grupo_54998" data-name="Grupo 54998">
              <path id="Trazado_100326" data-name="Trazado 100326" d="M358.58,197.971s-27.785,20.628-57.323,0C301.257,197.971,329.777,179.553,358.58,197.971Z" transform="translate(-301.257 -189.786)" fill="#ffaf50"/>
            </g>
          </g>
          <g id="Grupo_55001" data-name="Grupo 55001" transform="translate(47.332 63.258)">
            <g id="Grupo_55000" data-name="Grupo 55000">
              <path id="Trazado_100327" data-name="Trazado 100327" d="M335.847,210.143a1.474,1.474,0,1,0,1.474-1.474A1.473,1.473,0,0,0,335.847,210.143Z" transform="translate(-335.847 -208.669)" fill="#ffaf50"/>
            </g>
          </g>
          <g id="Grupo_55003" data-name="Grupo 55003" transform="translate(39.325 69.521)">
            <g id="Grupo_55002" data-name="Grupo 55002">
              <path id="Trazado_100328" data-name="Trazado 100328" d="M329.031,215.978A1.978,1.978,0,1,0,331.008,214,1.977,1.977,0,0,0,329.031,215.978Z" transform="translate(-329.031 -214)" fill="#ffaf50"/>
            </g>
          </g>
          <g id="Grupo_55005" data-name="Grupo 55005" transform="translate(36.378 63.258)">
            <g id="Grupo_55004" data-name="Grupo 55004">
              <path id="Trazado_100329" data-name="Trazado 100329" d="M326.522,210.143A1.474,1.474,0,1,0,328,208.669,1.473,1.473,0,0,0,326.522,210.143Z" transform="translate(-326.522 -208.669)" fill="#ffaf50"/>
            </g>
          </g>
          <g id="Grupo_55007" data-name="Grupo 55007" transform="translate(10.682 56.813)">
            <g id="Grupo_55006" data-name="Grupo 55006">
              <circle id="Elipse_1234" data-name="Elipse 1234" cx="2.394" cy="2.394" r="2.394" fill="#ffaf50"/>
            </g>
          </g>
        </g>
        <g id="Grupo_55023" data-name="Grupo 55023" transform="translate(355.486)">
          <g id="Grupo_55010" data-name="Grupo 55010" transform="translate(0)">
            <g id="Grupo_55009" data-name="Grupo 55009">
              <path id="Trazado_100330" data-name="Trazado 100330" d="M375.987,113.765a21.936,21.936,0,0,1,4.341-26.79l-4.947-8.864,8.747-4.882,4.947,8.864a21.857,21.857,0,1,1-13.087,31.672Zm1.252-35.127,4.82,8.635-.421.364a20.489,20.489,0,1,0,7.312-4.081l-.531.167-4.82-8.636Z" transform="translate(-373.232 -73.229)" fill="#fff"/>
            </g>
          </g>
          <g id="Grupo_55012" data-name="Grupo 55012" transform="translate(5.892 20.394)">
            <g id="Grupo_55011" data-name="Grupo 55011">
              <path id="Trazado_100331" data-name="Trazado 100331" d="M378.248,107.856c.143.295.28.591.441.879A17.757,17.757,0,1,0,409.7,91.426c-.161-.289-.342-.56-.517-.836Z" transform="translate(-378.248 -90.59)" fill="#ff950b"/>
            </g>
          </g>
          <g id="Grupo_55014" data-name="Grupo 55014" transform="translate(5.892 20.372)">
            <g id="Grupo_55013" data-name="Grupo 55013">
              <path id="Trazado_100332" data-name="Trazado 100332" d="M378.248,107.859s21.208,2.763,30.936-17.266C409.184,90.593,388.245,89.243,378.248,107.859Z" transform="translate(-378.248 -90.572)" fill="#ffaf50"/>
            </g>
          </g>
          <g id="Grupo_55016" data-name="Grupo 55016" transform="translate(17.853 40.514)">
            <g id="Grupo_55015" data-name="Grupo 55015">
              <path id="Trazado_100333" data-name="Trazado 100333" d="M390.136,108.185a.91.91,0,1,1-1.238-.351A.911.911,0,0,1,390.136,108.185Z" transform="translate(-388.43 -107.718)" fill="#ffaf50"/>
            </g>
          </g>
          <g id="Grupo_55018" data-name="Grupo 55018" transform="translate(23.629 41.595)">
            <g id="Grupo_55017" data-name="Grupo 55017">
              <path id="Trazado_100334" data-name="Trazado 100334" d="M395.636,109.265a1.222,1.222,0,1,1-1.662-.472A1.221,1.221,0,0,1,395.636,109.265Z" transform="translate(-393.347 -108.638)" fill="#ffaf50"/>
            </g>
          </g>
          <g id="Grupo_55020" data-name="Grupo 55020" transform="translate(23.765 37.215)">
            <g id="Grupo_55019" data-name="Grupo 55019">
              <path id="Trazado_100335" data-name="Trazado 100335" d="M395.169,105.376a.911.911,0,1,1-1.239-.351A.911.911,0,0,1,395.169,105.376Z" transform="translate(-393.463 -104.91)" fill="#ffaf50"/>
            </g>
          </g>
          <g id="Grupo_55022" data-name="Grupo 55022" transform="translate(34.902 26.202)">
            <g id="Grupo_55021" data-name="Grupo 55021">
              <path id="Trazado_100336" data-name="Trazado 100336" d="M405.716,96.293a1.48,1.48,0,1,1-2.013-.571A1.481,1.481,0,0,1,405.716,96.293Z" transform="translate(-402.944 -95.534)" fill="#ffaf50"/>
            </g>
          </g>
        </g>
        <g id="Grupo_55038" data-name="Grupo 55038" transform="translate(349.108 242.939)">
          <g id="Grupo_55025" data-name="Grupo 55025">
            <g id="Grupo_55024" data-name="Grupo 55024">
              <path id="Trazado_100337" data-name="Trazado 100337" d="M403.141,357.836a35.362,35.362,0,0,1-25.6-59.729,35.49,35.49,0,0,1,43.475-6.165l11.318-11.9,11.745,11.167-11.317,11.9a35.491,35.491,0,0,1-3.969,43.732,35.133,35.133,0,0,1-24.734,10.983C403.751,357.832,403.446,357.836,403.141,357.836Zm.089-68.488A33.133,33.133,0,0,0,380.322,346.5a33.149,33.149,0,0,0,46.867-1.181,33.267,33.267,0,0,0,3.249-41.7l-.511-.739,11.025-11.6-8.542-8.122-11.025,11.594-.765-.473A32.918,32.918,0,0,0,403.231,289.347Z" transform="translate(-367.802 -280.039)" fill="#fff"/>
            </g>
          </g>
          <g id="Grupo_55027" data-name="Grupo 55027" transform="translate(6.319 39.157)">
            <g id="Grupo_55026" data-name="Grupo 55026">
              <path id="Trazado_100338" data-name="Trazado 100338" d="M430.573,313.373c.029.529.07,1.055.07,1.589a28.731,28.731,0,0,1-57.463,0c0-.535.041-1.061.07-1.589Z" transform="translate(-373.181 -313.373)" fill="#e84564"/>
            </g>
          </g>
          <g id="Grupo_55029" data-name="Grupo 55029" transform="translate(6.389 30.971)">
            <g id="Grupo_55028" data-name="Grupo 55028">
              <path id="Trazado_100339" data-name="Trazado 100339" d="M430.563,314.59s-27.784,20.626-57.322,0C373.241,314.59,401.761,296.172,430.563,314.59Z" transform="translate(-373.241 -306.405)" fill="#ff7697"/>
            </g>
          </g>
          <g id="Grupo_55031" data-name="Grupo 55031" transform="translate(47.022 53.154)">
            <g id="Grupo_55030" data-name="Grupo 55030">
              <path id="Trazado_100340" data-name="Trazado 100340" d="M407.831,326.761a1.473,1.473,0,1,0,1.473-1.473A1.473,1.473,0,0,0,407.831,326.761Z" transform="translate(-407.831 -325.288)" fill="#ff7697"/>
            </g>
          </g>
          <g id="Grupo_55033" data-name="Grupo 55033" transform="translate(39.014 59.416)">
            <g id="Grupo_55032" data-name="Grupo 55032">
              <path id="Trazado_100341" data-name="Trazado 100341" d="M401.014,332.6a1.978,1.978,0,1,0,1.978-1.978A1.977,1.977,0,0,0,401.014,332.6Z" transform="translate(-401.014 -330.619)" fill="#ff7697"/>
            </g>
          </g>
          <g id="Grupo_55035" data-name="Grupo 55035" transform="translate(36.066 53.154)">
            <g id="Grupo_55034" data-name="Grupo 55034">
              <path id="Trazado_100342" data-name="Trazado 100342" d="M398.505,326.761a1.474,1.474,0,1,0,1.474-1.473A1.474,1.474,0,0,0,398.505,326.761Z" transform="translate(-398.505 -325.288)" fill="#ff7697"/>
            </g>
          </g>
          <g id="Grupo_55037" data-name="Grupo 55037" transform="translate(10.371 46.708)">
            <g id="Grupo_55036" data-name="Grupo 55036">
              <circle id="Elipse_1235" data-name="Elipse 1235" cx="2.394" cy="2.394" r="2.394" fill="#ff7697"/>
            </g>
          </g>
        </g>
      </g>
    </g>
  </g>
</svg>
