<svg xmlns="http://www.w3.org/2000/svg" xmlns:xlink="http://www.w3.org/1999/xlink" width="812" height="583" viewBox="0 0 812 583">
  <defs>
    <linearGradient id="linear-gradient" x1="0.202" y1="0.923" x2="0.63" y2="0.267" gradientUnits="objectBoundingBox">
      <stop offset="0" stop-color="#e7c13c"/>
      <stop offset="1" stop-color="#e7c13c" stop-opacity="0"/>
    </linearGradient>
  </defs>
  <g id="Grupo_55273" data-name="Grupo 55273" transform="translate(3972 99)">
    <rect id="Rectángulo_5210" data-name="Rectángulo 5210" width="812" height="583" rx="11" transform="translate(-3972 -99)" fill="#9ddfd3"/>
    <g id="Grupo_55271" data-name="Grupo 55271" transform="translate(-4037.084 -77.108)">
      <g id="Grupo_55264" data-name="Grupo 55264" transform="translate(92.295 253.058)">
        <path id="Trazado_100712" data-name="Trazado 100712" d="M267.826,292.539c46.707-23.349,84.165-65.185,101.275-114.605,3.739-10.795,3.386-27.17-7.934-28.7-5.42-.732-10.5,2.972-13.875,7.271-11.323,14.415-9.436,36.3,1.082,51.31s27.942,23.926,45.71,28.43c15.391,3.9,31.314,4.906,47.15,6.324" transform="translate(185.256 -149.141)" fill="none" stroke="#345a6e" stroke-miterlimit="10" stroke-width="1.5" stroke-dasharray="5.137"/>
        <path id="Trazado_100713" data-name="Trazado 100713" d="M184.33,354.528c-26.017,1.889-51.248-11.126-70.366-28.873-27.116-25.169-44.841-64.048-34.508-99.572,9.038-31.068,38.571-53.734,70.423-59.429s65.131,3.848,92.455,21.18c22.091,14.015,40.669,32.765,60.535,49.83" transform="translate(-76.473 -127.441)" fill="none" stroke="#345a6e" stroke-miterlimit="10" stroke-width="1.5" stroke-dasharray="5.137"/>
        <path id="Trazado_100714" data-name="Trazado 100714" d="M260.984,239.764v-16.57l-14.467-1.6a40.187,40.187,0,0,0-4.511-10.849l9.109-11.375-8.174-11.716H239.4l-11.387,9.116a40.2,40.2,0,0,0-10.833-4.485l-1.605-14.5H199l-1.605,14.5a40.219,40.219,0,0,0-10.835,4.485l-7.842-9.116h-3.545L163.46,199.368l9.107,11.375a40.182,40.182,0,0,0-4.508,10.849l-14.467,1.6v16.57l14.446,1.6a40.192,40.192,0,0,0,4.5,10.887l-9.078,11.339,11.716,11.718h3.545l7.783-9.069a40.275,40.275,0,0,0,10.9,4.522l1.6,14.415h16.57l1.6-14.415a40.227,40.227,0,0,0,10.9-4.522l11.327,9.069h3.545l8.174-11.718-9.08-11.339a40.2,40.2,0,0,0,4.5-10.887Zm-53.7,9.8a18.039,18.039,0,1,1,18.038-18.04A18.038,18.038,0,0,1,207.288,249.56Z" transform="translate(29.007 -109.964)" fill="#365e6b"/>
        <path id="Trazado_100715" data-name="Trazado 100715" d="M262.48,239.764v-16.57l-14.467-1.6a40.18,40.18,0,0,0-4.508-10.849l9.106-11.375L240.9,187.652l-11.387,9.116a40.219,40.219,0,0,0-10.835-4.485l-1.605-14.5H200.5l-1.605,14.5a40.2,40.2,0,0,0-10.833,4.485l-11.387-9.116-11.718,11.716,9.109,11.375a40.263,40.263,0,0,0-4.511,10.849l-14.467,1.6v16.57l14.448,1.6a40.119,40.119,0,0,0,4.5,10.887l-9.08,11.339,11.718,11.718L188,266.239a40.258,40.258,0,0,0,10.9,4.522l1.6,14.415h16.57l1.6-14.415a40.274,40.274,0,0,0,10.9-4.522l11.327,9.069,11.716-11.718-9.078-11.339a40.193,40.193,0,0,0,4.5-10.887Zm-53.7,9.8a18.039,18.039,0,1,1,18.038-18.04A18.039,18.039,0,0,1,208.784,249.56Z" transform="translate(31.053 -109.964)" fill="#5da1ba"/>
        <path id="Trazado_100716" data-name="Trazado 100716" d="M422.674,225.037V210.131l-13.013-1.442a36.168,36.168,0,0,0-4.056-9.76L413.8,188.7l-7.515-10.539h-3.024l-10.243,8.2a36.245,36.245,0,0,0-9.746-4.035l-1.444-13.044H366.92l-1.444,13.044a36.2,36.2,0,0,0-9.743,4.035l-7.219-8.2h-3.026L334.948,188.7l8.193,10.231a36.17,36.17,0,0,0-4.056,9.76l-13.013,1.442v14.905l12.994,1.437a36.178,36.178,0,0,0,4.049,9.793l-8.167,10.2,10.539,10.539h3.026l7.165-8.157a36.136,36.136,0,0,0,9.807,4.07l1.435,12.966h14.905l1.435-12.966a36.107,36.107,0,0,0,9.807-4.07l10.191,8.157h3.024l7.515-10.539-8.167-10.2a36.183,36.183,0,0,0,4.049-9.793Zm-48.3,8.811A16.226,16.226,0,1,1,390.6,217.621,16.226,16.226,0,0,1,374.374,233.847Z" transform="translate(264.922 -121.595)" fill="#365e6b"/>
        <path id="Trazado_100717" data-name="Trazado 100717" d="M423.953,225.037V210.131l-13.016-1.442a36.163,36.163,0,0,0-4.054-9.76l8.19-10.231-10.539-10.539-10.243,8.2a36.184,36.184,0,0,0-9.746-4.035L383.1,169.28H368.2l-1.444,13.044a36.181,36.181,0,0,0-9.746,4.035l-10.243-8.2L336.227,188.7l8.19,10.231a36.245,36.245,0,0,0-4.056,9.76l-13.013,1.442v14.905l13,1.437a36.1,36.1,0,0,0,4.049,9.793l-8.167,10.2,10.539,10.539,10.188-8.157a36.172,36.172,0,0,0,9.807,4.07l1.437,12.966h14.9l1.437-12.966a36.169,36.169,0,0,0,9.807-4.07l10.189,8.157,10.539-10.539-8.166-10.2a36.11,36.11,0,0,0,4.049-9.793Zm-48.3,8.811a16.226,16.226,0,1,1,16.227-16.226A16.226,16.226,0,0,1,375.651,233.847Z" transform="translate(266.669 -121.595)" fill="#5da1ba"/>
        <path id="Trazado_100718" data-name="Trazado 100718" d="M341.062,188.6q3.672.327,7.333.7c25.352,2.607,71.479,12.452,93.921,24.535,35.995,19.383,43.193,73.1.554,97.465" transform="translate(285.427 -95.171)" fill="none" stroke="#345a6e" stroke-miterlimit="10" stroke-width="1.5" stroke-dasharray="5.137"/>
        <path id="Trazado_100719" data-name="Trazado 100719" d="M307.4,230.392v-8.325l-7.269-.8a20.14,20.14,0,0,0-2.266-5.448l4.577-5.716-5.886-5.886h-1.608l-4.115,4.579a20.218,20.218,0,0,0-5.441-2.254l-.807-7.283h-8.325l-.805,7.283a20.233,20.233,0,0,0-5.444,2.254l-5.721-4.579h-1.605L258.4,210.1l4.574,5.716a20.217,20.217,0,0,0-2.266,5.448l-7.267.8v8.325l7.257.805a20.3,20.3,0,0,0,2.261,5.47l-4.56,5.7,4.281,5.886h1.605l5.69-4.558a20.17,20.17,0,0,0,5.479,2.273l.8,7.243h8.325l.8-7.243a20.156,20.156,0,0,0,5.477-2.273l4.084,4.558h1.608l5.886-5.886-4.563-5.7a20.22,20.22,0,0,0,2.261-5.47Zm-26.979,4.923a9.063,9.063,0,1,1,9.061-9.064A9.062,9.062,0,0,1,280.418,235.314Z" transform="translate(165.581 -80.598)" fill="#365e6b"/>
        <path id="Trazado_100720" data-name="Trazado 100720" d="M306.716,230.392v-8.325l-7.267-.8a20.211,20.211,0,0,0-2.266-5.448l4.575-5.716-5.886-5.886-5.721,4.579a20.249,20.249,0,0,0-5.441-2.254l-.807-7.283h-8.325l-.807,7.283a20.249,20.249,0,0,0-5.441,2.254l-5.721-4.579-5.886,5.886,4.575,5.716a20.213,20.213,0,0,0-2.266,5.448l-7.267.8v8.325l7.257.805a20.222,20.222,0,0,0,2.261,5.47l-4.56,5.7,5.886,5.886,5.69-4.558a20.156,20.156,0,0,0,5.477,2.273l.8,7.243H283.9l.8-7.243a20.155,20.155,0,0,0,5.477-2.273l5.69,4.558,5.886-5.886-4.56-5.7a20.222,20.222,0,0,0,2.261-5.47Zm-26.976,4.923a9.063,9.063,0,1,1,9.061-9.064A9.062,9.062,0,0,1,279.74,235.314Z" transform="translate(164.654 -80.598)" fill="#5da1ba"/>
        <path id="Trazado_100721" data-name="Trazado 100721" d="M172.088,195.692A284.412,284.412,0,0,0,195.022,213.7c50.817,35.308,118.389,45.251,177.221,26.069a193.583,193.583,0,0,0,26.531-10.9" transform="translate(54.307 -85.469)" fill="none" stroke="#345a6e" stroke-miterlimit="10" stroke-width="1.5" stroke-dasharray="5.137"/>
      </g>
      <g id="Grupo_55270" data-name="Grupo 55270" transform="translate(369.96 73.166)">
        <g id="Grupo_55268" data-name="Grupo 55268" transform="translate(94.388 82.129)">
          <path id="Trazado_100733" data-name="Trazado 100733" d="M352.023,167.061A59.21,59.21,0,1,0,247.978,205.72c9.762,11.3,14.694,26,14.694,40.937v2.619h59.251V246.82c0-15.2,5.87-29.654,15.788-41.178A58.936,58.936,0,0,0,352.023,167.061Z" transform="translate(-233.605 -107.852)" fill="#f1da3d"/>
          <path id="Trazado_100734" data-name="Trazado 100734" d="M258.77,111.833c22.288.916,49.153,23.2,48.236,53.121" transform="translate(-199.184 -102.406)" fill="none" stroke="#fff" stroke-miterlimit="10" stroke-width="2.585"/>
          <path id="Trazado_100735" data-name="Trazado 100735" d="M263.314,211.681s-.078-21.634-.455-33.639c-.481-15.312-.343-24.836-3.632-32.588-2.941-6.931-6.921-8.5-10-4.762-3.189,3.867-.126,13.586,7.719,16.283,6.777,2.328,16.958,2.962,25.833.888,5.941-1.387,10.009-3.566,13.361-6.812,4.29-4.158,3.476-11.055.869-12.634-3.464-2.1-7.873.317-10.506,7.108-1.118,2.884-4.089,9.563-4.3,30.054-.1,10.115-.653,35.434-.653,35.434" transform="translate(-213.945 -67.047)" fill="none" stroke="#919ca2" stroke-linecap="round" stroke-miterlimit="10" stroke-width="0.857"/>
          <path id="Trazado_100736" data-name="Trazado 100736" d="M259.447,112.227a59.115,59.115,0,0,0-11.47,87.508c9.762,11.3,14.694,26,14.694,40.937v2.619h59.251v-2.455c0-15.2,5.87-29.654,15.788-41.178a59.258,59.258,0,0,0,7.736-11.481C273.363,217.1,245.023,156.18,259.447,112.227Z" transform="translate(-233.605 -101.867)" fill="url(#linear-gradient)" style="mix-blend-mode: multiply;isolation: isolate"/>
          <ellipse id="Elipse_1360" data-name="Elipse 1360" cx="27.721" cy="14.966" rx="27.721" ry="14.966" transform="translate(30.754 154.362)" fill="#8f8f8f"/>
          <g id="Grupo_55267" data-name="Grupo 55267" transform="translate(23.716 141.007)">
            <g id="Grupo_55266" data-name="Grupo 55266">
              <path id="Trazado_100737" data-name="Trazado 100737" d="M248.506,177.173h60.246a4.885,4.885,0,1,0,0-9.769H248.506a4.885,4.885,0,1,0,0,9.769Z" transform="translate(-243.621 -167.404)" fill="#bebebe"/>
              <path id="Trazado_100738" data-name="Trazado 100738" d="M308.752,175.538H248.506a4.885,4.885,0,1,0,0,9.769h60.246a4.885,4.885,0,0,0,0-9.769Z" transform="translate(-243.621 -156.279)" fill="#bebebe"/>
            </g>
            <path id="Trazado_100739" data-name="Trazado 100739" d="M308.752,171.442H248.506a4.885,4.885,0,1,0,0,9.769h60.246a4.885,4.885,0,1,0,0-9.769Z" transform="translate(-243.621 -161.881)" fill="#8f8f8f"/>
          </g>
        </g>
        <g id="Grupo_55269" data-name="Grupo 55269">
          <path id="Trazado_100740" data-name="Trazado 100740" d="M261.045,139.247,249.517,73.166l18.053,1.666Z" transform="translate(-117.453 -73.166)" fill="#31326f"/>
          <path id="Trazado_100741" data-name="Trazado 100741" d="M266.892,126.759,281.3,83.136l6.943,7.5Z" transform="translate(-93.687 -59.529)" fill="#31326f"/>
          <path id="Trazado_100742" data-name="Trazado 100742" d="M285.223,138.986l60.26-48.46,2.107,20.227Z" transform="translate(-68.614 -49.421)" fill="#31326f"/>
          <path id="Trazado_100743" data-name="Trazado 100743" d="M261.169,136.26l-33.73-44.791L215.71,103.786Z" transform="translate(-163.693 -48.131)" fill="#31326f"/>
          <path id="Trazado_100744" data-name="Trazado 100744" d="M270.595,145.181,195.84,118.594l-2.1,24.247Z" transform="translate(-193.741 -11.03)" fill="#31326f"/>
          <path id="Trazado_100745" data-name="Trazado 100745" d="M294.443,133.841l41.828-4.556-.414,8.7Z" transform="translate(-56.003 3.593)" fill="#31326f"/>
        </g>
      </g>
    </g>
  </g>
</svg>
