<svg xmlns="http://www.w3.org/2000/svg" width="812" height="583" viewBox="0 0 812 583">
  <g id="Grupo_55343" data-name="Grupo 55343" transform="translate(1349 1367)">
    <rect id="Rectángulo_5211" data-name="Rectángulo 5211" width="812" height="583" rx="11" transform="translate(-1349 -1367)" fill="#9ddfd3"/>
    <g id="Grupo_55311" data-name="Grupo 55311" transform="translate(-1316.728 -1343.979)">
      <g id="Grupo_55283" data-name="Grupo 55283" transform="translate(-35 97.868)">
        <g id="Grupo_55275" data-name="Grupo 55275" transform="translate(257.692 188.447)">
          <path id="Trazado_100746" data-name="Trazado 100746" d="M324.624,236.131c-7.835,25.819-53.836,34.717-53.836,34.717s-33.295-32.964-25.46-58.784,31.94-41.361,53.838-34.715S332.461,210.313,324.624,236.131Z" transform="translate(-244.134 -175.813)" fill="#f5c40d"/>
          <path id="Trazado_100747" data-name="Trazado 100747" d="M277.769,177.451c-.1.037-.2.084-.3.123,4.211,4.323,7.217,10.071,9.605,15.459,4.635,10.46,7.942,21.438,7,33.006a65.015,65.015,0,0,1-8.585,26.9c.137-.058.275-.11.41-.172,6.322-4.748,11.5-10.645,13.692-17.866C306.983,210.553,297.264,185.771,277.769,177.451Z" transform="translate(-219.102 -174.583)" fill="#fff" opacity="0.48"/>
          <path id="Trazado_100748" data-name="Trazado 100748" d="M283.645,266.3a46.2,46.2,0,0,1-14.438-8.037c-16.893-14.065-16.877-39.18-8.581-57.954a63.884,63.884,0,0,1,18.148-23.7c-14.851,4.1-28.032,17.026-33.446,34.864-7.835,25.82,25.46,58.784,25.46,58.784a118.752,118.752,0,0,0,12.074-3.223C283.125,266.786,283.385,266.543,283.645,266.3Z" transform="translate(-244.134 -175.218)" fill="#fff" opacity="0.48"/>
          <path id="Rectángulo_5212" data-name="Rectángulo 5212" d="M2.139,0H33.729a2.139,2.139,0,0,1,2.139,2.139V6.518a2.14,2.14,0,0,1-2.14,2.14H2.139A2.139,2.139,0,0,1,0,6.518V2.139A2.139,2.139,0,0,1,2.139,0Z" transform="translate(10.824 81.182) rotate(16.883)" fill="#0f0b49"/>
          <path id="Rectángulo_5213" data-name="Rectángulo 5213" d="M2.14,0H29.786a2.139,2.139,0,0,1,2.139,2.139V6.518a2.139,2.139,0,0,1-2.139,2.139H2.14A2.14,2.14,0,0,1,0,6.518V2.14A2.14,2.14,0,0,1,2.14,0Z" transform="translate(10.555 88.856) rotate(16.883)" fill="#0f0b49"/>
          <path id="Rectángulo_5214" data-name="Rectángulo 5214" d="M2.14,0H22.9a2.139,2.139,0,0,1,2.139,2.139V6.518a2.14,2.14,0,0,1-2.14,2.14H2.139A2.139,2.139,0,0,1,0,6.518V2.14A2.14,2.14,0,0,1,2.14,0Z" transform="translate(11.695 96.957) rotate(16.883)" fill="#0f0b49"/>
          <g id="Grupo_55274" data-name="Grupo 55274" transform="translate(19.387 28.072)">
            <path id="Trazado_100749" data-name="Trazado 100749" d="M271.594,256.249l-1.551-.569c.107-.3,8.695-23.635,14.124-38.523-.49-.079-.98-.179-1.462-.3a15.611,15.611,0,0,1-7.014-3.7,19.206,19.206,0,0,1-6.354,4.242,7.242,7.242,0,0,1-5.472.063l-7.044,32.393-1.614-.352,7.149-32.831a12.251,12.251,0,0,1-3.74-4.167c-3.483-6.006-4.085-15.3.62-19.032,1.977-1.569,3.71-2.007,5.118-1.31,3.122,1.541,3.1,8.087,3.09,8.83l-3.222,14.828a5.552,5.552,0,0,0,4.5.04,17.483,17.483,0,0,0,5.857-3.955,8.65,8.65,0,0,1-1.618-7.126c.823-4.172,2.369-6.683,4.593-7.466,2.819-.991,5.515,1.24,5.629,1.334l.4.336-.13.5a33.645,33.645,0,0,1-6.615,12.456,13.878,13.878,0,0,0,6.27,3.306c.539.133,1.087.24,1.639.319,1.145-3.145,2.115-5.82,2.787-7.688,2.4-6.7,5.123-6.566,6.179-6.259,2.609.865,3.5,5.606,2,10.574-1.182,3.894-5.437,5.409-9.849,5.144C280.437,232.217,271.7,255.953,271.594,256.249Zm-8.178-62.682c-.972-.294-2.234.476-3.152,1.2-3.866,3.066-3.29,11.607-.217,16.908a11.726,11.726,0,0,0,2.693,3.229l3.071-14.1c.019-2.236-.538-6.344-2.189-7.158A1.584,1.584,0,0,0,263.415,193.567Zm29.756,9.623c-.989-.3-2.63,1.2-4.085,5.253-.641,1.788-1.557,4.311-2.635,7.278,3.53.1,6.786-1.084,7.672-4,1.383-4.558.371-8.091-.931-8.522ZM280.185,198.9a3.329,3.329,0,0,0-2.091-.016c-1.606.569-2.821,2.721-3.512,6.223a7.056,7.056,0,0,0,1.154,5.556,32.844,32.844,0,0,0,5.957-11.045A6.1,6.1,0,0,0,280.185,198.9Z" transform="translate(-255.207 -191.846)" fill="#0f0b49"/>
          </g>
        </g>
        <g id="Grupo_55276" data-name="Grupo 55276" transform="translate(226.078 221.674)">
          <path id="Trazado_100750" data-name="Trazado 100750" d="M251.3,205.323l-24.043-7.3a1.653,1.653,0,1,1,.96-3.164l24.043,7.3a1.654,1.654,0,0,1-.96,3.166Z" transform="translate(-226.078 -194.79)" fill="#fff"/>
        </g>
        <g id="Grupo_55277" data-name="Grupo 55277" transform="translate(241.464 181.291)">
          <path id="Trazado_100751" data-name="Trazado 100751" d="M252.722,193.746a1.638,1.638,0,0,1-.753-.483l-16.686-18.785a1.653,1.653,0,0,1,2.472-2.2l16.686,18.785a1.653,1.653,0,0,1-1.719,2.679Z" transform="translate(-234.866 -171.726)" fill="#fff"/>
        </g>
        <g id="Grupo_55278" data-name="Grupo 55278" transform="translate(275.891 158.987)">
          <path id="Trazado_100752" data-name="Trazado 100752" d="M260.651,186.858a1.656,1.656,0,0,1-1.143-1.257l-4.946-24.635a1.654,1.654,0,0,1,3.243-.651l4.946,24.635a1.652,1.652,0,0,1-1.3,1.947A1.634,1.634,0,0,1,260.651,186.858Z" transform="translate(-254.528 -158.987)" fill="#fff"/>
        </g>
        <g id="Grupo_55279" data-name="Grupo 55279" transform="translate(338.035 258.637)">
          <path id="Trazado_100753" data-name="Trazado 100753" d="M315.238,226.435l-24.043-7.3a1.653,1.653,0,1,1,.961-3.164l24.043,7.3a1.653,1.653,0,0,1-.961,3.164Z" transform="translate(-290.021 -215.901)" fill="#fff"/>
        </g>
        <g id="Grupo_55280" data-name="Grupo 55280" transform="translate(346.592 226.543)">
          <path id="Trazado_100754" data-name="Trazado 100754" d="M296.085,207.152a1.653,1.653,0,0,1,.061-3.183l24.311-6.343a1.654,1.654,0,0,1,.835,3.2l-24.313,6.342A1.648,1.648,0,0,1,296.085,207.152Z" transform="translate(-294.908 -197.571)" fill="#fff"/>
        </g>
        <g id="Grupo_55281" data-name="Grupo 55281" transform="translate(342.293 188.72)">
          <path id="Trazado_100755" data-name="Trazado 100755" d="M293.625,196.934a1.654,1.654,0,0,1-.685-2.754l17.8-17.73a1.654,1.654,0,0,1,2.334,2.344l-17.8,17.73A1.651,1.651,0,0,1,293.625,196.934Z" transform="translate(-292.453 -175.969)" fill="#fff"/>
        </g>
        <g id="Grupo_55282" data-name="Grupo 55282" transform="translate(313.076 159.137)">
          <path id="Trazado_100756" data-name="Trazado 100756" d="M276.937,186.772a1.654,1.654,0,0,1-1.128-1.959l5.727-24.463a1.654,1.654,0,1,1,3.22.755l-5.727,24.463a1.652,1.652,0,0,1-1.987,1.233C277.007,186.793,276.972,186.783,276.937,186.772Z" transform="translate(-275.766 -159.073)" fill="#fff"/>
        </g>
      </g>
      <g id="Grupo_55297" data-name="Grupo 55297">
        <g id="Grupo_55286" data-name="Grupo 55286">
          <path id="Trazado_100757" data-name="Trazado 100757" d="M211.12,209.155l-24.273-7.5a2.511,2.511,0,0,0-2.981,1.873h0a2.513,2.513,0,0,0,1.4,3.229l1.9.587L171.9,256.792s-5.215,14.91,5.5,18.458l0,.008c.1.034.2.056.3.087s.191.067.294.1l0-.008c10.853,3.117,14.956-12.137,14.956-12.137l15.277-49.447,1.321.409a2.512,2.512,0,0,0,2.981-1.874h0A2.51,2.51,0,0,0,211.12,209.155Z" fill="#fff" opacity="0.22"/>
          <path id="Trazado_100758" data-name="Trazado 100758" d="M186.057,221.089,174.17,259.566c-1.487,4.814.683,9.8,4.821,11.077s8.743-1.613,10.23-6.427l11.887-38.477Z" fill="#f5c40d"/>
          <path id="Trazado_100759" data-name="Trazado 100759" d="M178.6,245.228l-4.43,14.338c-1.487,4.814.683,9.8,4.821,11.077s8.743-1.613,10.23-6.427l5.482-17.745C189.286,246.734,183.9,245.481,178.6,245.228Z" fill="#cdc3ff" style="mix-blend-mode: multiply;isolation: isolate"/>
          <path id="Trazado_100760" data-name="Trazado 100760" d="M189.056,227.724a1.392,1.392,0,1,1-.842-1.936A1.5,1.5,0,0,1,189.056,227.724Z" fill="#fff" opacity="0.56"/>
          <path id="Trazado_100761" data-name="Trazado 100761" d="M194.644,239.167a1.392,1.392,0,1,1-.842-1.936A1.5,1.5,0,0,1,194.644,239.167Z" fill="#fff" opacity="0.56"/>
          <path id="Trazado_100762" data-name="Trazado 100762" d="M193.622,210.147a1.392,1.392,0,1,1-.842-1.936A1.5,1.5,0,0,1,193.622,210.147Z" fill="#fff" opacity="0.56"/>
          <path id="Trazado_100763" data-name="Trazado 100763" d="M187.248,241.35a1.392,1.392,0,1,1-.843-1.936A1.5,1.5,0,0,1,187.248,241.35Z" fill="#fff" opacity="0.56"/>
          <path id="Trazado_100764" data-name="Trazado 100764" d="M199.9,218.675a3.226,3.226,0,1,1-1.952-4.487A3.479,3.479,0,0,1,199.9,218.675Z" fill="#fff" opacity="0.56"/>
          <g id="Grupo_55284" data-name="Grupo 55284" opacity="0.45">
            <path id="Trazado_100765" data-name="Trazado 100765" d="M210.378,210.931l-13.851-4.279a.4.4,0,0,1,.232-.75l13.851,4.279a.4.4,0,0,1-.232.75Z" fill="#fff"/>
          </g>
          <g id="Grupo_55285" data-name="Grupo 55285" opacity="0.45">
            <path id="Trazado_100766" data-name="Trazado 100766" d="M178.59,274.16c-.073-.022-.144-.045-.217-.07a.373.373,0,0,1-.2-.481.38.38,0,0,1,.444-.264c3.039,1.041,5.946.041,8.644-2.931a20.472,20.472,0,0,0,3.208-4.889l14.976-48.486a.342.342,0,1,1,.645.2L191.1,265.772C191.035,265.927,186.309,276.545,178.59,274.16Z" fill="#fff"/>
          </g>
        </g>
        <g id="Grupo_55289" data-name="Grupo 55289">
          <path id="Trazado_100767" data-name="Trazado 100767" d="M179.165,473.3l-7.939-24.132a2.511,2.511,0,0,0-3.253-1.346h0a2.511,2.511,0,0,0-1.818,3.015l.621,1.89L117.615,468.9s-15.177,4.38-11.863,15.174l-.008,0c.03.1.068.192.1.292s.057.194.093.294l.008,0c3.742,10.653,18.555,5.167,18.555,5.167l49.161-16.173.432,1.314a2.511,2.511,0,0,0,3.253,1.346h0A2.512,2.512,0,0,0,179.165,473.3Z" fill="#fff" opacity="0.22"/>
          <path id="Trazado_100768" data-name="Trazado 100768" d="M154.924,459.774l-38.255,12.585c-4.786,1.575-7.594,6.229-6.24,10.344s6.377,6.194,11.163,4.62l38.255-12.586Z" fill="#fe487c"/>
          <path id="Trazado_100769" data-name="Trazado 100769" d="M130.925,467.669l-14.256,4.69c-4.786,1.575-7.594,6.229-6.24,10.344s6.377,6.194,11.163,4.62l17.642-5.8C135.883,477.254,133.789,472.141,130.925,467.669Z" fill="#cdc3ff" style="mix-blend-mode: multiply;isolation: isolate"/>
          <path id="Trazado_100770" data-name="Trazado 100770" d="M151.251,466.06a1.392,1.392,0,1,1,1.09-1.807A1.5,1.5,0,0,1,151.251,466.06Z" fill="#fff" opacity="0.56"/>
          <path id="Trazado_100771" data-name="Trazado 100771" d="M145.155,477.242a1.392,1.392,0,1,1,1.091-1.808A1.5,1.5,0,0,1,145.155,477.242Z" fill="#fff" opacity="0.56"/>
          <path id="Trazado_100772" data-name="Trazado 100772" d="M168.226,459.607a1.392,1.392,0,1,1,1.09-1.808A1.5,1.5,0,0,1,168.226,459.607Z" fill="#fff" opacity="0.56"/>
          <path id="Trazado_100773" data-name="Trazado 100773" d="M139.093,472.475a1.392,1.392,0,1,1,1.091-1.808A1.5,1.5,0,0,1,139.093,472.475Z" fill="#fff" opacity="0.56"/>
          <path id="Trazado_100774" data-name="Trazado 100774" d="M164.9,469.66a3.227,3.227,0,1,1,2.527-4.19A3.48,3.48,0,0,1,164.9,469.66Z" fill="#fff" opacity="0.56"/>
          <g id="Grupo_55287" data-name="Grupo 55287" opacity="0.45">
            <path id="Trazado_100775" data-name="Trazado 100775" d="M177.287,473.723l-4.53-13.771a.4.4,0,0,1,.745-.246l4.531,13.772a.4.4,0,0,1-.746.245Z" fill="#fff"/>
          </g>
          <g id="Grupo_55288" data-name="Grupo 55288" opacity="0.45">
            <path id="Trazado_100776" data-name="Trazado 100776" d="M107.329,484.412c-.024-.072-.046-.143-.069-.217a.373.373,0,0,1,.279-.439.38.38,0,0,1,.472.208c.911,3.081,3.409,4.873,7.394,5.351a20.473,20.473,0,0,0,5.844-.214l48.2-15.861a.341.341,0,1,1,.211.641l-48.253,15.874C121.247,489.792,109.853,492.087,107.329,484.412Z" fill="#fff"/>
          </g>
        </g>
        <g id="Grupo_55293" data-name="Grupo 55293">
          <path id="Trazado_100777" data-name="Trazado 100777" d="M329.6,133.553l-25.835,10.636a2.531,2.531,0,0,0-1.373,3.295h0a2.533,2.533,0,0,0,3.3,1.374l2.023-.833,18.629,45.251s5.091,14.046,16.653,9.517l0,.007c.109-.042.206-.09.312-.133s.209-.078.316-.126l0-.007c11.4-4.924,5.125-18.482,5.125-18.482L330.114,138.8l1.406-.579a2.533,2.533,0,0,0,1.374-3.3h0A2.532,2.532,0,0,0,329.6,133.553Z" fill="#fff" opacity="0.22"/>
          <path id="Trazado_100778" data-name="Trazado 100778" d="M330.812,132.689l-6.634,2.731-2.37-5.758a8.247,8.247,0,1,0-15.252,6.279l2.371,5.758-6.634,2.731a2.089,2.089,0,0,0-1.133,2.719l.593,1.439a2.087,2.087,0,0,0,2.719,1.133L332.99,137.98a2.089,2.089,0,0,0,1.134-2.719l-.593-1.439A2.089,2.089,0,0,0,330.812,132.689Z" fill="#0f0b49"/>
          <path id="Trazado_100779" data-name="Trazado 100779" d="M313.392,150.223l17.793,43.219a7.574,7.574,0,1,0,14.008-5.767L327.4,144.455Z" fill="#029960"/>
          <path id="Trazado_100780" data-name="Trazado 100780" d="M334.7,170.04a15.177,15.177,0,0,0,2.478-1.833L327.4,144.455l-14.008,5.768,9.406,22.846C326.952,172.533,331.211,172.106,334.7,170.04Z" fill="#09b5b1"/>
          <g id="Grupo_55290" data-name="Grupo 55290" opacity="0.62">
            <path id="Trazado_100781" data-name="Trazado 100781" d="M342.818,200.429a9.55,9.55,0,0,1-1.459.483l-.161-.724c.044-.01,4.194-.975,6.022-4.488,1.274-2.445,1.152-5.548-.361-9.223L328.836,142.7l.687-.283L347.545,186.2c1.6,3.89,1.713,7.2.33,9.855A9.86,9.86,0,0,1,342.818,200.429Z" fill="#fff"/>
          </g>
          <g id="Grupo_55291" data-name="Grupo 55291">
            <path id="Trazado_100782" data-name="Trazado 100782" d="M323.913,152.151a2.6,2.6,0,1,1-3.4-1.416A2.6,2.6,0,0,1,323.913,152.151Z" fill="#fff" opacity="0.49"/>
            <path id="Trazado_100783" data-name="Trazado 100783" d="M342.425,187.791a2.6,2.6,0,1,1-3.4-1.417A2.6,2.6,0,0,1,342.425,187.791Z" fill="#fff" opacity="0.49"/>
            <path id="Trazado_100784" data-name="Trazado 100784" d="M331.073,160.211a1.659,1.659,0,1,1-2.166-.9A1.658,1.658,0,0,1,331.073,160.211Z" fill="#fff" opacity="0.49"/>
            <path id="Trazado_100785" data-name="Trazado 100785" d="M331.471,182.319a1.658,1.658,0,1,1-2.165-.9A1.658,1.658,0,0,1,331.471,182.319Z" fill="#fff" opacity="0.49"/>
            <path id="Trazado_100786" data-name="Trazado 100786" d="M337.6,175.443a1.659,1.659,0,1,1-2.166-.9A1.658,1.658,0,0,1,337.6,175.443Z" fill="#fff" opacity="0.49"/>
            <path id="Trazado_100787" data-name="Trazado 100787" d="M328.188,170.614a1.659,1.659,0,1,1-2.165-.9A1.658,1.658,0,0,1,328.188,170.614Z" fill="#fff" opacity="0.49"/>
          </g>
          <g id="Grupo_55292" data-name="Grupo 55292" opacity="0.69">
            <path id="Trazado_100788" data-name="Trazado 100788" d="M322.056,134.229l-.687.283c-1.426-3.464-3.268-5.571-5.474-6.264a5.918,5.918,0,0,0-4.59.563l-.4-.623a6.564,6.564,0,0,1,5.2-.652C318.538,128.294,320.54,130.546,322.056,134.229Z" fill="#fff"/>
          </g>
        </g>
        <g id="Grupo_55296" data-name="Grupo 55296" transform="translate(-111 -19.553)">
          <path id="Trazado_100789" data-name="Trazado 100789" d="M586.317,164.61l-22.706-17.5a2.6,2.6,0,0,0-3.634.471h0a2.6,2.6,0,0,0,.47,3.633l1.779,1.371-30.659,39.772s-9.871,11.73.085,19.682l-.005.006c.093.076.186.138.279.21s.176.145.273.216l.005-.007c10.224,7.6,19.055-4.927,19.055-4.927l30.659-39.772,1.236.953a2.6,2.6,0,0,0,3.633-.47h0A2.6,2.6,0,0,0,586.317,164.61Z" fill="#fff" opacity="0.22"/>
          <rect id="Rectángulo_5215" data-name="Rectángulo 5215" width="35.924" height="7.599" transform="translate(561.422 144.111) rotate(37.627)" fill="#0f0b49"/>
          <g id="Grupo_55294" data-name="Grupo 55294" opacity="0.45">
            <path id="Trazado_100790" data-name="Trazado 100790" d="M535.145,211.225l-.135-.11a.283.283,0,0,1-.007-.4.291.291,0,0,1,.388-.066c1.872,1.577,4.212,1.667,6.946.3a15.572,15.572,0,0,0,3.625-2.589l23.99-30.314a.26.26,0,1,1,.4.319L546.34,208.711C546.252,208.8,539.971,215.044,535.145,211.225Z" fill="#fff"/>
          </g>
          <path id="Trazado_100791" data-name="Trazado 100791" d="M558.374,164.929,534.1,196.419a7.6,7.6,0,0,0,12.041,9.281l24.274-31.49Z" fill="#f5c40d"/>
          <path id="Trazado_100792" data-name="Trazado 100792" d="M540.658,187.912l-6.558,8.507a7.6,7.6,0,0,0,12.041,9.281l11.084-14.379Q548.924,189.7,540.658,187.912Z" fill="#fe487c"/>
          <g id="Grupo_55295" data-name="Grupo 55295">
            <path id="Trazado_100793" data-name="Trazado 100793" d="M547.958,186.619a1.061,1.061,0,1,1,.392-1.56A1.144,1.144,0,0,1,547.958,186.619Z" fill="#fff" opacity="0.56"/>
            <path id="Trazado_100794" data-name="Trazado 100794" d="M546.007,196.122a1.061,1.061,0,1,1,.392-1.56A1.144,1.144,0,0,1,546.007,196.122Z" fill="#fff" opacity="0.56"/>
            <path id="Trazado_100795" data-name="Trazado 100795" d="M558.888,178.137a1.06,1.06,0,1,1,.392-1.56A1.143,1.143,0,0,1,558.888,178.137Z" fill="#fff" opacity="0.56"/>
            <path id="Trazado_100796" data-name="Trazado 100796" d="M540.529,194a1.061,1.061,0,1,1,.392-1.56A1.144,1.144,0,0,1,540.529,194Z" fill="#fff" opacity="0.56"/>
            <path id="Trazado_100797" data-name="Trazado 100797" d="M554.929,184.722a2.458,2.458,0,1,1,2.966,2.257A2.651,2.651,0,0,1,554.929,184.722Z" fill="#fff" opacity="0.56"/>
          </g>
        </g>
      </g>
      <g id="Grupo_55298" data-name="Grupo 55298">
        <circle id="Elipse_1361" data-name="Elipse 1361" cx="36.577" cy="36.577" r="36.577" transform="translate(616.327 431.842) rotate(-26.826)" fill="#fe9bb8"/>
        <path id="Trazado_100798" data-name="Trazado 100798" d="M699.075,433.52c-4.233,16.894-18.426,31.2-36.623,33.056-18.9,1.931-29.442-12.015-32.307-28.035-.235.885-.45,1.78-.622,2.7a36.577,36.577,0,1,0,69.552-7.716Z" fill="#fe487c" opacity="0.31" style="mix-blend-mode: multiply;isolation: isolate"/>
        <path id="Trazado_100799" data-name="Trazado 100799" d="M673.365,425.731a9.6,9.6,0,1,1-7.667-11.206A9.6,9.6,0,0,1,673.365,425.731Z" fill="#fe487c"/>
        <path id="Trazado_100800" data-name="Trazado 100800" d="M653.01,438.2a5.151,5.151,0,1,1-4.113-6.012A5.149,5.149,0,0,1,653.01,438.2Z" fill="#fe487c"/>
        <path id="Trazado_100801" data-name="Trazado 100801" d="M665.587,472.185a5.151,5.151,0,1,1-4.114-6.011A5.152,5.152,0,0,1,665.587,472.185Z" fill="#fe487c"/>
        <circle id="Elipse_1362" data-name="Elipse 1362" cx="5.151" cy="5.151" r="5.151" transform="matrix(0.769, -0.64, 0.64, 0.769, 661.359, 457.203)" fill="#fe487c"/>
        <path id="Trazado_100802" data-name="Trazado 100802" d="M683.737,472.8a5.151,5.151,0,1,1-4.113-6.011A5.152,5.152,0,0,1,683.737,472.8Z" fill="#fe487c"/>
        <path id="Trazado_100803" data-name="Trazado 100803" d="M702.22,449.7a3.873,3.873,0,0,1-.648.956c-.757,2.931-5.411,10.268-33.554,4.992-30.681-5.752-36.3-17.083-37.179-19.59-18.84-1.432-31.8-.136-32.569,3.969-1.189,6.338,27.117,16.964,63.222,23.733s66.337,7.117,67.525.779C729.756,460.6,719.076,455,702.22,449.7Z" fill="#f5c40d"/>
        <path id="Trazado_100804" data-name="Trazado 100804" d="M630.839,436.059a43.258,43.258,0,0,0-6.121.1,17.015,17.015,0,0,0-2.99.531c-.922.289-1.982.729-2.245,1.6a3.042,3.042,0,0,0,1.072,2.5,17.245,17.245,0,0,0,2.252,2,46.874,46.874,0,0,0,5.16,3.235,131.592,131.592,0,0,0,22.544,9.4,128,128,0,0,0,23.852,5.194c8.078.847,16.346.846,24.255-1.159l-.021.006a30.276,30.276,0,0,0,3.744-1.668,11.886,11.886,0,0,0,3.272-2.4,3.1,3.1,0,0,0,.838-1.759,2.5,2.5,0,0,0-.758-1.779,10.364,10.364,0,0,0-3.473-2.162,10.3,10.3,0,0,1,3.6,2.045,2.7,2.7,0,0,1,.87,1.9,3.36,3.36,0,0,1-.843,1.944,12.24,12.24,0,0,1-3.293,2.581,27.03,27.03,0,0,1-3.771,1.8l-.008,0-.014,0a66.789,66.789,0,0,1-24.489,1.534,118.346,118.346,0,0,1-24.044-5.185,121.34,121.34,0,0,1-22.595-9.7,47.313,47.313,0,0,1-5.167-3.38,17.73,17.73,0,0,1-2.291-2.114,6.436,6.436,0,0,1-.9-1.319,2.005,2.005,0,0,1,.895-2.868,6.639,6.639,0,0,1,1.47-.571,17.221,17.221,0,0,1,3.059-.447A39.323,39.323,0,0,1,630.839,436.059Z" fill="#fe487c" opacity="0.36"/>
        <path id="Trazado_100805" data-name="Trazado 100805" d="M613.26,435.308a19.117,19.117,0,0,0-3.792,1.963c-1.134.773-2.279,1.8-2.435,3.059a2.938,2.938,0,0,0,.431,1.781,6.947,6.947,0,0,0,1.34,1.49,17.807,17.807,0,0,0,3.5,2.29,70.8,70.8,0,0,0,7.822,3.417c1.333.519,2.683,1,4.039,1.465,1.342.513,2.715.931,4.062,1.446a81.673,81.673,0,0,1-8.355-2.185,49.251,49.251,0,0,1-8.04-3.262,18.023,18.023,0,0,1-3.656-2.468,7.812,7.812,0,0,1-1.466-1.754,3.54,3.54,0,0,1-.431-2.344,3.95,3.95,0,0,1,1.149-2.022,8.865,8.865,0,0,1,1.784-1.326A16.321,16.321,0,0,1,613.26,435.308Z" fill="#fe487c" opacity="0.36"/>
        <path id="Trazado_100806" data-name="Trazado 100806" d="M696.68,465.053l3.565-.442c1.187-.136,2.372-.282,3.553-.45,2.361-.335,4.718-.67,7.042-1.137a27.808,27.808,0,0,0,6.72-2.02c.992-.508,2.032-1.234,2.133-2.318a.8.8,0,0,0,.008-.4c-.019-.135-.024-.274-.053-.41a5.107,5.107,0,0,0-.337-.787,9.913,9.913,0,0,0-1.056-1.427l.681.6a6.872,6.872,0,0,1,.6.69,5.447,5.447,0,0,1,.471.809c.053.15.083.311.125.469a1.13,1.13,0,0,1,.052.488,2.722,2.722,0,0,1-.767,1.784,6.407,6.407,0,0,1-1.48,1.176,22.8,22.8,0,0,1-6.9,2.33,58.921,58.921,0,0,1-7.158.918A62.177,62.177,0,0,1,696.68,465.053Z" fill="#fe487c" opacity="0.36"/>
      </g>
      <g id="Grupo_55310" data-name="Grupo 55310">
        <path id="Trazado_100807" data-name="Trazado 100807" d="M18.4,91.57l83.05,80.327L217.175,39.835Zm45.1,7.073L163.91,72.51l-58.459,66.711Z" fill="#cc3d60"/>
        <g id="Grupo_55299" data-name="Grupo 55299" transform="translate(38.754 85.265)" opacity="0.58">
          <rect id="Rectángulo_5216" data-name="Rectángulo 5216" width="1.536" height="9.87" transform="translate(0 0.687) rotate(-26.563)" fill="#0f0b49"/>
        </g>
        <g id="Grupo_55300" data-name="Grupo 55300" transform="translate(55.968 80.41)" opacity="0.58">
          <rect id="Rectángulo_5217" data-name="Rectángulo 5217" width="1.536" height="9.87" transform="matrix(0.894, -0.447, 0.447, 0.894, 0, 0.687)" fill="#0f0b49"/>
        </g>
        <g id="Grupo_55301" data-name="Grupo 55301" transform="translate(74.508 76.437)" opacity="0.58">
          <rect id="Rectángulo_5218" data-name="Rectángulo 5218" width="1.536" height="9.87" transform="translate(0 0.687) rotate(-26.563)" fill="#0f0b49"/>
        </g>
        <g id="Grupo_55302" data-name="Grupo 55302" transform="translate(91.281 71.581)" opacity="0.58">
          <rect id="Rectángulo_5219" data-name="Rectángulo 5219" width="1.536" height="9.87" transform="translate(0 0.687) rotate(-26.567)" fill="#0f0b49"/>
        </g>
        <g id="Grupo_55303" data-name="Grupo 55303" transform="translate(106.289 67.609)" opacity="0.58">
          <rect id="Rectángulo_5220" data-name="Rectángulo 5220" width="1.536" height="9.869" transform="translate(0 0.687) rotate(-26.565)" fill="#0f0b49"/>
        </g>
        <g id="Grupo_55304" data-name="Grupo 55304" transform="translate(123.062 63.195)" opacity="0.58">
          <rect id="Rectángulo_5221" data-name="Rectángulo 5221" width="1.536" height="9.87" transform="translate(0 0.687) rotate(-26.563)" fill="#0f0b49"/>
        </g>
        <g id="Grupo_55305" data-name="Grupo 55305" transform="translate(138.511 58.781)" opacity="0.58">
          <rect id="Rectángulo_5222" data-name="Rectángulo 5222" width="1.536" height="9.87" transform="translate(0 0.687) rotate(-26.564)" fill="#0f0b49"/>
        </g>
        <g id="Grupo_55306" data-name="Grupo 55306" transform="translate(152.195 55.691)" opacity="0.58">
          <rect id="Rectángulo_5223" data-name="Rectángulo 5223" width="1.536" height="9.87" transform="translate(0 0.687) rotate(-26.563)" fill="#0f0b49"/>
        </g>
        <g id="Grupo_55307" data-name="Grupo 55307" transform="translate(164.554 52.601)" opacity="0.58">
          <rect id="Rectángulo_5224" data-name="Rectángulo 5224" width="1.536" height="9.87" transform="matrix(0.894, -0.447, 0.447, 0.894, 0, 0.687)" fill="#0f0b49"/>
        </g>
        <g id="Grupo_55308" data-name="Grupo 55308" transform="translate(179.12 48.628)" opacity="0.58">
          <rect id="Rectángulo_5225" data-name="Rectángulo 5225" width="1.536" height="9.87" transform="matrix(0.894, -0.447, 0.447, 0.894, 0, 0.687)" fill="#0f0b49"/>
        </g>
        <g id="Grupo_55309" data-name="Grupo 55309" transform="translate(191.48 45.097)" opacity="0.58">
          <rect id="Rectángulo_5226" data-name="Rectángulo 5226" width="1.536" height="9.87" transform="translate(0 0.687) rotate(-26.563)" fill="#0f0b49"/>
        </g>
      </g>
    </g>
    <g id="Grupo_55316" data-name="Grupo 55316" transform="translate(-1136.798 -1374.832)">
      <path id="Trazado_100808" data-name="Trazado 100808" d="M246.791,383.471l.1,31.469s62.541-10.865,81.169-30.8L310.9,360.612Z" fill="#0f0b49"/>
      <path id="Trazado_100809" data-name="Trazado 100809" d="M270.281,389.554c16.329-5.7,32.553-11.7,48.724-17.834l-8.1-11.108-64.114,22.859.044,13.621C254.686,394.621,262.572,392.246,270.281,389.554Z" fill="#0f0b49" opacity="0.61" style="mix-blend-mode: multiply;isolation: isolate"/>
      <path id="Trazado_100810" data-name="Trazado 100810" d="M249.473,319.649,230.6,274.343s-1.888-10.068,10.7-15.1,16.99,5.034,16.99,5.034l18.877,41.531S273.385,317.761,249.473,319.649Z" fill="#0f0b49"/>
      <path id="Trazado_100811" data-name="Trazado 100811" d="M247.586,313.356l-4.4,27.058s36.5-1.888,51.6-27.687l-20.765-13.214Z" fill="#0f0b49"/>
      <path id="Trazado_100812" data-name="Trazado 100812" d="M235,276.86s-45.306,16.361-40.9,61.666,46.564,45.306,48.452,45.935l3.146-8.18s-35.238-6.922-36.5-38.384,20.765-47.823,31.462-52.857Z" fill="#0f0b49"/>
      <rect id="Rectángulo_5227" data-name="Rectángulo 5227" width="95.016" height="12.585" rx="5.252" transform="translate(229.123 381.656) rotate(-20.09)" fill="#0f0b49"/>
      <rect id="Rectángulo_5228" data-name="Rectángulo 5228" width="95.016" height="12.585" rx="5.252" transform="translate(241.708 413.118) rotate(-20.09)" fill="#0f0b49"/>
      <circle id="Elipse_1363" data-name="Elipse 1363" cx="11.326" cy="11.326" r="11.326" transform="translate(225.158 393.205) rotate(-80.815)" fill="#f5c40d"/>
      <circle id="Elipse_1364" data-name="Elipse 1364" cx="7.551" cy="7.551" r="7.551" transform="translate(228.273 379.764) rotate(-22.61)" fill="#fff" opacity="0.57"/>
      <path id="Trazado_100813" data-name="Trazado 100813" d="M254.86,334.036l8.585,16.871L268,348.05,261.263,330.8Z" fill="#0f0b49" opacity="0.61"/>
      <path id="Trazado_100814" data-name="Trazado 100814" d="M268.7,327.744l8.585,16.871,4.554-2.857-6.735-17.249Z" fill="#0f0b49" opacity="0.61"/>
      <path id="Trazado_100815" data-name="Trazado 100815" d="M280.639,322.123l10.183,15.958,4.255-3.286L286.7,318.281Z" fill="#0f0b49" opacity="0.61"/>
      <g id="Grupo_55312" data-name="Grupo 55312" opacity="0.55">
        <path id="Trazado_100816" data-name="Trazado 100816" d="M262.059,281.833a1.2,1.2,0,0,1-1.134-.811c-3.106-9.1-7.11-14.485-11.576-15.583-4.342-1.067-7.825,2.189-7.86,2.222a1.2,1.2,0,0,1-1.65-1.736c.181-.173,4.49-4.187,10.082-2.813,5.374,1.321,9.84,7.086,13.272,17.136a1.2,1.2,0,0,1-.747,1.521A1.212,1.212,0,0,1,262.059,281.833Z" fill="#cdc3ff"/>
      </g>
      <g id="Grupo_55313" data-name="Grupo 55313" opacity="0.55">
        <path id="Trazado_100817" data-name="Trazado 100817" d="M289.115,314.555a1.189,1.189,0,0,1-.553-.136l-14.473-7.551a1.2,1.2,0,0,1,1.109-2.125l14.473,7.551a1.2,1.2,0,0,1-.556,2.261Z" fill="#cdc3ff"/>
      </g>
      <g id="Grupo_55314" data-name="Grupo 55314" opacity="0.55">
        <path id="Trazado_100818" data-name="Trazado 100818" d="M276.1,402.806a1.2,1.2,0,0,1-.407-2.325l49.356-17.863a1.2,1.2,0,1,1,.815,2.253l-49.357,17.864A1.187,1.187,0,0,1,276.1,402.806Z" fill="#cdc3ff"/>
      </g>
      <g id="Grupo_55315" data-name="Grupo 55315">
        <path id="Rectángulo_5229" data-name="Rectángulo 5229" d="M2.363,0H46.089a2.363,2.363,0,0,1,2.363,2.363V3.3a2.363,2.363,0,0,1-2.363,2.363H2.364A2.364,2.364,0,0,1,0,3.3V2.363A2.363,2.363,0,0,1,2.363,0Z" transform="translate(261.372 364.296) rotate(-20.782)" fill="#cdc3ff"/>
        <path id="Trazado_100819" data-name="Trazado 100819" d="M277.642,358.121l-4.086,1.551q-1.656,3.646-3.286,7.3l4.606-1.748Q276.23,361.664,277.642,358.121Z" fill="#fff" opacity="0.48" style="mix-blend-mode: overlay;isolation: isolate"/>
        <path id="Trazado_100820" data-name="Trazado 100820" d="M295.915,351.186l-6.087,2.311q-1.484,3.573-2.92,7.165l6.826-2.59Q294.791,354.618,295.915,351.186Z" fill="#fff" opacity="0.48" style="mix-blend-mode: overlay;isolation: isolate"/>
      </g>
    </g>
    <g id="Grupo_55331" data-name="Grupo 55331" transform="translate(-1126.551 -1464.248)">
      <g id="Grupo_55323" data-name="Grupo 55323">
        <g id="Grupo_55322" data-name="Grupo 55322">
          <g id="Grupo_55320" data-name="Grupo 55320">
            <path id="Trazado_100821" data-name="Trazado 100821" d="M502.754,435.578,486.2,393.636l3.8-1.5a2.73,2.73,0,0,0,1.533-3.532h0A2.73,2.73,0,0,0,488,387.072l-31.659,12.495a2.73,2.73,0,0,0-1.533,3.532h0a2.73,2.73,0,0,0,3.532,1.533l3.8-1.5,16.554,41.941c-15.576,10.944-23.063,28.711-17.073,43.886,7.315,18.533,31.954,26.173,55.034,17.064s35.859-31.519,28.544-50.052C539.209,440.8,521.6,432.933,502.754,435.578Z" fill="#fff" opacity="0.22"/>
            <path id="Trazado_100822" data-name="Trazado 100822" d="M526.268,498.956c-13.716,11.014-32.14,9.017-44.351-3.41a34.09,34.09,0,0,1-9.807-22.325c-.365-8.955,3.214-16.929,6.555-25.018,3.846-9.309,4.407-17.487,1-27.075a134.274,134.274,0,0,0-12.835-25.7l-10.488,4.139a2.73,2.73,0,0,0-1.533,3.532h0a2.73,2.73,0,0,0,3.532,1.533l3.8-1.5,16.554,41.941c-15.576,10.944-23.062,28.711-17.073,43.885,7.315,18.534,31.954,26.174,55.034,17.065s35.859-31.519,28.544-50.052c-.307-.778-.652-1.532-1.019-2.271C547.041,470.277,539.257,488.525,526.268,498.956Z" fill="#fff" opacity="0.22"/>
            <g id="Grupo_55317" data-name="Grupo 55317" opacity="0.47">
              <path id="Trazado_100823" data-name="Trazado 100823" d="M489.7,389.628l-19.319,7.625a.841.841,0,1,1-.618-1.565l19.319-7.626a.842.842,0,1,1,.618,1.566Z" fill="#fff"/>
            </g>
            <g id="Grupo_55318" data-name="Grupo 55318" opacity="0.47">
              <path id="Trazado_100824" data-name="Trazado 100824" d="M500.472,437.48a.84.84,0,0,1-1.091-.473l-14.558-36.884a.841.841,0,1,1,1.565-.618l14.558,36.884A.84.84,0,0,1,500.472,437.48Z" fill="#fff"/>
            </g>
            <g id="Grupo_55319" data-name="Grupo 55319" opacity="0.47">
              <path id="Trazado_100825" data-name="Trazado 100825" d="M545.089,469.943a.842.842,0,0,1-1.146-.692c-1.012-9.325-4.611-16.51-10.7-21.359-10.85-8.64-26.067-6.956-26.219-6.938a.842.842,0,0,1-.2-1.672c.651-.077,16.071-1.78,27.464,7.294,6.453,5.138,10.262,12.706,11.323,22.494A.841.841,0,0,1,545.089,469.943Z" fill="#fff"/>
            </g>
            <path id="Trazado_100826" data-name="Trazado 100826" d="M519.642,469.191a71.067,71.067,0,0,1-27.254,11.129c-8.17,1.553-16.544,2.158-24.652,4a25.162,25.162,0,0,0,.954,2.931c6.2,15.713,26.825,22.3,46.063,14.7s29.807-26.486,23.6-42.2a25.3,25.3,0,0,0-1.991-3.97A177.124,177.124,0,0,1,519.642,469.191Z" fill="#fe487c"/>
            <path id="Trazado_100827" data-name="Trazado 100827" d="M467.736,484.318s6.8-16.1,68.631-28.537C536.367,455.781,520.353,490.251,467.736,484.318Z" fill="#fe9bb8"/>
            <path id="Trazado_100828" data-name="Trazado 100828" d="M484.278,459.884a3.147,3.147,0,1,1-4.082-1.772A3.146,3.146,0,0,1,484.278,459.884Z" fill="#fff"/>
            <path id="Trazado_100829" data-name="Trazado 100829" d="M517.217,464.476a3.147,3.147,0,1,1-4.083-1.772A3.146,3.146,0,0,1,517.217,464.476Z" fill="#fff"/>
            <path id="Trazado_100830" data-name="Trazado 100830" d="M490.24,438.584a2.036,2.036,0,1,1-2.641-1.146A2.036,2.036,0,0,1,490.24,438.584Z" fill="#fff"/>
            <path id="Trazado_100831" data-name="Trazado 100831" d="M513.009,447.867a2.036,2.036,0,1,1-2.641-1.146A2.037,2.037,0,0,1,513.009,447.867Z" fill="#fff"/>
            <path id="Trazado_100832" data-name="Trazado 100832" d="M500.369,459.1a2.036,2.036,0,1,1-2.641-1.146A2.035,2.035,0,0,1,500.369,459.1Z" fill="#fff"/>
            <path id="Trazado_100833" data-name="Trazado 100833" d="M481.58,492.075a2.036,2.036,0,1,1-2.641-1.146A2.037,2.037,0,0,1,481.58,492.075Z" fill="#fff"/>
            <path id="Trazado_100834" data-name="Trazado 100834" d="M491.279,478.932a2.036,2.036,0,1,1-2.641-1.146A2.037,2.037,0,0,1,491.279,478.932Z" fill="#fff"/>
            <path id="Trazado_100835" data-name="Trazado 100835" d="M516.907,485.575a2.036,2.036,0,1,1-2.641-1.147A2.035,2.035,0,0,1,516.907,485.575Z" fill="#fff"/>
          </g>
          <g id="Grupo_55321" data-name="Grupo 55321">
            <path id="Trazado_100836" data-name="Trazado 100836" d="M473.394,391.371c1.245-6.258,3.168-13.015-1.345-17.525a13.95,13.95,0,0,0-17.526-1.332A16.705,16.705,0,0,0,426.962,356.3c-2.07-7.206-9.4-11.407-16.247-14.468-6.582-2.944-13.518-5.577-20.729-5.583s-14.806,3.1-18.424,9.336c-2.637,4.548-2.86,10.034-3.776,15.21s-3.008,10.732-7.707,13.09-11.944-1.2-11.025-6.373c-5.59,7.134-3,18.508,4.08,24.163s17.217,6.253,25.877,3.581,16.137-8.181,23.162-13.907c-1.533,6.643-2.735,14.579,2.039,19.446,5.143,5.244,14.133,3.471,20.333-.467A39.513,39.513,0,0,0,439.559,382.7c-.075,4.286,1.724,9.849,6.011,9.765,3.612-.07,5.544-4.169,8.376-6.412,4.956-3.928,13.654-.569,14.684,5.671C468.63,391.719,472.521,395.763,473.394,391.371Z" fill="#fe487c" opacity="0.39"/>
            <path id="Trazado_100837" data-name="Trazado 100837" d="M346.258,374.04a28.281,28.281,0,0,0,11.689,3.881c8.125.845,13.64-3.169,16.277-10.8,2.055-5.942,2.958-12.421,6.837-17.561a20.021,20.021,0,0,1,17.117-7.476c5.87.476,10.373,4.233,14.032,8.558,3.037,3.588,7.215,11.29,12.676,10.989,3.712-.205,6.83-2.946,10.716-2.906a12.563,12.563,0,0,1,8.775,4.224c2.351,2.523,2.435,5.494,4.032,8.309,1.8,3.173,5.252,3.384,8.519,2.845,7.136-1.178,12.406-.967,16.85,5.641a17.217,17.217,0,0,1,1.1,1.91,10.326,10.326,0,0,0-2.829-7.811,13.95,13.95,0,0,0-17.526-1.332A16.705,16.705,0,0,0,426.962,356.3c-2.07-7.206-9.4-11.407-16.247-14.468-6.582-2.944-13.518-5.577-20.729-5.583s-14.806,3.1-18.424,9.336c-2.637,4.548-2.86,10.034-3.776,15.21s-3.008,10.732-7.707,13.09-11.944-1.2-11.025-6.373A14.229,14.229,0,0,0,346.258,374.04Z" fill="#fe9bb8" opacity="0.43"/>
          </g>
        </g>
        <path id="Trazado_100838" data-name="Trazado 100838" d="M348.742,379.334a20.987,20.987,0,0,0,8.439,7.425,24.812,24.812,0,0,0,10.8,2.492,26.308,26.308,0,0,0,10.722-2.32,35.077,35.077,0,0,0,9.258-5.983A40.23,40.23,0,0,0,391.846,377c1.2-1.392,2.306-2.886,3.548-4.452a21.028,21.028,0,0,1,4.486-4.379,11.063,11.063,0,0,1,6.552-1.939,8.132,8.132,0,0,1,3.6.988,7.538,7.538,0,0,1,2.731,2.706,8.126,8.126,0,0,1,1.06,3.587,13.979,13.979,0,0,1-.218,3.333c-.369,2.08-.968,3.956-1.462,5.769a20.068,20.068,0,0,0-.9,5.121,4.5,4.5,0,0,0,1.437,3.614,4.954,4.954,0,0,0,3.89.889,7.592,7.592,0,0,0,4.1-1.93,15.566,15.566,0,0,0,3.041-4.079c1.736-3.125,2.891-6.933,5.179-10.435a15.3,15.3,0,0,1,4.47-4.624,9.59,9.59,0,0,1,3.178-1.329,10.07,10.07,0,0,1,3.407-.136,9.174,9.174,0,0,1,3.274,1.054,7.009,7.009,0,0,1,2.624,2.476l.422.835.289.885a11.758,11.758,0,0,1,.261,1.628c.1,1.042.086,2.022.115,2.953a9.983,9.983,0,0,0,.291,2.494,1.464,1.464,0,0,0,.38.694c.116.159.353.2.636.272a2.264,2.264,0,0,0,1.7-.8c.635-.571,1.205-1.332,2-2.063a10.59,10.59,0,0,1,11.61-1.759,10.048,10.048,0,0,1,5.461,9.776,9.708,9.708,0,0,0-5.915-8.765,9.149,9.149,0,0,0-9.779,2.148c-.584.605-1.141,1.418-1.886,2.187a5.991,5.991,0,0,1-1.373,1.088,3.73,3.73,0,0,1-1.977.483,4.724,4.724,0,0,1-1.021-.195,3,3,0,0,1-.986-.542,3.459,3.459,0,0,1-.739-.81,5.046,5.046,0,0,1-.431-.874,11.977,11.977,0,0,1-.6-3.18c-.082-.985-.138-1.928-.25-2.8a9.149,9.149,0,0,0-.241-1.206l-.179-.478c-.088-.145-.17-.291-.248-.441a5.031,5.031,0,0,0-3.8-1.959,6.909,6.909,0,0,0-2.316.189,6.223,6.223,0,0,0-2.065.976,12.088,12.088,0,0,0-3.366,3.711c-1.884,2.992-2.912,6.667-4.787,10.325a18.389,18.389,0,0,1-3.773,5.145,11.487,11.487,0,0,1-6.149,2.954,10.067,10.067,0,0,1-3.561-.091A7.719,7.719,0,0,1,407.9,391.3a9.422,9.422,0,0,1-.658-3.558,23.568,23.568,0,0,1,1.1-6.191c.535-1.886,1.109-3.681,1.421-5.385a6.371,6.371,0,0,0-.328-4.3,3.8,3.8,0,0,0-3.2-1.867,7.4,7.4,0,0,0-4.342,1.2,17.6,17.6,0,0,0-3.8,3.571c-1.185,1.41-2.39,2.994-3.757,4.46a43.458,43.458,0,0,1-4.362,4.089,36.377,36.377,0,0,1-10.3,6.032,28.326,28.326,0,0,1-11.771,1.853,25.724,25.724,0,0,1-11.255-3.476A20.49,20.49,0,0,1,348.742,379.334Z" fill="#fff" opacity="0.46"/>
        <path id="Trazado_100839" data-name="Trazado 100839" d="M362.4,373.553a18.574,18.574,0,0,0,12.8-.137,25.63,25.63,0,0,0,10.344-7.248,44.98,44.98,0,0,0,3.9-5.112c1.177-1.766,2.224-3.772,3.64-5.728a15.814,15.814,0,0,1,2.525-2.8,9.981,9.981,0,0,1,3.574-2.028,9.527,9.527,0,0,1,4.152-.319,16.213,16.213,0,0,1,3.683.985,39.43,39.43,0,0,1,6.3,3.22,18.75,18.75,0,0,1,5.458,5.022,11.586,11.586,0,0,1,1.624,3.636,11.444,11.444,0,0,1,.3,1.994,5.706,5.706,0,0,0,.091,1.111c.039.063-.064.014.072.086a1.231,1.231,0,0,0,.675,0,1.582,1.582,0,0,0,.763-.416,5.615,5.615,0,0,0,.842-1.005c.283-.409.568-.884.9-1.386a14.825,14.825,0,0,1,1.124-1.493,13.191,13.191,0,0,1,2.775-2.453,14.164,14.164,0,0,1,6.834-2.334,13.013,13.013,0,0,1,11.818,6.171,12.857,12.857,0,0,0-11.6-4.219,12.012,12.012,0,0,0-5.511,2.5,12.232,12.232,0,0,0-2.072,2.148,24.235,24.235,0,0,0-1.629,2.733,8.782,8.782,0,0,1-1.2,1.64,4.988,4.988,0,0,1-2.061,1.322,4.525,4.525,0,0,1-2.628.08,3.521,3.521,0,0,1-2.343-2.06,7.026,7.026,0,0,1-.411-2.187,7.762,7.762,0,0,0-.261-1.3,7.89,7.89,0,0,0-1.2-2.4c-2.246-3.022-6.226-5.115-10.1-6.686a8.019,8.019,0,0,0-5.242-.656A8.976,8.976,0,0,0,396.1,357.6c-1.284,1.612-2.4,3.535-3.777,5.436a37.738,37.738,0,0,1-4.537,5.289,26.072,26.072,0,0,1-12.033,6.963C371.234,376.35,366.254,375.957,362.4,373.553Z" fill="#fff" opacity="0.46"/>
      </g>
      <g id="Grupo_55330" data-name="Grupo 55330">
        <g id="Grupo_55329" data-name="Grupo 55329">
          <g id="Grupo_55327" data-name="Grupo 55327">
            <path id="Trazado_100840" data-name="Trazado 100840" d="M141.046,598.709l-14.657-24.093-2.182,1.327a1.707,1.707,0,0,1-2.34-.569h0a1.707,1.707,0,0,1,.569-2.34l18.187-11.064a1.709,1.709,0,0,1,2.34.57h0a1.708,1.708,0,0,1-.57,2.34l-2.182,1.328L154.867,590.3c11.339-3.632,23.024-.654,28.327,8.064,6.477,10.646.979,25.815-12.279,33.881s-29.256,5.972-35.733-4.674C129.879,618.855,132.607,607.108,141.046,598.709Z" fill="#fff" opacity="0.22"/>
            <path id="Trazado_100841" data-name="Trazado 100841" d="M163.76,634.369c10.672-2.677,16.635-12.617,15.052-23.4a21.327,21.327,0,0,0-7.426-13.321c-4.327-3.565-9.654-4.792-14.948-6.181-6.093-1.6-10.382-4.408-13.876-9.728a84.027,84.027,0,0,1-7.964-16.106l6.025-3.665a1.709,1.709,0,0,1,2.34.57h0a1.708,1.708,0,0,1-.57,2.34l-2.182,1.328L154.867,590.3c11.339-3.632,23.024-.654,28.327,8.064,6.477,10.646.979,25.815-12.279,33.881s-29.256,5.972-35.733-4.674c-.272-.447-.517-.9-.747-1.366C141.618,633.893,153.655,636.905,163.76,634.369Z" fill="#fff" opacity="0.22"/>
            <g id="Grupo_55324" data-name="Grupo 55324" opacity="0.47">
              <path id="Trazado_100842" data-name="Trazado 100842" d="M123.067,574.849l11.1-6.751a.527.527,0,0,0-.547-.9l-11.1,6.752a.526.526,0,0,0,.547.9Z" fill="#fff"/>
            </g>
            <g id="Grupo_55325" data-name="Grupo 55325" opacity="0.47">
              <path id="Trazado_100843" data-name="Trazado 100843" d="M142.856,598.29a.526.526,0,0,0,.176-.723l-12.889-21.188a.526.526,0,1,0-.9.547l12.889,21.188A.525.525,0,0,0,142.856,598.29Z" fill="#fff"/>
            </g>
            <g id="Grupo_55326" data-name="Grupo 55326" opacity="0.47">
              <path id="Trazado_100844" data-name="Trazado 100844" d="M142.188,632.794a.518.518,0,0,0,.11-.089.526.526,0,0,0-.022-.744c-4.266-4.026-6.489-8.534-6.607-13.4-.21-8.673,6.377-15.623,6.444-15.692a.526.526,0,1,0-.759-.729c-.284.295-6.958,7.339-6.737,16.446.124,5.157,2.458,9.915,6.937,14.14A.525.525,0,0,0,142.188,632.794Z" fill="#fff"/>
            </g>
            <path id="Trazado_100845" data-name="Trazado 100845" d="M151.424,619.824a44.446,44.446,0,0,0,15.842-9.384c3.86-3.486,7.324-7.433,11.3-10.78a15.989,15.989,0,0,1,1.1,1.583c5.491,9.026.983,21.794-10.069,28.517s-24.462,4.856-29.953-4.171a15.807,15.807,0,0,1-1.226-2.492A110.809,110.809,0,0,0,151.424,619.824Z" fill="#f5c40d"/>
            <path id="Trazado_100846" data-name="Trazado 100846" d="M178.57,599.66s-10.594-2.687-40.147,23.437C138.423,623.1,161.655,628.132,178.57,599.66Z" fill="#fe9bb8"/>
            <path id="Trazado_100847" data-name="Trazado 100847" d="M160.141,598.679a1.968,1.968,0,1,0,.658-2.705A1.968,1.968,0,0,0,160.141,598.679Z" fill="#fff"/>
            <path id="Trazado_100848" data-name="Trazado 100848" d="M149.99,616.834a1.968,1.968,0,1,0,.658-2.7A1.968,1.968,0,0,0,149.99,616.834Z" fill="#fff"/>
            <path id="Trazado_100849" data-name="Trazado 100849" d="M147.271,593.606a1.273,1.273,0,1,0,.426-1.749A1.272,1.272,0,0,0,147.271,593.606Z" fill="#fff"/>
            <path id="Trazado_100850" data-name="Trazado 100850" d="M143.3,608.463a1.273,1.273,0,1,0,.426-1.749A1.273,1.273,0,0,0,143.3,608.463Z" fill="#fff"/>
            <path id="Trazado_100851" data-name="Trazado 100851" d="M153.675,606.406a1.273,1.273,0,1,0,.426-1.749A1.273,1.273,0,0,0,153.675,606.406Z" fill="#fff"/>
            <path id="Trazado_100852" data-name="Trazado 100852" d="M177.208,609.492a1.274,1.274,0,1,0,.426-1.75A1.275,1.275,0,0,0,177.208,609.492Z" fill="#fff"/>
            <path id="Trazado_100853" data-name="Trazado 100853" d="M166.993,609.363a1.273,1.273,0,1,0,.426-1.749A1.273,1.273,0,0,0,166.993,609.363Z" fill="#fff"/>
            <path id="Trazado_100854" data-name="Trazado 100854" d="M160.625,624.648a1.273,1.273,0,1,0,.426-1.749A1.273,1.273,0,0,0,160.625,624.648Z" fill="#fff"/>
          </g>
          <g id="Grupo_55328" data-name="Grupo 55328">
            <path id="Trazado_100855" data-name="Trazado 100855" d="M130.1,567.376c-3.59-1.743-7.685-3.336-8.228-7.289a8.725,8.725,0,0,1,5.955-9.241,10.448,10.448,0,0,1,2.326-19.864c-2.811-3.753-2.136-8.995-1.077-13.564,1.018-4.393,2.326-8.845,5.046-12.443s7.137-6.211,11.613-5.658c3.263.4,6.082,2.363,9.009,3.862s6.486,2.554,9.436,1.1,3.915-6.407.988-7.9c5.667-.092,10.36,5.494,10.5,11.161s-3.385,10.944-7.988,14.252-10.173,4.955-15.681,6.3c3.89,1.744,8.3,4.143,8.924,8.361.672,4.544-3.607,8.357-7.912,9.96a24.71,24.71,0,0,1-14.461.825c2.165,1.582,4.259,4.58,2.6,6.686-1.4,1.774-4.172,1.189-6.36,1.753-3.83.988-5.441,6.592-2.719,9.462C132.069,565.132,132.615,568.6,130.1,567.376Z" fill="#fff" opacity="0.22"/>
            <path id="Trazado_100856" data-name="Trazado 100856" d="M169.474,497.449a17.69,17.69,0,0,1-2.48,7.294c-2.647,4.369-6.731,5.6-11.53,4.036-3.739-1.22-7.31-3.217-11.337-3.224a12.521,12.521,0,0,0-10.192,5.71c-1.98,3.106-1.808,6.769-1.034,10.227.643,2.87,2.9,7.861.691,10.47-1.5,1.773-4.048,2.292-5.495,4.245a7.856,7.856,0,0,0-1.209,5.97c.37,2.125,1.819,3.289,2.619,5.148.9,2.1-.3,3.9-1.8,5.322-3.282,3.112-5.168,5.819-3.552,10.53a10.811,10.811,0,0,0,.537,1.27,6.457,6.457,0,0,1-2.825-4.36,8.725,8.725,0,0,1,5.955-9.241,10.448,10.448,0,0,1,2.326-19.864c-2.811-3.753-2.136-8.995-1.077-13.564,1.018-4.393,2.326-8.845,5.046-12.443s7.137-6.211,11.613-5.658c3.263.4,6.082,2.363,9.009,3.862s6.486,2.554,9.436,1.1,3.915-6.407.988-7.9A8.9,8.9,0,0,1,169.474,497.449Z" fill="#fe9bb8" opacity="0.43"/>
          </g>
        </g>
        <path id="Trazado_100857" data-name="Trazado 100857" d="M129.263,561.86a13.535,13.535,0,0,1-.729-5.928,4.988,4.988,0,0,1,1.39-2.889,4.917,4.917,0,0,1,1.367-.956,12.8,12.8,0,0,0,1.252-.631,2.158,2.158,0,0,0,1-1.819,7.793,7.793,0,0,0-.517-2.561c-.3-.9-.644-1.824-.944-2.813a8.973,8.973,0,0,1-.437-3.334,4.42,4.42,0,0,1,2.018-3.341,5.635,5.635,0,0,1,3.68-.65,10.348,10.348,0,0,1,3.194,1.008c.93.436,1.774.879,2.575,1.171a6.744,6.744,0,0,0,1.155.316,4.565,4.565,0,0,0,.537.057,2.537,2.537,0,0,0,.425-.034,2.5,2.5,0,0,0,1.519-.92.8.8,0,0,0,.182-.5.871.871,0,0,0-.22-.506,10.378,10.378,0,0,0-.861-.925c-.351-.36-.7-.725-1.051-1.106a16.075,16.075,0,0,1-3.438-5.45,8.7,8.7,0,0,1,.432-6.874,6.337,6.337,0,0,1,2.633-2.6,8.072,8.072,0,0,1,3.381-.874c2.2-.121,4.154.283,5.985.34a12.723,12.723,0,0,0,9.639-4.4,13.567,13.567,0,0,0,3.658-10.524c2.155,7.787-4.442,17.021-13.3,17.269-2.1.055-4.055-.22-5.788-.06a4.207,4.207,0,0,0-3.705,2.186,6,6,0,0,0-.169,4.579,13.3,13.3,0,0,0,2.892,4.4c.31.35.636.7.967,1.042a12.263,12.263,0,0,1,1.117,1.257,3.825,3.825,0,0,1,.77,2.218,3.742,3.742,0,0,1-.748,2.239,5.313,5.313,0,0,1-4.445,2.131,7.379,7.379,0,0,1-.926-.109,8.5,8.5,0,0,1-1.671-.506c-1.031-.423-1.911-.936-2.746-1.361a7.688,7.688,0,0,0-2.366-.863,3.267,3.267,0,0,0-2.036.213,1.975,1.975,0,0,0-.979,1.477,6.855,6.855,0,0,0,.208,2.485l.742,2.835a9.387,9.387,0,0,1,.343,3.237,3.743,3.743,0,0,1-.621,1.741,2.818,2.818,0,0,1-.626.693,2.714,2.714,0,0,1-.746.522,13.623,13.623,0,0,1-1.445.554,3.674,3.674,0,0,0-1.11.61,4.19,4.19,0,0,0-1.359,2.208,9.615,9.615,0,0,0-.321,2.827A20.352,20.352,0,0,0,129.263,561.86Z" fill="#fff" opacity="0.42"/>
        <path id="Trazado_100858" data-name="Trazado 100858" d="M135.167,527.285a7.7,7.7,0,0,1-1.429-3.513,13.411,13.411,0,0,1,.023-3.854,22.668,22.668,0,0,1,.873-3.675,20.39,20.39,0,0,1,1.49-3.532,12.61,12.61,0,0,1,2.448-3.184,8.341,8.341,0,0,1,3.637-2.031,7.435,7.435,0,0,1,4.071.081,4.817,4.817,0,0,1,2.959,2.45,5.41,5.41,0,0,0-3.216-1,7,7,0,0,0-3.05.7,9.967,9.967,0,0,0-4.224,4.434,45.289,45.289,0,0,0-2.7,6.291A14.372,14.372,0,0,0,135.167,527.285Z" fill="#fff" opacity="0.42"/>
      </g>
    </g>
    <g id="Grupo_55334" data-name="Grupo 55334" transform="translate(-1799.531 -1079.001)">
      <rect id="Rectángulo_5230" data-name="Rectángulo 5230" width="75.832" height="90.24" rx="12" transform="matrix(0.941, 0.338, -0.338, 0.941, 542.009, 46.179)" fill="#31326f"/>
      <path id="Trazado_100859" data-name="Trazado 100859" d="M596.768,81.28c2.632,7.487,3.085,14.7,2.506,22.562-.227,3.094-.577,6.236-.754,9.375l10.812-30.131a12.034,12.034,0,0,0-7.241-15.348l-17.7-6.351A56.344,56.344,0,0,1,596.768,81.28Z" fill="#fff" opacity="0.45"/>
      <path id="Trazado_100860" data-name="Trazado 100860" d="M538.691,118.237a62.681,62.681,0,0,1-11.083-31.925l-12.024,33.51a12.035,12.035,0,0,0,7.242,15.347l48.786,17.506a12.034,12.034,0,0,0,15.348-7.242l2.193-6.111C569.871,141.119,550.694,135.239,538.691,118.237Z" fill="#cdc3ff" style="mix-blend-mode: multiply;isolation: isolate"/>
      <g id="Grupo_55332" data-name="Grupo 55332" opacity="0.31">
        <path id="Trazado_100861" data-name="Trazado 100861" d="M569.393,148.763l-42.367-15.2a12.514,12.514,0,0,1-7.544-15.987l19.786-55.138a12.513,12.513,0,0,1,15.987-7.544l42.367,15.2a12.514,12.514,0,0,1,7.543,15.987L585.38,141.219A12.514,12.514,0,0,1,569.393,148.763ZM554.917,55.832a11.514,11.514,0,0,0-14.708,6.941l-19.785,55.138a11.512,11.512,0,0,0,6.94,14.708l42.367,15.2a11.514,11.514,0,0,0,14.708-6.941l19.785-55.138a11.513,11.513,0,0,0-6.94-14.708Z" fill="#0f0b49"/>
      </g>
      <path id="Trazado_100862" data-name="Trazado 100862" d="M592.067,87.376,547.1,71.241a7.226,7.226,0,0,1-4.348-9.214h0a7.225,7.225,0,0,1,9.214-4.348l44.967,16.136a7.226,7.226,0,0,1,4.348,9.214h0A7.226,7.226,0,0,1,592.067,87.376Z" fill="#9ddfd3" opacity="0.44"/>
      <circle id="Elipse_1365" data-name="Elipse 1365" cx="4.42" cy="4.42" r="4.42" transform="translate(538.546 85.932) rotate(-65.501)" fill="#fe487c"/>
      <path id="Trazado_100863" data-name="Trazado 100863" d="M562.324,90.174a4.42,4.42,0,1,1-2.668-5.654A4.42,4.42,0,0,1,562.324,90.174Z" fill="#ffc93c"/>
      <circle id="Elipse_1366" data-name="Elipse 1366" cx="4.42" cy="4.42" r="4.42" transform="translate(566.07 95.808) rotate(-65.503)" fill="#fe487c"/>
      <path id="Trazado_100864" data-name="Trazado 100864" d="M591.588,100.675a4.42,4.42,0,1,1-2.667-5.654A4.419,4.419,0,0,1,591.588,100.675Z" fill="#f5c40d"/>
      <path id="Trazado_100865" data-name="Trazado 100865" d="M586.65,114.436a4.42,4.42,0,1,1-2.668-5.653A4.42,4.42,0,0,1,586.65,114.436Z" fill="#f5c40d"/>
      <path id="Trazado_100866" data-name="Trazado 100866" d="M581.712,128.2a4.42,4.42,0,1,1-2.668-5.653A4.421,4.421,0,0,1,581.712,128.2Z" fill="#f5c40d"/>
      <path id="Trazado_100867" data-name="Trazado 100867" d="M576.774,141.96a4.42,4.42,0,1,1-2.668-5.653A4.421,4.421,0,0,1,576.774,141.96Z" fill="#f5c40d"/>
      <path id="Trazado_100868" data-name="Trazado 100868" d="M543.624,99a4.42,4.42,0,1,1-2.668-5.653A4.42,4.42,0,0,1,543.624,99Z" fill="#ffc93c"/>
      <circle id="Elipse_1367" data-name="Elipse 1367" cx="4.42" cy="4.42" r="4.42" transform="translate(547.36 104.605) rotate(-65.237)" fill="#ffc93c"/>
      <path id="Trazado_100869" data-name="Trazado 100869" d="M571.148,108.874a4.42,4.42,0,1,1-2.668-5.654A4.421,4.421,0,0,1,571.148,108.874Z" fill="#fe487c"/>
      <path id="Trazado_100870" data-name="Trazado 100870" d="M538.686,112.759a4.42,4.42,0,1,1-2.668-5.653A4.421,4.421,0,0,1,538.686,112.759Z" fill="#ffc93c"/>
      <path id="Trazado_100871" data-name="Trazado 100871" d="M552.448,117.7a4.42,4.42,0,1,1-2.668-5.653A4.421,4.421,0,0,1,552.448,117.7Z" fill="#fe487c"/>
      <path id="Trazado_100872" data-name="Trazado 100872" d="M566.209,122.635a4.42,4.42,0,1,1-2.667-5.653A4.419,4.419,0,0,1,566.209,122.635Z" fill="#fe487c"/>
      <path id="Trazado_100873" data-name="Trazado 100873" d="M533.748,126.521a4.42,4.42,0,1,1-2.668-5.654A4.421,4.421,0,0,1,533.748,126.521Z" fill="#ffc93c"/>
      <path id="Trazado_100874" data-name="Trazado 100874" d="M547.509,131.459a4.42,4.42,0,1,1-2.667-5.653A4.42,4.42,0,0,1,547.509,131.459Z" fill="#fe487c"/>
      <path id="Trazado_100875" data-name="Trazado 100875" d="M561.271,136.4a4.42,4.42,0,1,1-2.667-5.653A4.42,4.42,0,0,1,561.271,136.4Z" fill="#fe487c"/>
      <g id="Grupo_55333" data-name="Grupo 55333">
        <path id="Trazado_100876" data-name="Trazado 100876" d="M573.8,74.582a28.575,28.575,0,0,0,3.675-1.632c1.508-.778,1.851-1.123,1.84-1.823-.034-.516-.681-1.036-1.488-1.17a.952.952,0,0,0-.693.1.7.7,0,0,0-.408.525,2.13,2.13,0,0,0-.125.471c0,.071-.1.1-.272.082-.6-.045-.754-.462-.432-1.114.367-.78,1.134-.961,2.4-.579a2.72,2.72,0,0,1,1.084.522,2.227,2.227,0,0,1,1.02,1.193,2.292,2.292,0,0,1-.148.775,1.182,1.182,0,0,1-.672.838,32.878,32.878,0,0,1-3.769,1.946,13.887,13.887,0,0,0-1.3.506c.019.007.334.108.7.2a18.579,18.579,0,0,1,2.864,1.123c.506.3.74.565.554.655s-.524-.008-1.729-.5a21.12,21.12,0,0,0-3.157-1.036,3.507,3.507,0,0,1-1.075-.362C572.51,75.126,572.789,74.963,573.8,74.582Z" fill="#0f0b49"/>
        <path id="Trazado_100877" data-name="Trazado 100877" d="M583.5,78.05a14.8,14.8,0,0,1,.437-1.522c-1.209-.422-2.316-.819-2.522-.917-.3-.132-.427-.273-.413-.376.03-.085.252-.21.577-.141.163.035,1.158.38,2.524.846l.213-.776c.061-.229.223-.867.476-.776.692.272.717.569.66.849-.021.124-.136.562-.291,1.059l1.6.539c.411.135,1.55.508,1.5.647-.177.368-.658.243-1.159.111-.24-.062-1.119-.365-2.117-.7a11.254,11.254,0,0,1-.552,1.481.394.394,0,0,1-.466.133C583.817,78.452,583.517,78.248,583.5,78.05Z" fill="#0f0b49"/>
        <path id="Trazado_100878" data-name="Trazado 100878" d="M590.242,80.482a28.731,28.731,0,0,0,3.676-1.632c1.508-.779,1.851-1.123,1.84-1.823-.035-.516-.682-1.037-1.489-1.17a.947.947,0,0,0-.693.1.7.7,0,0,0-.408.525,2.279,2.279,0,0,0-.126.471c0,.071-.1.1-.27.083-.6-.046-.754-.462-.432-1.115.367-.78,1.134-.96,2.4-.578a2.723,2.723,0,0,1,1.084.521,2.228,2.228,0,0,1,1.019,1.193,2.26,2.26,0,0,1-.147.775,1.185,1.185,0,0,1-.673.839,32.952,32.952,0,0,1-3.769,1.946c-1.086.4-1.3.5-1.3.505.019.007.335.108.7.2a18.58,18.58,0,0,1,2.864,1.123c.505.3.739.566.554.655s-.524-.008-1.729-.5a21.033,21.033,0,0,0-3.158-1.037,3.528,3.528,0,0,1-1.075-.362C588.951,81.026,589.229,80.862,590.242,80.482Z" fill="#0f0b49"/>
      </g>
    </g>
    <g id="Grupo_55335" data-name="Grupo 55335" transform="translate(-1226.218 -1348.125)">
      <path id="Trazado_100879" data-name="Trazado 100879" d="M499.726,130.924a7.09,7.09,0,0,1-7.086-7.29l1.233-43.176-36.393-9.7a7.09,7.09,0,0,1-2.625-12.367l43.206-34.842a7.093,7.093,0,0,1,10.431,1.711l9.757,15.33a7.089,7.089,0,0,1-11.96,7.612l-5.5-8.641-26.163,21.1,28.319,7.552a7.089,7.089,0,0,1,5.259,7.051l-.992,34.721L535.735,90.1l-6.9-9.482A7.087,7.087,0,1,1,540.3,72.281l11.15,15.33a7.088,7.088,0,0,1-1.679,9.984l-45.995,32.058A7.088,7.088,0,0,1,499.726,130.924Z" transform="translate(0)" fill="#f5c40d"/>
    </g>
    <g id="Grupo_55342" data-name="Grupo 55342" transform="translate(-663.348 -1378.097)">
      <g id="Grupo_55338" data-name="Grupo 55338">
        <g id="Grupo_55336" data-name="Grupo 55336">
          <rect id="Rectángulo_5231" data-name="Rectángulo 5231" width="41.388" height="2.487" transform="translate(51.348 185.033) rotate(-79.68)" fill="#0f0b49"/>
        </g>
        <g id="Grupo_55337" data-name="Grupo 55337">
          <path id="Trazado_100880" data-name="Trazado 100880" d="M36.437,224.6l-2.459.366-3.824-25.691,20.66-15.791L20.7,154.894l1.712-1.8,32.226,30.6L32.83,200.358Z" fill="#0f0b49"/>
        </g>
        <circle id="Elipse_1368" data-name="Elipse 1368" cx="9.982" cy="9.982" r="9.982" transform="translate(26.08 222.895) rotate(-8.466)" fill="#f5c40d"/>
        <circle id="Elipse_1369" data-name="Elipse 1369" cx="6.659" cy="6.659" r="6.659" transform="translate(22.189 195.091) rotate(-8.467)" fill="#f5c40d"/>
        <circle id="Elipse_1370" data-name="Elipse 1370" cx="6.659" cy="6.659" r="6.659" transform="translate(13.992 148.386) rotate(-8.467)" fill="#f5c40d"/>
        <path id="Trazado_100881" data-name="Trazado 100881" d="M57.289,178.889c3.782,2.8,4.736,7.924,2.131,11.44s-7.783,4.1-11.565,1.294-4.736-7.924-2.131-11.441S53.507,176.087,57.289,178.889Z" fill="#f5c40d"/>
        <ellipse id="Elipse_1371" data-name="Elipse 1371" cx="7.924" cy="8.523" rx="7.924" ry="8.523" transform="matrix(0.595, -0.804, 0.804, 0.595, 48.42, 145.831)" fill="#f5c40d"/>
      </g>
      <g id="Grupo_55339" data-name="Grupo 55339">
        <rect id="Rectángulo_5232" data-name="Rectángulo 5232" width="24.404" height="2.486" transform="translate(16.54 174.344) rotate(-9.887)" fill="#0f0b49"/>
      </g>
      <g id="Grupo_55340" data-name="Grupo 55340">
        <rect id="Rectángulo_5233" data-name="Rectángulo 5233" width="21.165" height="2.487" transform="translate(12.843 219.2) rotate(-19.562)" fill="#0f0b49"/>
      </g>
      <g id="Grupo_55341" data-name="Grupo 55341">
        <rect id="Rectángulo_5234" data-name="Rectángulo 5234" width="16.496" height="2.487" transform="translate(56.477 165.012) rotate(-19.14)" fill="#0f0b49"/>
      </g>
      <path id="Trazado_100882" data-name="Trazado 100882" d="M14.289,216.594a4.267,4.267,0,0,1,1.1,5.924,4.267,4.267,0,0,1-5.988.669,4.265,4.265,0,0,1-1.1-5.923A4.266,4.266,0,0,1,14.289,216.594Z" fill="#f5c40d"/>
      <path id="Trazado_100883" data-name="Trazado 100883" d="M73.81,157.76a4.114,4.114,0,1,1-5.988.669A4.266,4.266,0,0,1,73.81,157.76Z" fill="#f5c40d"/>
      <path id="Trazado_100884" data-name="Trazado 100884" d="M19.341,172.982a4.266,4.266,0,0,1,1.1,5.923,4.266,4.266,0,0,1-5.988.67,4.267,4.267,0,0,1-1.1-5.924A4.267,4.267,0,0,1,19.341,172.982Z" fill="#f5c40d"/>
    </g>
  </g>
</svg>
