<svg xmlns="http://www.w3.org/2000/svg" xmlns:xlink="http://www.w3.org/1999/xlink" width="327.785" height="217.188" viewBox="0 0 327.785 217.188">
  <defs>
    <linearGradient id="linear-gradient" x1="0.5" x2="0.5" y2="1" gradientUnits="objectBoundingBox">
      <stop offset="0" stop-color="#dbf6e9"/>
      <stop offset="1" stop-color="#fff"/>
    </linearGradient>
  </defs>
  <g id="Grupo_55170" data-name="Grupo 55170" transform="translate(-223 -11136)">
    <g id="Grupo_55078" data-name="Grupo 55078" transform="translate(-11.778 5171.535)">
      <path id="Trazado_99268" data-name="Trazado 99268" d="M294,100.07H280.441a12.279,12.279,0,0,1-12.279-12.279h0a12.28,12.28,0,0,1,12.279-12.28h8.533a5.3,5.3,0,0,0,5.3-4.424,5.2,5.2,0,0,0-5.14-5.967H268.772a.614.614,0,0,1-.61-.624,12.476,12.476,0,0,0-12.476-12.461H182.173a3.351,3.351,0,0,1-3.326-2.595,3.275,3.275,0,0,1,3.2-3.948h51.244a6.61,6.61,0,0,0,6.593-5.429,6.5,6.5,0,0,0-6.41-7.56H86.164a6.61,6.61,0,0,0-6.593,5.428,6.5,6.5,0,0,0,6.41,7.56h25.163a7.236,7.236,0,0,1,7.217,5.943,7.114,7.114,0,0,1-7.017,8.276h-74.8A27.744,27.744,0,0,0,8.8,87.456h0a27.746,27.746,0,0,0,22.584,27.257,4.092,4.092,0,0,1,3.3,4.038v2.264a4.123,4.123,0,0,1-4.123,4.123h0A20.412,20.412,0,0,0,10.147,145.55h0a20.412,20.412,0,0,0,20.412,20.411h.073a6.135,6.135,0,0,1,6.135,6.135v.015a6.372,6.372,0,0,1-5.8,6.319,6.668,6.668,0,0,0-1.5.281,15.807,15.807,0,0,0,5.259,30.731H269.488a16.069,16.069,0,0,0,16.133-14.552c.005-.073.011-.147.016-.22a7.611,7.611,0,0,1,7.567-7.164h2.909a13.133,13.133,0,0,0,13.133-13.133h0c0-5.469-4.409-9.993-9.687-11.888a8.053,8.053,0,0,1-5.437-7.538v-.379a8.733,8.733,0,0,1,6.393-8.364,23.534,23.534,0,0,0,17.006-22.609h0A23.523,23.523,0,0,0,294,100.07Z" transform="translate(245.044 5972.21)" fill="url(#linear-gradient)"/>
      <g id="Grupo_55071" data-name="Grupo 55071" transform="translate(355.942 6061.688)">
        <rect id="Rect치ngulo_5082" data-name="Rect치ngulo 5082" width="56.953" height="49.714" transform="translate(10.23 40.66)" fill="#9ddfd3"/>
        <rect id="Rect치ngulo_5083" data-name="Rect치ngulo 5083" width="15.738" height="17.841" transform="translate(30.837 65.927)" fill="#fccda2"/>
        <path id="Trazado_100366" data-name="Trazado 100366" d="M222.412,290.109a33.518,33.518,0,0,0,15.739,0V278.38H222.412v11.729Z" transform="translate(-191.575 -213.155)" fill="#333" opacity="0.15"/>
        <g id="Grupo_55068" data-name="Grupo 55068" transform="translate(1.901 35.466)">
          <path id="Trazado_100367" data-name="Trazado 100367" d="M108.045,151.37a9.131,9.131,0,0,0-9.131,9.131h0a9.131,9.131,0,0,0,9.131,9.131h4.191V151.37Z" transform="translate(-98.914 -151.37)" fill="#e0ffef"/>
          <path id="Trazado_100368" data-name="Trazado 100368" d="M360.417,151.37a9.131,9.131,0,0,1,9.131,9.131h0a9.131,9.131,0,0,1-9.131,9.131h-4.191V151.37Z" transform="translate(-295.937 -151.37)" fill="#e0ffef"/>
        </g>
        <path id="Trazado_100369" data-name="Trazado 100369" d="M134.465,74.662V89.436a28.476,28.476,0,0,0,28.476,28.476h0a28.476,28.476,0,0,0,28.476-28.476V74.662c0-7.863-14.238-16.789-28.475-16.789S134.465,66.8,134.465,74.662Z" transform="translate(-124.234 -44.313)" fill="#f5fffa"/>
        <path id="Trazado_100370" data-name="Trazado 100370" d="M139.708,89.436V74.662c0-7.38,12.542-15.7,25.855-16.69q-1.307-.1-2.622-.1c-14.238,0-28.476,8.925-28.476,16.789V89.436a28.476,28.476,0,0,0,28.476,28.476h0c.884,0,1.758-.042,2.622-.121A28.477,28.477,0,0,1,139.708,89.436Z" transform="translate(-124.233 -44.313)" fill="#333" opacity="0.1"/>
        <path id="Trazado_100371" data-name="Trazado 100371" d="M162.941,7.993h0a28.476,28.476,0,0,0-28.476,28.476v5.118c23.213-4.144,28.476-19.253,28.476-19.253s5.263,15.109,28.476,19.253V36.469A28.476,28.476,0,0,0,162.941,7.993Z" transform="translate(-124.234 -6.12)" fill="#9ddfd3"/>
        <path id="Trazado_100372" data-name="Trazado 100372" d="M139.708,36.467A28.478,28.478,0,0,1,165.563,8.112c-.863-.079-1.738-.121-2.622-.121h0a28.476,28.476,0,0,0-28.476,28.476v5.118c1.862-.332,3.606-.736,5.244-1.2V36.467Z" transform="translate(-124.234 -6.119)" fill="#dbf6e9"/>
        <path id="Trazado_100373" data-name="Trazado 100373" d="M151.056,346.863H120.385a21.47,21.47,0,0,0-21.47,21.47v15.349h73.61V368.333A21.47,21.47,0,0,0,151.056,346.863Z" transform="translate(-97.013 -265.592)" fill="#ffc93c"/>
        <g id="Grupo_55069" data-name="Grupo 55069" transform="translate(1.901 81.271)">
          <path id="Trazado_100374" data-name="Trazado 100374" d="M112.236,353.713a21.473,21.473,0,0,0-13.321,19.865v15.349h13.321Z" transform="translate(-98.915 -352.108)" fill="#fff9f2"/>
          <path id="Trazado_100375" data-name="Trazado 100375" d="M356.228,353.713a21.473,21.473,0,0,1,13.322,19.865v15.349H356.228Z" transform="translate(-295.939 -352.108)" fill="#fff9f2"/>
          <path id="Trazado_100376" data-name="Trazado 100376" d="M195.111,373.265l18.633-26.15a21.619,21.619,0,0,0-3.3-.252H179.775a21.66,21.66,0,0,0-3.3.252Z" transform="translate(-158.305 -346.863)" fill="#fff9f2"/>
        </g>
        <path id="Trazado_100377" data-name="Trazado 100377" d="M242.269,346.863l2.924,3.995-2.924,5.108h-3.682l-2.924-5.108,2.924-3.995Z" transform="translate(-201.721 -265.592)" fill="#f9a"/>
        <path id="Trazado_100378" data-name="Trazado 100378" d="M245.947,396.792l-2.591-11.077h-3.682l-2.591,11.077,4.433,6.222Z" transform="translate(-202.808 -295.341)" fill="#ff8095"/>
        <g id="Grupo_55070" data-name="Grupo 55070">
          <circle id="Elipse_1244" data-name="Elipse 1244" cx="3.687" cy="3.687" r="3.687" transform="translate(21.642 36.974)" fill="#31326f"/>
          <circle id="Elipse_1245" data-name="Elipse 1245" cx="3.687" cy="3.687" r="3.687" transform="translate(48.342 36.974)" fill="#31326f"/>
          <path id="Trazado_100379" data-name="Trazado 100379" d="M168.118,101.743a25.371,25.371,0,0,0-1.071-6.133,23.322,23.322,0,0,0-7.22-10.752V55.271a11,11,0,0,0,0-21.342V30.349a30.349,30.349,0,1,0-60.7,0v3.58a11,11,0,0,0,0,21.342V84.858c0,.271-1.522,1.39-1.766,1.641a23.208,23.208,0,0,0-4.439,6.488c-2,4.358-2.124,8.844-2.124,13.538V118.09a1.873,1.873,0,0,0,1.873,1.873h73.611a1.873,1.873,0,0,0,1.873-1.873v-7.445C168.156,107.7,168.307,104.7,168.118,101.743Zm-8.291-56.617h0v-7.27a7.251,7.251,0,0,1,0,13.486ZM102.875,30.349a26.6,26.6,0,1,1,53.206,0v2.834q-.359-.079-.711-.163a41.47,41.47,0,0,1-17.12-8.28,20.02,20.02,0,0,1-1.749-1.611,23.26,23.26,0,0,1-5.255-7.533,1.869,1.869,0,0,0-3.5-.078c-.01.024-.023.046-.032.071a19.4,19.4,0,0,1-2.518,4.355l-.009.013-.127.17a31.143,31.143,0,0,1-8.325,7.546l-.135.086-.25.153a44.435,44.435,0,0,1-13.473,5.27V30.349Zm0,10.311V37.013c.125-.026.245-.053.369-.08,9.769-2.08,19.644-7.075,25.454-15.446.288-.415.548-.812.78-1.187a30.861,30.861,0,0,0,4.2,5.3A40.963,40.963,0,0,0,149.9,35.389a54.63,54.63,0,0,0,5.813,1.545c.122.026.242.053.365.079v7.178a28.244,28.244,0,0,1-3.248,13.658A26.868,26.868,0,0,1,145,66.719a26.53,26.53,0,0,1-31.041,0,26.865,26.865,0,0,1-7.014-7.472,26.568,26.568,0,0,1-3.873-10.926A64.246,64.246,0,0,1,102.875,40.66ZM130.233,88.5h-1.511l-1.78-3.111,1.645-2.247h1.782l1.645,2.247Zm1.661,12.553-2.416,3.392-2.417-3.392,2.06-8.807h.712ZM131.319,79.4h-7.838v-4.52c0,.331,4.892.576,5.357.586a30.555,30.555,0,0,0,6.637-.586V79.4Zm-8.231,6.8,2.558,4.469-1.48,6.325L114.3,83.143h9.645l-.744,1.016A1.873,1.873,0,0,0,123.088,86.2Zm12.666-2.036-.744-1.016h9.647L134.79,96.992l-1.48-6.327,2.558-4.469A1.873,1.873,0,0,0,135.754,84.159ZM94.546,44.6a7.316,7.316,0,0,1,4.584-6.743V51.341A7.267,7.267,0,0,1,94.546,44.6Zm9.576,71.62H94.546V102.741c0-.3.009-.6.023-.9q0-.1.01-.2c.017-.3.038-.6.068-.9l0-.015c.032-.309.071-.615.117-.92l.012-.082A19.615,19.615,0,0,1,102.4,87.062l.061-.045q.353-.263.717-.51l.029-.02c.3-.2.606-.394.916-.579v30.309Zm-1.247-33.923V59.718c.025.045.052.088.076.133a30.77,30.77,0,0,0,16.784,14.016V79.4a64.072,64.072,0,0,0-8.906.234,23,23,0,0,0-4.177.991C106.207,80.773,102.875,81.843,102.875,82.294Zm48.214,33.923H107.867V84.18a19.517,19.517,0,0,1,2.148-.6l17.938,25.175a1.872,1.872,0,0,0,1.525.786h0c.055,0,.109-.005.163-.01.021,0,.042,0,.062,0,.044-.005.087-.015.13-.024s.06-.009.09-.016.041-.013.062-.019c.05-.014.1-.028.15-.046l.01,0a1.87,1.87,0,0,0,.859-.663l17.938-25.175a19.355,19.355,0,0,1,2.147.6v32.038h0Zm-3.581-36.638a41.335,41.335,0,0,0-4.3-.181h-3.99v-5.53c.1-.035.2-.071.3-.107l.246-.087a30.734,30.734,0,0,0,15.757-12.995l.124-.209q.186-.315.363-.635c.022-.039.045-.078.067-.117V82.294c0-.286-2.278-1.107-2.579-1.228a22.943,22.943,0,0,0-3.01-.974A21.588,21.588,0,0,0,147.509,79.579Zm16.9,36.638h-9.576V85.908c.31.185.616.376.914.578l.033.023q.362.245.712.506l.066.049a19.615,19.615,0,0,1,7.619,12.663c0,.027.008.055.012.082.046.3.086.611.117.92l0,.015c.03.3.052.6.068.9,0,.066.007.132.01.2.014.3.023.6.023.9v13.477Z" transform="translate(-90.8)" fill="#31326f"/>
          <path id="Trazado_100380" data-name="Trazado 100380" d="M207.705,227.65a1.873,1.873,0,0,0,.431,2.613c2.4,1.717,6.354,2.743,10.588,2.743s8.19-1.025,10.586-2.741a1.873,1.873,0,1,0-2.181-3.045c-1.757,1.258-4.978,2.04-8.4,2.04s-6.65-.782-8.406-2.041A1.872,1.872,0,0,0,207.705,227.65Z" transform="translate(-180.045 -173.712)" fill="#31326f"/>
        </g>
      </g>
      <g id="Elipse_1246" data-name="Elipse 1246" transform="translate(414.779 5964.465)" fill="#edfff6" stroke="#9ddfd3" stroke-width="1">
        <circle cx="51.5" cy="51.5" r="51.5" stroke="none"/>
        <circle cx="51.5" cy="51.5" r="51" fill="none"/>
      </g>
      <g id="biologia" transform="translate(435.356 5982.766)">
        <g id="Grupo_55066" data-name="Grupo 55066" transform="translate(0.757 0.756)">
          <g id="Grupo_55042" data-name="Grupo 55042" transform="translate(54.74 0.29)">
            <path id="Trazado_100343" data-name="Trazado 100343" d="M61.581,9.581a2.708,2.708,0,0,1-1.916.8,1.056,1.056,0,0,1-.733-.3l-.743-.743L55.047,6.188,54.3,5.445a1.056,1.056,0,0,1-.3-.733A2.717,2.717,0,0,1,56.712,2a1.056,1.056,0,0,1,.733.3l4.628,4.628a1.056,1.056,0,0,1,.3.733A2.708,2.708,0,0,1,61.581,9.581Z" transform="translate(-54 -2)" fill="#aab2bd"/>
          </g>
          <g id="Grupo_55043" data-name="Grupo 55043" transform="translate(52.64 4.484)">
            <path id="Trazado_100344" data-name="Trazado 100344" d="M0,0H4.443V4.443H0Z" transform="translate(0 3.141) rotate(-45)" fill="#aab2bd"/>
          </g>
          <g id="Grupo_55044" data-name="Grupo 55044" transform="translate(33.798 6.573)">
            <path id="Trazado_100345" data-name="Trazado 100345" d="M56.293,12.492a2.528,2.528,0,0,1,0,3.581l-5.246,5.246a4.1,4.1,0,0,0-2.387-.754,4.187,4.187,0,0,0-4.188,4.188,4.1,4.1,0,0,0,.754,2.387l-3.9,3.9L34,23.707l1.571-1.571L48.963,8.743a2.528,2.528,0,0,1,3.581,0l.3.3,3.141,3.141Z" transform="translate(-34 -8)" fill="#ccd1d9"/>
          </g>
          <g id="Grupo_55045" data-name="Grupo 55045" transform="translate(31.704 22.28)">
            <path id="Trazado_100346" data-name="Trazado 100346" d="M41.424,30.33l-1.351,1.351a2.528,2.528,0,0,1-3.581,0l-3.749-3.749a2.528,2.528,0,0,1,0-3.581L34.094,23Z" transform="translate(-32 -23)" fill="#ccd1d9"/>
          </g>
          <g id="Grupo_55046" data-name="Grupo 55046" transform="translate(29.609 44.269)">
            <path id="Trazado_100347" data-name="Trazado 100347" d="M30,44H46.754a2.1,2.1,0,0,1,2.094,2.094,6.267,6.267,0,0,0-4.681,2.094H30Z" transform="translate(-30 -44)" fill="#ccd1d9"/>
          </g>
          <g id="Grupo_55047" data-name="Grupo 55047" transform="translate(48.457 23.327)">
            <path id="Trazado_100348" data-name="Trazado 100348" d="M52.188,24l3.183,3.183a24.879,24.879,0,0,1,4.157,29.675l-2.01,3.623-.01.01a3.089,3.089,0,0,0-2.178-.89H48a6.286,6.286,0,0,0,5.592-9.152,16,16,0,0,0-3.613-21.822l-.806-.607A4.178,4.178,0,0,0,52.188,24Z" transform="translate(-48 -24)" fill="#aab2bd"/>
          </g>
          <g id="Grupo_55048" data-name="Grupo 55048" transform="translate(27.515 58.929)">
            <path id="Trazado_100349" data-name="Trazado 100349" d="M28.995,58H56.272a3.163,3.163,0,0,1,3.141,3.141,1.05,1.05,0,0,1-1.047,1.047H29.047A1.05,1.05,0,0,1,28,61.141V59.047a1.038,1.038,0,0,1,.995-1.037Z" transform="translate(-28 -58)" fill="#aab2bd"/>
          </g>
          <g id="Grupo_55049" data-name="Grupo 55049" transform="translate(0 2.492)">
            <ellipse id="Elipse_1236" data-name="Elipse 1236" cx="3.426" cy="3.115" rx="3.426" ry="3.115" transform="translate(0 0)" fill="#69d6f4"/>
          </g>
          <g id="Grupo_55050" data-name="Grupo 55050" transform="translate(2.492 16.82)">
            <circle id="Elipse_1237" data-name="Elipse 1237" cx="3.115" cy="3.115" r="3.115" transform="translate(0 0)" fill="#69d6f4"/>
          </g>
          <g id="Grupo_55051" data-name="Grupo 55051" transform="translate(13.082 10.59)">
            <ellipse id="Elipse_1238" data-name="Elipse 1238" cx="1.869" cy="2.18" rx="1.869" ry="2.18" transform="translate(0 0)" fill="#69d6f4"/>
          </g>
          <g id="Grupo_55052" data-name="Grupo 55052" transform="translate(10.59 23.049)">
            <circle id="Elipse_1239" data-name="Elipse 1239" cx="2.18" cy="2.18" r="2.18" transform="translate(0 0)" fill="#69d6f4"/>
          </g>
          <g id="Grupo_55053" data-name="Grupo 55053" transform="translate(27.41 0)">
            <circle id="Elipse_1240" data-name="Elipse 1240" cx="2.18" cy="2.18" r="2.18" transform="translate(0)" fill="#69d6f4"/>
          </g>
          <g id="Grupo_55054" data-name="Grupo 55054" transform="translate(44.23 4.361)">
            <circle id="Elipse_1241" data-name="Elipse 1241" cx="2.18" cy="2.18" r="2.18" transform="translate(0 0)" fill="#69d6f4"/>
          </g>
          <g id="Grupo_55055" data-name="Grupo 55055" transform="translate(31.704 17.044)">
            <path id="Trazado_100350" data-name="Trazado 100350" d="M34.094,18a2.1,2.1,0,0,1,2.094,2.094,2.109,2.109,0,0,1-2.094,2.094,2.094,2.094,0,0,1-.995-3.937A2.124,2.124,0,0,1,34.094,18Z" transform="translate(-32 -18)" fill="#69d6f4"/>
          </g>
          <g id="Grupo_55056" data-name="Grupo 55056" transform="translate(25.421 8.667)">
            <path id="Trazado_100351" data-name="Trazado 100351" d="M36.471,10s0,6.408-5.613,8.021a9.952,9.952,0,0,1-2.764.356H26C26,15.236,28.094,10,36.471,10Z" transform="translate(-26 -10)" fill="#b4dd7f"/>
          </g>
          <g id="Grupo_55057" data-name="Grupo 55057" transform="translate(14.95 0.29)">
            <path id="Trazado_100352" data-name="Trazado 100352" d="M26.471,10.377H24.377C16,10.377,16,2,16,2,24.377,2,26.471,7.236,26.471,10.377Z" transform="translate(-16 -2)" fill="#b4dd7f"/>
          </g>
          <g id="Grupo_55058" data-name="Grupo 55058" transform="translate(14.95 14.95)">
            <path id="Trazado_100353" data-name="Trazado 100353" d="M26.471,24.377H24.377C16,24.377,16,16,16,16,24.377,16,26.471,21.236,26.471,24.377Z" transform="translate(-16 -16)" fill="#b4dd7f"/>
          </g>
          <g id="Grupo_55059" data-name="Grupo 55059" transform="translate(4.479 35.892)">
            <path id="Trazado_100354" data-name="Trazado 100354" d="M6,36V54.848a4.188,4.188,0,1,0,8.377,0V36Z" transform="translate(-6 -36)" fill="#f0d0b4"/>
          </g>
          <g id="Grupo_55060" data-name="Grupo 55060" transform="translate(21.232 35.892)">
            <path id="Trazado_100355" data-name="Trazado 100355" d="M22,36V54.848a4.188,4.188,0,1,0,8.377,0V36Z" transform="translate(-22 -36)" fill="#f0d0b4"/>
          </g>
          <g id="Grupo_55061" data-name="Grupo 55061" transform="translate(19.138 31.704)">
            <path id="Trazado_100356" data-name="Trazado 100356" d="M32.565,33.047v2.094a1.05,1.05,0,0,1-1.047,1.047H21.047A1.05,1.05,0,0,1,20,35.141V33.047A1.05,1.05,0,0,1,21.047,32H31.518A1.05,1.05,0,0,1,32.565,33.047Z" transform="translate(-20 -32)" fill="#dfb28b"/>
          </g>
          <g id="Grupo_55062" data-name="Grupo 55062" transform="translate(2.384 31.704)">
            <path id="Trazado_100357" data-name="Trazado 100357" d="M16.565,33.047v2.094a1.05,1.05,0,0,1-1.047,1.047H5.047A1.05,1.05,0,0,1,4,35.141V33.047A1.05,1.05,0,0,1,5.047,32H15.518A1.05,1.05,0,0,1,16.565,33.047Z" transform="translate(-4 -32)" fill="#dfb28b"/>
          </g>
          <g id="Grupo_55063" data-name="Grupo 55063" transform="translate(44.269 19.138)">
            <path id="Trazado_100358" data-name="Trazado 100358" d="M48.188,20a4.1,4.1,0,0,1,2.387.754,4.183,4.183,0,0,1-1.215,7.455,4.348,4.348,0,0,1-1.173.168,4.168,4.168,0,0,1-3.435-1.8A4.1,4.1,0,0,1,44,24.188,4.187,4.187,0,0,1,48.188,20Z" transform="translate(-44 -20)" fill="#fcd770"/>
          </g>
          <g id="Grupo_55064" data-name="Grupo 55064" transform="translate(42.175 46.363)">
            <path id="Trazado_100359" data-name="Trazado 100359" d="M53.874,49.414A6.283,6.283,0,1,1,48.283,46,6.273,6.273,0,0,1,53.874,49.414Z" transform="translate(-42 -46)" fill="#fcd770"/>
          </g>
          <g id="Grupo_55065" data-name="Grupo 55065" transform="translate(46.099 50.459)">
            <circle id="Elipse_1242" data-name="Elipse 1242" cx="2.18" cy="2.18" r="2.18" transform="translate(0 0)" fill="#ccd1d9"/>
          </g>
        </g>
        <g id="Grupo_55067" data-name="Grupo 55067" transform="translate(0 -0.001)">
          <circle id="Elipse_1243" data-name="Elipse 1243" cx="0.934" cy="0.934" r="0.934" transform="translate(48.101 23.183)" fill="#31326f"/>
          <path id="Trazado_100360" data-name="Trazado 100360" d="M48.141,49a3.141,3.141,0,1,0,3.141,3.141A3.145,3.145,0,0,0,48.141,49Zm0,4.188a1.047,1.047,0,1,1,1.047-1.047A1.049,1.049,0,0,1,48.141,53.188Z" transform="translate(1.073 1.262)" fill="#31326f"/>
          <path id="Trazado_100361" data-name="Trazado 100361" d="M55.4,24.6a5.193,5.193,0,0,0-1.29-2.98l4.481-4.481a3.56,3.56,0,0,0,.392-4.58l1.7-1.7a2.08,2.08,0,0,0,1.481.614,3.758,3.758,0,0,0,3.755-3.755,2.08,2.08,0,0,0-.614-1.481L60.686,1.614A2.08,2.08,0,0,0,59.2,1,3.758,3.758,0,0,0,55.45,4.755a2.08,2.08,0,0,0,.614,1.481L54.357,7.942a3.7,3.7,0,0,0-3.216-.427,3.135,3.135,0,1,0-4.25,3.7l-8.446,8.446a3.146,3.146,0,0,0-2.89-1.912c-.024,0-.047.006-.071.007A10.01,10.01,0,0,0,38.7,10.424V9.377H37.649c-4.787,0-7.714,1.647-9.424,3.713V10.424C28.225,6.924,25.8,1,16.707,1H15.66V2.047c0,3.26,1.97,9.424,9.424,9.424h1.047v7.9a10.35,10.35,0,0,0-6.56-3.483,3.142,3.142,0,1,0-3.863,1.686c.321,3.374,2.538,8.555,9.376,8.555h1.047v6.283H21.942a2.1,2.1,0,0,0-2.094,2.094V36.6A2.1,2.1,0,0,0,21.942,38.7V40.79H15.66V38.7A2.1,2.1,0,0,0,17.754,36.6V34.508a2.1,2.1,0,0,0-2.094-2.094H5.188a2.1,2.1,0,0,0-2.094,2.094V36.6A2.1,2.1,0,0,0,5.188,38.7V40.79H4.141A3.145,3.145,0,0,0,1,43.932V65.921H3.094V43.932a1.049,1.049,0,0,1,1.047-1.047H5.188V56.5a5.236,5.236,0,0,0,10.471,0V42.885h6.283V56.5a5.236,5.236,0,0,0,6.293,5.128c0,.037-.01.071-.01.108v2.094a2.1,2.1,0,0,0,2.094,2.094H59.638a2.1,2.1,0,0,0,2.094-2.094,4.162,4.162,0,0,0-.742-2.372l1.668-3a25.929,25.929,0,0,0-4.332-30.927ZM25.084,9.377c-5.569,0-6.907-4.2-7.228-6.245,5.424.368,7.756,3.343,8.2,6.245ZM5.188,34.508H15.66V36.6H5.188ZM7.283,38.7h6.283V40.79H7.283Zm6.283,17.8a3.141,3.141,0,1,1-6.283,0V42.885h6.283ZM50.214,28.225a3.141,3.141,0,1,1,3.141-3.141A3.145,3.145,0,0,1,50.214,28.225ZM59.2,3.094l4.622,4.622a1.662,1.662,0,0,1-1.661,1.661L57.544,4.755A1.662,1.662,0,0,1,59.2,3.094ZM57.544,7.716,59.2,9.377l-1.661,1.661L55.883,9.377ZM53.356,9.81l3.755,3.755a1.481,1.481,0,0,1,0,2.094l-4.692,4.692a5.173,5.173,0,0,0-2.2-.5,5.242,5.242,0,0,0-5.236,5.236,5.173,5.173,0,0,0,.5,2.2l-2.6,2.6-5.849-5.849L51.262,9.81a1.534,1.534,0,0,1,2.094,0ZM34.941,26.131l.614-.614L41.4,31.366l-.614.614a1.534,1.534,0,0,1-2.094,0l-3.755-3.755a1.481,1.481,0,0,1,0-2.094ZM48.12,7.283A1.047,1.047,0,1,1,47.073,8.33,1.049,1.049,0,0,1,48.12,7.283ZM36.6,20.9a1.047,1.047,0,1,1-1.047-1.047A1.049,1.049,0,0,1,36.6,20.9Zm-.1-9.386c-.321,2.048-1.661,6.245-7.228,6.245H28.3C28.745,14.852,31.076,11.876,36.5,11.509ZM16.707,13.565a1.047,1.047,0,1,1-1.047,1.047A1.049,1.049,0,0,1,16.707,13.565Zm8.377,10.471c-5.569,0-6.907-4.2-7.228-6.245,5.424.368,7.756,3.343,8.2,6.245Zm3.141,2.094V19.848h1.047a10.663,10.663,0,0,0,3.61-.582,3.1,3.1,0,0,0-.469,1.629,3.146,3.146,0,0,0,1.912,2.89l-.865.865a3.575,3.575,0,0,0,0,5.055l3.755,3.755a3.575,3.575,0,0,0,5.055,0l4.481-4.481a5.194,5.194,0,0,0,3.463,1.339,5.247,5.247,0,0,0,.922-.093l.426.319A14.927,14.927,0,0,1,55.742,49.6a7.313,7.313,0,0,0-4.657-2.474,3.133,3.133,0,0,0-2.965-2.152H32.413V42.885H36.6V40.79H32.413V38.7A2.1,2.1,0,0,0,34.508,36.6V34.508a2.1,2.1,0,0,0-2.094-2.094H28.225ZM50.214,59.638A5.236,5.236,0,1,1,55.45,54.4,5.242,5.242,0,0,1,50.214,59.638Zm-5.12-10.471H32.413V47.073H48.12a1.014,1.014,0,0,1,.537.171A7.317,7.317,0,0,0,45.094,49.167ZM32.413,56.5V51.261H43.6a7.283,7.283,0,0,0,1.492,8.377H31.339A5.181,5.181,0,0,0,32.413,56.5ZM21.942,34.508H32.413V36.6H21.942ZM24.037,38.7h6.283V40.79H24.037Zm0,17.8V42.885h6.283V56.5a3.141,3.141,0,1,1-6.283,0Zm6.283,7.33V61.733H57.544a2.1,2.1,0,0,1,2.1,2.094Zm30.509-6.392-1.464,2.636a4.155,4.155,0,0,0-1.82-.432H55.335a7.3,7.3,0,0,0,1.654-8.026,17.008,17.008,0,0,0-3.665-22.341,5.251,5.251,0,0,0,1.686-2.1l1.836,1.836a23.836,23.836,0,0,1,3.982,28.429Z" transform="translate(-1 -1)" fill="#31326f"/>
          <path id="Trazado_100362" data-name="Trazado 100362" d="M30.141,7.283A3.141,3.141,0,1,0,27,4.141,3.145,3.145,0,0,0,30.141,7.283Zm0-4.188a1.047,1.047,0,1,1-1.047,1.047A1.049,1.049,0,0,1,30.141,3.094Z" transform="translate(0.225 -1)" fill="#31326f"/>
          <path id="Trazado_100363" data-name="Trazado 100363" d="M14.141,29.283A3.141,3.141,0,1,0,11,26.141,3.145,3.145,0,0,0,14.141,29.283Zm0-4.188a1.047,1.047,0,1,1-1.047,1.047A1.049,1.049,0,0,1,14.141,25.094Z" transform="translate(-0.529 0.037)" fill="#31326f"/>
          <path id="Trazado_100364" data-name="Trazado 100364" d="M5.188,11.377A4.188,4.188,0,1,0,1,7.188,4.193,4.193,0,0,0,5.188,11.377Zm0-6.283A2.094,2.094,0,1,1,3.094,7.188,2.1,2.1,0,0,1,5.188,5.094Z" transform="translate(-1 -0.906)" fill="#31326f"/>
          <path id="Trazado_100365" data-name="Trazado 100365" d="M3,21.188A4.188,4.188,0,1,0,7.188,17,4.193,4.193,0,0,0,3,21.188Zm6.283,0a2.094,2.094,0,1,1-2.094-2.094A2.1,2.1,0,0,1,9.283,21.188Z" transform="translate(-0.906 -0.246)" fill="#31326f"/>
        </g>
      </g>
      <g id="Elipse_1255" data-name="Elipse 1255" transform="translate(234.779 6055.465)" fill="#edfff6" stroke="#9ddfd3" stroke-width="1">
        <circle cx="51" cy="51" r="51" stroke="none"/>
        <circle cx="51" cy="51" r="50.5" fill="none"/>
      </g>
      <g id="chip" transform="translate(249.262 6069.544)">
        <path id="Trazado_100381" data-name="Trazado 100381" d="M165.882,170.517H140.393a4.635,4.635,0,0,1-4.635-4.635V140.394a4.635,4.635,0,0,1,4.635-4.635h25.489a4.635,4.635,0,0,1,4.635,4.635v25.49A4.635,4.635,0,0,1,165.882,170.517Z" transform="translate(-116.136 -116.137)" fill="#4bd7c8"/>
        <path id="Trazado_100382" data-name="Trazado 100382" d="M186.455,187.615H160.966a1.159,1.159,0,0,1-1.159-1.159v-25.49a1.159,1.159,0,0,1,1.159-1.159h25.49a1.159,1.159,0,0,1,1.159,1.159v25.49A1.159,1.159,0,0,1,186.455,187.615Z" transform="translate(-136.709 -136.71)" fill="#99e9df"/>
        <g id="Grupo_55072" data-name="Grupo 55072" transform="translate(3.401 25.415)">
          <circle id="Elipse_1247" data-name="Elipse 1247" cx="2.317" cy="2.317" r="2.317" fill="#4bd7c8"/>
          <circle id="Elipse_1248" data-name="Elipse 1248" cx="2.317" cy="2.317" r="2.317" transform="translate(62.566 18.538)" fill="#4bd7c8"/>
        </g>
        <g id="Grupo_55073" data-name="Grupo 55073" transform="translate(1.084 14.988)">
          <circle id="Elipse_1249" data-name="Elipse 1249" cx="2.317" cy="2.317" r="2.317" transform="translate(0 39.392)" fill="#99e9df"/>
          <circle id="Elipse_1250" data-name="Elipse 1250" cx="2.317" cy="2.317" r="2.317" transform="translate(67.2)" fill="#99e9df"/>
        </g>
        <g id="Grupo_55074" data-name="Grupo 55074" transform="translate(25.415 3.402)">
          <circle id="Elipse_1251" data-name="Elipse 1251" cx="2.317" cy="2.317" r="2.317" transform="translate(18.538)" fill="#4bd7c8"/>
          <circle id="Elipse_1252" data-name="Elipse 1252" cx="2.317" cy="2.317" r="2.317" transform="translate(0 62.566)" fill="#4bd7c8"/>
        </g>
        <g id="Grupo_55075" data-name="Grupo 55075" transform="translate(14.988 1.084)">
          <circle id="Elipse_1253" data-name="Elipse 1253" cx="2.317" cy="2.317" r="2.317" fill="#99e9df"/>
          <circle id="Elipse_1254" data-name="Elipse 1254" cx="2.317" cy="2.317" r="2.317" transform="translate(39.392 67.2)" fill="#99e9df"/>
        </g>
        <path id="Trazado_100383" data-name="Trazado 100383" d="M194.283,197.29a1.159,1.159,0,0,1,.864.387,4.072,4.072,0,0,0,3.046,1.335,3.752,3.752,0,0,0,3.876-3.231,1.16,1.16,0,0,1,.571-.907,4.012,4.012,0,0,0,2.069-3.393,3.784,3.784,0,0,0-1.142-2.661,1.159,1.159,0,0,1,0-1.63,3.784,3.784,0,0,0,1.142-2.661,4.122,4.122,0,0,0-3.178-3.838,1.159,1.159,0,0,1-.809-1.374,2.579,2.579,0,0,0,.077-.581,3.1,3.1,0,0,0-3.259-2.9,3.448,3.448,0,0,0-2.437.979,1.194,1.194,0,0,1-1.643,0,3.447,3.447,0,0,0-2.437-.979,3.1,3.1,0,0,0-3.259,2.9,2.688,2.688,0,0,0,.062.571,1.158,1.158,0,0,1-.811,1.363,4.126,4.126,0,0,0-3.161,3.859,3.68,3.68,0,0,0,.877,2.353,1.159,1.159,0,0,1,.028,1.436,4.272,4.272,0,0,0-.905,2.583,4.51,4.51,0,0,0,2.1,3.707,1.16,1.16,0,0,1,.516.954,3.724,3.724,0,0,0,3.906,3.449,4.072,4.072,0,0,0,3.046-1.335A1.157,1.157,0,0,1,194.283,197.29Z" transform="translate(-157.283 -150.425)" fill="#ccf4ef"/>
        <path id="Trazado_100384" data-name="Trazado 100384" d="M155.219,35.918H137.765V33.452h4.709a1.084,1.084,0,1,0,0-2.168h-4.709V28.817h3.269a4.53,4.53,0,0,0,3.224-1.336l7.129-7.129a3.4,3.4,0,1,0-1.533-1.533l-7.129,7.129a2.376,2.376,0,0,1-1.691.7h-3.269V24.257a5.725,5.725,0,0,0-5.718-5.718h-2.392v-9.6a3.4,3.4,0,1,0-2.168,0v9.6H125.02V13.83a1.084,1.084,0,0,0-2.168,0v4.709h-2.466V1.085a1.084,1.084,0,0,0-2.168,0V18.539h-2.466V13.83a1.084,1.084,0,1,0-2.168,0v4.709h-2.466V15.27a4.53,4.53,0,0,0-1.336-3.224l-7.132-7.132a3.4,3.4,0,1,0-1.533,1.533l7.132,7.132a2.376,2.376,0,0,1,.7,1.691v3.269h-2.392a5.742,5.742,0,0,0-1.429.18,1.084,1.084,0,1,0,.54,2.1,3.57,3.57,0,0,1,.889-.112h25.489a3.554,3.554,0,0,1,3.55,3.55v25.49a3.572,3.572,0,0,1-.112.888,1.084,1.084,0,1,0,2.1.54,5.736,5.736,0,0,0,.18-1.428V47.355h9.6a3.4,3.4,0,1,0,0-2.168h-9.6V42.72h4.709a1.084,1.084,0,0,0,0-2.168h-4.709V38.086h17.454a1.084,1.084,0,1,0,0-2.168ZM152.03,16.434a1.233,1.233,0,1,1,0,1.744h0a1.233,1.233,0,0,1,0-1.744ZM128.571,4.486a1.233,1.233,0,1,1-1.233,1.233A1.235,1.235,0,0,1,128.571,4.486ZM98.733,4.274a1.233,1.233,0,1,1,1.744,0h0A1.235,1.235,0,0,1,98.733,4.274Zm51.851,40.763a1.233,1.233,0,1,1-1.233,1.233A1.235,1.235,0,0,1,150.584,45.038Z" transform="translate(-82.301 -0.001)" fill="#31326f"/>
        <path id="Trazado_100385" data-name="Trazado 100385" d="M55.186,197.849l-7.132-7.132a2.376,2.376,0,0,1-.7-1.691v-3.269h2.392a5.739,5.739,0,0,0,1.429-.18,1.084,1.084,0,0,0-.54-2.1,3.569,3.569,0,0,1-.888.112H24.256a3.554,3.554,0,0,1-3.55-3.55V154.549a3.566,3.566,0,0,1,.112-.888,1.084,1.084,0,0,0-2.1-.541,5.731,5.731,0,0,0-.18,1.429v2.392h-9.6a3.4,3.4,0,1,0,0,2.168h9.6v2.467H13.829a1.084,1.084,0,1,0,0,2.168h4.709v2.466H1.084a1.084,1.084,0,0,0,0,2.168H18.538v2.466H13.829a1.084,1.084,0,1,0,0,2.168h4.709v2.466H15.268a4.53,4.53,0,0,0-3.224,1.335l-7.129,7.129a3.4,3.4,0,1,0,1.533,1.533l7.129-7.129a2.376,2.376,0,0,1,1.691-.7h3.269v2.392a5.725,5.725,0,0,0,5.718,5.718h2.392v9.6a3.4,3.4,0,1,0,2.168,0v-9.6h2.466v4.709a1.084,1.084,0,1,0,2.168,0v-4.709h2.466v17.454a1.084,1.084,0,0,0,2.168,0V185.757h2.466v4.709a1.084,1.084,0,0,0,2.168,0v-4.709h2.466v3.269a4.53,4.53,0,0,0,1.336,3.224l7.132,7.132a3.4,3.4,0,1,0,1.533-1.533ZM5.718,159.258a1.233,1.233,0,1,1,1.233-1.233A1.235,1.235,0,0,1,5.718,159.258Zm-1.445,28.6a1.233,1.233,0,1,1,0-1.744h0a1.233,1.233,0,0,1,0,1.744ZM27.732,199.81a1.233,1.233,0,1,1,1.233-1.233A1.235,1.235,0,0,1,27.732,199.81Zm29.837,1.956a1.233,1.233,0,1,1,0-1.744A1.235,1.235,0,0,1,57.57,201.766Z" transform="translate(0 -130.293)" fill="#31326f"/>
        <path id="Trazado_100386" data-name="Trazado 100386" d="M178.964,189.118v0a4.8,4.8,0,0,0,4.994,4.56,5.172,5.172,0,0,0,3.91-1.728,5.172,5.172,0,0,0,3.91,1.728,4.831,4.831,0,0,0,4.984-4.279,5.067,5.067,0,0,0,2.617-4.336,4.886,4.886,0,0,0-1.508-3.476,4.887,4.887,0,0,0,1.508-3.476,5.236,5.236,0,0,0-4.017-4.92,3.7,3.7,0,0,0,.107-.873,4.178,4.178,0,0,0-4.343-3.981,4.509,4.509,0,0,0-3.259,1.354,4.51,4.51,0,0,0-3.259-1.354,4.178,4.178,0,0,0-4.343,3.981,3.7,3.7,0,0,0,.107.873,5.236,5.236,0,0,0-4.017,4.92A4.761,4.761,0,0,0,177.5,181.2a5.36,5.36,0,0,0-1.142,3.288A5.583,5.583,0,0,0,178.964,189.118Zm3.012-13.975.029,0a1.083,1.083,0,0,0,.92-1.655c-.008-.013-.016-.027-.024-.04l-.014-.019c-.017-.024-.034-.047-.053-.069l0,0a1.609,1.609,0,0,1-.4-1.04,2.211,2.211,0,0,1,4.349,0,1.084,1.084,0,0,0,2.168,0,2.211,2.211,0,0,1,4.349,0,1.524,1.524,0,0,1-.163.682,6.019,6.019,0,0,0-1.779.446,1.084,1.084,0,1,0,.842,2,3.914,3.914,0,0,1,1.5-.3h.031l.029,0a3.254,3.254,0,0,1,3.451,2.971,2.892,2.892,0,0,1-1.668,2.517,1.084,1.084,0,0,0,0,1.917,2.892,2.892,0,0,1,1.668,2.517,2.773,2.773,0,0,1-.955,2.038,4.866,4.866,0,0,0-2.85-2.3,1.084,1.084,0,0,0-.65,2.068,2.459,2.459,0,0,1,1.848,2.244,2.866,2.866,0,0,1-5.653,0v-6.952a2.639,2.639,0,0,1,2.826-2.392,1.084,1.084,0,0,0,0-2.168,5.3,5.3,0,0,0-2.826.8v-1.385a1.084,1.084,0,0,0-2.168,0v6.018a5.166,5.166,0,0,0-1.2-.554,1.084,1.084,0,0,0-.65,2.068,2.459,2.459,0,0,1,1.848,2.244v2.317a2.866,2.866,0,0,1-5.653,0,2.185,2.185,0,0,1,.675-1.547,1.084,1.084,0,0,0-1.528-1.538,4.613,4.613,0,0,0-.669.84,3.307,3.307,0,0,1-1.084-2.39,3.692,3.692,0,0,1,3.065-3.431,1.084,1.084,0,0,0-.485-2.113,6.6,6.6,0,0,0-1.989.81,2.616,2.616,0,0,1-.592-1.638A3.254,3.254,0,0,1,181.976,175.143Z" transform="translate(-150.867 -144.009)" fill="#31326f"/>
      </g>
      <g id="Elipse_1256" data-name="Elipse 1256" transform="translate(448.779 6078.465)" fill="#edfff6" stroke="#9ddfd3" stroke-width="1">
        <circle cx="48.5" cy="48.5" r="48.5" stroke="none"/>
        <circle cx="48.5" cy="48.5" r="48" fill="none"/>
      </g>
      <g id="algebra_1_" data-name="algebra (1)" transform="translate(460.86 6097.593)">
        <g id="Grupo_55076" data-name="Grupo 55076" transform="translate(1.046 1.046)">
          <path id="Trazado_100387" data-name="Trazado 100387" d="M70.066,81.026a2.841,2.841,0,0,1-2.841-2.841V73.167a2.841,2.841,0,1,1,5.682,0v5.018A2.841,2.841,0,0,1,70.066,81.026Z" transform="translate(-58.897 -70.326)" fill="#537983"/>
          <path id="Trazado_100388" data-name="Trazado 100388" d="M78.834,70.326a2.823,2.823,0,0,0-1.42.383,2.837,2.837,0,0,1,1.421,2.458v5.018a2.838,2.838,0,0,1-1.421,2.458,2.837,2.837,0,0,0,4.261-2.458V73.167A2.841,2.841,0,0,0,78.834,70.326Z" transform="translate(-67.665 -70.326)" fill="#3e5959"/>
          <path id="Trazado_100389" data-name="Trazado 100389" d="M406.459,81.026a2.841,2.841,0,0,1-2.841-2.841V73.167a2.841,2.841,0,1,1,5.682,0v5.018A2.841,2.841,0,0,1,406.459,81.026Z" transform="translate(-348.384 -70.326)" fill="#537983"/>
          <path id="Trazado_100390" data-name="Trazado 100390" d="M415.226,70.326a2.824,2.824,0,0,0-1.42.383,2.837,2.837,0,0,1,1.421,2.458v5.018a2.838,2.838,0,0,1-1.421,2.458,2.838,2.838,0,0,0,4.261-2.458V73.167A2.841,2.841,0,0,0,415.226,70.326Z" transform="translate(-357.151 -70.326)" fill="#3e5959"/>
          <path id="Trazado_100391" data-name="Trazado 100391" d="M87.978,158.015H23V120.428a2.39,2.39,0,0,1,2.39-2.39h60.2a2.39,2.39,0,0,1,2.39,2.39Z" transform="translate(-20.839 -111.385)" fill="#9ddfd3"/>
          <path id="Trazado_100392" data-name="Trazado 100392" d="M449.41,118.038h-3.638a2.39,2.39,0,0,1,2.39,2.39v37.587H451.8V120.428A2.39,2.39,0,0,0,449.41,118.038Z" transform="translate(-384.661 -111.385)" fill="#00c285"/>
          <path id="Trazado_100393" data-name="Trazado 100393" d="M377.113,374.228H358.984v-4.772a1.97,1.97,0,0,1,1.97-1.97h14.189a1.97,1.97,0,0,1,1.97,1.97v4.772Z" transform="translate(-309.974 -326.05)" fill="#6c7fd8"/>
          <path id="Trazado_100394" data-name="Trazado 100394" d="M452.422,367.486h-3.638a1.97,1.97,0,0,1,1.97,1.97v4.772h3.638v-4.772A1.97,1.97,0,0,0,452.422,367.486Z" transform="translate(-387.252 -326.05)" fill="#4f66d0"/>
          <path id="Trazado_100395" data-name="Trazado 100395" d="M7.5,404.85H76.8v5.135H7.5Z" transform="translate(-7.5 -358.204)" fill="#ffcebf"/>
          <path id="Trazado_100396" data-name="Trazado 100396" d="M462.372,404.85a1.216,1.216,0,0,1,1.216,1.216v2.7a1.216,1.216,0,0,1-1.216,1.216h5.874V404.85Z" transform="translate(-398.945 -358.204)" fill="#ffb09e"/>
        </g>
        <g id="Grupo_55077" data-name="Grupo 55077" transform="translate(0 0)">
          <path id="Trazado_100397" data-name="Trazado 100397" d="M295.479,242.126a1.094,1.094,0,0,0,1.33-.647l4.2-12.142a1.046,1.046,0,1,0-1.977-.683l-2.024,5.853-2.077-5.861a1.046,1.046,0,1,0-1.971.7l2.953,8.331-1.079,3.12A1.046,1.046,0,0,0,295.479,242.126Z" transform="translate(-252.057 -204.925)" fill="#31326f"/>
          <path id="Trazado_100398" data-name="Trazado 100398" d="M108.433,237.946a1.1,1.1,0,0,0,1.465-.205l2.39-3.17,2.517,3.316a1.06,1.06,0,0,0,1.465.2,1.046,1.046,0,0,0,.2-1.465l-2.874-3.787,2.419-3.208a1.046,1.046,0,0,0-1.67-1.259l-2.063,2.736-2.078-2.739a1.046,1.046,0,1,0-1.666,1.264l2.436,3.21-2.746,3.642A1.045,1.045,0,0,0,108.433,237.946Z" transform="translate(-92.955 -204.927)" fill="#31326f"/>
          <path id="Trazado_100399" data-name="Trazado 100399" d="M205.281,244.2a1.046,1.046,0,0,0,1.046-1.046v-2.207h2.13a1.046,1.046,0,0,0,0-2.092h-2.13v-2.13a1.046,1.046,0,1,0-2.092,0v2.13h-2.207a1.046,1.046,0,1,0,0,2.092h2.207v2.207A1.046,1.046,0,0,0,205.281,244.2Z" transform="translate(-172.958 -211.58)" fill="#31326f"/>
          <path id="Trazado_100400" data-name="Trazado 100400" d="M59.364,223.307a1.046,1.046,0,0,0-1.359.583c-.069.172-1.666,4.283-.039,10.383a1.046,1.046,0,0,0,1.01.777,1.087,1.087,0,0,0,1.011-1.315,15.841,15.841,0,0,1-.038-9.071A1.046,1.046,0,0,0,59.364,223.307Z" transform="translate(-49.257 -200.865)" fill="#31326f"/>
          <path id="Trazado_100401" data-name="Trazado 100401" d="M383.057,232.892a1.093,1.093,0,0,0,1.28-.741c1.626-6.1.029-10.211-.039-10.383a1.046,1.046,0,0,0-1.942.777c.014.036,1.41,3.631-.039,9.068A1.046,1.046,0,0,0,383.057,232.892Z" transform="translate(-328.975 -199.039)" fill="#31326f"/>
          <path id="Trazado_100402" data-name="Trazado 100402" d="M414.367,165.819c-1.14,1.629-1.82,2.52-2.186,3-.47.616-.73.955-.556,1.521a1.091,1.091,0,0,0,.7.71,5.731,5.731,0,0,0,1.673.084c.556,0,1.312-.006,2.348-.019a1.046,1.046,0,0,0-.013-2.092h-.013c-.561.007-1.152.012-1.686.015.372-.5.847-1.161,1.447-2.018a4.957,4.957,0,0,0,.992-2.445,2.892,2.892,0,0,0-5.73-.56,1.046,1.046,0,1,0,2.052.4.8.8,0,0,1,1.567.244A3.755,3.755,0,0,1,414.367,165.819Z" transform="translate(-353.969 -147.897)" fill="#31326f"/>
          <path id="Trazado_100403" data-name="Trazado 100403" d="M70.347,109.471H69.231v-2.194a3.019,3.019,0,0,0-3.016-3.016H52.026a3.019,3.019,0,0,0-3.016,3.016v2.178H4.253V72.914A1.346,1.346,0,0,1,5.6,71.57H65.8a1.346,1.346,0,0,1,1.344,1.344v27.8a1.046,1.046,0,1,0,2.092,0v-27.8A3.44,3.44,0,0,0,65.8,69.478H63.008V66.713a3.887,3.887,0,1,0-7.774,0v2.765H16.1V66.713a3.886,3.886,0,1,0-7.772,0v2.765H5.6a3.44,3.44,0,0,0-3.436,3.436v36.557H1.046A1.046,1.046,0,0,0,0,110.516v5.135A1.046,1.046,0,0,0,1.046,116.7H7.365a1.046,1.046,0,0,0,0-2.092H2.092v-3.043H69.3v3.043H12.408a1.046,1.046,0,0,0,0,2.092H70.347a1.046,1.046,0,0,0,1.046-1.046v-5.135A1.046,1.046,0,0,0,70.347,109.471ZM57.326,66.713a1.795,1.795,0,0,1,3.065-1.269,1.779,1.779,0,0,1,.525,1.269v2.765H57.326Zm-46.906,0a1.8,1.8,0,0,1,1.794-1.8,1.8,1.8,0,0,1,1.795,1.8v2.765H10.42ZM51.1,107.276a.926.926,0,0,1,.924-.924H66.215a.926.926,0,0,1,.924.924v2.178H51.1Z" transform="translate(0 -62.825)" fill="#31326f"/>
        </g>
      </g>
    </g>
  </g>
</svg>
