<svg xmlns="http://www.w3.org/2000/svg" xmlns:xlink="http://www.w3.org/1999/xlink" width="308.72" height="197.132" viewBox="0 0 308.72 197.132">
  <defs>
    <linearGradient id="linear-gradient" x1="0.5" x2="0.5" y2="1" gradientUnits="objectBoundingBox">
      <stop offset="0" stop-color="#dbf6e9"/>
      <stop offset="1" stop-color="#fff"/>
    </linearGradient>
  </defs>
  <g id="Grupo_55164" data-name="Grupo 55164" transform="translate(-242.066 -11471.249)">
    <path id="Trazado_99268" data-name="Trazado 99268" d="M294,100.07H280.441a12.279,12.279,0,0,1-12.279-12.279h0a12.28,12.28,0,0,1,12.279-12.28h8.533a5.3,5.3,0,0,0,5.3-4.424,5.2,5.2,0,0,0-5.14-5.967H268.772a.614.614,0,0,1-.61-.624,12.476,12.476,0,0,0-12.476-12.461H182.173a3.351,3.351,0,0,1-3.326-2.595,3.275,3.275,0,0,1,3.2-3.948h51.244a6.61,6.61,0,0,0,6.593-5.429,6.5,6.5,0,0,0-6.41-7.56H86.164a6.61,6.61,0,0,0-6.593,5.428,6.5,6.5,0,0,0,6.41,7.56h25.163a7.236,7.236,0,0,1,7.217,5.943,7.114,7.114,0,0,1-7.017,8.276h-74.8A27.744,27.744,0,0,0,8.8,87.456h0a27.746,27.746,0,0,0,22.584,27.257,4.092,4.092,0,0,1,3.3,4.038v2.264a4.123,4.123,0,0,1-4.123,4.123h0A20.412,20.412,0,0,0,10.147,145.55h0a20.412,20.412,0,0,0,20.412,20.411h.073a6.135,6.135,0,0,1,6.135,6.135v.015a6.372,6.372,0,0,1-5.8,6.319,6.668,6.668,0,0,0-1.5.281,15.807,15.807,0,0,0,5.259,30.731H269.488a16.069,16.069,0,0,0,16.133-14.552c.005-.073.011-.147.016-.22a7.611,7.611,0,0,1,7.567-7.164h2.909a13.133,13.133,0,0,0,13.133-13.133h0c0-5.469-4.409-9.993-9.687-11.888a8.053,8.053,0,0,1-5.437-7.538v-.379a8.733,8.733,0,0,1,6.393-8.364,23.534,23.534,0,0,0,17.006-22.609h0A23.523,23.523,0,0,0,294,100.07Z" transform="translate(233.266 11438.745)" fill="url(#linear-gradient)"/>
    <g id="Grupo_54796" data-name="Grupo 54796" transform="translate(-148.446 10450.911)">
      <path id="Trazado_100162" data-name="Trazado 100162" d="M5.851-127.975A3.138,3.138,0,0,1,5-129.858q0-.835,1.408-2.211a2.486,2.486,0,0,1,1.736-.786q.917,0,2.554,1.637a4.985,4.985,0,0,0,1.31,1.064,3.115,3.115,0,0,0,1.572.508q3.046,0,3.046-2.489a1.47,1.47,0,0,0-.835-1.261,6.122,6.122,0,0,0-2.08-.737,17.9,17.9,0,0,1-2.685-.737,17.7,17.7,0,0,1-2.685-1.2,5.427,5.427,0,0,1-2.08-2.178,7.228,7.228,0,0,1-.835-3.586,6.884,6.884,0,0,1,2.145-5.027A7.9,7.9,0,0,1,13.416-149a11.96,11.96,0,0,1,3.586.508,6.876,6.876,0,0,1,2.243,1.032l.819.622a2.558,2.558,0,0,1,1.015,1.6,3.617,3.617,0,0,1-.786,1.8Q19.18-141.8,18-141.8a3.361,3.361,0,0,1-1.7-.655,3.85,3.85,0,0,1-.377-.327,5,5,0,0,0-.508-.426,3.28,3.28,0,0,0-1.752-.426,2.947,2.947,0,0,0-1.768.508,1.639,1.639,0,0,0-.7,1.408,1.685,1.685,0,0,0,.835,1.457,5.158,5.158,0,0,0,2.08.753,24.522,24.522,0,0,1,2.718.606,16.917,16.917,0,0,1,2.718,1,4.8,4.8,0,0,1,2.08,2.047,7.114,7.114,0,0,1,.835,3.586,7.948,7.948,0,0,1-.851,3.75,6.48,6.48,0,0,1-2.227,2.505,10.165,10.165,0,0,1-5.666,1.736,10.993,10.993,0,0,1-2.915-.377,7.9,7.9,0,0,1-2.227-.933,7.962,7.962,0,0,1-2.423-2.03Zm28.59-20.665H52.65a3.622,3.622,0,0,1,1.539.246,1.242,1.242,0,0,1,.655.77,4.733,4.733,0,0,1,.164,1.375,4.563,4.563,0,0,1-.164,1.359,1.124,1.124,0,0,1-.557.7,3.815,3.815,0,0,1-1.67.295H46.362v16.473a9.076,9.076,0,0,1-.049,1.113,2.658,2.658,0,0,1-.295.835,1.388,1.388,0,0,1-.868.671,5.583,5.583,0,0,1-1.637.2,5.413,5.413,0,0,1-1.621-.2,1.383,1.383,0,0,1-.851-.671,2.643,2.643,0,0,1-.295-.851,9.514,9.514,0,0,1-.049-1.13v-16.44H34.409a3.622,3.622,0,0,1-1.539-.246,1.242,1.242,0,0,1-.655-.77,4.733,4.733,0,0,1-.164-1.375,4.562,4.562,0,0,1,.164-1.359,1.124,1.124,0,0,1,.557-.7A3.815,3.815,0,0,1,34.441-148.64ZM70.891-130.4H80.978a9.515,9.515,0,0,1,1.13.049,2.624,2.624,0,0,1,.868.311q.884.458.884,2.554,0,2.292-1.212,2.685a5.476,5.476,0,0,1-1.7.2H67.976q-2.292,0-2.685-1.244a5.15,5.15,0,0,1-.2-1.67v-18.208A3.172,3.172,0,0,1,65.717-148a3.422,3.422,0,0,1,2.358-.606h12.9a9.514,9.514,0,0,1,1.13.049,2.624,2.624,0,0,1,.868.311q.884.458.884,2.554,0,2.292-1.212,2.685a5.476,5.476,0,0,1-1.7.2H70.891v3.308h6.484a9.515,9.515,0,0,1,1.13.049,2.624,2.624,0,0,1,.868.311q.884.458.884,2.554,0,2.292-1.244,2.685a5.475,5.475,0,0,1-1.7.2H70.891Zm48.894-17.291a2.614,2.614,0,0,1,.311.884,9.964,9.964,0,0,1,.049,1.146v18.176q0,2.26-1.244,2.653a5.308,5.308,0,0,1-1.572.2,5.535,5.535,0,0,1-1.506-.164,2.587,2.587,0,0,1-.851-.393,1.476,1.476,0,0,1-.458-.655,6.513,6.513,0,0,1-.164-1.7V-138.52q-.819,1.015-2.391,3.226t-2,2.767l-.589.77a3.15,3.15,0,0,1-.8.589,2.661,2.661,0,0,1-1.375.377,2.673,2.673,0,0,1-1.343-.344,3.024,3.024,0,0,1-.868-.671l-.262-.36q-.655-.819-2.587-3.488t-2.1-2.866v11.036a9.511,9.511,0,0,1-.049,1.13,2.328,2.328,0,0,1-.311.835q-.491.884-2.554.884-2,0-2.489-.884a2.325,2.325,0,0,1-.311-.851,10.358,10.358,0,0,1-.049-1.179v-18.176a9.517,9.517,0,0,1,.049-1.13,2.624,2.624,0,0,1,.311-.868q.491-.851,2.554-.851a4.836,4.836,0,0,1,1.523.213,1.964,1.964,0,0,1,.835.442l.2.2,7.434,9.759q5.567-7.369,7.434-9.726.557-.884,2.636-.884T119.785-147.69Z" transform="translate(418.699 1205.863)" fill="#ffc93c"/>
      <path id="Trazado_100161" data-name="Trazado 100161" d="M5.851-127.975A3.138,3.138,0,0,1,5-129.858q0-.835,1.408-2.211a2.486,2.486,0,0,1,1.736-.786q.917,0,2.554,1.637a4.985,4.985,0,0,0,1.31,1.064,3.115,3.115,0,0,0,1.572.508q3.046,0,3.046-2.489a1.47,1.47,0,0,0-.835-1.261,6.122,6.122,0,0,0-2.08-.737,17.9,17.9,0,0,1-2.685-.737,17.7,17.7,0,0,1-2.685-1.2,5.427,5.427,0,0,1-2.08-2.178,7.228,7.228,0,0,1-.835-3.586,6.884,6.884,0,0,1,2.145-5.027A7.9,7.9,0,0,1,13.416-149a11.96,11.96,0,0,1,3.586.508,6.876,6.876,0,0,1,2.243,1.032l.819.622a2.558,2.558,0,0,1,1.015,1.6,3.617,3.617,0,0,1-.786,1.8Q19.18-141.8,18-141.8a3.361,3.361,0,0,1-1.7-.655,3.85,3.85,0,0,1-.377-.327,5,5,0,0,0-.508-.426,3.28,3.28,0,0,0-1.752-.426,2.947,2.947,0,0,0-1.768.508,1.639,1.639,0,0,0-.7,1.408,1.685,1.685,0,0,0,.835,1.457,5.158,5.158,0,0,0,2.08.753,24.522,24.522,0,0,1,2.718.606,16.917,16.917,0,0,1,2.718,1,4.8,4.8,0,0,1,2.08,2.047,7.114,7.114,0,0,1,.835,3.586,7.948,7.948,0,0,1-.851,3.75,6.48,6.48,0,0,1-2.227,2.505,10.165,10.165,0,0,1-5.666,1.736,10.993,10.993,0,0,1-2.915-.377,7.9,7.9,0,0,1-2.227-.933,7.962,7.962,0,0,1-2.423-2.03Zm28.59-20.665H52.65a3.622,3.622,0,0,1,1.539.246,1.242,1.242,0,0,1,.655.77,4.733,4.733,0,0,1,.164,1.375,4.563,4.563,0,0,1-.164,1.359,1.124,1.124,0,0,1-.557.7,3.815,3.815,0,0,1-1.67.295H46.362v16.473a9.076,9.076,0,0,1-.049,1.113,2.658,2.658,0,0,1-.295.835,1.388,1.388,0,0,1-.868.671,5.583,5.583,0,0,1-1.637.2,5.413,5.413,0,0,1-1.621-.2,1.383,1.383,0,0,1-.851-.671,2.643,2.643,0,0,1-.295-.851,9.514,9.514,0,0,1-.049-1.13v-16.44H34.409a3.622,3.622,0,0,1-1.539-.246,1.242,1.242,0,0,1-.655-.77,4.733,4.733,0,0,1-.164-1.375,4.562,4.562,0,0,1,.164-1.359,1.124,1.124,0,0,1,.557-.7A3.815,3.815,0,0,1,34.441-148.64ZM70.891-130.4H80.978a9.515,9.515,0,0,1,1.13.049,2.624,2.624,0,0,1,.868.311q.884.458.884,2.554,0,2.292-1.212,2.685a5.476,5.476,0,0,1-1.7.2H67.976q-2.292,0-2.685-1.244a5.15,5.15,0,0,1-.2-1.67v-18.208A3.172,3.172,0,0,1,65.717-148a3.422,3.422,0,0,1,2.358-.606h12.9a9.514,9.514,0,0,1,1.13.049,2.624,2.624,0,0,1,.868.311q.884.458.884,2.554,0,2.292-1.212,2.685a5.476,5.476,0,0,1-1.7.2H70.891v3.308h6.484a9.515,9.515,0,0,1,1.13.049,2.624,2.624,0,0,1,.868.311q.884.458.884,2.554,0,2.292-1.244,2.685a5.475,5.475,0,0,1-1.7.2H70.891Zm48.894-17.291a2.614,2.614,0,0,1,.311.884,9.964,9.964,0,0,1,.049,1.146v18.176q0,2.26-1.244,2.653a5.308,5.308,0,0,1-1.572.2,5.535,5.535,0,0,1-1.506-.164,2.587,2.587,0,0,1-.851-.393,1.476,1.476,0,0,1-.458-.655,6.513,6.513,0,0,1-.164-1.7V-138.52q-.819,1.015-2.391,3.226t-2,2.767l-.589.77a3.15,3.15,0,0,1-.8.589,2.661,2.661,0,0,1-1.375.377,2.673,2.673,0,0,1-1.343-.344,3.024,3.024,0,0,1-.868-.671l-.262-.36q-.655-.819-2.587-3.488t-2.1-2.866v11.036a9.511,9.511,0,0,1-.049,1.13,2.328,2.328,0,0,1-.311.835q-.491.884-2.554.884-2,0-2.489-.884a2.325,2.325,0,0,1-.311-.851,10.358,10.358,0,0,1-.049-1.179v-18.176a9.517,9.517,0,0,1,.049-1.13,2.624,2.624,0,0,1,.311-.868q.491-.851,2.554-.851a4.836,4.836,0,0,1,1.523.213,1.964,1.964,0,0,1,.835.442l.2.2,7.434,9.759q5.567-7.369,7.434-9.726.557-.884,2.636-.884T119.785-147.69Z" transform="translate(420.435 1205.863)" fill="#cc3d60"/>
    </g>
    <g id="chico" transform="translate(269.672 11542.729)">
      <g id="Grupo_53406" data-name="Grupo 53406" transform="translate(73.22 1.84)">
        <path id="Trazado_99303" data-name="Trazado 99303" d="M191.493,411.936H129.31a36.147,36.147,0,0,1,23.5-16.947V381.832h15.184v13.157A36.147,36.147,0,0,1,191.493,411.936Z" transform="translate(-116.934 -289.965)" fill="#ffc93c"/>
        <path id="Trazado_99304" data-name="Trazado 99304" d="M157.005,381.828v13.158c-4.473,2.137-8.257,8.415-10.518,16.947H129.31a36.145,36.145,0,0,1,23.5-16.947V381.828Z" transform="translate(-116.934 -289.962)" fill="#e2b234"/>
        <path id="Trazado_99305" data-name="Trazado 99305" d="M229.291,390.009H213.414a3.141,3.141,0,0,1-3.141-3.141v-1.895a3.141,3.141,0,0,1,3.141-3.141h15.877a3.141,3.141,0,0,1,3.141,3.141v1.895A3.141,3.141,0,0,1,229.291,390.009Z" transform="translate(-178.027 -289.965)" fill="#b3e59f"/>
        <path id="Trazado_99306" data-name="Trazado 99306" d="M222.718,390.007h-9.3a3.141,3.141,0,0,1-3.141-3.141v-1.894a3.143,3.143,0,0,1,3.141-3.143h9.3a3.143,3.143,0,0,0-3.141,3.143v1.894A3.141,3.141,0,0,0,222.718,390.007Z" transform="translate(-178.028 -289.962)" fill="#95d6a4"/>
        <path id="Trazado_99307" data-name="Trazado 99307" d="M182.888,70.964V25.952a11.822,11.822,0,0,0-22.03-5.961,27.03,27.03,0,0,0-49.817,14.541V70.752" transform="translate(-103.148 -7.499)" fill="#9ddfd3"/>
        <path id="Trazado_99308" data-name="Trazado 99308" d="M111.04,70.751V34.53a27.038,27.038,0,0,1,38.583-24.444A27.046,27.046,0,0,0,134.146,34.53v36.22Z" transform="translate(-103.148 -7.498)" fill="#dbf6e9"/>
        <g id="Grupo_53405" data-name="Grupo 53405" transform="translate(0 55.291)">
          <circle id="Elipse_6" data-name="Elipse 6" cx="9.721" cy="9.721" r="9.721" fill="#f5fffa"/>
          <circle id="Elipse_7" data-name="Elipse 7" cx="9.721" cy="9.721" r="9.721" transform="translate(67.495)" fill="#f5fffa"/>
        </g>
        <path id="Trazado_99309" data-name="Trazado 99309" d="M196.082,133.434v19.533a26.611,26.611,0,0,1-26.611,26.611h-4.535a26.613,26.613,0,0,1-26.613-26.611V133.434c0-.079,0-.16,0-.238a11.945,11.945,0,0,1,17.808-10.233,22.884,22.884,0,0,0,31.567-9.872A28.778,28.778,0,0,1,196.082,133.434Z" transform="translate(-123.736 -87.177)" fill="#f5fffa"/>
        <path id="Trazado_99310" data-name="Trazado 99310" d="M175.858,204.445a26.552,26.552,0,0,1-6.383.773H164.94a26.613,26.613,0,0,1-26.613-26.611V159.074c0-.079,0-.16,0-.238A11.945,11.945,0,0,1,156.138,148.6a22.534,22.534,0,0,0,3.409,1.536,11.634,11.634,0,0,0-3.917,8.7c0,.079,0,.16,0,.238v19.533A26.619,26.619,0,0,0,175.858,204.445Z" transform="translate(-123.738 -112.817)" fill="#e0ffef"/>
      </g>
      <g id="Grupo_53407" data-name="Grupo 53407" transform="translate(71.379)">
        <path id="Trazado_99311" data-name="Trazado 99311" d="M154.8,56.148V20.294a13.66,13.66,0,0,0-23.841-9.112A28.872,28.872,0,0,0,79.271,28.873V55.89a11.561,11.561,0,1,0,8.422,21.5,28.6,28.6,0,0,0,16.675,16.853,4.949,4.949,0,0,0-.742,2.6v1.894a4.987,4.987,0,0,0,3.63,4.791v1.873a37.22,37.22,0,0,0-3.88,1.22,1.841,1.841,0,1,0,1.3,3.445,33.852,33.852,0,0,1,4.81-1.408,1.84,1.84,0,0,0,1.455-1.8v-3.139h11.5v3.139a1.841,1.841,0,0,0,1.456,1.8,34.327,34.327,0,0,1,20.468,13.305H89.011a34.545,34.545,0,0,1,9.47-8.83,1.841,1.841,0,1,0-1.958-3.117,38.23,38.23,0,0,0-12.513,12.85,1.841,1.841,0,0,0,1.584,2.778h62.183a1.84,1.84,0,0,0,1.584-2.778,38.062,38.062,0,0,0-23.242-17.467v-1.962a4.986,4.986,0,0,0,3.347-4.7V96.85a4.948,4.948,0,0,0-.689-2.516,28.6,28.6,0,0,0,16.9-16.942,11.561,11.561,0,1,0,9.12-21.244ZM90.332,11.059a25.188,25.188,0,0,1,39.046,4.264,1.841,1.841,0,0,0,3.14-.063,9.982,9.982,0,0,1,18.6,5.034V55.312c-.227-.013-.455-.022-.685-.022a11.583,11.583,0,0,0-3.028.4V48.1A30.72,30.72,0,0,0,145.9,38.56a1.841,1.841,0,0,0-3.5,1.141,27.035,27.035,0,0,1,1.328,8.4v4.219l-2.21,1.2A7.1,7.1,0,0,0,135,49.211h-9.524a7.1,7.1,0,0,0-7.013,6.059,6.062,6.062,0,0,0-3.543,0,7.1,7.1,0,0,0-7.013-6.059H98.38a7.1,7.1,0,0,0-6.518,4.305l-2.213-1.2V48.1c0-.06,0-.122,0-.182,0-.014,0-.028,0-.042A9.892,9.892,0,0,1,94.6,39.34a10.149,10.149,0,0,1,10.125-.1,24.741,24.741,0,0,0,11.96,3.082A24.544,24.544,0,0,0,137.539,30.88a27.16,27.16,0,0,1,1.9,2.6,1.84,1.84,0,1,0,3.1-1.992,30.83,30.83,0,0,0-4.041-5.03,1.841,1.841,0,0,0-2.956.481,21.044,21.044,0,0,1-29.026,9.08,13.8,13.8,0,0,0-13.765.144,13.542,13.542,0,0,0-6.778,11.666c0,.09,0,.182,0,.272v7.595a11.6,11.6,0,0,0-3.015-.4V28.873a25.03,25.03,0,0,1,7.38-17.815ZM138.4,56.3V65.49A3.411,3.411,0,0,1,135,68.9h-9.524a3.411,3.411,0,0,1-3.407-3.407V56.3a3.411,3.411,0,0,1,3.407-3.407H135A3.411,3.411,0,0,1,138.4,56.3Zm-27.092,0V65.49A3.411,3.411,0,0,1,107.9,68.9H98.38a3.411,3.411,0,0,1-3.407-3.407V56.3a3.411,3.411,0,0,1,3.407-3.407H107.9a3.411,3.411,0,0,1,3.407,3.407ZM82.94,74.731a7.88,7.88,0,1,1,3.027-15.158v4.114a8.748,8.748,0,0,0-2.434-.588,11.168,11.168,0,0,0-3.492.206,1.841,1.841,0,1,0,.878,3.575,7.747,7.747,0,0,1,2.246-.118,3.715,3.715,0,0,1,2.809,1.409,28.389,28.389,0,0,0,.67,5.634A7.8,7.8,0,0,1,82.94,74.731Zm41.545,20.816a1.3,1.3,0,0,1,1.3,1.3v1.894a1.3,1.3,0,0,1-1.3,1.3H108.608a1.3,1.3,0,0,1-1.3-1.3V96.85a1.3,1.3,0,0,1,1.3-1.3h.315a28.479,28.479,0,0,0,5.5.535h4.535a28.492,28.492,0,0,0,5.5-.535ZM118.956,92.4H114.42a24.8,24.8,0,0,1-24.772-24.77V56.5l1.643.891v8.1a7.1,7.1,0,0,0,7.089,7.089H107.9a7.1,7.1,0,0,0,7.089-7.089V59.4a2.378,2.378,0,0,1,3.391,0V65.49a7.1,7.1,0,0,0,7.089,7.089H135a7.1,7.1,0,0,0,7.089-7.089v-8.1l1.64-.89V67.631a24.8,24.8,0,0,1-24.77,24.77Zm31.479-17.669a7.815,7.815,0,0,1-3.7-.926,28.394,28.394,0,0,0,.67-5.629,3.676,3.676,0,0,1,2.724-1.4,7.7,7.7,0,0,1,2.341.111,1.841,1.841,0,0,0,.87-3.577,11.161,11.161,0,0,0-3.492-.206,8.752,8.752,0,0,0-2.437.589V59.575a7.881,7.881,0,1,1,3.028,15.156Z" transform="translate(-71.379 0)" fill="#21214b"/>
        <ellipse id="Elipse_8" data-name="Elipse 8" cx="3.22" cy="4.412" rx="3.22" ry="4.412" transform="translate(29.6 55.867)" fill="#21214b"/>
        <path id="Trazado_99312" data-name="Trazado 99312" d="M296.992,227.64c-1.776,0-3.22,1.979-3.22,4.412s1.444,4.412,3.22,4.412,3.22-1.979,3.22-4.412S298.768,227.64,296.992,227.64Z" transform="translate(-239.193 -171.774)" fill="#21214b"/>
        <path id="Trazado_99313" data-name="Trazado 99313" d="M177.832,178.09a1.841,1.841,0,1,0,2.6,2.6,3.75,3.75,0,0,1,5.3,0,1.841,1.841,0,1,0,2.6-2.6A7.435,7.435,0,0,0,177.832,178.09Z" transform="translate(-151.3 -132.745)" fill="#21214b"/>
        <path id="Trazado_99314" data-name="Trazado 99314" d="M289.194,178.09a1.84,1.84,0,1,0,2.6,2.6,3.75,3.75,0,0,1,5.3,0,1.841,1.841,0,1,0,2.6-2.6A7.435,7.435,0,0,0,289.194,178.09Z" transform="translate(-235.332 -132.745)" fill="#21214b"/>
        <path id="Trazado_99315" data-name="Trazado 99315" d="M241.591,302.934a1.84,1.84,0,0,0-2.574.388,4.059,4.059,0,0,1-6.53,0,1.841,1.841,0,1,0-2.962,2.186,7.74,7.74,0,0,0,12.453,0A1.841,1.841,0,0,0,241.591,302.934Z" transform="translate(-190.442 -228.318)" fill="#21214b"/>
      </g>
    </g>
  </g>
</svg>
