<svg xmlns="http://www.w3.org/2000/svg" xmlns:xlink="http://www.w3.org/1999/xlink" width="308.72" height="176.938" viewBox="0 0 308.72 176.938">
  <defs>
    <linearGradient id="linear-gradient" x1="0.5" x2="0.5" y2="1" gradientUnits="objectBoundingBox">
      <stop offset="0" stop-color="#dbf6e9"/>
      <stop offset="1" stop-color="#fff"/>
    </linearGradient>
  </defs>
  <g id="Grupo_55165" data-name="Grupo 55165" transform="translate(-242.066 -11791.249)">
    <path id="Trazado_100404" data-name="Trazado 100404" d="M294,100.07H280.441a12.279,12.279,0,0,1-12.279-12.279h0a12.28,12.28,0,0,1,12.279-12.28h8.533a5.3,5.3,0,0,0,5.3-4.424,5.2,5.2,0,0,0-5.14-5.967H268.772a.614.614,0,0,1-.61-.624,12.476,12.476,0,0,0-12.476-12.461H182.173a3.351,3.351,0,0,1-3.326-2.595,3.275,3.275,0,0,1,3.2-3.948h51.244a6.61,6.61,0,0,0,6.593-5.429,6.5,6.5,0,0,0-6.41-7.56H86.164a6.61,6.61,0,0,0-6.593,5.428,6.5,6.5,0,0,0,6.41,7.56h25.163a7.236,7.236,0,0,1,7.217,5.943,7.114,7.114,0,0,1-7.017,8.276h-74.8A27.744,27.744,0,0,0,8.8,87.456h0a27.746,27.746,0,0,0,22.584,27.257,4.092,4.092,0,0,1,3.3,4.038v2.264a4.123,4.123,0,0,1-4.123,4.123h0A20.412,20.412,0,0,0,10.147,145.55h0a20.412,20.412,0,0,0,20.412,20.411h.073a6.135,6.135,0,0,1,6.135,6.135v.015a6.372,6.372,0,0,1-5.8,6.319,6.668,6.668,0,0,0-1.5.281,15.807,15.807,0,0,0,5.259,30.731H269.488a16.069,16.069,0,0,0,16.133-14.552c.005-.073.011-.147.016-.22a7.611,7.611,0,0,1,7.567-7.164h2.909a13.133,13.133,0,0,0,13.133-13.133h0c0-5.469-4.409-9.993-9.687-11.888a8.053,8.053,0,0,1-5.437-7.538v-.379a8.733,8.733,0,0,1,6.393-8.364,23.534,23.534,0,0,0,17.006-22.609h0A23.523,23.523,0,0,0,294,100.07Z" transform="translate(233.266 11758.745)" fill="url(#linear-gradient)"/>
    <g id="Grupo_55080" data-name="Grupo 55080" transform="translate(-15.75 5193.25)">
      <path id="Trazado_100405" data-name="Trazado 100405" d="M386.591,376.712a6.986,6.986,0,1,1-9.88,9.88L354.22,364.1a58.835,58.835,0,0,0,9.88-9.88Z" transform="translate(71.631 6375.968)" fill="#9ddfd3"/>
      <path id="Trazado_100406" data-name="Trazado 100406" d="M321.29,311.41l9.971,9.971a58.836,58.836,0,0,1-9.88,9.88l-9.971-9.971v0a44.552,44.552,0,0,0,9.877-9.878Z" transform="translate(104.47 6408.808)" fill="#fff5cd"/>
      <path id="Trazado_100407" data-name="Trazado 100407" d="M98.5,54.252A44.013,44.013,0,0,1,90.077,80.2,44.552,44.552,0,0,1,80.2,90.077,44.238,44.238,0,1,1,98.5,54.252Z" transform="translate(335.68 6640.018)" fill="#9ddfd3"/>
      <path id="Trazado_100409" data-name="Trazado 100409" d="M116.518,103.344,85.43,72.256a46.163,46.163,0,0,0,7.732-25.675A46.581,46.581,0,1,0,46.581,93.162,46.165,46.165,0,0,0,72.256,85.43l8.593,8.593,0,0,22.491,22.491a9.315,9.315,0,1,0,13.174-13.174ZM76.047,82.633a46.738,46.738,0,0,0,6.586-6.586l6.608,6.608a56.534,56.534,0,0,1-6.586,6.586ZM4.658,46.581a41.916,41.916,0,1,1,66.5,33.94h0a41.9,41.9,0,0,1-66.5-33.941Zm108.566,66.643a4.655,4.655,0,0,1-6.586,0L85.957,92.543a61.2,61.2,0,0,0,6.586-6.586l20.681,20.681a4.654,4.654,0,0,1,0,6.585Z" transform="translate(343.351 6647.689)" fill="#31326f"/>
      <path id="Trazado_100410" data-name="Trazado 100410" d="M114.529,77.265a37.265,37.265,0,1,0-37.265,37.265A37.307,37.307,0,0,0,114.529,77.265ZM77.265,109.871a32.607,32.607,0,1,1,32.607-32.607A32.644,32.644,0,0,1,77.265,109.871Z" transform="translate(312.667 6617.005)" fill="#31326f"/>
      <g id="Grupo_55079" data-name="Grupo 55079" transform="translate(369.951 6673.575)">
        <g id="XMLID_2028_" transform="translate(1.343 0.833)">
          <path id="XMLID_2030_" d="M297.465,40.08l2.573-2.573a9.919,9.919,0,0,0,0-14.029l-7.223-7.223a6.213,6.213,0,0,1-1.832-4.422,1.833,1.833,0,1,0-3.665,0,9.855,9.855,0,0,0,2.905,7.014l7.223,7.223a6.254,6.254,0,0,1,0,8.845l-2.573,2.573-2.592,2.592-2.058,2.058a9.855,9.855,0,0,0-2.905,7.014,1.833,1.833,0,1,0,3.665,0,6.214,6.214,0,0,1,1.832-4.423l2.058-2.058Z" transform="translate(-287.318 -10)" fill="#ff7b79"/>
        </g>
        <g id="XMLID_1327_" transform="translate(0.833 0.833)">
          <path id="XMLID_3627_" d="M289.185,144.775l-2.505,2.505a6.262,6.262,0,0,0,0,8.845l7.223,7.223a9.854,9.854,0,0,1,2.905,7.014,1.833,1.833,0,1,1-3.665,0,6.214,6.214,0,0,0-1.832-4.423l-7.223-7.223a9.931,9.931,0,0,1,0-14.029l2.463-2.463Z" transform="translate(-281.188 -131.21)" fill="#80b4ff"/>
          <path id="XMLID_1225_" d="M378.237,18.3l2.039-2.039a6.213,6.213,0,0,0,1.832-4.422A1.833,1.833,0,0,1,383.941,10h0a1.833,1.833,0,0,1,1.833,1.833,9.854,9.854,0,0,1-2.905,7.014l-2,2Z" transform="translate(-370.153 -10.001)" fill="#80b4ff"/>
        </g>
        <g id="XMLID_552_" transform="translate(0)">
          <path id="XMLID_649_" d="M283.861,30.913l1.984-1.984a10.753,10.753,0,0,0,0-15.207l-1.984-1.984,1.469-1.469a10.682,10.682,0,0,0,3.149-7.6,2.666,2.666,0,1,0-5.331,0,5.473,5.473,0,0,1-.108,1.083h-5.9a5.472,5.472,0,0,1-.108-1.083,2.666,2.666,0,1,0-5.331,0,10.682,10.682,0,0,0,3.149,7.6l1.469,1.469-1.984,1.984a10.765,10.765,0,0,0,0,15.207l1.984,1.984-1.469,1.469a10.682,10.682,0,0,0-3.149,7.6,2.666,2.666,0,1,0,5.331,0,5.479,5.479,0,0,1,.108-1.083h5.9a5.476,5.476,0,0,1,.108,1.083,2.666,2.666,0,1,0,5.331,0,10.682,10.682,0,0,0-3.149-7.6Zm1.953-29.247a1,1,0,0,1,1,1,9.027,9.027,0,0,1-2.661,6.425l-1.469,1.469L281.27,9.146l1.469-1.469a7.041,7.041,0,0,0,2.076-5.011,1,1,0,0,1,1-1ZM282.4,5.415A5.457,5.457,0,0,1,281.56,6.5l-1.469,1.469L278.623,6.5a5.452,5.452,0,0,1-.841-1.084Zm-9.032-2.749a1,1,0,1,1,2,0,7.042,7.042,0,0,0,2.076,5.011l7.223,7.223a9.087,9.087,0,0,1,0,12.85l-1.984,1.984-1.414-1.414,1.984-1.984a7.087,7.087,0,0,0,0-10.023l-7.223-7.223a9.028,9.028,0,0,1-2.661-6.425Zm4.738,22.493a5.41,5.41,0,0,1-.781-.99h5.533a5.467,5.467,0,0,1-.783.99l-1.984,1.984Zm3.968-7.667a5.461,5.461,0,0,1,.8,1.012h-5.56a5.407,5.407,0,0,1,.795-1.012l1.984-1.984Zm-5.429,2.678h6.892a5.437,5.437,0,0,1,0,2.332h-6.883a5.463,5.463,0,0,1,0-2.332Zm-2.278,20.815a1,1,0,0,1-1-1,9.027,9.027,0,0,1,2.661-6.425l1.469-1.469,1.414,1.414-1.469,1.469a7.041,7.041,0,0,0-2.076,5.012A1,1,0,0,1,274.369,40.985Zm3.413-3.749a5.457,5.457,0,0,1,.841-1.084l1.469-1.469,1.469,1.469a5.456,5.456,0,0,1,.841,1.084Zm8.032,3.749a1,1,0,0,1-1-1,7.041,7.041,0,0,0-2.076-5.012l-7.223-7.223a9.1,9.1,0,0,1,0-12.851l1.984-1.984,1.414,1.414-1.984,1.984a7.1,7.1,0,0,0,0,10.023l7.223,7.223a9.027,9.027,0,0,1,2.661,6.425A1,1,0,0,1,285.814,40.985Z" transform="translate(-271.193)" fill="#31326f"/>
        </g>
      </g>
      <path id="Trazado_100408" data-name="Trazado 100408" d="M81.113,50A31.113,31.113,0,1,1,50,81.113,31.149,31.149,0,0,1,81.113,50Z" transform="translate(308.819 6613.156)" fill="#bee7f4" opacity="0.633"/>
      <path id="Trazado_100411" data-name="Trazado 100411" d="M217.091,100.96a2.329,2.329,0,0,0,1.339-3.01A27.993,27.993,0,0,0,192.329,80a2.329,2.329,0,0,0,0,4.658,23.449,23.449,0,0,1,21.752,14.963,2.327,2.327,0,0,0,3.009,1.339Z" transform="translate(197.603 6586.321)" fill="#31326f"/>
      <path id="Trazado_100412" data-name="Trazado 100412" d="M302.329,190a2.329,2.329,0,1,0,2.329,2.329A2.33,2.33,0,0,0,302.329,190Z" transform="translate(113.222 6501.941)" fill="#31326f"/>
    </g>
  </g>
</svg>
