<svg xmlns="http://www.w3.org/2000/svg" xmlns:xlink="http://www.w3.org/1999/xlink" width="308.72" height="177.375" viewBox="0 0 308.72 177.375">
  <defs>
    <linearGradient id="linear-gradient" x1="0.5" x2="0.5" y2="1" gradientUnits="objectBoundingBox">
      <stop offset="0" stop-color="#dbf6e9"/>
      <stop offset="1" stop-color="#fff"/>
    </linearGradient>
  </defs>
  <g id="Grupo_55166" data-name="Grupo 55166" transform="translate(-242 -12155)">
    <path id="Trazado_100413" data-name="Trazado 100413" d="M294,100.07H280.441a12.279,12.279,0,0,1-12.279-12.279h0a12.28,12.28,0,0,1,12.279-12.28h8.533a5.3,5.3,0,0,0,5.3-4.424,5.2,5.2,0,0,0-5.14-5.967H268.772a.614.614,0,0,1-.61-.624,12.476,12.476,0,0,0-12.476-12.461H182.173a3.351,3.351,0,0,1-3.326-2.595,3.275,3.275,0,0,1,3.2-3.948h51.244a6.61,6.61,0,0,0,6.593-5.429,6.5,6.5,0,0,0-6.41-7.56H86.164a6.61,6.61,0,0,0-6.593,5.428,6.5,6.5,0,0,0,6.41,7.56h25.163a7.236,7.236,0,0,1,7.217,5.943,7.114,7.114,0,0,1-7.017,8.276h-74.8A27.744,27.744,0,0,0,8.8,87.456h0a27.746,27.746,0,0,0,22.584,27.257,4.092,4.092,0,0,1,3.3,4.038v2.264a4.123,4.123,0,0,1-4.123,4.123h0A20.412,20.412,0,0,0,10.147,145.55h0a20.412,20.412,0,0,0,20.412,20.411h.073a6.135,6.135,0,0,1,6.135,6.135v.015a6.372,6.372,0,0,1-5.8,6.319,6.668,6.668,0,0,0-1.5.281,15.807,15.807,0,0,0,5.259,30.731H269.488a16.069,16.069,0,0,0,16.133-14.552c.005-.073.011-.147.016-.22a7.611,7.611,0,0,1,7.567-7.164h2.909a13.133,13.133,0,0,0,13.133-13.133h0c0-5.469-4.409-9.993-9.687-11.888a8.053,8.053,0,0,1-5.437-7.538v-.379a8.733,8.733,0,0,1,6.393-8.364,23.534,23.534,0,0,0,17.006-22.609h0A23.523,23.523,0,0,0,294,100.07Z" transform="translate(233.2 12122.496)" fill="url(#linear-gradient)"/>
    <g id="proceso-cerebral" transform="translate(335 12210.438)">
      <g id="Grupo_55093" data-name="Grupo 55093" transform="translate(17.701 1.967)">
        <g id="Grupo_55081" data-name="Grupo 55081" transform="translate(15.734 98.337)">
          <path id="Trazado_100414" data-name="Trazado 100414" d="M28.8,70.667H17A20.154,20.154,0,0,1,32.262,51.118L32.734,51l3.933,7.867L44.534,51,52.4,58.867,56.335,51l.472.118A20.176,20.176,0,0,1,72.069,70.667H28.8Z" transform="translate(-17 -51)" fill="#ffc93c"/>
        </g>
        <g id="Grupo_55082" data-name="Grupo 55082" transform="translate(43.268 98.337)">
          <path id="Trazado_100415" data-name="Trazado 100415" d="M42.8,51l-3.933,7.867L31,51Z" transform="translate(-31 -51)" fill="#a0d468"/>
        </g>
        <g id="Grupo_55083" data-name="Grupo 55083" transform="translate(31.468 98.337)">
          <path id="Trazado_100416" data-name="Trazado 100416" d="M36.8,51l-7.867,7.867L25,51Z" transform="translate(-25 -51)" fill="#a0d468"/>
        </g>
        <g id="Grupo_55084" data-name="Grupo 55084" transform="translate(74.736 55.069)">
          <path id="Trazado_100417" data-name="Trazado 100417" d="M50.933,29a7.867,7.867,0,1,1,0,15.734H47V29Z" transform="translate(-47 -29)" fill="#edfff6"/>
        </g>
        <g id="Grupo_55085" data-name="Grupo 55085" transform="translate(11.8 47.182)">
          <path id="Trazado_100418" data-name="Trazado 100418" d="M32.563,28.746l.039-.039a5.817,5.817,0,0,1,9.932,4.11v.059H50.4v-.039A5.827,5.827,0,0,1,54,27.448,5.906,5.906,0,0,1,56.223,27a5.793,5.793,0,0,1,4.11,1.711l.039.039,3.776-3.756.02.02H77.935V56.477A19.675,19.675,0,0,1,58.268,76.145h-23.6A19.675,19.675,0,0,1,15,56.477V25.01H28.767l.039-.02Z" transform="translate(-15 -24.99)" fill="#edfff6"/>
        </g>
        <g id="Grupo_55086" data-name="Grupo 55086" transform="translate(0 55.069)">
          <path id="Trazado_100419" data-name="Trazado 100419" d="M20.8,38.834v5.9H16.867a7.867,7.867,0,0,1,0-15.734H20.8Z" transform="translate(-9 -29)" fill="#edfff6"/>
        </g>
        <g id="Grupo_55087" data-name="Grupo 55087" transform="translate(27.534 74.736)">
          <path id="Trazado_100420" data-name="Trazado 100420" d="M23,39H54.468A15.734,15.734,0,0,1,23,39Z" transform="translate(-23 -39)" fill="#ff826e"/>
        </g>
        <g id="Grupo_55090" data-name="Grupo 55090">
          <g id="Grupo_55088" data-name="Grupo 55088" transform="translate(43.268)">
            <path id="Trazado_100421" data-name="Trazado 100421" d="M74.071,36.4a9.843,9.843,0,0,0-2.675-5,10.405,10.405,0,0,0-2.242-1.672,11.515,11.515,0,0,0,1.18-5.133,11.81,11.81,0,0,0-11.8-11.8,14.43,14.43,0,0,0-1.593.1h-.02A19.63,19.63,0,0,0,38.867,1,7.865,7.865,0,0,0,31,8.867h3.933v.059a5.817,5.817,0,0,0,9.932,4.11L44.9,13l5.566,5.566-.039.039a5.759,5.759,0,0,0-1.711,4.11,6,6,0,0,0,.452,2.242,5.833,5.833,0,0,0,5.369,3.579H54.6V36.4h-.059a5.817,5.817,0,0,0-4.11,9.932l.039.039-1.79,1.809.02.02H64.434a9.837,9.837,0,0,0,9.834-9.834A9.268,9.268,0,0,0,74.071,36.4Z" transform="translate(-31 -1)" fill="#9ddfd3"/>
          </g>
          <g id="Grupo_55089" data-name="Grupo 55089" transform="translate(0 0)">
            <path id="Trazado_100422" data-name="Trazado 100422" d="M44.4,1A19.63,19.63,0,0,0,26.347,12.9h-.02a14.43,14.43,0,0,0-1.593-.1,11.81,11.81,0,0,0-11.8,11.8,11.515,11.515,0,0,0,1.18,5.133,10.4,10.4,0,0,0-2.242,1.672,9.843,9.843,0,0,0-2.675,5A9.268,9.268,0,0,0,9,38.368,9.837,9.837,0,0,0,18.834,48.2H34.568l.039-.02L32.8,46.373l.039-.039a5.759,5.759,0,0,0,1.711-4.11,6,6,0,0,0-.452-2.242A5.833,5.833,0,0,0,28.726,36.4h-.059V28.534h.059a5.817,5.817,0,0,0,4.11-9.932l-.039-.039L38.363,13l.02.039A5.821,5.821,0,0,0,44.755,14.3a5.812,5.812,0,0,0,3.579-5.369V8.867h3.933A7.865,7.865,0,0,0,44.4,1Z" transform="translate(-9 -1)" fill="#9ddfd3"/>
          </g>
        </g>
        <g id="Grupo_55091" data-name="Grupo 55091" transform="translate(19.667 7.867)">
          <path id="Trazado_100423" data-name="Trazado 100423" d="M62.071,42.506l-1.79,1.809-3.776,3.756-.039-.039a5.793,5.793,0,0,0-4.11-1.711,5.906,5.906,0,0,0-2.222.452,5.827,5.827,0,0,0-3.6,5.389V52.2H38.667v-.059a5.817,5.817,0,0,0-9.932-4.11l-.039.039L24.94,44.315,23.13,42.506l.039-.039a5.759,5.759,0,0,0,1.711-4.11,6,6,0,0,0-.452-2.242,5.833,5.833,0,0,0-5.369-3.579H19V24.667h.059a5.817,5.817,0,0,0,4.11-9.932L23.13,14.7,28.7,9.13l.02.039a5.821,5.821,0,0,0,6.372,1.259,5.812,5.812,0,0,0,3.579-5.369V5h7.867v.059a5.817,5.817,0,0,0,9.932,4.11l.039-.039L62.071,14.7l-.039.039a5.759,5.759,0,0,0-1.711,4.11,6,6,0,0,0,.452,2.242,5.833,5.833,0,0,0,5.369,3.579H66.2v7.867h-.059a5.817,5.817,0,0,0-4.11,9.932ZM54.4,28.6A11.8,11.8,0,1,0,42.6,40.4,11.81,11.81,0,0,0,54.4,28.6Z" transform="translate(-19 -5)" fill="#ffc729"/>
        </g>
        <g id="Grupo_55092" data-name="Grupo 55092" transform="translate(31.468 19.667)">
          <path id="Trazado_100424" data-name="Trazado 100424" d="M36.8,11A11.8,11.8,0,1,1,25,22.8,11.81,11.81,0,0,1,36.8,11Zm3.933,11.8A3.933,3.933,0,1,0,36.8,26.734,3.945,3.945,0,0,0,40.734,22.8Z" transform="translate(-25 -11)" fill="#fcd770"/>
        </g>
      </g>
      <g id="Grupo_55094" data-name="Grupo 55094" transform="translate(0)">
        <path id="Trazado_100425" data-name="Trazado 100425" d="M35.734,32H31.8a3.933,3.933,0,0,1-7.867,0H20a7.867,7.867,0,1,0,15.734,0Z" transform="translate(19.335 30.935)" fill="#31326f"/>
        <path id="Trazado_100426" data-name="Trazado 100426" d="M41.867,35.933A3.937,3.937,0,0,1,37.933,32H34a7.867,7.867,0,1,0,15.734,0H45.8A3.937,3.937,0,0,1,41.867,35.933Z" transform="translate(32.869 30.935)" fill="#31326f"/>
        <path id="Trazado_100427" data-name="Trazado 100427" d="M22,39.967a17.7,17.7,0,1,0,35.4,0V38H22Zm31.328,1.967a13.769,13.769,0,0,1-27.255,0Z" transform="translate(21.268 36.736)" fill="#31326f"/>
        <path id="Trazado_100428" data-name="Trazado 100428" d="M24,23.767A13.767,13.767,0,1,0,37.767,10,13.782,13.782,0,0,0,24,23.767Zm13.767-9.834a9.834,9.834,0,1,1-9.834,9.834A9.845,9.845,0,0,1,37.767,13.933Z" transform="translate(23.202 9.667)" fill="#31326f"/>
        <path id="Trazado_100429" data-name="Trazado 100429" d="M33.9,25.8A5.9,5.9,0,1,0,28,19.9,5.907,5.907,0,0,0,33.9,25.8Zm0-7.867A1.967,1.967,0,1,1,31.933,19.9,1.97,1.97,0,0,1,33.9,17.933Z" transform="translate(27.069 13.534)" fill="#31326f"/>
        <path id="Trazado_100430" data-name="Trazado 100430" d="M2,12H5.933v3.933H2Z" transform="translate(1.933 11.601)" fill="#31326f"/>
        <path id="Trazado_100431" data-name="Trazado 100431" d="M4,46H7.933V77.468H4Z" transform="translate(3.867 44.47)" fill="#31326f"/>
        <path id="Trazado_100432" data-name="Trazado 100432" d="M18.808,44.843,9.55,35.586.293,44.843l2.781,2.781,4.51-4.51v9.019h3.933V43.115l4.51,4.51Z" transform="translate(0.283 34.402)" fill="#31326f"/>
        <path id="Trazado_100433" data-name="Trazado 100433" d="M26.808,56.843,17.55,47.586,8.293,56.843l2.781,2.781,4.51-4.51v20.82h3.933V55.115l4.51,4.51Z" transform="translate(8.017 46.003)" fill="#31326f"/>
        <path id="Trazado_100434" data-name="Trazado 100434" d="M121.938,3.933h-11.8V11.8H88.5c-.138,0-.271.024-.409.028A21.637,21.637,0,0,0,68.836,0a9.8,9.8,0,0,0-7.867,3.994A9.8,9.8,0,0,0,53.1,0,21.637,21.637,0,0,0,33.844,11.828c-.138,0-.271-.028-.409-.028H11.8V3.933H0V7.867H7.867v7.867h15.95A13.742,13.742,0,0,0,19.823,23.6H11.8v3.933h8.022a13.537,13.537,0,0,0,.57,2.429A11.817,11.817,0,0,0,16.422,35.4H7.867v7.867H0V47.2H11.8V39.335h3.933a11.812,11.812,0,0,0,11.8,11.8v3.933H25.568a9.834,9.834,0,0,0,0,19.667h1.967v5.9a21.652,21.652,0,0,0,14.589,20.432,22.07,22.07,0,0,0-10.656,18.9v1.967h59v-1.967a22.07,22.07,0,0,0-10.656-18.9A21.652,21.652,0,0,0,94.4,80.636v-5.9H96.37a9.834,9.834,0,0,0,0-19.667H94.4V51.135a11.812,11.812,0,0,0,11.8-11.8h3.933V47.2h11.8V43.268h-7.867V35.4h-8.555a11.827,11.827,0,0,0-3.969-5.438,13.5,13.5,0,0,0,.57-2.429h8.02V23.6h-8.024a13.718,13.718,0,0,0-3.994-7.867h15.952V7.867h7.867ZM27.534,63.2l-2.842-1.9-2.181,3.273,5.023,3.349V70.8H25.568a5.9,5.9,0,0,1,0-11.8h1.967ZM63.171,11.8A7.783,7.783,0,0,0,74.7,16.574l3.119,3.119A7.783,7.783,0,0,0,82.6,31.222v4.413A7.779,7.779,0,0,0,77.83,47.164l-3.121,3.121a7.786,7.786,0,0,0-11.529,4.781H58.766A7.779,7.779,0,0,0,47.237,50.3l-3.123-3.123a7.783,7.783,0,0,0-4.779-11.529V31.232A7.783,7.783,0,0,0,44.108,19.7l3.123-3.121A7.784,7.784,0,0,0,58.76,11.8h4.411Zm-43.5,27.534a7.847,7.847,0,0,1,4.038-6.83,7.854,7.854,0,0,0,7.763,6.83V35.4a3.937,3.937,0,0,1-3.933-3.933h3.933V27.534H27.534a11.8,11.8,0,0,0-3.593.562,9.751,9.751,0,0,1,8.335-12.245,21.5,21.5,0,0,0-.808,5.782V23.6H35.4V21.634a17.722,17.722,0,0,1,17.7-17.7A5.892,5.892,0,0,1,58.64,7.867h-1.6l-1.967.065V9.9a3.854,3.854,0,0,1-6.592,2.7l-1.39-1.438-6.978,6.976-1.353,1.428,1.39,1.392a3.851,3.851,0,0,1-2.777,6.577H35.4v9.834l.053,1.967h1.967a3.853,3.853,0,0,1,2.706,6.6l-1.3,1.271H27.534A7.875,7.875,0,0,1,19.667,39.335ZM86.43,118H78.669v-3.933H74.736V118H47.2v-3.933H43.268V118H35.507a18.124,18.124,0,0,1,12.646-15.335l4.409,8.819,8.406-8.4,8.406,8.406,4.409-8.819A18.116,18.116,0,0,1,86.43,118ZM52.351,102.27h3.871l-2.58,2.58Zm13.366,0h3.871l-1.29,2.58ZM90.47,80.636a17.722,17.722,0,0,1-17.7,17.7h-23.6a17.722,17.722,0,0,1-17.7-17.7v-29.5H42.513l3.159,3.159L47.1,55.647l1.39-1.39a3.853,3.853,0,0,1,6.579,2.779V59H64.9l1.967-.047V56.988A3.856,3.856,0,0,1,73.5,54.311l1.39,1.359,4.533-4.535H90.47ZM96.37,59a5.9,5.9,0,0,1,0,11.8H94.4V67.921l5.025-3.349L97.247,61.3,94.4,63.2V59Zm1.967-33.434A9.78,9.78,0,0,1,98,28.1a11.8,11.8,0,0,0-3.593-.562H90.47v3.933H94.4A3.937,3.937,0,0,1,90.47,35.4v3.933a7.854,7.854,0,0,0,7.763-6.83A7.841,7.841,0,0,1,94.4,47.2H83.079l-1.286-1.288a3.853,3.853,0,0,1,2.724-6.579h2.02V29.5l-.053-1.967H84.516a3.854,3.854,0,0,1-2.689-6.616l1.39-1.39-6.952-6.952-1.428-1.353-1.39,1.39a3.853,3.853,0,0,1-6.579-2.779V7.867H63.3a5.892,5.892,0,0,1,5.538-3.933,17.722,17.722,0,0,1,17.7,17.7V23.6H90.47V21.634a21.5,21.5,0,0,0-.808-5.782A9.812,9.812,0,0,1,98.337,25.568Z" transform="translate(0)" fill="#31326f"/>
        <path id="Trazado_100435" data-name="Trazado 100435" d="M58,12h3.933v3.933H58Z" transform="translate(56.071 11.601)" fill="#31326f"/>
        <path id="Trazado_100436" data-name="Trazado 100436" d="M56,46h3.933V77.468H56Z" transform="translate(54.137 44.47)" fill="#31326f"/>
        <path id="Trazado_100437" data-name="Trazado 100437" d="M52.293,44.843l2.781,2.781,4.51-4.51v9.019h3.933V43.115l4.51,4.51,2.781-2.781L61.55,35.586Z" transform="translate(50.553 34.402)" fill="#31326f"/>
        <path id="Trazado_100438" data-name="Trazado 100438" d="M44.293,56.843l2.781,2.781,4.51-4.51v20.82h3.933V55.115l4.51,4.51,2.781-2.781L53.55,47.586Z" transform="translate(42.82 46.003)" fill="#31326f"/>
      </g>
    </g>
  </g>
</svg>
