<svg xmlns="http://www.w3.org/2000/svg" xmlns:xlink="http://www.w3.org/1999/xlink" width="308.72" height="216.411" viewBox="0 0 308.72 216.411">
  <defs>
    <linearGradient id="linear-gradient" x1="0.5" x2="0.5" y2="1" gradientUnits="objectBoundingBox">
      <stop offset="0" stop-color="#dbf6e9"/>
      <stop offset="1" stop-color="#fff"/>
    </linearGradient>
  </defs>
  <g id="Grupo_55167" data-name="Grupo 55167" transform="translate(-242.066 -12403.926)">
    <path id="Trazado_100439" data-name="Trazado 100439" d="M294,100.07H280.441a12.279,12.279,0,0,1-12.279-12.279h0a12.28,12.28,0,0,1,12.279-12.28h8.533a5.3,5.3,0,0,0,5.3-4.424,5.2,5.2,0,0,0-5.14-5.967H268.772a.614.614,0,0,1-.61-.624,12.476,12.476,0,0,0-12.476-12.461H182.173a3.351,3.351,0,0,1-3.326-2.595,3.275,3.275,0,0,1,3.2-3.948h51.244a6.61,6.61,0,0,0,6.593-5.429,6.5,6.5,0,0,0-6.41-7.56H86.164a6.61,6.61,0,0,0-6.593,5.428,6.5,6.5,0,0,0,6.41,7.56h25.163a7.236,7.236,0,0,1,7.217,5.943,7.114,7.114,0,0,1-7.017,8.276h-74.8A27.744,27.744,0,0,0,8.8,87.456h0a27.746,27.746,0,0,0,22.584,27.257,4.092,4.092,0,0,1,3.3,4.038v2.264a4.123,4.123,0,0,1-4.123,4.123h0A20.412,20.412,0,0,0,10.147,145.55h0a20.412,20.412,0,0,0,20.412,20.411h.073a6.135,6.135,0,0,1,6.135,6.135v.015a6.372,6.372,0,0,1-5.8,6.319,6.668,6.668,0,0,0-1.5.281,15.807,15.807,0,0,0,5.259,30.731H269.488a16.069,16.069,0,0,0,16.133-14.552c.005-.073.011-.147.016-.22a7.611,7.611,0,0,1,7.567-7.164h2.909a13.133,13.133,0,0,0,13.133-13.133h0c0-5.469-4.409-9.993-9.687-11.888a8.053,8.053,0,0,1-5.437-7.538v-.379a8.733,8.733,0,0,1,6.393-8.364,23.534,23.534,0,0,0,17.006-22.609h0A23.523,23.523,0,0,0,294,100.07Z" transform="translate(233.266 12389.321)" fill="url(#linear-gradient)"/>
    <g id="chico" transform="translate(216.941 12510.294)">
      <g id="Grupo_53406" data-name="Grupo 53406" transform="translate(72.991 1.612)">
        <path id="Trazado_99303" data-name="Trazado 99303" d="M183.768,408.2H129.31a31.656,31.656,0,0,1,20.58-14.842V381.832h13.3v11.523A31.657,31.657,0,0,1,183.768,408.2Z" transform="translate(-118.471 -301.377)" fill="#ffc93c"/>
        <path id="Trazado_99304" data-name="Trazado 99304" d="M153.565,381.828v11.523c-3.918,1.872-7.232,7.369-9.211,14.842H129.31a31.655,31.655,0,0,1,20.58-14.842V381.828Z" transform="translate(-118.471 -301.374)" fill="#e2b234"/>
        <path id="Trazado_99305" data-name="Trazado 99305" d="M226.929,388.993h-13.9a2.751,2.751,0,0,1-2.751-2.751v-1.659a2.751,2.751,0,0,1,2.751-2.751h13.9a2.751,2.751,0,0,1,2.751,2.751v1.659A2.751,2.751,0,0,1,226.929,388.993Z" transform="translate(-182.033 -301.377)" fill="#b3e59f"/>
        <path id="Trazado_99306" data-name="Trazado 99306" d="M221.172,388.991h-8.147a2.751,2.751,0,0,1-2.751-2.751v-1.659a2.752,2.752,0,0,1,2.751-2.753h8.147a2.753,2.753,0,0,0-2.751,2.753v1.659A2.75,2.75,0,0,0,221.172,388.991Z" transform="translate(-182.034 -301.374)" fill="#95d6a4"/>
        <path id="Trazado_99307" data-name="Trazado 99307" d="M173.962,63.08V23.659a10.353,10.353,0,0,0-19.293-5.221,23.672,23.672,0,0,0-43.628,12.734V62.894" transform="translate(-104.129 -7.499)" fill="#9ddfd3"/>
        <path id="Trazado_99308" data-name="Trazado 99308" d="M111.04,62.893V31.172A23.679,23.679,0,0,1,144.83,9.765a23.686,23.686,0,0,0-13.554,21.407V62.893Z" transform="translate(-104.128 -7.498)" fill="#dbf6e9"/>
        <g id="Grupo_53405" data-name="Grupo 53405" transform="translate(0 48.422)">
          <circle id="Elipse_6" data-name="Elipse 6" cx="8.513" cy="8.513" r="8.513" fill="#f5fffa"/>
          <circle id="Elipse_7" data-name="Elipse 7" cx="8.513" cy="8.513" r="8.513" transform="translate(59.11)" fill="#f5fffa"/>
        </g>
        <path id="Trazado_99309" data-name="Trazado 99309" d="M188.907,130.907v17.107a23.3,23.3,0,0,1-23.3,23.3h-3.971a23.307,23.307,0,0,1-23.307-23.3V130.907c0-.069,0-.14,0-.208a10.461,10.461,0,0,1,15.6-8.962,20.041,20.041,0,0,0,27.646-8.646A25.2,25.2,0,0,1,188.907,130.907Z" transform="translate(-125.548 -90.396)" fill="#f5fffa"/>
        <path id="Trazado_99310" data-name="Trazado 99310" d="M171.2,197.318a23.255,23.255,0,0,1-5.59.677h-3.972a23.307,23.307,0,0,1-23.307-23.3V157.583c0-.069,0-.14,0-.208a10.461,10.461,0,0,1,15.6-8.962,19.733,19.733,0,0,0,2.985,1.345,10.188,10.188,0,0,0-3.43,7.616c0,.069,0,.14,0,.208V174.69A23.312,23.312,0,0,0,171.2,197.318Z" transform="translate(-125.55 -117.073)" fill="#e0ffef"/>
      </g>
      <g id="Grupo_53407" data-name="Grupo 53407" transform="translate(71.379)">
        <path id="Trazado_99311" data-name="Trazado 99311" d="M144.438,49.173v-31.4a11.963,11.963,0,0,0-20.879-7.98A25.285,25.285,0,0,0,78.29,25.286v23.66a10.125,10.125,0,1,0,7.376,18.832,25.047,25.047,0,0,0,14.6,14.76,4.334,4.334,0,0,0-.65,2.28v1.659a4.368,4.368,0,0,0,3.179,4.2v1.64a32.6,32.6,0,0,0-3.4,1.068,1.612,1.612,0,1,0,1.136,3.017,29.645,29.645,0,0,1,4.213-1.233,1.612,1.612,0,0,0,1.274-1.576V90.841H116.1V93.59a1.612,1.612,0,0,0,1.275,1.576A30.063,30.063,0,0,1,135.3,106.819H86.82a30.254,30.254,0,0,1,8.293-7.733,1.612,1.612,0,1,0-1.715-2.73A33.481,33.481,0,0,0,82.441,107.61a1.612,1.612,0,0,0,1.387,2.433h54.458a1.612,1.612,0,0,0,1.387-2.433,33.334,33.334,0,0,0-20.355-15.3V90.595a4.367,4.367,0,0,0,2.932-4.117V84.819a4.333,4.333,0,0,0-.6-2.2,25.046,25.046,0,0,0,14.8-14.837,10.125,10.125,0,1,0,7.987-18.605ZM87.978,9.685a22.059,22.059,0,0,1,34.2,3.735,1.612,1.612,0,0,0,2.75-.055,8.742,8.742,0,0,1,16.291,4.409V48.44c-.2-.012-.4-.019-.6-.019a10.144,10.144,0,0,0-2.652.354V42.123a26.9,26.9,0,0,0-1.322-8.353,1.612,1.612,0,0,0-3.065,1,23.677,23.677,0,0,1,1.163,7.354v3.695l-1.936,1.05a6.217,6.217,0,0,0-5.709-3.77h-8.341a6.217,6.217,0,0,0-6.142,5.306,5.309,5.309,0,0,0-3.1,0,6.217,6.217,0,0,0-6.142-5.306H95.026a6.217,6.217,0,0,0-5.709,3.77l-1.938-1.051V42.123c0-.053,0-.107,0-.159,0-.012,0-.024,0-.037a8.663,8.663,0,0,1,4.338-7.475,8.888,8.888,0,0,1,8.867-.09,21.667,21.667,0,0,0,10.474,2.7A21.5,21.5,0,0,0,129.32,27.044a23.785,23.785,0,0,1,1.664,2.276,1.612,1.612,0,1,0,2.711-1.745,27,27,0,0,0-3.539-4.405,1.612,1.612,0,0,0-2.588.421,18.429,18.429,0,0,1-25.42,7.952,12.085,12.085,0,0,0-12.055.126,11.86,11.86,0,0,0-5.936,10.217c0,.079,0,.159,0,.238v6.651a10.159,10.159,0,0,0-2.64-.353V25.286a21.92,21.92,0,0,1,6.464-15.6Zm42.1,39.621v8.049a2.987,2.987,0,0,1-2.984,2.984h-8.341a2.987,2.987,0,0,1-2.984-2.984V49.306a2.987,2.987,0,0,1,2.984-2.984h8.341a2.987,2.987,0,0,1,2.984,2.984Zm-23.727,0v8.049a2.987,2.987,0,0,1-2.984,2.984H95.026a2.987,2.987,0,0,1-2.984-2.984V49.306a2.987,2.987,0,0,1,2.984-2.984h8.341a2.987,2.987,0,0,1,2.984,2.984ZM81.5,65.448a6.9,6.9,0,1,1,2.651-13.275v3.6a7.662,7.662,0,0,0-2.132-.515,9.781,9.781,0,0,0-3.058.18,1.612,1.612,0,1,0,.769,3.131,6.784,6.784,0,0,1,1.967-.1,3.254,3.254,0,0,1,2.46,1.234,24.863,24.863,0,0,0,.587,4.935A6.835,6.835,0,0,1,81.5,65.448Zm36.384,18.23a1.141,1.141,0,0,1,1.139,1.141v1.659a1.14,1.14,0,0,1-1.139,1.139h-13.9a1.14,1.14,0,0,1-1.139-1.139V84.818a1.141,1.141,0,0,1,1.139-1.141h.276a24.941,24.941,0,0,0,4.814.468h3.972a24.953,24.953,0,0,0,4.814-.468Zm-4.843-2.756h-3.972A21.718,21.718,0,0,1,87.379,59.229V49.484l1.439.781v7.09a6.215,6.215,0,0,0,6.208,6.208h8.341a6.215,6.215,0,0,0,6.208-6.208V52.017a2.083,2.083,0,0,1,2.97,0v5.337a6.215,6.215,0,0,0,6.208,6.208h8.341a6.215,6.215,0,0,0,6.208-6.208v-7.09l1.437-.779v9.744a21.718,21.718,0,0,1-21.693,21.693Zm27.568-15.474a6.845,6.845,0,0,1-3.244-.811,24.866,24.866,0,0,0,.587-4.93,3.219,3.219,0,0,1,2.386-1.229,6.741,6.741,0,0,1,2.05.1,1.612,1.612,0,0,0,.762-3.133,9.775,9.775,0,0,0-3.058-.18,7.665,7.665,0,0,0-2.134.516v-3.6a6.9,6.9,0,1,1,2.652,13.274Z" transform="translate(-71.379 0)" fill="#21214b"/>
        <ellipse id="Elipse_8" data-name="Elipse 8" cx="2.82" cy="3.864" rx="2.82" ry="3.864" transform="translate(25.922 48.926)" fill="#21214b"/>
        <path id="Trazado_99312" data-name="Trazado 99312" d="M296.592,227.64c-1.555,0-2.82,1.733-2.82,3.864s1.265,3.864,2.82,3.864,2.82-1.733,2.82-3.864S298.147,227.64,296.592,227.64Z" transform="translate(-245.974 -178.714)" fill="#21214b"/>
        <path id="Trazado_99313" data-name="Trazado 99313" d="M177.765,177.82a1.612,1.612,0,1,0,2.279,2.28,3.284,3.284,0,0,1,4.639,0,1.612,1.612,0,1,0,2.28-2.28A6.511,6.511,0,0,0,177.765,177.82Z" transform="translate(-154.529 -138.109)" fill="#21214b"/>
        <path id="Trazado_99314" data-name="Trazado 99314" d="M289.127,177.82a1.612,1.612,0,1,0,2.279,2.28,3.284,3.284,0,0,1,4.639,0,1.612,1.612,0,1,0,2.28-2.28A6.511,6.511,0,0,0,289.127,177.82Z" transform="translate(-241.956 -138.109)" fill="#21214b"/>
        <path id="Trazado_99315" data-name="Trazado 99315" d="M240.048,302.889a1.612,1.612,0,0,0-2.254.34,3.555,3.555,0,0,1-5.719,0,1.612,1.612,0,1,0-2.594,1.914,6.779,6.779,0,0,0,10.906,0A1.612,1.612,0,0,0,240.048,302.889Z" transform="translate(-195.253 -237.542)" fill="#21214b"/>
      </g>
    </g>
    <g id="Grupo_55095" data-name="Grupo 55095" transform="translate(412.589 12519.325)">
      <rect id="Rect치ngulo_5082" data-name="Rect치ngulo 5082" width="47.956" height="41.861" transform="translate(8.614 34.237)" fill="#9ddfd3"/>
      <rect id="Rect치ngulo_5083" data-name="Rect치ngulo 5083" width="13.252" height="15.022" transform="translate(25.966 55.512)" fill="#fccda2"/>
      <path id="Trazado_100366" data-name="Trazado 100366" d="M222.412,288.256a28.222,28.222,0,0,0,13.253,0V278.38H222.412v9.876Z" transform="translate(-196.446 -223.459)" fill="#333" opacity="0.15"/>
      <g id="Grupo_55068" data-name="Grupo 55068" transform="translate(1.601 29.864)">
        <path id="Trazado_100367" data-name="Trazado 100367" d="M106.6,151.37a7.689,7.689,0,0,0-7.689,7.689h0a7.689,7.689,0,0,0,7.689,7.689h3.529V151.37Z" transform="translate(-98.914 -151.37)" fill="#e0ffef"/>
        <path id="Trazado_100368" data-name="Trazado 100368" d="M359.755,151.37a7.689,7.689,0,0,1,7.689,7.689h0a7.689,7.689,0,0,1-7.689,7.689h-3.529V151.37Z" transform="translate(-305.461 -151.37)" fill="#e0ffef"/>
      </g>
      <path id="Trazado_100369" data-name="Trazado 100369" d="M134.465,72.01V84.45a23.978,23.978,0,0,0,23.977,23.977h0A23.977,23.977,0,0,0,182.42,84.45V72.01c0-6.621-11.989-14.137-23.977-14.137S134.465,65.388,134.465,72.01Z" transform="translate(-125.85 -46.455)" fill="#f5fffa"/>
      <path id="Trazado_100370" data-name="Trazado 100370" d="M138.879,84.45V72.01c0-6.214,10.56-13.216,21.77-14.053q-1.1-.082-2.208-.083c-11.989,0-23.978,7.515-23.978,14.137V84.45a23.978,23.978,0,0,0,23.977,23.977h0c.745,0,1.481-.036,2.208-.1A23.978,23.978,0,0,1,138.879,84.45Z" transform="translate(-125.85 -46.455)" fill="#333" opacity="0.1"/>
      <path id="Trazado_100371" data-name="Trazado 100371" d="M158.442,7.993h0A23.978,23.978,0,0,0,134.465,31.97V36.28c19.546-3.489,23.977-16.212,23.977-16.212S162.874,32.79,182.42,36.28V31.97A23.978,23.978,0,0,0,158.442,7.993Z" transform="translate(-125.85 -6.416)" fill="#9ddfd3"/>
      <path id="Trazado_100372" data-name="Trazado 100372" d="M138.88,31.969A23.979,23.979,0,0,1,160.65,8.093c-.727-.066-1.463-.1-2.208-.1h0a23.977,23.977,0,0,0-23.977,23.977v4.309c1.567-.28,3.037-.62,4.415-1.007v-3.3Z" transform="translate(-125.85 -6.415)" fill="#dbf6e9"/>
      <path id="Trazado_100373" data-name="Trazado 100373" d="M142.819,346.863H116.993a18.078,18.078,0,0,0-18.078,18.078v12.925H160.9V364.941A18.078,18.078,0,0,0,142.819,346.863Z" transform="translate(-97.314 -278.431)" fill="#ffc93c"/>
      <g id="Grupo_55069" data-name="Grupo 55069" transform="translate(1.601 68.432)">
        <path id="Trazado_100374" data-name="Trazado 100374" d="M110.132,353.713A18.081,18.081,0,0,0,98.915,370.44v12.924h11.217Z" transform="translate(-98.915 -352.362)" fill="#fff9f2"/>
        <path id="Trazado_100375" data-name="Trazado 100375" d="M356.228,353.713a18.081,18.081,0,0,1,11.217,16.727v12.924H356.228Z" transform="translate(-305.463 -352.362)" fill="#fff9f2"/>
        <path id="Trazado_100376" data-name="Trazado 100376" d="M192.167,369.094l15.689-22.019a18.2,18.2,0,0,0-2.777-.212H179.254a18.237,18.237,0,0,0-2.776.212Z" transform="translate(-161.176 -346.863)" fill="#fff9f2"/>
      </g>
      <path id="Trazado_100377" data-name="Trazado 100377" d="M241.226,346.863l2.462,3.364-2.462,4.3h-3.1l-2.462-4.3,2.462-3.364Z" transform="translate(-207.083 -278.431)" fill="#f9a"/>
      <path id="Trazado_100378" data-name="Trazado 100378" d="M244.547,395.042l-2.182-9.327h-3.1l-2.182,9.327,3.733,5.239Z" transform="translate(-208.222 -309.618)" fill="#ff8095"/>
      <g id="Grupo_55070" data-name="Grupo 55070">
        <circle id="Elipse_1244" data-name="Elipse 1244" cx="3.104" cy="3.104" r="3.104" transform="translate(18.223 31.133)" fill="#31326f"/>
        <circle id="Elipse_1245" data-name="Elipse 1245" cx="3.104" cy="3.104" r="3.104" transform="translate(40.705 31.133)" fill="#31326f"/>
        <path id="Trazado_100379" data-name="Trazado 100379" d="M155.9,85.67a21.363,21.363,0,0,0-.9-5.164,19.638,19.638,0,0,0-6.08-9.054V46.54a9.262,9.262,0,0,0,0-17.97V25.555a25.554,25.554,0,1,0-51.108,0v3.015a9.262,9.262,0,0,0,0,17.971V71.452c0,.228-1.281,1.17-1.487,1.382A19.541,19.541,0,0,0,92.589,78.3c-1.682,3.67-1.789,7.447-1.789,11.4v9.738a1.577,1.577,0,0,0,1.577,1.577h61.982a1.577,1.577,0,0,0,1.577-1.577V93.166C155.936,90.686,156.063,88.16,155.9,85.67ZM148.922,38h0V31.875a6.106,6.106,0,0,1,0,11.355ZM100.967,25.554a22.4,22.4,0,1,1,44.8,0V27.94q-.3-.067-.6-.137a34.918,34.918,0,0,1-14.415-6.972,16.858,16.858,0,0,1-1.473-1.356,19.586,19.586,0,0,1-4.425-6.343,1.574,1.574,0,0,0-2.949-.066c-.008.02-.019.039-.027.059a16.334,16.334,0,0,1-2.12,3.667l-.008.011-.107.143a26.223,26.223,0,0,1-7.01,6.354l-.114.072-.21.129a37.415,37.415,0,0,1-11.344,4.437V25.554Zm0,8.682V31.166l.311-.067c8.226-1.752,16.54-5.957,21.433-13.006.243-.349.461-.684.657-1a25.986,25.986,0,0,0,3.534,4.46A34.492,34.492,0,0,0,140.567,29.8a46,46,0,0,0,4.895,1.3c.1.022.2.045.307.066V37.21a23.782,23.782,0,0,1-2.735,11.5,22.623,22.623,0,0,1-6.6,7.469,22.339,22.339,0,0,1-26.137,0,22.621,22.621,0,0,1-5.906-6.292,22.371,22.371,0,0,1-3.261-9.2A54.1,54.1,0,0,1,100.967,34.237ZM124,74.52h-1.272l-1.5-2.619,1.385-1.892h1.5L125.5,71.9Zm1.4,10.57-2.034,2.856-2.035-2.856,1.735-7.416h.6Zm-.484-18.235h-6.6V63.049c0,.279,4.119.485,4.511.493a25.728,25.728,0,0,0,5.588-.493v3.806Zm-6.931,5.724,2.154,3.763L118.9,81.667l-8.307-11.659h8.122l-.626.855A1.577,1.577,0,0,0,117.987,72.579Zm10.665-1.714-.626-.855h8.123l-8.308,11.66-1.246-5.327,2.154-3.763A1.577,1.577,0,0,0,128.653,70.864Zm-34.7-33.312a6.16,6.16,0,0,1,3.86-5.678V43.23A6.119,6.119,0,0,1,93.954,37.552Zm8.063,60.306H93.954V86.51c0-.255.008-.507.019-.759q0-.084.008-.167c.014-.253.032-.505.058-.755v-.013c.027-.26.06-.518.1-.775l.01-.069a16.516,16.516,0,0,1,6.417-10.664l.051-.038q.3-.221.6-.43l.024-.017c.252-.17.51-.331.771-.487V97.858Zm-1.05-28.564V50.284c.021.038.043.074.064.112a25.909,25.909,0,0,0,14.133,11.8v4.657a53.951,53.951,0,0,0-7.5.2,19.365,19.365,0,0,0-3.517.834C103.773,68.013,100.967,68.914,100.967,69.294Zm40.6,28.564H105.171V70.882a16.434,16.434,0,0,1,1.809-.5l15.1,21.2a1.577,1.577,0,0,0,1.284.662h0c.046,0,.092,0,.137-.008.017,0,.035,0,.052,0,.037,0,.073-.013.109-.02s.051-.008.075-.014.035-.011.052-.016c.042-.012.085-.023.126-.039l.009,0a1.574,1.574,0,0,0,.723-.558l15.1-21.2a16.3,16.3,0,0,1,1.808.5V97.858h0Zm-3.015-30.85a34.8,34.8,0,0,0-3.619-.152h-3.36V62.2c.086-.029.17-.06.255-.09l.207-.073A25.879,25.879,0,0,0,145.3,51.093l.1-.176q.156-.265.306-.534c.019-.033.038-.066.057-.1v19.01c0-.241-1.918-.932-2.172-1.034a19.32,19.32,0,0,0-2.535-.82A18.178,18.178,0,0,0,138.55,67.007Zm14.232,30.85h-8.064V72.337c.261.156.518.317.77.487l.028.019q.3.207.6.426l.055.041a16.516,16.516,0,0,1,6.416,10.663c0,.023.007.046.01.069.039.256.072.515.1.775v.013c.025.25.044.5.058.755,0,.056.006.111.008.167.012.252.019.5.019.759V97.858Z" transform="translate(-90.8 0)" fill="#31326f"/>
        <path id="Trazado_100380" data-name="Trazado 100380" d="M207.65,227.526a1.577,1.577,0,0,0,.363,2.2c2.017,1.446,5.35,2.309,8.916,2.309s6.9-.863,8.913-2.308a1.577,1.577,0,1,0-1.837-2.564c-1.479,1.06-4.191,1.718-7.077,1.718s-5.6-.659-7.078-1.719A1.576,1.576,0,0,0,207.65,227.526Z" transform="translate(-184.36 -182.11)" fill="#31326f"/>
      </g>
    </g>
    <g id="el-pensamiento-de-diseno" transform="translate(345.476 12402.926)">
      <g id="Grupo_55110" data-name="Grupo 55110" transform="translate(2.611 2.611)">
        <g id="Grupo_55096" data-name="Grupo 55096" transform="translate(67.706 19.335)">
          <path id="Trazado_100440" data-name="Trazado 100440" d="M61.712,22.056,50.32,33.448A27.323,27.323,0,0,0,44.2,23.813l-.177-.177L53.655,14Z" transform="translate(-44.02 -14)" fill="#5cd6b3"/>
        </g>
        <g id="Grupo_55097" data-name="Grupo 55097" transform="translate(16.113 66.449)">
          <path id="Trazado_100441" data-name="Trazado 100441" d="M33.269,52.2,20.056,65.411,12,57.355,26.115,43.24C28.838,45.9,31.545,48.557,33.269,52.2Z" transform="translate(-12 -43.24)" fill="#5cd6b3"/>
        </g>
        <g id="Grupo_55098" data-name="Grupo 55098" transform="translate(8.056 57.571)">
          <path id="Trazado_100442" data-name="Trazado 100442" d="M29.171,46.608,15.056,60.723,7,52.667,21.937,37.73a27.3,27.3,0,0,0,5.285,6.961c.645.645,1.289,1.289,1.95,1.917Z" transform="translate(-7 -37.73)" fill="#ff826e"/>
        </g>
        <g id="Grupo_55099" data-name="Grupo 55099" transform="translate(57.893 11.279)">
          <path id="Trazado_100443" data-name="Trazado 100443" d="M57.378,17.056l-9.635,9.635a27.162,27.162,0,0,0-9.813-6.3L49.322,9Z" transform="translate(-37.93 -9)" fill="#ff826e"/>
        </g>
        <g id="Grupo_55100" data-name="Grupo 55100" transform="translate(74.119 0)">
          <path id="Trazado_100444" data-name="Trazado 100444" d="M70.558,13.392a11.363,11.363,0,0,1-3.335,8.056l-3.11,3.11L48,8.445l3.11-3.11a11.392,11.392,0,0,1,19.448,8.056Z" transform="translate(-48 -2)" fill="#aab2bd"/>
        </g>
        <g id="Grupo_55101" data-name="Grupo 55101" transform="translate(0 72.507)">
          <path id="Trazado_100445" data-name="Trazado 100445" d="M26.169,63.113,5.69,70.992a2.85,2.85,0,0,1-.967.177A2.73,2.73,0,0,1,2,68.446a2.85,2.85,0,0,1,.177-.967L10.056,47l8.056,8.056Z" transform="translate(-2 -47)" fill="#ccd1d9"/>
        </g>
        <g id="Grupo_55102" data-name="Grupo 55102" transform="translate(69.285 6.445)">
          <path id="Trazado_100446" data-name="Trazado 100446" d="M65.947,22.113l-4.834,4.834L53.056,18.89,45,10.834,49.834,6Z" transform="translate(-45 -6)" fill="#e6e9ed"/>
        </g>
        <g id="Grupo_55103" data-name="Grupo 55103" transform="translate(58.28 48.338)">
          <path id="Trazado_100447" data-name="Trazado 100447" d="M58.843,33.692a4.691,4.691,0,0,0,2.9,4.35c.016,0,.048.016.064.016a4.685,4.685,0,0,0,5.14-1l1.208-1.208,4.56,4.56-1.208,1.208a4.684,4.684,0,0,0-1,5.14c0,.016.016.048.016.064a4.691,4.691,0,0,0,4.35,2.9h1.692v6.445H74.875a4.691,4.691,0,0,0-4.35,2.9c0,.016-.016.048-.016.064a4.684,4.684,0,0,0,1,5.14l1.208,1.208-4.56,4.56-1.208-1.208a4.684,4.684,0,0,0-5.14-1c-.016,0-.048.016-.064.016a4.691,4.691,0,0,0-2.9,4.35v1.692H52.4V72.2a4.691,4.691,0,0,0-2.9-4.35c-.016,0-.048-.016-.064-.016a4.684,4.684,0,0,0-5.14,1l-1.208,1.208-4.077-4.077a3.188,3.188,0,0,0,.5-1.74,3.234,3.234,0,0,0-1.337-2.61c1.563-5.027,4.882-8.3,8.217-11.537a9.967,9.967,0,0,0-.435,2.868,9.668,9.668,0,1,0,9.668-9.668,9.831,9.831,0,0,0-3.722.741A19.7,19.7,0,0,0,55.62,32h3.223Z" transform="translate(-38.17 -32)" fill="#ffc729"/>
        </g>
        <g id="Grupo_55104" data-name="Grupo 55104" transform="translate(66.062 59.617)">
          <path id="Trazado_100448" data-name="Trazado 100448" d="M52.668,39A9.668,9.668,0,1,1,43,48.668a9.967,9.967,0,0,1,.435-2.868v-.016a44.7,44.7,0,0,0,5.511-6.042A9.83,9.83,0,0,1,52.668,39Zm3.223,9.668a3.223,3.223,0,1,0-3.223,3.223A3.232,3.232,0,0,0,55.89,48.668Z" transform="translate(-43 -39)" fill="#fcd770"/>
        </g>
        <g id="Grupo_55105" data-name="Grupo 55105" transform="translate(40.282 90.231)">
          <path id="Trazado_100449" data-name="Trazado 100449" d="M35.056,64.445a8.256,8.256,0,0,1-8.008-6.252L27,58H43.113l-.048.193A8.318,8.318,0,0,1,40.132,62.7,8.23,8.23,0,0,1,35.056,64.445Z" transform="translate(-27 -58)" fill="#aab2bd"/>
        </g>
        <g id="Grupo_55106" data-name="Grupo 55106" transform="translate(37.059 83.786)">
          <path id="Trazado_100450" data-name="Trazado 100450" d="M44.335,54a3.232,3.232,0,0,1,3.223,3.223,3.246,3.246,0,0,1-3.223,3.223H28.223A3.232,3.232,0,0,1,25,57.223,3.246,3.246,0,0,1,28.223,54Z" transform="translate(-25 -54)" fill="#ccd1d9"/>
        </g>
        <g id="Grupo_55107" data-name="Grupo 55107" transform="translate(37.059 77.341)">
          <path id="Trazado_100451" data-name="Trazado 100451" d="M47.558,53.223a3.188,3.188,0,0,1-.5,1.74,3.577,3.577,0,0,1-.451.532,3.15,3.15,0,0,1-2.272.951H28.223A3.232,3.232,0,0,1,25,53.223a3.151,3.151,0,0,1,.951-2.272,1.944,1.944,0,0,1,.387-.338A3.178,3.178,0,0,1,28.223,50H44.335a3.178,3.178,0,0,1,1.885.612,3.234,3.234,0,0,1,1.337,2.61Z" transform="translate(-25 -50)" fill="#ccd1d9"/>
        </g>
        <g id="Grupo_55108" data-name="Grupo 55108" transform="translate(20.947 20.947)">
          <path id="Trazado_100452" data-name="Trazado 100452" d="M68.059,32.837A27.323,27.323,0,0,0,61.936,23.2l-.177-.177A27.464,27.464,0,0,0,42.923,15h-.016A11.028,11.028,0,0,1,44,19.834a11.155,11.155,0,0,1-.6,3.609v.016a6.31,6.31,0,0,1,2.207-.4,6.445,6.445,0,1,1,0,12.89H15.757A27.356,27.356,0,0,0,15,42.392a20.008,20.008,0,0,0,2.046,9.233,27.3,27.3,0,0,0,5.285,6.961c.645.645,1.289,1.289,1.95,1.917,2.723,2.659,5.43,5.317,7.154,8.959a15.53,15.53,0,0,1,1.015,2.546,3.177,3.177,0,0,1,1.885-.612H50.448a3.177,3.177,0,0,1,1.885.612c1.563-5.027,4.882-8.3,8.217-11.537v-.016a44.7,44.7,0,0,0,5.511-6.042,19.7,19.7,0,0,0,3.722-12.02,27.17,27.17,0,0,0-1.724-9.555Z" transform="translate(-15 -15)" fill="#ffeaa7"/>
        </g>
        <g id="Grupo_55109" data-name="Grupo 55109" transform="translate(0 6.445)">
          <path id="Trazado_100453" data-name="Trazado 100453" d="M36.32,14.926A11.278,11.278,0,0,1,50.854,20.5a11.028,11.028,0,0,1,1.1,4.834,11.155,11.155,0,0,1-.6,3.609v.016a6.31,6.31,0,0,1,2.207-.4,6.445,6.445,0,1,1,0,12.89h-43.5a8.051,8.051,0,0,1-.773-16.064v-.016A14.3,14.3,0,0,1,8.445,20.5,14.5,14.5,0,0,1,36.3,14.862Z" transform="translate(-2 -6)" fill="#e6e9ed"/>
        </g>
      </g>
      <g id="Grupo_55111" data-name="Grupo 55111" transform="translate(1 1)">
        <path id="Trazado_100454" data-name="Trazado 100454" d="M50.834,51.668A4.834,4.834,0,1,0,46,46.834,4.84,4.84,0,0,0,50.834,51.668Zm0-6.445a1.611,1.611,0,1,1-1.611,1.611A1.613,1.613,0,0,1,50.834,45.223Z" transform="translate(26.507 24.062)"/>
        <path id="Trazado_100455" data-name="Trazado 100455" d="M94.712,65.093a3.092,3.092,0,0,1,.659-3.389l2.344-2.346L90.877,52.52l-2.348,2.346a3.109,3.109,0,0,1-3.45.632,3.07,3.07,0,0,1-1.9-2.849V49.338h-3.3a28.544,28.544,0,0,0-1.428-7.491L97.088,23.2A13,13,0,1,0,78.7,4.809L60.072,23.437a28.623,28.623,0,0,0-7.6-1.42,12.823,12.823,0,0,0-14.725-6.012A16.081,16.081,0,0,0,7.872,27.2a9.666,9.666,0,0,0,2.8,18.92H22.356a29.216,29.216,0,0,0-.409,4.834,22.123,22.123,0,0,0,1.714,8.9L9.287,74.223l-8,20.8A4.288,4.288,0,0,0,1,96.569a4.329,4.329,0,0,0,5.883,4.041l20.8-8L38.188,82.1a4.709,4.709,0,0,0,1.128,4.3,4.792,4.792,0,0,0,2.352,7.879,9.815,9.815,0,0,0,18.562,0A4.827,4.827,0,0,0,63.84,89.62c0-.121-.027-.234-.035-.351l2,2,2.348-2.346a3.155,3.155,0,0,1,5.354,2.219v3.311h9.668V91.143a3.158,3.158,0,0,1,5.356-2.219l2.346,2.346,6.838-6.838-2.344-2.346a3.116,3.116,0,0,1-.633-3.45,3.076,3.076,0,0,1,2.85-1.906H100.9V67.062H97.588a3.1,3.1,0,0,1-2.876-1.969Zm-24.143,4.75a48.086,48.086,0,0,0,5.038-5.5,7.961,7.961,0,0,1,2.734-.508,8.134,8.134,0,1,1-7.773,6ZM72.5,31.675l7.449-7.451L85.73,30l-8.606,8.606A29.241,29.241,0,0,0,72.5,31.675ZM74.174,13.89l2.555-2.555L90.564,25.169l-2.555,2.555Zm13.72-9.668a9.782,9.782,0,0,1,6.917,16.7l-1.969,1.969L79.008,9.056l1.969-1.969A9.723,9.723,0,0,1,87.894,4.223Zm-16,11.946,5.778,5.778-7.446,7.446a29.208,29.208,0,0,0-6.93-4.626ZM76.73,50.949c0,8.383-4.222,12.5-8.691,16.86-3.078,3-6.239,6.105-8.079,10.628a4.764,4.764,0,0,0-.954-.1H52.561V70.285a4.84,4.84,0,0,0-4.834-4.834H44.5a1.611,1.611,0,1,1,0-3.223H60.617a4.834,4.834,0,0,0,0-9.668H47.727a1.613,1.613,0,0,1-1.611-1.611V46.116h8.056a8.056,8.056,0,0,0,0-16.113c-.045,0-.087.013-.132.013a12.687,12.687,0,0,0,.132-1.624,12.908,12.908,0,0,0-.38-3.055A25.918,25.918,0,0,1,76.73,50.949ZM41.282,83.175a1.613,1.613,0,0,1,1.611-1.611H59.006a1.611,1.611,0,1,1,0,3.223H42.893A1.613,1.613,0,0,1,41.282,83.175ZM21,83.175,32.847,71.33a29.248,29.248,0,0,1,5.179,6.376L26.78,88.953ZM4.223,36.448a6.445,6.445,0,1,1,12.89,0h3.223A9.671,9.671,0,0,0,11.08,26.8a12.877,12.877,0,0,1,23.707-9.526,12.9,12.9,0,0,0-6.315,9.708,6.444,6.444,0,0,0-4.914,6.242H26.78a3.223,3.223,0,1,1,6.445,0h3.223a6.435,6.435,0,0,0-4.729-6.184,9.656,9.656,0,1,1,18.876,3.836,8.04,8.04,0,0,0-4.479,7.181h3.223a4.834,4.834,0,1,1,4.834,4.834h-43.5A6.452,6.452,0,0,1,4.223,36.448Zm38.671,9.668v4.834a4.84,4.84,0,0,0,4.834,4.834h12.89a1.611,1.611,0,0,1,0,3.223H44.5a4.834,4.834,0,0,0,0,9.668h3.223a1.613,1.613,0,0,1,1.611,1.611v8.056H42.893a4.764,4.764,0,0,0-.954.1c-1.84-4.523-5-7.626-8.079-10.628-4.47-4.358-8.691-8.477-8.691-16.86a25.975,25.975,0,0,1,.5-4.834ZM30.546,69.075,18.724,80.9l-5.778-5.778L25.24,62.825a36.245,36.245,0,0,0,5.306,6.25ZM11.282,78.011,23.888,90.617,13.215,94.723,7.176,88.684ZM5.727,97.6A1.108,1.108,0,0,1,4.3,96.173l1.614-4.2,4.014,4.014Zm45.222.074a6.62,6.62,0,0,1-5.678-3.223H56.628a6.62,6.62,0,0,1-5.678,3.223Zm8.056-6.445H42.893a1.611,1.611,0,1,1,0-3.223H59.006a1.611,1.611,0,1,1,0,3.223ZM97.676,73.507h-.089a6.38,6.38,0,0,0-4.5,10.857l.068.068-2.282,2.282-.068-.068a6.38,6.38,0,0,0-10.857,4.5v.089H76.73v-.089a6.38,6.38,0,0,0-10.858-4.5l-.068.068L63.621,84.53a4.723,4.723,0,0,0,.219-1.355,4.787,4.787,0,0,0-1.083-3.011,20.78,20.78,0,0,1,4.4-6.867A11.274,11.274,0,1,0,78.341,60.617c-.158,0-.311.016-.467.023A21.14,21.14,0,0,0,79.9,52.561h.05v.089a6.38,6.38,0,0,0,10.857,4.5l.068-.068,2.282,2.282-.068.068a6.38,6.38,0,0,0,4.5,10.857h.089Z" transform="translate(-1 -1)" fill="#31326f"/>
      </g>
    </g>
  </g>
</svg>
