<svg xmlns="http://www.w3.org/2000/svg" xmlns:xlink="http://www.w3.org/1999/xlink" width="308.72" height="176.938" viewBox="0 0 308.72 176.938">
  <defs>
    <linearGradient id="linear-gradient" x1="0.5" x2="0.5" y2="1" gradientUnits="objectBoundingBox">
      <stop offset="0" stop-color="#dbf6e9"/>
      <stop offset="1" stop-color="#fff"/>
    </linearGradient>
  </defs>
  <g id="Grupo_55168" data-name="Grupo 55168" transform="translate(-242 -12687.825)">
    <path id="Trazado_100456" data-name="Trazado 100456" d="M294,100.07H280.441a12.279,12.279,0,0,1-12.279-12.279h0a12.28,12.28,0,0,1,12.279-12.28h8.533a5.3,5.3,0,0,0,5.3-4.424,5.2,5.2,0,0,0-5.14-5.967H268.772a.614.614,0,0,1-.61-.624,12.476,12.476,0,0,0-12.476-12.461H182.173a3.351,3.351,0,0,1-3.326-2.595,3.275,3.275,0,0,1,3.2-3.948h51.244a6.61,6.61,0,0,0,6.593-5.429,6.5,6.5,0,0,0-6.41-7.56H86.164a6.61,6.61,0,0,0-6.593,5.428,6.5,6.5,0,0,0,6.41,7.56h25.163a7.236,7.236,0,0,1,7.217,5.943,7.114,7.114,0,0,1-7.017,8.276h-74.8A27.744,27.744,0,0,0,8.8,87.456h0a27.746,27.746,0,0,0,22.584,27.257,4.092,4.092,0,0,1,3.3,4.038v2.264a4.123,4.123,0,0,1-4.123,4.123h0A20.412,20.412,0,0,0,10.147,145.55h0a20.412,20.412,0,0,0,20.412,20.411h.073a6.135,6.135,0,0,1,6.135,6.135v.015a6.372,6.372,0,0,1-5.8,6.319,6.668,6.668,0,0,0-1.5.281,15.807,15.807,0,0,0,5.259,30.731H269.488a16.069,16.069,0,0,0,16.133-14.552c.005-.073.011-.147.016-.22a7.611,7.611,0,0,1,7.567-7.164h2.909a13.133,13.133,0,0,0,13.133-13.133h0c0-5.469-4.409-9.993-9.687-11.888a8.053,8.053,0,0,1-5.437-7.538v-.379a8.733,8.733,0,0,1,6.393-8.364,23.534,23.534,0,0,0,17.006-22.609h0A23.523,23.523,0,0,0,294,100.07Z" transform="translate(233.2 12655.321)" fill="url(#linear-gradient)"/>
    <g id="Grupo_55112" data-name="Grupo 55112" transform="translate(3.624 5186.491)">
      <g id="rompecabezas" transform="translate(334.367 7559.755)">
        <path id="Trazado_100457" data-name="Trazado 100457" d="M389.941,360.259V337.073a7.786,7.786,0,0,0-3.319-6.376l-14.629-10.242a5.836,5.836,0,0,0-3.348-1.055H356.866l.195,33.289a8.126,8.126,0,0,0,5.642,7.569h27.238Z" transform="translate(-275.15 -245.468)" fill="#f5fffa"/>
        <path id="Trazado_100458" data-name="Trazado 100458" d="M378.268,444.235H364.648a7.783,7.783,0,0,1-7.782-7.782V428.67h13.619Z" transform="translate(-275.15 -329.444)" fill="#f5fffa"/>
        <path id="Trazado_100459" data-name="Trazado 100459" d="M62.834,22.024a9.7,9.7,0,0,0-3.891.821V8.4H23.922A11.673,11.673,0,0,0,12.248,20.079V55.1h14.44a9.728,9.728,0,1,1,17.814,0h14.44V40.661a9.728,9.728,0,1,0,3.891-18.637Z" transform="translate(-10.302 -6.459)" fill="#9ddfd3"/>
        <path id="Trazado_100460" data-name="Trazado 100460" d="M260.663,20.079A11.673,11.673,0,0,0,248.989,8.4H213.968v14.44a9.728,9.728,0,1,1,0,17.814V55.1h14.44a9.728,9.728,0,1,0,17.814,0h14.44V20.079Z" transform="translate(-165.328 -6.459)" fill="#cc3d60"/>
        <path id="Trazado_100461" data-name="Trazado 100461" d="M260.67,63.636c-11.121,15.472-31.2,24.26-46.695,28.99v4.92h14.44a9.728,9.728,0,1,0,17.814,0h14.44V63.636Z" transform="translate(-165.335 -48.906)" fill="#b73b59"/>
        <path id="Trazado_100462" data-name="Trazado 100462" d="M55.052,180.408a9.7,9.7,0,0,1,3.891.821V164.843H44.5a9.728,9.728,0,1,0-17.814,0H12.248v35.021A11.673,11.673,0,0,0,23.922,211.54H58.943V199.045a9.728,9.728,0,1,1-3.891-18.637Z" transform="translate(-10.302 -116.203)" fill="#fdb62f"/>
        <path id="Trazado_100463" data-name="Trazado 100463" d="M12.248,330.28a11.673,11.673,0,0,0,11.674,11.674H58.943V329.459A9.685,9.685,0,0,1,45.358,320.9a85.1,85.1,0,0,1-33.11,7.364Z" transform="translate(-10.302 -246.618)" fill="#ffa719"/>
        <path id="Trazado_100464" data-name="Trazado 100464" d="M237.07,276.635l-12.31-32.881-13.52,5.092a9.739,9.739,0,1,1-16.676,6.282l-13.518,5.092,5.759,15.388a9.635,9.635,0,0,0-3.93.6,9.755,9.755,0,0,0,6.839,18.271,9.648,9.648,0,0,0,3.356-2.144l4.389,11.734,32.787-12.349A11.719,11.719,0,0,0,237.07,276.635Z" transform="translate(-136.647 -187.331)" fill="#31326f"/>
        <path id="Trazado_100465" data-name="Trazado 100465" d="M233.19,312.551c-13.425,20.079-38.591,27.091-53.331,29.505a9.663,9.663,0,0,0,15.68,3.15l4.389,11.734,32.787-12.349a11.721,11.721,0,0,0,6.823-15.078Z" transform="translate(-139.116 -240.204)" fill="#242558"/>
        <path id="Trazado_100466" data-name="Trazado 100466" d="M62.834,60.6a9.7,9.7,0,0,0-3.891.821V58.593C44.374,72,24.636,79.411,12.248,83.02v10.65h14.44a9.728,9.728,0,1,1,17.814,0h14.44V79.232A9.728,9.728,0,1,0,62.834,60.6Z" transform="translate(-10.302 -45.03)" fill="#edfff6"/>
        <path id="Trazado_100467" data-name="Trazado 100467" d="M371.637,382a4.815,4.815,0,0,0-6.878,6.742c.023.023.045.047.068.068l6.775,6.775a11.673,11.673,0,0,0,11.674,11.674H394.95v-1.945Z" transform="translate(-280.159 -292.465)" fill="#f5fffa"/>
        <path id="Trazado_100468" data-name="Trazado 100468" d="M48.592,62.1a11.674,11.674,0,0,0-4.67,22.375l1.556-3.564A7.782,7.782,0,0,1,48.592,65.99a7.694,7.694,0,0,1,3.113.658,1.945,1.945,0,0,0,2.724-1.782V50.586h9.893a11.44,11.44,0,0,0-.165,1.946A11.707,11.707,0,0,0,73.5,63.972l.778-3.811a7.808,7.808,0,0,1-6.226-7.629,7.694,7.694,0,0,1,.658-3.113,1.945,1.945,0,0,0-1.782-2.724H54.428V36.8a11.44,11.44,0,0,0,1.946.165,11.674,11.674,0,1,0,0-23.347h0a11.437,11.437,0,0,0-1.946.165V3.891H87.5a9.739,9.739,0,0,1,9.728,9.728V46.695H84.737a1.947,1.947,0,0,0-1.782,2.724,7.694,7.694,0,0,1,.658,3.113H87.5a11.436,11.436,0,0,0-.165-1.946H99.177a1.946,1.946,0,0,0,1.946-1.946V13.619A13.636,13.636,0,0,0,87.5,0H17.462A13.637,13.637,0,0,0,3.843,13.619V83.5A13.637,13.637,0,0,0,17.462,97.119h21.4V93.228h-21.4A9.739,9.739,0,0,1,7.734,83.5V50.586H20.229a2.094,2.094,0,0,0,1.936-2.241,2.06,2.06,0,0,0-.154-.646,7.782,7.782,0,1,1,14.25,0,2.016,2.016,0,0,0,1.782,2.887H50.538V62.262A11.206,11.206,0,0,0,48.592,62.1ZM17.462,3.891H50.538V16.386a1.947,1.947,0,0,0,2.724,1.782,7.694,7.694,0,0,1,3.113-.658,7.782,7.782,0,0,1,0,15.565,7.694,7.694,0,0,1-3.113-.658A1.945,1.945,0,0,0,50.538,34.2V46.533h-9.88a11.435,11.435,0,0,0,.152-1.784v-.162a11.674,11.674,0,1,0-23.347,0v.162a11.409,11.409,0,0,0,.152,1.784H7.734V13.619A9.74,9.74,0,0,1,17.462,3.891Z" transform="translate(-3.843)" fill="#31326f"/>
        <path id="Trazado_100469" data-name="Trazado 100469" d="M242.307,263.946,225.95,252.683,219.667,235.9a1.944,1.944,0,0,0-2.5-1.144c-.037.014-.072.027-.107.043l-12.646,5.594a1.947,1.947,0,0,0-1.031,2.475c.21.545.407.957.615,1.385a14.9,14.9,0,0,1,.636,1.461,7.786,7.786,0,1,1-15.047,2.339,1.946,1.946,0,0,0-2.63-1.922l-13.518,5.092a1.946,1.946,0,0,0-1.136,2.5l4.852,12.962a10.935,10.935,0,0,0-1.887.522,11.7,11.7,0,1,0,9.971,21.073l3.479,9.292a1.947,1.947,0,0,0,2.5,1.14l0,0,19.277-7.263a10.448,10.448,0,0,0,6.162,5.5l1.23-3.7a6.565,6.565,0,0,1-3.72-3.179l5.866-2.208a13.577,13.577,0,0,0,12.812,9.03V293a9.789,9.789,0,0,1-9.728-9.728,1.941,1.941,0,0,0-.57-1.376l-6.775-6.775a2.885,2.885,0,0,1-.267-3.753,2.833,2.833,0,0,1,2.092-1.14,2.784,2.784,0,0,1,2.233.835l13.584,13.584,2.751-2.751-4.02-4.02a13.568,13.568,0,0,0-.173-9.1l-3.646-9.738,11.757,8.1a5.848,5.848,0,0,1,2.488,4.782v25.131h3.891V271.925A9.748,9.748,0,0,0,242.307,263.946ZM228.9,274.63l-6.316-6.313a6.761,6.761,0,0,0-9.681,9.44c.039.041.08.082.121.121l6.154,6.154-27.5,10.356-3.708-9.909a1.946,1.946,0,0,0-3.183-.708,7.783,7.783,0,1,1-8.148-12.919,7.506,7.506,0,0,1,1.924-.436,7.113,7.113,0,0,1,1.22-.041,1.946,1.946,0,0,0,1.924-2.624l-5.082-13.569,9.265-3.489a11.677,11.677,0,1,0,22.388-6.339c-.179-.479-.34-.858-.5-1.2l8.95-3.963,11.6,30.953A9.716,9.716,0,0,1,228.9,274.63Z" transform="translate(-129.732 -180.32)" fill="#31326f"/>
      </g>
    </g>
  </g>
</svg>
