<svg xmlns="http://www.w3.org/2000/svg" width="140" height="140" viewBox="0 0 140 140">
  <g id="Grupo_55367" data-name="Grupo 55367" transform="translate(-255 -1340)">
    <g id="Elipse_1381" data-name="Elipse 1381" transform="translate(255 1340)" fill="#fff" stroke="#ffc93c" stroke-width="2">
      <circle cx="70" cy="70" r="70" stroke="none"/>
      <circle cx="70" cy="70" r="69" fill="none"/>
    </g>
    <g id="Grupo_55360" data-name="Grupo 55360" transform="translate(281 1367)">
      <path id="Trazado_99202" data-name="Trazado 99202" d="M507.708,172.519c-9.655-1.623-14.059-21.688-10.026-45.68s14.756-41.515,24.41-39.891,14.059,21.688,10.027,45.68S517.364,174.142,507.708,172.519Zm14.079-83.75c-8.346-1.4-18.551,16.171-22.283,38.376s.164,42.149,8.511,43.553,18.55-16.171,22.283-38.376S530.133,90.171,521.787,88.769Z" transform="translate(-471.271 -86.261)" fill="#31326f"/>
      <path id="Trazado_99203" data-name="Trazado 99203" d="M467.627,162.713c-3.129-.526-5.446-1.667-6.713-3.463a6.587,6.587,0,0,1-.813-5.631c2.06-8.179,15.792-19.838,34.172-29.012,23.83-11.894,46.549-15.466,51.721-8.135a6.589,6.589,0,0,1,.813,5.631c-2.059,8.178-15.792,19.837-34.172,29.011C494.64,160.1,477.278,164.335,467.627,162.713Zm71.409-47.924c-9.045-1.521-26.6,2.816-43.938,11.471-17.646,8.808-31.3,20.244-33.206,27.81a4.832,4.832,0,0,0,.531,4.115c4.5,6.386,27.121,2.391,49.387-8.722h0c17.645-8.808,31.3-20.243,33.206-27.81a4.834,4.834,0,0,0-.531-4.116C543.489,116.126,541.606,115.221,539.037,114.79Z" transform="translate(-459.826 -94.391)" fill="#31326f"/>
      <path id="Trazado_99204" data-name="Trazado 99204" d="M533.185,167.068c-9.835-1.653-24.768-9.87-39.317-22.295h0c-15.959-13.63-26.719-28.458-26.773-36.9a6.411,6.411,0,0,1,2.049-5.117c6.66-5.837,27.951,3.32,48.473,20.846,15.96,13.63,26.719,28.459,26.773,36.9a6.409,6.409,0,0,1-2.049,5.117C540.4,167.319,537.223,167.747,533.185,167.068Zm-38.117-23.7c21.164,18.074,40.9,25.379,46.056,20.861a4.654,4.654,0,0,0,1.419-3.716c-.05-7.81-10.793-22.411-26.125-35.5-21.165-18.075-40.9-25.38-46.056-20.862a4.656,4.656,0,0,0-1.42,3.716C468.993,115.675,479.736,130.275,495.069,143.369Z" transform="translate(-462.114 -90.718)" fill="#31326f"/>
      <g id="Grupo_53367" data-name="Grupo 53367" transform="translate(72.809 67.34)">
        <path id="Trazado_99205" data-name="Trazado 99205" d="M573.5,197.115a6.58,6.58,0,0,1-6.879-3.868,6.2,6.2,0,0,1-.418-3.811,6.509,6.509,0,0,1,9.48-4.358c.12.067.234.138.349.208a6.171,6.171,0,0,1,1.592,1.481C580.4,190.394,578.557,196.387,573.5,197.115Z" transform="translate(-566.077 -184.265)" fill="#9ddfd3"/>
        <path id="Trazado_99206" data-name="Trazado 99206" d="M573.755,198.265a6.58,6.58,0,0,1-6.879-3.868,13.607,13.607,0,0,0,2.917.865,6.657,6.657,0,0,0,8.09-7.284c0-.018,0-.043,0-.061C580.654,191.544,578.808,197.537,573.755,198.265Z" transform="translate(-566.328 -185.414)" opacity="0.5" style="mix-blend-mode: soft-light;isolation: isolate"/>
        <path id="Trazado_99207" data-name="Trazado 99207" d="M575.774,186.855a1.85,1.85,0,0,0-.921-.977c-2.179-1.188-5.513.177-6.1,2.493a1.581,1.581,0,0,0,.655,1.749,3.182,3.182,0,0,0,2.448.148,8.357,8.357,0,0,0,3.019-1.616C575.394,188.231,576,187.571,575.774,186.855Z" transform="translate(-566.902 -184.635)" fill="#fff" style="mix-blend-mode: soft-light;isolation: isolate"/>
      </g>
      <g id="Grupo_53368" data-name="Grupo 53368" transform="translate(2.004 42.841)">
        <path id="Trazado_99208" data-name="Trazado 99208" d="M470.177,161.364A6.58,6.58,0,0,1,463.3,157.5a6.208,6.208,0,0,1-.418-3.812,6.509,6.509,0,0,1,9.48-4.358c.12.067.234.138.349.209a6.161,6.161,0,0,1,1.592,1.48C477.075,154.642,475.23,160.635,470.177,161.364Z" transform="translate(-462.75 -148.512)" fill="#9ddfd3"/>
        <path id="Trazado_99209" data-name="Trazado 99209" d="M470.428,162.514a6.58,6.58,0,0,1-6.879-3.868,13.6,13.6,0,0,0,2.917.865,6.656,6.656,0,0,0,8.089-7.284c0-.019,0-.042,0-.062C477.327,155.792,475.481,161.785,470.428,162.514Z" transform="translate(-463.001 -149.662)" opacity="0.5" style="mix-blend-mode: soft-light;isolation: isolate"/>
        <path id="Trazado_99210" data-name="Trazado 99210" d="M472.448,151.1a1.849,1.849,0,0,0-.922-.978c-2.179-1.188-5.513.177-6.1,2.494a1.579,1.579,0,0,0,.656,1.749,3.18,3.18,0,0,0,2.447.149,8.367,8.367,0,0,0,3.018-1.616C472.067,152.48,472.668,151.819,472.448,151.1Z" transform="translate(-463.575 -148.883)" fill="#fff" style="mix-blend-mode: soft-light;isolation: isolate"/>
      </g>
      <g id="Grupo_53369" data-name="Grupo 53369" transform="translate(35.14 0)">
        <path id="Trazado_99211" data-name="Trazado 99211" d="M518.532,98.845a6.581,6.581,0,0,1-6.879-3.868,6.207,6.207,0,0,1-.417-3.812,6.508,6.508,0,0,1,9.48-4.358c.119.067.234.138.349.208a6.167,6.167,0,0,1,1.591,1.48C525.431,92.124,523.586,98.116,518.532,98.845Z" transform="translate(-511.105 -85.994)" fill="#9ddfd3"/>
        <path id="Trazado_99212" data-name="Trazado 99212" d="M518.784,99.995a6.581,6.581,0,0,1-6.879-3.868,13.614,13.614,0,0,0,2.917.865,6.656,6.656,0,0,0,8.089-7.284c0-.019,0-.042,0-.062C525.683,93.273,523.837,99.266,518.784,99.995Z" transform="translate(-511.357 -87.143)" opacity="0.5" style="mix-blend-mode: soft-light;isolation: isolate"/>
        <path id="Trazado_99213" data-name="Trazado 99213" d="M520.8,88.585a1.851,1.851,0,0,0-.922-.978c-2.179-1.188-5.513.177-6.1,2.494a1.579,1.579,0,0,0,.655,1.749,3.181,3.181,0,0,0,2.448.149,8.368,8.368,0,0,0,3.018-1.617C520.422,89.961,521.024,89.3,520.8,88.585Z" transform="translate(-511.931 -86.364)" fill="#fff" style="mix-blend-mode: soft-light;isolation: isolate"/>
      </g>
      <g id="Grupo_53370" data-name="Grupo 53370" transform="translate(33.023 32.834)">
        <path id="Trazado_99214" data-name="Trazado 99214" d="M520.283,155.132a10.867,10.867,0,0,1-11.361-6.387,10.253,10.253,0,0,1-.69-6.3,10.75,10.75,0,0,1,15.657-7.2c.2.11.387.227.576.344a10.185,10.185,0,0,1,2.628,2.445C531.677,144.032,528.629,153.929,520.283,155.132Z" transform="translate(-508.017 -133.908)" fill="#cc3d60"/>
        <path id="Trazado_99215" data-name="Trazado 99215" d="M520.7,157.031a10.867,10.867,0,0,1-11.362-6.387,22.5,22.5,0,0,0,4.817,1.428,12.161,12.161,0,0,0,7.7-1.064c3.8-2.06,5.772-6.639,5.656-10.967,0-.032,0-.07-.006-.1C532.092,145.931,529.044,155.828,520.7,157.031Z" transform="translate(-508.433 -135.807)" opacity="0.5" style="mix-blend-mode: soft-light;isolation: isolate"/>
        <path id="Trazado_99216" data-name="Trazado 99216" d="M524.034,138.187a3.053,3.053,0,0,0-1.522-1.615c-3.6-1.962-9.105.293-10.076,4.118a2.61,2.61,0,0,0,1.082,2.889,5.256,5.256,0,0,0,4.042.245,13.806,13.806,0,0,0,4.985-2.669C523.4,140.46,524.4,139.368,524.034,138.187Z" transform="translate(-509.38 -134.52)" fill="#fff" style="mix-blend-mode: soft-light;isolation: isolate"/>
      </g>
    </g>
  </g>
</svg>
