<svg xmlns="http://www.w3.org/2000/svg" xmlns:xlink="http://www.w3.org/1999/xlink" width="308.72" height="188.659" viewBox="0 0 308.72 188.659">
  <defs>
    <linearGradient id="linear-gradient" x1="0.5" x2="0.5" y2="1" gradientUnits="objectBoundingBox">
      <stop offset="0" stop-color="#dbf6e9"/>
      <stop offset="1" stop-color="#fff"/>
    </linearGradient>
  </defs>
  <g id="Grupo_55169" data-name="Grupo 55169" transform="translate(-242 -12989.825)">
    <path id="Trazado_100470" data-name="Trazado 100470" d="M294,100.07H280.441a12.279,12.279,0,0,1-12.279-12.279h0a12.28,12.28,0,0,1,12.279-12.28h8.533a5.3,5.3,0,0,0,5.3-4.424,5.2,5.2,0,0,0-5.14-5.967H268.772a.614.614,0,0,1-.61-.624,12.476,12.476,0,0,0-12.476-12.461H182.173a3.351,3.351,0,0,1-3.326-2.595,3.275,3.275,0,0,1,3.2-3.948h51.244a6.61,6.61,0,0,0,6.593-5.429,6.5,6.5,0,0,0-6.41-7.56H86.164a6.61,6.61,0,0,0-6.593,5.428,6.5,6.5,0,0,0,6.41,7.56h25.163a7.236,7.236,0,0,1,7.217,5.943,7.114,7.114,0,0,1-7.017,8.276h-74.8A27.744,27.744,0,0,0,8.8,87.456h0a27.746,27.746,0,0,0,22.584,27.257,4.092,4.092,0,0,1,3.3,4.038v2.264a4.123,4.123,0,0,1-4.123,4.123h0A20.412,20.412,0,0,0,10.147,145.55h0a20.412,20.412,0,0,0,20.412,20.411h.073a6.135,6.135,0,0,1,6.135,6.135v.015a6.372,6.372,0,0,1-5.8,6.319,6.668,6.668,0,0,0-1.5.281,15.807,15.807,0,0,0,5.259,30.731H269.488a16.069,16.069,0,0,0,16.133-14.552c.005-.073.011-.147.016-.22a7.611,7.611,0,0,1,7.567-7.164h2.909a13.133,13.133,0,0,0,13.133-13.133h0c0-5.469-4.409-9.993-9.687-11.888a8.053,8.053,0,0,1-5.437-7.538v-.379a8.733,8.733,0,0,1,6.393-8.364,23.534,23.534,0,0,0,17.006-22.609h0A23.523,23.523,0,0,0,294,100.07Z" transform="translate(233.2 12957.321)" fill="url(#linear-gradient)"/>
    <g id="advertencia" transform="translate(412.589 12986.514)">
      <path id="Trazado_100471" data-name="Trazado 100471" d="M214.313,29.994l27.937,48.388a12.074,12.074,0,0,1-10.463,18.1H203.85l-9.661-36.27,9.661-36.27A12.069,12.069,0,0,1,214.313,29.994Z" transform="translate(-163.837)" fill="#31326f"/>
      <path id="Trazado_100472" data-name="Trazado 100472" d="M29.55,29.994,1.613,78.382a12.074,12.074,0,0,0,10.463,18.1H40.013V23.946A12.069,12.069,0,0,0,29.55,29.994Z" fill="#31326f"/>
      <path id="Trazado_100473" data-name="Trazado 100473" d="M291.338,106.895,263.4,58.507a7.27,7.27,0,0,0-6.072-3.629l23.894,62.876h3.835a7.244,7.244,0,0,0,6.28-10.859Z" transform="translate(-217.108 -26.097)" fill="#ffb751"/>
      <path id="Trazado_100474" data-name="Trazado 100474" d="M95.606,106.869a8.134,8.134,0,0,1,.834,3.613c0,3.995-2.8,7.246-6.251,7.246H38.152a7.245,7.245,0,0,1-6.28-10.859L59.809,58.481a7.277,7.277,0,0,1,6.28-3.634q.1,0,.208,0A6.212,6.212,0,0,1,71.5,58.481Z" transform="translate(-26.075 -26.071)" fill="#ffd764"/>
      <path id="Trazado_100475" data-name="Trazado 100475" d="M256,354.131v8.051a4.025,4.025,0,1,0,0-8.051Z" transform="translate(-215.987 -278.577)" fill="#3b4145"/>
      <path id="Trazado_100476" data-name="Trazado 100476" d="M234.271,354.131c.444,0,.805,1.8.805,4.026s-.361,4.026-.805,4.026a4.026,4.026,0,1,1,0-8.051Z" transform="translate(-194.258 -278.577)" fill="#525a61"/>
      <path id="Trazado_100477" data-name="Trazado 100477" d="M256,132.646v29.788a4.026,4.026,0,0,0,4.026-4.026V136.672A4.025,4.025,0,0,0,256,132.646Z" transform="translate(-215.987 -91.71)" fill="#3b4145" stroke="#31326f" stroke-width="1"/>
      <path id="Trazado_100478" data-name="Trazado 100478" d="M234.271,132.646c.444,0,.805,1.8.805,4.026v21.737c0,2.222-.361,4.026-.805,4.026a4.026,4.026,0,0,1-4.026-4.026V136.672A4.025,4.025,0,0,1,234.271,132.646Z" transform="translate(-194.258 -91.71)" fill="#525a61" stroke="#31326f" stroke-width="1"/>
    </g>
    <g id="chico" transform="translate(260.217 13038.059)">
      <g id="Grupo_53406" data-name="Grupo 53406" transform="translate(73.437 2.056)">
        <path id="Trazado_99303" data-name="Trazado 99303" d="M198.8,415.475H129.31a40.4,40.4,0,0,1,26.263-18.939v-14.7h16.969v14.7A40.4,40.4,0,0,1,198.8,415.475Z" transform="translate(-115.479 -279.163)" fill="#ffc93c"/>
        <path id="Trazado_99304" data-name="Trazado 99304" d="M160.261,381.828v14.7c-5,2.389-9.228,9.4-11.754,18.939h-19.2a40.4,40.4,0,0,1,26.262-18.939v-14.7Z" transform="translate(-115.479 -279.16)" fill="#e2b234"/>
        <path id="Trazado_99305" data-name="Trazado 99305" d="M231.527,390.971H213.784a3.511,3.511,0,0,1-3.511-3.511v-2.117a3.511,3.511,0,0,1,3.511-3.511h17.744a3.511,3.511,0,0,1,3.511,3.511v2.117A3.511,3.511,0,0,1,231.527,390.971Z" transform="translate(-174.236 -279.163)" fill="#b3e59f"/>
        <path id="Trazado_99306" data-name="Trazado 99306" d="M224.181,390.969h-10.4a3.51,3.51,0,0,1-3.51-3.51v-2.117a3.512,3.512,0,0,1,3.51-3.513h10.4a3.513,3.513,0,0,0-3.51,3.513v2.117A3.51,3.51,0,0,0,224.181,390.969Z" transform="translate(-174.237 -279.16)" fill="#95d6a4"/>
        <path id="Trazado_99307" data-name="Trazado 99307" d="M191.335,78.426v-50.3a13.212,13.212,0,0,0-24.62-6.662,30.208,30.208,0,0,0-55.674,16.25V78.189" transform="translate(-102.22 -7.499)" fill="#9ddfd3"/>
        <path id="Trazado_99308" data-name="Trazado 99308" d="M111.04,78.188V37.709a30.217,30.217,0,0,1,43.12-27.318,30.226,30.226,0,0,0-17.3,27.318V78.188Z" transform="translate(-102.22 -7.498)" fill="#dbf6e9"/>
        <g id="Grupo_53405" data-name="Grupo 53405" transform="translate(0 61.792)">
          <circle id="Elipse_6" data-name="Elipse 6" cx="10.864" cy="10.864" r="10.864" fill="#f5fffa"/>
          <circle id="Elipse_7" data-name="Elipse 7" cx="10.864" cy="10.864" r="10.864" transform="translate(75.43)" fill="#f5fffa"/>
        </g>
        <path id="Trazado_99309" data-name="Trazado 99309" d="M202.873,135.826v21.83A29.739,29.739,0,0,1,173.134,187.4h-5.068a29.742,29.742,0,0,1-29.742-29.739v-21.83c0-.088,0-.178,0-.266a13.35,13.35,0,0,1,19.9-11.436,25.575,25.575,0,0,0,35.279-11.033A32.162,32.162,0,0,1,202.873,135.826Z" transform="translate(-122.021 -84.13)" fill="#f5fffa"/>
        <path id="Trazado_99310" data-name="Trazado 99310" d="M180.271,211.191a29.676,29.676,0,0,1-7.133.864h-5.068a29.742,29.742,0,0,1-29.742-29.739v-21.83c0-.088,0-.178,0-.266a13.35,13.35,0,0,1,19.9-11.436,25.181,25.181,0,0,0,3.809,1.717,13,13,0,0,0-4.377,9.719c0,.088,0,.178,0,.266v21.83A29.749,29.749,0,0,0,180.271,211.191Z" transform="translate(-122.023 -108.79)" fill="#e0ffef"/>
      </g>
      <g id="Grupo_53407" data-name="Grupo 53407" transform="translate(71.379)">
        <path id="Trazado_99311" data-name="Trazado 99311" d="M164.609,62.75V22.68A15.266,15.266,0,0,0,137.965,12.5,32.266,32.266,0,0,0,80.2,32.268V62.461a12.921,12.921,0,1,0,9.412,24.032,31.963,31.963,0,0,0,18.636,18.835,5.53,5.53,0,0,0-.829,2.909v2.117a5.574,5.574,0,0,0,4.057,5.354V117.8a41.6,41.6,0,0,0-4.337,1.363,2.057,2.057,0,1,0,1.449,3.85,37.83,37.83,0,0,1,5.376-1.573,2.057,2.057,0,0,0,1.626-2.011v-3.508h12.852v3.508a2.057,2.057,0,0,0,1.627,2.012,38.363,38.363,0,0,1,22.875,14.87H91.084a38.607,38.607,0,0,1,10.583-9.868,2.057,2.057,0,1,0-2.188-3.484,42.725,42.725,0,0,0-13.984,14.361,2.057,2.057,0,0,0,1.77,3.1H156.76a2.057,2.057,0,0,0,1.77-3.1,42.538,42.538,0,0,0-25.975-19.52v-2.193a5.573,5.573,0,0,0,3.741-5.253v-2.117a5.53,5.53,0,0,0-.77-2.812,31.961,31.961,0,0,0,18.891-18.934A12.921,12.921,0,1,0,164.609,62.75ZM92.561,12.359A28.15,28.15,0,0,1,136.2,17.125a2.057,2.057,0,0,0,3.509-.07A11.155,11.155,0,0,1,160.5,22.68V61.815c-.254-.015-.508-.025-.766-.025a12.945,12.945,0,0,0-3.384.452V53.754a34.332,34.332,0,0,0-1.686-10.66,2.057,2.057,0,0,0-3.912,1.276,30.214,30.214,0,0,1,1.484,9.384v4.715l-2.47,1.34A7.933,7.933,0,0,0,142.477,55H131.833A7.933,7.933,0,0,0,124,61.768a6.775,6.775,0,0,0-3.959,0A7.933,7.933,0,0,0,112.2,55H101.554a7.933,7.933,0,0,0-7.285,4.812L91.8,58.467V53.754c0-.067,0-.136,0-.2,0-.016,0-.031,0-.047a11.055,11.055,0,0,1,5.535-9.539,11.343,11.343,0,0,1,11.315-.115,27.65,27.65,0,0,0,13.366,3.445,27.43,27.43,0,0,0,23.3-12.784,30.354,30.354,0,0,1,2.123,2.9,2.057,2.057,0,1,0,3.459-2.226,34.453,34.453,0,0,0-4.516-5.621,2.057,2.057,0,0,0-3.3.537,23.518,23.518,0,0,1-32.439,10.147,15.421,15.421,0,0,0-15.383.16,15.134,15.134,0,0,0-7.575,13.038c0,.1,0,.2,0,.3v8.488a12.964,12.964,0,0,0-3.369-.45V32.268a27.972,27.972,0,0,1,8.248-19.909Zm53.724,50.56V73.19A3.812,3.812,0,0,1,142.476,77H131.832a3.812,3.812,0,0,1-3.808-3.808V62.919a3.812,3.812,0,0,1,3.808-3.808h10.644a3.812,3.812,0,0,1,3.808,3.808Zm-30.277,0V73.19A3.812,3.812,0,0,1,112.2,77H101.554a3.812,3.812,0,0,1-3.808-3.808V62.919a3.812,3.812,0,0,1,3.808-3.808H112.2a3.812,3.812,0,0,1,3.808,3.808ZM84.3,83.518a8.807,8.807,0,1,1,3.383-16.94v4.6a9.777,9.777,0,0,0-2.72-.657,12.481,12.481,0,0,0-3.9.23,2.057,2.057,0,1,0,.981,4,8.657,8.657,0,0,1,2.51-.132,4.152,4.152,0,0,1,3.139,1.575,31.727,31.727,0,0,0,.749,6.3A8.722,8.722,0,0,1,84.3,83.518Zm46.43,23.263a1.456,1.456,0,0,1,1.453,1.456v2.117a1.455,1.455,0,0,1-1.453,1.453H112.986a1.455,1.455,0,0,1-1.453-1.453v-2.117a1.456,1.456,0,0,1,1.453-1.456h.352a31.827,31.827,0,0,0,6.143.6h5.069a31.843,31.843,0,0,0,6.143-.6Zm-6.18-3.516h-5.069A27.715,27.715,0,0,1,91.8,75.583V63.147l1.836,1V73.19a7.931,7.931,0,0,0,7.922,7.922H112.2a7.931,7.931,0,0,0,7.922-7.922V66.38a2.658,2.658,0,0,1,3.79,0v6.81a7.931,7.931,0,0,0,7.922,7.922h10.644A7.931,7.931,0,0,0,150.4,73.19V64.143l1.833-.994V75.583a27.714,27.714,0,0,1-27.683,27.682Zm35.18-19.747a8.734,8.734,0,0,1-4.14-1.035,31.733,31.733,0,0,0,.748-6.291,4.108,4.108,0,0,1,3.044-1.569,8.6,8.6,0,0,1,2.616.124,2.057,2.057,0,0,0,.973-4,12.473,12.473,0,0,0-3.9-.23,9.782,9.782,0,0,0-2.724.659v-4.6a8.807,8.807,0,1,1,3.384,16.938Z" transform="translate(-71.379 0)" fill="#21214b"/>
        <ellipse id="Elipse_8" data-name="Elipse 8" cx="3.599" cy="4.931" rx="3.599" ry="4.931" transform="translate(33.08 62.435)" fill="#21214b"/>
        <path id="Trazado_99312" data-name="Trazado 99312" d="M297.371,227.64c-1.984,0-3.6,2.212-3.6,4.931s1.614,4.931,3.6,4.931,3.6-2.212,3.6-4.931S299.355,227.64,297.371,227.64Z" transform="translate(-232.776 -165.205)" fill="#21214b"/>
        <path id="Trazado_99313" data-name="Trazado 99313" d="M177.9,178.345a2.057,2.057,0,1,0,2.909,2.909,4.19,4.19,0,0,1,5.919,0,2.057,2.057,0,1,0,2.909-2.909A8.309,8.309,0,0,0,177.9,178.345Z" transform="translate(-148.243 -127.669)" fill="#21214b"/>
        <path id="Trazado_99314" data-name="Trazado 99314" d="M289.257,178.345a2.057,2.057,0,1,0,2.909,2.909,4.19,4.19,0,0,1,5.919,0,2.057,2.057,0,1,0,2.909-2.909A8.309,8.309,0,0,0,289.257,178.345Z" transform="translate(-229.062 -127.669)" fill="#21214b"/>
        <path id="Trazado_99315" data-name="Trazado 99315" d="M243.052,302.976a2.057,2.057,0,0,0-2.877.434,4.536,4.536,0,0,1-7.3,0,2.057,2.057,0,1,0-3.31,2.443,8.65,8.65,0,0,0,13.918,0A2.057,2.057,0,0,0,243.052,302.976Z" transform="translate(-185.89 -219.587)" fill="#21214b"/>
      </g>
    </g>
  </g>
</svg>
