<svg xmlns="http://www.w3.org/2000/svg" width="140" height="140" viewBox="0 0 140 140">
  <g id="Grupo_55368" data-name="Grupo 55368" transform="translate(-555 -1340)">
    <g id="Elipse_1382" data-name="Elipse 1382" transform="translate(555 1340)" fill="#fff" stroke="#9ddfd3" stroke-width="2">
      <circle cx="70" cy="70" r="70" stroke="none"/>
      <circle cx="70" cy="70" r="69" fill="none"/>
    </g>
    <g id="Grupo_55361" data-name="Grupo 55361" transform="translate(580 1360)">
      <path id="Trazado_99231" data-name="Trazado 99231" d="M381.579,172.77a6.866,6.866,0,1,1-13.733,0,6.866,6.866,0,0,1,13.733,0Z" transform="translate(-327.678 -80.422)" fill="#cc3d60"/>
      <path id="Trazado_99232" data-name="Trazado 99232" d="M381.579,174.482a6.889,6.889,0,0,1-.318,2.067,21.366,21.366,0,0,1-6.126.651,26.131,26.131,0,0,1-6.971-.651,6.887,6.887,0,0,1-.318-2.067,6.8,6.8,0,0,1,1.459-4.221,22.9,22.9,0,0,0,10.82,0A6.825,6.825,0,0,1,381.579,174.482Z" transform="translate(-327.678 -82.133)" opacity="0.5" style="mix-blend-mode: soft-light;isolation: isolate"/>
      <path id="Trazado_99233" data-name="Trazado 99233" d="M386.721,88.9a.051.051,0,0,0-.008.023,22.386,22.386,0,0,1-1.5,3.358c-2.646,4.792-6.854,8.5-10.118,12.893-3.07,4.139-5.315,9.477-4.011,14.367a31.458,31.458,0,0,1-7.748,1.6,18.071,18.071,0,0,1-8.685-1.441c1.4-4.936-.864-10.349-3.958-14.53-3.26-4.39-7.471-8.1-10.113-12.893-.16-.288-.311-.58-.451-.875a24.1,24.1,0,0,1,1.69-23.875c7.434-10.773,23.166-12.953,34.269-6.952a22.293,22.293,0,0,1,7.885,6.952A24.2,24.2,0,0,1,386.721,88.9Z" transform="translate(-315.859 -37.782)" fill="#ffc93c"/>
      <path id="Trazado_99234" data-name="Trazado 99234" d="M388.257,109.367a22.386,22.386,0,0,1-1.5,3.358c-2.646,4.792-6.854,8.5-10.118,12.893-3.07,4.139-5.315,9.477-4.01,14.367a31.455,31.455,0,0,1-7.748,1.6,18.07,18.07,0,0,1-8.685-1.441c1.4-4.936-.864-10.349-3.958-14.53-3.26-4.39-7.471-8.1-10.113-12.893-.16-.288-.311-.58-.451-.875,2.327,2.089,4.447,4.42,6.906,6.353.334.265.679.519,1.028.77,6.008,4.28,13.954,6.292,21.187,4.674,7.457-1.672,14.287-6.717,17.244-13.76C388.113,109.716,388.181,109.541,388.257,109.367Z" transform="translate(-317.404 -58.225)" opacity="0.5" style="mix-blend-mode: soft-light;isolation: isolate"/>
      <path id="Trazado_99235" data-name="Trazado 99235" d="M380.943,173.027a18.2,18.2,0,0,1-8.016,1.355c-2.716-.022-5.4-.008-8.01-1-.287-.109-.572-.228-.852-.36-3.138-1.473-2.03-7.07,1.44-6.022.185.051.361.111.546.162a23.06,23.06,0,0,0,12.906,0c.185-.051.361-.111.546-.162C382.973,165.957,384.08,171.554,380.943,173.027Z" transform="translate(-325.468 -80.804)" fill="#31326f"/>
      <path id="Trazado_99236" data-name="Trazado 99236" d="M380.943,164.705a18.2,18.2,0,0,1-8.016,1.355c-2.716-.022-5.4-.008-8.01-1-.287-.109-.572-.228-.852-.36-3.138-1.474-2.03-7.069,1.44-6.022.185.052.361.111.546.162a23.055,23.055,0,0,0,12.906,0c.185-.051.361-.111.546-.162C382.973,157.636,384.08,163.232,380.943,164.705Z" transform="translate(-325.468 -77.537)" fill="#31326f"/>
      <path id="Trazado_99237" data-name="Trazado 99237" d="M380.943,156.384a18.213,18.213,0,0,1-8.016,1.355c-2.716-.023-5.4-.008-8.01-1q-.431-.163-.852-.359c-3.138-1.474-2.03-7.07,1.44-6.022.185.051.361.111.546.162a23.054,23.054,0,0,0,12.906,0c.185-.051.361-.111.546-.162C382.973,149.314,384.08,154.91,380.943,156.384Z" transform="translate(-325.468 -74.27)" fill="#31326f"/>
      <path id="Trazado_99238" data-name="Trazado 99238" d="M383.97,110.515c-.1-.367-.723-.263-.777.144-.293,2.219-.6,3.762-2.975,4.418a5.153,5.153,0,0,1-2.979-.285,4.694,4.694,0,0,0,1.715-1.536,2.671,2.671,0,0,0-.094-3.289,2.718,2.718,0,0,0-3.665.113c-1.512,1.439-1.13,2.966.037,4.427a5.52,5.52,0,0,1-3.3-.253c.964-.9,1.933-1.887,1.647-3.342a2.331,2.331,0,0,0-2.765-1.779,2.518,2.518,0,0,0-2.121,2.956,3.91,3.91,0,0,0,1.281,2.093,6.479,6.479,0,0,1-3.387.039c.846-1.021,1.3-1.918.6-3.262a2.42,2.42,0,0,0-3.395-.9c-1.337.923-1.071,2.558-.087,3.622a5.762,5.762,0,0,0,1.087.836,5.939,5.939,0,0,1-1.193.621,3.8,3.8,0,0,1-1.31.3c-2.089-.118-2.65-1.972-3.267-3.722-.121-.346-.736-.31-.791.029a3.9,3.9,0,0,0,2.886,4.521,4.557,4.557,0,0,0,2.038-.041.771.771,0,0,0,.207-.057,10.526,10.526,0,0,0,2.372-1.255,7.19,7.19,0,0,0,5.172-.045c.123.064.23.142.359.194a7.455,7.455,0,0,0,4.848.2,4.9,4.9,0,0,0,2,.8C381.668,116.2,385.126,114.56,383.97,110.515Zm-18.428,3.3c-.111.105-.822-.575-.895-.669a2.209,2.209,0,0,1-.676-1.531,1.079,1.079,0,0,1,1.453-.914,1.374,1.374,0,0,1,.921,1.64A2.507,2.507,0,0,1,365.542,113.812Zm5.418-.118c-.047-.052-.115-.066-.162-.119-.465-.53-.946-.876-.966-1.7-.029-1.165,1.026-2.182,2.194-1.361.675.474.38,1.584-.044,2.192A4.44,4.44,0,0,1,370.96,113.693Zm5.234.473a2.5,2.5,0,0,1-.842-2.012,1.88,1.88,0,0,1,.893-1.467,1.266,1.266,0,0,1,1.988,1.067,3.029,3.029,0,0,1-1.667,2.215C376.441,114.055,376.32,114.093,376.194,114.166Z" transform="translate(-323.881 -58.117)" style="mix-blend-mode: soft-light;isolation: isolate"/>
      <path id="Trazado_99239" data-name="Trazado 99239" d="M382.032,160.382a41.384,41.384,0,0,1-7.784.993c-2.464-.034-4.85-.743-7.276-.817a.106.106,0,0,0-.054.2c2.046,1.362,5.253,1.638,7.638,1.609a17.16,17.16,0,0,0,7.641-1.591C382.423,160.659,382.26,160.342,382.032,160.382Z" transform="translate(-327.295 -78.253)" fill="#9ddfd3"/>
      <path id="Trazado_99240" data-name="Trazado 99240" d="M367.278,168.617a41.127,41.127,0,0,0,7.752.964c2.448-.044,4.805-.762,7.213-.845a.107.107,0,0,1,.058.2c-2.007,1.37-5.188,1.657-7.558,1.637a17.107,17.107,0,0,1-7.623-1.561C366.895,168.9,367.051,168.578,367.278,168.617Z" transform="translate(-327.351 -81.487)" fill="#9ddfd3"/>
      <path id="Trazado_99241" data-name="Trazado 99241" d="M365.728,63.518a12.318,12.318,0,0,0-8.022.066c-5.206,1.6-9.918,5.239-12,10.337a10.966,10.966,0,0,0-.139,8.795c2.143,4.432,8.394,4.857,12.646,3.85A18.262,18.262,0,0,0,369.991,77c2.1-4.323,1-10.995-3.724-13.251Q366,63.624,365.728,63.518Z" transform="translate(-318.594 -39.971)" fill="#fff" style="mix-blend-mode: soft-light;isolation: isolate"/>
      <g id="Grupo_53374" data-name="Grupo 53374" transform="translate(0 0)">
        <path id="Trazado_99242" data-name="Trazado 99242" d="M430.3,48.047c-2.39.763-4.337,2.929-6.238,4.527a64.34,64.34,0,0,0-6.085,5.547c-.793.858.086,2.6,1.3,2.068a61.58,61.58,0,0,0,6.847-3.677c2.188-1.313,5.1-2.476,6.642-4.536C434.1,50.181,432.774,47.258,430.3,48.047Z" transform="translate(-347.242 -34.098)" fill="#ffc93c"/>
        <path id="Trazado_99243" data-name="Trazado 99243" d="M429.655,67.309a36.487,36.487,0,0,0-3.738,1.341,9.162,9.162,0,0,0-3.056,1.6,1.142,1.142,0,0,0,.562,1.88,9.207,9.207,0,0,0,3.486-.3,36.438,36.438,0,0,0,3.888-.859C433.161,70.219,432.047,66.7,429.655,67.309Z" transform="translate(-349.156 -41.685)" fill="#ffc93c"/>
        <path id="Trazado_99244" data-name="Trazado 99244" d="M416.975,49.054a2.005,2.005,0,0,0-2.668.793c-.4.642-.852,1.274-1.194,1.947s-.591,1.416-.878,2.119a1.437,1.437,0,0,0,2.3,1.659,22.117,22.117,0,0,0,1.7-1.712c.548-.677,1.026-1.429,1.534-2.137A1.98,1.98,0,0,0,416.975,49.054Z" transform="translate(-345.058 -34.453)" fill="#ffc93c"/>
        <path id="Trazado_99245" data-name="Trazado 99245" d="M329.948,39.129c.895,2.344,3.166,4.167,4.867,5.977a64.618,64.618,0,0,0,5.877,5.768c.9.743,2.592-.231,1.992-1.409a61.414,61.414,0,0,0-4.052-6.633c-1.432-2.111-2.755-4.956-4.9-6.38C331.867,35.212,329.022,36.7,329.948,39.129Z" transform="translate(-312.728 -29.422)" fill="#ffc93c"/>
        <path id="Trazado_99246" data-name="Trazado 99246" d="M349.46,43.716a36.211,36.211,0,0,0,1.547,3.658,9.147,9.147,0,0,0,1.771,2.963,1.142,1.142,0,0,0,1.846-.666,9.2,9.2,0,0,0-.489-3.464,36.19,36.19,0,0,0-1.073-3.834C352.17,40.055,348.718,41.363,349.46,43.716Z" transform="translate(-320.419 -31.445)" fill="#ffc93c"/>
        <path id="Trazado_99247" data-name="Trazado 99247" d="M332.035,58.654a2,2,0,0,0,.941,2.62c.663.363,1.319.78,2.01,1.084s1.447.511,2.163.758a1.437,1.437,0,0,0,1.529-2.39,22.025,22.025,0,0,0-1.8-1.6c-.707-.51-1.483-.945-2.219-1.413A1.98,1.98,0,0,0,332.035,58.654Z" transform="translate(-313.545 -37.86)" fill="#ffc93c"/>
        <path id="Trazado_99248" data-name="Trazado 99248" d="M384.425,25.48a1.88,1.88,0,0,0-1.75-.171,2.356,2.356,0,0,0-1.589,2.234,79.291,79.291,0,0,0,.273,11.416,1.219,1.219,0,0,0,2.392.245A82.563,82.563,0,0,0,385.608,27.4,2.209,2.209,0,0,0,384.425,25.48Z" transform="translate(-332.838 -25.166)" fill="#ffc93c"/>
        <path id="Trazado_99249" data-name="Trazado 99249" d="M427.913,121.85c-1.753-.7-3.783-1.877-5.715-1.554-.477.08-1.017.528-.776,1.09.82,1.913,2.861,2.978,4.5,4.143a2.092,2.092,0,0,0,1.992-3.679Z" transform="translate(-348.69 -62.494)" fill="#ffc93c"/>
        <path id="Trazado_99250" data-name="Trazado 99250" d="M341.382,139.384a.829.829,0,0,0-.824-.773c-1.8-.148-3.359,1.854-4.59,2.948-1.69,1.5-3.3,3.061-4.892,4.666-1.868,1.879,1.17,4.734,3,2.813,1.559-1.634,3.072-3.28,4.527-5.007C339.665,142.775,341.586,141.176,341.382,139.384Z" transform="translate(-313.012 -69.704)" fill="#ffc93c"/>
        <path id="Trazado_99251" data-name="Trazado 99251" d="M339.382,132.9c-.763-.629-1.773-.05-2.526.321a17.476,17.476,0,0,0-3.509,2.122,1.351,1.351,0,0,0,1.438,2.286C335.522,137.249,340.782,134.055,339.382,132.9Z" transform="translate(-313.908 -67.355)" fill="#ffc93c"/>
        <path id="Trazado_99252" data-name="Trazado 99252" d="M439.128,113.673c-1.457-1.47-3.9-1.419-5.874-1.617-2.3-.231-4.732-.644-6.953.169-.374.137-.607.709-.228.992,1.87,1.393,4.138,1.73,6.381,2.175,2.094.414,4.55,1.192,6.5.137A1.19,1.19,0,0,0,439.128,113.673Z" transform="translate(-350.463 -59.158)" fill="#ffc93c"/>
        <path id="Trazado_99253" data-name="Trazado 99253" d="M317.917,98.56c-1.8-1.353-4.906-1.189-7.114-1.234-2.634-.055-6.3-.57-8.553.966a1.191,1.191,0,0,0,.066,2.032c2.382,1.37,5.955.57,8.594.312,2.181-.214,5.332-.294,7.015-1.778A.211.211,0,0,0,317.917,98.56Z" transform="translate(-301.713 -53.448)" fill="#ffc93c"/>
        <path id="Trazado_99254" data-name="Trazado 99254" d="M417.549,145.376a44.208,44.208,0,0,0-3.989-3.239,19.415,19.415,0,0,0-3.963-2.655c-.618-.275-1.4.381-.96,1.025a20.325,20.325,0,0,0,3.5,3.588,44.372,44.372,0,0,0,3.946,3.312C417.29,148.251,418.537,146.343,417.549,145.376Z" transform="translate(-343.643 -70.024)" fill="#ffc93c"/>
        <path id="Trazado_99255" data-name="Trazado 99255" d="M435.739,90.488a1.248,1.248,0,0,0-1.2-.852,39.188,39.188,0,0,0-4.9.722c-.707.148-.69,1.379.047,1.459a39.438,39.438,0,0,0,4.931.244,1.24,1.24,0,0,0,1.14-.929A.927.927,0,0,0,435.739,90.488Z" transform="translate(-351.737 -50.477)" fill="#ffc93c"/>
        <path id="Trazado_99256" data-name="Trazado 99256" d="M333.188,126.265c-1.97-.687-4.408.774-6.214,1.509-1.617.658-4.266,1.024-4.722,2.942a.821.821,0,0,0,.367.9c1.723,1.013,3.78-.631,5.4-1.358,1.775-.794,4.522-1.549,5.39-3.44A.386.386,0,0,0,333.188,126.265Z" transform="translate(-309.769 -64.79)" fill="#ffc93c"/>
      </g>
    </g>
  </g>
</svg>
