<svg xmlns="http://www.w3.org/2000/svg" width="140" height="140" viewBox="0 0 140 140">
  <g id="Grupo_55369" data-name="Grupo 55369" transform="translate(-877 -1340)">
    <g id="Elipse_1383" data-name="Elipse 1383" transform="translate(877 1340)" fill="#fff" stroke="#cc3d60" stroke-width="2">
      <circle cx="70" cy="70" r="70" stroke="none"/>
      <circle cx="70" cy="70" r="69" fill="none"/>
    </g>
    <g id="Grupo_55362" data-name="Grupo 55362" transform="translate(902 1365)">
      <path id="Trazado_99217" data-name="Trazado 99217" d="M437.348,373.211c-.786-.99-1.521-1.9-2.148-2.651a1.792,1.792,0,0,0-2.392-.3,52.327,52.327,0,0,0-8.773,7.875c-.309.335-.627.677-.952,1.03a29.158,29.158,0,0,0-7.215-4.636c.2-.6.385-1.193.571-1.778a57.588,57.588,0,0,0,2.656-11.2,1.794,1.794,0,0,0-1.416-1.968c-3.9-.761-10.65-1.674-14.473-2.009a1.792,1.792,0,0,0-1.909,1.476,52.256,52.256,0,0,0-.632,11.771c.024.66.051,1.355.089,2.056a29.308,29.308,0,0,0-8.077,1.661c-.077.026-.155.061-.231.087-.382-.768-.773-1.529-1.159-2.273a57.657,57.657,0,0,0-6.042-9.8,1.79,1.79,0,0,0-2.4-.387c-3.3,2.221-8.71,6.342-11.65,8.81a1.8,1.8,0,0,0-.306,2.395,52.307,52.307,0,0,0,7.874,8.774c.4.366.807.746,1.228,1.132-.016.019-.035.033-.051.051a29.579,29.579,0,0,0-4.429,7.257c-.769-.258-1.537-.5-2.292-.741a57.547,57.547,0,0,0-11.2-2.657,1.789,1.789,0,0,0-1.965,1.421c-.765,3.9-1.677,10.645-2.012,14.468a1.793,1.793,0,0,0,1.481,1.906,52.5,52.5,0,0,0,11.769.64l1.764-.076a30.147,30.147,0,0,0,1.875,8.372c-.716.351-1.422.718-2.119,1.076a57.717,57.717,0,0,0-9.793,6.046,1.785,1.785,0,0,0-.391,2.39c.414.62.9,1.314,1.421,2.045,1.581,2.216,3.553,4.825,5.287,7.017.767.974,1.488,1.864,2.1,2.6a1.79,1.79,0,0,0,2.391.3,51.9,51.9,0,0,0,8.774-7.875c.405-.434.822-.885,1.241-1.351a31.33,31.33,0,0,0,7.462,4.5c-.279.821-.54,1.637-.795,2.442A57.878,57.878,0,0,0,387.86,444.3a1.781,1.781,0,0,0,1.416,1.967c3.908.767,10.65,1.674,14.477,2.015a1.785,1.785,0,0,0,1.9-1.478,52.023,52.023,0,0,0,.637-11.774c-.023-.639-.05-1.3-.086-1.992a29.764,29.764,0,0,0,8.244-2.011q.587,1.187,1.188,2.333a57.645,57.645,0,0,0,6.042,9.8,1.79,1.79,0,0,0,2.395.387c3.3-2.216,8.71-6.341,11.65-8.81a1.781,1.781,0,0,0,.3-2.386,51.959,51.959,0,0,0-7.87-8.778c-.45-.416-.919-.848-1.4-1.283a30.664,30.664,0,0,0,4.687-7.216c.716.245,1.435.474,2.141.7a57.6,57.6,0,0,0,11.2,2.652A1.782,1.782,0,0,0,446.746,417c.766-3.9,1.678-10.646,2.013-14.469a1.792,1.792,0,0,0-1.482-1.9,51.922,51.922,0,0,0-11.769-.64c-.507.022-1.029.041-1.566.064a31.671,31.671,0,0,0-2.075-8.4c.666-.33,1.321-.665,1.957-1a58.19,58.19,0,0,0,9.8-6.041,1.8,1.8,0,0,0,.391-2.4c-.595-.878-1.323-1.91-2.121-3.008C440.466,377.247,438.818,375.081,437.348,373.211ZM414.7,396.776a12.237,12.237,0,0,1,1.269,3.467c1.653,8.077-4.8,15.848-12.964,15.45a12.759,12.759,0,0,1-6.938-2.422,13.042,13.042,0,0,1-3.718-4.152l-.007-.01a13.551,13.551,0,0,1-1.768-6.756c.016-6.095,4.995-11.077,10.828-12.138a12.451,12.451,0,0,1,9.952,2.587,13.124,13.124,0,0,1,1.557,1.452A12.494,12.494,0,0,1,414.7,396.776Z" transform="translate(-358.039 -357.565)" fill="#24b3b3"/>
      <g id="Grupo_53372" data-name="Grupo 53372" transform="translate(8.912 9.235)">
        <path id="Trazado_99218" data-name="Trazado 99218" d="M423.383,370.826c.256-1.7-1.343-1.959-1.6-.252-.718,4.784-1.724,9.779-1.693,14.546,0,.525.476.618.638.1C422.16,380.656,422.666,375.605,423.383,370.826Z" transform="translate(-380.643 -369.415)" fill="#263780"/>
        <path id="Trazado_99219" data-name="Trazado 99219" d="M457.385,422.054c1.7.256,1.959-1.343.252-1.6-4.784-.718-9.779-1.724-14.546-1.693-.524,0-.618.475-.1.637C447.555,420.83,452.606,421.336,457.385,422.054Z" transform="translate(-385.62 -380.303)" fill="#263780"/>
        <path id="Trazado_99220" data-name="Trazado 99220" d="M408.875,454.691c-.255,1.7,1.343,1.959,1.6.253.718-4.784,1.724-9.78,1.693-14.546,0-.525-.476-.619-.638-.1C410.1,444.862,409.593,449.912,408.875,454.691Z" transform="translate(-378.162 -384.979)" fill="#263780"/>
        <path id="Trazado_99221" data-name="Trazado 99221" d="M370.886,407.13c-1.7-.256-1.959,1.343-.252,1.6,4.783.719,9.779,1.724,14.546,1.694.525,0,.618-.476.1-.638C380.716,408.353,375.665,407.847,370.886,407.13Z" transform="translate(-369.475 -377.73)" fill="#263780"/>
        <path id="Trazado_99222" data-name="Trazado 99222" d="M449.693,388.918c1.384-1.022.436-2.334-.952-1.309-3.891,2.875-8.135,5.7-11.483,9.088-.369.374-.1.774.379.523C441.877,395,445.806,391.79,449.693,388.918Z" transform="translate(-384.393 -373.347)" fill="#263780"/>
        <path id="Trazado_99223" data-name="Trazado 99223" d="M441.053,449.754c1.023,1.384,2.334.436,1.309-.952-2.874-3.891-5.7-8.134-9.088-11.483-.373-.369-.773-.1-.522.379C434.967,441.938,438.181,445.867,441.053,449.754Z" transform="translate(-383.419 -384.36)" fill="#263780"/>
        <path id="Trazado_99224" data-name="Trazado 99224" d="M379.843,438.33c-1.384,1.023-.436,2.335.952,1.309,3.89-2.874,8.134-5.7,11.482-9.088.369-.373.1-.773-.38-.522C387.659,432.244,383.73,435.458,379.843,438.33Z" transform="translate(-371.613 -382.772)" fill="#263780"/>
        <path id="Trazado_99225" data-name="Trazado 99225" d="M390.516,378.357c-1.022-1.383-2.334-.436-1.309.952,2.874,3.891,5.7,8.134,9.088,11.483.373.369.773.1.522-.38C396.6,386.173,393.389,382.245,390.516,378.357Z" transform="translate(-373.746 -371.239)" fill="#263780"/>
      </g>
      <path id="Trazado_99226" data-name="Trazado 99226" d="M445.092,385.335c.8,1.1,1.526,2.13,2.121,3.008a1.794,1.794,0,0,1-.391,2.4,58.183,58.183,0,0,1-9.8,6.042c-.636.33-1.291.665-1.957,1a31.67,31.67,0,0,1,2.075,8.4c.536-.023,1.059-.042,1.566-.064a51.923,51.923,0,0,1,11.769.64,1.793,1.793,0,0,1,1.482,1.9c-.335,3.823-1.248,10.569-2.013,14.469a1.782,1.782,0,0,1-1.967,1.416,57.6,57.6,0,0,1-11.2-2.652c-.706-.223-1.425-.451-2.141-.7a30.664,30.664,0,0,1-4.687,7.216c.486.435.954.867,1.4,1.283a51.966,51.966,0,0,1,7.87,8.778,1.781,1.781,0,0,1-.3,2.387c-2.94,2.468-8.349,6.594-11.65,8.81a1.79,1.79,0,0,1-2.4-.387,57.653,57.653,0,0,1-6.041-9.8q-.6-1.144-1.188-2.333a29.763,29.763,0,0,1-8.244,2.011c.037.687.064,1.353.086,1.992a52.025,52.025,0,0,1-.637,11.774,1.785,1.785,0,0,1-1.9,1.478c-3.827-.341-10.569-1.248-14.477-2.015a1.781,1.781,0,0,1-1.416-1.967,57.9,57.9,0,0,1,2.655-11.195c.255-.8.516-1.62.795-2.442a31.322,31.322,0,0,1-7.462-4.5c-.419.467-.835.917-1.241,1.351a51.9,51.9,0,0,1-8.774,7.875,1.79,1.79,0,0,1-2.391-.3c-.613-.732-1.334-1.622-2.1-2.6,1.054-1.142,2.229-2.181,3.33-3.188q1.562-1.423,3.172-2.778c1.715-1.46,3.453-2.887,5.182-4.328a2.681,2.681,0,0,1,1.281-.718,2.546,2.546,0,0,1,2.026,1.075c1.386,1.481,3.654,2.321,5.448,3.269a26.342,26.342,0,0,0,38.62-24.908,22.925,22.925,0,0,0-1.355-7.505,6.558,6.558,0,0,1-.708-2.372,3.692,3.692,0,0,1,1.19-2.566,24.056,24.056,0,0,1,3.471-2.354,38.822,38.822,0,0,1,3.931-2.21,39.834,39.834,0,0,0,6.607-4.422C444.795,385.565,444.922,385.466,445.092,385.335Z" transform="translate(-361.239 -363.692)" opacity="0.5" style="mix-blend-mode: soft-light;isolation: isolate"/>
      <path id="Trazado_99227" data-name="Trazado 99227" d="M421.857,403.073a13.113,13.113,0,0,0-1.557-1.452,12.451,12.451,0,0,0-9.952-2.587c-5.833,1.061-10.812,6.043-10.828,12.138a13.55,13.55,0,0,0,1.768,6.755,11.04,11.04,0,0,1-2.718-7.626,12.687,12.687,0,0,1,6.666-10.834c3.916-2.23,9.115-2.777,12.892-.347A11.357,11.357,0,0,1,421.857,403.073Z" transform="translate(-366.982 -366.383)" opacity="0.5" style="mix-blend-mode: soft-light;isolation: isolate"/>
      <path id="Trazado_99228" data-name="Trazado 99228" d="M437.348,373.211c-.749,1.177-2.4,2.222-3.269,3.018q-1.562,1.423-3.172,2.778c-1.714,1.461-3.453,2.887-5.182,4.328a2.674,2.674,0,0,1-1.282.719,2.547,2.547,0,0,1-2.025-1.075c-1.387-1.481-3.654-2.321-5.448-3.269a26.342,26.342,0,0,0-38.62,24.908,22.9,22.9,0,0,0,1.356,7.5,6.593,6.593,0,0,1,.708,2.372,3.692,3.692,0,0,1-1.19,2.566,24.051,24.051,0,0,1-3.471,2.355,39.227,39.227,0,0,1-3.931,2.21c-2.545,1.372-4.687,2.951-7.25,3.711-.17.05-.343.1-.517.14-.524-.731-1.007-1.425-1.421-2.045a1.785,1.785,0,0,1,.391-2.39,57.717,57.717,0,0,1,9.793-6.046c.7-.359,1.4-.725,2.119-1.076a30.147,30.147,0,0,1-1.875-8.372l-1.764.076a52.5,52.5,0,0,1-11.769-.64,1.793,1.793,0,0,1-1.481-1.906c.335-3.823,1.248-10.569,2.012-14.468a1.789,1.789,0,0,1,1.965-1.421,57.547,57.547,0,0,1,11.2,2.657c.755.238,1.523.483,2.292.741a29.579,29.579,0,0,1,4.429-7.257c.016-.019.035-.033.051-.051-.421-.386-.829-.766-1.228-1.132a52.307,52.307,0,0,1-7.874-8.774,1.8,1.8,0,0,1,.306-2.395c2.94-2.468,8.353-6.589,11.65-8.81a1.79,1.79,0,0,1,2.4.387,57.657,57.657,0,0,1,6.042,9.8c.386.744.777,1.5,1.159,2.273.076-.027.154-.061.231-.087a29.308,29.308,0,0,1,8.077-1.661c-.038-.7-.065-1.4-.089-2.056a52.256,52.256,0,0,1,.632-11.771,1.792,1.792,0,0,1,1.909-1.476c3.823.335,10.569,1.248,14.473,2.009a1.794,1.794,0,0,1,1.416,1.968,57.588,57.588,0,0,1-2.656,11.2c-.186.585-.374,1.178-.571,1.778a29.158,29.158,0,0,1,7.215,4.636c.324-.353.643-.7.952-1.03a52.327,52.327,0,0,1,8.773-7.875,1.792,1.792,0,0,1,2.392.3C435.827,371.312,436.561,372.221,437.348,373.211Z" transform="translate(-358.039 -357.565)" fill="#fff" style="mix-blend-mode: soft-light;isolation: isolate"/>
      <path id="Trazado_99229" data-name="Trazado 99229" d="M425.47,407.877a12.21,12.21,0,0,1,2.464,7.671,13.344,13.344,0,0,1-4.64,9.449,12.356,12.356,0,0,1-16.457-.626,12.76,12.76,0,0,0,6.938,2.422c8.162.4,14.617-7.373,12.964-15.45A12.244,12.244,0,0,0,425.47,407.877Z" transform="translate(-368.806 -368.666)" fill="#fff" style="mix-blend-mode: soft-light;isolation: isolate"/>
    </g>
  </g>
</svg>
