<svg xmlns="http://www.w3.org/2000/svg" width="154" height="154" viewBox="0 0 154 154">
  <g id="Trazado_100891" data-name="Trazado 100891" fill="none">
    <path d="M77,0A77,77,0,1,1,0,77,77,77,0,0,1,77,0Z" stroke="none"/>
    <path d="M 77 3 C 67.00873565673828 3 57.31793212890625 4.956130981445313 48.19678497314453 8.814041137695313 C 43.81260681152344 10.66839599609375 39.58386993408203 12.96371459960938 35.62797546386719 15.63626098632813 C 31.70891571044922 18.283935546875 28.02349853515625 21.32469177246094 24.67408752441406 24.67408752441406 C 21.32469177246094 28.02349853515625 18.283935546875 31.70891571044922 15.63626098632813 35.62797546386719 C 12.96371459960938 39.58386993408203 10.66839599609375 43.81260681152344 8.814041137695313 48.19678497314453 C 4.956130981445313 57.31793212890625 3 67.00873565673828 3 77 C 3 86.99126434326172 4.956130981445313 96.68206787109375 8.814041137695313 105.80322265625 C 10.66839599609375 110.187370300293 12.96371459960938 114.416130065918 15.63626098632813 118.3720016479492 C 18.283935546875 122.2910842895508 21.32469177246094 125.9765014648438 24.67408752441406 129.3258972167969 C 28.02349853515625 132.6753082275391 31.70891571044922 135.716064453125 35.62797546386719 138.3637390136719 C 39.58386993408203 141.0362854003906 43.81260681152344 143.3316040039063 48.19678497314453 145.1859283447266 C 57.31793212890625 149.0438690185547 67.00873565673828 151 77 151 C 86.99126434326172 151 96.68206787109375 149.0438690185547 105.80322265625 145.1859283447266 C 110.187370300293 143.3316040039063 114.416130065918 141.0362854003906 118.3720016479492 138.3637390136719 C 122.2910842895508 135.716064453125 125.9765014648438 132.6753082275391 129.3258972167969 129.3258972167969 C 132.6753082275391 125.9765014648438 135.716064453125 122.2910842895508 138.3637390136719 118.3720016479492 C 141.0362854003906 114.416130065918 143.3316040039063 110.187370300293 145.1859283447266 105.80322265625 C 149.0438690185547 96.68206787109375 151 86.99126434326172 151 77 C 151 67.00873565673828 149.0438690185547 57.31793212890625 145.1859283447266 48.19678497314453 C 143.3316040039063 43.81260681152344 141.0362854003906 39.58386993408203 138.3637390136719 35.62797546386719 C 135.716064453125 31.70891571044922 132.6753082275391 28.02349853515625 129.3258972167969 24.67408752441406 C 125.9765014648438 21.32469177246094 122.2910842895508 18.283935546875 118.3720016479492 15.63626098632813 C 114.416130065918 12.96371459960938 110.187370300293 10.66839599609375 105.80322265625 8.814041137695313 C 96.68206787109375 4.956130981445313 86.99126434326172 3 77 3 M 77 0 C 119.5259094238281 0 154 34.47406768798828 154 77 C 154 119.5259094238281 119.5259094238281 154 77 154 C 34.47406768798828 154 0 119.5259094238281 0 77 C 0 34.47406768798828 34.47406768798828 0 77 0 Z" stroke="none" fill="#9ddfd3"/>
  </g>
</svg>
