<svg xmlns="http://www.w3.org/2000/svg" width="140" height="140" viewBox="0 0 140 140">
  <g id="Grupo_55370" data-name="Grupo 55370" transform="translate(-1186 -1340)">
    <g id="Elipse_1384" data-name="Elipse 1384" transform="translate(1186 1340)" fill="#fff" stroke="#81c140" stroke-width="2">
      <circle cx="70" cy="70" r="70" stroke="none"/>
      <circle cx="70" cy="70" r="69" fill="none"/>
    </g>
    <g id="matematicas" transform="translate(1209.265 1383.12)">
      <path id="Trazado_99316" data-name="Trazado 99316" d="M309.12,205.445l-9.008-9.008,9.008-9.008a2.72,2.72,0,0,0,0-3.847l-4.808-4.808a2.72,2.72,0,0,0-3.847,0l-9.008,9.008-9.008-9.008a2.72,2.72,0,0,0-3.847,0l-4.808,4.808a2.72,2.72,0,0,0,0,3.847l9.008,9.008-9.008,9.008a2.72,2.72,0,0,0,0,3.847L278.6,214.1a2.72,2.72,0,0,0,3.847,0l9.008-9.008,9.008,9.008a2.72,2.72,0,0,0,3.847,0l4.808-4.808A2.72,2.72,0,0,0,309.12,205.445Z" transform="translate(-227.974 -164.295)" fill="#ffc93c"/>
      <g id="Grupo_53408" data-name="Grupo 53408" transform="translate(0 0)">
        <path id="Trazado_99317" data-name="Trazado 99317" d="M289.749,204.754a5.183,5.183,0,0,1-3.689-1.528l-7.243-7.243-7.243,7.243a5.217,5.217,0,0,1-7.377,0l-4.808-4.808a5.216,5.216,0,0,1,0-7.377l7.243-7.243-7.243-7.243a5.216,5.216,0,0,1,0-7.377l4.808-4.808a5.216,5.216,0,0,1,7.377,0l7.243,7.243,7.243-7.243a5.217,5.217,0,0,1,7.377,0l4.808,4.808a5.216,5.216,0,0,1,0,7.377L291,183.8l7.243,7.243a5.216,5.216,0,0,1,0,7.377l-4.808,4.808A5.182,5.182,0,0,1,289.749,204.754Zm-10.932-15.832L289.591,199.7a.225.225,0,0,0,.317,0l4.808-4.808a.224.224,0,0,0,0-.316L283.942,183.8l10.773-10.773a.224.224,0,0,0,0-.317l-4.808-4.808a.225.225,0,0,0-.317,0l-10.774,10.774L268.044,167.9a.224.224,0,0,0-.316,0l-4.808,4.808a.224.224,0,0,0,0,.317L273.693,183.8l-10.773,10.773a.224.224,0,0,0,0,.317l4.808,4.808a.225.225,0,0,0,.316,0Z" transform="translate(-215.335 -151.655)" fill="#21214b"/>
        <path id="Trazado_99318" data-name="Trazado 99318" d="M24.334,148.115a5.2,5.2,0,0,1-4.891-3.341l-5.584-14.1a2.3,2.3,0,0,0-2.145-1.458H0v-4.993H11.714a7.261,7.261,0,0,1,6.787,4.612l5.584,14.1a.293.293,0,0,0,.558-.037L35.2,100.551a7.289,7.289,0,0,1,7.084-5.535H83.05v4.993H42.279a2.3,2.3,0,0,0-2.239,1.75L29.487,144.106a5.2,5.2,0,0,1-4.779,4Q24.52,148.115,24.334,148.115Z" transform="translate(0 -95.016)" fill="#31326f"/>
      </g>
    </g>
  </g>
</svg>
