<svg xmlns="http://www.w3.org/2000/svg" width="255" height="255" viewBox="0 0 255 255">
  <g id="Grupo_55150" data-name="Grupo 55150" transform="translate(10757 9676)">
    <rect id="Rect치ngulo_5050" data-name="Rect치ngulo 5050" width="255" height="255" rx="21" transform="translate(-10757 -9676)" fill="#efefef"/>
    <g id="cavernicola" transform="translate(-10721.406 -9630.328)">
      <path id="Trazado_100479" data-name="Trazado 100479" d="M361.057,176.211H357.22v23.608h3.837a7.647,7.647,0,0,0,7.647-7.647v-8.312A7.647,7.647,0,0,0,361.057,176.211Z" transform="translate(-207.182 -119.219)" fill="#ffb98a"/>
      <path id="Trazado_100480" data-name="Trazado 100480" d="M186.239,69.238a40.594,40.594,0,0,0-14.374-26.38l9.519.41h.06a1.5,1.5,0,0,0,1.35-.907,1.715,1.715,0,0,0-.2-1.754,41.854,41.854,0,0,0-21.032-14.552,11.635,11.635,0,0,0,4.169-3.423,10.835,10.835,0,0,0,2.185-5.454,1.7,1.7,0,0,0-.761-1.66,1.561,1.561,0,0,0-.7-.182,1.179,1.179,0,0,0-.824.34,7.107,7.107,0,0,1-2.167.236c-3.066,0-9.24-.852-21.248-4.912a33.865,33.865,0,0,0-10.828-1.883,27.973,27.973,0,0,0-6.662.8A27.525,27.525,0,0,0,113.37,7.5a33.872,33.872,0,0,0-10.832,1.883C90.532,13.443,84.356,14.3,81.29,14.3a7.123,7.123,0,0,1-2.167-.236,1.176,1.176,0,0,0-.824-.341,1.559,1.559,0,0,0-.7.182,1.7,1.7,0,0,0-.761,1.662,10.834,10.834,0,0,0,2.185,5.454,11.635,11.635,0,0,0,4.17,3.423A41.856,41.856,0,0,0,62.161,38.992a1.716,1.716,0,0,0-.2,1.754,1.5,1.5,0,0,0,1.35.907h.06l9.52-.41a40.593,40.593,0,0,0-14.374,26.38,1.682,1.682,0,0,0,.518,1.464,1.441,1.441,0,0,0,.97.382,1.4,1.4,0,0,0,.458-.077l5.384-1.854A40.1,40.1,0,0,0,77.3,96.511c9.1,9.346,9.6,12.615,9.6,13.2a1.7,1.7,0,0,0-.408,1.524,1.53,1.53,0,0,0,1.463,1.246h0a9.269,9.269,0,0,0,5.221-2.228c-1.79-6.17-3.541-12.9-3.541-15.662V85.674H85.8a7.648,7.648,0,0,1-7.648-7.647V69.714A7.647,7.647,0,0,1,85.8,62.066H89.64V54.83a1.294,1.294,0,0,1,2.171-.951,26.782,26.782,0,0,0,11.91,6.455,1.614,1.614,0,0,0,1.9-1.014l2.15-5.862a1.294,1.294,0,0,1,2-.583c4.455,3.4,11.2,7.68,18.009,8.779a1.617,1.617,0,0,0,1.258-.326,1.623,1.623,0,0,0,.612-1.147l.516-6.709a1.294,1.294,0,0,1,2.047-.95c4,2.883,11.014,6.537,21.733,7.575a1.294,1.294,0,0,1,1.169,1.288v.681h3.837a7.647,7.647,0,0,1,7.647,7.647v8.312a7.647,7.647,0,0,1-7.647,7.647h-3.837v8.919c0,2.952-2.006,10.464-3.921,16.961,3.036,2.484,5.394,2.546,5.6,2.546a1.53,1.53,0,0,0,1.463-1.246,1.7,1.7,0,0,0-.41-1.526c-.01-.619.479-3.828,9.6-13.2a40.1,40.1,0,0,0,11.456-28.975l5.384,1.854a1.4,1.4,0,0,0,.458.077,1.439,1.439,0,0,0,.97-.382A1.682,1.682,0,0,0,186.239,69.238Z" transform="translate(-5.076 -5.074)" fill="#f7931e"/>
      <g id="Grupo_55114" data-name="Grupo 55114" transform="translate(62.189 56.992)">
        <path id="Trazado_100481" data-name="Trazado 100481" d="M130.756,176.211h-3.837a7.648,7.648,0,0,0-7.648,7.647v8.312a7.647,7.647,0,0,0,7.648,7.647h3.837Z" transform="translate(-108.381 -176.211)" fill="#ffb98a"/>
        <path id="Trazado_100482" data-name="Trazado 100482" d="M85.6,366.273v14.566a10.853,10.853,0,0,0,2,6.287,5.845,5.845,0,0,0-2,4.382v10.333a1.7,1.7,0,0,0,1.714,1.694h9.167V355.27A11.082,11.082,0,0,0,85.6,366.273Z" transform="translate(-85.6 -297.357)" fill="#ffb98a"/>
        <path id="Trazado_100483" data-name="Trazado 100483" d="M312.785,366.259a11.087,11.087,0,0,0-11.139-11.009h-17.74c-.51,1.6-.833,2.588-.833,2.588a1.277,1.277,0,0,1-2.337.612l-1.856-1.877L273.434,366a1.277,1.277,0,0,1-2.416,0l-2.937-5.088c-1.326.444-9.2,9.939-9.2,9.939a2.175,2.175,0,0,1-.409.522l39.306,32.143h13.294a1.7,1.7,0,0,0,1.714-1.694V391.495a5.844,5.844,0,0,0-2-4.382,10.853,10.853,0,0,0,2-6.287V366.259Z" transform="translate(-202.56 -297.344)" fill="#ffb98a"/>
      </g>
      <path id="Trazado_100484" data-name="Trazado 100484" d="M164.273,371.378h0c-.645.588-1.466.414-2.007-.522,0,0-7.875-9.494-9.2-9.939L150.127,366a1.277,1.277,0,0,1-2.416,0l-5.445-9.432-1.856,1.877a1.277,1.277,0,0,1-2.337-.612s-.323-.984-.833-2.588h-18v48.272h84.337Z" transform="translate(-46.173 -240.352)" fill="#775436"/>
      <g id="Grupo_55115" data-name="Grupo 55115" transform="translate(73.069 114.898)" opacity="0.15">
        <rect id="Rect치ngulo_5108" data-name="Rect치ngulo 5108" width="9.379" height="48.272" transform="translate(0)" fill="#3d0072"/>
      </g>
      <path id="Trazado_100485" data-name="Trazado 100485" d="M219.087,153.765c-10.719-1.038-17.735-4.693-21.733-7.575a1.294,1.294,0,0,0-2.047.95l-.516,6.709a1.617,1.617,0,0,1-1.613,1.493,1.6,1.6,0,0,1-.257-.021c-6.813-1.1-13.554-5.381-18.009-8.779a1.294,1.294,0,0,0-2,.583l-2.15,5.862a1.614,1.614,0,0,1-1.9,1.014,26.785,26.785,0,0,1-11.91-6.455,1.294,1.294,0,0,0-2.171.951v21.651a32.688,32.688,0,0,0,13.17,26.248V186.068a7.439,7.439,0,0,1,7.439-7.439h7.673a3.241,3.241,0,0,0,2.811,1.645h4.582a3.311,3.311,0,0,0,2.98-1.645h6.21a7.439,7.439,0,0,1,7.439,7.439V196.4a32.688,32.688,0,0,0,13.17-26.248v-15.1A1.294,1.294,0,0,0,219.087,153.765Z" transform="translate(-70.217 -98.742)" fill="#ffc7a9"/>
      <g id="Grupo_55116" data-name="Grupo 55116" transform="translate(84.564 71.406)">
        <path id="SVGCleanerId_0" d="M207.086,247.028V236.7a7.439,7.439,0,0,0-7.439-7.439h-6.21a3.311,3.311,0,0,1-2.98,1.645h-4.582a3.241,3.241,0,0,1-2.811-1.645H175.39a7.439,7.439,0,0,0-7.439,7.439v10.329a32.687,32.687,0,0,1-13.17-26.248v18.112c0,5.645,7.337,27.967,7.337,27.967a1.277,1.277,0,0,0,2.337.612l1.856-1.877,5.445,9.432a1.277,1.277,0,0,0,2.416,0l2.937-5.088c1.326.444,9.2,9.939,9.2,9.939a1.277,1.277,0,0,0,2.416,0s7.875-9.494,9.2-9.939l2.937,5.088a1.277,1.277,0,0,0,2.416,0l5.445-9.432,1.856,1.877a1.277,1.277,0,0,0,2.337-.612s7.337-22.323,7.337-27.967V220.78A32.688,32.688,0,0,1,207.086,247.028Z" transform="translate(-154.781 -220.78)" fill="#f7931e"/>
      </g>
      <path id="Trazado_100486" data-name="Trazado 100486" d="M167.95,199.031V190.4a32.539,32.539,0,0,1-5.155-17.614V154.335a27.724,27.724,0,0,1-5.844-4.153,1.294,1.294,0,0,0-2.171.951v21.651A32.689,32.689,0,0,0,167.95,199.031Z" transform="translate(-70.217 -101.377)" fill="#490089" opacity="0.15"/>
      <g id="Grupo_55117" data-name="Grupo 55117" transform="translate(84.564 71.406)">
        <path id="SVGCleanerId_0_1_" d="M207.086,247.028V236.7a7.439,7.439,0,0,0-7.439-7.439h-6.21a3.311,3.311,0,0,1-2.98,1.645h-4.582a3.241,3.241,0,0,1-2.811-1.645H175.39a7.439,7.439,0,0,0-7.439,7.439v10.329a32.687,32.687,0,0,1-13.17-26.248v18.112c0,5.645,7.337,27.967,7.337,27.967a1.277,1.277,0,0,0,2.337.612l1.856-1.877,5.445,9.432a1.277,1.277,0,0,0,2.416,0l2.937-5.088c1.326.444,9.2,9.939,9.2,9.939a1.277,1.277,0,0,0,2.416,0s7.875-9.494,9.2-9.939l2.937,5.088a1.277,1.277,0,0,0,2.416,0l5.445-9.432,1.856,1.877a1.277,1.277,0,0,0,2.337-.612s7.337-22.323,7.337-27.967V220.78A32.688,32.688,0,0,1,207.086,247.028Z" transform="translate(-154.781 -220.78)" fill="#f7931e"/>
      </g>
      <g id="Grupo_55118" data-name="Grupo 55118" transform="translate(84.564 71.406)">
        <path id="SVGCleanerId_0_2_" d="M207.086,247.028V236.7a7.439,7.439,0,0,0-7.439-7.439h-6.21a3.311,3.311,0,0,1-2.98,1.645h-4.582a3.241,3.241,0,0,1-2.811-1.645H175.39a7.439,7.439,0,0,0-7.439,7.439v10.329a32.687,32.687,0,0,1-13.17-26.248v18.112c0,5.645,7.337,27.967,7.337,27.967a1.277,1.277,0,0,0,2.337.612l1.856-1.877,5.445,9.432a1.277,1.277,0,0,0,2.416,0l2.937-5.088c1.326.444,9.2,9.939,9.2,9.939a1.277,1.277,0,0,0,2.416,0s7.875-9.494,9.2-9.939l2.937,5.088a1.277,1.277,0,0,0,2.416,0l5.445-9.432,1.856,1.877a1.277,1.277,0,0,0,2.337-.612s7.337-22.323,7.337-27.967V220.78A32.688,32.688,0,0,1,207.086,247.028Z" transform="translate(-154.781 -220.78)" fill="#f7931e"/>
      </g>
      <g id="Grupo_55119" data-name="Grupo 55119" transform="translate(84.564 71.406)" opacity="0.15">
        <path id="Trazado_100487" data-name="Trazado 100487" d="M165.116,244.65a32.645,32.645,0,0,1-10.334-23.87v18.112c0,5.645,7.337,27.967,7.337,27.967a1.277,1.277,0,0,0,2.337.612l1.856-1.877,5.445,9.432c.548.949,1.382,1.113,2.031.5C170.977,266.2,166.976,252.586,165.116,244.65Z" transform="translate(-154.782 -220.78)" fill="#3d0072"/>
      </g>
      <g id="Grupo_55120" data-name="Grupo 55120" transform="translate(96.208 62.099)">
        <ellipse id="Elipse_1267" data-name="Elipse 1267" cx="4.359" cy="4.376" rx="4.359" ry="4.376" transform="translate(33.469)" fill="#046699"/>
        <ellipse id="Elipse_1268" data-name="Elipse 1268" cx="4.359" cy="4.376" rx="4.359" ry="4.376" fill="#046699"/>
      </g>
      <path id="Trazado_100488" data-name="Trazado 100488" d="M218,284.757a1.109,1.109,0,0,1-1.11-1.11V275.66a4.665,4.665,0,0,1,4.66-4.66h15.976a4.665,4.665,0,0,1,4.66,4.66v7.988a1.109,1.109,0,0,1-1.109,1.11Z" transform="translate(-112.242 -183.351)" fill="#fb8276"/>
      <path id="Trazado_100489" data-name="Trazado 100489" d="M237.531,271H221.555a4.665,4.665,0,0,0-4.66,4.66v2.885h25.3V275.66A4.665,4.665,0,0,0,237.531,271Z" transform="translate(-112.242 -183.351)" fill="#fff"/>
      <path id="Trazado_100490" data-name="Trazado 100490" d="M190.494,63.844a43.547,43.547,0,0,0-10.526-23.363l3.153.136q.088,0,.174,0a3.936,3.936,0,0,0,3.558-2.328,4.164,4.164,0,0,0-.5-4.255,44.816,44.816,0,0,0-17.869-13.8,13.553,13.553,0,0,0,1.035-1.219,13.229,13.229,0,0,0,2.669-6.766,4.088,4.088,0,0,0-2.092-3.976,3.739,3.739,0,0,0-3.627.069c-1.148.163-6.389.434-21.624-4.718A33.732,33.732,0,0,0,126.809,2.3,29.96,29.96,0,0,0,115.22,0a36.275,36.275,0,0,0-11.608,2.011C88.379,7.163,83.121,6.888,81.991,6.73a3.742,3.742,0,0,0-3.629-.071,4.086,4.086,0,0,0-2.093,3.978,13.216,13.216,0,0,0,2.67,6.765,13.787,13.787,0,0,0,1.034,1.218A44.819,44.819,0,0,0,62.1,32.42a4.166,4.166,0,0,0-.5,4.255A3.936,3.936,0,0,0,65.16,39c.059,0,.117,0,.164,0l3.144-.135q-.866.978-1.674,2.01a2.426,2.426,0,0,0,3.821,2.989,37.594,37.594,0,0,1,5.668-5.826,2.426,2.426,0,0,0-1.648-4.295l-7.618.328A39.44,39.44,0,0,1,85.743,21.687a2.426,2.426,0,0,0,.384-4.5,9.258,9.258,0,0,1-3.314-2.711,9,9,0,0,1-1.464-2.944,13.254,13.254,0,0,0,1.792.109c4.658,0,12.274-1.743,22.025-5.04A31.466,31.466,0,0,1,115.22,4.851a25.12,25.12,0,0,1,10.363,2.2,2.42,2.42,0,0,0,1.571.143,25.58,25.58,0,0,1,6.084-.726,31.443,31.443,0,0,1,10.051,1.755c9.751,3.3,17.366,5.04,22.023,5.04h0a13.256,13.256,0,0,0,1.792-.109,8.994,8.994,0,0,1-1.464,2.944,9.255,9.255,0,0,1-3.313,2.712,2.426,2.426,0,0,0,.384,4.495,39.44,39.44,0,0,1,18.723,12.382l-7.617-.328a2.426,2.426,0,0,0-1.648,4.295,37.821,37.821,0,0,1,13.314,23.485l-3.937-1.355a2.426,2.426,0,0,0-3.215,2.363A36.934,36.934,0,0,1,177.682,72a2.426,2.426,0,1,0,4.766.9,42.926,42.926,0,0,0,.677-5.441l2.226.767a3.842,3.842,0,0,0,3.851-.8A4.1,4.1,0,0,0,190.494,63.844Z" transform="translate(-6.927)"/>
      <path id="Trazado_100491" data-name="Trazado 100491" d="M174.839,234.141V232.9h.1a2.426,2.426,0,0,0,0-4.851h-.1v-3.912a2.423,2.423,0,0,0-.006-4.791,13.517,13.517,0,0,0-13.559-13.209H146.845c.215-.693.441-1.426.673-2.19a9.827,9.827,0,0,0,4.2,1.169,3.934,3.934,0,0,0,3.833-3.152,4.148,4.148,0,0,0-.206-2.451c.449-1.127,2.181-4.337,8.768-11.1a43.217,43.217,0,0,0,6.638-8.81,2.426,2.426,0,0,0-4.22-2.394,38.388,38.388,0,0,1-5.895,7.82c-6.819,7-10.281,12-10.292,14.861a9.237,9.237,0,0,1-1.408-.728c1.8-6.238,3.525-13,3.525-15.976v-6.493h1.412a10.085,10.085,0,0,0,10.073-10.073v-8.312a10.085,10.085,0,0,0-10.073-10.073H152.03a3.7,3.7,0,0,0-2.928-1.958c-10.179-.986-16.792-4.421-20.548-7.128a3.7,3.7,0,0,0-2.176-.7,3.719,3.719,0,0,0-3.708,3.434l-.448,5.815c-6.028-1.23-12.017-5.072-16.058-8.154a3.772,3.772,0,0,0-3.3-.614,3.732,3.732,0,0,0-2.451,2.29l-1.9,5.174a24.437,24.437,0,0,1-10.141-5.7,3.719,3.719,0,0,0-6.242,2.734v4.81H80.726a10.085,10.085,0,0,0-10.073,10.073v8.312a10.085,10.085,0,0,0,10.073,10.073h1.411v6.493c0,2.765,1.488,8.79,3.14,14.63a8.3,8.3,0,0,1-1.025.489v-.011c-.014-2.837-3.572-7.983-10.29-14.883A37.809,37.809,0,0,1,63.193,156.2a2.426,2.426,0,0,0-3.215-2.363l-3.936,1.355a40.929,40.929,0,0,1,1.59-6.411,2.426,2.426,0,1,0-4.6-1.551,46.14,46.14,0,0,0-2,8.667,4.1,4.1,0,0,0,1.29,3.578,3.843,3.843,0,0,0,3.85.8l2.232-.768A42.677,42.677,0,0,0,70.487,186.8c6.551,6.728,8.3,9.97,8.76,11.122a4.149,4.149,0,0,0-.2,2.432,3.934,3.934,0,0,0,3.833,3.151,9.551,9.551,0,0,0,3.775-.958c.383,1.276.754,2.487,1.1,3.6H73.07c-.084,0-.168,0-.25.013A13.536,13.536,0,0,0,59.9,217.7H58.87a2.426,2.426,0,1,0,0,4.851h.893v2.264H57.942a2.426,2.426,0,1,0,0,4.851h1.821v1.941h-.851a2.426,2.426,0,1,0,0,4.851h1.053a13.221,13.221,0,0,0,1.238,3.706,8.233,8.233,0,0,0-1.44,4.643v1.354h-.851a2.426,2.426,0,1,0,0,4.851h.851v4.128a4.134,4.134,0,0,0,4.139,4.119H170.7a4.134,4.134,0,0,0,4.139-4.119v-6.411a2.424,2.424,0,0,0-.055-4.82,8.251,8.251,0,0,0-1.385-3.745A13.256,13.256,0,0,0,174.839,234.141ZM159.1,158.307v8.312a5.228,5.228,0,0,1-5.222,5.222h-1.412v-7.129h1.711a2.426,2.426,0,0,0,0-4.851h-1.711v-6.776h1.412A5.228,5.228,0,0,1,159.1,158.307ZM86.989,145.875a28.894,28.894,0,0,0,11.085,5.411,4.04,4.04,0,0,0,4.749-2.537l1.627-4.437c4.643,3.383,11.171,7.25,17.869,8.331a4.043,4.043,0,0,0,4.673-3.682l.366-4.763a47.1,47.1,0,0,0,20.254,6.8v14.077a30.2,30.2,0,0,1-8.318,20.833v-4.914a9.876,9.876,0,0,0-9.865-9.865H125.9v-1.3a2.426,2.426,0,1,0-4.851,0v2.64a1.04,1.04,0,0,1-.809.3h-4.582a.819.819,0,0,1-.809-.809V159.324a2.426,2.426,0,1,0-4.851,0v11.805h-4.824a9.876,9.876,0,0,0-9.865,9.865v4.914a30.2,30.2,0,0,1-8.319-20.834v-19.2Zm-6.263,25.967A5.228,5.228,0,0,1,75.5,166.62v-8.312a5.228,5.228,0,0,1,5.222-5.222h1.411v6.776H80.427a2.426,2.426,0,0,0,0,4.851h1.711v7.129Zm6.263,11.12a35.294,35.294,0,0,0,9.293,10.3,2.426,2.426,0,0,0,3.877-1.944V180.994a5.019,5.019,0,0,1,5.013-5.013h6.5a5.64,5.64,0,0,0,3.984,1.645h4.582a5.931,5.931,0,0,0,4.147-1.645h5.043a5.019,5.019,0,0,1,5.013,5.013v10.329a2.426,2.426,0,0,0,3.877,1.944,35.3,35.3,0,0,0,9.293-10.3v.225c0,3.638-3.843,16.784-6.714,25.67l-.666-.673a2.426,2.426,0,0,0-3.825.493l-4.553,7.885-2.044-3.54a2.426,2.426,0,0,0-2.872-1.087c-.626.21-1.909.64-9.638,9.9-7.729-9.257-9.013-9.688-9.638-9.9a2.424,2.424,0,0,0-2.871,1.087l-2.045,3.541-4.553-7.885a2.426,2.426,0,0,0-3.826-.492l-.666.673c-2.87-8.886-6.713-22.031-6.713-25.67ZM64.614,251.016h.291a2.426,2.426,0,1,0,0-4.851h-.291v-1.354a3.418,3.418,0,0,1,1.173-2.561,2.426,2.426,0,0,0,.38-3.219,8.473,8.473,0,0,1-1.225-2.571,2.425,2.425,0,0,0-.037-4.849h-.291V229.67h.938a2.426,2.426,0,1,0,0-4.851h-.938v-2.264h1.324a2.426,2.426,0,0,0,0-4.851H64.826a8.659,8.659,0,0,1,5.818-6.29v43h-6.03Zm95.218,3.4V232.9a2.426,2.426,0,1,0-4.851,0V251.72l-10.916-8.927a2.426,2.426,0,1,0-3.071,3.756l9.615,7.863H135.9v-2.749a2.426,2.426,0,0,0-4.851,0v2.749H114.875v-2.749a2.426,2.426,0,0,0-4.851,0v2.749H95.146v-2.749a2.426,2.426,0,0,0-4.851,0v2.749H75.5v-43.42H89.3c.124.382.221.679.284.871a3.722,3.722,0,0,0,3.529,2.891,3.915,3.915,0,0,0,2.459-.923l3.87,6.7a3.675,3.675,0,0,0,6.618,0l1.447-2.506c1.739,1.839,4.364,4.853,6.614,7.561a3.78,3.78,0,0,0,3.185,1.873c.109,0,.217-.012.324-.022l13.341,10.911a2.426,2.426,0,1,0,3.071-3.756l-12.52-10.238c1.984-2.352,4.1-4.765,5.582-6.329l1.446,2.505a3.675,3.675,0,0,0,6.618,0l3.87-6.7a3.91,3.91,0,0,0,2.459.924h0a3.723,3.723,0,0,0,3.529-2.891c.063-.192.161-.491.284-.871h15.969a8.662,8.662,0,0,1,8.707,8.328h-3.843a2.426,2.426,0,1,0,0,4.851h3.849v3.881h-3.2a2.426,2.426,0,1,0,0,4.851h3.2v1.237a8.44,8.44,0,0,1-1.554,4.889,2.425,2.425,0,0,0,.381,3.219,3.456,3.456,0,0,1,1.041,1.65h-3.467a2.426,2.426,0,1,0,0,4.851h3.6v5.66Z" transform="translate(0 -93.668)"/>
      <path id="Trazado_100492" data-name="Trazado 100492" d="M293.547,198.1a6.8,6.8,0,1,0-6.785-6.8A6.8,6.8,0,0,0,293.547,198.1Zm0-8.752a1.95,1.95,0,1,1-1.933,1.95A1.944,1.944,0,0,1,293.547,189.352Z" transform="translate(-159.512 -124.828)"/>
      <path id="Trazado_100493" data-name="Trazado 100493" d="M190.071,198.1a6.8,6.8,0,1,0-6.785-6.8A6.8,6.8,0,0,0,190.071,198.1Zm0-8.752a1.95,1.95,0,1,1-1.933,1.95A1.944,1.944,0,0,1,190.071,189.352Z" transform="translate(-89.503 -124.828)"/>
      <path id="Trazado_100494" data-name="Trazado 100494" d="M212.931,282.109h23.077a3.539,3.539,0,0,0,3.535-3.535v-7.988a7.093,7.093,0,0,0-7.085-7.086H216.481a7.093,7.093,0,0,0-7.085,7.086v7.988A3.539,3.539,0,0,0,212.931,282.109Zm18.159-13.757h1.367a2.237,2.237,0,0,1,2.234,2.234v.459h-3.6Zm-8.39,0h3.538v2.693H222.7Zm-8.453,2.234a2.237,2.237,0,0,1,2.234-2.234h1.368v2.693h-3.6Zm0,5.31h20.444v1.361H214.247V275.9Z" transform="translate(-107.168 -178.277)"/>
      <path id="Trazado_100495" data-name="Trazado 100495" d="M146.352,390.1v-5.175a2.426,2.426,0,1,0-4.851,0V390.1a2.426,2.426,0,1,0,4.851,0Z" transform="translate(-61.232 -258.789)"/>
      <path id="Trazado_100496" data-name="Trazado 100496" d="M172.927,408.5a2.426,2.426,0,0,0-2.426,2.426V416.1a2.426,2.426,0,0,0,4.851,0v-5.175A2.426,2.426,0,0,0,172.927,408.5Z" transform="translate(-80.853 -276.38)"/>
      <path id="Trazado_100497" data-name="Trazado 100497" d="M217.927,405.5a2.426,2.426,0,0,0-2.426,2.426V413.1a2.426,2.426,0,1,0,4.851,0v-5.175A2.426,2.426,0,0,0,217.927,405.5Z" transform="translate(-111.299 -274.35)"/>
      <path id="Trazado_100498" data-name="Trazado 100498" d="M264.927,443.5a2.425,2.425,0,0,0-2.426,2.426V451.1a2.426,2.426,0,0,0,4.851,0v-5.175A2.425,2.425,0,0,0,264.927,443.5Z" transform="translate(-143.098 -300.06)"/>
      <path id="Trazado_100499" data-name="Trazado 100499" d="M199.927,445.5a2.426,2.426,0,0,0-2.426,2.426V453.1a2.426,2.426,0,1,0,4.851,0v-5.175A2.426,2.426,0,0,0,199.927,445.5Z" transform="translate(-99.12 -301.413)"/>
      <path id="Trazado_100500" data-name="Trazado 100500" d="M146.927,451.5a2.426,2.426,0,0,0-2.426,2.426V459.1a2.426,2.426,0,0,0,4.851,0v-5.175A2.426,2.426,0,0,0,146.927,451.5Z" transform="translate(-63.262 -305.472)"/>
    </g>
    <g id="edad-de-piedra" transform="translate(-10721.198 -9640.436)">
      <path id="Trazado_100501" data-name="Trazado 100501" d="M70,346.336H80.989v30.537H70Zm0,0" transform="translate(-56.271 -278.395)" fill="#ffb954"/>
      <path id="Trazado_100502" data-name="Trazado 100502" d="M21.545,75.983,10,66.795V46.819l7.03-11.9V28.738L19.777,24.2l4.741-13.163a1.569,1.569,0,0,1,2.8-.313L34.584,22.1l2.447,3.5V41.979L44.529,53V66.6l-10.92,9.384Zm0,0" transform="translate(-8.041 -8.042)" fill="#d8d8e4"/>
      <path id="Trazado_100503" data-name="Trazado 100503" d="M139.731,122.5a1.962,1.962,0,1,0,1.387.575A1.975,1.975,0,0,0,139.731,122.5Zm0,0" transform="translate(-110.743 -98.472)"/>
      <path id="Trazado_100504" data-name="Trazado 100504" d="M38.11,43.853,30.95,33.334v-.181a1.962,1.962,0,1,0-3.923,0v.785a1.964,1.964,0,0,0,.34,1.1l6.146,9.031A41.81,41.81,0,0,0,19.759,54.087,49.808,49.808,0,0,0,4.877,41.663l-.953-.52v-1.83l6.757-11.44a1.961,1.961,0,0,0,.273-1V21.244l2.46-4.066a1.968,1.968,0,0,0,.168-.351l4.47-12.41,6.838,10.7c.015.023.029.045.045.067l2.092,2.992v.461a1.962,1.962,0,1,0,3.923,0V17.557a1.96,1.96,0,0,0-.354-1.124l-2.423-3.465L20.927,1.63a3.53,3.53,0,0,0-6.3.7L9.956,15.314,7.313,19.681A1.96,1.96,0,0,0,7.031,20.7V26.34L.273,37.779a1.968,1.968,0,0,0-.273,1V58.753a1.962,1.962,0,0,0,.74,1.535l11.03,8.781v4.883a1.959,1.959,0,0,0,0,3.672V81.8a1.959,1.959,0,0,0,0,3.672V98.478a1.962,1.962,0,0,0,1.962,1.962H24.717a1.962,1.962,0,0,0,1.962-1.962V85.47a1.959,1.959,0,0,0,0-3.672V77.624a1.959,1.959,0,0,0,0-3.672v-4.4a1.777,1.777,0,0,0,.167-.127l10.92-9.383a1.96,1.96,0,0,0,.683-1.487v-13.6A1.959,1.959,0,0,0,38.11,43.853ZM3.924,45.627A45.9,45.9,0,0,1,17.207,57.184,41.682,41.682,0,0,0,12.7,64.794L3.924,57.807Zm11.77,28.2V69.9h7.062v3.923Zm7.061,3.923v3.923H15.694V77.749Zm-6.278-11.77a37.639,37.639,0,0,1,3.13-5.413,45.824,45.824,0,0,1,2.986,5.413Zm-.783,30.537V85.6h7.062v10.92ZM26.323,64.7a49.71,49.71,0,0,0-4.176-7.4,37.91,37.91,0,0,1,12.379-9.379v9.733Zm0,0"/>
      <path id="Trazado_100505" data-name="Trazado 100505" d="M105.548,154.594a1.962,1.962,0,0,0-1.962,1.962v6.715a1.962,1.962,0,0,0,.575,1.387l3.881,3.882a1.962,1.962,0,1,0,2.775-2.775l-3.307-3.307v-5.9A1.962,1.962,0,0,0,105.548,154.594Zm0,0" transform="translate(-83.266 -124.267)"/>
    </g>
  </g>
</svg>
