<svg xmlns="http://www.w3.org/2000/svg" width="255" height="255" viewBox="0 0 255 255">
  <g id="Grupo_55151" data-name="Grupo 55151" transform="translate(10757 9399)">
    <rect id="Rectángulo_5109" data-name="Rectángulo 5109" width="255" height="255" rx="21" transform="translate(-10757 -9399)" fill="#efefef"/>
    <g id="Page-1" transform="translate(-10703.362 -9344.983)">
      <g id="_020---Make-Fire" data-name="020---Make-Fire" transform="translate(0 -0.029)">
        <g id="Icons" transform="translate(2.449 2.416)">
          <g id="Grupo_55121" data-name="Grupo 55121" transform="translate(49.395)">
            <path id="Shape" d="M62.192,31.76a6.368,6.368,0,0,1-6.441,5.486H40.174V35.924A5.927,5.927,0,0,0,42.6,31.76,6.123,6.123,0,0,0,36.5,25H56.094a6.123,6.123,0,0,1,6.1,6.76Z" transform="translate(3.502 33.885)" fill="#dfc49c"/>
            <path id="Shape-2" data-name="Shape" d="M65.4,26.76a6.368,6.368,0,0,1-6.441,5.486H39.36A6.368,6.368,0,0,0,45.8,26.76,6.123,6.123,0,0,0,39.7,20H59.3a6.123,6.123,0,0,1,6.1,6.76Z" transform="translate(7.647 26.639)" fill="#dfc49c"/>
            <path id="Shape-3" data-name="Shape" d="M69.4,21.76a6.368,6.368,0,0,1-6.441,5.486H43.36A6.368,6.368,0,0,0,49.8,21.76,6.123,6.123,0,0,0,43.7,15H63.3a6.123,6.123,0,0,1,6.1,6.76Z" transform="translate(13.443 19.393)" fill="#dfc49c"/>
            <path id="Shape-4" data-name="Shape" d="M65.4,15.487a6.123,6.123,0,0,1-6.1,6.76H39.7a6.123,6.123,0,0,0,6.1-6.76A6.368,6.368,0,0,0,39.36,10H58.954A6.368,6.368,0,0,1,65.4,15.487Z" transform="translate(7.647 12.146)" fill="#dfc49c"/>
            <path id="Shape-5" data-name="Shape" d="M58.847,1.061a4.9,4.9,0,0,0-4.8,4.9V11.5c-1.47.612-3.111,1.225-4.9,1.812-5.854,1.935-8.2,4.237-9.16,6.319A2.449,2.449,0,0,0,42.217,23.1H22.623a2.449,2.449,0,0,1-2.229-3.478c.955-2.082,3.306-4.384,9.16-6.319,7.642-2.547,12.638-5.094,12.2-9.919a2.29,2.29,0,0,0-.269-.931,48.641,48.641,0,0,1,15.161-1.4Z" transform="translate(-20.168 -0.958)" fill="#dfc49c"/>
          </g>
          <circle id="Oval" cx="17.145" cy="17.145" r="17.145" transform="translate(107.766 107.869)" fill="#ffe0b2"/>
          <path id="Shape-6" data-name="Shape" d="M53.174,45a17.125,17.125,0,0,0-3.674.4,17.145,17.145,0,0,1,0,33.481A17.145,17.145,0,1,0,53.174,45Z" transform="translate(71.736 62.869)" fill="#dfc49c"/>
          <path id="Shape-7" data-name="Shape" d="M124.91,90.886H17.145a17.145,17.145,0,0,1,0-34.289H29.513L26.99,45.306a2.574,2.574,0,0,1,.441-2.008l4.017-5.315a2.464,2.464,0,0,1,4.286.637L42.3,56.6H124.91a17.145,17.145,0,0,0,0,34.289Z" transform="translate(0 51.272)" fill="#ff9801"/>
          <path id="Shape-8" data-name="Shape" d="M48.348,62.145A17.145,17.145,0,0,1,65.492,45H58.145a17.145,17.145,0,0,0,0,34.289h7.348A17.145,17.145,0,0,1,48.348,62.145Z" transform="translate(59.418 62.869)" fill="#f57c00"/>
          <path id="Shape-9" data-name="Shape" d="M19.058,49.874,17.27,45" transform="translate(25.028 62.869)" fill="#ff9801"/>
          <path id="Shape-10" data-name="Shape" d="M14.254,54.8,12.05,45" transform="translate(17.463 62.869)" fill="#ff9801"/>
          <path id="Shape-11" data-name="Shape" d="M43.8,29.46V52.924a12.035,12.035,0,0,1-.882,4.531L38.9,67.521,34.882,57.455A12.035,12.035,0,0,1,34,52.924V30.783h5.78A6.8,6.8,0,0,0,43.8,29.46Z" transform="translate(49.273 40.349)" fill="sienna"/>
          <path id="Shape-12" data-name="Shape" d="M43.8,5.9V23.043H34V5.9A4.9,4.9,0,0,1,38.8,1h.1a4.788,4.788,0,0,1,3.453,1.445A4.788,4.788,0,0,1,43.8,5.9Z" transform="translate(49.273 -0.896)" fill="sienna"/>
          <path id="Shape-13" data-name="Shape" d="M112.64,42.049a6.368,6.368,0,0,1-6.441,5.486H96.744a6.123,6.123,0,0,1,6.1,6.76A6.368,6.368,0,0,1,96.4,59.781h-7a6.123,6.123,0,0,1,6.1,6.76A5.927,5.927,0,0,1,93.07,70.7a6.8,6.8,0,0,1-4.017,1.323H41.637c-9.8,0-12.246-4.9-22.043-4.9H4.9A4.913,4.913,0,0,1,0,62.23V27.941a4.913,4.913,0,0,1,4.9-4.9H17.145c12.246,0,13.275-8.033,26.941-17.145C51.434,1,56.479,1,66.276,1h2.2a2.484,2.484,0,0,1,2.229,1.4,2.29,2.29,0,0,1,.269.931c.441,4.825-4.556,7.372-12.2,9.919-5.854,1.935-8.2,4.237-9.16,6.319a2.449,2.449,0,0,0,2.229,3.478H96.4a6.368,6.368,0,0,1,6.441,5.486,6.123,6.123,0,0,1-6.1,6.76h9.8a6.123,6.123,0,0,1,6.1,6.76Z" transform="translate(0 -0.896)" fill="#ffe0b2"/>
          <g id="Grupo_55122" data-name="Grupo 55122" transform="translate(42.047 0.104)">
            <path id="Shape-14" data-name="Shape" d="M38.482,2.4a2.29,2.29,0,0,1,.269.931c.441,4.825-4.556,7.372-12.2,9.919-5.854,1.935-8.2,4.237-9.16,6.319a2.449,2.449,0,0,0,2.229,3.478H26.97a2.449,2.449,0,0,1-2.229-3.478c.955-2.082,3.306-4.384,9.16-6.319C41.543,10.7,46.54,8.152,46.1,3.327a2.29,2.29,0,0,0-.269-.931A2.484,2.484,0,0,0,43.6,1H41.4c-1.778,0-3.36,0-4.867.039A2.476,2.476,0,0,1,38.482,2.4Z" transform="translate(-17.168 -1)" fill="#dfc49c"/>
            <path id="Shape-15" data-name="Shape" d="M42.8,15.487a6.123,6.123,0,0,1-6.1,6.76h7.348a6.123,6.123,0,0,0,6.1-6.76A6.368,6.368,0,0,0,43.708,10H36.36A6.368,6.368,0,0,1,42.8,15.487Z" transform="translate(10.647 12.042)" fill="#dfc49c"/>
            <path id="Shape-16" data-name="Shape" d="M48.4,20H41.051a6.123,6.123,0,0,1,6.1,6.76,6.368,6.368,0,0,1-6.441,5.486h-7a6.123,6.123,0,0,1,6.1,6.76,5.927,5.927,0,0,1-2.425,4.164,6.8,6.8,0,0,1-4.017,1.323h7.348a6.8,6.8,0,0,0,4.017-1.323,5.927,5.927,0,0,0,2.425-4.164,6.123,6.123,0,0,0-6.1-6.76h7A6.368,6.368,0,0,0,54.5,26.76,6.123,6.123,0,0,0,48.4,20Z" transform="translate(6.299 26.535)" fill="#dfc49c"/>
            <path id="Shape-17" data-name="Shape" d="M48.051,15H40.7a6.123,6.123,0,0,1,6.1,6.76,6.368,6.368,0,0,1-6.441,5.486h7.348a6.368,6.368,0,0,0,6.441-5.486,6.123,6.123,0,0,0-6.1-6.76Z" transform="translate(16.443 19.289)" fill="#dfc49c"/>
          </g>
        </g>
        <g id="Layer_10">
          <path id="Shape-18" data-name="Shape" d="M0,128.4a19.616,19.616,0,0,0,19.594,19.594H127.359a19.594,19.594,0,0,0,0-39.188H94.234l2.67-6.694a14.36,14.36,0,0,0,1.065-5.454V76.967H111.1a8.834,8.834,0,0,0,8.878-7.693,8.629,8.629,0,0,0-.8-4.582,8.8,8.8,0,0,0,8.146-7.664,8.619,8.619,0,0,0-.786-4.553h1.714a8.834,8.834,0,0,0,8.878-7.693,8.572,8.572,0,0,0-8.545-9.452h-2.048a8.619,8.619,0,0,0,.786-4.553,8.834,8.834,0,0,0-8.878-7.693H97.969V8.389a7.384,7.384,0,0,0-7.348-7.348h-2.3a58.382,58.382,0,0,0-14.352,1.07,4.9,4.9,0,0,0-3.03-1.07h-2.2c-10.042,0-15.587,0-23.552,5.31A76.905,76.905,0,0,0,33.6,15.982c-4.7,4.582-7.308,7.1-14.01,7.1H7.348A7.348,7.348,0,0,0,0,30.432V64.721a7.348,7.348,0,0,0,7.348,7.348h14.7a24.421,24.421,0,0,1,10.113,2.275,28.9,28.9,0,0,0,11.93,2.623H83.273V96.659a14.365,14.365,0,0,0,1.058,5.44l2.675,6.708H46.471L40.5,92.444a4.93,4.93,0,0,0-8.572-1.269l-4,5.312a4.9,4.9,0,0,0-.865,4.019l1.857,8.3H19.594A19.616,19.616,0,0,0,0,128.4ZM111.1,72.069H99.536a7.977,7.977,0,0,0,.838-2.795,8.626,8.626,0,0,0-.789-4.553h11.854a3.674,3.674,0,0,1,3.674,4.066A3.953,3.953,0,0,1,111.1,72.069Zm7.348-12.246H106.9a8.009,8.009,0,0,0,.823-2.795,8.6,8.6,0,0,0-.786-4.553h11.852a3.674,3.674,0,0,1,3.674,4.066A3.953,3.953,0,0,1,118.444,59.823Zm10.14-19.594a3.674,3.674,0,0,1,3.674,4.066,3.953,3.953,0,0,1-4.017,3.282H116.683a8.024,8.024,0,0,0,.835-2.795,8.6,8.6,0,0,0-.833-4.553h.877a2.425,2.425,0,0,0,.612-.122,2.425,2.425,0,0,0,.612.122Zm-6.123-8.967a3.674,3.674,0,0,1-3.674,4.068,2.425,2.425,0,0,0-.612.122,2.425,2.425,0,0,0-.612-.122H106.935a8.6,8.6,0,0,0,.786-4.553,8.024,8.024,0,0,0-.835-2.795h11.558a3.953,3.953,0,0,1,4.017,3.28ZM75.889,6.7a39.761,39.761,0,0,1,7.838-.735,7.238,7.238,0,0,0-.453,2.427v3.865c-1.034.4-2.1.789-3.216,1.158-5.648,1.866-9.121,4.36-10.612,7.593a4.862,4.862,0,0,0-.434,2.079H54.3c.874-1.9,3.537-3.63,7.7-5.014C68.659,15.842,75.681,12.952,75.889,6.7Zm-2,16.388c.889-1.932,3.48-3.62,7.7-5.016.573-.191,1.124-.389,1.683-.588v5.6ZM92.367,6.695a2.364,2.364,0,0,1,.7,1.695v14.7h-4.9V8.389A2.449,2.449,0,0,1,90.621,5.94a2.4,2.4,0,0,1,1.746.749Zm-58.394,63.1a28.9,28.9,0,0,0-11.93-2.623H7.348A2.449,2.449,0,0,1,4.9,64.721V30.432a2.449,2.449,0,0,1,2.449-2.449H19.594c8.687,0,12.542-3.742,17.421-8.482a71.9,71.9,0,0,1,10.879-9.062c6.723-4.5,11.149-4.5,20.833-4.5l2.258.091c.245,2.694-2.706,4.774-10.532,7.382-5.633,1.874-9.106,4.362-10.605,7.6a4.9,4.9,0,0,0,4.46,6.966H98.838a3.919,3.919,0,0,1,4.009,3.284,3.674,3.674,0,0,1-3.654,4.063,2.425,2.425,0,0,0-.612.122,2.425,2.425,0,0,0-.612-.122H68.578a2.449,2.449,0,0,0,0,4.9H97.969a2.425,2.425,0,0,0,.612-.122,2.424,2.424,0,0,0,.612.122h9.8a3.674,3.674,0,0,1,3.654,4.063,3.919,3.919,0,0,1-4.009,3.284H68.578a2.449,2.449,0,0,0,0,4.9H99.193a3.674,3.674,0,0,1,3.654,4.061,3.919,3.919,0,0,1-4.009,3.287H68.578a2.449,2.449,0,1,0,0,4.9H91.846A3.674,3.674,0,0,1,95.5,68.782a3.919,3.919,0,0,1-4.009,3.287h-47.4a24.421,24.421,0,0,1-10.113-2.275Zm57.517,7.174a9.086,9.086,0,0,0,1.58-.145V96.662a9.593,9.593,0,0,1-.708,3.625l-1.741,4.357-1.749-4.379a9.576,9.576,0,0,1-.7-3.605V76.967ZM142.055,128.4a14.7,14.7,0,1,1-14.7-14.7A14.7,14.7,0,0,1,142.055,128.4ZM31.766,121.587a2.449,2.449,0,0,0,2.386,1.915,2.5,2.5,0,0,0,.536-.059,2.449,2.449,0,0,0,1.857-2.924l-4.7-21.085,4.051-5.307,8.342,22.837a2.449,2.449,0,1,0,4.6-1.68l-.583-1.577h66.193a19.29,19.29,0,0,0-6.508,17.145H83.273a2.449,2.449,0,0,0,0,4.9h25.935a19.65,19.65,0,0,0,5.234,7.348H19.594A14.615,14.615,0,0,1,5.119,125.952H22.043a2.449,2.449,0,0,0,0-4.9H6.887a14.7,14.7,0,0,1,12.707-7.348H30.008Z" transform="translate(0 -0.971)"/>
          <path id="Shape-19" data-name="Shape" d="M38.246,50.246a2.449,2.449,0,0,0,1.47-4.409l-9.8-7.348a2.449,2.449,0,0,0-2.939,3.919l9.8,7.348a2.434,2.434,0,0,0,1.47.49Z" transform="translate(37.68 52.691)"/>
          <path id="Shape-20" data-name="Shape" d="M52.777,38.49l-9.8,7.348a2.449,2.449,0,0,0,2.939,3.919l9.8-7.348a2.449,2.449,0,0,0-2.939-3.919Z" transform="translate(60.867 52.691)"/>
          <path id="Shape-21" data-name="Shape" d="M57.8,64.246a2.449,2.449,0,0,0,0-4.9,4.9,4.9,0,0,1-4.9-4.9,2.449,2.449,0,0,0-4.9,0A9.8,9.8,0,0,0,57.8,64.246Z" transform="translate(69.563 72.981)"/>
          <path id="Shape-22" data-name="Shape" d="M53.449,53.9a4.9,4.9,0,0,1,4.9,4.9,2.449,2.449,0,0,0,4.9,0,9.8,9.8,0,0,0-9.8-9.8,2.449,2.449,0,0,0,0,4.9Z" transform="translate(73.91 68.633)"/>
          <path id="Shape-23" data-name="Shape" d="M35.8,54H28.449a2.449,2.449,0,0,0,0,4.9H35.8a2.449,2.449,0,0,0,0-4.9Z" transform="translate(37.68 75.879)"/>
          <path id="Shape-24" data-name="Shape" d="M14.449,58.9H36.492a2.449,2.449,0,0,0,0-4.9H14.449a2.449,2.449,0,0,0,0,4.9Z" transform="translate(17.391 75.879)"/>
          <path id="Shape-25" data-name="Shape" d="M23.449,54.9H60.188a2.449,2.449,0,0,0,0-4.9H23.449a2.449,2.449,0,0,0,0,4.9Z" transform="translate(30.434 70.082)"/>
        </g>
      </g>
    </g>
  </g>
</svg>
